<?xml version="1.0" encoding="utf-8" standalone="no"?>
<!DOCTYPE svg PUBLIC "-//W3C//DTD SVG 1.1//EN"
  "http://www.w3.org/Graphics/SVG/1.1/DTD/svg11.dtd">
<svg xmlns:xlink="http://www.w3.org/1999/xlink" width="387.83pt" height="278.824375pt" viewBox="0 0 387.83 278.824375" xmlns="http://www.w3.org/2000/svg" version="1.1">
 <metadata>
  <rdf:RDF xmlns:dc="http://purl.org/dc/elements/1.1/" xmlns:cc="http://creativecommons.org/ns#" xmlns:rdf="http://www.w3.org/1999/02/22-rdf-syntax-ns#">
   <cc:Work>
    <dc:type rdf:resource="http://purl.org/dc/dcmitype/StillImage"/>
    <dc:date>2025-01-06T13:57:04.401943</dc:date>
    <dc:format>image/svg+xml</dc:format>
    <dc:creator>
     <cc:Agent>
      <dc:title>Matplotlib v3.8.0, https://matplotlib.org/</dc:title>
     </cc:Agent>
    </dc:creator>
   </cc:Work>
  </rdf:RDF>
 </metadata>
 <defs>
  <style type="text/css">*{stroke-linejoin: round; stroke-linecap: butt}</style>
 </defs>
 <g id="figure_1">
  <g id="patch_1">
   <path d="M 0 278.824375 
L 387.83 278.824375 
L 387.83 0 
L 0 0 
z
" style="fill: #ffffff"/>
  </g>
  <g id="axes_1">
   <g id="patch_2">
    <path d="M 52.6 242.44 
L 380.63 242.44 
L 380.63 7.2 
L 52.6 7.2 
z
" style="fill: #ffffff"/>
   </g>
   <g id="matplotlib.axis_1">
    <g id="xtick_1">
     <g id="line2d_1">
      <path d="M 67.510455 242.44 
L 67.510455 7.2 
" clip-path="url(#pd3ac8dc62c)" style="fill: none; stroke-dasharray: 0.8,1.32; stroke-dashoffset: 0; stroke: #b0b0b0; stroke-width: 0.8"/>
     </g>
     <g id="line2d_2">
      <defs>
       <path id="mce6defc3a8" d="M 0 0 
L 0 3.5 
" style="stroke: #000000; stroke-width: 0.8"/>
      </defs>
      <g>
       <use xlink:href="#mce6defc3a8" x="67.510455" y="242.44" style="stroke: #000000; stroke-width: 0.8"/>
      </g>
     </g>
     <g id="text_1">
      <!-- 0 -->
      <g transform="translate(65.010455 256.38375) scale(0.1 -0.1)">
       <defs>
        <path id="TimesNewRomanPSMT-30" d="M 231 2094 
Q 231 2819 450 3342 
Q 669 3866 1031 4122 
Q 1313 4325 1613 4325 
Q 2100 4325 2488 3828 
Q 2972 3213 2972 2159 
Q 2972 1422 2759 906 
Q 2547 391 2217 158 
Q 1888 -75 1581 -75 
Q 975 -75 572 641 
Q 231 1244 231 2094 
z
M 844 2016 
Q 844 1141 1059 588 
Q 1238 122 1591 122 
Q 1759 122 1940 273 
Q 2122 425 2216 781 
Q 2359 1319 2359 2297 
Q 2359 3022 2209 3506 
Q 2097 3866 1919 4016 
Q 1791 4119 1609 4119 
Q 1397 4119 1231 3928 
Q 1006 3669 925 3112 
Q 844 2556 844 2016 
z
" transform="scale(0.015625)"/>
       </defs>
       <use xlink:href="#TimesNewRomanPSMT-30"/>
      </g>
     </g>
    </g>
    <g id="xtick_2">
     <g id="line2d_3">
      <path d="M 110.155268 242.44 
L 110.155268 7.2 
" clip-path="url(#pd3ac8dc62c)" style="fill: none; stroke-dasharray: 0.8,1.32; stroke-dashoffset: 0; stroke: #b0b0b0; stroke-width: 0.8"/>
     </g>
     <g id="line2d_4">
      <g>
       <use xlink:href="#mce6defc3a8" x="110.155268" y="242.44" style="stroke: #000000; stroke-width: 0.8"/>
      </g>
     </g>
     <g id="text_2">
      <!-- 2 -->
      <g transform="translate(107.655268 256.38375) scale(0.1 -0.1)">
       <defs>
        <path id="TimesNewRomanPSMT-32" d="M 2934 816 
L 2638 0 
L 138 0 
L 138 116 
Q 1241 1122 1691 1759 
Q 2141 2397 2141 2925 
Q 2141 3328 1894 3587 
Q 1647 3847 1303 3847 
Q 991 3847 742 3664 
Q 494 3481 375 3128 
L 259 3128 
Q 338 3706 661 4015 
Q 984 4325 1469 4325 
Q 1984 4325 2329 3994 
Q 2675 3663 2675 3213 
Q 2675 2891 2525 2569 
Q 2294 2063 1775 1497 
Q 997 647 803 472 
L 1909 472 
Q 2247 472 2383 497 
Q 2519 522 2628 598 
Q 2738 675 2819 816 
L 2934 816 
z
" transform="scale(0.015625)"/>
       </defs>
       <use xlink:href="#TimesNewRomanPSMT-32"/>
      </g>
     </g>
    </g>
    <g id="xtick_3">
     <g id="line2d_5">
      <path d="M 152.800082 242.44 
L 152.800082 7.2 
" clip-path="url(#pd3ac8dc62c)" style="fill: none; stroke-dasharray: 0.8,1.32; stroke-dashoffset: 0; stroke: #b0b0b0; stroke-width: 0.8"/>
     </g>
     <g id="line2d_6">
      <g>
       <use xlink:href="#mce6defc3a8" x="152.800082" y="242.44" style="stroke: #000000; stroke-width: 0.8"/>
      </g>
     </g>
     <g id="text_3">
      <!-- 4 -->
      <g transform="translate(150.300082 256.38375) scale(0.1 -0.1)">
       <defs>
        <path id="TimesNewRomanPSMT-34" d="M 2978 1563 
L 2978 1119 
L 2409 1119 
L 2409 0 
L 1894 0 
L 1894 1119 
L 100 1119 
L 100 1519 
L 2066 4325 
L 2409 4325 
L 2409 1563 
L 2978 1563 
z
M 1894 1563 
L 1894 3666 
L 406 1563 
L 1894 1563 
z
" transform="scale(0.015625)"/>
       </defs>
       <use xlink:href="#TimesNewRomanPSMT-34"/>
      </g>
     </g>
    </g>
    <g id="xtick_4">
     <g id="line2d_7">
      <path d="M 195.444896 242.44 
L 195.444896 7.2 
" clip-path="url(#pd3ac8dc62c)" style="fill: none; stroke-dasharray: 0.8,1.32; stroke-dashoffset: 0; stroke: #b0b0b0; stroke-width: 0.8"/>
     </g>
     <g id="line2d_8">
      <g>
       <use xlink:href="#mce6defc3a8" x="195.444896" y="242.44" style="stroke: #000000; stroke-width: 0.8"/>
      </g>
     </g>
     <g id="text_4">
      <!-- 6 -->
      <g transform="translate(192.944896 256.38375) scale(0.1 -0.1)">
       <defs>
        <path id="TimesNewRomanPSMT-36" d="M 2869 4325 
L 2869 4209 
Q 2456 4169 2195 4045 
Q 1934 3922 1679 3669 
Q 1425 3416 1258 3105 
Q 1091 2794 978 2366 
Q 1428 2675 1881 2675 
Q 2316 2675 2634 2325 
Q 2953 1975 2953 1425 
Q 2953 894 2631 456 
Q 2244 -75 1606 -75 
Q 1172 -75 869 213 
Q 275 772 275 1663 
Q 275 2231 503 2743 
Q 731 3256 1154 3653 
Q 1578 4050 1965 4187 
Q 2353 4325 2688 4325 
L 2869 4325 
z
M 925 2138 
Q 869 1716 869 1456 
Q 869 1156 980 804 
Q 1091 453 1309 247 
Q 1469 100 1697 100 
Q 1969 100 2183 356 
Q 2397 613 2397 1088 
Q 2397 1622 2184 2012 
Q 1972 2403 1581 2403 
Q 1463 2403 1327 2353 
Q 1191 2303 925 2138 
z
" transform="scale(0.015625)"/>
       </defs>
       <use xlink:href="#TimesNewRomanPSMT-36"/>
      </g>
     </g>
    </g>
    <g id="xtick_5">
     <g id="line2d_9">
      <path d="M 238.08971 242.44 
L 238.08971 7.2 
" clip-path="url(#pd3ac8dc62c)" style="fill: none; stroke-dasharray: 0.8,1.32; stroke-dashoffset: 0; stroke: #b0b0b0; stroke-width: 0.8"/>
     </g>
     <g id="line2d_10">
      <g>
       <use xlink:href="#mce6defc3a8" x="238.08971" y="242.44" style="stroke: #000000; stroke-width: 0.8"/>
      </g>
     </g>
     <g id="text_5">
      <!-- 8 -->
      <g transform="translate(235.58971 256.38375) scale(0.1 -0.1)">
       <defs>
        <path id="TimesNewRomanPSMT-38" d="M 1228 2134 
Q 725 2547 579 2797 
Q 434 3047 434 3316 
Q 434 3728 753 4026 
Q 1072 4325 1600 4325 
Q 2113 4325 2425 4047 
Q 2738 3769 2738 3413 
Q 2738 3175 2569 2928 
Q 2400 2681 1866 2347 
Q 2416 1922 2594 1678 
Q 2831 1359 2831 1006 
Q 2831 559 2490 242 
Q 2150 -75 1597 -75 
Q 994 -75 656 303 
Q 388 606 388 966 
Q 388 1247 577 1523 
Q 766 1800 1228 2134 
z
M 1719 2469 
Q 2094 2806 2194 3001 
Q 2294 3197 2294 3444 
Q 2294 3772 2109 3958 
Q 1925 4144 1606 4144 
Q 1288 4144 1088 3959 
Q 888 3775 888 3528 
Q 888 3366 970 3203 
Q 1053 3041 1206 2894 
L 1719 2469 
z
M 1375 2016 
Q 1116 1797 991 1539 
Q 866 1281 866 981 
Q 866 578 1086 336 
Q 1306 94 1647 94 
Q 1984 94 2187 284 
Q 2391 475 2391 747 
Q 2391 972 2272 1150 
Q 2050 1481 1375 2016 
z
" transform="scale(0.015625)"/>
       </defs>
       <use xlink:href="#TimesNewRomanPSMT-38"/>
      </g>
     </g>
    </g>
    <g id="xtick_6">
     <g id="line2d_11">
      <path d="M 280.734524 242.44 
L 280.734524 7.2 
" clip-path="url(#pd3ac8dc62c)" style="fill: none; stroke-dasharray: 0.8,1.32; stroke-dashoffset: 0; stroke: #b0b0b0; stroke-width: 0.8"/>
     </g>
     <g id="line2d_12">
      <g>
       <use xlink:href="#mce6defc3a8" x="280.734524" y="242.44" style="stroke: #000000; stroke-width: 0.8"/>
      </g>
     </g>
     <g id="text_6">
      <!-- 10 -->
      <g transform="translate(275.734524 256.38375) scale(0.1 -0.1)">
       <defs>
        <path id="TimesNewRomanPSMT-31" d="M 750 3822 
L 1781 4325 
L 1884 4325 
L 1884 747 
Q 1884 391 1914 303 
Q 1944 216 2037 169 
Q 2131 122 2419 116 
L 2419 0 
L 825 0 
L 825 116 
Q 1125 122 1212 167 
Q 1300 213 1334 289 
Q 1369 366 1369 747 
L 1369 3034 
Q 1369 3497 1338 3628 
Q 1316 3728 1258 3775 
Q 1200 3822 1119 3822 
Q 1003 3822 797 3725 
L 750 3822 
z
" transform="scale(0.015625)"/>
       </defs>
       <use xlink:href="#TimesNewRomanPSMT-31"/>
       <use xlink:href="#TimesNewRomanPSMT-30" x="50"/>
      </g>
     </g>
    </g>
    <g id="xtick_7">
     <g id="line2d_13">
      <path d="M 323.379337 242.44 
L 323.379337 7.2 
" clip-path="url(#pd3ac8dc62c)" style="fill: none; stroke-dasharray: 0.8,1.32; stroke-dashoffset: 0; stroke: #b0b0b0; stroke-width: 0.8"/>
     </g>
     <g id="line2d_14">
      <g>
       <use xlink:href="#mce6defc3a8" x="323.379337" y="242.44" style="stroke: #000000; stroke-width: 0.8"/>
      </g>
     </g>
     <g id="text_7">
      <!-- 12 -->
      <g transform="translate(318.379337 256.38375) scale(0.1 -0.1)">
       <use xlink:href="#TimesNewRomanPSMT-31"/>
       <use xlink:href="#TimesNewRomanPSMT-32" x="50"/>
      </g>
     </g>
    </g>
    <g id="xtick_8">
     <g id="line2d_15">
      <path d="M 366.024151 242.44 
L 366.024151 7.2 
" clip-path="url(#pd3ac8dc62c)" style="fill: none; stroke-dasharray: 0.8,1.32; stroke-dashoffset: 0; stroke: #b0b0b0; stroke-width: 0.8"/>
     </g>
     <g id="line2d_16">
      <g>
       <use xlink:href="#mce6defc3a8" x="366.024151" y="242.44" style="stroke: #000000; stroke-width: 0.8"/>
      </g>
     </g>
     <g id="text_8">
      <!-- 14 -->
      <g transform="translate(361.024151 256.38375) scale(0.1 -0.1)">
       <use xlink:href="#TimesNewRomanPSMT-31"/>
       <use xlink:href="#TimesNewRomanPSMT-34" x="50"/>
      </g>
     </g>
    </g>
    <g id="text_9">
     <!-- Cycle Number -->
     <g transform="translate(187.317344 269.466562) scale(0.1 -0.1)">
      <defs>
       <path id="TimesNewRomanPSMT-43" d="M 3853 4334 
L 3950 2894 
L 3853 2894 
Q 3659 3541 3300 3825 
Q 2941 4109 2438 4109 
Q 2016 4109 1675 3895 
Q 1334 3681 1139 3212 
Q 944 2744 944 2047 
Q 944 1472 1128 1050 
Q 1313 628 1683 403 
Q 2053 178 2528 178 
Q 2941 178 3256 354 
Q 3572 531 3950 1056 
L 4047 994 
Q 3728 428 3303 165 
Q 2878 -97 2294 -97 
Q 1241 -97 663 684 
Q 231 1266 231 2053 
Q 231 2688 515 3219 
Q 800 3750 1298 4042 
Q 1797 4334 2388 4334 
Q 2847 4334 3294 4109 
Q 3425 4041 3481 4041 
Q 3566 4041 3628 4100 
Q 3709 4184 3744 4334 
L 3853 4334 
z
" transform="scale(0.015625)"/>
       <path id="TimesNewRomanPSMT-79" d="M 38 2863 
L 1372 2863 
L 1372 2747 
L 1306 2747 
Q 1166 2747 1095 2686 
Q 1025 2625 1025 2534 
Q 1025 2413 1128 2197 
L 1825 753 
L 2466 2334 
Q 2519 2463 2519 2588 
Q 2519 2644 2497 2672 
Q 2472 2706 2419 2726 
Q 2366 2747 2231 2747 
L 2231 2863 
L 3163 2863 
L 3163 2747 
Q 3047 2734 2984 2696 
Q 2922 2659 2847 2556 
Q 2819 2513 2741 2316 
L 1575 -541 
Q 1406 -956 1132 -1168 
Q 859 -1381 606 -1381 
Q 422 -1381 303 -1275 
Q 184 -1169 184 -1031 
Q 184 -900 270 -820 
Q 356 -741 506 -741 
Q 609 -741 788 -809 
Q 913 -856 944 -856 
Q 1038 -856 1148 -759 
Q 1259 -663 1372 -384 
L 1575 113 
L 547 2272 
Q 500 2369 397 2513 
Q 319 2622 269 2659 
Q 197 2709 38 2747 
L 38 2863 
z
" transform="scale(0.015625)"/>
       <path id="TimesNewRomanPSMT-63" d="M 2631 1088 
Q 2516 522 2178 217 
Q 1841 -88 1431 -88 
Q 944 -88 581 321 
Q 219 731 219 1428 
Q 219 2103 620 2525 
Q 1022 2947 1584 2947 
Q 2006 2947 2278 2723 
Q 2550 2500 2550 2259 
Q 2550 2141 2473 2067 
Q 2397 1994 2259 1994 
Q 2075 1994 1981 2113 
Q 1928 2178 1911 2362 
Q 1894 2547 1784 2644 
Q 1675 2738 1481 2738 
Q 1169 2738 978 2506 
Q 725 2200 725 1697 
Q 725 1184 976 792 
Q 1228 400 1656 400 
Q 1963 400 2206 609 
Q 2378 753 2541 1131 
L 2631 1088 
z
" transform="scale(0.015625)"/>
       <path id="TimesNewRomanPSMT-6c" d="M 1184 4444 
L 1184 647 
Q 1184 378 1223 290 
Q 1263 203 1344 158 
Q 1425 113 1647 113 
L 1647 0 
L 244 0 
L 244 113 
Q 441 113 512 153 
Q 584 194 625 287 
Q 666 381 666 647 
L 666 3247 
Q 666 3731 644 3842 
Q 622 3953 573 3993 
Q 525 4034 450 4034 
Q 369 4034 244 3984 
L 191 4094 
L 1044 4444 
L 1184 4444 
z
" transform="scale(0.015625)"/>
       <path id="TimesNewRomanPSMT-65" d="M 681 1784 
Q 678 1147 991 784 
Q 1303 422 1725 422 
Q 2006 422 2214 576 
Q 2422 731 2563 1106 
L 2659 1044 
Q 2594 616 2278 264 
Q 1963 -88 1488 -88 
Q 972 -88 605 314 
Q 238 716 238 1394 
Q 238 2128 614 2539 
Q 991 2950 1559 2950 
Q 2041 2950 2350 2633 
Q 2659 2316 2659 1784 
L 681 1784 
z
M 681 1966 
L 2006 1966 
Q 1991 2241 1941 2353 
Q 1863 2528 1708 2628 
Q 1553 2728 1384 2728 
Q 1125 2728 920 2526 
Q 716 2325 681 1966 
z
" transform="scale(0.015625)"/>
       <path id="TimesNewRomanPSMT-20" transform="scale(0.015625)"/>
       <path id="TimesNewRomanPSMT-4e" d="M -84 4238 
L 1066 4238 
L 3656 1059 
L 3656 3503 
Q 3656 3894 3569 3991 
Q 3453 4122 3203 4122 
L 3056 4122 
L 3056 4238 
L 4531 4238 
L 4531 4122 
L 4381 4122 
Q 4113 4122 4000 3959 
Q 3931 3859 3931 3503 
L 3931 -69 
L 3819 -69 
L 1025 3344 
L 1025 734 
Q 1025 344 1109 247 
Q 1228 116 1475 116 
L 1625 116 
L 1625 0 
L 150 0 
L 150 116 
L 297 116 
Q 569 116 681 278 
Q 750 378 750 734 
L 750 3681 
Q 566 3897 470 3965 
Q 375 4034 191 4094 
Q 100 4122 -84 4122 
L -84 4238 
z
" transform="scale(0.015625)"/>
       <path id="TimesNewRomanPSMT-75" d="M 2709 2863 
L 2709 1128 
Q 2709 631 2732 520 
Q 2756 409 2807 365 
Q 2859 322 2928 322 
Q 3025 322 3147 375 
L 3191 266 
L 2334 -88 
L 2194 -88 
L 2194 519 
Q 1825 119 1631 15 
Q 1438 -88 1222 -88 
Q 981 -88 804 51 
Q 628 191 559 409 
Q 491 628 491 1028 
L 491 2306 
Q 491 2509 447 2587 
Q 403 2666 317 2708 
Q 231 2750 6 2747 
L 6 2863 
L 1009 2863 
L 1009 947 
Q 1009 547 1148 422 
Q 1288 297 1484 297 
Q 1619 297 1789 381 
Q 1959 466 2194 703 
L 2194 2325 
Q 2194 2569 2105 2655 
Q 2016 2741 1734 2747 
L 1734 2863 
L 2709 2863 
z
" transform="scale(0.015625)"/>
       <path id="TimesNewRomanPSMT-6d" d="M 1050 2338 
Q 1363 2650 1419 2697 
Q 1559 2816 1721 2881 
Q 1884 2947 2044 2947 
Q 2313 2947 2506 2790 
Q 2700 2634 2766 2338 
Q 3088 2713 3309 2830 
Q 3531 2947 3766 2947 
Q 3994 2947 4170 2830 
Q 4347 2713 4450 2447 
Q 4519 2266 4519 1878 
L 4519 647 
Q 4519 378 4559 278 
Q 4591 209 4675 161 
Q 4759 113 4950 113 
L 4950 0 
L 3538 0 
L 3538 113 
L 3597 113 
Q 3781 113 3884 184 
Q 3956 234 3988 344 
Q 4000 397 4000 647 
L 4000 1878 
Q 4000 2228 3916 2372 
Q 3794 2572 3525 2572 
Q 3359 2572 3192 2489 
Q 3025 2406 2788 2181 
L 2781 2147 
L 2788 2013 
L 2788 647 
Q 2788 353 2820 281 
Q 2853 209 2943 161 
Q 3034 113 3253 113 
L 3253 0 
L 1806 0 
L 1806 113 
Q 2044 113 2133 169 
Q 2222 225 2256 338 
Q 2272 391 2272 647 
L 2272 1878 
Q 2272 2228 2169 2381 
Q 2031 2581 1784 2581 
Q 1616 2581 1450 2491 
Q 1191 2353 1050 2181 
L 1050 647 
Q 1050 366 1089 281 
Q 1128 197 1204 155 
Q 1281 113 1516 113 
L 1516 0 
L 100 0 
L 100 113 
Q 297 113 375 155 
Q 453 197 493 289 
Q 534 381 534 647 
L 534 1741 
Q 534 2213 506 2350 
Q 484 2453 437 2492 
Q 391 2531 309 2531 
Q 222 2531 100 2484 
L 53 2597 
L 916 2947 
L 1050 2947 
L 1050 2338 
z
" transform="scale(0.015625)"/>
       <path id="TimesNewRomanPSMT-62" d="M 984 2369 
Q 1400 2947 1881 2947 
Q 2322 2947 2650 2570 
Q 2978 2194 2978 1541 
Q 2978 778 2472 313 
Q 2038 -88 1503 -88 
Q 1253 -88 995 3 
Q 738 94 469 275 
L 469 3241 
Q 469 3728 445 3840 
Q 422 3953 372 3993 
Q 322 4034 247 4034 
Q 159 4034 28 3984 
L -16 4094 
L 844 4444 
L 984 4444 
L 984 2369 
z
M 984 2169 
L 984 456 
Q 1144 300 1314 220 
Q 1484 141 1663 141 
Q 1947 141 2192 453 
Q 2438 766 2438 1363 
Q 2438 1913 2192 2208 
Q 1947 2503 1634 2503 
Q 1469 2503 1303 2419 
Q 1178 2356 984 2169 
z
" transform="scale(0.015625)"/>
       <path id="TimesNewRomanPSMT-72" d="M 1038 2947 
L 1038 2303 
Q 1397 2947 1775 2947 
Q 1947 2947 2059 2842 
Q 2172 2738 2172 2600 
Q 2172 2478 2090 2393 
Q 2009 2309 1897 2309 
Q 1788 2309 1652 2417 
Q 1516 2525 1450 2525 
Q 1394 2525 1328 2463 
Q 1188 2334 1038 2041 
L 1038 669 
Q 1038 431 1097 309 
Q 1138 225 1241 169 
Q 1344 113 1538 113 
L 1538 0 
L 72 0 
L 72 113 
Q 291 113 397 181 
Q 475 231 506 341 
Q 522 394 522 644 
L 522 1753 
Q 522 2253 501 2348 
Q 481 2444 426 2487 
Q 372 2531 291 2531 
Q 194 2531 72 2484 
L 41 2597 
L 906 2947 
L 1038 2947 
z
" transform="scale(0.015625)"/>
      </defs>
      <use xlink:href="#TimesNewRomanPSMT-43"/>
      <use xlink:href="#TimesNewRomanPSMT-79" x="66.699219"/>
      <use xlink:href="#TimesNewRomanPSMT-63" x="116.699219"/>
      <use xlink:href="#TimesNewRomanPSMT-6c" x="161.083984"/>
      <use xlink:href="#TimesNewRomanPSMT-65" x="188.867188"/>
      <use xlink:href="#TimesNewRomanPSMT-20" x="233.251953"/>
      <use xlink:href="#TimesNewRomanPSMT-4e" x="258.251953"/>
      <use xlink:href="#TimesNewRomanPSMT-75" x="330.46875"/>
      <use xlink:href="#TimesNewRomanPSMT-6d" x="380.46875"/>
      <use xlink:href="#TimesNewRomanPSMT-62" x="458.251953"/>
      <use xlink:href="#TimesNewRomanPSMT-65" x="508.251953"/>
      <use xlink:href="#TimesNewRomanPSMT-72" x="552.636719"/>
     </g>
    </g>
   </g>
   <g id="matplotlib.axis_2">
    <g id="ytick_1">
     <g id="line2d_17">
      <path d="M 52.6 231.747273 
L 380.63 231.747273 
" clip-path="url(#pd3ac8dc62c)" style="fill: none; stroke-dasharray: 0.8,1.32; stroke-dashoffset: 0; stroke: #b0b0b0; stroke-width: 0.8"/>
     </g>
     <g id="line2d_18">
      <defs>
       <path id="md00097e012" d="M 0 0 
L -3.5 0 
" style="stroke: #000000; stroke-width: 0.8"/>
      </defs>
      <g>
       <use xlink:href="#md00097e012" x="52.6" y="231.747273" style="stroke: #000000; stroke-width: 0.8"/>
      </g>
     </g>
     <g id="text_10">
      <!-- -Δmin -->
      <g transform="translate(20.282813 235.219148) scale(0.1 -0.1)">
       <defs>
        <path id="TimesNewRomanPSMT-2d" d="M 259 1672 
L 1875 1672 
L 1875 1200 
L 259 1200 
L 259 1672 
z
" transform="scale(0.015625)"/>
        <path id="TimesNewRomanPSMT-394" d="M 156 0 
L 2056 4334 
L 2163 4334 
L 3956 0 
L 156 0 
z
M 3209 266 
L 1944 3378 
L 575 266 
L 3209 266 
z
" transform="scale(0.015625)"/>
        <path id="TimesNewRomanPSMT-69" d="M 928 4444 
Q 1059 4444 1151 4351 
Q 1244 4259 1244 4128 
Q 1244 3997 1151 3903 
Q 1059 3809 928 3809 
Q 797 3809 703 3903 
Q 609 3997 609 4128 
Q 609 4259 701 4351 
Q 794 4444 928 4444 
z
M 1188 2947 
L 1188 647 
Q 1188 378 1227 289 
Q 1266 200 1342 156 
Q 1419 113 1622 113 
L 1622 0 
L 231 0 
L 231 113 
Q 441 113 512 153 
Q 584 194 626 287 
Q 669 381 669 647 
L 669 1750 
Q 669 2216 641 2353 
Q 619 2453 572 2492 
Q 525 2531 444 2531 
Q 356 2531 231 2484 
L 188 2597 
L 1050 2947 
L 1188 2947 
z
" transform="scale(0.015625)"/>
        <path id="TimesNewRomanPSMT-6e" d="M 1034 2341 
Q 1538 2947 1994 2947 
Q 2228 2947 2397 2830 
Q 2566 2713 2666 2444 
Q 2734 2256 2734 1869 
L 2734 647 
Q 2734 375 2778 278 
Q 2813 200 2889 156 
Q 2966 113 3172 113 
L 3172 0 
L 1756 0 
L 1756 113 
L 1816 113 
Q 2016 113 2095 173 
Q 2175 234 2206 353 
Q 2219 400 2219 647 
L 2219 1819 
Q 2219 2209 2117 2386 
Q 2016 2563 1775 2563 
Q 1403 2563 1034 2156 
L 1034 647 
Q 1034 356 1069 288 
Q 1113 197 1189 155 
Q 1266 113 1500 113 
L 1500 0 
L 84 0 
L 84 113 
L 147 113 
Q 366 113 442 223 
Q 519 334 519 647 
L 519 1709 
Q 519 2225 495 2337 
Q 472 2450 423 2490 
Q 375 2531 294 2531 
Q 206 2531 84 2484 
L 38 2597 
L 900 2947 
L 1034 2947 
L 1034 2341 
z
" transform="scale(0.015625)"/>
       </defs>
       <use xlink:href="#TimesNewRomanPSMT-2d"/>
       <use xlink:href="#TimesNewRomanPSMT-394" x="33.300781"/>
       <use xlink:href="#TimesNewRomanPSMT-6d" x="97.607422"/>
       <use xlink:href="#TimesNewRomanPSMT-69" x="175.390625"/>
       <use xlink:href="#TimesNewRomanPSMT-6e" x="203.173828"/>
      </g>
     </g>
    </g>
    <g id="ytick_2">
     <g id="line2d_19">
      <path d="M 52.6 130.171458 
L 380.63 130.171458 
" clip-path="url(#pd3ac8dc62c)" style="fill: none; stroke-dasharray: 0.8,1.32; stroke-dashoffset: 0; stroke: #b0b0b0; stroke-width: 0.8"/>
     </g>
     <g id="line2d_20">
      <g>
       <use xlink:href="#md00097e012" x="52.6" y="130.171458" style="stroke: #000000; stroke-width: 0.8"/>
      </g>
     </g>
     <g id="text_11">
      <!-- -Δinit -->
      <g transform="translate(22.504688 133.643333) scale(0.1 -0.1)">
       <defs>
        <path id="TimesNewRomanPSMT-74" d="M 1031 3803 
L 1031 2863 
L 1700 2863 
L 1700 2644 
L 1031 2644 
L 1031 788 
Q 1031 509 1111 412 
Q 1191 316 1316 316 
Q 1419 316 1516 380 
Q 1613 444 1666 569 
L 1788 569 
Q 1678 263 1478 108 
Q 1278 -47 1066 -47 
Q 922 -47 784 33 
Q 647 113 581 261 
Q 516 409 516 719 
L 516 2644 
L 63 2644 
L 63 2747 
Q 234 2816 414 2980 
Q 594 3144 734 3369 
Q 806 3488 934 3803 
L 1031 3803 
z
" transform="scale(0.015625)"/>
       </defs>
       <use xlink:href="#TimesNewRomanPSMT-2d"/>
       <use xlink:href="#TimesNewRomanPSMT-394" x="33.300781"/>
       <use xlink:href="#TimesNewRomanPSMT-69" x="97.607422"/>
       <use xlink:href="#TimesNewRomanPSMT-6e" x="125.390625"/>
       <use xlink:href="#TimesNewRomanPSMT-69" x="175.390625"/>
       <use xlink:href="#TimesNewRomanPSMT-74" x="203.173828"/>
      </g>
     </g>
    </g>
    <g id="ytick_3">
     <g id="line2d_21">
      <path d="M 52.6 119.481375 
L 380.63 119.481375 
" clip-path="url(#pd3ac8dc62c)" style="fill: none; stroke-dasharray: 0.8,1.32; stroke-dashoffset: 0; stroke: #b0b0b0; stroke-width: 0.8"/>
     </g>
     <g id="line2d_22">
      <g>
       <use xlink:href="#md00097e012" x="52.6" y="119.481375" style="stroke: #000000; stroke-width: 0.8"/>
      </g>
     </g>
     <g id="text_12">
      <!-- Δinit -->
      <g transform="translate(25.834375 122.95325) scale(0.1 -0.1)">
       <use xlink:href="#TimesNewRomanPSMT-394"/>
       <use xlink:href="#TimesNewRomanPSMT-69" x="64.306641"/>
       <use xlink:href="#TimesNewRomanPSMT-6e" x="92.089844"/>
       <use xlink:href="#TimesNewRomanPSMT-69" x="142.089844"/>
       <use xlink:href="#TimesNewRomanPSMT-74" x="169.873047"/>
      </g>
     </g>
    </g>
    <g id="ytick_4">
     <g id="line2d_23">
      <path d="M 52.6 17.892727 
L 380.63 17.892727 
" clip-path="url(#pd3ac8dc62c)" style="fill: none; stroke-dasharray: 0.8,1.32; stroke-dashoffset: 0; stroke: #b0b0b0; stroke-width: 0.8"/>
     </g>
     <g id="line2d_24">
      <g>
       <use xlink:href="#md00097e012" x="52.6" y="17.892727" style="stroke: #000000; stroke-width: 0.8"/>
      </g>
     </g>
     <g id="text_13">
      <!-- Δmax -->
      <g transform="translate(21.951563 21.364602) scale(0.1 -0.1)">
       <defs>
        <path id="TimesNewRomanPSMT-61" d="M 1822 413 
Q 1381 72 1269 19 
Q 1100 -59 909 -59 
Q 613 -59 420 144 
Q 228 347 228 678 
Q 228 888 322 1041 
Q 450 1253 767 1440 
Q 1084 1628 1822 1897 
L 1822 2009 
Q 1822 2438 1686 2597 
Q 1550 2756 1291 2756 
Q 1094 2756 978 2650 
Q 859 2544 859 2406 
L 866 2225 
Q 866 2081 792 2003 
Q 719 1925 600 1925 
Q 484 1925 411 2006 
Q 338 2088 338 2228 
Q 338 2497 613 2722 
Q 888 2947 1384 2947 
Q 1766 2947 2009 2819 
Q 2194 2722 2281 2516 
Q 2338 2381 2338 1966 
L 2338 994 
Q 2338 584 2353 492 
Q 2369 400 2405 369 
Q 2441 338 2488 338 
Q 2538 338 2575 359 
Q 2641 400 2828 588 
L 2828 413 
Q 2478 -56 2159 -56 
Q 2006 -56 1915 50 
Q 1825 156 1822 413 
z
M 1822 616 
L 1822 1706 
Q 1350 1519 1213 1441 
Q 966 1303 859 1153 
Q 753 1003 753 825 
Q 753 600 887 451 
Q 1022 303 1197 303 
Q 1434 303 1822 616 
z
" transform="scale(0.015625)"/>
        <path id="TimesNewRomanPSMT-78" d="M 84 2863 
L 1431 2863 
L 1431 2747 
Q 1303 2747 1251 2703 
Q 1200 2659 1200 2588 
Q 1200 2513 1309 2356 
Q 1344 2306 1413 2200 
L 1616 1875 
L 1850 2200 
Q 2075 2509 2075 2591 
Q 2075 2656 2022 2701 
Q 1969 2747 1850 2747 
L 1850 2863 
L 2819 2863 
L 2819 2747 
Q 2666 2738 2553 2663 
Q 2400 2556 2134 2200 
L 1744 1678 
L 2456 653 
Q 2719 275 2831 198 
Q 2944 122 3122 113 
L 3122 0 
L 1772 0 
L 1772 113 
Q 1913 113 1991 175 
Q 2050 219 2050 291 
Q 2050 363 1850 653 
L 1431 1266 
L 972 653 
Q 759 369 759 316 
Q 759 241 829 180 
Q 900 119 1041 113 
L 1041 0 
L 106 0 
L 106 113 
Q 219 128 303 191 
Q 422 281 703 653 
L 1303 1450 
L 759 2238 
Q 528 2575 401 2661 
Q 275 2747 84 2747 
L 84 2863 
z
" transform="scale(0.015625)"/>
       </defs>
       <use xlink:href="#TimesNewRomanPSMT-394"/>
       <use xlink:href="#TimesNewRomanPSMT-6d" x="64.306641"/>
       <use xlink:href="#TimesNewRomanPSMT-61" x="142.089844"/>
       <use xlink:href="#TimesNewRomanPSMT-78" x="186.474609"/>
      </g>
     </g>
    </g>
    <g id="text_14">
     <!-- Drift Ratio (%) -->
     <g transform="translate(14.14375 155.366094) rotate(-90) scale(0.1 -0.1)">
      <defs>
       <path id="TimesNewRomanPSMT-44" d="M 109 0 
L 109 116 
L 269 116 
Q 538 116 650 288 
Q 719 391 719 750 
L 719 3488 
Q 719 3884 631 3984 
Q 509 4122 269 4122 
L 109 4122 
L 109 4238 
L 1834 4238 
Q 2784 4238 3279 4022 
Q 3775 3806 4076 3303 
Q 4378 2800 4378 2141 
Q 4378 1256 3841 663 
Q 3238 0 2003 0 
L 109 0 
z
M 1319 306 
Q 1716 219 1984 219 
Q 2709 219 3187 728 
Q 3666 1238 3666 2109 
Q 3666 2988 3187 3494 
Q 2709 4000 1959 4000 
Q 1678 4000 1319 3909 
L 1319 306 
z
" transform="scale(0.015625)"/>
       <path id="TimesNewRomanPSMT-66" d="M 1319 2638 
L 1319 756 
Q 1319 356 1406 250 
Q 1522 113 1716 113 
L 1975 113 
L 1975 0 
L 266 0 
L 266 113 
L 394 113 
Q 519 113 622 175 
Q 725 238 764 344 
Q 803 450 803 756 
L 803 2638 
L 247 2638 
L 247 2863 
L 803 2863 
L 803 3050 
Q 803 3478 940 3775 
Q 1078 4072 1361 4255 
Q 1644 4438 1997 4438 
Q 2325 4438 2600 4225 
Q 2781 4084 2781 3909 
Q 2781 3816 2700 3733 
Q 2619 3650 2525 3650 
Q 2453 3650 2373 3701 
Q 2294 3753 2178 3923 
Q 2063 4094 1966 4153 
Q 1869 4213 1750 4213 
Q 1606 4213 1506 4136 
Q 1406 4059 1362 3898 
Q 1319 3738 1319 3069 
L 1319 2863 
L 2056 2863 
L 2056 2638 
L 1319 2638 
z
" transform="scale(0.015625)"/>
       <path id="TimesNewRomanPSMT-52" d="M 4325 0 
L 3194 0 
L 1759 1981 
Q 1600 1975 1500 1975 
Q 1459 1975 1412 1976 
Q 1366 1978 1316 1981 
L 1316 750 
Q 1316 350 1403 253 
Q 1522 116 1759 116 
L 1925 116 
L 1925 0 
L 109 0 
L 109 116 
L 269 116 
Q 538 116 653 291 
Q 719 388 719 750 
L 719 3488 
Q 719 3888 631 3984 
Q 509 4122 269 4122 
L 109 4122 
L 109 4238 
L 1653 4238 
Q 2328 4238 2648 4139 
Q 2969 4041 3192 3777 
Q 3416 3513 3416 3147 
Q 3416 2756 3161 2468 
Q 2906 2181 2372 2063 
L 3247 847 
Q 3547 428 3762 290 
Q 3978 153 4325 116 
L 4325 0 
z
M 1316 2178 
Q 1375 2178 1419 2176 
Q 1463 2175 1491 2175 
Q 2097 2175 2405 2437 
Q 2713 2700 2713 3106 
Q 2713 3503 2464 3751 
Q 2216 4000 1806 4000 
Q 1625 4000 1316 3941 
L 1316 2178 
z
" transform="scale(0.015625)"/>
       <path id="TimesNewRomanPSMT-6f" d="M 1600 2947 
Q 2250 2947 2644 2453 
Q 2978 2031 2978 1484 
Q 2978 1100 2793 706 
Q 2609 313 2286 112 
Q 1963 -88 1566 -88 
Q 919 -88 538 428 
Q 216 863 216 1403 
Q 216 1797 411 2186 
Q 606 2575 925 2761 
Q 1244 2947 1600 2947 
z
M 1503 2744 
Q 1338 2744 1170 2645 
Q 1003 2547 900 2300 
Q 797 2053 797 1666 
Q 797 1041 1045 587 
Q 1294 134 1700 134 
Q 2003 134 2200 384 
Q 2397 634 2397 1244 
Q 2397 2006 2069 2444 
Q 1847 2744 1503 2744 
z
" transform="scale(0.015625)"/>
       <path id="TimesNewRomanPSMT-28" d="M 1988 -1253 
L 1988 -1369 
Q 1516 -1131 1200 -813 
Q 750 -359 506 256 
Q 263 872 263 1534 
Q 263 2503 741 3301 
Q 1219 4100 1988 4444 
L 1988 4313 
Q 1603 4100 1356 3731 
Q 1109 3363 987 2797 
Q 866 2231 866 1616 
Q 866 947 969 400 
Q 1050 -31 1165 -292 
Q 1281 -553 1476 -793 
Q 1672 -1034 1988 -1253 
z
" transform="scale(0.015625)"/>
       <path id="TimesNewRomanPSMT-25" d="M 4350 4334 
L 1263 -175 
L 984 -175 
L 4072 4334 
L 4350 4334 
z
M 1138 4334 
Q 1559 4334 1792 3984 
Q 2025 3634 2025 3181 
Q 2025 2638 1762 2341 
Q 1500 2044 1131 2044 
Q 884 2044 678 2180 
Q 472 2316 348 2584 
Q 225 2853 225 3181 
Q 225 3509 350 3786 
Q 475 4063 692 4198 
Q 909 4334 1138 4334 
z
M 1128 4159 
Q 969 4159 845 3971 
Q 722 3784 722 3184 
Q 722 2750 791 2522 
Q 844 2350 956 2256 
Q 1022 2200 1119 2200 
Q 1269 2200 1375 2363 
Q 1531 2603 1531 3166 
Q 1531 3759 1378 4000 
Q 1278 4159 1128 4159 
z
M 4206 2103 
Q 4428 2103 4648 1962 
Q 4869 1822 4989 1553 
Q 5109 1284 5109 963 
Q 5109 409 4843 117 
Q 4578 -175 4216 -175 
Q 3988 -175 3773 -34 
Q 3559 106 3436 367 
Q 3313 628 3313 963 
Q 3313 1291 3436 1562 
Q 3559 1834 3773 1968 
Q 3988 2103 4206 2103 
z
M 4209 1938 
Q 4059 1938 3950 1769 
Q 3809 1550 3809 941 
Q 3809 381 3953 159 
Q 4059 0 4209 0 
Q 4353 0 4466 172 
Q 4616 400 4616 956 
Q 4616 1544 4466 1778 
Q 4363 1938 4209 1938 
z
" transform="scale(0.015625)"/>
       <path id="TimesNewRomanPSMT-29" d="M 144 4313 
L 144 4444 
Q 619 4209 934 3891 
Q 1381 3434 1625 2820 
Q 1869 2206 1869 1541 
Q 1869 572 1392 -226 
Q 916 -1025 144 -1369 
L 144 -1253 
Q 528 -1038 776 -670 
Q 1025 -303 1145 264 
Q 1266 831 1266 1447 
Q 1266 2113 1163 2663 
Q 1084 3094 967 3353 
Q 850 3613 656 3853 
Q 463 4094 144 4313 
z
" transform="scale(0.015625)"/>
      </defs>
      <use xlink:href="#TimesNewRomanPSMT-44"/>
      <use xlink:href="#TimesNewRomanPSMT-72" x="72.216797"/>
      <use xlink:href="#TimesNewRomanPSMT-69" x="105.517578"/>
      <use xlink:href="#TimesNewRomanPSMT-66" x="133.300781"/>
      <use xlink:href="#TimesNewRomanPSMT-74" x="166.601562"/>
      <use xlink:href="#TimesNewRomanPSMT-20" x="194.384766"/>
      <use xlink:href="#TimesNewRomanPSMT-52" x="219.384766"/>
      <use xlink:href="#TimesNewRomanPSMT-61" x="286.083984"/>
      <use xlink:href="#TimesNewRomanPSMT-74" x="330.46875"/>
      <use xlink:href="#TimesNewRomanPSMT-69" x="358.251953"/>
      <use xlink:href="#TimesNewRomanPSMT-6f" x="386.035156"/>
      <use xlink:href="#TimesNewRomanPSMT-20" x="436.035156"/>
      <use xlink:href="#TimesNewRomanPSMT-28" x="461.035156"/>
      <use xlink:href="#TimesNewRomanPSMT-25" x="494.335938"/>
      <use xlink:href="#TimesNewRomanPSMT-29" x="577.636719"/>
     </g>
    </g>
   </g>
   <g id="line2d_25">
    <path d="M 67.510455 124.826059 
L 69.338089 122.079674 
L 70.556513 120.640436 
L 71.47033 119.904355 
L 72.384148 119.523724 
L 72.993359 119.482146 
L 73.602571 119.612675 
L 74.211782 119.911109 
L 75.1256 120.651149 
L 76.039417 121.692703 
L 77.257841 123.417977 
L 80.303899 127.987178 
L 81.217716 129.022351 
L 82.131534 129.754465 
L 83.045351 130.130645 
L 83.654563 130.169145 
L 84.263774 130.035564 
L 84.872986 129.734204 
L 85.786803 128.990213 
L 86.700621 127.945484 
L 87.919044 126.217572 
L 90.965102 121.651106 
L 91.87892 120.61914 
L 92.792737 119.891 
L 93.706554 119.519274 
L 94.315766 119.483853 
L 94.924978 119.620484 
L 95.534189 119.924768 
L 96.448007 120.672703 
L 97.361824 121.720596 
L 98.884853 123.920582 
L 101.626306 128.014812 
L 102.540123 129.04356 
L 103.45394 129.767718 
L 104.367758 130.134986 
L 104.97697 130.167328 
L 105.586181 130.027648 
L 106.195393 129.720444 
L 107.10921 128.968573 
L 108.023028 127.917526 
L 109.546057 125.714611 
L 109.850663 125.237662 
L 110.155268 124.539948 
L 111.982903 113.138201 
L 112.896721 108.505724 
L 113.810538 105.051913 
L 114.41975 103.53146 
L 115.028961 102.696828 
L 115.333567 102.545986 
L 115.638173 102.574897 
L 115.942779 102.783327 
L 116.55199 103.730584 
L 117.161202 105.357249 
L 117.770414 107.610933 
L 118.684231 112.003386 
L 119.902654 119.235555 
L 122.948713 138.227123 
L 123.86253 142.486632 
L 124.471742 144.633117 
L 125.080953 146.141689 
L 125.690165 146.963762 
L 125.994771 147.108196 
L 126.299376 147.072861 
L 126.603982 146.858042 
L 127.213194 145.898319 
L 127.822406 144.259935 
L 128.431617 141.995657 
L 129.345435 137.590156 
L 130.563858 130.34729 
L 133.609916 111.367904 
L 134.523733 107.121933 
L 135.132945 104.986292 
L 135.742157 103.489616 
L 136.351368 102.68011 
L 136.655974 102.542085 
L 136.96058 102.583843 
L 137.265186 102.805049 
L 137.874397 103.777229 
L 138.483609 105.427316 
L 139.092821 107.702164 
L 140.006638 112.120668 
L 141.225061 119.374156 
L 144.271119 138.341164 
L 145.184937 142.573554 
L 145.794148 144.69833 
L 146.40336 146.183093 
L 147.012572 146.980024 
L 147.317178 147.111639 
L 147.621783 147.063457 
L 147.926389 146.835867 
L 148.535601 145.85124 
L 149.144812 144.189468 
L 149.754024 141.904072 
L 150.667841 137.472612 
L 151.886265 130.208576 
L 152.800082 123.819033 
L 154.627717 103.828344 
L 155.541534 95.761653 
L 156.455352 89.794013 
L 157.064564 87.201823 
L 157.673775 85.821371 
L 157.978381 85.601013 
L 158.282987 85.697117 
L 158.587593 86.108908 
L 158.892198 86.833064 
L 159.50141 89.192625 
L 160.110622 92.699809 
L 161.024439 99.856058 
L 162.242862 112.09399 
L 165.898132 151.501231 
L 166.81195 158.19859 
L 167.421161 161.347501 
L 168.030373 163.32019 
L 168.334979 163.844053 
L 168.639584 164.053124 
L 168.94419 163.945717 
L 169.248796 163.522698 
L 169.553402 162.787479 
L 170.162614 160.406644 
L 170.771825 156.879888 
L 171.685643 149.698831 
L 172.904066 137.438984 
L 176.559336 98.058712 
L 177.473153 91.387516 
L 178.082365 88.258828 
L 178.691576 86.307837 
L 178.996182 85.795159 
L 179.300788 85.597377 
L 179.605394 85.716086 
L 179.91 86.150329 
L 180.214605 86.896603 
L 180.823817 89.298688 
L 181.433029 92.844979 
L 182.346846 100.050769 
L 183.565269 112.332406 
L 186.915933 149.011123 
L 187.829751 156.363748 
L 188.438962 160.02648 
L 189.048174 162.555534 
L 189.657386 163.869461 
L 189.961991 164.055952 
L 190.266597 163.925942 
L 190.571203 163.48048 
L 190.875809 162.723159 
L 191.48502 160.299849 
L 192.094232 156.734058 
L 193.008049 149.503609 
L 194.226473 137.200309 
L 195.444896 122.663539 
L 197.272531 94.154594 
L 198.186348 82.730269 
L 199.100166 74.346131 
L 199.709377 70.755193 
L 200.013983 69.607689 
L 200.318589 68.905679 
L 200.623195 68.654827 
L 200.927801 68.857157 
L 201.232406 69.511035 
L 201.537012 70.611187 
L 202.146224 74.11128 
L 202.755436 79.244711 
L 203.669253 89.632602 
L 204.887676 107.279525 
L 208.23834 159.737813 
L 209.152158 170.195785 
L 209.761369 175.38479 
L 210.370581 178.945483 
L 210.675187 180.077215 
L 210.979792 180.763188 
L 211.284398 180.997868 
L 211.589004 180.779362 
L 211.89361 180.109433 
L 212.198216 178.993486 
L 212.807427 175.463074 
L 213.416639 170.30183 
L 214.330456 159.878845 
L 215.54888 142.201267 
L 218.899544 89.773272 
L 219.813361 79.350287 
L 220.422573 74.189043 
L 221.031784 70.658631 
L 221.33639 69.542684 
L 221.640996 68.872755 
L 221.945602 68.654249 
L 222.250208 68.888929 
L 222.554813 69.574902 
L 222.859419 70.706634 
L 223.468631 74.267327 
L 224.077842 79.456332 
L 224.99166 89.914304 
L 226.210083 107.622354 
L 229.560747 160.019515 
L 230.474564 170.407406 
L 231.083776 175.540837 
L 231.692988 179.04093 
L 231.997594 180.141082 
L 232.302199 180.79496 
L 232.606805 180.99729 
L 232.911411 180.746438 
L 233.216017 180.044428 
L 233.520623 178.896924 
L 234.129834 175.305986 
L 234.739046 170.089274 
L 235.652863 159.596422 
L 236.871287 141.858083 
L 238.08971 121.073836 
L 239.917345 84.121564 
L 240.831162 69.417879 
L 241.74498 58.715812 
L 242.354191 54.199644 
L 242.658797 52.788274 
L 242.963403 51.958094 
L 243.268009 51.715803 
L 243.572614 52.063355 
L 243.87722 52.997946 
L 244.181826 54.512036 
L 244.791038 59.225274 
L 245.400249 66.051273 
L 246.314067 79.753894 
L 247.53249 102.881078 
L 250.883154 170.998188 
L 251.796971 184.427161 
L 252.406183 191.036159 
L 253.015395 195.512772 
L 253.32 196.903554 
L 253.624606 197.712825 
L 253.929212 197.934056 
L 254.233818 197.565461 
L 254.538424 196.610016 
L 255.147635 192.974078 
L 255.756847 187.143342 
L 256.366059 179.305595 
L 257.279876 164.353719 
L 258.498299 140.195275 
L 261.239752 83.732617 
L 262.153569 69.112879 
L 262.762781 61.547821 
L 263.371992 56.020724 
L 263.981204 52.709595 
L 264.28581 51.921241 
L 264.590416 51.721073 
L 264.895021 52.110705 
L 265.199627 53.086995 
L 265.808839 56.76337 
L 266.41805 62.631795 
L 267.027262 70.503269 
L 267.941079 85.495974 
L 269.159503 109.686295 
L 271.900955 166.113339 
L 272.814772 180.690878 
L 273.423984 188.221495 
L 274.033196 193.710378 
L 274.642407 196.980748 
L 274.947013 197.748177 
L 275.251619 197.92728 
L 275.556225 197.516613 
L 275.860831 196.519489 
L 276.470042 192.802715 
L 277.079254 186.896662 
L 277.688466 178.991542 
L 278.602283 163.958163 
L 279.820706 139.736212 
L 280.734524 119.050436 
L 282.562159 73.733983 
L 283.475976 55.830883 
L 284.085188 46.597883 
L 284.694399 39.884326 
L 285.303611 35.906432 
L 285.608217 34.986968 
L 285.912822 34.792313 
L 286.217428 35.324037 
L 286.522034 36.577852 
L 287.131246 41.205542 
L 287.740457 48.526343 
L 288.349669 58.304479 
L 289.263486 76.87111 
L 290.48191 106.744113 
L 293.223362 176.155838 
L 294.137179 194.006591 
L 294.746391 203.19698 
L 295.355603 209.863328 
L 295.964814 213.790937 
L 296.26942 214.684608 
L 296.574026 214.853313 
L 296.878632 214.295691 
L 297.183238 213.016241 
L 297.792449 208.338886 
L 298.401661 200.971888 
L 299.315478 185.419185 
L 300.229296 165.490405 
L 301.752325 126.559828 
L 303.57996 80.09168 
L 304.493777 60.893824 
L 305.407594 46.313198 
L 306.016806 39.694127 
L 306.626018 35.816844 
L 306.930624 34.948975 
L 307.235229 34.806222 
L 307.539835 35.389735 
L 307.844441 36.694809 
L 308.453653 41.421781 
L 309.062864 48.8349 
L 309.976682 64.447022 
L 310.890499 84.419761 
L 312.413528 123.381223 
L 314.241163 169.811009 
L 315.15498 188.961482 
L 316.068798 203.48005 
L 316.67801 210.051775 
L 317.287221 213.878693 
L 317.591827 214.720751 
L 317.896433 214.837551 
L 318.201039 214.228151 
L 318.505644 212.897468 
L 319.114856 208.120927 
L 319.724068 200.661764 
L 320.637885 184.990383 
L 321.551703 164.973892 
L 323.074732 125.981945 
L 325.206972 62.996701 
L 326.12079 41.975774 
L 326.730001 31.209054 
L 327.339213 23.457396 
L 327.948425 18.970451 
L 328.25303 18.000663 
L 328.557636 17.892727 
L 328.862242 18.647515 
L 329.166848 20.258935 
L 329.77606 25.992867 
L 330.385271 34.909855 
L 331.299089 53.599533 
L 332.212906 77.43324 
L 334.040541 133.400403 
L 335.56357 178.867289 
L 336.477387 201.507029 
L 337.391205 218.608816 
L 338.000416 226.304063 
L 338.609628 230.731074 
L 338.914234 231.670175 
L 339.21884 231.747273 
L 339.523446 230.961745 
L 339.828051 229.31993 
L 340.437263 223.527223 
L 341.046475 214.555712 
L 341.960292 195.796011 
L 342.874109 171.910811 
L 344.701744 115.909521 
L 346.224773 70.488779 
L 347.138591 47.906037 
L 348.052408 30.878513 
L 348.66162 23.239758 
L 349.270832 18.872725 
L 349.575437 17.964321 
L 349.880043 17.918062 
L 350.184649 18.734322 
L 350.489255 20.406515 
L 351.098466 26.257938 
L 351.707678 35.28388 
L 352.621495 54.11341 
L 353.535313 78.049856 
L 355.362948 134.084697 
L 356.885977 179.458827 
L 357.799794 201.984338 
L 358.713612 218.937425 
L 359.322823 226.51961 
L 359.932035 230.826618 
L 360.236641 231.704316 
L 360.541247 231.719736 
L 360.845852 230.872752 
L 361.150458 229.1702 
L 361.75967 223.260121 
L 362.368882 214.179841 
L 363.282699 195.280675 
L 364.196516 171.293228 
L 365.719545 124.826059 
L 365.719545 124.826059 
" clip-path="url(#pd3ac8dc62c)" style="fill: none; stroke: #ff0000; stroke-width: 1.2; stroke-linecap: square"/>
   </g>
   <g id="line2d_26">
    <path d="M 67.510455 124.826059 
L 69.338089 122.079674 
L 70.556513 120.640436 
L 71.47033 119.904355 
L 72.384148 119.523724 
L 72.993359 119.482146 
L 73.602571 119.612675 
L 74.211782 119.911109 
L 75.1256 120.651149 
L 76.039417 121.692703 
L 77.257841 123.417977 
L 80.303899 127.987178 
L 81.217716 129.022351 
L 82.131534 129.754465 
L 83.045351 130.130645 
L 83.654563 130.169145 
L 84.263774 130.035564 
L 84.872986 129.734204 
L 85.786803 128.990213 
L 86.700621 127.945484 
L 87.919044 126.217572 
L 90.965102 121.651106 
L 91.87892 120.61914 
L 92.792737 119.891 
L 93.706554 119.519274 
L 94.315766 119.483853 
L 94.924978 119.620484 
L 95.534189 119.924768 
L 96.448007 120.672703 
L 97.361824 121.720596 
L 98.884853 123.920582 
L 101.626306 128.014812 
L 102.540123 129.04356 
L 103.45394 129.767718 
L 104.367758 130.134986 
L 104.97697 130.167328 
L 105.586181 130.027648 
L 106.195393 129.720444 
L 107.10921 128.968573 
L 108.023028 127.917526 
L 109.546057 125.714611 
L 110.155268 124.712927 
L 111.982903 120.204542 
L 112.896721 118.372806 
L 113.810538 117.007129 
L 114.41975 116.405924 
L 115.028961 116.075901 
L 115.638173 116.027688 
L 116.247385 116.262838 
L 116.856596 116.773779 
L 117.465808 117.544054 
L 118.379625 119.129359 
L 119.598049 121.858826 
L 123.253318 130.735608 
L 124.167136 132.263632 
L 124.776347 132.989185 
L 125.385559 133.451834 
L 125.994771 133.636678 
L 126.603982 133.537764 
L 127.213194 133.158278 
L 127.822406 132.510442 
L 128.736223 131.083375 
L 129.65004 129.2044 
L 131.173069 125.447782 
L 133.30531 120.15647 
L 134.219128 118.33441 
L 135.132945 116.981182 
L 135.742157 116.389379 
L 136.351368 116.06929 
L 136.96058 116.031225 
L 137.569792 116.27641 
L 138.179003 116.796947 
L 138.788215 117.576073 
L 139.702032 119.17264 
L 140.920455 121.912152 
L 144.575725 130.777455 
L 145.489543 132.293832 
L 146.098754 133.010349 
L 146.707966 133.463281 
L 147.317178 133.638039 
L 147.926389 133.528996 
L 148.535601 133.139662 
L 149.144812 132.482578 
L 150.05863 131.043408 
L 150.972447 129.155216 
L 152.495476 125.391343 
L 152.800082 124.45331 
L 154.627717 117.0538 
L 155.541534 114.067931 
L 156.455352 111.859022 
L 157.064564 110.899528 
L 157.673775 110.388557 
L 157.978381 110.306992 
L 158.282987 110.342565 
L 158.892198 110.763033 
L 159.50141 111.63642 
L 160.110622 112.934596 
L 161.024439 115.583466 
L 162.242862 120.113311 
L 165.898132 134.699816 
L 166.81195 137.17883 
L 167.421161 138.344392 
L 168.030373 139.074579 
L 168.639584 139.345873 
L 168.94419 139.306116 
L 169.553402 138.877397 
L 170.162614 137.996136 
L 170.771825 136.690715 
L 171.685643 134.032662 
L 172.904066 129.494706 
L 176.559336 114.918183 
L 177.473153 112.448854 
L 178.082365 111.290777 
L 178.691576 110.568621 
L 179.300788 110.305646 
L 179.605394 110.349586 
L 180.214605 110.786552 
L 180.823817 111.675678 
L 181.433029 112.988331 
L 182.346846 115.655538 
L 183.565269 120.20156 
L 186.915933 133.778108 
L 187.829751 136.499667 
L 188.438962 137.855419 
L 189.048174 138.791543 
L 189.657386 139.27789 
L 189.961991 139.346919 
L 190.266597 139.298797 
L 190.875809 138.853589 
L 191.48502 137.956606 
L 192.094232 136.636736 
L 193.008049 133.960401 
L 194.226473 129.406361 
L 195.14029 125.57131 
L 195.749502 121.763541 
L 197.272531 111.762539 
L 198.186348 106.896716 
L 199.100166 103.325764 
L 199.709377 101.796319 
L 200.318589 101.008579 
L 200.623195 100.901736 
L 200.927801 100.987912 
L 201.232406 101.26641 
L 201.841618 102.389854 
L 202.45083 104.235887 
L 203.060041 106.745053 
L 203.973859 111.570192 
L 205.192282 119.422171 
L 207.933734 137.953829 
L 208.847552 142.806141 
L 209.761369 146.359918 
L 210.370581 147.87648 
L 210.979792 148.650673 
L 211.284398 148.750627 
L 211.589004 148.657562 
L 211.89361 148.372227 
L 212.502822 147.235491 
L 213.112033 145.377029 
L 213.721245 142.856695 
L 214.635062 138.017945 
L 215.853485 130.155129 
L 218.594938 111.634172 
L 219.508755 106.795422 
L 220.422573 103.258857 
L 221.031784 101.755192 
L 221.640996 100.994555 
L 221.945602 100.90149 
L 222.250208 101.001444 
L 222.554813 101.293612 
L 223.164025 102.443629 
L 223.773237 104.314502 
L 224.382448 106.845976 
L 225.296266 111.698288 
L 226.514689 119.57186 
L 229.256141 138.081925 
L 230.169959 142.907064 
L 231.083776 146.426381 
L 231.692988 147.917132 
L 232.302199 148.664205 
L 232.606805 148.750381 
L 232.911411 148.643538 
L 233.216017 148.34454 
L 233.825228 147.181255 
L 234.43444 145.297991 
L 235.043652 142.755401 
L 235.957469 137.889578 
L 237.175892 130.005331 
L 237.785104 125.747114 
L 238.394316 119.279049 
L 239.917345 102.881184 
L 240.831162 94.954037 
L 241.74498 89.184269 
L 242.354191 86.749483 
L 242.658797 85.988575 
L 242.963403 85.541004 
L 243.268009 85.410378 
L 243.572614 85.597752 
L 243.87722 86.101615 
L 244.486432 88.040025 
L 245.095644 91.163178 
L 245.704855 95.37049 
L 246.618673 103.409348 
L 247.837096 116.416487 
L 250.578548 146.875892 
L 251.492366 154.780451 
L 252.406183 160.521682 
L 253.015395 162.935143 
L 253.32 163.684951 
L 253.624606 164.12125 
L 253.929212 164.240522 
L 254.233818 164.041803 
L 254.538424 163.526697 
L 255.147635 161.566466 
L 255.756847 158.422961 
L 256.366059 154.197423 
L 257.279876 146.13647 
L 258.498299 133.112011 
L 261.239752 102.671493 
L 262.153569 94.789604 
L 263.067386 89.076968 
L 263.676598 86.684857 
L 263.981204 85.946157 
L 264.28581 85.521135 
L 264.590416 85.413219 
L 264.895021 85.62328 
L 265.199627 86.149624 
L 265.808839 88.131655 
L 266.41805 91.295479 
L 267.027262 95.5392 
L 267.941079 103.622165 
L 269.159503 116.66381 
L 271.900955 147.085128 
L 272.814772 154.944267 
L 273.423984 159.004222 
L 274.033196 161.963425 
L 274.642407 163.726568 
L 274.947013 164.140309 
L 275.251619 164.236869 
L 275.556225 164.015467 
L 275.860831 163.477891 
L 276.470042 161.47408 
L 277.079254 158.289969 
L 277.688466 154.028109 
L 278.602283 145.923215 
L 279.820706 132.864518 
L 280.429918 125.837853 
L 283.475976 75.070654 
L 284.085188 68.412338 
L 284.694399 63.570902 
L 285.303611 60.70227 
L 285.608217 60.039205 
L 285.912822 59.898831 
L 286.217428 60.282281 
L 286.522034 61.18646 
L 287.131246 64.523688 
L 287.740457 69.803034 
L 288.349669 76.854471 
L 289.263486 90.243671 
L 290.48191 111.786386 
L 293.223362 161.842182 
L 294.137179 174.715132 
L 294.746391 181.342719 
L 295.355603 186.150111 
L 295.964814 188.98248 
L 296.26942 189.626945 
L 296.574026 189.748605 
L 296.878632 189.34648 
L 297.183238 188.423813 
L 297.792449 185.05077 
L 298.401661 179.738109 
L 299.315478 168.522383 
L 300.229296 154.150877 
L 301.752325 126.076355 
L 303.57996 92.566164 
L 304.493777 78.721759 
L 305.407594 68.20704 
L 306.016806 63.433741 
L 306.626018 60.637665 
L 306.930624 60.011807 
L 307.235229 59.908861 
L 307.539835 60.329658 
L 307.844441 61.270803 
L 308.453653 64.679627 
L 309.062864 70.025548 
L 309.976682 81.284124 
L 310.890499 95.68733 
L 312.413528 123.784125 
L 314.241163 157.266652 
L 315.15498 171.076886 
L 316.068798 181.546853 
L 316.67801 186.286009 
L 317.287221 189.045764 
L 317.591827 189.653008 
L 317.896433 189.737238 
L 318.201039 189.297774 
L 318.505644 188.33816 
L 319.114856 184.893591 
L 319.724068 179.514465 
L 320.637885 168.213155 
L 321.551703 153.778397 
L 323.074732 125.659618 
L 325.511578 55.410798 
L 326.425396 36.235044 
L 327.034607 26.938353 
L 327.643819 20.794266 
L 327.948425 18.970451 
L 328.25303 18.000663 
L 328.557636 17.892727 
L 328.862242 18.647515 
L 329.166848 20.258935 
L 329.77606 25.992867 
L 330.385271 34.909855 
L 331.299089 53.599533 
L 332.212906 77.43324 
L 334.040541 133.400403 
L 335.56357 178.867289 
L 336.477387 201.507029 
L 337.391205 218.608816 
L 338.000416 226.304063 
L 338.609628 230.731074 
L 338.914234 231.670175 
L 339.21884 231.747273 
L 339.523446 230.961745 
L 339.828051 229.31993 
L 340.437263 223.527223 
L 341.046475 214.555712 
L 341.960292 195.796011 
L 342.874109 171.910811 
L 344.701744 115.909521 
L 346.224773 70.488779 
L 347.138591 47.906037 
L 348.052408 30.878513 
L 348.66162 23.239758 
L 349.270832 18.872725 
L 349.575437 17.964321 
L 349.880043 17.918062 
L 350.184649 18.734322 
L 350.489255 20.406515 
L 351.098466 26.257938 
L 351.707678 35.28388 
L 352.621495 54.11341 
L 353.535313 78.049856 
L 355.362948 134.084697 
L 356.885977 179.458827 
L 357.799794 201.984338 
L 358.713612 218.937425 
L 359.322823 226.51961 
L 359.932035 230.826618 
L 360.236641 231.704316 
L 360.541247 231.719736 
L 360.845852 230.872752 
L 361.150458 229.1702 
L 361.75967 223.260121 
L 362.368882 214.179841 
L 363.282699 195.280675 
L 364.196516 171.293228 
L 365.719545 124.826059 
L 365.719545 124.826059 
" clip-path="url(#pd3ac8dc62c)" style="fill: none; stroke: #3152a1; stroke-width: 1.2; stroke-linecap: square"/>
   </g>
   <g id="line2d_27">
    <path d="M 52.6 17.892727 
L 380.63 17.892727 
" clip-path="url(#pd3ac8dc62c)" style="fill: none; stroke-dasharray: 7.4,3.2; stroke-dashoffset: 0; stroke: #000000; stroke-opacity: 0.4; stroke-width: 2"/>
   </g>
   <g id="line2d_28">
    <path d="M 52.6 231.747273 
L 380.63 231.747273 
" clip-path="url(#pd3ac8dc62c)" style="fill: none; stroke-dasharray: 7.4,3.2; stroke-dashoffset: 0; stroke: #000000; stroke-opacity: 0.4; stroke-width: 2"/>
   </g>
   <g id="line2d_29">
    <path d="M 52.6 119.481375 
L 380.63 119.481375 
" clip-path="url(#pd3ac8dc62c)" style="fill: none; stroke-dasharray: 7.4,3.2; stroke-dashoffset: 0; stroke: #000000; stroke-opacity: 0.4; stroke-width: 2"/>
   </g>
   <g id="line2d_30">
    <path d="M 52.6 130.171458 
L 380.63 130.171458 
" clip-path="url(#pd3ac8dc62c)" style="fill: none; stroke-dasharray: 7.4,3.2; stroke-dashoffset: 0; stroke: #000000; stroke-opacity: 0.4; stroke-width: 2"/>
   </g>
   <g id="line2d_31">
    <path d="M 52.6 124.826059 
L 380.63 124.826059 
" clip-path="url(#pd3ac8dc62c)" style="fill: none; stroke: #000000; stroke-width: 0.4; stroke-linecap: square"/>
   </g>
   <g id="line2d_32">
    <path d="M 67.510455 242.44 
L 67.510455 7.2 
" clip-path="url(#pd3ac8dc62c)" style="fill: none; stroke: #000000; stroke-width: 0.4; stroke-linecap: square"/>
   </g>
   <g id="patch_3">
    <path d="M 52.6 242.44 
L 52.6 7.2 
" style="fill: none; stroke: #000000; stroke-width: 0.8; stroke-linejoin: miter; stroke-linecap: square"/>
   </g>
   <g id="patch_4">
    <path d="M 380.63 242.44 
L 380.63 7.2 
" style="fill: none; stroke: #000000; stroke-width: 0.8; stroke-linejoin: miter; stroke-linecap: square"/>
   </g>
   <g id="patch_5">
    <path d="M 52.6 242.44 
L 380.63 242.44 
" style="fill: none; stroke: #000000; stroke-width: 0.8; stroke-linejoin: miter; stroke-linecap: square"/>
   </g>
   <g id="patch_6">
    <path d="M 52.6 7.2 
L 380.63 7.2 
" style="fill: none; stroke: #000000; stroke-width: 0.8; stroke-linejoin: miter; stroke-linecap: square"/>
   </g>
   <g id="legend_1">
    <g id="patch_7">
     <path d="M 74.8325 49.212916 
L 197.49175 49.212916 
Q 199.15775 49.212916 199.15775 47.546916 
L 199.15775 24.793 
Q 199.15775 23.127 197.49175 23.127 
L 74.8325 23.127 
Q 73.1665 23.127 73.1665 24.793 
L 73.1665 47.546916 
Q 73.1665 49.212916 74.8325 49.212916 
z
" style="fill: #ffffff; opacity: 0.8; stroke: #cccccc; stroke-linejoin: miter"/>
    </g>
    <g id="line2d_33">
     <path d="M 76.4985 29.3745 
L 84.8285 29.3745 
L 93.1585 29.3745 
" style="fill: none; stroke: #ff0000; stroke-width: 1.2; stroke-linecap: square"/>
    </g>
    <g id="text_15">
     <!-- Cyclic loading - Linear -->
     <g transform="translate(99.8225 32.29) scale(0.0833 -0.0833)">
      <defs>
       <path id="TimesNewRomanPSMT-64" d="M 2222 322 
Q 2013 103 1813 7 
Q 1613 -88 1381 -88 
Q 913 -88 563 304 
Q 213 697 213 1313 
Q 213 1928 600 2439 
Q 988 2950 1597 2950 
Q 1975 2950 2222 2709 
L 2222 3238 
Q 2222 3728 2198 3840 
Q 2175 3953 2125 3993 
Q 2075 4034 2000 4034 
Q 1919 4034 1784 3984 
L 1744 4094 
L 2597 4444 
L 2738 4444 
L 2738 1134 
Q 2738 631 2761 520 
Q 2784 409 2836 365 
Q 2888 322 2956 322 
Q 3041 322 3181 375 
L 3216 266 
L 2366 -88 
L 2222 -88 
L 2222 322 
z
M 2222 541 
L 2222 2016 
Q 2203 2228 2109 2403 
Q 2016 2578 1861 2667 
Q 1706 2756 1559 2756 
Q 1284 2756 1069 2509 
Q 784 2184 784 1559 
Q 784 928 1059 592 
Q 1334 256 1672 256 
Q 1956 256 2222 541 
z
" transform="scale(0.015625)"/>
       <path id="TimesNewRomanPSMT-67" d="M 966 1044 
Q 703 1172 562 1401 
Q 422 1631 422 1909 
Q 422 2334 742 2640 
Q 1063 2947 1563 2947 
Q 1972 2947 2272 2747 
L 2878 2747 
Q 3013 2747 3034 2739 
Q 3056 2731 3066 2713 
Q 3084 2684 3084 2613 
Q 3084 2531 3069 2500 
Q 3059 2484 3036 2475 
Q 3013 2466 2878 2466 
L 2506 2466 
Q 2681 2241 2681 1891 
Q 2681 1491 2375 1206 
Q 2069 922 1553 922 
Q 1341 922 1119 984 
Q 981 866 932 777 
Q 884 688 884 625 
Q 884 572 936 522 
Q 988 472 1138 450 
Q 1225 438 1575 428 
Q 2219 413 2409 384 
Q 2700 344 2873 169 
Q 3047 -6 3047 -263 
Q 3047 -616 2716 -925 
Q 2228 -1381 1444 -1381 
Q 841 -1381 425 -1109 
Q 191 -953 191 -784 
Q 191 -709 225 -634 
Q 278 -519 444 -313 
Q 466 -284 763 25 
Q 600 122 533 198 
Q 466 275 466 372 
Q 466 481 555 628 
Q 644 775 966 1044 
z
M 1509 2797 
Q 1278 2797 1122 2612 
Q 966 2428 966 2047 
Q 966 1553 1178 1281 
Q 1341 1075 1591 1075 
Q 1828 1075 1981 1253 
Q 2134 1431 2134 1813 
Q 2134 2309 1919 2591 
Q 1759 2797 1509 2797 
z
M 934 0 
Q 788 -159 713 -296 
Q 638 -434 638 -550 
Q 638 -700 819 -813 
Q 1131 -1006 1722 -1006 
Q 2284 -1006 2551 -807 
Q 2819 -609 2819 -384 
Q 2819 -222 2659 -153 
Q 2497 -84 2016 -72 
Q 1313 -53 934 0 
z
" transform="scale(0.015625)"/>
       <path id="TimesNewRomanPSMT-4c" d="M 3669 1172 
L 3772 1150 
L 3409 0 
L 128 0 
L 128 116 
L 288 116 
Q 556 116 672 291 
Q 738 391 738 753 
L 738 3488 
Q 738 3884 650 3984 
Q 528 4122 288 4122 
L 128 4122 
L 128 4238 
L 2047 4238 
L 2047 4122 
Q 1709 4125 1573 4059 
Q 1438 3994 1388 3894 
Q 1338 3794 1338 3416 
L 1338 753 
Q 1338 494 1388 397 
Q 1425 331 1503 300 
Q 1581 269 1991 269 
L 2300 269 
Q 2788 269 2984 341 
Q 3181 413 3343 595 
Q 3506 778 3669 1172 
z
" transform="scale(0.015625)"/>
      </defs>
      <use xlink:href="#TimesNewRomanPSMT-43"/>
      <use xlink:href="#TimesNewRomanPSMT-79" x="66.699219"/>
      <use xlink:href="#TimesNewRomanPSMT-63" x="116.699219"/>
      <use xlink:href="#TimesNewRomanPSMT-6c" x="161.083984"/>
      <use xlink:href="#TimesNewRomanPSMT-69" x="188.867188"/>
      <use xlink:href="#TimesNewRomanPSMT-63" x="216.650391"/>
      <use xlink:href="#TimesNewRomanPSMT-20" x="261.035156"/>
      <use xlink:href="#TimesNewRomanPSMT-6c" x="286.035156"/>
      <use xlink:href="#TimesNewRomanPSMT-6f" x="313.818359"/>
      <use xlink:href="#TimesNewRomanPSMT-61" x="363.818359"/>
      <use xlink:href="#TimesNewRomanPSMT-64" x="408.203125"/>
      <use xlink:href="#TimesNewRomanPSMT-69" x="458.203125"/>
      <use xlink:href="#TimesNewRomanPSMT-6e" x="485.986328"/>
      <use xlink:href="#TimesNewRomanPSMT-67" x="535.986328"/>
      <use xlink:href="#TimesNewRomanPSMT-20" x="585.986328"/>
      <use xlink:href="#TimesNewRomanPSMT-2d" x="610.986328"/>
      <use xlink:href="#TimesNewRomanPSMT-20" x="644.287109"/>
      <use xlink:href="#TimesNewRomanPSMT-4c" x="669.287109"/>
      <use xlink:href="#TimesNewRomanPSMT-69" x="730.371094"/>
      <use xlink:href="#TimesNewRomanPSMT-6e" x="758.154297"/>
      <use xlink:href="#TimesNewRomanPSMT-65" x="808.154297"/>
      <use xlink:href="#TimesNewRomanPSMT-61" x="852.539062"/>
      <use xlink:href="#TimesNewRomanPSMT-72" x="896.923828"/>
     </g>
    </g>
    <g id="line2d_34">
     <path d="M 76.4985 41.167958 
L 84.8285 41.167958 
L 93.1585 41.167958 
" style="fill: none; stroke: #3152a1; stroke-width: 1.2; stroke-linecap: square"/>
    </g>
    <g id="text_16">
     <!-- Cyclic loading - Exponential -->
     <g transform="translate(99.8225 44.083458) scale(0.0833 -0.0833)">
      <defs>
       <path id="TimesNewRomanPSMT-45" d="M 1338 4006 
L 1338 2331 
L 2269 2331 
Q 2631 2331 2753 2441 
Q 2916 2584 2934 2947 
L 3050 2947 
L 3050 1472 
L 2934 1472 
Q 2891 1781 2847 1869 
Q 2791 1978 2662 2040 
Q 2534 2103 2269 2103 
L 1338 2103 
L 1338 706 
Q 1338 425 1363 364 
Q 1388 303 1450 267 
Q 1513 231 1688 231 
L 2406 231 
Q 2766 231 2928 281 
Q 3091 331 3241 478 
Q 3434 672 3638 1063 
L 3763 1063 
L 3397 0 
L 131 0 
L 131 116 
L 281 116 
Q 431 116 566 188 
Q 666 238 702 338 
Q 738 438 738 747 
L 738 3500 
Q 738 3903 656 3997 
Q 544 4122 281 4122 
L 131 4122 
L 131 4238 
L 3397 4238 
L 3444 3309 
L 3322 3309 
Q 3256 3644 3176 3769 
Q 3097 3894 2941 3959 
Q 2816 4006 2500 4006 
L 1338 4006 
z
" transform="scale(0.015625)"/>
       <path id="TimesNewRomanPSMT-70" d="M -6 2578 
L 875 2934 
L 994 2934 
L 994 2266 
Q 1216 2644 1439 2795 
Q 1663 2947 1909 2947 
Q 2341 2947 2628 2609 
Q 2981 2197 2981 1534 
Q 2981 794 2556 309 
Q 2206 -88 1675 -88 
Q 1444 -88 1275 -22 
Q 1150 25 994 166 
L 994 -706 
Q 994 -1000 1030 -1079 
Q 1066 -1159 1155 -1206 
Q 1244 -1253 1478 -1253 
L 1478 -1369 
L -22 -1369 
L -22 -1253 
L 56 -1253 
Q 228 -1256 350 -1188 
Q 409 -1153 442 -1076 
Q 475 -1000 475 -688 
L 475 2019 
Q 475 2297 450 2372 
Q 425 2447 370 2484 
Q 316 2522 222 2522 
Q 147 2522 31 2478 
L -6 2578 
z
M 994 2081 
L 994 1013 
Q 994 666 1022 556 
Q 1066 375 1236 237 
Q 1406 100 1666 100 
Q 1978 100 2172 344 
Q 2425 663 2425 1241 
Q 2425 1897 2138 2250 
Q 1938 2494 1663 2494 
Q 1513 2494 1366 2419 
Q 1253 2363 994 2081 
z
" transform="scale(0.015625)"/>
      </defs>
      <use xlink:href="#TimesNewRomanPSMT-43"/>
      <use xlink:href="#TimesNewRomanPSMT-79" x="66.699219"/>
      <use xlink:href="#TimesNewRomanPSMT-63" x="116.699219"/>
      <use xlink:href="#TimesNewRomanPSMT-6c" x="161.083984"/>
      <use xlink:href="#TimesNewRomanPSMT-69" x="188.867188"/>
      <use xlink:href="#TimesNewRomanPSMT-63" x="216.650391"/>
      <use xlink:href="#TimesNewRomanPSMT-20" x="261.035156"/>
      <use xlink:href="#TimesNewRomanPSMT-6c" x="286.035156"/>
      <use xlink:href="#TimesNewRomanPSMT-6f" x="313.818359"/>
      <use xlink:href="#TimesNewRomanPSMT-61" x="363.818359"/>
      <use xlink:href="#TimesNewRomanPSMT-64" x="408.203125"/>
      <use xlink:href="#TimesNewRomanPSMT-69" x="458.203125"/>
      <use xlink:href="#TimesNewRomanPSMT-6e" x="485.986328"/>
      <use xlink:href="#TimesNewRomanPSMT-67" x="535.986328"/>
      <use xlink:href="#TimesNewRomanPSMT-20" x="585.986328"/>
      <use xlink:href="#TimesNewRomanPSMT-2d" x="610.986328"/>
      <use xlink:href="#TimesNewRomanPSMT-20" x="644.287109"/>
      <use xlink:href="#TimesNewRomanPSMT-45" x="669.287109"/>
      <use xlink:href="#TimesNewRomanPSMT-78" x="730.371094"/>
      <use xlink:href="#TimesNewRomanPSMT-70" x="780.371094"/>
      <use xlink:href="#TimesNewRomanPSMT-6f" x="830.371094"/>
      <use xlink:href="#TimesNewRomanPSMT-6e" x="880.371094"/>
      <use xlink:href="#TimesNewRomanPSMT-65" x="930.371094"/>
      <use xlink:href="#TimesNewRomanPSMT-6e" x="974.755859"/>
      <use xlink:href="#TimesNewRomanPSMT-74" x="1024.755859"/>
      <use xlink:href="#TimesNewRomanPSMT-69" x="1052.539062"/>
      <use xlink:href="#TimesNewRomanPSMT-61" x="1080.322266"/>
      <use xlink:href="#TimesNewRomanPSMT-6c" x="1124.707031"/>
     </g>
    </g>
   </g>
  </g>
 </g>
 <defs>
  <clipPath id="pd3ac8dc62c">
   <rect x="52.6" y="7.2" width="328.03" height="235.24"/>
  </clipPath>
 </defs>
</svg>
