<?xml version="1.0" encoding="utf-8" standalone="no"?>
<!DOCTYPE svg PUBLIC "-//W3C//DTD SVG 1.1//EN"
  "http://www.w3.org/Graphics/SVG/1.1/DTD/svg11.dtd">
<svg xmlns:xlink="http://www.w3.org/1999/xlink" width="279.722812pt" height="292.774063pt" viewBox="0 0 279.722812 292.774063" xmlns="http://www.w3.org/2000/svg" version="1.1">
 <metadata>
  <rdf:RDF xmlns:dc="http://purl.org/dc/elements/1.1/" xmlns:cc="http://creativecommons.org/ns#" xmlns:rdf="http://www.w3.org/1999/02/22-rdf-syntax-ns#">
   <cc:Work>
    <dc:type rdf:resource="http://purl.org/dc/dcmitype/StillImage"/>
    <dc:date>2024-09-14T18:43:55.879118</dc:date>
    <dc:format>image/svg+xml</dc:format>
    <dc:creator>
     <cc:Agent>
      <dc:title>Matplotlib v3.8.0, https://matplotlib.org/</dc:title>
     </cc:Agent>
    </dc:creator>
   </cc:Work>
  </rdf:RDF>
 </metadata>
 <defs>
  <style type="text/css">*{stroke-linejoin: round; stroke-linecap: butt}</style>
 </defs>
 <g id="figure_1">
  <g id="patch_1">
   <path d="M 0 292.774063 
L 279.722812 292.774063 
L 279.722812 0 
L 0 0 
z
" style="fill: #ffffff"/>
  </g>
  <g id="axes_1">
   <g id="patch_2">
    <path d="M 49.432813 256.40375 
L 272.522812 256.40375 
L 272.522812 20.14375 
L 49.432813 20.14375 
z
" style="fill: #ffffff"/>
   </g>
   <g id="matplotlib.axis_1">
    <g id="xtick_1">
     <g id="line2d_1">
      <path d="M 99.98983 256.40375 
L 99.98983 20.14375 
" clip-path="url(#pf6340ca66b)" style="fill: none; stroke-dasharray: 0.8,1.32; stroke-dashoffset: 0; stroke: #b0b0b0; stroke-width: 0.8"/>
     </g>
     <g id="line2d_2">
      <defs>
       <path id="macbffcc480" d="M 0 0 
L 0 3.5 
" style="stroke: #000000; stroke-width: 0.8"/>
      </defs>
      <g>
       <use xlink:href="#macbffcc480" x="99.98983" y="256.40375" style="stroke: #000000; stroke-width: 0.8"/>
      </g>
     </g>
     <g id="text_1">
      <!-- −20 -->
      <g transform="translate(91.68358 270.39125) scale(0.1 -0.1)">
       <defs>
        <path id="Cambria-2212" d="M 397 1613 
L 397 2047 
L 3147 2047 
L 3147 1613 
L 397 1613 
z
" transform="scale(0.015625)"/>
        <path id="Cambria-32" d="M 2194 500 
Q 2347 500 2440 519 
Q 2534 538 2590 581 
Q 2647 625 2680 695 
Q 2713 766 2763 913 
L 3028 913 
L 2975 0 
L 403 0 
L 403 150 
Q 538 478 766 822 
Q 994 1166 1413 1631 
Q 1775 2031 1934 2238 
Q 2109 2463 2195 2627 
Q 2281 2791 2318 2936 
Q 2356 3081 2356 3228 
Q 2356 3463 2281 3642 
Q 2206 3822 2051 3925 
Q 1897 4028 1663 4028 
Q 1078 4028 875 3378 
L 497 3378 
L 497 3978 
Q 875 4156 1204 4236 
Q 1534 4316 1797 4316 
Q 2378 4316 2675 4061 
Q 2972 3806 2972 3322 
Q 2972 3156 2939 3017 
Q 2906 2878 2836 2742 
Q 2766 2606 2647 2450 
Q 2528 2294 2384 2133 
Q 2241 1972 1888 1597 
Q 1294 969 1016 500 
L 2194 500 
z
" transform="scale(0.015625)"/>
        <path id="Cambria-30" d="M 1738 -50 
Q 1063 -50 733 481 
Q 403 1013 403 2094 
Q 403 2669 504 3087 
Q 606 3506 789 3779 
Q 972 4053 1228 4184 
Q 1484 4316 1788 4316 
Q 2472 4316 2806 3787 
Q 3141 3259 3141 2191 
Q 3141 1084 2783 517 
Q 2425 -50 1738 -50 
z
M 1013 2188 
Q 1013 1169 1202 692 
Q 1391 216 1788 216 
Q 2166 216 2348 664 
Q 2531 1113 2531 2053 
Q 2531 2772 2437 3217 
Q 2344 3663 2176 3856 
Q 2009 4050 1772 4050 
Q 1556 4050 1411 3922 
Q 1266 3794 1177 3553 
Q 1088 3313 1050 2967 
Q 1013 2622 1013 2188 
z
" transform="scale(0.015625)"/>
       </defs>
       <use xlink:href="#Cambria-2212"/>
       <use xlink:href="#Cambria-32" x="55.371094"/>
       <use xlink:href="#Cambria-30" x="110.742188"/>
      </g>
     </g>
    </g>
    <g id="xtick_2">
     <g id="line2d_3">
      <path d="M 150.843533 256.40375 
L 150.843533 20.14375 
" clip-path="url(#pf6340ca66b)" style="fill: none; stroke-dasharray: 0.8,1.32; stroke-dashoffset: 0; stroke: #b0b0b0; stroke-width: 0.8"/>
     </g>
     <g id="line2d_4">
      <g>
       <use xlink:href="#macbffcc480" x="150.843533" y="256.40375" style="stroke: #000000; stroke-width: 0.8"/>
      </g>
     </g>
     <g id="text_2">
      <!-- 0 -->
      <g transform="translate(148.074783 270.39125) scale(0.1 -0.1)">
       <use xlink:href="#Cambria-30"/>
      </g>
     </g>
    </g>
    <g id="xtick_3">
     <g id="line2d_5">
      <path d="M 201.697237 256.40375 
L 201.697237 20.14375 
" clip-path="url(#pf6340ca66b)" style="fill: none; stroke-dasharray: 0.8,1.32; stroke-dashoffset: 0; stroke: #b0b0b0; stroke-width: 0.8"/>
     </g>
     <g id="line2d_6">
      <g>
       <use xlink:href="#macbffcc480" x="201.697237" y="256.40375" style="stroke: #000000; stroke-width: 0.8"/>
      </g>
     </g>
     <g id="text_3">
      <!-- 20 -->
      <g transform="translate(196.159737 270.39125) scale(0.1 -0.1)">
       <use xlink:href="#Cambria-32"/>
       <use xlink:href="#Cambria-30" x="55.371094"/>
      </g>
     </g>
    </g>
    <g id="xtick_4">
     <g id="line2d_7">
      <path d="M 252.55094 256.40375 
L 252.55094 20.14375 
" clip-path="url(#pf6340ca66b)" style="fill: none; stroke-dasharray: 0.8,1.32; stroke-dashoffset: 0; stroke: #b0b0b0; stroke-width: 0.8"/>
     </g>
     <g id="line2d_8">
      <g>
       <use xlink:href="#macbffcc480" x="252.55094" y="256.40375" style="stroke: #000000; stroke-width: 0.8"/>
      </g>
     </g>
     <g id="text_4">
      <!-- 40 -->
      <g transform="translate(247.01344 270.39125) scale(0.1 -0.1)">
       <defs>
        <path id="Cambria-34" d="M 1613 153 
Q 1806 203 1872 264 
Q 1938 325 1958 437 
Q 1978 550 1978 781 
L 1978 1294 
L 241 1294 
L 241 1528 
L 2069 4288 
L 2516 4288 
L 2516 1597 
L 2581 1597 
Q 2763 1597 2841 1623 
Q 2919 1650 2970 1717 
Q 3022 1784 3066 1938 
L 3303 1938 
L 3266 1294 
L 2516 1294 
L 2516 781 
Q 2516 572 2530 475 
Q 2544 378 2576 322 
Q 2609 266 2673 228 
Q 2738 191 2881 153 
L 2881 0 
L 1613 0 
L 1613 153 
z
M 756 1597 
L 1978 1597 
L 1978 2375 
Q 1978 2669 1987 3033 
Q 1997 3397 2009 3581 
L 1978 3581 
L 756 1641 
L 756 1597 
z
" transform="scale(0.015625)"/>
       </defs>
       <use xlink:href="#Cambria-34"/>
       <use xlink:href="#Cambria-30" x="55.371094"/>
      </g>
     </g>
    </g>
    <g id="text_5">
     <!-- Displacement (mm) -->
     <g transform="translate(121.128594 283.435) scale(0.1 -0.1)">
      <defs>
       <path id="TimesNewRomanPSMT-44" d="M 109 0 
L 109 116 
L 269 116 
Q 538 116 650 288 
Q 719 391 719 750 
L 719 3488 
Q 719 3884 631 3984 
Q 509 4122 269 4122 
L 109 4122 
L 109 4238 
L 1834 4238 
Q 2784 4238 3279 4022 
Q 3775 3806 4076 3303 
Q 4378 2800 4378 2141 
Q 4378 1256 3841 663 
Q 3238 0 2003 0 
L 109 0 
z
M 1319 306 
Q 1716 219 1984 219 
Q 2709 219 3187 728 
Q 3666 1238 3666 2109 
Q 3666 2988 3187 3494 
Q 2709 4000 1959 4000 
Q 1678 4000 1319 3909 
L 1319 306 
z
" transform="scale(0.015625)"/>
       <path id="TimesNewRomanPSMT-69" d="M 928 4444 
Q 1059 4444 1151 4351 
Q 1244 4259 1244 4128 
Q 1244 3997 1151 3903 
Q 1059 3809 928 3809 
Q 797 3809 703 3903 
Q 609 3997 609 4128 
Q 609 4259 701 4351 
Q 794 4444 928 4444 
z
M 1188 2947 
L 1188 647 
Q 1188 378 1227 289 
Q 1266 200 1342 156 
Q 1419 113 1622 113 
L 1622 0 
L 231 0 
L 231 113 
Q 441 113 512 153 
Q 584 194 626 287 
Q 669 381 669 647 
L 669 1750 
Q 669 2216 641 2353 
Q 619 2453 572 2492 
Q 525 2531 444 2531 
Q 356 2531 231 2484 
L 188 2597 
L 1050 2947 
L 1188 2947 
z
" transform="scale(0.015625)"/>
       <path id="TimesNewRomanPSMT-73" d="M 2050 2947 
L 2050 1972 
L 1947 1972 
Q 1828 2431 1642 2597 
Q 1456 2763 1169 2763 
Q 950 2763 815 2647 
Q 681 2531 681 2391 
Q 681 2216 781 2091 
Q 878 1963 1175 1819 
L 1631 1597 
Q 2266 1288 2266 781 
Q 2266 391 1970 151 
Q 1675 -88 1309 -88 
Q 1047 -88 709 6 
Q 606 38 541 38 
Q 469 38 428 -44 
L 325 -44 
L 325 978 
L 428 978 
Q 516 541 762 319 
Q 1009 97 1316 97 
Q 1531 97 1667 223 
Q 1803 350 1803 528 
Q 1803 744 1651 891 
Q 1500 1038 1047 1263 
Q 594 1488 453 1669 
Q 313 1847 313 2119 
Q 313 2472 555 2709 
Q 797 2947 1181 2947 
Q 1350 2947 1591 2875 
Q 1750 2828 1803 2828 
Q 1853 2828 1881 2850 
Q 1909 2872 1947 2947 
L 2050 2947 
z
" transform="scale(0.015625)"/>
       <path id="TimesNewRomanPSMT-70" d="M -6 2578 
L 875 2934 
L 994 2934 
L 994 2266 
Q 1216 2644 1439 2795 
Q 1663 2947 1909 2947 
Q 2341 2947 2628 2609 
Q 2981 2197 2981 1534 
Q 2981 794 2556 309 
Q 2206 -88 1675 -88 
Q 1444 -88 1275 -22 
Q 1150 25 994 166 
L 994 -706 
Q 994 -1000 1030 -1079 
Q 1066 -1159 1155 -1206 
Q 1244 -1253 1478 -1253 
L 1478 -1369 
L -22 -1369 
L -22 -1253 
L 56 -1253 
Q 228 -1256 350 -1188 
Q 409 -1153 442 -1076 
Q 475 -1000 475 -688 
L 475 2019 
Q 475 2297 450 2372 
Q 425 2447 370 2484 
Q 316 2522 222 2522 
Q 147 2522 31 2478 
L -6 2578 
z
M 994 2081 
L 994 1013 
Q 994 666 1022 556 
Q 1066 375 1236 237 
Q 1406 100 1666 100 
Q 1978 100 2172 344 
Q 2425 663 2425 1241 
Q 2425 1897 2138 2250 
Q 1938 2494 1663 2494 
Q 1513 2494 1366 2419 
Q 1253 2363 994 2081 
z
" transform="scale(0.015625)"/>
       <path id="TimesNewRomanPSMT-6c" d="M 1184 4444 
L 1184 647 
Q 1184 378 1223 290 
Q 1263 203 1344 158 
Q 1425 113 1647 113 
L 1647 0 
L 244 0 
L 244 113 
Q 441 113 512 153 
Q 584 194 625 287 
Q 666 381 666 647 
L 666 3247 
Q 666 3731 644 3842 
Q 622 3953 573 3993 
Q 525 4034 450 4034 
Q 369 4034 244 3984 
L 191 4094 
L 1044 4444 
L 1184 4444 
z
" transform="scale(0.015625)"/>
       <path id="TimesNewRomanPSMT-61" d="M 1822 413 
Q 1381 72 1269 19 
Q 1100 -59 909 -59 
Q 613 -59 420 144 
Q 228 347 228 678 
Q 228 888 322 1041 
Q 450 1253 767 1440 
Q 1084 1628 1822 1897 
L 1822 2009 
Q 1822 2438 1686 2597 
Q 1550 2756 1291 2756 
Q 1094 2756 978 2650 
Q 859 2544 859 2406 
L 866 2225 
Q 866 2081 792 2003 
Q 719 1925 600 1925 
Q 484 1925 411 2006 
Q 338 2088 338 2228 
Q 338 2497 613 2722 
Q 888 2947 1384 2947 
Q 1766 2947 2009 2819 
Q 2194 2722 2281 2516 
Q 2338 2381 2338 1966 
L 2338 994 
Q 2338 584 2353 492 
Q 2369 400 2405 369 
Q 2441 338 2488 338 
Q 2538 338 2575 359 
Q 2641 400 2828 588 
L 2828 413 
Q 2478 -56 2159 -56 
Q 2006 -56 1915 50 
Q 1825 156 1822 413 
z
M 1822 616 
L 1822 1706 
Q 1350 1519 1213 1441 
Q 966 1303 859 1153 
Q 753 1003 753 825 
Q 753 600 887 451 
Q 1022 303 1197 303 
Q 1434 303 1822 616 
z
" transform="scale(0.015625)"/>
       <path id="TimesNewRomanPSMT-63" d="M 2631 1088 
Q 2516 522 2178 217 
Q 1841 -88 1431 -88 
Q 944 -88 581 321 
Q 219 731 219 1428 
Q 219 2103 620 2525 
Q 1022 2947 1584 2947 
Q 2006 2947 2278 2723 
Q 2550 2500 2550 2259 
Q 2550 2141 2473 2067 
Q 2397 1994 2259 1994 
Q 2075 1994 1981 2113 
Q 1928 2178 1911 2362 
Q 1894 2547 1784 2644 
Q 1675 2738 1481 2738 
Q 1169 2738 978 2506 
Q 725 2200 725 1697 
Q 725 1184 976 792 
Q 1228 400 1656 400 
Q 1963 400 2206 609 
Q 2378 753 2541 1131 
L 2631 1088 
z
" transform="scale(0.015625)"/>
       <path id="TimesNewRomanPSMT-65" d="M 681 1784 
Q 678 1147 991 784 
Q 1303 422 1725 422 
Q 2006 422 2214 576 
Q 2422 731 2563 1106 
L 2659 1044 
Q 2594 616 2278 264 
Q 1963 -88 1488 -88 
Q 972 -88 605 314 
Q 238 716 238 1394 
Q 238 2128 614 2539 
Q 991 2950 1559 2950 
Q 2041 2950 2350 2633 
Q 2659 2316 2659 1784 
L 681 1784 
z
M 681 1966 
L 2006 1966 
Q 1991 2241 1941 2353 
Q 1863 2528 1708 2628 
Q 1553 2728 1384 2728 
Q 1125 2728 920 2526 
Q 716 2325 681 1966 
z
" transform="scale(0.015625)"/>
       <path id="TimesNewRomanPSMT-6d" d="M 1050 2338 
Q 1363 2650 1419 2697 
Q 1559 2816 1721 2881 
Q 1884 2947 2044 2947 
Q 2313 2947 2506 2790 
Q 2700 2634 2766 2338 
Q 3088 2713 3309 2830 
Q 3531 2947 3766 2947 
Q 3994 2947 4170 2830 
Q 4347 2713 4450 2447 
Q 4519 2266 4519 1878 
L 4519 647 
Q 4519 378 4559 278 
Q 4591 209 4675 161 
Q 4759 113 4950 113 
L 4950 0 
L 3538 0 
L 3538 113 
L 3597 113 
Q 3781 113 3884 184 
Q 3956 234 3988 344 
Q 4000 397 4000 647 
L 4000 1878 
Q 4000 2228 3916 2372 
Q 3794 2572 3525 2572 
Q 3359 2572 3192 2489 
Q 3025 2406 2788 2181 
L 2781 2147 
L 2788 2013 
L 2788 647 
Q 2788 353 2820 281 
Q 2853 209 2943 161 
Q 3034 113 3253 113 
L 3253 0 
L 1806 0 
L 1806 113 
Q 2044 113 2133 169 
Q 2222 225 2256 338 
Q 2272 391 2272 647 
L 2272 1878 
Q 2272 2228 2169 2381 
Q 2031 2581 1784 2581 
Q 1616 2581 1450 2491 
Q 1191 2353 1050 2181 
L 1050 647 
Q 1050 366 1089 281 
Q 1128 197 1204 155 
Q 1281 113 1516 113 
L 1516 0 
L 100 0 
L 100 113 
Q 297 113 375 155 
Q 453 197 493 289 
Q 534 381 534 647 
L 534 1741 
Q 534 2213 506 2350 
Q 484 2453 437 2492 
Q 391 2531 309 2531 
Q 222 2531 100 2484 
L 53 2597 
L 916 2947 
L 1050 2947 
L 1050 2338 
z
" transform="scale(0.015625)"/>
       <path id="TimesNewRomanPSMT-6e" d="M 1034 2341 
Q 1538 2947 1994 2947 
Q 2228 2947 2397 2830 
Q 2566 2713 2666 2444 
Q 2734 2256 2734 1869 
L 2734 647 
Q 2734 375 2778 278 
Q 2813 200 2889 156 
Q 2966 113 3172 113 
L 3172 0 
L 1756 0 
L 1756 113 
L 1816 113 
Q 2016 113 2095 173 
Q 2175 234 2206 353 
Q 2219 400 2219 647 
L 2219 1819 
Q 2219 2209 2117 2386 
Q 2016 2563 1775 2563 
Q 1403 2563 1034 2156 
L 1034 647 
Q 1034 356 1069 288 
Q 1113 197 1189 155 
Q 1266 113 1500 113 
L 1500 0 
L 84 0 
L 84 113 
L 147 113 
Q 366 113 442 223 
Q 519 334 519 647 
L 519 1709 
Q 519 2225 495 2337 
Q 472 2450 423 2490 
Q 375 2531 294 2531 
Q 206 2531 84 2484 
L 38 2597 
L 900 2947 
L 1034 2947 
L 1034 2341 
z
" transform="scale(0.015625)"/>
       <path id="TimesNewRomanPSMT-74" d="M 1031 3803 
L 1031 2863 
L 1700 2863 
L 1700 2644 
L 1031 2644 
L 1031 788 
Q 1031 509 1111 412 
Q 1191 316 1316 316 
Q 1419 316 1516 380 
Q 1613 444 1666 569 
L 1788 569 
Q 1678 263 1478 108 
Q 1278 -47 1066 -47 
Q 922 -47 784 33 
Q 647 113 581 261 
Q 516 409 516 719 
L 516 2644 
L 63 2644 
L 63 2747 
Q 234 2816 414 2980 
Q 594 3144 734 3369 
Q 806 3488 934 3803 
L 1031 3803 
z
" transform="scale(0.015625)"/>
       <path id="TimesNewRomanPSMT-20" transform="scale(0.015625)"/>
       <path id="TimesNewRomanPSMT-28" d="M 1988 -1253 
L 1988 -1369 
Q 1516 -1131 1200 -813 
Q 750 -359 506 256 
Q 263 872 263 1534 
Q 263 2503 741 3301 
Q 1219 4100 1988 4444 
L 1988 4313 
Q 1603 4100 1356 3731 
Q 1109 3363 987 2797 
Q 866 2231 866 1616 
Q 866 947 969 400 
Q 1050 -31 1165 -292 
Q 1281 -553 1476 -793 
Q 1672 -1034 1988 -1253 
z
" transform="scale(0.015625)"/>
       <path id="TimesNewRomanPSMT-29" d="M 144 4313 
L 144 4444 
Q 619 4209 934 3891 
Q 1381 3434 1625 2820 
Q 1869 2206 1869 1541 
Q 1869 572 1392 -226 
Q 916 -1025 144 -1369 
L 144 -1253 
Q 528 -1038 776 -670 
Q 1025 -303 1145 264 
Q 1266 831 1266 1447 
Q 1266 2113 1163 2663 
Q 1084 3094 967 3353 
Q 850 3613 656 3853 
Q 463 4094 144 4313 
z
" transform="scale(0.015625)"/>
      </defs>
      <use xlink:href="#TimesNewRomanPSMT-44"/>
      <use xlink:href="#TimesNewRomanPSMT-69" x="72.216797"/>
      <use xlink:href="#TimesNewRomanPSMT-73" x="100"/>
      <use xlink:href="#TimesNewRomanPSMT-70" x="138.916016"/>
      <use xlink:href="#TimesNewRomanPSMT-6c" x="188.916016"/>
      <use xlink:href="#TimesNewRomanPSMT-61" x="216.699219"/>
      <use xlink:href="#TimesNewRomanPSMT-63" x="261.083984"/>
      <use xlink:href="#TimesNewRomanPSMT-65" x="305.46875"/>
      <use xlink:href="#TimesNewRomanPSMT-6d" x="349.853516"/>
      <use xlink:href="#TimesNewRomanPSMT-65" x="427.636719"/>
      <use xlink:href="#TimesNewRomanPSMT-6e" x="472.021484"/>
      <use xlink:href="#TimesNewRomanPSMT-74" x="522.021484"/>
      <use xlink:href="#TimesNewRomanPSMT-20" x="549.804688"/>
      <use xlink:href="#TimesNewRomanPSMT-28" x="574.804688"/>
      <use xlink:href="#TimesNewRomanPSMT-6d" x="608.105469"/>
      <use xlink:href="#TimesNewRomanPSMT-6d" x="685.888672"/>
      <use xlink:href="#TimesNewRomanPSMT-29" x="763.671875"/>
     </g>
    </g>
   </g>
   <g id="matplotlib.axis_2">
    <g id="ytick_1">
     <g id="line2d_9">
      <path d="M 49.432813 251.101121 
L 272.522812 251.101121 
" clip-path="url(#pf6340ca66b)" style="fill: none; stroke-dasharray: 0.8,1.32; stroke-dashoffset: 0; stroke: #b0b0b0; stroke-width: 0.8"/>
     </g>
     <g id="line2d_10">
      <defs>
       <path id="m9eca429a7a" d="M 0 0 
L -3.5 0 
" style="stroke: #000000; stroke-width: 0.8"/>
      </defs>
      <g>
       <use xlink:href="#m9eca429a7a" x="49.432813" y="251.101121" style="stroke: #000000; stroke-width: 0.8"/>
      </g>
     </g>
     <g id="text_6">
      <!-- −150 -->
      <g transform="translate(20.282813 254.594871) scale(0.1 -0.1)">
       <defs>
        <path id="Cambria-31" d="M 2172 816 
Q 2172 634 2192 542 
Q 2213 450 2264 392 
Q 2316 334 2412 301 
Q 2509 269 2656 251 
Q 2803 234 3044 228 
L 3044 0 
L 734 0 
L 734 228 
Q 1081 244 1229 270 
Q 1378 297 1456 350 
Q 1534 403 1570 500 
Q 1606 597 1606 816 
L 1606 3350 
Q 1606 3475 1562 3533 
Q 1519 3591 1434 3591 
Q 1334 3591 1150 3487 
Q 966 3384 694 3203 
L 556 3444 
L 2019 4316 
L 2191 4316 
Q 2172 4016 2172 3484 
L 2172 816 
z
" transform="scale(0.015625)"/>
        <path id="Cambria-35" d="M 469 172 
L 469 834 
L 847 834 
Q 941 516 1130 366 
Q 1319 216 1619 216 
Q 2034 216 2246 466 
Q 2459 716 2459 1213 
Q 2459 1544 2346 1761 
Q 2234 1978 2043 2075 
Q 1853 2172 1600 2172 
Q 1388 2172 1234 2145 
Q 1081 2119 906 2063 
L 656 2209 
L 656 4266 
L 2378 4266 
Q 2484 4266 2531 4283 
Q 2578 4300 2606 4336 
Q 2634 4372 2672 4472 
L 2916 4472 
L 2869 3747 
L 1072 3747 
L 1072 2375 
Q 1234 2444 1425 2478 
Q 1616 2513 1806 2513 
Q 2178 2513 2465 2361 
Q 2753 2209 2909 1929 
Q 3066 1650 3066 1281 
Q 3066 863 2891 563 
Q 2716 263 2384 106 
Q 2053 -50 1600 -50 
Q 1059 -50 469 172 
z
" transform="scale(0.015625)"/>
       </defs>
       <use xlink:href="#Cambria-2212"/>
       <use xlink:href="#Cambria-31" x="55.371094"/>
       <use xlink:href="#Cambria-35" x="110.742188"/>
       <use xlink:href="#Cambria-30" x="166.113281"/>
      </g>
     </g>
    </g>
    <g id="ytick_2">
     <g id="line2d_11">
      <path d="M 49.432813 213.474867 
L 272.522812 213.474867 
" clip-path="url(#pf6340ca66b)" style="fill: none; stroke-dasharray: 0.8,1.32; stroke-dashoffset: 0; stroke: #b0b0b0; stroke-width: 0.8"/>
     </g>
     <g id="line2d_12">
      <g>
       <use xlink:href="#m9eca429a7a" x="49.432813" y="213.474867" style="stroke: #000000; stroke-width: 0.8"/>
      </g>
     </g>
     <g id="text_7">
      <!-- −100 -->
      <g transform="translate(20.282813 216.968617) scale(0.1 -0.1)">
       <use xlink:href="#Cambria-2212"/>
       <use xlink:href="#Cambria-31" x="55.371094"/>
       <use xlink:href="#Cambria-30" x="110.742188"/>
       <use xlink:href="#Cambria-30" x="166.113281"/>
      </g>
     </g>
    </g>
    <g id="ytick_3">
     <g id="line2d_13">
      <path d="M 49.432813 175.848613 
L 272.522812 175.848613 
" clip-path="url(#pf6340ca66b)" style="fill: none; stroke-dasharray: 0.8,1.32; stroke-dashoffset: 0; stroke: #b0b0b0; stroke-width: 0.8"/>
     </g>
     <g id="line2d_14">
      <g>
       <use xlink:href="#m9eca429a7a" x="49.432813" y="175.848613" style="stroke: #000000; stroke-width: 0.8"/>
      </g>
     </g>
     <g id="text_8">
      <!-- −50 -->
      <g transform="translate(25.820313 179.342363) scale(0.1 -0.1)">
       <use xlink:href="#Cambria-2212"/>
       <use xlink:href="#Cambria-35" x="55.371094"/>
       <use xlink:href="#Cambria-30" x="110.742188"/>
      </g>
     </g>
    </g>
    <g id="ytick_4">
     <g id="line2d_15">
      <path d="M 49.432813 138.222359 
L 272.522812 138.222359 
" clip-path="url(#pf6340ca66b)" style="fill: none; stroke-dasharray: 0.8,1.32; stroke-dashoffset: 0; stroke: #b0b0b0; stroke-width: 0.8"/>
     </g>
     <g id="line2d_16">
      <g>
       <use xlink:href="#m9eca429a7a" x="49.432813" y="138.222359" style="stroke: #000000; stroke-width: 0.8"/>
      </g>
     </g>
     <g id="text_9">
      <!-- 0 -->
      <g transform="translate(36.895313 141.716109) scale(0.1 -0.1)">
       <use xlink:href="#Cambria-30"/>
      </g>
     </g>
    </g>
    <g id="ytick_5">
     <g id="line2d_17">
      <path d="M 49.432813 100.596105 
L 272.522812 100.596105 
" clip-path="url(#pf6340ca66b)" style="fill: none; stroke-dasharray: 0.8,1.32; stroke-dashoffset: 0; stroke: #b0b0b0; stroke-width: 0.8"/>
     </g>
     <g id="line2d_18">
      <g>
       <use xlink:href="#m9eca429a7a" x="49.432813" y="100.596105" style="stroke: #000000; stroke-width: 0.8"/>
      </g>
     </g>
     <g id="text_10">
      <!-- 50 -->
      <g transform="translate(31.357813 104.089855) scale(0.1 -0.1)">
       <use xlink:href="#Cambria-35"/>
       <use xlink:href="#Cambria-30" x="55.371094"/>
      </g>
     </g>
    </g>
    <g id="ytick_6">
     <g id="line2d_19">
      <path d="M 49.432813 62.969851 
L 272.522812 62.969851 
" clip-path="url(#pf6340ca66b)" style="fill: none; stroke-dasharray: 0.8,1.32; stroke-dashoffset: 0; stroke: #b0b0b0; stroke-width: 0.8"/>
     </g>
     <g id="line2d_20">
      <g>
       <use xlink:href="#m9eca429a7a" x="49.432813" y="62.969851" style="stroke: #000000; stroke-width: 0.8"/>
      </g>
     </g>
     <g id="text_11">
      <!-- 100 -->
      <g transform="translate(25.820313 66.463601) scale(0.1 -0.1)">
       <use xlink:href="#Cambria-31"/>
       <use xlink:href="#Cambria-30" x="55.371094"/>
       <use xlink:href="#Cambria-30" x="110.742188"/>
      </g>
     </g>
    </g>
    <g id="ytick_7">
     <g id="line2d_21">
      <path d="M 49.432813 25.343598 
L 272.522812 25.343598 
" clip-path="url(#pf6340ca66b)" style="fill: none; stroke-dasharray: 0.8,1.32; stroke-dashoffset: 0; stroke: #b0b0b0; stroke-width: 0.8"/>
     </g>
     <g id="line2d_22">
      <g>
       <use xlink:href="#m9eca429a7a" x="49.432813" y="25.343598" style="stroke: #000000; stroke-width: 0.8"/>
      </g>
     </g>
     <g id="text_12">
      <!-- 150 -->
      <g transform="translate(25.820313 28.837348) scale(0.1 -0.1)">
       <use xlink:href="#Cambria-31"/>
       <use xlink:href="#Cambria-35" x="55.371094"/>
       <use xlink:href="#Cambria-30" x="110.742188"/>
      </g>
     </g>
    </g>
    <g id="text_13">
     <!-- Base Shear (kN) -->
     <g transform="translate(14.14375 171.319063) rotate(-90) scale(0.1 -0.1)">
      <defs>
       <path id="TimesNewRomanPSMT-42" d="M 2956 2163 
Q 3397 2069 3616 1863 
Q 3919 1575 3919 1159 
Q 3919 844 3719 555 
Q 3519 266 3170 133 
Q 2822 0 2106 0 
L 106 0 
L 106 116 
L 266 116 
Q 531 116 647 284 
Q 719 394 719 750 
L 719 3488 
Q 719 3881 628 3984 
Q 506 4122 266 4122 
L 106 4122 
L 106 4238 
L 1938 4238 
Q 2450 4238 2759 4163 
Q 3228 4050 3475 3764 
Q 3722 3478 3722 3106 
Q 3722 2788 3528 2536 
Q 3334 2284 2956 2163 
z
M 1319 2331 
Q 1434 2309 1582 2298 
Q 1731 2288 1909 2288 
Q 2366 2288 2595 2386 
Q 2825 2484 2947 2687 
Q 3069 2891 3069 3131 
Q 3069 3503 2766 3765 
Q 2463 4028 1881 4028 
Q 1569 4028 1319 3959 
L 1319 2331 
z
M 1319 306 
Q 1681 222 2034 222 
Q 2600 222 2897 476 
Q 3194 731 3194 1106 
Q 3194 1353 3059 1581 
Q 2925 1809 2622 1940 
Q 2319 2072 1872 2072 
Q 1678 2072 1540 2065 
Q 1403 2059 1319 2044 
L 1319 306 
z
" transform="scale(0.015625)"/>
       <path id="TimesNewRomanPSMT-53" d="M 2934 4334 
L 2934 2869 
L 2819 2869 
Q 2763 3291 2617 3541 
Q 2472 3791 2203 3937 
Q 1934 4084 1647 4084 
Q 1322 4084 1109 3886 
Q 897 3688 897 3434 
Q 897 3241 1031 3081 
Q 1225 2847 1953 2456 
Q 2547 2138 2764 1967 
Q 2981 1797 3098 1565 
Q 3216 1334 3216 1081 
Q 3216 600 2842 251 
Q 2469 -97 1881 -97 
Q 1697 -97 1534 -69 
Q 1438 -53 1133 45 
Q 828 144 747 144 
Q 669 144 623 97 
Q 578 50 556 -97 
L 441 -97 
L 441 1356 
L 556 1356 
Q 638 900 775 673 
Q 913 447 1195 297 
Q 1478 147 1816 147 
Q 2206 147 2432 353 
Q 2659 559 2659 841 
Q 2659 997 2573 1156 
Q 2488 1316 2306 1453 
Q 2184 1547 1640 1851 
Q 1097 2156 867 2337 
Q 638 2519 519 2737 
Q 400 2956 400 3219 
Q 400 3675 750 4004 
Q 1100 4334 1641 4334 
Q 1978 4334 2356 4169 
Q 2531 4091 2603 4091 
Q 2684 4091 2736 4139 
Q 2788 4188 2819 4334 
L 2934 4334 
z
" transform="scale(0.015625)"/>
       <path id="TimesNewRomanPSMT-68" d="M 1041 4444 
L 1041 2350 
Q 1388 2731 1591 2839 
Q 1794 2947 1997 2947 
Q 2241 2947 2416 2812 
Q 2591 2678 2675 2391 
Q 2734 2191 2734 1659 
L 2734 647 
Q 2734 375 2778 275 
Q 2809 200 2884 156 
Q 2959 113 3159 113 
L 3159 0 
L 1753 0 
L 1753 113 
L 1819 113 
Q 2019 113 2097 173 
Q 2175 234 2206 353 
Q 2216 403 2216 647 
L 2216 1659 
Q 2216 2128 2167 2275 
Q 2119 2422 2012 2495 
Q 1906 2569 1756 2569 
Q 1603 2569 1437 2487 
Q 1272 2406 1041 2159 
L 1041 647 
Q 1041 353 1073 281 
Q 1106 209 1195 161 
Q 1284 113 1503 113 
L 1503 0 
L 84 0 
L 84 113 
Q 275 113 384 172 
Q 447 203 484 290 
Q 522 378 522 647 
L 522 3238 
Q 522 3728 498 3840 
Q 475 3953 426 3993 
Q 378 4034 297 4034 
Q 231 4034 84 3984 
L 41 4094 
L 897 4444 
L 1041 4444 
z
" transform="scale(0.015625)"/>
       <path id="TimesNewRomanPSMT-72" d="M 1038 2947 
L 1038 2303 
Q 1397 2947 1775 2947 
Q 1947 2947 2059 2842 
Q 2172 2738 2172 2600 
Q 2172 2478 2090 2393 
Q 2009 2309 1897 2309 
Q 1788 2309 1652 2417 
Q 1516 2525 1450 2525 
Q 1394 2525 1328 2463 
Q 1188 2334 1038 2041 
L 1038 669 
Q 1038 431 1097 309 
Q 1138 225 1241 169 
Q 1344 113 1538 113 
L 1538 0 
L 72 0 
L 72 113 
Q 291 113 397 181 
Q 475 231 506 341 
Q 522 394 522 644 
L 522 1753 
Q 522 2253 501 2348 
Q 481 2444 426 2487 
Q 372 2531 291 2531 
Q 194 2531 72 2484 
L 41 2597 
L 906 2947 
L 1038 2947 
z
" transform="scale(0.015625)"/>
       <path id="TimesNewRomanPSMT-6b" d="M 1047 4444 
L 1047 1597 
L 1775 2259 
Q 2006 2472 2044 2528 
Q 2069 2566 2069 2603 
Q 2069 2666 2017 2711 
Q 1966 2756 1847 2763 
L 1847 2863 
L 3091 2863 
L 3091 2763 
Q 2834 2756 2664 2684 
Q 2494 2613 2291 2428 
L 1556 1750 
L 2291 822 
Q 2597 438 2703 334 
Q 2853 188 2966 144 
Q 3044 113 3238 113 
L 3238 0 
L 1847 0 
L 1847 113 
Q 1966 116 2008 148 
Q 2050 181 2050 241 
Q 2050 313 1925 472 
L 1047 1594 
L 1047 644 
Q 1047 366 1086 278 
Q 1125 191 1197 153 
Q 1269 116 1509 113 
L 1509 0 
L 53 0 
L 53 113 
Q 272 113 381 166 
Q 447 200 481 272 
Q 528 375 528 628 
L 528 3234 
Q 528 3731 506 3842 
Q 484 3953 434 3995 
Q 384 4038 303 4038 
Q 238 4038 106 3984 
L 53 4094 
L 903 4444 
L 1047 4444 
z
" transform="scale(0.015625)"/>
       <path id="TimesNewRomanPSMT-4e" d="M -84 4238 
L 1066 4238 
L 3656 1059 
L 3656 3503 
Q 3656 3894 3569 3991 
Q 3453 4122 3203 4122 
L 3056 4122 
L 3056 4238 
L 4531 4238 
L 4531 4122 
L 4381 4122 
Q 4113 4122 4000 3959 
Q 3931 3859 3931 3503 
L 3931 -69 
L 3819 -69 
L 1025 3344 
L 1025 734 
Q 1025 344 1109 247 
Q 1228 116 1475 116 
L 1625 116 
L 1625 0 
L 150 0 
L 150 116 
L 297 116 
Q 569 116 681 278 
Q 750 378 750 734 
L 750 3681 
Q 566 3897 470 3965 
Q 375 4034 191 4094 
Q 100 4122 -84 4122 
L -84 4238 
z
" transform="scale(0.015625)"/>
      </defs>
      <use xlink:href="#TimesNewRomanPSMT-42"/>
      <use xlink:href="#TimesNewRomanPSMT-61" x="66.699219"/>
      <use xlink:href="#TimesNewRomanPSMT-73" x="111.083984"/>
      <use xlink:href="#TimesNewRomanPSMT-65" x="150"/>
      <use xlink:href="#TimesNewRomanPSMT-20" x="194.384766"/>
      <use xlink:href="#TimesNewRomanPSMT-53" x="219.384766"/>
      <use xlink:href="#TimesNewRomanPSMT-68" x="275"/>
      <use xlink:href="#TimesNewRomanPSMT-65" x="325"/>
      <use xlink:href="#TimesNewRomanPSMT-61" x="369.384766"/>
      <use xlink:href="#TimesNewRomanPSMT-72" x="413.769531"/>
      <use xlink:href="#TimesNewRomanPSMT-20" x="447.070312"/>
      <use xlink:href="#TimesNewRomanPSMT-28" x="472.070312"/>
      <use xlink:href="#TimesNewRomanPSMT-6b" x="505.371094"/>
      <use xlink:href="#TimesNewRomanPSMT-4e" x="555.371094"/>
      <use xlink:href="#TimesNewRomanPSMT-29" x="627.587891"/>
     </g>
    </g>
   </g>
   <g id="line2d_23">
    <path d="M 151.140806 135.65775 
L 152.539666 124.744766 
L 155.330807 113.552435 
L 158.908892 100.122455 
L 162.343478 88.372307 
L 165.276556 80.261113 
L 168.923954 73.412726 
L 169.780992 75.376186 
L 169.636068 81.3969 
L 169.061982 88.396283 
L 167.844682 95.253342 
L 164.910777 105.885048 
L 158.04188 128.545174 
L 155.657164 135.444743 
L 151.922948 148.396201 
L 148.626407 157.659934 
L 145.741817 166.118572 
L 143.577614 174.781422 
L 142.032001 180.220219 
L 139.868989 185.253531 
L 138.117598 190.489953 
L 139.047005 181.016132 
L 141.110735 164.892198 
L 143.481245 154.818596 
L 146.263045 145.956309 
L 149.04405 139.513714 
L 150.590591 131.251942 
L 153.578962 120.172339 
L 156.772846 110.101675 
L 158.010025 103.65357 
L 160.89521 93.380164 
L 164.397926 83.108961 
L 166.561533 76.26088 
L 170.372021 69.015394 
L 174.49101 62.577573 
L 176.962721 57.747004 
L 176.754759 64.198782 
L 176.34155 68.835055 
L 174.48545 79.515417 
L 173.248668 84.753675 
L 170.774905 95.835115 
L 168.71369 104.296691 
L 163.563035 118.191556 
L 161.090464 125.643458 
L 157.382699 133.494234 
L 155.219025 140.543956 
L 151.510797 149.806219 
L 148.935437 156.854472 
L 146.874817 163.501279 
L 144.711541 169.341155 
L 141.517127 181.024947 
L 139.628507 186.260879 
L 135.747948 197.942222 
L 134.305588 202.373182 
L 131.216545 206.596624 
L 131.423513 203.169462 
L 131.836789 198.331547 
L 132.971444 190.67323 
L 134.209946 180.192305 
L 135.858416 174.955516 
L 137.610799 166.694479 
L 140.907208 157.834028 
L 143.894454 150.182322 
L 146.778977 141.925325 
L 149.869874 132.055935 
L 154.196691 119.569619 
L 158.523774 106.27674 
L 160.585187 97.210241 
L 165.632391 84.928137 
L 170.164854 73.047479 
L 173.769962 64.389771 
L 178.403493 58.155428 
L 183.552229 50.108153 
L 186.847115 45.885445 
L 189.832972 42.4682 
L 192.40681 40.05769 
L 192.19951 44.493057 
L 191.269839 54.773442 
L 189.723034 63.841778 
L 187.86753 72.707371 
L 179.729298 95.262146 
L 175.712436 104.120026 
L 170.837828 113.176486 
L 164.692659 125.857954 
L 161.362804 132.096949 
L 158.821817 138.943683 
L 156.349775 144.782457 
L 153.15695 151.626865 
L 149.861335 158.067624 
L 147.904035 163.504952 
L 145.226348 168.738068 
L 141.51898 175.378999 
L 138.428283 184.643466 
L 136.367994 190.282068 
L 133.483272 199.143988 
L 130.188188 203.971619 
L 126.892705 210.009095 
L 124.935736 214.438219 
L 123.185272 216.851667 
L 124.113685 210.40246 
L 125.248869 201.131015 
L 126.898795 191.458124 
L 129.577607 182.79711 
L 134.110069 170.916452 
L 137.407074 160.241233 
L 141.423207 153.601404 
L 143.99956 143.528536 
L 146.677379 137.892138 
L 150.179632 129.032422 
L 154.507177 114.328055 
L 163.982003 96.012515 
L 168.718191 90.585104 
L 172.220443 81.725388 
L 176.752178 72.06278 
L 180.665654 64.616021 
L 185.09354 57.77602 
L 189.625142 48.516695 
L 194.670956 40.469052 
L 197.553825 37.25308 
L 201.259472 35.854816 
L 204.141943 33.84869 
L 206.406156 34.058411 
L 205.267795 53.008625 
L 202.897152 63.485509 
L 200.012364 72.549069 
L 196.406727 82.819905 
L 194.037673 88.457405 
L 190.124197 95.904165 
L 182.40063 109.386565 
L 176.598865 121.061053 
L 171.244551 128.30103 
L 166.130122 136.348427 
L 161.392544 146.0103 
L 156.449983 153.050105 
L 151.50676 162.10632 
L 147.697 167.133755 
L 143.989963 172.766481 
L 139.561746 180.614686 
L 135.44236 188.262353 
L 131.838377 193.492163 
L 131.836061 200.549598 
L 129.157778 207.597484 
L 125.141248 215.447158 
L 121.640121 220.878977 
L 119.88926 224.502271 
L 117.417748 228.727917 
L 114.843711 231.74335 
L 111.857987 234.757314 
L 108.667081 235.754133 
L 107.535471 234.136965 
L 108.979421 224.866621 
L 110.630339 212.169115 
L 113.206758 201.894606 
L 116.400841 191.219019 
L 121.447383 180.953326 
L 126.082304 170.484522 
L 134.939533 152.368419 
L 142.972659 136.467429 
L 148.53381 126.203571 
L 153.888853 116.745544 
L 161.304581 100.439068 
L 165.525962 95.614743 
L 170.571908 87.163818 
L 176.956433 76.902899 
L 182.310681 69.864563 
L 187.974224 61.214201 
L 194.255828 50.952915 
L 199.095401 44.114384 
L 203.110872 39.490965 
L 208.978604 35.882362 
L 211.860877 34.481159 
L 216.287042 32.883825 
L 220.610418 30.882841 
L 221.536383 31.894351 
L 220.709501 42.578386 
L 219.573854 53.261319 
L 217.409121 63.537296 
L 213.185225 76.023979 
L 207.108671 88.705692 
L 201.443407 102.59872 
L 194.647261 112.656529 
L 188.366121 121.506328 
L 172.818051 142.421531 
L 165.508091 150.057811 
L 158.610082 156.888997 
L 152.020574 164.527848 
L 145.637108 171.562511 
L 140.592287 176.585539 
L 131.013812 197.118763 
L 128.130414 201.947863 
L 119.892305 215.226786 
L 109.388394 233.135371 
L 105.578965 237.154601 
L 101.769867 240.165626 
L 99.299612 240.560093 
L 96.417339 241.961296 
L 94.152928 242.356498 
L 94.771849 238.124241 
L 94.77529 227.638909 
L 96.734577 216.152351 
L 100.134569 205.275857 
L 103.019555 195.607374 
L 107.551489 185.339844 
L 112.769765 174.469839 
L 117.232952 164.605346 
L 136.180087 135.636624 
L 141.740312 128.19574 
L 144.726168 124.778495 
L 150.492368 116.935064 
L 156.361424 109.293642 
L 162.539774 100.040193 
L 169.232006 93.006632 
L 176.33738 81.538438 
L 182.926623 74.706151 
L 191.678548 63.848756 
L 198.782532 56.615023 
L 206.916396 47.368553 
L 216.079213 38.93232 
L 218.961684 36.926194 
L 223.38785 35.32886 
L 225.755977 32.514333 
L 229.15266 31.71989 
L 235.842839 30.9372 
L 238.106589 32.558408 
L 237.281891 36.588289 
L 236.043719 46.061009 
L 234.187619 56.74137 
L 232.125808 67.017715 
L 229.859213 74.06707 
L 224.708624 87.760293 
L 214.822442 105.066159 
L 204.422843 118.740651 
L 198.966136 124.367133 
L 189.08161 136.631974 
L 182.800999 143.868645 
L 171.339729 151.893393 
L 165.094551 155.70229 
L 159.637778 161.530413 
L 152.740365 166.546829 
L 147.695279 172.376421 
L 134.825822 185.235534 
L 132.457099 189.864829 
L 127.926689 195.494616 
L 123.807303 203.142283 
L 116.599205 214.005186 
L 109.185794 223.254227 
L 104.552329 229.286929 
L 100.331014 233.909613 
L 94.565807 238.728429 
L 89.213213 240.72574 
L 85.095614 242.9291 
L 78.816526 245.528028 
L 76.037639 245.518111 
L 76.8628 240.076743 
L 77.895525 229.393443 
L 79.545583 219.31727 
L 81.813039 209.646582 
L 85.933682 198.167737 
L 90.67126 188.505864 
L 95.271411 179.448425 
L 99.117067 169.581728 
L 103.338646 164.15248 
L 107.457502 158.117942 
L 110.547008 152.483013 
L 117.239637 144.239606 
L 127.947207 132.985908 
L 132.168389 128.766506 
L 140.095284 122.947198 
L 148.949336 114.509863 
L 155.950134 108.082327 
L 160.480479 102.65418 
L 164.186854 99.037865 
L 172.217531 90.597591 
L 180.14489 83.366797 
L 185.807639 77.136127 
L 197.544625 65.281179 
L 205.471785 58.655307 
L 215.458108 49.81873 
L 221.635334 43.993179 
L 227.400276 39.980927 
L 232.135449 37.645344 
L 235.840854 36.986429 
L 236.869409 39.006512 
L 236.042924 48.480701 
L 233.979856 62.588225 
L 221.928677 90.976632 
L 214.616731 104.662143 
L 209.88008 111.501041 
L 201.539975 121.956623 
L 193.81793 130.80128 
L 184.654849 140.044077 
L 177.756575 147.681827 
L 165.814804 156.309784 
L 159.637645 161.933695 
L 151.607696 168.155917 
L 144.195343 174.178702 
L 135.237443 185.438644 
L 124.426819 197.095257 
L 116.292823 206.745009 
L 103.732727 217.790454 
L 94.672766 226.428696 
L 87.980865 232.454052 
L 81.392416 236.866647 
L 73.774617 241.678852 
L 67.598319 244.68143 
L 63.069629 245.068551 
L 60.599308 245.664659 
L 62.043985 234.176264 
L 64.416017 219.464919 
L 65.962558 211.203148 
L 71.935528 200.537478 
L 73.378418 194.49339 
L 76.983526 185.835682 
L 81.926881 176.376185 
L 86.149123 168.930527 
L 92.533118 160.282736 
L 96.446197 154.045822 
L 101.697127 148.216965 
L 105.713127 141.980418 
L 111.993208 136.356875 
L 121.978737 129.93999 
L 130.522766 125.332732 
L 138.037643 120.52016 
L 151.213813 113.91302 
L 165.011088 96.41947 
L 173.350332 88.585222 
L 177.880545 83.560357 
L 184.366138 78.945754 
L 194.661889 68.093869 
L 199.70671 63.070841 
L 204.443229 56.635224 
L 210.207775 53.832818 
L 220.194098 44.996241 
L 219.574714 50.639986 
L 218.336344 60.717628 
L 213.907398 70.783884 
L 211.125334 80.452735 
L 205.974546 94.750882 
L 201.340221 103.404917 
L 197.11831 109.84237 
L 191.1462 117.886707 
L 175.907491 136.988243 
L 169.008424 147.045684 
L 162.728277 152.870869 
L 155.830202 159.903695 
L 148.828941 167.742718 
L 142.75424 174.778483 
L 138.223829 180.408271 
L 129.678874 187.838502 
L 118.457489 196.670672 
L 105.690954 209.530152 
L 98.2788 214.948014 
L 90.558013 219.961492 
L 84.278065 225.181754 
L 79.747919 230.004977 
L 75.115314 233.416346 
L 71.512523 235.016619 
L 66.160128 236.409007 
L 61.93974 238.208717 
L 59.573267 235.982218 
L 60.605 228.323534 
L 61.430095 223.083806 
L 61.638586 215.018901 
L 63.288114 206.555855 
L 71.733854 187.83336 
L 79.766848 172.335652 
L 85.327734 162.878359 
L 92.534971 154.636788 
L 97.992208 147.397179 
L 104.890216 140.565993 
L 110.655556 135.343895 
L 120.023555 128.924807 
L 128.773228 124.923206 
L 136.699594 120.717026 
L 141.434723 118.515871 
L 146.067129 115.709425 
L 153.891103 109.88975 
L 158.009562 105.065057 
L 164.393293 97.22383 
L 172.011621 90.798498 
L 181.071384 82.765179 
L 192.704588 73.531197 
L 199.396488 67.505841 
L 209.176637 59.676734 
L 215.971393 53.853386 
L 224.309976 48.035548 
L 234.397434 44.643645 
L 239.234889 44.257626 
L 241.807801 44.67009 
L 244.586291 45.889853 
L 246.026931 46.701559 
L 247.569831 49.530042 
L 249.833183 52.361096 
L 253.537705 54.390729 
L 256.213538 54.80356 
L 259.093826 59.451587 
L 260.224112 65.101575 
L 261.045699 70.54882 
L 262.382358 74.586415 
L 262.381564 77.006107 
L 262.381564 77.006107 
" clip-path="url(#pf6340ca66b)" style="fill: none; stroke-dasharray: 3.7,1.6; stroke-dashoffset: 0; stroke: #000000"/>
   </g>
   <g id="line2d_24">
    <path d="M 150.843533 138.222359 
L 152.431358 112.954583 
L 153.203448 102.384395 
L 153.949622 94.803471 
L 154.661683 89.468346 
L 155.95265 82.220335 
L 157.454378 75.663856 
L 158.471575 71.748552 
L 158.428194 72.263577 
L 157.440082 82.562937 
L 155.308685 102.459853 
L 152.403409 129.221448 
L 151.613418 137.524336 
L 150.016837 159.42179 
L 148.456473 175.889107 
L 147.711379 181.896627 
L 146.39904 189.875026 
L 145.217487 195.511053 
L 143.643413 201.529318 
L 143.282447 202.744863 
L 143.328817 202.209148 
L 144.328224 192.040471 
L 149.327771 143.793557 
L 150.916802 126.378955 
L 152.503331 112.247684 
L 154.017853 100.94852 
L 156.011069 87.698243 
L 157.855473 77.257202 
L 158.487398 74.094909 
L 158.43804 74.516779 
L 157.427354 83.866343 
L 153.887308 114.923857 
L 152.363591 131.382271 
L 150.77399 148.876483 
L 149.188143 162.917345 
L 147.675523 174.075807 
L 145.687255 187.145167 
L 144.206498 195.640272 
L 143.232276 200.597132 
L 143.284621 200.123966 
L 144.751159 186.987552 
L 147.858283 160.112113 
L 149.383775 143.899561 
L 151.17703 124.559285 
L 153.392527 106.318607 
L 155.580207 91.975093 
L 157.716045 79.456491 
L 159.776585 70.590109 
L 161.739195 65.379131 
L 163.582324 61.268764 
L 165.285728 58.169793 
L 166.830701 55.686545 
L 169.379409 52.173929 
L 171.966739 49.33063 
L 172.045712 49.250716 
L 170.895889 56.484781 
L 167.780142 74.527103 
L 164.754618 90.74087 
L 161.120375 109.055709 
L 152.682271 149.628956 
L 148.248072 175.136008 
L 146.061832 186.441442 
L 143.928284 196.320165 
L 141.870858 203.439895 
L 139.91215 208.771119 
L 138.073672 212.90739 
L 136.375613 215.98579 
L 134.836623 218.375483 
L 132.301523 221.744343 
L 129.728237 224.698771 
L 130.902529 217.340797 
L 134.040198 199.415948 
L 137.077843 183.51936 
L 140.721578 165.503272 
L 151.388794 114.889132 
L 153.603109 105.513089 
L 155.787878 97.665915 
L 157.919107 90.809663 
L 159.973391 84.81403 
L 163.76197 74.889044 
L 166.987644 67.32509 
L 169.5091 61.970349 
L 172.033202 57.214811 
L 172.095554 57.107527 
L 170.049928 68.854208 
L 167.737262 81.186997 
L 164.687539 96.170569 
L 161.034362 113.028421 
L 156.937773 130.921099 
L 152.577237 149.495349 
L 150.357461 159.522885 
L 148.143784 168.403019 
L 145.960517 175.871358 
L 143.831637 182.55028 
L 139.829706 193.956873 
L 136.313309 203.166232 
L 133.436497 210.135444 
L 129.732099 218.316628 
L 130.319896 214.887625 
L 132.874198 200.258233 
L 135.583363 185.834844 
L 138.96409 169.103605 
L 142.868273 151.068704 
L 144.963908 141.915621 
L 149.327444 124.187506 
L 151.953589 113.93491 
L 155.582923 101.643634 
L 159.160968 91.097181 
L 162.648429 81.78998 
L 166.007005 73.424262 
L 169.199812 65.975131 
L 172.191785 59.540863 
L 174.950066 54.71279 
L 177.444361 51.543661 
L 179.647278 49.254345 
L 181.534624 47.541447 
L 184.283385 45.427473 
L 185.645218 44.504456 
L 183.599156 55.216993 
L 180.427598 70.525879 
L 178.345956 79.821118 
L 175.963035 89.782892 
L 173.305004 100.148569 
L 170.401054 110.614799 
L 167.283078 120.866097 
L 163.985319 130.595335 
L 160.543992 139.357403 
L 156.996893 147.002433 
L 153.382976 155.401146 
L 149.741931 165.7731 
L 146.113744 176.763568 
L 142.538262 186.73033 
L 139.054752 195.533226 
L 135.70147 203.225981 
L 132.515244 209.911434 
L 129.531066 215.634392 
L 126.781708 220.125154 
L 124.297366 223.199176 
L 122.105323 225.405376 
L 118.690953 228.334812 
L 116.18474 230.189109 
L 117.202689 224.641539 
L 119.697433 211.999422 
L 121.466864 203.597867 
L 123.55968 194.247871 
L 125.952896 184.277665 
L 128.62023 173.935423 
L 131.532387 163.528472 
L 134.657386 153.402047 
L 137.960907 143.894082 
L 141.40667 135.632526 
L 148.572405 121.236141 
L 152.21368 112.866386 
L 155.840668 103.824209 
L 159.413537 95.247319 
L 162.893047 87.43165 
L 166.240987 80.603939 
L 169.420588 74.577274 
L 172.39693 69.344189 
L 175.137326 64.905808 
L 177.611681 61.204158 
L 181.656789 55.659275 
L 185.635962 50.636735 
L 183.509895 61.320599 
L 180.289408 76.411503 
L 178.185447 85.452976 
L 175.78197 95.027436 
L 173.105371 104.90369 
L 170.185047 114.776992 
L 167.053068 124.270531 
L 163.743831 133.033209 
L 160.29368 140.549612 
L 153.123328 153.802761 
L 149.481874 162.021222 
L 145.856135 171.039425 
L 142.28593 179.617752 
L 138.810468 187.452688 
L 135.467917 194.365459 
L 132.294986 200.528489 
L 129.326523 205.927898 
L 126.595126 210.552445 
L 121.96059 217.687282 
L 117.435404 223.942001 
L 116.194969 225.591932 
L 117.266823 220.243871 
L 119.812661 207.630155 
L 121.605879 199.26917 
L 123.720955 189.975162 
L 126.13466 180.094566 
L 128.820486 169.9212 
L 131.748937 159.807804 
L 134.887851 150.135792 
L 138.202756 141.280701 
L 141.657247 133.823051 
L 148.832116 120.801017 
L 153.082834 111.697698 
L 158.121688 100.030933 
L 163.081372 89.119897 
L 167.907416 79.522385 
L 172.54682 71.120901 
L 176.948633 63.967522 
L 181.064511 57.98764 
L 184.849253 52.946018 
L 188.261295 48.826747 
L 191.263163 46.190293 
L 193.82189 44.382853 
L 197.502696 42.258739 
L 199.170895 41.452113 
L 197.643318 48.917118 
L 194.068539 65.074086 
L 191.559046 75.427882 
L 188.603164 86.579932 
L 185.233353 98.048561 
L 181.486624 109.397049 
L 177.404122 120.139814 
L 173.030685 129.916341 
L 168.414341 138.293596 
L 163.60579 144.96673 
L 153.624832 157.409204 
L 148.562039 166.439031 
L 138.569221 188.10583 
L 133.74894 197.472842 
L 129.522439 204.913714 
L 125.130024 211.872445 
L 121.025214 217.67991 
L 117.253089 222.576397 
L 113.855077 226.6014 
L 110.868496 229.261448 
L 108.326145 231.094765 
L 104.68063 233.237817 
L 103.068761 234.038257 
L 104.633756 226.232908 
L 108.243928 209.741174 
L 110.769868 199.258641 
L 113.741121 188.021788 
L 117.125055 176.502921 
L 120.884509 165.1713 
L 124.978193 154.484885 
L 129.361151 144.825524 
L 133.985246 136.705053 
L 138.799695 130.146458 
L 143.751626 124.542763 
L 148.786653 118.414093 
L 153.849482 110.37703 
L 163.83644 91.210386 
L 168.650889 82.666731 
L 173.274985 75.285105 
L 177.657942 68.967306 
L 181.751626 63.672105 
L 185.51108 59.242377 
L 188.895015 55.535863 
L 194.392207 49.955517 
L 199.557895 45.081081 
L 197.955505 52.845681 
L 194.309991 69.06063 
L 191.767639 79.309249 
L 188.781058 90.253852 
L 185.383046 101.426191 
L 181.610922 112.381222 
L 177.506111 122.617418 
L 173.113696 131.722055 
L 168.481914 139.166988 
L 163.661633 145.333266 
L 158.705791 150.681366 
L 153.668815 156.409621 
L 148.606022 164.27768 
L 138.625064 183.857912 
L 133.816513 192.613801 
L 129.20017 200.173454 
L 124.826732 206.670671 
L 120.744231 212.093211 
L 116.997501 216.619679 
L 113.627691 220.39468 
L 108.162315 226.057066 
L 103.088395 230.921826 
L 104.728159 222.9173 
L 108.408964 206.465941 
L 110.967691 196.122353 
L 113.969559 185.098609 
L 117.381601 173.839066 
L 121.166343 162.84643 
L 125.282222 152.614084 
L 129.684034 143.553683 
L 134.323438 136.185654 
L 139.149482 129.961611 
L 144.109166 124.748293 
L 149.14802 118.864044 
L 155.022676 109.416678 
L 161.465782 97.016498 
L 167.797442 85.497474 
L 173.948121 75.704249 
L 179.85027 67.449349 
L 185.439069 60.707589 
L 190.65314 55.101415 
L 195.435221 50.388481 
L 199.732793 46.437554 
L 203.498659 43.424535 
L 206.691461 41.335185 
L 209.276136 39.91573 
L 213.132719 38.238368 
L 212.333124 42.00799 
L 208.860542 57.216726 
L 206.164995 68.004714 
L 202.867101 79.977316 
L 199.003079 92.370903 
L 194.615366 104.524696 
L 189.752147 115.932909 
L 184.466834 126.110043 
L 178.81747 134.797853 
L 172.866099 141.671469 
L 166.67808 147.467389 
L 160.321373 152.337336 
L 153.865789 157.848401 
L 147.382225 166.907729 
L 134.615501 189.989283 
L 128.472549 199.701991 
L 122.580494 207.949565 
L 117.004044 214.730301 
L 111.804441 220.373859 
L 107.03879 225.122155 
L 102.759428 229.10429 
L 99.013352 232.133071 
L 95.841704 234.218957 
L 93.279314 235.624341 
L 89.493877 237.285649 
L 90.341864 233.239763 
L 93.861137 217.728185 
L 96.578747 206.824495 
L 99.897521 194.777299 
L 103.781012 182.354334 
L 108.186571 170.223687 
L 113.065813 158.870372 
L 118.365154 148.801838 
L 124.026394 140.311384 
L 129.987359 133.661605 
L 136.182586 128.082497 
L 142.544035 123.295613 
L 149.001843 117.488268 
L 155.485089 108.734231 
L 168.243592 87.527496 
L 174.37873 78.572297 
L 180.26061 70.962374 
L 185.26823 65.297201 
L 190.453291 60.051613 
L 195.202446 55.671726 
L 199.463538 52.018793 
L 206.340221 46.540525 
L 212.594529 41.892336 
L 212.485279 42.326638 
L 210.241819 52.454977 
L 208.132247 61.366907 
L 205.392612 72.113921 
L 202.053004 83.930149 
L 198.150097 96.048715 
L 193.726756 107.818407 
L 188.831558 118.794934 
L 183.518265 128.367164 
L 177.845228 136.272772 
L 171.874751 142.487984 
L 165.672404 147.859962 
L 159.306302 152.396181 
L 152.84636 158.097575 
L 146.363523 167.150073 
L 139.928988 178.410063 
L 133.613421 189.110874 
L 127.486181 198.216381 
L 121.61456 205.920908 
L 116.063042 212.21634 
L 110.892596 217.421466 
L 106.160004 221.753256 
L 101.917241 225.365573 
L 95.081696 230.79547 
L 89.466625 234.912636 
L 88.920995 235.266104 
L 89.05452 234.883533 
L 91.345722 224.508411 
L 93.478238 215.490447 
L 96.239858 204.651579 
L 99.600254 192.770157 
L 103.522521 180.600599 
L 107.963583 168.775568 
L 112.874668 157.738228 
L 118.201839 148.09471 
L 123.886593 140.127546 
L 129.866497 133.853449 
L 136.075879 128.460011 
L 142.446545 123.96999 
L 148.90853 118.367009 
L 156.405486 108.022488 
L 164.246627 94.941849 
L 171.939672 83.137682 
L 179.400132 73.228833 
L 186.546077 65.139404 
L 193.299025 58.537569 
L 199.584815 53.059041 
L 205.334413 48.446338 
L 210.484676 44.546605 
L 214.979042 41.370062 
L 218.768152 39.048254 
L 221.810393 37.486388 
L 225.529195 35.983626 
L 226.164915 35.760455 
L 224.954159 41.164103 
L 223.120981 48.948012 
L 220.493129 59.441609 
L 217.099465 71.787155 
L 212.977258 84.989579 
L 208.171779 98.112042 
L 202.735804 110.440329 
L 196.729033 121.370998 
L 190.217433 130.616399 
L 183.272518 138.504715 
L 175.970558 144.448244 
L 168.391746 149.568592 
L 160.619315 153.897333 
L 152.738624 159.676917 
L 144.836221 169.995299 
L 136.998894 182.691081 
L 129.312713 194.147254 
L 121.862092 203.810752 
L 114.728855 211.696282 
L 107.991342 218.150491 
L 101.723547 223.529815 
L 95.994303 228.077711 
L 90.866532 231.930834 
L 86.396549 235.068253 
L 82.633443 237.29484 
L 79.618544 238.790706 
L 75.957224 240.240668 
L 75.351013 240.450884 
L 76.620706 234.751162 
L 78.482664 226.821546 
L 81.138414 216.206557 
L 84.558789 203.779841 
L 88.706224 190.54582 
L 93.535172 177.437209 
L 98.9926 165.177866 
L 105.018572 154.345735 
L 111.546909 144.888109 
L 118.505915 137.460543 
L 125.819164 131.573489 
L 133.40634 126.633313 
L 141.184117 122.23826 
L 148.278782 117.163927 
L 156.180353 108.071682 
L 164.013758 96.528736 
L 171.692966 85.481709 
L 179.133643 76.146908 
L 186.254072 68.363404 
L 192.976055 62.078845 
L 199.225769 56.878064 
L 204.934578 52.540363 
L 210.039785 48.910661 
L 218.222371 43.46214 
L 225.390366 38.978103 
L 224.061755 44.750819 
L 222.171042 52.701857 
L 219.487431 63.249532 
L 216.040395 75.546333 
L 211.867789 88.555563 
L 207.015439 101.341319 
L 201.536635 113.231975 
L 195.491547 123.608171 
L 188.946564 132.53649 
L 181.973565 139.329649 
L 174.649129 144.947491 
L 167.053696 149.666899 
L 159.270682 153.960718 
L 151.385562 160.305904 
L 143.484932 171.035257 
L 135.655561 183.24727 
L 127.983432 194.067232 
L 120.552804 203.178207 
L 113.445282 210.553574 
L 106.738923 216.560518 
L 100.507378 221.541377 
L 94.819085 225.721323 
L 89.736513 229.231047 
L 81.604544 234.514967 
L 76.685396 237.534812 
L 74.768757 238.58188 
L 76.156269 232.6067 
L 78.07571 224.573066 
L 80.787144 213.971001 
L 84.260794 201.664788 
L 88.458512 188.660953 
L 93.334195 175.883173 
L 98.834299 163.982447 
L 104.898418 153.564157 
L 111.459956 144.556182 
L 118.446851 137.637819 
L 125.78237 132.003727 
L 133.385953 127.225242 
L 141.174096 123.067954 
L 149.061265 117.481145 
L 158.177884 106.073707 
L 167.409895 92.249149 
L 176.452804 80.22703 
L 185.207297 70.323255 
L 192.740237 63.236682 
L 200.63369 56.742394 
L 207.963974 51.324357 
L 214.650584 46.749496 
L 220.620088 42.884048 
L 225.806925 39.681222 
L 230.154132 37.204339 
L 233.613967 35.4865 
L 237.729695 33.883486 
L 238.340388 33.682056 
L 236.63397 40.987956 
L 234.3356 50.277325 
L 231.103936 62.344755 
L 226.974469 76.02428 
L 221.992549 90.097794 
L 216.21289 103.500945 
L 209.698967 115.552975 
L 202.522316 125.801343 
L 194.761754 134.116399 
L 186.50251 140.489948 
L 177.835291 146.468049 
L 168.855281 151.027697 
L 159.661102 155.269806 
L 150.353728 162.43486 
L 141.035376 174.828955 
L 131.808381 187.955812 
L 122.774079 199.139666 
L 114.031686 208.348912 
L 105.677215 215.684518 
L 97.802417 221.767987 
L 90.493775 226.910367 
L 83.831555 231.285259 
L 77.888925 235.010154 
L 72.731147 238.055667 
L 68.414866 240.284644 
L 64.987485 241.771569 
L 60.363967 243.319972 
L 62.139827 235.752659 
L 64.472025 226.393499 
L 67.736425 214.312423 
L 71.897175 200.679777 
L 76.908581 186.712185 
L 82.715607 173.462942 
L 89.254477 161.676338 
L 95.73349 152.549131 
L 103.513364 143.514551 
L 111.78877 136.948515 
L 120.468823 130.992803 
L 129.458197 126.370324 
L 138.658168 122.267327 
L 147.967698 116.738513 
L 157.284548 106.934149 
L 166.506396 94.523322 
L 175.531965 83.057949 
L 184.262134 73.502573 
L 192.601026 65.668729 
L 200.457059 59.450227 
L 207.743957 54.270253 
L 214.381692 49.903714 
L 220.297367 46.250257 
L 229.711308 40.769576 
L 237.085753 36.748733 
L 237.626736 36.480608 
L 233.415465 53.680487 
L 230.118376 65.753823 
L 225.926401 79.272933 
L 220.885578 93.011026 
L 215.051267 105.955024 
L 209.143915 116.461532 
L 201.922861 126.751151 
L 194.123783 134.699205 
L 194.123783 134.699205 
" clip-path="url(#pf6340ca66b)" style="fill: none; stroke: #0000ff; stroke-width: 1.2; stroke-linecap: square"/>
   </g>
   <g id="line2d_25">
    <path d="M 49.432813 138.222359 
L 272.522812 138.222359 
" clip-path="url(#pf6340ca66b)" style="fill: none; stroke: #000000; stroke-width: 0.4; stroke-linecap: square"/>
   </g>
   <g id="line2d_26">
    <path d="M 150.843533 256.40375 
L 150.843533 20.14375 
" clip-path="url(#pf6340ca66b)" style="fill: none; stroke: #000000; stroke-width: 0.4; stroke-linecap: square"/>
   </g>
   <g id="patch_3">
    <path d="M 49.432813 256.40375 
L 49.432813 20.14375 
" style="fill: none; stroke: #000000; stroke-width: 0.8; stroke-linejoin: miter; stroke-linecap: square"/>
   </g>
   <g id="patch_4">
    <path d="M 272.522812 256.40375 
L 272.522812 20.14375 
" style="fill: none; stroke: #000000; stroke-width: 0.8; stroke-linejoin: miter; stroke-linecap: square"/>
   </g>
   <g id="patch_5">
    <path d="M 49.432813 256.40375 
L 272.522812 256.40375 
" style="fill: none; stroke: #000000; stroke-width: 0.8; stroke-linejoin: miter; stroke-linecap: square"/>
   </g>
   <g id="patch_6">
    <path d="M 49.432813 20.14375 
L 272.522812 20.14375 
" style="fill: none; stroke: #000000; stroke-width: 0.8; stroke-linejoin: miter; stroke-linecap: square"/>
   </g>
   <g id="text_14">
    <!-- Specimen : Hube_W1 -->
    <g transform="translate(116.821562 14.14375) scale(0.1 -0.1)">
     <defs>
      <path id="TimesNewRomanPSMT-3a" d="M 903 2950 
Q 1047 2950 1148 2848 
Q 1250 2747 1250 2603 
Q 1250 2459 1148 2357 
Q 1047 2256 903 2256 
Q 759 2256 657 2357 
Q 556 2459 556 2603 
Q 556 2747 657 2848 
Q 759 2950 903 2950 
z
M 897 609 
Q 1044 609 1145 506 
Q 1247 403 1247 259 
Q 1247 116 1144 14 
Q 1041 -88 897 -88 
Q 753 -88 651 14 
Q 550 116 550 259 
Q 550 403 651 506 
Q 753 609 897 609 
z
" transform="scale(0.015625)"/>
      <path id="TimesNewRomanPSMT-48" d="M 1316 2272 
L 3284 2272 
L 3284 3484 
Q 3284 3809 3244 3913 
Q 3213 3991 3113 4047 
Q 2978 4122 2828 4122 
L 2678 4122 
L 2678 4238 
L 4491 4238 
L 4491 4122 
L 4341 4122 
Q 4191 4122 4056 4050 
Q 3956 4000 3920 3898 
Q 3884 3797 3884 3484 
L 3884 750 
Q 3884 428 3925 325 
Q 3956 247 4053 191 
Q 4191 116 4341 116 
L 4491 116 
L 4491 0 
L 2678 0 
L 2678 116 
L 2828 116 
Q 3088 116 3206 269 
Q 3284 369 3284 750 
L 3284 2041 
L 1316 2041 
L 1316 750 
Q 1316 428 1356 325 
Q 1388 247 1488 191 
Q 1622 116 1772 116 
L 1925 116 
L 1925 0 
L 109 0 
L 109 116 
L 259 116 
Q 522 116 641 269 
Q 716 369 716 750 
L 716 3484 
Q 716 3809 675 3913 
Q 644 3991 547 4047 
Q 409 4122 259 4122 
L 109 4122 
L 109 4238 
L 1925 4238 
L 1925 4122 
L 1772 4122 
Q 1622 4122 1488 4050 
Q 1391 4000 1353 3898 
Q 1316 3797 1316 3484 
L 1316 2272 
z
" transform="scale(0.015625)"/>
      <path id="TimesNewRomanPSMT-75" d="M 2709 2863 
L 2709 1128 
Q 2709 631 2732 520 
Q 2756 409 2807 365 
Q 2859 322 2928 322 
Q 3025 322 3147 375 
L 3191 266 
L 2334 -88 
L 2194 -88 
L 2194 519 
Q 1825 119 1631 15 
Q 1438 -88 1222 -88 
Q 981 -88 804 51 
Q 628 191 559 409 
Q 491 628 491 1028 
L 491 2306 
Q 491 2509 447 2587 
Q 403 2666 317 2708 
Q 231 2750 6 2747 
L 6 2863 
L 1009 2863 
L 1009 947 
Q 1009 547 1148 422 
Q 1288 297 1484 297 
Q 1619 297 1789 381 
Q 1959 466 2194 703 
L 2194 2325 
Q 2194 2569 2105 2655 
Q 2016 2741 1734 2747 
L 1734 2863 
L 2709 2863 
z
" transform="scale(0.015625)"/>
      <path id="TimesNewRomanPSMT-62" d="M 984 2369 
Q 1400 2947 1881 2947 
Q 2322 2947 2650 2570 
Q 2978 2194 2978 1541 
Q 2978 778 2472 313 
Q 2038 -88 1503 -88 
Q 1253 -88 995 3 
Q 738 94 469 275 
L 469 3241 
Q 469 3728 445 3840 
Q 422 3953 372 3993 
Q 322 4034 247 4034 
Q 159 4034 28 3984 
L -16 4094 
L 844 4444 
L 984 4444 
L 984 2369 
z
M 984 2169 
L 984 456 
Q 1144 300 1314 220 
Q 1484 141 1663 141 
Q 1947 141 2192 453 
Q 2438 766 2438 1363 
Q 2438 1913 2192 2208 
Q 1947 2503 1634 2503 
Q 1469 2503 1303 2419 
Q 1178 2356 984 2169 
z
" transform="scale(0.015625)"/>
      <path id="TimesNewRomanPSMT-5f" d="M 3256 -1381 
L -53 -1381 
L -53 -1119 
L 3256 -1119 
L 3256 -1381 
z
" transform="scale(0.015625)"/>
      <path id="TimesNewRomanPSMT-57" d="M 5991 4238 
L 5991 4122 
Q 5825 4122 5722 4062 
Q 5619 4003 5525 3841 
Q 5463 3731 5328 3319 
L 4147 -97 
L 4022 -97 
L 3056 2613 
L 2097 -97 
L 1984 -97 
L 725 3422 
Q 584 3816 547 3888 
Q 484 4006 376 4064 
Q 269 4122 84 4122 
L 84 4238 
L 1653 4238 
L 1653 4122 
L 1578 4122 
Q 1413 4122 1325 4047 
Q 1238 3972 1238 3866 
Q 1238 3756 1375 3363 
L 2209 984 
L 2913 3006 
L 2788 3363 
L 2688 3647 
Q 2622 3803 2541 3922 
Q 2500 3981 2441 4022 
Q 2363 4078 2284 4103 
Q 2225 4122 2097 4122 
L 2097 4238 
L 3747 4238 
L 3747 4122 
L 3634 4122 
Q 3459 4122 3378 4047 
Q 3297 3972 3297 3844 
Q 3297 3684 3438 3288 
L 4250 984 
L 5056 3319 
Q 5194 3706 5194 3856 
Q 5194 3928 5148 3990 
Q 5103 4053 5034 4078 
Q 4916 4122 4725 4122 
L 4725 4238 
L 5991 4238 
z
" transform="scale(0.015625)"/>
      <path id="TimesNewRomanPSMT-31" d="M 750 3822 
L 1781 4325 
L 1884 4325 
L 1884 747 
Q 1884 391 1914 303 
Q 1944 216 2037 169 
Q 2131 122 2419 116 
L 2419 0 
L 825 0 
L 825 116 
Q 1125 122 1212 167 
Q 1300 213 1334 289 
Q 1369 366 1369 747 
L 1369 3034 
Q 1369 3497 1338 3628 
Q 1316 3728 1258 3775 
Q 1200 3822 1119 3822 
Q 1003 3822 797 3725 
L 750 3822 
z
" transform="scale(0.015625)"/>
     </defs>
     <use xlink:href="#TimesNewRomanPSMT-53"/>
     <use xlink:href="#TimesNewRomanPSMT-70" x="55.615234"/>
     <use xlink:href="#TimesNewRomanPSMT-65" x="105.615234"/>
     <use xlink:href="#TimesNewRomanPSMT-63" x="150"/>
     <use xlink:href="#TimesNewRomanPSMT-69" x="194.384766"/>
     <use xlink:href="#TimesNewRomanPSMT-6d" x="222.167969"/>
     <use xlink:href="#TimesNewRomanPSMT-65" x="299.951172"/>
     <use xlink:href="#TimesNewRomanPSMT-6e" x="344.335938"/>
     <use xlink:href="#TimesNewRomanPSMT-20" x="394.335938"/>
     <use xlink:href="#TimesNewRomanPSMT-3a" x="419.335938"/>
     <use xlink:href="#TimesNewRomanPSMT-20" x="447.119141"/>
     <use xlink:href="#TimesNewRomanPSMT-48" x="472.119141"/>
     <use xlink:href="#TimesNewRomanPSMT-75" x="544.335938"/>
     <use xlink:href="#TimesNewRomanPSMT-62" x="594.335938"/>
     <use xlink:href="#TimesNewRomanPSMT-65" x="644.335938"/>
     <use xlink:href="#TimesNewRomanPSMT-5f" x="688.720703"/>
     <use xlink:href="#TimesNewRomanPSMT-57" x="738.720703"/>
     <use xlink:href="#TimesNewRomanPSMT-31" x="833.105469"/>
    </g>
   </g>
   <g id="legend_1">
    <g id="patch_7">
     <path d="M 55.263813 50.363428 
L 142.486722 50.363428 
Q 144.152722 50.363428 144.152722 48.697428 
L 144.152722 25.97475 
Q 144.152722 24.30875 142.486722 24.30875 
L 55.263813 24.30875 
Q 53.597813 24.30875 53.597813 25.97475 
L 53.597813 48.697428 
Q 53.597813 50.363428 55.263813 50.363428 
z
" style="fill: #ffffff; opacity: 0.8; stroke: #cccccc; stroke-linejoin: miter"/>
    </g>
    <g id="line2d_27">
     <path d="M 56.929813 30.55625 
L 65.259813 30.55625 
L 73.589813 30.55625 
" style="fill: none; stroke-dasharray: 3.7,1.6; stroke-dashoffset: 0; stroke: #000000"/>
    </g>
    <g id="text_15">
     <!-- Experimental Test -->
     <g transform="translate(80.253813 33.47175) scale(0.0833 -0.0833)">
      <defs>
       <path id="TimesNewRomanPSMT-45" d="M 1338 4006 
L 1338 2331 
L 2269 2331 
Q 2631 2331 2753 2441 
Q 2916 2584 2934 2947 
L 3050 2947 
L 3050 1472 
L 2934 1472 
Q 2891 1781 2847 1869 
Q 2791 1978 2662 2040 
Q 2534 2103 2269 2103 
L 1338 2103 
L 1338 706 
Q 1338 425 1363 364 
Q 1388 303 1450 267 
Q 1513 231 1688 231 
L 2406 231 
Q 2766 231 2928 281 
Q 3091 331 3241 478 
Q 3434 672 3638 1063 
L 3763 1063 
L 3397 0 
L 131 0 
L 131 116 
L 281 116 
Q 431 116 566 188 
Q 666 238 702 338 
Q 738 438 738 747 
L 738 3500 
Q 738 3903 656 3997 
Q 544 4122 281 4122 
L 131 4122 
L 131 4238 
L 3397 4238 
L 3444 3309 
L 3322 3309 
Q 3256 3644 3176 3769 
Q 3097 3894 2941 3959 
Q 2816 4006 2500 4006 
L 1338 4006 
z
" transform="scale(0.015625)"/>
       <path id="TimesNewRomanPSMT-78" d="M 84 2863 
L 1431 2863 
L 1431 2747 
Q 1303 2747 1251 2703 
Q 1200 2659 1200 2588 
Q 1200 2513 1309 2356 
Q 1344 2306 1413 2200 
L 1616 1875 
L 1850 2200 
Q 2075 2509 2075 2591 
Q 2075 2656 2022 2701 
Q 1969 2747 1850 2747 
L 1850 2863 
L 2819 2863 
L 2819 2747 
Q 2666 2738 2553 2663 
Q 2400 2556 2134 2200 
L 1744 1678 
L 2456 653 
Q 2719 275 2831 198 
Q 2944 122 3122 113 
L 3122 0 
L 1772 0 
L 1772 113 
Q 1913 113 1991 175 
Q 2050 219 2050 291 
Q 2050 363 1850 653 
L 1431 1266 
L 972 653 
Q 759 369 759 316 
Q 759 241 829 180 
Q 900 119 1041 113 
L 1041 0 
L 106 0 
L 106 113 
Q 219 128 303 191 
Q 422 281 703 653 
L 1303 1450 
L 759 2238 
Q 528 2575 401 2661 
Q 275 2747 84 2747 
L 84 2863 
z
" transform="scale(0.015625)"/>
       <path id="TimesNewRomanPSMT-54" d="M 3703 4238 
L 3750 3244 
L 3631 3244 
Q 3597 3506 3538 3619 
Q 3441 3800 3280 3886 
Q 3119 3972 2856 3972 
L 2259 3972 
L 2259 734 
Q 2259 344 2344 247 
Q 2463 116 2709 116 
L 2856 116 
L 2856 0 
L 1059 0 
L 1059 116 
L 1209 116 
Q 1478 116 1591 278 
Q 1659 378 1659 734 
L 1659 3972 
L 1150 3972 
Q 853 3972 728 3928 
Q 566 3869 450 3700 
Q 334 3531 313 3244 
L 194 3244 
L 244 4238 
L 3703 4238 
z
" transform="scale(0.015625)"/>
      </defs>
      <use xlink:href="#TimesNewRomanPSMT-45"/>
      <use xlink:href="#TimesNewRomanPSMT-78" x="61.083984"/>
      <use xlink:href="#TimesNewRomanPSMT-70" x="111.083984"/>
      <use xlink:href="#TimesNewRomanPSMT-65" x="161.083984"/>
      <use xlink:href="#TimesNewRomanPSMT-72" x="205.46875"/>
      <use xlink:href="#TimesNewRomanPSMT-69" x="238.769531"/>
      <use xlink:href="#TimesNewRomanPSMT-6d" x="266.552734"/>
      <use xlink:href="#TimesNewRomanPSMT-65" x="344.335938"/>
      <use xlink:href="#TimesNewRomanPSMT-6e" x="388.720703"/>
      <use xlink:href="#TimesNewRomanPSMT-74" x="438.720703"/>
      <use xlink:href="#TimesNewRomanPSMT-61" x="466.503906"/>
      <use xlink:href="#TimesNewRomanPSMT-6c" x="510.888672"/>
      <use xlink:href="#TimesNewRomanPSMT-20" x="538.671875"/>
      <use xlink:href="#TimesNewRomanPSMT-54" x="561.921875"/>
      <use xlink:href="#TimesNewRomanPSMT-65" x="616.005859"/>
      <use xlink:href="#TimesNewRomanPSMT-73" x="660.390625"/>
      <use xlink:href="#TimesNewRomanPSMT-74" x="699.306641"/>
     </g>
    </g>
    <g id="line2d_28">
     <path d="M 56.929813 42.334089 
L 65.259813 42.334089 
L 73.589813 42.334089 
" style="fill: none; stroke: #0000ff; stroke-width: 1.2; stroke-linecap: square"/>
    </g>
    <g id="text_16">
     <!-- Numerical Test -->
     <g transform="translate(80.253813 45.249589) scale(0.0833 -0.0833)">
      <use xlink:href="#TimesNewRomanPSMT-4e"/>
      <use xlink:href="#TimesNewRomanPSMT-75" x="72.216797"/>
      <use xlink:href="#TimesNewRomanPSMT-6d" x="122.216797"/>
      <use xlink:href="#TimesNewRomanPSMT-65" x="200"/>
      <use xlink:href="#TimesNewRomanPSMT-72" x="244.384766"/>
      <use xlink:href="#TimesNewRomanPSMT-69" x="277.685547"/>
      <use xlink:href="#TimesNewRomanPSMT-63" x="305.46875"/>
      <use xlink:href="#TimesNewRomanPSMT-61" x="349.853516"/>
      <use xlink:href="#TimesNewRomanPSMT-6c" x="394.238281"/>
      <use xlink:href="#TimesNewRomanPSMT-20" x="422.021484"/>
      <use xlink:href="#TimesNewRomanPSMT-54" x="445.271484"/>
      <use xlink:href="#TimesNewRomanPSMT-65" x="499.355469"/>
      <use xlink:href="#TimesNewRomanPSMT-73" x="543.740234"/>
      <use xlink:href="#TimesNewRomanPSMT-74" x="582.65625"/>
     </g>
    </g>
   </g>
  </g>
 </g>
 <defs>
  <clipPath id="pf6340ca66b">
   <rect x="49.432813" y="20.14375" width="223.09" height="236.26"/>
  </clipPath>
 </defs>
</svg>
