<?xml version="1.0" encoding="utf-8" standalone="no"?>
<!DOCTYPE svg PUBLIC "-//W3C//DTD SVG 1.1//EN"
  "http://www.w3.org/Graphics/SVG/1.1/DTD/svg11.dtd">
<svg xmlns:xlink="http://www.w3.org/1999/xlink" width="279.882459pt" height="292.774063pt" viewBox="0 0 279.882459 292.774063" xmlns="http://www.w3.org/2000/svg" version="1.1">
 <metadata>
  <rdf:RDF xmlns:dc="http://purl.org/dc/elements/1.1/" xmlns:cc="http://creativecommons.org/ns#" xmlns:rdf="http://www.w3.org/1999/02/22-rdf-syntax-ns#">
   <cc:Work>
    <dc:type rdf:resource="http://purl.org/dc/dcmitype/StillImage"/>
    <dc:date>2024-09-19T20:20:19.972181</dc:date>
    <dc:format>image/svg+xml</dc:format>
    <dc:creator>
     <cc:Agent>
      <dc:title>Matplotlib v3.8.0, https://matplotlib.org/</dc:title>
     </cc:Agent>
    </dc:creator>
   </cc:Work>
  </rdf:RDF>
 </metadata>
 <defs>
  <style type="text/css">*{stroke-linejoin: round; stroke-linecap: butt}</style>
 </defs>
 <g id="figure_1">
  <g id="patch_1">
   <path d="M 0 292.774063 
L 279.882459 292.774063 
L 279.882459 0 
L 0 0 
z
" style="fill: #ffffff"/>
  </g>
  <g id="axes_1">
   <g id="patch_2">
    <path d="M 49.432813 256.40375 
L 265.737574 256.40375 
L 265.737574 20.14375 
L 49.432813 20.14375 
z
" style="fill: #ffffff"/>
   </g>
   <g id="matplotlib.axis_1">
    <g id="xtick_1">
     <g id="line2d_1">
      <path d="M 51.402154 256.40375 
L 51.402154 20.14375 
" clip-path="url(#p4f4ef029f6)" style="fill: none; stroke-dasharray: 0.8,1.32; stroke-dashoffset: 0; stroke: #b0b0b0; stroke-width: 0.8"/>
     </g>
     <g id="line2d_2">
      <defs>
       <path id="m78316be10d" d="M 0 0 
L 0 3.5 
" style="stroke: #000000; stroke-width: 0.8"/>
      </defs>
      <g>
       <use xlink:href="#m78316be10d" x="51.402154" y="256.40375" style="stroke: #000000; stroke-width: 0.8"/>
      </g>
     </g>
     <g id="text_1">
      <!-- −100 -->
      <g transform="translate(40.327154 270.39125) scale(0.1 -0.1)">
       <defs>
        <path id="Cambria-2212" d="M 397 1613 
L 397 2047 
L 3147 2047 
L 3147 1613 
L 397 1613 
z
" transform="scale(0.015625)"/>
        <path id="Cambria-31" d="M 2172 816 
Q 2172 634 2192 542 
Q 2213 450 2264 392 
Q 2316 334 2412 301 
Q 2509 269 2656 251 
Q 2803 234 3044 228 
L 3044 0 
L 734 0 
L 734 228 
Q 1081 244 1229 270 
Q 1378 297 1456 350 
Q 1534 403 1570 500 
Q 1606 597 1606 816 
L 1606 3350 
Q 1606 3475 1562 3533 
Q 1519 3591 1434 3591 
Q 1334 3591 1150 3487 
Q 966 3384 694 3203 
L 556 3444 
L 2019 4316 
L 2191 4316 
Q 2172 4016 2172 3484 
L 2172 816 
z
" transform="scale(0.015625)"/>
        <path id="Cambria-30" d="M 1738 -50 
Q 1063 -50 733 481 
Q 403 1013 403 2094 
Q 403 2669 504 3087 
Q 606 3506 789 3779 
Q 972 4053 1228 4184 
Q 1484 4316 1788 4316 
Q 2472 4316 2806 3787 
Q 3141 3259 3141 2191 
Q 3141 1084 2783 517 
Q 2425 -50 1738 -50 
z
M 1013 2188 
Q 1013 1169 1202 692 
Q 1391 216 1788 216 
Q 2166 216 2348 664 
Q 2531 1113 2531 2053 
Q 2531 2772 2437 3217 
Q 2344 3663 2176 3856 
Q 2009 4050 1772 4050 
Q 1556 4050 1411 3922 
Q 1266 3794 1177 3553 
Q 1088 3313 1050 2967 
Q 1013 2622 1013 2188 
z
" transform="scale(0.015625)"/>
       </defs>
       <use xlink:href="#Cambria-2212"/>
       <use xlink:href="#Cambria-31" x="55.371094"/>
       <use xlink:href="#Cambria-30" x="110.742188"/>
       <use xlink:href="#Cambria-30" x="166.113281"/>
      </g>
     </g>
    </g>
    <g id="xtick_2">
     <g id="line2d_3">
      <path d="M 104.645668 256.40375 
L 104.645668 20.14375 
" clip-path="url(#p4f4ef029f6)" style="fill: none; stroke-dasharray: 0.8,1.32; stroke-dashoffset: 0; stroke: #b0b0b0; stroke-width: 0.8"/>
     </g>
     <g id="line2d_4">
      <g>
       <use xlink:href="#m78316be10d" x="104.645668" y="256.40375" style="stroke: #000000; stroke-width: 0.8"/>
      </g>
     </g>
     <g id="text_2">
      <!-- −50 -->
      <g transform="translate(96.339418 270.39125) scale(0.1 -0.1)">
       <defs>
        <path id="Cambria-35" d="M 469 172 
L 469 834 
L 847 834 
Q 941 516 1130 366 
Q 1319 216 1619 216 
Q 2034 216 2246 466 
Q 2459 716 2459 1213 
Q 2459 1544 2346 1761 
Q 2234 1978 2043 2075 
Q 1853 2172 1600 2172 
Q 1388 2172 1234 2145 
Q 1081 2119 906 2063 
L 656 2209 
L 656 4266 
L 2378 4266 
Q 2484 4266 2531 4283 
Q 2578 4300 2606 4336 
Q 2634 4372 2672 4472 
L 2916 4472 
L 2869 3747 
L 1072 3747 
L 1072 2375 
Q 1234 2444 1425 2478 
Q 1616 2513 1806 2513 
Q 2178 2513 2465 2361 
Q 2753 2209 2909 1929 
Q 3066 1650 3066 1281 
Q 3066 863 2891 563 
Q 2716 263 2384 106 
Q 2053 -50 1600 -50 
Q 1059 -50 469 172 
z
" transform="scale(0.015625)"/>
       </defs>
       <use xlink:href="#Cambria-2212"/>
       <use xlink:href="#Cambria-35" x="55.371094"/>
       <use xlink:href="#Cambria-30" x="110.742188"/>
      </g>
     </g>
    </g>
    <g id="xtick_3">
     <g id="line2d_5">
      <path d="M 157.889182 256.40375 
L 157.889182 20.14375 
" clip-path="url(#p4f4ef029f6)" style="fill: none; stroke-dasharray: 0.8,1.32; stroke-dashoffset: 0; stroke: #b0b0b0; stroke-width: 0.8"/>
     </g>
     <g id="line2d_6">
      <g>
       <use xlink:href="#m78316be10d" x="157.889182" y="256.40375" style="stroke: #000000; stroke-width: 0.8"/>
      </g>
     </g>
     <g id="text_3">
      <!-- 0 -->
      <g transform="translate(155.120432 270.39125) scale(0.1 -0.1)">
       <use xlink:href="#Cambria-30"/>
      </g>
     </g>
    </g>
    <g id="xtick_4">
     <g id="line2d_7">
      <path d="M 211.132695 256.40375 
L 211.132695 20.14375 
" clip-path="url(#p4f4ef029f6)" style="fill: none; stroke-dasharray: 0.8,1.32; stroke-dashoffset: 0; stroke: #b0b0b0; stroke-width: 0.8"/>
     </g>
     <g id="line2d_8">
      <g>
       <use xlink:href="#m78316be10d" x="211.132695" y="256.40375" style="stroke: #000000; stroke-width: 0.8"/>
      </g>
     </g>
     <g id="text_4">
      <!-- 50 -->
      <g transform="translate(205.595195 270.39125) scale(0.1 -0.1)">
       <use xlink:href="#Cambria-35"/>
       <use xlink:href="#Cambria-30" x="55.371094"/>
      </g>
     </g>
    </g>
    <g id="xtick_5">
     <g id="line2d_9">
      <path d="M 264.376209 256.40375 
L 264.376209 20.14375 
" clip-path="url(#p4f4ef029f6)" style="fill: none; stroke-dasharray: 0.8,1.32; stroke-dashoffset: 0; stroke: #b0b0b0; stroke-width: 0.8"/>
     </g>
     <g id="line2d_10">
      <g>
       <use xlink:href="#m78316be10d" x="264.376209" y="256.40375" style="stroke: #000000; stroke-width: 0.8"/>
      </g>
     </g>
     <g id="text_5">
      <!-- 100 -->
      <g transform="translate(256.069959 270.39125) scale(0.1 -0.1)">
       <use xlink:href="#Cambria-31"/>
       <use xlink:href="#Cambria-30" x="55.371094"/>
       <use xlink:href="#Cambria-30" x="110.742188"/>
      </g>
     </g>
    </g>
    <g id="text_6">
     <!-- Displacement (mm) -->
     <g transform="translate(117.735974 283.435) scale(0.1 -0.1)">
      <defs>
       <path id="TimesNewRomanPSMT-44" d="M 109 0 
L 109 116 
L 269 116 
Q 538 116 650 288 
Q 719 391 719 750 
L 719 3488 
Q 719 3884 631 3984 
Q 509 4122 269 4122 
L 109 4122 
L 109 4238 
L 1834 4238 
Q 2784 4238 3279 4022 
Q 3775 3806 4076 3303 
Q 4378 2800 4378 2141 
Q 4378 1256 3841 663 
Q 3238 0 2003 0 
L 109 0 
z
M 1319 306 
Q 1716 219 1984 219 
Q 2709 219 3187 728 
Q 3666 1238 3666 2109 
Q 3666 2988 3187 3494 
Q 2709 4000 1959 4000 
Q 1678 4000 1319 3909 
L 1319 306 
z
" transform="scale(0.015625)"/>
       <path id="TimesNewRomanPSMT-69" d="M 928 4444 
Q 1059 4444 1151 4351 
Q 1244 4259 1244 4128 
Q 1244 3997 1151 3903 
Q 1059 3809 928 3809 
Q 797 3809 703 3903 
Q 609 3997 609 4128 
Q 609 4259 701 4351 
Q 794 4444 928 4444 
z
M 1188 2947 
L 1188 647 
Q 1188 378 1227 289 
Q 1266 200 1342 156 
Q 1419 113 1622 113 
L 1622 0 
L 231 0 
L 231 113 
Q 441 113 512 153 
Q 584 194 626 287 
Q 669 381 669 647 
L 669 1750 
Q 669 2216 641 2353 
Q 619 2453 572 2492 
Q 525 2531 444 2531 
Q 356 2531 231 2484 
L 188 2597 
L 1050 2947 
L 1188 2947 
z
" transform="scale(0.015625)"/>
       <path id="TimesNewRomanPSMT-73" d="M 2050 2947 
L 2050 1972 
L 1947 1972 
Q 1828 2431 1642 2597 
Q 1456 2763 1169 2763 
Q 950 2763 815 2647 
Q 681 2531 681 2391 
Q 681 2216 781 2091 
Q 878 1963 1175 1819 
L 1631 1597 
Q 2266 1288 2266 781 
Q 2266 391 1970 151 
Q 1675 -88 1309 -88 
Q 1047 -88 709 6 
Q 606 38 541 38 
Q 469 38 428 -44 
L 325 -44 
L 325 978 
L 428 978 
Q 516 541 762 319 
Q 1009 97 1316 97 
Q 1531 97 1667 223 
Q 1803 350 1803 528 
Q 1803 744 1651 891 
Q 1500 1038 1047 1263 
Q 594 1488 453 1669 
Q 313 1847 313 2119 
Q 313 2472 555 2709 
Q 797 2947 1181 2947 
Q 1350 2947 1591 2875 
Q 1750 2828 1803 2828 
Q 1853 2828 1881 2850 
Q 1909 2872 1947 2947 
L 2050 2947 
z
" transform="scale(0.015625)"/>
       <path id="TimesNewRomanPSMT-70" d="M -6 2578 
L 875 2934 
L 994 2934 
L 994 2266 
Q 1216 2644 1439 2795 
Q 1663 2947 1909 2947 
Q 2341 2947 2628 2609 
Q 2981 2197 2981 1534 
Q 2981 794 2556 309 
Q 2206 -88 1675 -88 
Q 1444 -88 1275 -22 
Q 1150 25 994 166 
L 994 -706 
Q 994 -1000 1030 -1079 
Q 1066 -1159 1155 -1206 
Q 1244 -1253 1478 -1253 
L 1478 -1369 
L -22 -1369 
L -22 -1253 
L 56 -1253 
Q 228 -1256 350 -1188 
Q 409 -1153 442 -1076 
Q 475 -1000 475 -688 
L 475 2019 
Q 475 2297 450 2372 
Q 425 2447 370 2484 
Q 316 2522 222 2522 
Q 147 2522 31 2478 
L -6 2578 
z
M 994 2081 
L 994 1013 
Q 994 666 1022 556 
Q 1066 375 1236 237 
Q 1406 100 1666 100 
Q 1978 100 2172 344 
Q 2425 663 2425 1241 
Q 2425 1897 2138 2250 
Q 1938 2494 1663 2494 
Q 1513 2494 1366 2419 
Q 1253 2363 994 2081 
z
" transform="scale(0.015625)"/>
       <path id="TimesNewRomanPSMT-6c" d="M 1184 4444 
L 1184 647 
Q 1184 378 1223 290 
Q 1263 203 1344 158 
Q 1425 113 1647 113 
L 1647 0 
L 244 0 
L 244 113 
Q 441 113 512 153 
Q 584 194 625 287 
Q 666 381 666 647 
L 666 3247 
Q 666 3731 644 3842 
Q 622 3953 573 3993 
Q 525 4034 450 4034 
Q 369 4034 244 3984 
L 191 4094 
L 1044 4444 
L 1184 4444 
z
" transform="scale(0.015625)"/>
       <path id="TimesNewRomanPSMT-61" d="M 1822 413 
Q 1381 72 1269 19 
Q 1100 -59 909 -59 
Q 613 -59 420 144 
Q 228 347 228 678 
Q 228 888 322 1041 
Q 450 1253 767 1440 
Q 1084 1628 1822 1897 
L 1822 2009 
Q 1822 2438 1686 2597 
Q 1550 2756 1291 2756 
Q 1094 2756 978 2650 
Q 859 2544 859 2406 
L 866 2225 
Q 866 2081 792 2003 
Q 719 1925 600 1925 
Q 484 1925 411 2006 
Q 338 2088 338 2228 
Q 338 2497 613 2722 
Q 888 2947 1384 2947 
Q 1766 2947 2009 2819 
Q 2194 2722 2281 2516 
Q 2338 2381 2338 1966 
L 2338 994 
Q 2338 584 2353 492 
Q 2369 400 2405 369 
Q 2441 338 2488 338 
Q 2538 338 2575 359 
Q 2641 400 2828 588 
L 2828 413 
Q 2478 -56 2159 -56 
Q 2006 -56 1915 50 
Q 1825 156 1822 413 
z
M 1822 616 
L 1822 1706 
Q 1350 1519 1213 1441 
Q 966 1303 859 1153 
Q 753 1003 753 825 
Q 753 600 887 451 
Q 1022 303 1197 303 
Q 1434 303 1822 616 
z
" transform="scale(0.015625)"/>
       <path id="TimesNewRomanPSMT-63" d="M 2631 1088 
Q 2516 522 2178 217 
Q 1841 -88 1431 -88 
Q 944 -88 581 321 
Q 219 731 219 1428 
Q 219 2103 620 2525 
Q 1022 2947 1584 2947 
Q 2006 2947 2278 2723 
Q 2550 2500 2550 2259 
Q 2550 2141 2473 2067 
Q 2397 1994 2259 1994 
Q 2075 1994 1981 2113 
Q 1928 2178 1911 2362 
Q 1894 2547 1784 2644 
Q 1675 2738 1481 2738 
Q 1169 2738 978 2506 
Q 725 2200 725 1697 
Q 725 1184 976 792 
Q 1228 400 1656 400 
Q 1963 400 2206 609 
Q 2378 753 2541 1131 
L 2631 1088 
z
" transform="scale(0.015625)"/>
       <path id="TimesNewRomanPSMT-65" d="M 681 1784 
Q 678 1147 991 784 
Q 1303 422 1725 422 
Q 2006 422 2214 576 
Q 2422 731 2563 1106 
L 2659 1044 
Q 2594 616 2278 264 
Q 1963 -88 1488 -88 
Q 972 -88 605 314 
Q 238 716 238 1394 
Q 238 2128 614 2539 
Q 991 2950 1559 2950 
Q 2041 2950 2350 2633 
Q 2659 2316 2659 1784 
L 681 1784 
z
M 681 1966 
L 2006 1966 
Q 1991 2241 1941 2353 
Q 1863 2528 1708 2628 
Q 1553 2728 1384 2728 
Q 1125 2728 920 2526 
Q 716 2325 681 1966 
z
" transform="scale(0.015625)"/>
       <path id="TimesNewRomanPSMT-6d" d="M 1050 2338 
Q 1363 2650 1419 2697 
Q 1559 2816 1721 2881 
Q 1884 2947 2044 2947 
Q 2313 2947 2506 2790 
Q 2700 2634 2766 2338 
Q 3088 2713 3309 2830 
Q 3531 2947 3766 2947 
Q 3994 2947 4170 2830 
Q 4347 2713 4450 2447 
Q 4519 2266 4519 1878 
L 4519 647 
Q 4519 378 4559 278 
Q 4591 209 4675 161 
Q 4759 113 4950 113 
L 4950 0 
L 3538 0 
L 3538 113 
L 3597 113 
Q 3781 113 3884 184 
Q 3956 234 3988 344 
Q 4000 397 4000 647 
L 4000 1878 
Q 4000 2228 3916 2372 
Q 3794 2572 3525 2572 
Q 3359 2572 3192 2489 
Q 3025 2406 2788 2181 
L 2781 2147 
L 2788 2013 
L 2788 647 
Q 2788 353 2820 281 
Q 2853 209 2943 161 
Q 3034 113 3253 113 
L 3253 0 
L 1806 0 
L 1806 113 
Q 2044 113 2133 169 
Q 2222 225 2256 338 
Q 2272 391 2272 647 
L 2272 1878 
Q 2272 2228 2169 2381 
Q 2031 2581 1784 2581 
Q 1616 2581 1450 2491 
Q 1191 2353 1050 2181 
L 1050 647 
Q 1050 366 1089 281 
Q 1128 197 1204 155 
Q 1281 113 1516 113 
L 1516 0 
L 100 0 
L 100 113 
Q 297 113 375 155 
Q 453 197 493 289 
Q 534 381 534 647 
L 534 1741 
Q 534 2213 506 2350 
Q 484 2453 437 2492 
Q 391 2531 309 2531 
Q 222 2531 100 2484 
L 53 2597 
L 916 2947 
L 1050 2947 
L 1050 2338 
z
" transform="scale(0.015625)"/>
       <path id="TimesNewRomanPSMT-6e" d="M 1034 2341 
Q 1538 2947 1994 2947 
Q 2228 2947 2397 2830 
Q 2566 2713 2666 2444 
Q 2734 2256 2734 1869 
L 2734 647 
Q 2734 375 2778 278 
Q 2813 200 2889 156 
Q 2966 113 3172 113 
L 3172 0 
L 1756 0 
L 1756 113 
L 1816 113 
Q 2016 113 2095 173 
Q 2175 234 2206 353 
Q 2219 400 2219 647 
L 2219 1819 
Q 2219 2209 2117 2386 
Q 2016 2563 1775 2563 
Q 1403 2563 1034 2156 
L 1034 647 
Q 1034 356 1069 288 
Q 1113 197 1189 155 
Q 1266 113 1500 113 
L 1500 0 
L 84 0 
L 84 113 
L 147 113 
Q 366 113 442 223 
Q 519 334 519 647 
L 519 1709 
Q 519 2225 495 2337 
Q 472 2450 423 2490 
Q 375 2531 294 2531 
Q 206 2531 84 2484 
L 38 2597 
L 900 2947 
L 1034 2947 
L 1034 2341 
z
" transform="scale(0.015625)"/>
       <path id="TimesNewRomanPSMT-74" d="M 1031 3803 
L 1031 2863 
L 1700 2863 
L 1700 2644 
L 1031 2644 
L 1031 788 
Q 1031 509 1111 412 
Q 1191 316 1316 316 
Q 1419 316 1516 380 
Q 1613 444 1666 569 
L 1788 569 
Q 1678 263 1478 108 
Q 1278 -47 1066 -47 
Q 922 -47 784 33 
Q 647 113 581 261 
Q 516 409 516 719 
L 516 2644 
L 63 2644 
L 63 2747 
Q 234 2816 414 2980 
Q 594 3144 734 3369 
Q 806 3488 934 3803 
L 1031 3803 
z
" transform="scale(0.015625)"/>
       <path id="TimesNewRomanPSMT-20" transform="scale(0.015625)"/>
       <path id="TimesNewRomanPSMT-28" d="M 1988 -1253 
L 1988 -1369 
Q 1516 -1131 1200 -813 
Q 750 -359 506 256 
Q 263 872 263 1534 
Q 263 2503 741 3301 
Q 1219 4100 1988 4444 
L 1988 4313 
Q 1603 4100 1356 3731 
Q 1109 3363 987 2797 
Q 866 2231 866 1616 
Q 866 947 969 400 
Q 1050 -31 1165 -292 
Q 1281 -553 1476 -793 
Q 1672 -1034 1988 -1253 
z
" transform="scale(0.015625)"/>
       <path id="TimesNewRomanPSMT-29" d="M 144 4313 
L 144 4444 
Q 619 4209 934 3891 
Q 1381 3434 1625 2820 
Q 1869 2206 1869 1541 
Q 1869 572 1392 -226 
Q 916 -1025 144 -1369 
L 144 -1253 
Q 528 -1038 776 -670 
Q 1025 -303 1145 264 
Q 1266 831 1266 1447 
Q 1266 2113 1163 2663 
Q 1084 3094 967 3353 
Q 850 3613 656 3853 
Q 463 4094 144 4313 
z
" transform="scale(0.015625)"/>
      </defs>
      <use xlink:href="#TimesNewRomanPSMT-44"/>
      <use xlink:href="#TimesNewRomanPSMT-69" x="72.216797"/>
      <use xlink:href="#TimesNewRomanPSMT-73" x="100"/>
      <use xlink:href="#TimesNewRomanPSMT-70" x="138.916016"/>
      <use xlink:href="#TimesNewRomanPSMT-6c" x="188.916016"/>
      <use xlink:href="#TimesNewRomanPSMT-61" x="216.699219"/>
      <use xlink:href="#TimesNewRomanPSMT-63" x="261.083984"/>
      <use xlink:href="#TimesNewRomanPSMT-65" x="305.46875"/>
      <use xlink:href="#TimesNewRomanPSMT-6d" x="349.853516"/>
      <use xlink:href="#TimesNewRomanPSMT-65" x="427.636719"/>
      <use xlink:href="#TimesNewRomanPSMT-6e" x="472.021484"/>
      <use xlink:href="#TimesNewRomanPSMT-74" x="522.021484"/>
      <use xlink:href="#TimesNewRomanPSMT-20" x="549.804688"/>
      <use xlink:href="#TimesNewRomanPSMT-28" x="574.804688"/>
      <use xlink:href="#TimesNewRomanPSMT-6d" x="608.105469"/>
      <use xlink:href="#TimesNewRomanPSMT-6d" x="685.888672"/>
      <use xlink:href="#TimesNewRomanPSMT-29" x="763.671875"/>
     </g>
    </g>
   </g>
   <g id="matplotlib.axis_2">
    <g id="ytick_1">
     <g id="line2d_11">
      <path d="M 49.432813 235.910195 
L 265.737574 235.910195 
" clip-path="url(#p4f4ef029f6)" style="fill: none; stroke-dasharray: 0.8,1.32; stroke-dashoffset: 0; stroke: #b0b0b0; stroke-width: 0.8"/>
     </g>
     <g id="line2d_12">
      <defs>
       <path id="m423e44da07" d="M 0 0 
L -3.5 0 
" style="stroke: #000000; stroke-width: 0.8"/>
      </defs>
      <g>
       <use xlink:href="#m423e44da07" x="49.432813" y="235.910195" style="stroke: #000000; stroke-width: 0.8"/>
      </g>
     </g>
     <g id="text_7">
      <!-- −400 -->
      <g transform="translate(20.282813 239.403945) scale(0.1 -0.1)">
       <defs>
        <path id="Cambria-34" d="M 1613 153 
Q 1806 203 1872 264 
Q 1938 325 1958 437 
Q 1978 550 1978 781 
L 1978 1294 
L 241 1294 
L 241 1528 
L 2069 4288 
L 2516 4288 
L 2516 1597 
L 2581 1597 
Q 2763 1597 2841 1623 
Q 2919 1650 2970 1717 
Q 3022 1784 3066 1938 
L 3303 1938 
L 3266 1294 
L 2516 1294 
L 2516 781 
Q 2516 572 2530 475 
Q 2544 378 2576 322 
Q 2609 266 2673 228 
Q 2738 191 2881 153 
L 2881 0 
L 1613 0 
L 1613 153 
z
M 756 1597 
L 1978 1597 
L 1978 2375 
Q 1978 2669 1987 3033 
Q 1997 3397 2009 3581 
L 1978 3581 
L 756 1641 
L 756 1597 
z
" transform="scale(0.015625)"/>
       </defs>
       <use xlink:href="#Cambria-2212"/>
       <use xlink:href="#Cambria-34" x="55.371094"/>
       <use xlink:href="#Cambria-30" x="110.742188"/>
       <use xlink:href="#Cambria-30" x="166.113281"/>
      </g>
     </g>
    </g>
    <g id="ytick_2">
     <g id="line2d_13">
      <path d="M 49.432813 191.571722 
L 265.737574 191.571722 
" clip-path="url(#p4f4ef029f6)" style="fill: none; stroke-dasharray: 0.8,1.32; stroke-dashoffset: 0; stroke: #b0b0b0; stroke-width: 0.8"/>
     </g>
     <g id="line2d_14">
      <g>
       <use xlink:href="#m423e44da07" x="49.432813" y="191.571722" style="stroke: #000000; stroke-width: 0.8"/>
      </g>
     </g>
     <g id="text_8">
      <!-- −200 -->
      <g transform="translate(20.282813 195.065472) scale(0.1 -0.1)">
       <defs>
        <path id="Cambria-32" d="M 2194 500 
Q 2347 500 2440 519 
Q 2534 538 2590 581 
Q 2647 625 2680 695 
Q 2713 766 2763 913 
L 3028 913 
L 2975 0 
L 403 0 
L 403 150 
Q 538 478 766 822 
Q 994 1166 1413 1631 
Q 1775 2031 1934 2238 
Q 2109 2463 2195 2627 
Q 2281 2791 2318 2936 
Q 2356 3081 2356 3228 
Q 2356 3463 2281 3642 
Q 2206 3822 2051 3925 
Q 1897 4028 1663 4028 
Q 1078 4028 875 3378 
L 497 3378 
L 497 3978 
Q 875 4156 1204 4236 
Q 1534 4316 1797 4316 
Q 2378 4316 2675 4061 
Q 2972 3806 2972 3322 
Q 2972 3156 2939 3017 
Q 2906 2878 2836 2742 
Q 2766 2606 2647 2450 
Q 2528 2294 2384 2133 
Q 2241 1972 1888 1597 
Q 1294 969 1016 500 
L 2194 500 
z
" transform="scale(0.015625)"/>
       </defs>
       <use xlink:href="#Cambria-2212"/>
       <use xlink:href="#Cambria-32" x="55.371094"/>
       <use xlink:href="#Cambria-30" x="110.742188"/>
       <use xlink:href="#Cambria-30" x="166.113281"/>
      </g>
     </g>
    </g>
    <g id="ytick_3">
     <g id="line2d_15">
      <path d="M 49.432813 147.233249 
L 265.737574 147.233249 
" clip-path="url(#p4f4ef029f6)" style="fill: none; stroke-dasharray: 0.8,1.32; stroke-dashoffset: 0; stroke: #b0b0b0; stroke-width: 0.8"/>
     </g>
     <g id="line2d_16">
      <g>
       <use xlink:href="#m423e44da07" x="49.432813" y="147.233249" style="stroke: #000000; stroke-width: 0.8"/>
      </g>
     </g>
     <g id="text_9">
      <!-- 0 -->
      <g transform="translate(36.895313 150.726999) scale(0.1 -0.1)">
       <use xlink:href="#Cambria-30"/>
      </g>
     </g>
    </g>
    <g id="ytick_4">
     <g id="line2d_17">
      <path d="M 49.432813 102.894776 
L 265.737574 102.894776 
" clip-path="url(#p4f4ef029f6)" style="fill: none; stroke-dasharray: 0.8,1.32; stroke-dashoffset: 0; stroke: #b0b0b0; stroke-width: 0.8"/>
     </g>
     <g id="line2d_18">
      <g>
       <use xlink:href="#m423e44da07" x="49.432813" y="102.894776" style="stroke: #000000; stroke-width: 0.8"/>
      </g>
     </g>
     <g id="text_10">
      <!-- 200 -->
      <g transform="translate(25.820313 106.388526) scale(0.1 -0.1)">
       <use xlink:href="#Cambria-32"/>
       <use xlink:href="#Cambria-30" x="55.371094"/>
       <use xlink:href="#Cambria-30" x="110.742188"/>
      </g>
     </g>
    </g>
    <g id="ytick_5">
     <g id="line2d_19">
      <path d="M 49.432813 58.556303 
L 265.737574 58.556303 
" clip-path="url(#p4f4ef029f6)" style="fill: none; stroke-dasharray: 0.8,1.32; stroke-dashoffset: 0; stroke: #b0b0b0; stroke-width: 0.8"/>
     </g>
     <g id="line2d_20">
      <g>
       <use xlink:href="#m423e44da07" x="49.432813" y="58.556303" style="stroke: #000000; stroke-width: 0.8"/>
      </g>
     </g>
     <g id="text_11">
      <!-- 400 -->
      <g transform="translate(25.820313 62.050053) scale(0.1 -0.1)">
       <use xlink:href="#Cambria-34"/>
       <use xlink:href="#Cambria-30" x="55.371094"/>
       <use xlink:href="#Cambria-30" x="110.742188"/>
      </g>
     </g>
    </g>
    <g id="text_12">
     <!-- Base Shear (kN) -->
     <g transform="translate(14.14375 171.319063) rotate(-90) scale(0.1 -0.1)">
      <defs>
       <path id="TimesNewRomanPSMT-42" d="M 2956 2163 
Q 3397 2069 3616 1863 
Q 3919 1575 3919 1159 
Q 3919 844 3719 555 
Q 3519 266 3170 133 
Q 2822 0 2106 0 
L 106 0 
L 106 116 
L 266 116 
Q 531 116 647 284 
Q 719 394 719 750 
L 719 3488 
Q 719 3881 628 3984 
Q 506 4122 266 4122 
L 106 4122 
L 106 4238 
L 1938 4238 
Q 2450 4238 2759 4163 
Q 3228 4050 3475 3764 
Q 3722 3478 3722 3106 
Q 3722 2788 3528 2536 
Q 3334 2284 2956 2163 
z
M 1319 2331 
Q 1434 2309 1582 2298 
Q 1731 2288 1909 2288 
Q 2366 2288 2595 2386 
Q 2825 2484 2947 2687 
Q 3069 2891 3069 3131 
Q 3069 3503 2766 3765 
Q 2463 4028 1881 4028 
Q 1569 4028 1319 3959 
L 1319 2331 
z
M 1319 306 
Q 1681 222 2034 222 
Q 2600 222 2897 476 
Q 3194 731 3194 1106 
Q 3194 1353 3059 1581 
Q 2925 1809 2622 1940 
Q 2319 2072 1872 2072 
Q 1678 2072 1540 2065 
Q 1403 2059 1319 2044 
L 1319 306 
z
" transform="scale(0.015625)"/>
       <path id="TimesNewRomanPSMT-53" d="M 2934 4334 
L 2934 2869 
L 2819 2869 
Q 2763 3291 2617 3541 
Q 2472 3791 2203 3937 
Q 1934 4084 1647 4084 
Q 1322 4084 1109 3886 
Q 897 3688 897 3434 
Q 897 3241 1031 3081 
Q 1225 2847 1953 2456 
Q 2547 2138 2764 1967 
Q 2981 1797 3098 1565 
Q 3216 1334 3216 1081 
Q 3216 600 2842 251 
Q 2469 -97 1881 -97 
Q 1697 -97 1534 -69 
Q 1438 -53 1133 45 
Q 828 144 747 144 
Q 669 144 623 97 
Q 578 50 556 -97 
L 441 -97 
L 441 1356 
L 556 1356 
Q 638 900 775 673 
Q 913 447 1195 297 
Q 1478 147 1816 147 
Q 2206 147 2432 353 
Q 2659 559 2659 841 
Q 2659 997 2573 1156 
Q 2488 1316 2306 1453 
Q 2184 1547 1640 1851 
Q 1097 2156 867 2337 
Q 638 2519 519 2737 
Q 400 2956 400 3219 
Q 400 3675 750 4004 
Q 1100 4334 1641 4334 
Q 1978 4334 2356 4169 
Q 2531 4091 2603 4091 
Q 2684 4091 2736 4139 
Q 2788 4188 2819 4334 
L 2934 4334 
z
" transform="scale(0.015625)"/>
       <path id="TimesNewRomanPSMT-68" d="M 1041 4444 
L 1041 2350 
Q 1388 2731 1591 2839 
Q 1794 2947 1997 2947 
Q 2241 2947 2416 2812 
Q 2591 2678 2675 2391 
Q 2734 2191 2734 1659 
L 2734 647 
Q 2734 375 2778 275 
Q 2809 200 2884 156 
Q 2959 113 3159 113 
L 3159 0 
L 1753 0 
L 1753 113 
L 1819 113 
Q 2019 113 2097 173 
Q 2175 234 2206 353 
Q 2216 403 2216 647 
L 2216 1659 
Q 2216 2128 2167 2275 
Q 2119 2422 2012 2495 
Q 1906 2569 1756 2569 
Q 1603 2569 1437 2487 
Q 1272 2406 1041 2159 
L 1041 647 
Q 1041 353 1073 281 
Q 1106 209 1195 161 
Q 1284 113 1503 113 
L 1503 0 
L 84 0 
L 84 113 
Q 275 113 384 172 
Q 447 203 484 290 
Q 522 378 522 647 
L 522 3238 
Q 522 3728 498 3840 
Q 475 3953 426 3993 
Q 378 4034 297 4034 
Q 231 4034 84 3984 
L 41 4094 
L 897 4444 
L 1041 4444 
z
" transform="scale(0.015625)"/>
       <path id="TimesNewRomanPSMT-72" d="M 1038 2947 
L 1038 2303 
Q 1397 2947 1775 2947 
Q 1947 2947 2059 2842 
Q 2172 2738 2172 2600 
Q 2172 2478 2090 2393 
Q 2009 2309 1897 2309 
Q 1788 2309 1652 2417 
Q 1516 2525 1450 2525 
Q 1394 2525 1328 2463 
Q 1188 2334 1038 2041 
L 1038 669 
Q 1038 431 1097 309 
Q 1138 225 1241 169 
Q 1344 113 1538 113 
L 1538 0 
L 72 0 
L 72 113 
Q 291 113 397 181 
Q 475 231 506 341 
Q 522 394 522 644 
L 522 1753 
Q 522 2253 501 2348 
Q 481 2444 426 2487 
Q 372 2531 291 2531 
Q 194 2531 72 2484 
L 41 2597 
L 906 2947 
L 1038 2947 
z
" transform="scale(0.015625)"/>
       <path id="TimesNewRomanPSMT-6b" d="M 1047 4444 
L 1047 1597 
L 1775 2259 
Q 2006 2472 2044 2528 
Q 2069 2566 2069 2603 
Q 2069 2666 2017 2711 
Q 1966 2756 1847 2763 
L 1847 2863 
L 3091 2863 
L 3091 2763 
Q 2834 2756 2664 2684 
Q 2494 2613 2291 2428 
L 1556 1750 
L 2291 822 
Q 2597 438 2703 334 
Q 2853 188 2966 144 
Q 3044 113 3238 113 
L 3238 0 
L 1847 0 
L 1847 113 
Q 1966 116 2008 148 
Q 2050 181 2050 241 
Q 2050 313 1925 472 
L 1047 1594 
L 1047 644 
Q 1047 366 1086 278 
Q 1125 191 1197 153 
Q 1269 116 1509 113 
L 1509 0 
L 53 0 
L 53 113 
Q 272 113 381 166 
Q 447 200 481 272 
Q 528 375 528 628 
L 528 3234 
Q 528 3731 506 3842 
Q 484 3953 434 3995 
Q 384 4038 303 4038 
Q 238 4038 106 3984 
L 53 4094 
L 903 4444 
L 1047 4444 
z
" transform="scale(0.015625)"/>
       <path id="TimesNewRomanPSMT-4e" d="M -84 4238 
L 1066 4238 
L 3656 1059 
L 3656 3503 
Q 3656 3894 3569 3991 
Q 3453 4122 3203 4122 
L 3056 4122 
L 3056 4238 
L 4531 4238 
L 4531 4122 
L 4381 4122 
Q 4113 4122 4000 3959 
Q 3931 3859 3931 3503 
L 3931 -69 
L 3819 -69 
L 1025 3344 
L 1025 734 
Q 1025 344 1109 247 
Q 1228 116 1475 116 
L 1625 116 
L 1625 0 
L 150 0 
L 150 116 
L 297 116 
Q 569 116 681 278 
Q 750 378 750 734 
L 750 3681 
Q 566 3897 470 3965 
Q 375 4034 191 4094 
Q 100 4122 -84 4122 
L -84 4238 
z
" transform="scale(0.015625)"/>
      </defs>
      <use xlink:href="#TimesNewRomanPSMT-42"/>
      <use xlink:href="#TimesNewRomanPSMT-61" x="66.699219"/>
      <use xlink:href="#TimesNewRomanPSMT-73" x="111.083984"/>
      <use xlink:href="#TimesNewRomanPSMT-65" x="150"/>
      <use xlink:href="#TimesNewRomanPSMT-20" x="194.384766"/>
      <use xlink:href="#TimesNewRomanPSMT-53" x="219.384766"/>
      <use xlink:href="#TimesNewRomanPSMT-68" x="275"/>
      <use xlink:href="#TimesNewRomanPSMT-65" x="325"/>
      <use xlink:href="#TimesNewRomanPSMT-61" x="369.384766"/>
      <use xlink:href="#TimesNewRomanPSMT-72" x="413.769531"/>
      <use xlink:href="#TimesNewRomanPSMT-20" x="447.070312"/>
      <use xlink:href="#TimesNewRomanPSMT-28" x="472.070312"/>
      <use xlink:href="#TimesNewRomanPSMT-6b" x="505.371094"/>
      <use xlink:href="#TimesNewRomanPSMT-4e" x="555.371094"/>
      <use xlink:href="#TimesNewRomanPSMT-29" x="627.587891"/>
     </g>
    </g>
   </g>
   <g id="line2d_21">
    <path d="M 158.052053 146.009507 
L 158.747478 112.427548 
L 162.146213 99.791083 
L 165.523205 89.149849 
L 168.536404 81.834001 
L 170.181405 80.282155 
L 168.356995 98.017544 
L 166.956179 106.885238 
L 164.20892 119.521703 
L 161.787405 132.313353 
L 157.927006 157.342421 
L 156.7867 172.062794 
L 156.688838 180.930488 
L 154.65286 188.246336 
L 149.885925 206.868495 
L 146.894481 212.189112 
L 146.677471 202.434648 
L 148.762381 190.684952 
L 150.206686 177.826795 
L 152.590153 168.537885 
L 155.321098 157.275913 
L 156.727344 147.947098 
L 158.53001 132.224676 
L 160.582302 123.512166 
L 165.045238 102.894776 
L 166.782669 92.918619 
L 169.823044 83.164155 
L 168.373309 96.465697 
L 167.585912 108.88047 
L 164.198048 120.630165 
L 160.772126 135.727415 
L 156.884551 163.217268 
L 153.442326 179.822027 
L 149.33231 198.000801 
L 148.295286 203.321417 
L 146.302797 206.868495 
L 148.056531 195.562185 
L 151.580315 171.397717 
L 155.337412 155.790574 
L 157.840474 135.660907 
L 165.403598 99.791083 
L 168.487473 86.267848 
L 172.206511 73.853076 
L 174.546489 68.532459 
L 176.859281 65.650458 
L 178.531468 61.881688 
L 182.478389 58.33461 
L 185.442657 55.45261 
L 189.052962 53.235686 
L 190.290682 59.22138 
L 190.567495 63.655227 
L 188.857249 70.971075 
L 186.837574 76.735077 
L 184.459548 85.602771 
L 180.745951 97.352467 
L 177.401566 105.111699 
L 174.714111 112.427548 
L 169.643188 129.054475 
L 164.963243 139.784385 
L 161.933729 148.572271 
L 159.865134 158.872098 
L 157.780224 170.73264 
L 151.384602 189.133106 
L 145.949877 209.307111 
L 142.882316 221.500191 
L 138.897337 228.372655 
L 133.289102 234.580041 
L 125.406134 240.344042 
L 126.182648 229.037732 
L 128.582429 218.174806 
L 131.64999 205.981726 
L 134.679493 197.114031 
L 138.697088 187.359567 
L 142.74187 175.166487 
L 147.117827 162.485684 
L 188.651112 60.108149 
L 153.822879 145.410938 
L 156.857823 136.126461 
L 161.228349 123.955551 
L 166.907259 111.319086 
L 171.630694 96.68739 
L 175.659162 85.824464 
L 179.334711 77.621846 
L 183.015701 68.754152 
L 185.344796 64.320304 
L 187.353599 59.443072 
L 190.632729 57.669533 
L 189.905145 64.541997 
L 188.162283 74.739845 
L 185.111025 85.602771 
L 181.391987 97.795851 
L 175.707635 110.875701 
L 171.337119 123.290473 
L 167.949256 134.929323 
L 162.91095 148.596657 
L 158.534993 161.288545 
L 152.193734 174.944795 
L 146.824253 189.133106 
L 142.470041 199.774339 
L 139.141981 206.203418 
L 135.792176 214.406036 
L 133.088406 223.27373 
L 128.766811 231.032963 
L 125.797111 234.358348 
L 127.892893 221.500191 
L 129.977803 209.750496 
L 133.360235 198.665878 
L 137.703564 188.911414 
L 141.075125 178.491872 
L 145.434768 167.362916 
L 149.153806 155.147666 
L 151.515528 147.8163 
L 155.886043 135.616569 
L 164.941945 112.205855 
L 173.297439 93.140312 
L 176.647255 84.937694 
L 184.991876 66.980613 
L 193.602428 54.344148 
L 198.532011 50.575378 
L 202.777489 49.688608 
L 207.354142 48.136762 
L 206.930547 57.004456 
L 204.557952 65.428766 
L 201.821566 77.178461 
L 197.467354 87.819695 
L 193.085966 101.121237 
L 188.769813 108.437085 
L 185.420008 116.639702 
L 181.082099 125.906443 
L 176.081851 136.126461 
L 171.733081 146.355347 
L 166.119415 153.108097 
L 154.511967 171.619409 
L 149.196848 180.708796 
L 143.936101 185.142643 
L 137.980377 193.345261 
L 133.284119 205.538341 
L 127.170741 227.92927 
L 122.19768 235.688503 
L 116.605748 240.565735 
L 111.687048 243.447735 
L 109.070268 244.334505 
L 108.836944 235.910195 
L 110.894667 226.599116 
L 114.939449 214.406036 
L 118.321882 203.099725 
L 123.001827 192.458491 
L 125.374422 184.034182 
L 130.369228 174.279717 
L 134.392265 164.126207 
L 139.718256 153.928358 
L 143.72498 145.155991 
L 147.693645 139.828724 
L 153.307322 133.089276 
L 156.950243 127.74649 
L 162.933153 117.083087 
L 171.842262 106.885238 
L 179.806778 93.805389 
L 185.111025 85.602771 
L 191.115679 72.966307 
L 195.106089 65.650458 
L 199.069323 60.773226 
L 202.712244 55.45261 
L 207.288908 54.122455 
L 206.202953 63.87692 
L 202.836834 73.631384 
L 199.117796 86.046156 
L 194.785329 94.692158 
L 190.756861 105.555084 
L 187.401614 114.201086 
L 181.771634 122.403704 
L 176.092724 135.128846 
L 171.048987 149.294988 
L 165.739309 158.029667 
L 160.782551 164.303561 
L 156.7867 172.062794 
L 150.190372 179.378642 
L 144.565833 187.137875 
L 138.924971 196.227262 
L 126.666046 214.627728 
L 122.007845 223.495423 
L 117.371389 230.146194 
L 114.716551 234.580041 
L 110.764199 238.348811 
L 108.809758 238.348811 
L 110.541748 229.037732 
L 121.660815 195.783877 
L 125.037806 185.142643 
L 128.69161 178.713565 
L 133.708171 167.074716 
L 137.725767 157.320252 
L 142.052793 149.05556 
L 147.031296 140.80417 
L 152.987019 132.579384 
L 160.251128 123.955551 
L 168.155841 116.196318 
L 181.766651 93.362004 
L 188.428213 80.282155 
L 194.70968 72.079537 
L 199.373312 62.768458 
L 204.655814 56.561071 
L 210.899212 51.683839 
L 215.166435 49.023531 
L 220.383692 48.580146 
L 222.989611 48.580146 
L 222.908063 56.117687 
L 221.51812 63.87692 
L 217.163908 74.518153 
L 212.131043 87.819695 
L 207.804017 96.022313 
L 203.118631 107.328623 
L 198.449558 117.083087 
L 193.107253 128.677598 
L 188.405563 141.358401 
L 181.483502 148.572271 
L 173.253045 156.256128 
L 167.970553 162.507853 
L 161.064795 168.249685 
L 155.130827 174.50141 
L 142.964322 184.477566 
L 135.369028 193.788646 
L 129.022337 207.755265 
L 122.38252 219.061575 
L 117.100018 225.268961 
L 110.503689 232.58481 
L 102.598976 240.12235 
L 97.33823 244.556197 
L 92.115531 245.442967 
L 93.896452 231.69804 
L 96.252733 224.825577 
L 100.98705 209.085419 
L 104.331424 201.326186 
L 108.338148 192.458491 
L 204.50359 70.305998 
L 116.036723 174.058025 
L 120.032575 166.232285 
L 124.033867 157.963159 
L 134.300303 142.954586 
L 137.590305 140.072585 
L 142.199575 135.749584 
L 146.803413 131.936476 
L 151.749299 126.638028 
L 157.677837 120.851857 
L 167.884469 111.319086 
L 179.111812 97.795851 
L 186.028443 91.14508 
L 191.989597 82.277386 
L 197.282971 75.18323 
L 204.872813 66.315536 
L 211.789444 59.664765 
L 217.044759 55.895994 
L 221.311982 53.013994 
L 223.592157 53.013994 
L 220.491968 68.310767 
L 216.794675 78.508616 
L 212.440473 89.149849 
L 206.435819 102.008006 
L 201.419258 113.536009 
L 195.420045 125.773428 
L 187.792145 137.9 
L 183.112199 148.612175 
L 174.881742 156.278297 
L 166.325542 163.948853 
L 147.51923 185.142643 
L 127.752 204.873264 
L 121.128486 214.627728 
L 108.625375 225.490654 
L 102.675093 233.249887 
L 96.089637 239.457273 
L 92.495636 240.344042 
L 94.938907 225.712346 
L 105.694171 196.005569 
L 111.709698 182.260643 
L 117.383177 170.067563 
L 124.3596 157.963159 
L 135.277513 142.976755 
L 144.843541 132.37986 
L 154.702696 124.84232 
L 164.589026 114.644471 
L 174.795658 105.111699 
L 186.006698 92.918619 
L 195.936517 78.952 
L 211.099908 63.211842 
L 224.243634 53.013994 
L 231.458811 48.801839 
L 237.338418 47.471685 
L 240.894371 50.131993 
L 240.476208 58.33461 
L 237.441263 67.64569 
L 233.407354 78.952 
L 229.384327 89.149849 
L 224.731557 97.352467 
L 221.056009 105.776777 
L 216.061203 115.531241 
L 212.049038 124.620628 
L 206.419058 132.934091 
L 200.767333 143.154109 
L 197.118971 148.966883 
L 190.886434 152.753389 
L 182.992593 159.448498 
L 168.551355 168.936931 
L 149.837452 181.817258 
L 142.301962 185.586028 
L 112.941529 218.174806 
L 106.361514 223.938807 
L 97.778138 234.136656 
L 87.614995 239.900658 
L 82.36511 243.226043 
L 78.445376 244.112813 
L 74.862247 243.89112 
L 80.318717 221.943576 
L 84.662056 212.189112 
L 89.331119 202.434648 
L 94.005633 192.236799 
L 97.697496 182.482335 
L 103.707581 169.26947 
L 113.691773 150.314773 
L 120.928695 144.085217 
L 126.194883 139.296662 
L 131.781374 134.99583 
L 145.23996 125.972951 
L 153.112056 121.295242 
L 159.018849 117.526472 
L 169.8389 111.319086 
L 179.05745 102.673083 
L 188.93835 93.140312 
L 198.167761 83.385848 
L 205.752172 75.18323 
L 214.948978 68.532459 
L 222.837387 62.325073 
L 231.067844 54.787533 
L 236.638021 51.905532 
L 240.878058 51.462147 
L 237.788752 65.650458 
L 233.049004 81.834001 
L 226.050825 96.022313 
L 221.06145 105.333392 
L 217.695331 115.087856 
L 212.391085 123.290473 
L 208.091245 129.054475 
L 204.068218 139.296662 
L 195.805134 149.915727 
L 188.56277 156.633005 
L 180.033755 161.842776 
L 171.162704 168.515716 
L 159.370863 174.058025 
L 146.585498 181.152181 
L 140.325786 187.359567 
L 134.40269 192.680184 
L 126.166792 200.882801 
L 119.912521 206.646803 
L 112.995891 213.297574 
L 107.393097 219.061575 
L 99.178943 225.268961 
L 90.617312 233.471579 
L 80.448737 239.678965 
L 74.563689 241.452504 
L 77.32182 227.707578 
L 89.711224 197.557416 
L 100.694381 176.496641 
L 107.024769 163.926684 
L 112.985923 155.214174 
L 118.610472 147.47711 
L 124.22958 140.22777 
L 150.815578 122.625396 
L 160.012373 115.974625 
L 170.202702 107.9937 
L 179.736113 100.234467 
L 191.582305 89.814926 
L 198.493505 83.385848 
L 207.375439 75.848307 
L 215.931629 68.089074 
L 223.836342 60.551534 
L 234.64009 55.895994 
L 243.81514 51.018762 
L 251.024887 47.471685 
L 255.905539 47.915069 
L 255.834863 54.344148 
L 254.130059 61.216611 
L 250.736754 73.409691 
L 247.381508 82.277386 
L 241.387736 94.027081 
L 236.045442 105.555084 
L 231.3818 114.866164 
L 225.078588 125.064012 
L 216.799211 137.146246 
L 211.147486 147.350081 
L 205.892171 151.157204 
L 195.370667 159.758868 
L 186.515919 164.946469 
L 176.358206 170.067563 
L 167.519772 173.836333 
L 135.396214 191.35003 
L 127.165757 198.88757 
L 120.916917 204.208187 
L 114.326031 210.858958 
L 108.071749 216.622959 
L 90.649929 230.589578 
L 79.498703 237.240349 
L 70.986002 240.787427 
L 65.426698 242.782658 
L 61.810941 245.664659 
L 59.856521 245.442967 
L 59.264847 240.12235 
L 61.002268 230.367886 
L 65.041609 218.618191 
L 69.737868 206.42511 
L 76.079127 192.680184 
L 93.039742 161.621083 
L 98.34942 152.886404 
L 101.340875 147.534751 
L 106.281319 142.732894 
L 110.564856 138.409893 
L 118.426079 134.663292 
L 124.978908 131.382245 
L 131.206003 128.101198 
L 137.107365 124.84232 
L 144.97402 120.630165 
L 150.538765 118.191549 
L 158.389117 115.531241 
L 172.471994 108.88047 
L 184.296452 100.45616 
L 204.698845 82.055693 
L 212.912988 76.07 
L 220.470223 70.305998 
L 225.074062 66.315536 
L 231.637774 62.103381 
L 239.830161 57.891226 
L 246.393873 53.679071 
L 252.620968 50.353685 
L 255.878353 50.353685 
L 255.481944 56.782764 
L 252.414383 68.975844 
L 247.739869 79.395385 
L 241.708039 94.470466 
L 238.347361 103.781545 
L 230.71944 115.752933 
L 225.724634 125.551736 
L 221.077306 133.310968 
L 215.11071 142.533371 
L 206.880253 150.203927 
L 198.014633 156.389144 
L 187.824304 164.503084 
L 175.706729 170.067563 
L 163.583724 176.274949 
L 151.802756 180.930488 
L 139.017391 187.802952 
L 128.181026 195.562185 
L 121.280709 200.661109 
L 114.700695 206.42511 
L 104.857854 212.632497 
L 98.603583 218.396498 
L 91.377522 223.717115 
L 85.785601 228.372655 
L 80.215424 231.254655 
L 73.99376 234.136656 
L 70.068584 235.46681 
L 70.068584 235.46681 
" clip-path="url(#p4f4ef029f6)" style="fill: none; stroke-dasharray: 3.7,1.6; stroke-dashoffset: 0; stroke: #000000"/>
   </g>
   <g id="line2d_22">
    <path d="M 157.889182 147.233249 
L 160.240397 103.123565 
L 161.024135 93.421831 
L 161.807874 86.779562 
L 162.787547 80.703624 
L 164.355024 73.171675 
L 166.118435 66.208645 
L 168.077782 59.276674 
L 170.428997 51.696953 
L 172.388343 45.952467 
L 173.368016 43.667439 
L 174.347689 41.983239 
L 175.719232 40.038945 
L 177.286709 38.280759 
L 178.658251 37.084572 
L 181.98914 34.615647 
L 184.340355 33.250583 
L 187.475309 31.647446 
L 188.846851 31.041488 
L 190.218393 30.882841 
L 190.218393 30.882841 
" clip-path="url(#p4f4ef029f6)" style="fill: none; stroke: #ff0000; stroke-width: 1.2; stroke-linecap: square"/>
   </g>
   <g id="line2d_23">
    <path d="M 49.432813 147.233249 
L 265.737574 147.233249 
" clip-path="url(#p4f4ef029f6)" style="fill: none; stroke: #000000; stroke-width: 0.4; stroke-linecap: square"/>
   </g>
   <g id="line2d_24">
    <path d="M 157.889182 256.40375 
L 157.889182 20.14375 
" clip-path="url(#p4f4ef029f6)" style="fill: none; stroke: #000000; stroke-width: 0.4; stroke-linecap: square"/>
   </g>
   <g id="patch_3">
    <path d="M 49.432813 256.40375 
L 49.432813 20.14375 
" style="fill: none; stroke: #000000; stroke-width: 0.8; stroke-linejoin: miter; stroke-linecap: square"/>
   </g>
   <g id="patch_4">
    <path d="M 265.737574 256.40375 
L 265.737574 20.14375 
" style="fill: none; stroke: #000000; stroke-width: 0.8; stroke-linejoin: miter; stroke-linecap: square"/>
   </g>
   <g id="patch_5">
    <path d="M 49.432813 256.40375 
L 265.737574 256.40375 
" style="fill: none; stroke: #000000; stroke-width: 0.8; stroke-linejoin: miter; stroke-linecap: square"/>
   </g>
   <g id="patch_6">
    <path d="M 49.432813 20.14375 
L 265.737574 20.14375 
" style="fill: none; stroke: #000000; stroke-width: 0.8; stroke-linejoin: miter; stroke-linecap: square"/>
   </g>
   <g id="text_13">
    <!-- Specimen : Dazio_WSH3 -->
    <g transform="translate(105.928943 14.14375) scale(0.1 -0.1)">
     <defs>
      <path id="TimesNewRomanPSMT-3a" d="M 903 2950 
Q 1047 2950 1148 2848 
Q 1250 2747 1250 2603 
Q 1250 2459 1148 2357 
Q 1047 2256 903 2256 
Q 759 2256 657 2357 
Q 556 2459 556 2603 
Q 556 2747 657 2848 
Q 759 2950 903 2950 
z
M 897 609 
Q 1044 609 1145 506 
Q 1247 403 1247 259 
Q 1247 116 1144 14 
Q 1041 -88 897 -88 
Q 753 -88 651 14 
Q 550 116 550 259 
Q 550 403 651 506 
Q 753 609 897 609 
z
" transform="scale(0.015625)"/>
      <path id="TimesNewRomanPSMT-7a" d="M 2688 878 
L 2653 0 
L 128 0 
L 128 113 
L 2028 2644 
L 1091 2644 
Q 788 2644 694 2605 
Q 600 2566 541 2456 
Q 456 2300 444 2069 
L 319 2069 
L 338 2863 
L 2738 2863 
L 2738 2747 
L 819 209 
L 1863 209 
Q 2191 209 2308 264 
Q 2425 319 2497 456 
Q 2547 556 2581 878 
L 2688 878 
z
" transform="scale(0.015625)"/>
      <path id="TimesNewRomanPSMT-6f" d="M 1600 2947 
Q 2250 2947 2644 2453 
Q 2978 2031 2978 1484 
Q 2978 1100 2793 706 
Q 2609 313 2286 112 
Q 1963 -88 1566 -88 
Q 919 -88 538 428 
Q 216 863 216 1403 
Q 216 1797 411 2186 
Q 606 2575 925 2761 
Q 1244 2947 1600 2947 
z
M 1503 2744 
Q 1338 2744 1170 2645 
Q 1003 2547 900 2300 
Q 797 2053 797 1666 
Q 797 1041 1045 587 
Q 1294 134 1700 134 
Q 2003 134 2200 384 
Q 2397 634 2397 1244 
Q 2397 2006 2069 2444 
Q 1847 2744 1503 2744 
z
" transform="scale(0.015625)"/>
      <path id="TimesNewRomanPSMT-5f" d="M 3256 -1381 
L -53 -1381 
L -53 -1119 
L 3256 -1119 
L 3256 -1381 
z
" transform="scale(0.015625)"/>
      <path id="TimesNewRomanPSMT-57" d="M 5991 4238 
L 5991 4122 
Q 5825 4122 5722 4062 
Q 5619 4003 5525 3841 
Q 5463 3731 5328 3319 
L 4147 -97 
L 4022 -97 
L 3056 2613 
L 2097 -97 
L 1984 -97 
L 725 3422 
Q 584 3816 547 3888 
Q 484 4006 376 4064 
Q 269 4122 84 4122 
L 84 4238 
L 1653 4238 
L 1653 4122 
L 1578 4122 
Q 1413 4122 1325 4047 
Q 1238 3972 1238 3866 
Q 1238 3756 1375 3363 
L 2209 984 
L 2913 3006 
L 2788 3363 
L 2688 3647 
Q 2622 3803 2541 3922 
Q 2500 3981 2441 4022 
Q 2363 4078 2284 4103 
Q 2225 4122 2097 4122 
L 2097 4238 
L 3747 4238 
L 3747 4122 
L 3634 4122 
Q 3459 4122 3378 4047 
Q 3297 3972 3297 3844 
Q 3297 3684 3438 3288 
L 4250 984 
L 5056 3319 
Q 5194 3706 5194 3856 
Q 5194 3928 5148 3990 
Q 5103 4053 5034 4078 
Q 4916 4122 4725 4122 
L 4725 4238 
L 5991 4238 
z
" transform="scale(0.015625)"/>
      <path id="TimesNewRomanPSMT-48" d="M 1316 2272 
L 3284 2272 
L 3284 3484 
Q 3284 3809 3244 3913 
Q 3213 3991 3113 4047 
Q 2978 4122 2828 4122 
L 2678 4122 
L 2678 4238 
L 4491 4238 
L 4491 4122 
L 4341 4122 
Q 4191 4122 4056 4050 
Q 3956 4000 3920 3898 
Q 3884 3797 3884 3484 
L 3884 750 
Q 3884 428 3925 325 
Q 3956 247 4053 191 
Q 4191 116 4341 116 
L 4491 116 
L 4491 0 
L 2678 0 
L 2678 116 
L 2828 116 
Q 3088 116 3206 269 
Q 3284 369 3284 750 
L 3284 2041 
L 1316 2041 
L 1316 750 
Q 1316 428 1356 325 
Q 1388 247 1488 191 
Q 1622 116 1772 116 
L 1925 116 
L 1925 0 
L 109 0 
L 109 116 
L 259 116 
Q 522 116 641 269 
Q 716 369 716 750 
L 716 3484 
Q 716 3809 675 3913 
Q 644 3991 547 4047 
Q 409 4122 259 4122 
L 109 4122 
L 109 4238 
L 1925 4238 
L 1925 4122 
L 1772 4122 
Q 1622 4122 1488 4050 
Q 1391 4000 1353 3898 
Q 1316 3797 1316 3484 
L 1316 2272 
z
" transform="scale(0.015625)"/>
      <path id="TimesNewRomanPSMT-33" d="M 325 3431 
Q 506 3859 782 4092 
Q 1059 4325 1472 4325 
Q 1981 4325 2253 3994 
Q 2459 3747 2459 3466 
Q 2459 3003 1878 2509 
Q 2269 2356 2469 2072 
Q 2669 1788 2669 1403 
Q 2669 853 2319 450 
Q 1863 -75 997 -75 
Q 569 -75 414 31 
Q 259 138 259 259 
Q 259 350 332 419 
Q 406 488 509 488 
Q 588 488 669 463 
Q 722 447 909 348 
Q 1097 250 1169 231 
Q 1284 197 1416 197 
Q 1734 197 1970 444 
Q 2206 691 2206 1028 
Q 2206 1275 2097 1509 
Q 2016 1684 1919 1775 
Q 1784 1900 1550 2001 
Q 1316 2103 1072 2103 
L 972 2103 
L 972 2197 
Q 1219 2228 1467 2375 
Q 1716 2522 1828 2728 
Q 1941 2934 1941 3181 
Q 1941 3503 1739 3701 
Q 1538 3900 1238 3900 
Q 753 3900 428 3381 
L 325 3431 
z
" transform="scale(0.015625)"/>
     </defs>
     <use xlink:href="#TimesNewRomanPSMT-53"/>
     <use xlink:href="#TimesNewRomanPSMT-70" x="55.615234"/>
     <use xlink:href="#TimesNewRomanPSMT-65" x="105.615234"/>
     <use xlink:href="#TimesNewRomanPSMT-63" x="150"/>
     <use xlink:href="#TimesNewRomanPSMT-69" x="194.384766"/>
     <use xlink:href="#TimesNewRomanPSMT-6d" x="222.167969"/>
     <use xlink:href="#TimesNewRomanPSMT-65" x="299.951172"/>
     <use xlink:href="#TimesNewRomanPSMT-6e" x="344.335938"/>
     <use xlink:href="#TimesNewRomanPSMT-20" x="394.335938"/>
     <use xlink:href="#TimesNewRomanPSMT-3a" x="419.335938"/>
     <use xlink:href="#TimesNewRomanPSMT-20" x="447.119141"/>
     <use xlink:href="#TimesNewRomanPSMT-44" x="472.119141"/>
     <use xlink:href="#TimesNewRomanPSMT-61" x="544.335938"/>
     <use xlink:href="#TimesNewRomanPSMT-7a" x="588.720703"/>
     <use xlink:href="#TimesNewRomanPSMT-69" x="633.105469"/>
     <use xlink:href="#TimesNewRomanPSMT-6f" x="660.888672"/>
     <use xlink:href="#TimesNewRomanPSMT-5f" x="710.888672"/>
     <use xlink:href="#TimesNewRomanPSMT-57" x="760.888672"/>
     <use xlink:href="#TimesNewRomanPSMT-53" x="855.273438"/>
     <use xlink:href="#TimesNewRomanPSMT-48" x="910.888672"/>
     <use xlink:href="#TimesNewRomanPSMT-33" x="983.105469"/>
    </g>
   </g>
   <g id="legend_1">
    <g id="patch_7">
     <path d="M 55.263813 50.363428 
L 142.486722 50.363428 
Q 144.152722 50.363428 144.152722 48.697428 
L 144.152722 25.97475 
Q 144.152722 24.30875 142.486722 24.30875 
L 55.263813 24.30875 
Q 53.597813 24.30875 53.597813 25.97475 
L 53.597813 48.697428 
Q 53.597813 50.363428 55.263813 50.363428 
z
" style="fill: #ffffff; opacity: 0.8; stroke: #cccccc; stroke-linejoin: miter"/>
    </g>
    <g id="line2d_25">
     <path d="M 56.929813 30.55625 
L 65.259813 30.55625 
L 73.589813 30.55625 
" style="fill: none; stroke-dasharray: 3.7,1.6; stroke-dashoffset: 0; stroke: #000000"/>
    </g>
    <g id="text_14">
     <!-- Experimental Test -->
     <g transform="translate(80.253813 33.47175) scale(0.0833 -0.0833)">
      <defs>
       <path id="TimesNewRomanPSMT-45" d="M 1338 4006 
L 1338 2331 
L 2269 2331 
Q 2631 2331 2753 2441 
Q 2916 2584 2934 2947 
L 3050 2947 
L 3050 1472 
L 2934 1472 
Q 2891 1781 2847 1869 
Q 2791 1978 2662 2040 
Q 2534 2103 2269 2103 
L 1338 2103 
L 1338 706 
Q 1338 425 1363 364 
Q 1388 303 1450 267 
Q 1513 231 1688 231 
L 2406 231 
Q 2766 231 2928 281 
Q 3091 331 3241 478 
Q 3434 672 3638 1063 
L 3763 1063 
L 3397 0 
L 131 0 
L 131 116 
L 281 116 
Q 431 116 566 188 
Q 666 238 702 338 
Q 738 438 738 747 
L 738 3500 
Q 738 3903 656 3997 
Q 544 4122 281 4122 
L 131 4122 
L 131 4238 
L 3397 4238 
L 3444 3309 
L 3322 3309 
Q 3256 3644 3176 3769 
Q 3097 3894 2941 3959 
Q 2816 4006 2500 4006 
L 1338 4006 
z
" transform="scale(0.015625)"/>
       <path id="TimesNewRomanPSMT-78" d="M 84 2863 
L 1431 2863 
L 1431 2747 
Q 1303 2747 1251 2703 
Q 1200 2659 1200 2588 
Q 1200 2513 1309 2356 
Q 1344 2306 1413 2200 
L 1616 1875 
L 1850 2200 
Q 2075 2509 2075 2591 
Q 2075 2656 2022 2701 
Q 1969 2747 1850 2747 
L 1850 2863 
L 2819 2863 
L 2819 2747 
Q 2666 2738 2553 2663 
Q 2400 2556 2134 2200 
L 1744 1678 
L 2456 653 
Q 2719 275 2831 198 
Q 2944 122 3122 113 
L 3122 0 
L 1772 0 
L 1772 113 
Q 1913 113 1991 175 
Q 2050 219 2050 291 
Q 2050 363 1850 653 
L 1431 1266 
L 972 653 
Q 759 369 759 316 
Q 759 241 829 180 
Q 900 119 1041 113 
L 1041 0 
L 106 0 
L 106 113 
Q 219 128 303 191 
Q 422 281 703 653 
L 1303 1450 
L 759 2238 
Q 528 2575 401 2661 
Q 275 2747 84 2747 
L 84 2863 
z
" transform="scale(0.015625)"/>
       <path id="TimesNewRomanPSMT-54" d="M 3703 4238 
L 3750 3244 
L 3631 3244 
Q 3597 3506 3538 3619 
Q 3441 3800 3280 3886 
Q 3119 3972 2856 3972 
L 2259 3972 
L 2259 734 
Q 2259 344 2344 247 
Q 2463 116 2709 116 
L 2856 116 
L 2856 0 
L 1059 0 
L 1059 116 
L 1209 116 
Q 1478 116 1591 278 
Q 1659 378 1659 734 
L 1659 3972 
L 1150 3972 
Q 853 3972 728 3928 
Q 566 3869 450 3700 
Q 334 3531 313 3244 
L 194 3244 
L 244 4238 
L 3703 4238 
z
" transform="scale(0.015625)"/>
      </defs>
      <use xlink:href="#TimesNewRomanPSMT-45"/>
      <use xlink:href="#TimesNewRomanPSMT-78" x="61.083984"/>
      <use xlink:href="#TimesNewRomanPSMT-70" x="111.083984"/>
      <use xlink:href="#TimesNewRomanPSMT-65" x="161.083984"/>
      <use xlink:href="#TimesNewRomanPSMT-72" x="205.46875"/>
      <use xlink:href="#TimesNewRomanPSMT-69" x="238.769531"/>
      <use xlink:href="#TimesNewRomanPSMT-6d" x="266.552734"/>
      <use xlink:href="#TimesNewRomanPSMT-65" x="344.335938"/>
      <use xlink:href="#TimesNewRomanPSMT-6e" x="388.720703"/>
      <use xlink:href="#TimesNewRomanPSMT-74" x="438.720703"/>
      <use xlink:href="#TimesNewRomanPSMT-61" x="466.503906"/>
      <use xlink:href="#TimesNewRomanPSMT-6c" x="510.888672"/>
      <use xlink:href="#TimesNewRomanPSMT-20" x="538.671875"/>
      <use xlink:href="#TimesNewRomanPSMT-54" x="561.921875"/>
      <use xlink:href="#TimesNewRomanPSMT-65" x="616.005859"/>
      <use xlink:href="#TimesNewRomanPSMT-73" x="660.390625"/>
      <use xlink:href="#TimesNewRomanPSMT-74" x="699.306641"/>
     </g>
    </g>
    <g id="line2d_26">
     <path d="M 56.929813 42.334089 
L 65.259813 42.334089 
L 73.589813 42.334089 
" style="fill: none; stroke: #ff0000; stroke-width: 1.2; stroke-linecap: square"/>
    </g>
    <g id="text_15">
     <!-- Numerical Test -->
     <g transform="translate(80.253813 45.249589) scale(0.0833 -0.0833)">
      <defs>
       <path id="TimesNewRomanPSMT-75" d="M 2709 2863 
L 2709 1128 
Q 2709 631 2732 520 
Q 2756 409 2807 365 
Q 2859 322 2928 322 
Q 3025 322 3147 375 
L 3191 266 
L 2334 -88 
L 2194 -88 
L 2194 519 
Q 1825 119 1631 15 
Q 1438 -88 1222 -88 
Q 981 -88 804 51 
Q 628 191 559 409 
Q 491 628 491 1028 
L 491 2306 
Q 491 2509 447 2587 
Q 403 2666 317 2708 
Q 231 2750 6 2747 
L 6 2863 
L 1009 2863 
L 1009 947 
Q 1009 547 1148 422 
Q 1288 297 1484 297 
Q 1619 297 1789 381 
Q 1959 466 2194 703 
L 2194 2325 
Q 2194 2569 2105 2655 
Q 2016 2741 1734 2747 
L 1734 2863 
L 2709 2863 
z
" transform="scale(0.015625)"/>
      </defs>
      <use xlink:href="#TimesNewRomanPSMT-4e"/>
      <use xlink:href="#TimesNewRomanPSMT-75" x="72.216797"/>
      <use xlink:href="#TimesNewRomanPSMT-6d" x="122.216797"/>
      <use xlink:href="#TimesNewRomanPSMT-65" x="200"/>
      <use xlink:href="#TimesNewRomanPSMT-72" x="244.384766"/>
      <use xlink:href="#TimesNewRomanPSMT-69" x="277.685547"/>
      <use xlink:href="#TimesNewRomanPSMT-63" x="305.46875"/>
      <use xlink:href="#TimesNewRomanPSMT-61" x="349.853516"/>
      <use xlink:href="#TimesNewRomanPSMT-6c" x="394.238281"/>
      <use xlink:href="#TimesNewRomanPSMT-20" x="422.021484"/>
      <use xlink:href="#TimesNewRomanPSMT-54" x="445.271484"/>
      <use xlink:href="#TimesNewRomanPSMT-65" x="499.355469"/>
      <use xlink:href="#TimesNewRomanPSMT-73" x="543.740234"/>
      <use xlink:href="#TimesNewRomanPSMT-74" x="582.65625"/>
     </g>
    </g>
   </g>
  </g>
 </g>
 <defs>
  <clipPath id="p4f4ef029f6">
   <rect x="49.432813" y="20.14375" width="216.304761" height="236.26"/>
  </clipPath>
 </defs>
</svg>
