<?xml version="1.0" encoding="utf-8" standalone="no"?>
<!DOCTYPE svg PUBLIC "-//W3C//DTD SVG 1.1//EN"
  "http://www.w3.org/Graphics/SVG/1.1/DTD/svg11.dtd">
<svg xmlns:xlink="http://www.w3.org/1999/xlink" width="279.722812pt" height="293.468437pt" viewBox="0 0 279.722812 293.468437" xmlns="http://www.w3.org/2000/svg" version="1.1">
 <metadata>
  <rdf:RDF xmlns:dc="http://purl.org/dc/elements/1.1/" xmlns:cc="http://creativecommons.org/ns#" xmlns:rdf="http://www.w3.org/1999/02/22-rdf-syntax-ns#">
   <cc:Work>
    <dc:type rdf:resource="http://purl.org/dc/dcmitype/StillImage"/>
    <dc:date>2025-01-04T01:30:07.721686</dc:date>
    <dc:format>image/svg+xml</dc:format>
    <dc:creator>
     <cc:Agent>
      <dc:title>Matplotlib v3.8.0, https://matplotlib.org/</dc:title>
     </cc:Agent>
    </dc:creator>
   </cc:Work>
  </rdf:RDF>
 </metadata>
 <defs>
  <style type="text/css">*{stroke-linejoin: round; stroke-linecap: butt}</style>
 </defs>
 <g id="figure_1">
  <g id="patch_1">
   <path d="M 0 293.468437 
L 279.722812 293.468437 
L 279.722812 0 
L 0 0 
z
" style="fill: #ffffff"/>
  </g>
  <g id="axes_1">
   <g id="patch_2">
    <path d="M 49.432813 257.098125 
L 272.522812 257.098125 
L 272.522812 20.838125 
L 49.432813 20.838125 
z
" style="fill: #ffffff"/>
   </g>
   <g id="matplotlib.axis_1">
    <g id="xtick_1">
     <g id="line2d_1">
      <path d="M 76.474002 257.098125 
L 76.474002 20.838125 
" clip-path="url(#peca87344c4)" style="fill: none; stroke-dasharray: 0.8,1.32; stroke-dashoffset: 0; stroke: #b0b0b0; stroke-width: 0.8"/>
     </g>
     <g id="line2d_2">
      <defs>
       <path id="m50d30c135e" d="M 0 0 
L 0 3.5 
" style="stroke: #000000; stroke-width: 0.8"/>
      </defs>
      <g>
       <use xlink:href="#m50d30c135e" x="76.474002" y="257.098125" style="stroke: #000000; stroke-width: 0.8"/>
      </g>
     </g>
     <g id="text_1">
      <!-- −10 -->
      <g transform="translate(68.167752 271.085625) scale(0.1 -0.1)">
       <defs>
        <path id="Cambria-2212" d="M 397 1613 
L 397 2047 
L 3147 2047 
L 3147 1613 
L 397 1613 
z
" transform="scale(0.015625)"/>
        <path id="Cambria-31" d="M 2172 816 
Q 2172 634 2192 542 
Q 2213 450 2264 392 
Q 2316 334 2412 301 
Q 2509 269 2656 251 
Q 2803 234 3044 228 
L 3044 0 
L 734 0 
L 734 228 
Q 1081 244 1229 270 
Q 1378 297 1456 350 
Q 1534 403 1570 500 
Q 1606 597 1606 816 
L 1606 3350 
Q 1606 3475 1562 3533 
Q 1519 3591 1434 3591 
Q 1334 3591 1150 3487 
Q 966 3384 694 3203 
L 556 3444 
L 2019 4316 
L 2191 4316 
Q 2172 4016 2172 3484 
L 2172 816 
z
" transform="scale(0.015625)"/>
        <path id="Cambria-30" d="M 1738 -50 
Q 1063 -50 733 481 
Q 403 1013 403 2094 
Q 403 2669 504 3087 
Q 606 3506 789 3779 
Q 972 4053 1228 4184 
Q 1484 4316 1788 4316 
Q 2472 4316 2806 3787 
Q 3141 3259 3141 2191 
Q 3141 1084 2783 517 
Q 2425 -50 1738 -50 
z
M 1013 2188 
Q 1013 1169 1202 692 
Q 1391 216 1788 216 
Q 2166 216 2348 664 
Q 2531 1113 2531 2053 
Q 2531 2772 2437 3217 
Q 2344 3663 2176 3856 
Q 2009 4050 1772 4050 
Q 1556 4050 1411 3922 
Q 1266 3794 1177 3553 
Q 1088 3313 1050 2967 
Q 1013 2622 1013 2188 
z
" transform="scale(0.015625)"/>
       </defs>
       <use xlink:href="#Cambria-2212"/>
       <use xlink:href="#Cambria-31" x="55.371094"/>
       <use xlink:href="#Cambria-30" x="110.742188"/>
      </g>
     </g>
    </g>
    <g id="xtick_2">
     <g id="line2d_3">
      <path d="M 118.726179 257.098125 
L 118.726179 20.838125 
" clip-path="url(#peca87344c4)" style="fill: none; stroke-dasharray: 0.8,1.32; stroke-dashoffset: 0; stroke: #b0b0b0; stroke-width: 0.8"/>
     </g>
     <g id="line2d_4">
      <g>
       <use xlink:href="#m50d30c135e" x="118.726179" y="257.098125" style="stroke: #000000; stroke-width: 0.8"/>
      </g>
     </g>
     <g id="text_2">
      <!-- −5 -->
      <g transform="translate(113.188679 271.085625) scale(0.1 -0.1)">
       <defs>
        <path id="Cambria-35" d="M 469 172 
L 469 834 
L 847 834 
Q 941 516 1130 366 
Q 1319 216 1619 216 
Q 2034 216 2246 466 
Q 2459 716 2459 1213 
Q 2459 1544 2346 1761 
Q 2234 1978 2043 2075 
Q 1853 2172 1600 2172 
Q 1388 2172 1234 2145 
Q 1081 2119 906 2063 
L 656 2209 
L 656 4266 
L 2378 4266 
Q 2484 4266 2531 4283 
Q 2578 4300 2606 4336 
Q 2634 4372 2672 4472 
L 2916 4472 
L 2869 3747 
L 1072 3747 
L 1072 2375 
Q 1234 2444 1425 2478 
Q 1616 2513 1806 2513 
Q 2178 2513 2465 2361 
Q 2753 2209 2909 1929 
Q 3066 1650 3066 1281 
Q 3066 863 2891 563 
Q 2716 263 2384 106 
Q 2053 -50 1600 -50 
Q 1059 -50 469 172 
z
" transform="scale(0.015625)"/>
       </defs>
       <use xlink:href="#Cambria-2212"/>
       <use xlink:href="#Cambria-35" x="55.371094"/>
      </g>
     </g>
    </g>
    <g id="xtick_3">
     <g id="line2d_5">
      <path d="M 160.978357 257.098125 
L 160.978357 20.838125 
" clip-path="url(#peca87344c4)" style="fill: none; stroke-dasharray: 0.8,1.32; stroke-dashoffset: 0; stroke: #b0b0b0; stroke-width: 0.8"/>
     </g>
     <g id="line2d_6">
      <g>
       <use xlink:href="#m50d30c135e" x="160.978357" y="257.098125" style="stroke: #000000; stroke-width: 0.8"/>
      </g>
     </g>
     <g id="text_3">
      <!-- 0 -->
      <g transform="translate(158.209607 271.085625) scale(0.1 -0.1)">
       <use xlink:href="#Cambria-30"/>
      </g>
     </g>
    </g>
    <g id="xtick_4">
     <g id="line2d_7">
      <path d="M 203.230534 257.098125 
L 203.230534 20.838125 
" clip-path="url(#peca87344c4)" style="fill: none; stroke-dasharray: 0.8,1.32; stroke-dashoffset: 0; stroke: #b0b0b0; stroke-width: 0.8"/>
     </g>
     <g id="line2d_8">
      <g>
       <use xlink:href="#m50d30c135e" x="203.230534" y="257.098125" style="stroke: #000000; stroke-width: 0.8"/>
      </g>
     </g>
     <g id="text_4">
      <!-- 5 -->
      <g transform="translate(200.461784 271.085625) scale(0.1 -0.1)">
       <use xlink:href="#Cambria-35"/>
      </g>
     </g>
    </g>
    <g id="xtick_5">
     <g id="line2d_9">
      <path d="M 245.482711 257.098125 
L 245.482711 20.838125 
" clip-path="url(#peca87344c4)" style="fill: none; stroke-dasharray: 0.8,1.32; stroke-dashoffset: 0; stroke: #b0b0b0; stroke-width: 0.8"/>
     </g>
     <g id="line2d_10">
      <g>
       <use xlink:href="#m50d30c135e" x="245.482711" y="257.098125" style="stroke: #000000; stroke-width: 0.8"/>
      </g>
     </g>
     <g id="text_5">
      <!-- 10 -->
      <g transform="translate(239.945211 271.085625) scale(0.1 -0.1)">
       <use xlink:href="#Cambria-31"/>
       <use xlink:href="#Cambria-30" x="55.371094"/>
      </g>
     </g>
    </g>
    <g id="text_6">
     <!-- Displacement (mm) -->
     <g transform="translate(121.128594 284.129375) scale(0.1 -0.1)">
      <defs>
       <path id="TimesNewRomanPSMT-44" d="M 109 0 
L 109 116 
L 269 116 
Q 538 116 650 288 
Q 719 391 719 750 
L 719 3488 
Q 719 3884 631 3984 
Q 509 4122 269 4122 
L 109 4122 
L 109 4238 
L 1834 4238 
Q 2784 4238 3279 4022 
Q 3775 3806 4076 3303 
Q 4378 2800 4378 2141 
Q 4378 1256 3841 663 
Q 3238 0 2003 0 
L 109 0 
z
M 1319 306 
Q 1716 219 1984 219 
Q 2709 219 3187 728 
Q 3666 1238 3666 2109 
Q 3666 2988 3187 3494 
Q 2709 4000 1959 4000 
Q 1678 4000 1319 3909 
L 1319 306 
z
" transform="scale(0.015625)"/>
       <path id="TimesNewRomanPSMT-69" d="M 928 4444 
Q 1059 4444 1151 4351 
Q 1244 4259 1244 4128 
Q 1244 3997 1151 3903 
Q 1059 3809 928 3809 
Q 797 3809 703 3903 
Q 609 3997 609 4128 
Q 609 4259 701 4351 
Q 794 4444 928 4444 
z
M 1188 2947 
L 1188 647 
Q 1188 378 1227 289 
Q 1266 200 1342 156 
Q 1419 113 1622 113 
L 1622 0 
L 231 0 
L 231 113 
Q 441 113 512 153 
Q 584 194 626 287 
Q 669 381 669 647 
L 669 1750 
Q 669 2216 641 2353 
Q 619 2453 572 2492 
Q 525 2531 444 2531 
Q 356 2531 231 2484 
L 188 2597 
L 1050 2947 
L 1188 2947 
z
" transform="scale(0.015625)"/>
       <path id="TimesNewRomanPSMT-73" d="M 2050 2947 
L 2050 1972 
L 1947 1972 
Q 1828 2431 1642 2597 
Q 1456 2763 1169 2763 
Q 950 2763 815 2647 
Q 681 2531 681 2391 
Q 681 2216 781 2091 
Q 878 1963 1175 1819 
L 1631 1597 
Q 2266 1288 2266 781 
Q 2266 391 1970 151 
Q 1675 -88 1309 -88 
Q 1047 -88 709 6 
Q 606 38 541 38 
Q 469 38 428 -44 
L 325 -44 
L 325 978 
L 428 978 
Q 516 541 762 319 
Q 1009 97 1316 97 
Q 1531 97 1667 223 
Q 1803 350 1803 528 
Q 1803 744 1651 891 
Q 1500 1038 1047 1263 
Q 594 1488 453 1669 
Q 313 1847 313 2119 
Q 313 2472 555 2709 
Q 797 2947 1181 2947 
Q 1350 2947 1591 2875 
Q 1750 2828 1803 2828 
Q 1853 2828 1881 2850 
Q 1909 2872 1947 2947 
L 2050 2947 
z
" transform="scale(0.015625)"/>
       <path id="TimesNewRomanPSMT-70" d="M -6 2578 
L 875 2934 
L 994 2934 
L 994 2266 
Q 1216 2644 1439 2795 
Q 1663 2947 1909 2947 
Q 2341 2947 2628 2609 
Q 2981 2197 2981 1534 
Q 2981 794 2556 309 
Q 2206 -88 1675 -88 
Q 1444 -88 1275 -22 
Q 1150 25 994 166 
L 994 -706 
Q 994 -1000 1030 -1079 
Q 1066 -1159 1155 -1206 
Q 1244 -1253 1478 -1253 
L 1478 -1369 
L -22 -1369 
L -22 -1253 
L 56 -1253 
Q 228 -1256 350 -1188 
Q 409 -1153 442 -1076 
Q 475 -1000 475 -688 
L 475 2019 
Q 475 2297 450 2372 
Q 425 2447 370 2484 
Q 316 2522 222 2522 
Q 147 2522 31 2478 
L -6 2578 
z
M 994 2081 
L 994 1013 
Q 994 666 1022 556 
Q 1066 375 1236 237 
Q 1406 100 1666 100 
Q 1978 100 2172 344 
Q 2425 663 2425 1241 
Q 2425 1897 2138 2250 
Q 1938 2494 1663 2494 
Q 1513 2494 1366 2419 
Q 1253 2363 994 2081 
z
" transform="scale(0.015625)"/>
       <path id="TimesNewRomanPSMT-6c" d="M 1184 4444 
L 1184 647 
Q 1184 378 1223 290 
Q 1263 203 1344 158 
Q 1425 113 1647 113 
L 1647 0 
L 244 0 
L 244 113 
Q 441 113 512 153 
Q 584 194 625 287 
Q 666 381 666 647 
L 666 3247 
Q 666 3731 644 3842 
Q 622 3953 573 3993 
Q 525 4034 450 4034 
Q 369 4034 244 3984 
L 191 4094 
L 1044 4444 
L 1184 4444 
z
" transform="scale(0.015625)"/>
       <path id="TimesNewRomanPSMT-61" d="M 1822 413 
Q 1381 72 1269 19 
Q 1100 -59 909 -59 
Q 613 -59 420 144 
Q 228 347 228 678 
Q 228 888 322 1041 
Q 450 1253 767 1440 
Q 1084 1628 1822 1897 
L 1822 2009 
Q 1822 2438 1686 2597 
Q 1550 2756 1291 2756 
Q 1094 2756 978 2650 
Q 859 2544 859 2406 
L 866 2225 
Q 866 2081 792 2003 
Q 719 1925 600 1925 
Q 484 1925 411 2006 
Q 338 2088 338 2228 
Q 338 2497 613 2722 
Q 888 2947 1384 2947 
Q 1766 2947 2009 2819 
Q 2194 2722 2281 2516 
Q 2338 2381 2338 1966 
L 2338 994 
Q 2338 584 2353 492 
Q 2369 400 2405 369 
Q 2441 338 2488 338 
Q 2538 338 2575 359 
Q 2641 400 2828 588 
L 2828 413 
Q 2478 -56 2159 -56 
Q 2006 -56 1915 50 
Q 1825 156 1822 413 
z
M 1822 616 
L 1822 1706 
Q 1350 1519 1213 1441 
Q 966 1303 859 1153 
Q 753 1003 753 825 
Q 753 600 887 451 
Q 1022 303 1197 303 
Q 1434 303 1822 616 
z
" transform="scale(0.015625)"/>
       <path id="TimesNewRomanPSMT-63" d="M 2631 1088 
Q 2516 522 2178 217 
Q 1841 -88 1431 -88 
Q 944 -88 581 321 
Q 219 731 219 1428 
Q 219 2103 620 2525 
Q 1022 2947 1584 2947 
Q 2006 2947 2278 2723 
Q 2550 2500 2550 2259 
Q 2550 2141 2473 2067 
Q 2397 1994 2259 1994 
Q 2075 1994 1981 2113 
Q 1928 2178 1911 2362 
Q 1894 2547 1784 2644 
Q 1675 2738 1481 2738 
Q 1169 2738 978 2506 
Q 725 2200 725 1697 
Q 725 1184 976 792 
Q 1228 400 1656 400 
Q 1963 400 2206 609 
Q 2378 753 2541 1131 
L 2631 1088 
z
" transform="scale(0.015625)"/>
       <path id="TimesNewRomanPSMT-65" d="M 681 1784 
Q 678 1147 991 784 
Q 1303 422 1725 422 
Q 2006 422 2214 576 
Q 2422 731 2563 1106 
L 2659 1044 
Q 2594 616 2278 264 
Q 1963 -88 1488 -88 
Q 972 -88 605 314 
Q 238 716 238 1394 
Q 238 2128 614 2539 
Q 991 2950 1559 2950 
Q 2041 2950 2350 2633 
Q 2659 2316 2659 1784 
L 681 1784 
z
M 681 1966 
L 2006 1966 
Q 1991 2241 1941 2353 
Q 1863 2528 1708 2628 
Q 1553 2728 1384 2728 
Q 1125 2728 920 2526 
Q 716 2325 681 1966 
z
" transform="scale(0.015625)"/>
       <path id="TimesNewRomanPSMT-6d" d="M 1050 2338 
Q 1363 2650 1419 2697 
Q 1559 2816 1721 2881 
Q 1884 2947 2044 2947 
Q 2313 2947 2506 2790 
Q 2700 2634 2766 2338 
Q 3088 2713 3309 2830 
Q 3531 2947 3766 2947 
Q 3994 2947 4170 2830 
Q 4347 2713 4450 2447 
Q 4519 2266 4519 1878 
L 4519 647 
Q 4519 378 4559 278 
Q 4591 209 4675 161 
Q 4759 113 4950 113 
L 4950 0 
L 3538 0 
L 3538 113 
L 3597 113 
Q 3781 113 3884 184 
Q 3956 234 3988 344 
Q 4000 397 4000 647 
L 4000 1878 
Q 4000 2228 3916 2372 
Q 3794 2572 3525 2572 
Q 3359 2572 3192 2489 
Q 3025 2406 2788 2181 
L 2781 2147 
L 2788 2013 
L 2788 647 
Q 2788 353 2820 281 
Q 2853 209 2943 161 
Q 3034 113 3253 113 
L 3253 0 
L 1806 0 
L 1806 113 
Q 2044 113 2133 169 
Q 2222 225 2256 338 
Q 2272 391 2272 647 
L 2272 1878 
Q 2272 2228 2169 2381 
Q 2031 2581 1784 2581 
Q 1616 2581 1450 2491 
Q 1191 2353 1050 2181 
L 1050 647 
Q 1050 366 1089 281 
Q 1128 197 1204 155 
Q 1281 113 1516 113 
L 1516 0 
L 100 0 
L 100 113 
Q 297 113 375 155 
Q 453 197 493 289 
Q 534 381 534 647 
L 534 1741 
Q 534 2213 506 2350 
Q 484 2453 437 2492 
Q 391 2531 309 2531 
Q 222 2531 100 2484 
L 53 2597 
L 916 2947 
L 1050 2947 
L 1050 2338 
z
" transform="scale(0.015625)"/>
       <path id="TimesNewRomanPSMT-6e" d="M 1034 2341 
Q 1538 2947 1994 2947 
Q 2228 2947 2397 2830 
Q 2566 2713 2666 2444 
Q 2734 2256 2734 1869 
L 2734 647 
Q 2734 375 2778 278 
Q 2813 200 2889 156 
Q 2966 113 3172 113 
L 3172 0 
L 1756 0 
L 1756 113 
L 1816 113 
Q 2016 113 2095 173 
Q 2175 234 2206 353 
Q 2219 400 2219 647 
L 2219 1819 
Q 2219 2209 2117 2386 
Q 2016 2563 1775 2563 
Q 1403 2563 1034 2156 
L 1034 647 
Q 1034 356 1069 288 
Q 1113 197 1189 155 
Q 1266 113 1500 113 
L 1500 0 
L 84 0 
L 84 113 
L 147 113 
Q 366 113 442 223 
Q 519 334 519 647 
L 519 1709 
Q 519 2225 495 2337 
Q 472 2450 423 2490 
Q 375 2531 294 2531 
Q 206 2531 84 2484 
L 38 2597 
L 900 2947 
L 1034 2947 
L 1034 2341 
z
" transform="scale(0.015625)"/>
       <path id="TimesNewRomanPSMT-74" d="M 1031 3803 
L 1031 2863 
L 1700 2863 
L 1700 2644 
L 1031 2644 
L 1031 788 
Q 1031 509 1111 412 
Q 1191 316 1316 316 
Q 1419 316 1516 380 
Q 1613 444 1666 569 
L 1788 569 
Q 1678 263 1478 108 
Q 1278 -47 1066 -47 
Q 922 -47 784 33 
Q 647 113 581 261 
Q 516 409 516 719 
L 516 2644 
L 63 2644 
L 63 2747 
Q 234 2816 414 2980 
Q 594 3144 734 3369 
Q 806 3488 934 3803 
L 1031 3803 
z
" transform="scale(0.015625)"/>
       <path id="TimesNewRomanPSMT-20" transform="scale(0.015625)"/>
       <path id="TimesNewRomanPSMT-28" d="M 1988 -1253 
L 1988 -1369 
Q 1516 -1131 1200 -813 
Q 750 -359 506 256 
Q 263 872 263 1534 
Q 263 2503 741 3301 
Q 1219 4100 1988 4444 
L 1988 4313 
Q 1603 4100 1356 3731 
Q 1109 3363 987 2797 
Q 866 2231 866 1616 
Q 866 947 969 400 
Q 1050 -31 1165 -292 
Q 1281 -553 1476 -793 
Q 1672 -1034 1988 -1253 
z
" transform="scale(0.015625)"/>
       <path id="TimesNewRomanPSMT-29" d="M 144 4313 
L 144 4444 
Q 619 4209 934 3891 
Q 1381 3434 1625 2820 
Q 1869 2206 1869 1541 
Q 1869 572 1392 -226 
Q 916 -1025 144 -1369 
L 144 -1253 
Q 528 -1038 776 -670 
Q 1025 -303 1145 264 
Q 1266 831 1266 1447 
Q 1266 2113 1163 2663 
Q 1084 3094 967 3353 
Q 850 3613 656 3853 
Q 463 4094 144 4313 
z
" transform="scale(0.015625)"/>
      </defs>
      <use xlink:href="#TimesNewRomanPSMT-44"/>
      <use xlink:href="#TimesNewRomanPSMT-69" x="72.216797"/>
      <use xlink:href="#TimesNewRomanPSMT-73" x="100"/>
      <use xlink:href="#TimesNewRomanPSMT-70" x="138.916016"/>
      <use xlink:href="#TimesNewRomanPSMT-6c" x="188.916016"/>
      <use xlink:href="#TimesNewRomanPSMT-61" x="216.699219"/>
      <use xlink:href="#TimesNewRomanPSMT-63" x="261.083984"/>
      <use xlink:href="#TimesNewRomanPSMT-65" x="305.46875"/>
      <use xlink:href="#TimesNewRomanPSMT-6d" x="349.853516"/>
      <use xlink:href="#TimesNewRomanPSMT-65" x="427.636719"/>
      <use xlink:href="#TimesNewRomanPSMT-6e" x="472.021484"/>
      <use xlink:href="#TimesNewRomanPSMT-74" x="522.021484"/>
      <use xlink:href="#TimesNewRomanPSMT-20" x="549.804688"/>
      <use xlink:href="#TimesNewRomanPSMT-28" x="574.804688"/>
      <use xlink:href="#TimesNewRomanPSMT-6d" x="608.105469"/>
      <use xlink:href="#TimesNewRomanPSMT-6d" x="685.888672"/>
      <use xlink:href="#TimesNewRomanPSMT-29" x="763.671875"/>
     </g>
    </g>
   </g>
   <g id="matplotlib.axis_2">
    <g id="ytick_1">
     <g id="line2d_11">
      <path d="M 49.432813 248.637668 
L 272.522812 248.637668 
" clip-path="url(#peca87344c4)" style="fill: none; stroke-dasharray: 0.8,1.32; stroke-dashoffset: 0; stroke: #b0b0b0; stroke-width: 0.8"/>
     </g>
     <g id="line2d_12">
      <defs>
       <path id="md9f8d9ad29" d="M 0 0 
L -3.5 0 
" style="stroke: #000000; stroke-width: 0.8"/>
      </defs>
      <g>
       <use xlink:href="#md9f8d9ad29" x="49.432813" y="248.637668" style="stroke: #000000; stroke-width: 0.8"/>
      </g>
     </g>
     <g id="text_7">
      <!-- −200 -->
      <g transform="translate(20.282813 252.131418) scale(0.1 -0.1)">
       <defs>
        <path id="Cambria-32" d="M 2194 500 
Q 2347 500 2440 519 
Q 2534 538 2590 581 
Q 2647 625 2680 695 
Q 2713 766 2763 913 
L 3028 913 
L 2975 0 
L 403 0 
L 403 150 
Q 538 478 766 822 
Q 994 1166 1413 1631 
Q 1775 2031 1934 2238 
Q 2109 2463 2195 2627 
Q 2281 2791 2318 2936 
Q 2356 3081 2356 3228 
Q 2356 3463 2281 3642 
Q 2206 3822 2051 3925 
Q 1897 4028 1663 4028 
Q 1078 4028 875 3378 
L 497 3378 
L 497 3978 
Q 875 4156 1204 4236 
Q 1534 4316 1797 4316 
Q 2378 4316 2675 4061 
Q 2972 3806 2972 3322 
Q 2972 3156 2939 3017 
Q 2906 2878 2836 2742 
Q 2766 2606 2647 2450 
Q 2528 2294 2384 2133 
Q 2241 1972 1888 1597 
Q 1294 969 1016 500 
L 2194 500 
z
" transform="scale(0.015625)"/>
       </defs>
       <use xlink:href="#Cambria-2212"/>
       <use xlink:href="#Cambria-32" x="55.371094"/>
       <use xlink:href="#Cambria-30" x="110.742188"/>
       <use xlink:href="#Cambria-30" x="166.113281"/>
      </g>
     </g>
    </g>
    <g id="ytick_2">
     <g id="line2d_13">
      <path d="M 49.432813 220.711663 
L 272.522812 220.711663 
" clip-path="url(#peca87344c4)" style="fill: none; stroke-dasharray: 0.8,1.32; stroke-dashoffset: 0; stroke: #b0b0b0; stroke-width: 0.8"/>
     </g>
     <g id="line2d_14">
      <g>
       <use xlink:href="#md9f8d9ad29" x="49.432813" y="220.711663" style="stroke: #000000; stroke-width: 0.8"/>
      </g>
     </g>
     <g id="text_8">
      <!-- −150 -->
      <g transform="translate(20.282813 224.205413) scale(0.1 -0.1)">
       <use xlink:href="#Cambria-2212"/>
       <use xlink:href="#Cambria-31" x="55.371094"/>
       <use xlink:href="#Cambria-35" x="110.742188"/>
       <use xlink:href="#Cambria-30" x="166.113281"/>
      </g>
     </g>
    </g>
    <g id="ytick_3">
     <g id="line2d_15">
      <path d="M 49.432813 192.785659 
L 272.522812 192.785659 
" clip-path="url(#peca87344c4)" style="fill: none; stroke-dasharray: 0.8,1.32; stroke-dashoffset: 0; stroke: #b0b0b0; stroke-width: 0.8"/>
     </g>
     <g id="line2d_16">
      <g>
       <use xlink:href="#md9f8d9ad29" x="49.432813" y="192.785659" style="stroke: #000000; stroke-width: 0.8"/>
      </g>
     </g>
     <g id="text_9">
      <!-- −100 -->
      <g transform="translate(20.282813 196.279409) scale(0.1 -0.1)">
       <use xlink:href="#Cambria-2212"/>
       <use xlink:href="#Cambria-31" x="55.371094"/>
       <use xlink:href="#Cambria-30" x="110.742188"/>
       <use xlink:href="#Cambria-30" x="166.113281"/>
      </g>
     </g>
    </g>
    <g id="ytick_4">
     <g id="line2d_17">
      <path d="M 49.432813 164.859654 
L 272.522812 164.859654 
" clip-path="url(#peca87344c4)" style="fill: none; stroke-dasharray: 0.8,1.32; stroke-dashoffset: 0; stroke: #b0b0b0; stroke-width: 0.8"/>
     </g>
     <g id="line2d_18">
      <g>
       <use xlink:href="#md9f8d9ad29" x="49.432813" y="164.859654" style="stroke: #000000; stroke-width: 0.8"/>
      </g>
     </g>
     <g id="text_10">
      <!-- −50 -->
      <g transform="translate(25.820313 168.353404) scale(0.1 -0.1)">
       <use xlink:href="#Cambria-2212"/>
       <use xlink:href="#Cambria-35" x="55.371094"/>
       <use xlink:href="#Cambria-30" x="110.742188"/>
      </g>
     </g>
    </g>
    <g id="ytick_5">
     <g id="line2d_19">
      <path d="M 49.432813 136.93365 
L 272.522812 136.93365 
" clip-path="url(#peca87344c4)" style="fill: none; stroke-dasharray: 0.8,1.32; stroke-dashoffset: 0; stroke: #b0b0b0; stroke-width: 0.8"/>
     </g>
     <g id="line2d_20">
      <g>
       <use xlink:href="#md9f8d9ad29" x="49.432813" y="136.93365" style="stroke: #000000; stroke-width: 0.8"/>
      </g>
     </g>
     <g id="text_11">
      <!-- 0 -->
      <g transform="translate(36.895313 140.4274) scale(0.1 -0.1)">
       <use xlink:href="#Cambria-30"/>
      </g>
     </g>
    </g>
    <g id="ytick_6">
     <g id="line2d_21">
      <path d="M 49.432813 109.007645 
L 272.522812 109.007645 
" clip-path="url(#peca87344c4)" style="fill: none; stroke-dasharray: 0.8,1.32; stroke-dashoffset: 0; stroke: #b0b0b0; stroke-width: 0.8"/>
     </g>
     <g id="line2d_22">
      <g>
       <use xlink:href="#md9f8d9ad29" x="49.432813" y="109.007645" style="stroke: #000000; stroke-width: 0.8"/>
      </g>
     </g>
     <g id="text_12">
      <!-- 50 -->
      <g transform="translate(31.357813 112.501395) scale(0.1 -0.1)">
       <use xlink:href="#Cambria-35"/>
       <use xlink:href="#Cambria-30" x="55.371094"/>
      </g>
     </g>
    </g>
    <g id="ytick_7">
     <g id="line2d_23">
      <path d="M 49.432813 81.081641 
L 272.522812 81.081641 
" clip-path="url(#peca87344c4)" style="fill: none; stroke-dasharray: 0.8,1.32; stroke-dashoffset: 0; stroke: #b0b0b0; stroke-width: 0.8"/>
     </g>
     <g id="line2d_24">
      <g>
       <use xlink:href="#md9f8d9ad29" x="49.432813" y="81.081641" style="stroke: #000000; stroke-width: 0.8"/>
      </g>
     </g>
     <g id="text_13">
      <!-- 100 -->
      <g transform="translate(25.820313 84.575391) scale(0.1 -0.1)">
       <use xlink:href="#Cambria-31"/>
       <use xlink:href="#Cambria-30" x="55.371094"/>
       <use xlink:href="#Cambria-30" x="110.742188"/>
      </g>
     </g>
    </g>
    <g id="ytick_8">
     <g id="line2d_25">
      <path d="M 49.432813 53.155636 
L 272.522812 53.155636 
" clip-path="url(#peca87344c4)" style="fill: none; stroke-dasharray: 0.8,1.32; stroke-dashoffset: 0; stroke: #b0b0b0; stroke-width: 0.8"/>
     </g>
     <g id="line2d_26">
      <g>
       <use xlink:href="#md9f8d9ad29" x="49.432813" y="53.155636" style="stroke: #000000; stroke-width: 0.8"/>
      </g>
     </g>
     <g id="text_14">
      <!-- 150 -->
      <g transform="translate(25.820313 56.649386) scale(0.1 -0.1)">
       <use xlink:href="#Cambria-31"/>
       <use xlink:href="#Cambria-35" x="55.371094"/>
       <use xlink:href="#Cambria-30" x="110.742188"/>
      </g>
     </g>
    </g>
    <g id="ytick_9">
     <g id="line2d_27">
      <path d="M 49.432813 25.229631 
L 272.522812 25.229631 
" clip-path="url(#peca87344c4)" style="fill: none; stroke-dasharray: 0.8,1.32; stroke-dashoffset: 0; stroke: #b0b0b0; stroke-width: 0.8"/>
     </g>
     <g id="line2d_28">
      <g>
       <use xlink:href="#md9f8d9ad29" x="49.432813" y="25.229631" style="stroke: #000000; stroke-width: 0.8"/>
      </g>
     </g>
     <g id="text_15">
      <!-- 200 -->
      <g transform="translate(25.820313 28.723381) scale(0.1 -0.1)">
       <use xlink:href="#Cambria-32"/>
       <use xlink:href="#Cambria-30" x="55.371094"/>
       <use xlink:href="#Cambria-30" x="110.742188"/>
      </g>
     </g>
    </g>
    <g id="text_16">
     <!-- Base Shear (kN) -->
     <g transform="translate(14.14375 172.013437) rotate(-90) scale(0.1 -0.1)">
      <defs>
       <path id="TimesNewRomanPSMT-42" d="M 2956 2163 
Q 3397 2069 3616 1863 
Q 3919 1575 3919 1159 
Q 3919 844 3719 555 
Q 3519 266 3170 133 
Q 2822 0 2106 0 
L 106 0 
L 106 116 
L 266 116 
Q 531 116 647 284 
Q 719 394 719 750 
L 719 3488 
Q 719 3881 628 3984 
Q 506 4122 266 4122 
L 106 4122 
L 106 4238 
L 1938 4238 
Q 2450 4238 2759 4163 
Q 3228 4050 3475 3764 
Q 3722 3478 3722 3106 
Q 3722 2788 3528 2536 
Q 3334 2284 2956 2163 
z
M 1319 2331 
Q 1434 2309 1582 2298 
Q 1731 2288 1909 2288 
Q 2366 2288 2595 2386 
Q 2825 2484 2947 2687 
Q 3069 2891 3069 3131 
Q 3069 3503 2766 3765 
Q 2463 4028 1881 4028 
Q 1569 4028 1319 3959 
L 1319 2331 
z
M 1319 306 
Q 1681 222 2034 222 
Q 2600 222 2897 476 
Q 3194 731 3194 1106 
Q 3194 1353 3059 1581 
Q 2925 1809 2622 1940 
Q 2319 2072 1872 2072 
Q 1678 2072 1540 2065 
Q 1403 2059 1319 2044 
L 1319 306 
z
" transform="scale(0.015625)"/>
       <path id="TimesNewRomanPSMT-53" d="M 2934 4334 
L 2934 2869 
L 2819 2869 
Q 2763 3291 2617 3541 
Q 2472 3791 2203 3937 
Q 1934 4084 1647 4084 
Q 1322 4084 1109 3886 
Q 897 3688 897 3434 
Q 897 3241 1031 3081 
Q 1225 2847 1953 2456 
Q 2547 2138 2764 1967 
Q 2981 1797 3098 1565 
Q 3216 1334 3216 1081 
Q 3216 600 2842 251 
Q 2469 -97 1881 -97 
Q 1697 -97 1534 -69 
Q 1438 -53 1133 45 
Q 828 144 747 144 
Q 669 144 623 97 
Q 578 50 556 -97 
L 441 -97 
L 441 1356 
L 556 1356 
Q 638 900 775 673 
Q 913 447 1195 297 
Q 1478 147 1816 147 
Q 2206 147 2432 353 
Q 2659 559 2659 841 
Q 2659 997 2573 1156 
Q 2488 1316 2306 1453 
Q 2184 1547 1640 1851 
Q 1097 2156 867 2337 
Q 638 2519 519 2737 
Q 400 2956 400 3219 
Q 400 3675 750 4004 
Q 1100 4334 1641 4334 
Q 1978 4334 2356 4169 
Q 2531 4091 2603 4091 
Q 2684 4091 2736 4139 
Q 2788 4188 2819 4334 
L 2934 4334 
z
" transform="scale(0.015625)"/>
       <path id="TimesNewRomanPSMT-68" d="M 1041 4444 
L 1041 2350 
Q 1388 2731 1591 2839 
Q 1794 2947 1997 2947 
Q 2241 2947 2416 2812 
Q 2591 2678 2675 2391 
Q 2734 2191 2734 1659 
L 2734 647 
Q 2734 375 2778 275 
Q 2809 200 2884 156 
Q 2959 113 3159 113 
L 3159 0 
L 1753 0 
L 1753 113 
L 1819 113 
Q 2019 113 2097 173 
Q 2175 234 2206 353 
Q 2216 403 2216 647 
L 2216 1659 
Q 2216 2128 2167 2275 
Q 2119 2422 2012 2495 
Q 1906 2569 1756 2569 
Q 1603 2569 1437 2487 
Q 1272 2406 1041 2159 
L 1041 647 
Q 1041 353 1073 281 
Q 1106 209 1195 161 
Q 1284 113 1503 113 
L 1503 0 
L 84 0 
L 84 113 
Q 275 113 384 172 
Q 447 203 484 290 
Q 522 378 522 647 
L 522 3238 
Q 522 3728 498 3840 
Q 475 3953 426 3993 
Q 378 4034 297 4034 
Q 231 4034 84 3984 
L 41 4094 
L 897 4444 
L 1041 4444 
z
" transform="scale(0.015625)"/>
       <path id="TimesNewRomanPSMT-72" d="M 1038 2947 
L 1038 2303 
Q 1397 2947 1775 2947 
Q 1947 2947 2059 2842 
Q 2172 2738 2172 2600 
Q 2172 2478 2090 2393 
Q 2009 2309 1897 2309 
Q 1788 2309 1652 2417 
Q 1516 2525 1450 2525 
Q 1394 2525 1328 2463 
Q 1188 2334 1038 2041 
L 1038 669 
Q 1038 431 1097 309 
Q 1138 225 1241 169 
Q 1344 113 1538 113 
L 1538 0 
L 72 0 
L 72 113 
Q 291 113 397 181 
Q 475 231 506 341 
Q 522 394 522 644 
L 522 1753 
Q 522 2253 501 2348 
Q 481 2444 426 2487 
Q 372 2531 291 2531 
Q 194 2531 72 2484 
L 41 2597 
L 906 2947 
L 1038 2947 
z
" transform="scale(0.015625)"/>
       <path id="TimesNewRomanPSMT-6b" d="M 1047 4444 
L 1047 1597 
L 1775 2259 
Q 2006 2472 2044 2528 
Q 2069 2566 2069 2603 
Q 2069 2666 2017 2711 
Q 1966 2756 1847 2763 
L 1847 2863 
L 3091 2863 
L 3091 2763 
Q 2834 2756 2664 2684 
Q 2494 2613 2291 2428 
L 1556 1750 
L 2291 822 
Q 2597 438 2703 334 
Q 2853 188 2966 144 
Q 3044 113 3238 113 
L 3238 0 
L 1847 0 
L 1847 113 
Q 1966 116 2008 148 
Q 2050 181 2050 241 
Q 2050 313 1925 472 
L 1047 1594 
L 1047 644 
Q 1047 366 1086 278 
Q 1125 191 1197 153 
Q 1269 116 1509 113 
L 1509 0 
L 53 0 
L 53 113 
Q 272 113 381 166 
Q 447 200 481 272 
Q 528 375 528 628 
L 528 3234 
Q 528 3731 506 3842 
Q 484 3953 434 3995 
Q 384 4038 303 4038 
Q 238 4038 106 3984 
L 53 4094 
L 903 4444 
L 1047 4444 
z
" transform="scale(0.015625)"/>
       <path id="TimesNewRomanPSMT-4e" d="M -84 4238 
L 1066 4238 
L 3656 1059 
L 3656 3503 
Q 3656 3894 3569 3991 
Q 3453 4122 3203 4122 
L 3056 4122 
L 3056 4238 
L 4531 4238 
L 4531 4122 
L 4381 4122 
Q 4113 4122 4000 3959 
Q 3931 3859 3931 3503 
L 3931 -69 
L 3819 -69 
L 1025 3344 
L 1025 734 
Q 1025 344 1109 247 
Q 1228 116 1475 116 
L 1625 116 
L 1625 0 
L 150 0 
L 150 116 
L 297 116 
Q 569 116 681 278 
Q 750 378 750 734 
L 750 3681 
Q 566 3897 470 3965 
Q 375 4034 191 4094 
Q 100 4122 -84 4122 
L -84 4238 
z
" transform="scale(0.015625)"/>
      </defs>
      <use xlink:href="#TimesNewRomanPSMT-42"/>
      <use xlink:href="#TimesNewRomanPSMT-61" x="66.699219"/>
      <use xlink:href="#TimesNewRomanPSMT-73" x="111.083984"/>
      <use xlink:href="#TimesNewRomanPSMT-65" x="150"/>
      <use xlink:href="#TimesNewRomanPSMT-20" x="194.384766"/>
      <use xlink:href="#TimesNewRomanPSMT-53" x="219.384766"/>
      <use xlink:href="#TimesNewRomanPSMT-68" x="275"/>
      <use xlink:href="#TimesNewRomanPSMT-65" x="325"/>
      <use xlink:href="#TimesNewRomanPSMT-61" x="369.384766"/>
      <use xlink:href="#TimesNewRomanPSMT-72" x="413.769531"/>
      <use xlink:href="#TimesNewRomanPSMT-20" x="447.070312"/>
      <use xlink:href="#TimesNewRomanPSMT-28" x="472.070312"/>
      <use xlink:href="#TimesNewRomanPSMT-6b" x="505.371094"/>
      <use xlink:href="#TimesNewRomanPSMT-4e" x="555.371094"/>
      <use xlink:href="#TimesNewRomanPSMT-29" x="627.587891"/>
     </g>
    </g>
   </g>
   <g id="line2d_29">
    <path d="M 160.978357 136.93365 
L 162.305764 71.157879 
L 163.624969 52.392331 
L 164.927824 52.551625 
L 166.206278 54.902871 
L 167.452433 49.988464 
L 168.65859 47.833482 
L 169.817297 47.849081 
L 170.921396 46.331725 
L 171.964064 46.87883 
L 172.93886 46.750045 
L 173.839763 47.378616 
L 174.661205 45.777701 
L 176.04593 44.951015 
L 177.879205 44.238496 
L 177.666359 46.483473 
L 177.041744 50.311933 
L 176.57945 52.056891 
L 173.803775 59.392421 
L 170.876572 66.706706 
L 167.401256 74.04232 
L 166.1536 76.248964 
L 163.570273 81.609287 
L 162.250562 91.959189 
L 160.922991 154.1335 
L 159.595762 207.749586 
L 158.277075 221.700423 
L 156.975078 228.517467 
L 155.697813 232.585933 
L 154.453172 236.017934 
L 153.248846 238.894541 
L 152.092273 240.595672 
L 149.950635 242.906317 
L 148.0811 244.494473 
L 145.335014 246.212742 
L 144.88089 246.213757 
L 144.526219 246.359034 
L 144.273193 235.879447 
L 144.07769 236.388009 
L 144.565033 231.662385 
L 145.398639 225.628804 
L 145.961264 223.407227 
L 146.616667 220.203131 
L 147.3608 215.403066 
L 148.189064 213.346548 
L 150.077032 201.583178 
L 151.125071 195.57223 
L 153.396925 181.700922 
L 154.606703 174.845386 
L 155.855847 170.770366 
L 157.136638 167.515892 
L 158.441165 157.231688 
L 159.761367 136.166624 
L 161.089087 103.862738 
L 162.416123 80.20003 
L 163.734277 68.233405 
L 165.035404 60.246801 
L 166.311466 53.794013 
L 167.554579 48.584004 
L 168.757062 45.082336 
L 169.911488 42.213951 
L 171.010722 40.041001 
L 172.047975 38.284625 
L 173.016838 36.93559 
L 174.725909 35.066755 
L 177.443079 32.800042 
L 177.878661 32.550549 
L 177.378389 38.882524 
L 176.536531 47.656491 
L 175.310782 58.371675 
L 173.731386 69.61856 
L 171.837314 80.738084 
L 168.510265 98.931306 
L 167.298696 103.064207 
L 166.048078 106.350872 
L 164.766138 108.929146 
L 163.460797 118.011943 
L 162.140118 139.464976 
L 160.812262 167.026184 
L 159.485433 183.778123 
L 158.167826 193.776073 
L 156.867584 200.86136 
L 155.592739 206.873961 
L 153.15054 216.707475 
L 151.998274 220.864178 
L 149.86696 227.054149 
L 148.009816 231.749487 
L 146.472665 235.018505 
L 144.501226 238.23209 
L 144.078597 238.866181 
L 144.59179 232.632028 
L 145.441892 224.666771 
L 148.261727 203.466917 
L 150.161883 191.520752 
L 152.328931 178.291536 
L 153.496052 172.481771 
L 154.7094 168.748621 
L 155.961479 166.289751 
L 157.244553 162.019603 
L 158.550695 148.774849 
L 159.871836 127.20003 
L 161.421269 97.842165 
L 164.074487 78.226801 
L 166.708576 65.636046 
L 169.307263 55.321617 
L 171.854492 47.602512 
L 174.334527 41.482806 
L 176.732044 37.542789 
L 179.032232 34.727302 
L 181.22088 32.93141 
L 183.284466 32.128231 
L 188.601689 31.5865 
L 190.04641 31.577216 
L 191.311542 31.728802 
L 193.272937 31.804349 
L 193.957081 31.629802 
L 194.437477 31.632422 
L 194.776426 31.86624 
L 194.281421 36.996603 
L 192.964677 48.321743 
L 190.858684 62.689061 
L 189.525229 70.385941 
L 188.015406 78.152304 
L 186.338543 85.31455 
L 184.504999 92.091034 
L 182.526104 98.285355 
L 180.414083 101.802348 
L 178.181984 103.968682 
L 175.843597 106.817121 
L 168.337929 115.395766 
L 165.724071 118.461715 
L 163.080893 133.685831 
L 160.424725 176.692947 
L 157.771977 194.836965 
L 155.13904 206.029439 
L 152.542178 215.232559 
L 149.997437 222.99423 
L 147.520538 229.224647 
L 145.126784 234.373005 
L 142.830964 237.575771 
L 140.647262 239.693466 
L 138.58917 240.954945 
L 136.669402 241.320123 
L 133.291355 241.67612 
L 131.853946 241.981082 
L 130.596474 241.759097 
L 127.238671 241.7806 
L 127.182101 241.99784 
L 127.694421 236.423913 
L 128.260145 231.66061 
L 129.993267 220.031604 
L 132.490933 204.434106 
L 134.00791 195.441261 
L 135.691515 187.398396 
L 137.531348 180.103572 
L 139.51604 174.960304 
L 141.63333 171.379978 
L 143.870138 168.331591 
L 146.212644 165.779129 
L 148.646375 163.632925 
L 151.156295 160.586664 
L 153.726898 158.057457 
L 156.342302 153.544974 
L 158.986348 134.263077 
L 161.642702 96.997827 
L 164.29495 83.825412 
L 166.926709 75.04939 
L 169.521717 67.764674 
L 172.063943 62.251315 
L 176.927644 53.12203 
L 179.219071 49.946971 
L 183.450381 45.150009 
L 188.728731 39.507327 
L 193.337637 34.846186 
L 194.772436 33.605115 
L 194.242806 38.808236 
L 192.89239 49.970158 
L 190.754508 64.366652 
L 189.406025 71.940588 
L 187.881911 79.600316 
L 186.191582 86.403565 
L 184.34548 92.962581 
L 182.355012 98.770647 
L 180.232475 102.741729 
L 175.644383 107.580725 
L 173.207173 110.320997 
L 170.694412 113.433211 
L 168.121623 116.432739 
L 165.504702 121.776393 
L 162.859816 142.366495 
L 160.203306 176.493506 
L 157.551584 189.999827 
L 154.921033 198.759135 
L 152.327906 205.254917 
L 149.788223 210.320913 
L 147.317675 214.71072 
L 142.644516 222.495316 
L 140.470776 225.784853 
L 134.759483 232.447758 
L 128.587248 239.297747 
L 127.225981 240.386691 
L 127.186816 240.414174 
L 127.73375 235.223108 
L 128.31647 230.509662 
L 130.082437 218.941835 
L 132.610748 203.500702 
L 134.141983 194.58648 
L 135.839018 186.517203 
L 137.691369 178.475119 
L 139.687591 173.993418 
L 141.815352 170.899087 
L 144.061506 167.840653 
L 148.852836 162.551531 
L 151.368411 160.178541 
L 153.943359 157.509043 
L 156.56177 150.233608 
L 159.207467 125.710476 
L 162.30698 93.537465 
L 166.283729 79.490151 
L 170.2277 68.809962 
L 174.114528 61.088873 
L 177.920197 54.755579 
L 181.621197 49.159007 
L 188.618512 41.671148 
L 194.933818 35.333481 
L 197.786255 32.994431 
L 200.411287 32.346974 
L 204.915764 32.187705 
L 206.76738 32.178015 
L 208.336104 33.4099 
L 209.612242 34.58153 
L 211.257082 36.581733 
L 211.615621 35.453045 
L 211.661314 37.158185 
L 210.814966 43.923148 
L 208.73892 57.54304 
L 207.254612 65.948323 
L 205.484401 74.105834 
L 203.439223 82.033673 
L 201.131714 88.980083 
L 198.576129 94.822306 
L 195.788259 98.487473 
L 192.785326 102.004126 
L 189.585884 104.588519 
L 182.677629 109.189452 
L 179.011498 112.123807 
L 175.233955 115.475773 
L 171.368337 119.175637 
L 167.438529 127.272899 
L 163.468808 149.440298 
L 159.483701 183.25675 
L 155.507828 195.395927 
L 151.565753 204.467289 
L 147.681831 211.754439 
L 140.18392 223.153329 
L 136.616255 228.003745 
L 126.899729 238.290919 
L 124.056424 240.021366 
L 119.070304 240.437483 
L 116.958294 239.728593 
L 115.118248 237.156485 
L 113.561535 235.538081 
L 112.297772 230.887947 
L 110.300295 226.206016 
L 111.172582 221.013613 
L 113.273806 209.323098 
L 114.770222 201.48054 
L 116.55212 193.221227 
L 118.608492 185.710151 
L 120.926634 180.87224 
L 123.492222 176.969962 
L 126.289407 173.642863 
L 132.508116 167.123321 
L 135.89122 163.953432 
L 139.429317 161.20738 
L 143.100548 157.18186 
L 146.882231 148.410106 
L 150.751003 141.742609 
L 154.682962 134.743326 
L 158.653815 116.559398 
L 162.639029 90.450975 
L 166.613983 81.111327 
L 170.554119 74.479691 
L 178.232932 62.559295 
L 181.924167 58.698305 
L 185.485995 56.971684 
L 188.896409 55.078183 
L 192.134341 52.510927 
L 195.179786 49.67685 
L 198.013927 46.687521 
L 202.979675 41.152442 
L 205.080602 40.108264 
L 206.909058 41.708676 
L 208.453744 43.861974 
L 209.705119 45.204774 
L 210.655451 45.983083 
L 211.650978 47.467534 
L 210.752762 53.620698 
L 208.626383 66.098508 
L 207.117875 73.749209 
L 205.324308 81.600014 
L 203.256764 87.033145 
L 200.928015 91.092323 
L 198.35245 94.973968 
L 195.545981 98.584877 
L 192.525946 101.619394 
L 185.921018 105.663069 
L 182.376932 108.301477 
L 178.70064 121.797058 
L 174.914858 131.574611 
L 171.042972 138.452585 
L 167.108906 148.310583 
L 163.136964 165.222191 
L 159.151686 181.05128 
L 155.177693 189.525321 
L 151.239538 197.332982 
L 147.361551 202.084168 
L 139.881398 210.430491 
L 132.921804 217.162104 
L 126.654494 223.412845 
L 121.234111 228.461348 
L 118.884223 231.150115 
L 116.794401 233.82856 
L 114.977556 233.994928 
L 113.444912 232.487768 
L 112.205939 230.238413 
L 110.637763 229.03168 
L 110.318247 228.676339 
L 110.311719 228.714701 
L 111.235855 222.303822 
L 113.387366 209.984601 
L 114.90795 201.86691 
L 116.713165 193.105358 
L 118.79186 184.937181 
L 121.13119 179.628462 
L 123.716705 175.196034 
L 126.532428 171.325037 
L 129.560965 167.396471 
L 132.783605 163.599457 
L 136.180437 160.234558 
L 139.730476 154.787783 
L 143.411788 145.730966 
L 147.201629 140.063883 
L 151.076586 134.579405 
L 155.012718 125.627138 
L 158.985707 110.571044 
L 163.635223 95.48088 
L 168.932541 83.850292 
L 174.180717 77.099268 
L 184.400448 65.840333 
L 194.042249 55.978305 
L 202.868212 46.619933 
L 206.906261 42.81658 
L 210.660559 46.576698 
L 214.107911 51.076197 
L 217.227019 55.841085 
L 222.405566 62.961482 
L 224.433011 63.896557 
L 226.068421 65.367655 
L 228.533873 64.488185 
L 228.525169 64.548898 
L 226.008246 71.217967 
L 224.356282 75.411406 
L 222.312758 80.057219 
L 219.890297 84.878971 
L 217.103868 89.629396 
L 213.970684 93.83722 
L 210.510104 97.345587 
L 206.743507 100.202552 
L 202.694165 102.331267 
L 198.387094 105.445297 
L 193.848905 122.776561 
L 189.107635 139.732459 
L 184.192577 148.131302 
L 179.134098 155.375112 
L 168.712575 173.114243 
L 163.413918 179.063991 
L 158.100213 184.851562 
L 152.804291 195.095607 
L 147.558869 202.864605 
L 142.396355 206.783533 
L 132.446923 215.48102 
L 127.721474 218.820608 
L 118.914904 225.810273 
L 114.888191 231.313639 
L 111.146232 228.911388 
L 107.712145 224.512096 
L 104.607147 219.737183 
L 99.458999 212.681385 
L 97.447655 210.643238 
L 95.828816 208.764871 
L 94.612483 207.642532 
L 93.806171 207.209319 
L 93.414862 207.252467 
L 93.440972 207.186227 
L 97.67784 195.875739 
L 99.737422 191.174038 
L 102.175362 186.410939 
L 104.976599 181.868616 
L 108.123825 177.567461 
L 111.597596 173.866039 
L 115.376451 170.303621 
L 119.437044 166.944721 
L 123.754286 163.654329 
L 128.301506 155.93452 
L 133.05061 139.380462 
L 137.972257 127.371821 
L 143.036039 117.93623 
L 148.210673 108.710675 
L 153.464188 99.612494 
L 158.764127 103.123501 
L 164.077746 100.750675 
L 169.372216 95.198771 
L 174.614827 88.737875 
L 179.77319 81.556995 
L 184.815435 75.882007 
L 189.710409 74.035458 
L 194.427872 71.602492 
L 198.938677 68.857387 
L 203.214956 66.030629 
L 210.959869 59.785 
L 214.380654 54.321433 
L 217.471509 53.852442 
L 220.213338 57.02378 
L 226.186675 64.667144 
L 227.386056 65.080534 
L 228.175158 64.872449 
L 228.549105 65.327611 
L 228.505588 65.510024 
L 228.044874 67.986739 
L 227.16981 68.91294 
L 225.885803 72.091941 
L 224.200786 75.948818 
L 222.125168 80.355328 
L 219.671774 85.12266 
L 216.85576 89.89065 
L 213.694526 94.433853 
L 206.416527 103.222929 
L 202.344729 111.671488 
L 198.017361 128.104767 
L 193.461159 141.686514 
L 188.704272 149.859567 
L 183.776089 156.027943 
L 178.707058 161.848789 
L 173.528495 167.28894 
L 168.272395 170.109281 
L 162.971231 174.209391 
L 157.657755 178.67176 
L 152.364794 181.695454 
L 147.125049 185.088118 
L 141.970893 191.25749 
L 136.934168 195.669532 
L 132.045993 197.297045 
L 127.336567 199.13925 
L 122.834987 202.144509 
L 118.569064 208.281227 
L 114.565154 214.84254 
L 110.847993 209.691665 
L 107.440547 204.015219 
L 104.363868 200.066706 
L 93.40108 200.362644 
L 94.832285 197.273598 
L 96.133177 193.94424 
L 97.834694 190.046656 
L 99.926325 185.992942 
L 102.395147 181.975853 
L 108.401116 174.126378 
L 111.901158 165.680381 
L 115.704408 155.9073 
L 124.124816 130.757005 
L 128.689951 121.667314 
L 133.45457 111.262336 
L 138.389236 108.588876 
L 143.463462 104.090262 
L 148.645898 103.614247 
L 153.904527 103.878667 
L 159.206859 101.364675 
L 165.40558 96.994884 
L 172.019824 91.105697 
L 185.00322 78.136742 
L 191.292158 74.244345 
L 197.393812 71.481503 
L 203.270484 69.030812 
L 208.885868 67.153801 
L 214.20527 60.101397 
L 219.195825 60.642819 
L 223.826702 68.394339 
L 228.06929 68.32629 
L 235.287314 67.057269 
L 238.218156 66.838799 
L 240.671795 66.954987 
L 244.089872 66.435645 
L 245.033193 66.69901 
L 245.457207 66.229586 
L 245.359295 66.654864 
L 244.740061 66.428919 
L 243.603331 68.637821 
L 241.956129 71.206037 
L 239.80863 72.995599 
L 237.174103 76.509608 
L 234.068824 85.385866 
L 230.511978 98.307843 
L 226.525541 110.786393 
L 222.13414 123.686212 
L 217.364907 132.514521 
L 212.247308 138.823451 
L 206.812959 143.739306 
L 201.095435 148.171961 
L 188.95369 156.512905 
L 182.604482 161.034274 
L 176.121664 166.129087 
L 169.545288 172.03263 
L 162.915984 176.328112 
L 156.274709 177.855898 
L 149.662494 180.438108 
L 143.12019 182.196671 
L 136.688218 187.64983 
L 130.406315 193.741327 
L 124.313291 199.44074 
L 118.446792 202.391656 
L 112.84306 204.029149 
L 107.536717 205.429002 
L 102.560548 213.849634 
L 97.945294 209.567474 
L 93.719471 201.600282 
L 89.909186 199.463023 
L 83.62668 200.074833 
L 76.493159 200.44025 
L 76.612827 200.372988 
L 77.253722 199.449103 
L 78.411884 197.145885 
L 80.080157 194.781905 
L 82.248234 193.141949 
L 84.902722 188.694206 
L 88.027219 180.804547 
L 95.606242 159.278864 
L 100.013944 148.128231 
L 104.798296 138.461607 
L 109.929739 129.913011 
L 115.37657 122.789522 
L 127.08005 110.845911 
L 133.264392 106.779624 
L 139.619956 101.365509 
L 146.107477 106.09021 
L 152.686872 106.824156 
L 159.317494 105.447771 
L 165.958377 103.349084 
L 172.568493 100.717269 
L 179.107003 97.552536 
L 185.53351 93.627585 
L 191.808311 90.076545 
L 197.892638 86.445522 
L 203.748903 82.683168 
L 209.340922 78.779752 
L 214.634148 74.934312 
L 219.595879 71.913754 
L 224.19546 69.800179 
L 228.404473 68.16537 
L 232.196915 65.943118 
L 235.549355 59.364343 
L 238.441081 55.463611 
L 242.773886 54.968501 
L 244.188196 56.568426 
L 245.468995 57.881816 
L 244.665023 61.891877 
L 243.485442 65.001113 
L 241.796116 67.673039 
L 236.933064 83.763396 
L 233.789382 93.27035 
L 226.1747 114.043409 
L 221.750744 122.359497 
L 216.951324 128.864872 
L 211.806093 134.435513 
L 206.346838 139.470145 
L 200.607288 143.865359 
L 188.430656 152.697997 
L 182.068803 157.160391 
L 175.576649 161.562358 
L 168.994305 166.366681 
L 162.362436 166.424193 
L 155.722016 175.020711 
L 149.114071 169.437301 
L 142.579425 169.788072 
L 136.158452 172.41552 
L 129.890821 176.573162 
L 123.815255 180.839602 
L 117.969289 185.238974 
L 112.389041 190.174451 
L 107.108988 193.989692 
L 102.16175 197.949503 
L 97.577892 201.161109 
L 93.385734 199.802287 
L 89.611176 206.049659 
L 86.277538 212.650571 
L 83.405416 214.684194 
L 81.012555 215.951811 
L 79.113737 216.504735 
L 76.483184 215.865132 
L 76.646361 214.516347 
L 77.330557 210.256748 
L 78.531545 205.936551 
L 80.241905 200.99004 
L 82.45107 195.233832 
L 85.145392 187.77611 
L 88.308224 177.385595 
L 91.920027 167.166042 
L 95.958484 158.090061 
L 100.398647 149.114726 
L 105.213083 141.006424 
L 110.372048 133.39998 
L 115.843667 126.409534 
L 121.594138 120.166812 
L 127.587932 114.132157 
L 140.156091 102.258839 
L 146.652808 104.154685 
L 153.238031 105.80378 
L 159.871075 104.743477 
L 167.617482 101.841418 
L 175.544326 98.094384 
L 183.381179 93.872489 
L 191.079624 89.465493 
L 198.592097 84.916116 
L 205.872185 80.18935 
L 212.87491 75.055572 
L 219.557009 71.881057 
L 225.877198 69.85505 
L 231.796429 64.052664 
L 237.278133 61.047476 
L 242.288442 53.523166 
L 246.796402 51.370368 
L 250.774162 55.445397 
L 254.197146 59.712018 
L 257.044206 67.824491 
L 259.297754 65.443957 
L 260.943866 63.050767 
L 261.972371 64.612375 
L 262.376917 65.865769 
L 262.155003 62.008229 
L 261.308 64.047014 
L 259.841141 67.218257 
L 257.76349 71.25707 
L 255.087881 79.482138 
L 251.830846 88.701461 
L 248.012507 98.409987 
L 243.656455 108.066756 
L 238.789601 118.153743 
L 233.442015 125.191104 
L 227.646734 130.950413 
L 221.439564 135.857477 
L 214.858852 140.271319 
L 193.292061 153.176818 
L 185.642991 157.551261 
L 177.841538 162.203688 
L 169.935901 167.232845 
L 161.974922 172.571862 
L 154.007787 169.122535 
L 146.083717 169.320522 
L 138.251669 173.556714 
L 130.560031 177.206604 
L 123.056323 182.905055 
L 102.128859 197.583715 
L 95.824613 200.917058 
L 84.460181 209.926337 
L 79.470206 216.264853 
L 74.983804 215.203087 
L 71.028693 207.643176 
L 67.629307 199.413071 
L 59.576532 200.302515 
L 59.824545 200.224783 
L 60.697507 199.003196 
L 62.190022 198.373243 
L 64.292871 194.559601 
L 66.993061 188.108637 
L 70.27391 180.742012 
L 74.115148 171.656715 
L 78.493044 160.422084 
L 83.38055 151.234223 
L 88.747469 142.738114 
L 94.560645 135.330849 
L 100.784163 129.019982 
L 107.379571 123.404242 
L 114.306123 118.488747 
L 128.979702 109.316354 
L 136.636072 103.784157 
L 144.442834 100.003062 
L 152.351755 104.564222 
L 160.313974 104.790438 
L 168.280297 102.790048 
L 176.201507 100.183606 
L 184.028665 97.314538 
L 191.713415 93.353691 
L 199.208277 90.071061 
L 206.466948 86.347478 
L 213.444581 82.422294 
L 220.098068 78.984747 
L 226.386303 75.460929 
L 232.270434 70.954308 
L 237.71411 65.801528 
L 242.683697 63.482852 
L 247.148494 63.180273 
L 251.080914 59.387568 
L 254.456664 55.144285 
L 257.254888 55.861199 
L 259.458296 57.791586 
L 262.382358 61.083346 
L 262.108247 62.598844 
L 261.209337 64.595537 
L 259.69118 67.173657 
L 257.563157 74.008434 
L 254.838415 81.854136 
L 251.533787 90.572708 
L 247.669691 100.335435 
L 243.269999 109.66869 
L 238.361894 119.060436 
L 232.975698 125.705687 
L 227.144689 131.236596 
L 220.904892 136.181308 
L 214.294857 140.607668 
L 200.129463 149.492659 
L 192.661619 153.914264 
L 184.99803 158.28591 
L 177.186044 162.881192 
L 169.273922 167.204844 
L 161.31055 169.668996 
L 153.345125 164.832591 
L 145.42686 165.153393 
L 137.604674 168.013259 
L 129.926896 170.323204 
L 122.44096 173.963852 
L 115.193115 177.35265 
L 101.589065 185.793328 
L 95.316909 189.423343 
L 89.450423 193.303831 
L 84.025849 199.990871 
L 79.076702 203.653961 
L 74.63356 207.852722 
L 70.723872 210.094967 
L 67.371794 208.610642 
L 64.598034 207.778532 
L 62.419731 207.282193 
L 60.850342 204.820493 
L 59.899562 203.942802 
L 59.573267 203.989806 
L 59.873472 203.191376 
L 60.798321 202.092511 
L 62.342103 197.447733 
L 64.495277 191.80387 
L 67.244543 185.327851 
L 70.572914 177.905188 
L 74.459827 166.565411 
L 78.881268 155.923009 
L 83.80992 146.939251 
L 89.215334 139.080874 
L 95.064113 132.162646 
L 101.320123 126.238603 
L 107.944713 121.149522 
L 114.896955 116.481884 
L 122.133897 112.048415 
L 137.281551 102.431049 
L 145.098679 102.583015 
L 153.013915 104.897679 
L 153.013915 104.897679 
" clip-path="url(#peca87344c4)" style="fill: none; stroke: #3152a1; stroke-width: 1.5; stroke-linecap: square"/>
   </g>
   <g id="line2d_30">
    <path d="M 49.432813 136.93365 
L 272.522812 136.93365 
" clip-path="url(#peca87344c4)" style="fill: none; stroke: #000000; stroke-width: 0.4; stroke-linecap: square"/>
   </g>
   <g id="line2d_31">
    <path d="M 160.978357 257.098125 
L 160.978357 20.838125 
" clip-path="url(#peca87344c4)" style="fill: none; stroke: #000000; stroke-width: 0.4; stroke-linecap: square"/>
   </g>
   <g id="patch_3">
    <path d="M 49.432813 257.098125 
L 49.432813 20.838125 
" style="fill: none; stroke: #000000; stroke-width: 0.8; stroke-linejoin: miter; stroke-linecap: square"/>
   </g>
   <g id="patch_4">
    <path d="M 272.522812 257.098125 
L 272.522812 20.838125 
" style="fill: none; stroke: #000000; stroke-width: 0.8; stroke-linejoin: miter; stroke-linecap: square"/>
   </g>
   <g id="patch_5">
    <path d="M 49.432813 257.098125 
L 272.522813 257.098125 
" style="fill: none; stroke: #000000; stroke-width: 0.8; stroke-linejoin: miter; stroke-linecap: square"/>
   </g>
   <g id="patch_6">
    <path d="M 49.432813 20.838125 
L 272.522813 20.838125 
" style="fill: none; stroke: #000000; stroke-width: 0.8; stroke-linejoin: miter; stroke-linecap: square"/>
   </g>
   <g id="text_17">
    <!-- Specimen : Greifenhagen_M4 -->
    <g transform="translate(94.691641 14.838125) scale(0.11 -0.11)">
     <defs>
      <path id="TimesNewRomanPSMT-3a" d="M 903 2950 
Q 1047 2950 1148 2848 
Q 1250 2747 1250 2603 
Q 1250 2459 1148 2357 
Q 1047 2256 903 2256 
Q 759 2256 657 2357 
Q 556 2459 556 2603 
Q 556 2747 657 2848 
Q 759 2950 903 2950 
z
M 897 609 
Q 1044 609 1145 506 
Q 1247 403 1247 259 
Q 1247 116 1144 14 
Q 1041 -88 897 -88 
Q 753 -88 651 14 
Q 550 116 550 259 
Q 550 403 651 506 
Q 753 609 897 609 
z
" transform="scale(0.015625)"/>
      <path id="TimesNewRomanPSMT-47" d="M 3928 4334 
L 4038 2997 
L 3928 2997 
Q 3763 3497 3500 3750 
Q 3122 4116 2528 4116 
Q 1719 4116 1297 3475 
Q 944 2934 944 2188 
Q 944 1581 1178 1081 
Q 1413 581 1792 348 
Q 2172 116 2572 116 
Q 2806 116 3025 175 
Q 3244 234 3447 350 
L 3447 1575 
Q 3447 1894 3398 1992 
Q 3350 2091 3248 2142 
Q 3147 2194 2891 2194 
L 2891 2313 
L 4531 2313 
L 4531 2194 
L 4453 2194 
Q 4209 2194 4119 2031 
Q 4056 1916 4056 1575 
L 4056 278 
Q 3697 84 3347 -6 
Q 2997 -97 2569 -97 
Q 1341 -97 703 691 
Q 225 1281 225 2053 
Q 225 2613 494 3125 
Q 813 3734 1369 4063 
Q 1834 4334 2469 4334 
Q 2700 4334 2889 4296 
Q 3078 4259 3425 4131 
Q 3600 4066 3659 4066 
Q 3719 4066 3761 4120 
Q 3803 4175 3813 4334 
L 3928 4334 
z
" transform="scale(0.015625)"/>
      <path id="TimesNewRomanPSMT-66" d="M 1319 2638 
L 1319 756 
Q 1319 356 1406 250 
Q 1522 113 1716 113 
L 1975 113 
L 1975 0 
L 266 0 
L 266 113 
L 394 113 
Q 519 113 622 175 
Q 725 238 764 344 
Q 803 450 803 756 
L 803 2638 
L 247 2638 
L 247 2863 
L 803 2863 
L 803 3050 
Q 803 3478 940 3775 
Q 1078 4072 1361 4255 
Q 1644 4438 1997 4438 
Q 2325 4438 2600 4225 
Q 2781 4084 2781 3909 
Q 2781 3816 2700 3733 
Q 2619 3650 2525 3650 
Q 2453 3650 2373 3701 
Q 2294 3753 2178 3923 
Q 2063 4094 1966 4153 
Q 1869 4213 1750 4213 
Q 1606 4213 1506 4136 
Q 1406 4059 1362 3898 
Q 1319 3738 1319 3069 
L 1319 2863 
L 2056 2863 
L 2056 2638 
L 1319 2638 
z
" transform="scale(0.015625)"/>
      <path id="TimesNewRomanPSMT-67" d="M 966 1044 
Q 703 1172 562 1401 
Q 422 1631 422 1909 
Q 422 2334 742 2640 
Q 1063 2947 1563 2947 
Q 1972 2947 2272 2747 
L 2878 2747 
Q 3013 2747 3034 2739 
Q 3056 2731 3066 2713 
Q 3084 2684 3084 2613 
Q 3084 2531 3069 2500 
Q 3059 2484 3036 2475 
Q 3013 2466 2878 2466 
L 2506 2466 
Q 2681 2241 2681 1891 
Q 2681 1491 2375 1206 
Q 2069 922 1553 922 
Q 1341 922 1119 984 
Q 981 866 932 777 
Q 884 688 884 625 
Q 884 572 936 522 
Q 988 472 1138 450 
Q 1225 438 1575 428 
Q 2219 413 2409 384 
Q 2700 344 2873 169 
Q 3047 -6 3047 -263 
Q 3047 -616 2716 -925 
Q 2228 -1381 1444 -1381 
Q 841 -1381 425 -1109 
Q 191 -953 191 -784 
Q 191 -709 225 -634 
Q 278 -519 444 -313 
Q 466 -284 763 25 
Q 600 122 533 198 
Q 466 275 466 372 
Q 466 481 555 628 
Q 644 775 966 1044 
z
M 1509 2797 
Q 1278 2797 1122 2612 
Q 966 2428 966 2047 
Q 966 1553 1178 1281 
Q 1341 1075 1591 1075 
Q 1828 1075 1981 1253 
Q 2134 1431 2134 1813 
Q 2134 2309 1919 2591 
Q 1759 2797 1509 2797 
z
M 934 0 
Q 788 -159 713 -296 
Q 638 -434 638 -550 
Q 638 -700 819 -813 
Q 1131 -1006 1722 -1006 
Q 2284 -1006 2551 -807 
Q 2819 -609 2819 -384 
Q 2819 -222 2659 -153 
Q 2497 -84 2016 -72 
Q 1313 -53 934 0 
z
" transform="scale(0.015625)"/>
      <path id="TimesNewRomanPSMT-5f" d="M 3256 -1381 
L -53 -1381 
L -53 -1119 
L 3256 -1119 
L 3256 -1381 
z
" transform="scale(0.015625)"/>
      <path id="TimesNewRomanPSMT-4d" d="M 2619 0 
L 981 3566 
L 981 734 
Q 981 344 1066 247 
Q 1181 116 1431 116 
L 1581 116 
L 1581 0 
L 106 0 
L 106 116 
L 256 116 
Q 525 116 638 278 
Q 706 378 706 734 
L 706 3503 
Q 706 3784 644 3909 
Q 600 4000 483 4061 
Q 366 4122 106 4122 
L 106 4238 
L 1306 4238 
L 2844 922 
L 4356 4238 
L 5556 4238 
L 5556 4122 
L 5409 4122 
Q 5138 4122 5025 3959 
Q 4956 3859 4956 3503 
L 4956 734 
Q 4956 344 5044 247 
Q 5159 116 5409 116 
L 5556 116 
L 5556 0 
L 3756 0 
L 3756 116 
L 3906 116 
Q 4178 116 4288 278 
Q 4356 378 4356 734 
L 4356 3566 
L 2722 0 
L 2619 0 
z
" transform="scale(0.015625)"/>
      <path id="TimesNewRomanPSMT-34" d="M 2978 1563 
L 2978 1119 
L 2409 1119 
L 2409 0 
L 1894 0 
L 1894 1119 
L 100 1119 
L 100 1519 
L 2066 4325 
L 2409 4325 
L 2409 1563 
L 2978 1563 
z
M 1894 1563 
L 1894 3666 
L 406 1563 
L 1894 1563 
z
" transform="scale(0.015625)"/>
     </defs>
     <use xlink:href="#TimesNewRomanPSMT-53"/>
     <use xlink:href="#TimesNewRomanPSMT-70" x="55.615234"/>
     <use xlink:href="#TimesNewRomanPSMT-65" x="105.615234"/>
     <use xlink:href="#TimesNewRomanPSMT-63" x="150"/>
     <use xlink:href="#TimesNewRomanPSMT-69" x="194.384766"/>
     <use xlink:href="#TimesNewRomanPSMT-6d" x="222.167969"/>
     <use xlink:href="#TimesNewRomanPSMT-65" x="299.951172"/>
     <use xlink:href="#TimesNewRomanPSMT-6e" x="344.335938"/>
     <use xlink:href="#TimesNewRomanPSMT-20" x="394.335938"/>
     <use xlink:href="#TimesNewRomanPSMT-3a" x="419.335938"/>
     <use xlink:href="#TimesNewRomanPSMT-20" x="447.119141"/>
     <use xlink:href="#TimesNewRomanPSMT-47" x="472.119141"/>
     <use xlink:href="#TimesNewRomanPSMT-72" x="544.335938"/>
     <use xlink:href="#TimesNewRomanPSMT-65" x="577.636719"/>
     <use xlink:href="#TimesNewRomanPSMT-69" x="622.021484"/>
     <use xlink:href="#TimesNewRomanPSMT-66" x="649.804688"/>
     <use xlink:href="#TimesNewRomanPSMT-65" x="683.105469"/>
     <use xlink:href="#TimesNewRomanPSMT-6e" x="727.490234"/>
     <use xlink:href="#TimesNewRomanPSMT-68" x="777.490234"/>
     <use xlink:href="#TimesNewRomanPSMT-61" x="827.490234"/>
     <use xlink:href="#TimesNewRomanPSMT-67" x="871.875"/>
     <use xlink:href="#TimesNewRomanPSMT-65" x="921.875"/>
     <use xlink:href="#TimesNewRomanPSMT-6e" x="966.259766"/>
     <use xlink:href="#TimesNewRomanPSMT-5f" x="1016.259766"/>
     <use xlink:href="#TimesNewRomanPSMT-4d" x="1066.259766"/>
     <use xlink:href="#TimesNewRomanPSMT-34" x="1155.175781"/>
    </g>
   </g>
   <g id="legend_1">
    <g id="patch_7">
     <path d="M 55.263813 39.279964 
L 132.770558 39.279964 
Q 134.436558 39.279964 134.436558 37.613964 
L 134.436558 26.669125 
Q 134.436558 25.003125 132.770558 25.003125 
L 55.263813 25.003125 
Q 53.597813 25.003125 53.597813 26.669125 
L 53.597813 37.613964 
Q 53.597813 39.279964 55.263813 39.279964 
z
" style="fill: #ffffff; opacity: 0.8; stroke: #cccccc; stroke-linejoin: miter"/>
    </g>
    <g id="line2d_32">
     <path d="M 56.929813 31.250625 
L 65.259813 31.250625 
L 73.589813 31.250625 
" style="fill: none; stroke: #3152a1; stroke-width: 1.5; stroke-linecap: square"/>
    </g>
    <g id="text_18">
     <!-- Numerical Test -->
     <g transform="translate(80.253813 34.166125) scale(0.0833 -0.0833)">
      <defs>
       <path id="TimesNewRomanPSMT-75" d="M 2709 2863 
L 2709 1128 
Q 2709 631 2732 520 
Q 2756 409 2807 365 
Q 2859 322 2928 322 
Q 3025 322 3147 375 
L 3191 266 
L 2334 -88 
L 2194 -88 
L 2194 519 
Q 1825 119 1631 15 
Q 1438 -88 1222 -88 
Q 981 -88 804 51 
Q 628 191 559 409 
Q 491 628 491 1028 
L 491 2306 
Q 491 2509 447 2587 
Q 403 2666 317 2708 
Q 231 2750 6 2747 
L 6 2863 
L 1009 2863 
L 1009 947 
Q 1009 547 1148 422 
Q 1288 297 1484 297 
Q 1619 297 1789 381 
Q 1959 466 2194 703 
L 2194 2325 
Q 2194 2569 2105 2655 
Q 2016 2741 1734 2747 
L 1734 2863 
L 2709 2863 
z
" transform="scale(0.015625)"/>
       <path id="TimesNewRomanPSMT-54" d="M 3703 4238 
L 3750 3244 
L 3631 3244 
Q 3597 3506 3538 3619 
Q 3441 3800 3280 3886 
Q 3119 3972 2856 3972 
L 2259 3972 
L 2259 734 
Q 2259 344 2344 247 
Q 2463 116 2709 116 
L 2856 116 
L 2856 0 
L 1059 0 
L 1059 116 
L 1209 116 
Q 1478 116 1591 278 
Q 1659 378 1659 734 
L 1659 3972 
L 1150 3972 
Q 853 3972 728 3928 
Q 566 3869 450 3700 
Q 334 3531 313 3244 
L 194 3244 
L 244 4238 
L 3703 4238 
z
" transform="scale(0.015625)"/>
      </defs>
      <use xlink:href="#TimesNewRomanPSMT-4e"/>
      <use xlink:href="#TimesNewRomanPSMT-75" x="72.216797"/>
      <use xlink:href="#TimesNewRomanPSMT-6d" x="122.216797"/>
      <use xlink:href="#TimesNewRomanPSMT-65" x="200"/>
      <use xlink:href="#TimesNewRomanPSMT-72" x="244.384766"/>
      <use xlink:href="#TimesNewRomanPSMT-69" x="277.685547"/>
      <use xlink:href="#TimesNewRomanPSMT-63" x="305.46875"/>
      <use xlink:href="#TimesNewRomanPSMT-61" x="349.853516"/>
      <use xlink:href="#TimesNewRomanPSMT-6c" x="394.238281"/>
      <use xlink:href="#TimesNewRomanPSMT-20" x="422.021484"/>
      <use xlink:href="#TimesNewRomanPSMT-54" x="445.271484"/>
      <use xlink:href="#TimesNewRomanPSMT-65" x="499.355469"/>
      <use xlink:href="#TimesNewRomanPSMT-73" x="543.740234"/>
      <use xlink:href="#TimesNewRomanPSMT-74" x="582.65625"/>
     </g>
    </g>
   </g>
  </g>
 </g>
 <defs>
  <clipPath id="peca87344c4">
   <rect x="49.432813" y="20.838125" width="223.09" height="236.26"/>
  </clipPath>
 </defs>
</svg>
