<?xml version="1.0" encoding="utf-8" standalone="no"?>
<!DOCTYPE svg PUBLIC "-//W3C//DTD SVG 1.1//EN"
  "http://www.w3.org/Graphics/SVG/1.1/DTD/svg11.dtd">
<svg xmlns:xlink="http://www.w3.org/1999/xlink" width="279.722812pt" height="292.774063pt" viewBox="0 0 279.722812 292.774063" xmlns="http://www.w3.org/2000/svg" version="1.1">
 <metadata>
  <rdf:RDF xmlns:dc="http://purl.org/dc/elements/1.1/" xmlns:cc="http://creativecommons.org/ns#" xmlns:rdf="http://www.w3.org/1999/02/22-rdf-syntax-ns#">
   <cc:Work>
    <dc:type rdf:resource="http://purl.org/dc/dcmitype/StillImage"/>
    <dc:date>2024-09-19T12:52:50.396918</dc:date>
    <dc:format>image/svg+xml</dc:format>
    <dc:creator>
     <cc:Agent>
      <dc:title>Matplotlib v3.8.0, https://matplotlib.org/</dc:title>
     </cc:Agent>
    </dc:creator>
   </cc:Work>
  </rdf:RDF>
 </metadata>
 <defs>
  <style type="text/css">*{stroke-linejoin: round; stroke-linecap: butt}</style>
 </defs>
 <g id="figure_1">
  <g id="patch_1">
   <path d="M 0 292.774063 
L 279.722812 292.774063 
L 279.722812 0 
L 0 0 
z
" style="fill: #ffffff"/>
  </g>
  <g id="axes_1">
   <g id="patch_2">
    <path d="M 49.432813 256.40375 
L 272.522812 256.40375 
L 272.522812 20.14375 
L 49.432813 20.14375 
z
" style="fill: #ffffff"/>
   </g>
   <g id="matplotlib.axis_1">
    <g id="xtick_1">
     <g id="line2d_1">
      <path d="M 87.039021 256.40375 
L 87.039021 20.14375 
" clip-path="url(#paf43c0fda7)" style="fill: none; stroke-dasharray: 0.8,1.32; stroke-dashoffset: 0; stroke: #b0b0b0; stroke-width: 0.8"/>
     </g>
     <g id="line2d_2">
      <defs>
       <path id="m48e18e7028" d="M 0 0 
L 0 3.5 
" style="stroke: #000000; stroke-width: 0.8"/>
      </defs>
      <g>
       <use xlink:href="#m48e18e7028" x="87.039021" y="256.40375" style="stroke: #000000; stroke-width: 0.8"/>
      </g>
     </g>
     <g id="text_1">
      <!-- −10 -->
      <g transform="translate(78.732771 270.39125) scale(0.1 -0.1)">
       <defs>
        <path id="Cambria-2212" d="M 397 1613 
L 397 2047 
L 3147 2047 
L 3147 1613 
L 397 1613 
z
" transform="scale(0.015625)"/>
        <path id="Cambria-31" d="M 2172 816 
Q 2172 634 2192 542 
Q 2213 450 2264 392 
Q 2316 334 2412 301 
Q 2509 269 2656 251 
Q 2803 234 3044 228 
L 3044 0 
L 734 0 
L 734 228 
Q 1081 244 1229 270 
Q 1378 297 1456 350 
Q 1534 403 1570 500 
Q 1606 597 1606 816 
L 1606 3350 
Q 1606 3475 1562 3533 
Q 1519 3591 1434 3591 
Q 1334 3591 1150 3487 
Q 966 3384 694 3203 
L 556 3444 
L 2019 4316 
L 2191 4316 
Q 2172 4016 2172 3484 
L 2172 816 
z
" transform="scale(0.015625)"/>
        <path id="Cambria-30" d="M 1738 -50 
Q 1063 -50 733 481 
Q 403 1013 403 2094 
Q 403 2669 504 3087 
Q 606 3506 789 3779 
Q 972 4053 1228 4184 
Q 1484 4316 1788 4316 
Q 2472 4316 2806 3787 
Q 3141 3259 3141 2191 
Q 3141 1084 2783 517 
Q 2425 -50 1738 -50 
z
M 1013 2188 
Q 1013 1169 1202 692 
Q 1391 216 1788 216 
Q 2166 216 2348 664 
Q 2531 1113 2531 2053 
Q 2531 2772 2437 3217 
Q 2344 3663 2176 3856 
Q 2009 4050 1772 4050 
Q 1556 4050 1411 3922 
Q 1266 3794 1177 3553 
Q 1088 3313 1050 2967 
Q 1013 2622 1013 2188 
z
" transform="scale(0.015625)"/>
       </defs>
       <use xlink:href="#Cambria-2212"/>
       <use xlink:href="#Cambria-31" x="55.371094"/>
       <use xlink:href="#Cambria-30" x="110.742188"/>
      </g>
     </g>
    </g>
    <g id="xtick_2">
     <g id="line2d_3">
      <path d="M 128.018006 256.40375 
L 128.018006 20.14375 
" clip-path="url(#paf43c0fda7)" style="fill: none; stroke-dasharray: 0.8,1.32; stroke-dashoffset: 0; stroke: #b0b0b0; stroke-width: 0.8"/>
     </g>
     <g id="line2d_4">
      <g>
       <use xlink:href="#m48e18e7028" x="128.018006" y="256.40375" style="stroke: #000000; stroke-width: 0.8"/>
      </g>
     </g>
     <g id="text_2">
      <!-- −5 -->
      <g transform="translate(122.480506 270.39125) scale(0.1 -0.1)">
       <defs>
        <path id="Cambria-35" d="M 469 172 
L 469 834 
L 847 834 
Q 941 516 1130 366 
Q 1319 216 1619 216 
Q 2034 216 2246 466 
Q 2459 716 2459 1213 
Q 2459 1544 2346 1761 
Q 2234 1978 2043 2075 
Q 1853 2172 1600 2172 
Q 1388 2172 1234 2145 
Q 1081 2119 906 2063 
L 656 2209 
L 656 4266 
L 2378 4266 
Q 2484 4266 2531 4283 
Q 2578 4300 2606 4336 
Q 2634 4372 2672 4472 
L 2916 4472 
L 2869 3747 
L 1072 3747 
L 1072 2375 
Q 1234 2444 1425 2478 
Q 1616 2513 1806 2513 
Q 2178 2513 2465 2361 
Q 2753 2209 2909 1929 
Q 3066 1650 3066 1281 
Q 3066 863 2891 563 
Q 2716 263 2384 106 
Q 2053 -50 1600 -50 
Q 1059 -50 469 172 
z
" transform="scale(0.015625)"/>
       </defs>
       <use xlink:href="#Cambria-2212"/>
       <use xlink:href="#Cambria-35" x="55.371094"/>
      </g>
     </g>
    </g>
    <g id="xtick_3">
     <g id="line2d_5">
      <path d="M 168.99699 256.40375 
L 168.99699 20.14375 
" clip-path="url(#paf43c0fda7)" style="fill: none; stroke-dasharray: 0.8,1.32; stroke-dashoffset: 0; stroke: #b0b0b0; stroke-width: 0.8"/>
     </g>
     <g id="line2d_6">
      <g>
       <use xlink:href="#m48e18e7028" x="168.99699" y="256.40375" style="stroke: #000000; stroke-width: 0.8"/>
      </g>
     </g>
     <g id="text_3">
      <!-- 0 -->
      <g transform="translate(166.22824 270.39125) scale(0.1 -0.1)">
       <use xlink:href="#Cambria-30"/>
      </g>
     </g>
    </g>
    <g id="xtick_4">
     <g id="line2d_7">
      <path d="M 209.975974 256.40375 
L 209.975974 20.14375 
" clip-path="url(#paf43c0fda7)" style="fill: none; stroke-dasharray: 0.8,1.32; stroke-dashoffset: 0; stroke: #b0b0b0; stroke-width: 0.8"/>
     </g>
     <g id="line2d_8">
      <g>
       <use xlink:href="#m48e18e7028" x="209.975974" y="256.40375" style="stroke: #000000; stroke-width: 0.8"/>
      </g>
     </g>
     <g id="text_4">
      <!-- 5 -->
      <g transform="translate(207.207224 270.39125) scale(0.1 -0.1)">
       <use xlink:href="#Cambria-35"/>
      </g>
     </g>
    </g>
    <g id="xtick_5">
     <g id="line2d_9">
      <path d="M 250.954958 256.40375 
L 250.954958 20.14375 
" clip-path="url(#paf43c0fda7)" style="fill: none; stroke-dasharray: 0.8,1.32; stroke-dashoffset: 0; stroke: #b0b0b0; stroke-width: 0.8"/>
     </g>
     <g id="line2d_10">
      <g>
       <use xlink:href="#m48e18e7028" x="250.954958" y="256.40375" style="stroke: #000000; stroke-width: 0.8"/>
      </g>
     </g>
     <g id="text_5">
      <!-- 10 -->
      <g transform="translate(245.417458 270.39125) scale(0.1 -0.1)">
       <use xlink:href="#Cambria-31"/>
       <use xlink:href="#Cambria-30" x="55.371094"/>
      </g>
     </g>
    </g>
    <g id="text_6">
     <!-- Displacement (mm) -->
     <g transform="translate(121.128594 283.435) scale(0.1 -0.1)">
      <defs>
       <path id="TimesNewRomanPSMT-44" d="M 109 0 
L 109 116 
L 269 116 
Q 538 116 650 288 
Q 719 391 719 750 
L 719 3488 
Q 719 3884 631 3984 
Q 509 4122 269 4122 
L 109 4122 
L 109 4238 
L 1834 4238 
Q 2784 4238 3279 4022 
Q 3775 3806 4076 3303 
Q 4378 2800 4378 2141 
Q 4378 1256 3841 663 
Q 3238 0 2003 0 
L 109 0 
z
M 1319 306 
Q 1716 219 1984 219 
Q 2709 219 3187 728 
Q 3666 1238 3666 2109 
Q 3666 2988 3187 3494 
Q 2709 4000 1959 4000 
Q 1678 4000 1319 3909 
L 1319 306 
z
" transform="scale(0.015625)"/>
       <path id="TimesNewRomanPSMT-69" d="M 928 4444 
Q 1059 4444 1151 4351 
Q 1244 4259 1244 4128 
Q 1244 3997 1151 3903 
Q 1059 3809 928 3809 
Q 797 3809 703 3903 
Q 609 3997 609 4128 
Q 609 4259 701 4351 
Q 794 4444 928 4444 
z
M 1188 2947 
L 1188 647 
Q 1188 378 1227 289 
Q 1266 200 1342 156 
Q 1419 113 1622 113 
L 1622 0 
L 231 0 
L 231 113 
Q 441 113 512 153 
Q 584 194 626 287 
Q 669 381 669 647 
L 669 1750 
Q 669 2216 641 2353 
Q 619 2453 572 2492 
Q 525 2531 444 2531 
Q 356 2531 231 2484 
L 188 2597 
L 1050 2947 
L 1188 2947 
z
" transform="scale(0.015625)"/>
       <path id="TimesNewRomanPSMT-73" d="M 2050 2947 
L 2050 1972 
L 1947 1972 
Q 1828 2431 1642 2597 
Q 1456 2763 1169 2763 
Q 950 2763 815 2647 
Q 681 2531 681 2391 
Q 681 2216 781 2091 
Q 878 1963 1175 1819 
L 1631 1597 
Q 2266 1288 2266 781 
Q 2266 391 1970 151 
Q 1675 -88 1309 -88 
Q 1047 -88 709 6 
Q 606 38 541 38 
Q 469 38 428 -44 
L 325 -44 
L 325 978 
L 428 978 
Q 516 541 762 319 
Q 1009 97 1316 97 
Q 1531 97 1667 223 
Q 1803 350 1803 528 
Q 1803 744 1651 891 
Q 1500 1038 1047 1263 
Q 594 1488 453 1669 
Q 313 1847 313 2119 
Q 313 2472 555 2709 
Q 797 2947 1181 2947 
Q 1350 2947 1591 2875 
Q 1750 2828 1803 2828 
Q 1853 2828 1881 2850 
Q 1909 2872 1947 2947 
L 2050 2947 
z
" transform="scale(0.015625)"/>
       <path id="TimesNewRomanPSMT-70" d="M -6 2578 
L 875 2934 
L 994 2934 
L 994 2266 
Q 1216 2644 1439 2795 
Q 1663 2947 1909 2947 
Q 2341 2947 2628 2609 
Q 2981 2197 2981 1534 
Q 2981 794 2556 309 
Q 2206 -88 1675 -88 
Q 1444 -88 1275 -22 
Q 1150 25 994 166 
L 994 -706 
Q 994 -1000 1030 -1079 
Q 1066 -1159 1155 -1206 
Q 1244 -1253 1478 -1253 
L 1478 -1369 
L -22 -1369 
L -22 -1253 
L 56 -1253 
Q 228 -1256 350 -1188 
Q 409 -1153 442 -1076 
Q 475 -1000 475 -688 
L 475 2019 
Q 475 2297 450 2372 
Q 425 2447 370 2484 
Q 316 2522 222 2522 
Q 147 2522 31 2478 
L -6 2578 
z
M 994 2081 
L 994 1013 
Q 994 666 1022 556 
Q 1066 375 1236 237 
Q 1406 100 1666 100 
Q 1978 100 2172 344 
Q 2425 663 2425 1241 
Q 2425 1897 2138 2250 
Q 1938 2494 1663 2494 
Q 1513 2494 1366 2419 
Q 1253 2363 994 2081 
z
" transform="scale(0.015625)"/>
       <path id="TimesNewRomanPSMT-6c" d="M 1184 4444 
L 1184 647 
Q 1184 378 1223 290 
Q 1263 203 1344 158 
Q 1425 113 1647 113 
L 1647 0 
L 244 0 
L 244 113 
Q 441 113 512 153 
Q 584 194 625 287 
Q 666 381 666 647 
L 666 3247 
Q 666 3731 644 3842 
Q 622 3953 573 3993 
Q 525 4034 450 4034 
Q 369 4034 244 3984 
L 191 4094 
L 1044 4444 
L 1184 4444 
z
" transform="scale(0.015625)"/>
       <path id="TimesNewRomanPSMT-61" d="M 1822 413 
Q 1381 72 1269 19 
Q 1100 -59 909 -59 
Q 613 -59 420 144 
Q 228 347 228 678 
Q 228 888 322 1041 
Q 450 1253 767 1440 
Q 1084 1628 1822 1897 
L 1822 2009 
Q 1822 2438 1686 2597 
Q 1550 2756 1291 2756 
Q 1094 2756 978 2650 
Q 859 2544 859 2406 
L 866 2225 
Q 866 2081 792 2003 
Q 719 1925 600 1925 
Q 484 1925 411 2006 
Q 338 2088 338 2228 
Q 338 2497 613 2722 
Q 888 2947 1384 2947 
Q 1766 2947 2009 2819 
Q 2194 2722 2281 2516 
Q 2338 2381 2338 1966 
L 2338 994 
Q 2338 584 2353 492 
Q 2369 400 2405 369 
Q 2441 338 2488 338 
Q 2538 338 2575 359 
Q 2641 400 2828 588 
L 2828 413 
Q 2478 -56 2159 -56 
Q 2006 -56 1915 50 
Q 1825 156 1822 413 
z
M 1822 616 
L 1822 1706 
Q 1350 1519 1213 1441 
Q 966 1303 859 1153 
Q 753 1003 753 825 
Q 753 600 887 451 
Q 1022 303 1197 303 
Q 1434 303 1822 616 
z
" transform="scale(0.015625)"/>
       <path id="TimesNewRomanPSMT-63" d="M 2631 1088 
Q 2516 522 2178 217 
Q 1841 -88 1431 -88 
Q 944 -88 581 321 
Q 219 731 219 1428 
Q 219 2103 620 2525 
Q 1022 2947 1584 2947 
Q 2006 2947 2278 2723 
Q 2550 2500 2550 2259 
Q 2550 2141 2473 2067 
Q 2397 1994 2259 1994 
Q 2075 1994 1981 2113 
Q 1928 2178 1911 2362 
Q 1894 2547 1784 2644 
Q 1675 2738 1481 2738 
Q 1169 2738 978 2506 
Q 725 2200 725 1697 
Q 725 1184 976 792 
Q 1228 400 1656 400 
Q 1963 400 2206 609 
Q 2378 753 2541 1131 
L 2631 1088 
z
" transform="scale(0.015625)"/>
       <path id="TimesNewRomanPSMT-65" d="M 681 1784 
Q 678 1147 991 784 
Q 1303 422 1725 422 
Q 2006 422 2214 576 
Q 2422 731 2563 1106 
L 2659 1044 
Q 2594 616 2278 264 
Q 1963 -88 1488 -88 
Q 972 -88 605 314 
Q 238 716 238 1394 
Q 238 2128 614 2539 
Q 991 2950 1559 2950 
Q 2041 2950 2350 2633 
Q 2659 2316 2659 1784 
L 681 1784 
z
M 681 1966 
L 2006 1966 
Q 1991 2241 1941 2353 
Q 1863 2528 1708 2628 
Q 1553 2728 1384 2728 
Q 1125 2728 920 2526 
Q 716 2325 681 1966 
z
" transform="scale(0.015625)"/>
       <path id="TimesNewRomanPSMT-6d" d="M 1050 2338 
Q 1363 2650 1419 2697 
Q 1559 2816 1721 2881 
Q 1884 2947 2044 2947 
Q 2313 2947 2506 2790 
Q 2700 2634 2766 2338 
Q 3088 2713 3309 2830 
Q 3531 2947 3766 2947 
Q 3994 2947 4170 2830 
Q 4347 2713 4450 2447 
Q 4519 2266 4519 1878 
L 4519 647 
Q 4519 378 4559 278 
Q 4591 209 4675 161 
Q 4759 113 4950 113 
L 4950 0 
L 3538 0 
L 3538 113 
L 3597 113 
Q 3781 113 3884 184 
Q 3956 234 3988 344 
Q 4000 397 4000 647 
L 4000 1878 
Q 4000 2228 3916 2372 
Q 3794 2572 3525 2572 
Q 3359 2572 3192 2489 
Q 3025 2406 2788 2181 
L 2781 2147 
L 2788 2013 
L 2788 647 
Q 2788 353 2820 281 
Q 2853 209 2943 161 
Q 3034 113 3253 113 
L 3253 0 
L 1806 0 
L 1806 113 
Q 2044 113 2133 169 
Q 2222 225 2256 338 
Q 2272 391 2272 647 
L 2272 1878 
Q 2272 2228 2169 2381 
Q 2031 2581 1784 2581 
Q 1616 2581 1450 2491 
Q 1191 2353 1050 2181 
L 1050 647 
Q 1050 366 1089 281 
Q 1128 197 1204 155 
Q 1281 113 1516 113 
L 1516 0 
L 100 0 
L 100 113 
Q 297 113 375 155 
Q 453 197 493 289 
Q 534 381 534 647 
L 534 1741 
Q 534 2213 506 2350 
Q 484 2453 437 2492 
Q 391 2531 309 2531 
Q 222 2531 100 2484 
L 53 2597 
L 916 2947 
L 1050 2947 
L 1050 2338 
z
" transform="scale(0.015625)"/>
       <path id="TimesNewRomanPSMT-6e" d="M 1034 2341 
Q 1538 2947 1994 2947 
Q 2228 2947 2397 2830 
Q 2566 2713 2666 2444 
Q 2734 2256 2734 1869 
L 2734 647 
Q 2734 375 2778 278 
Q 2813 200 2889 156 
Q 2966 113 3172 113 
L 3172 0 
L 1756 0 
L 1756 113 
L 1816 113 
Q 2016 113 2095 173 
Q 2175 234 2206 353 
Q 2219 400 2219 647 
L 2219 1819 
Q 2219 2209 2117 2386 
Q 2016 2563 1775 2563 
Q 1403 2563 1034 2156 
L 1034 647 
Q 1034 356 1069 288 
Q 1113 197 1189 155 
Q 1266 113 1500 113 
L 1500 0 
L 84 0 
L 84 113 
L 147 113 
Q 366 113 442 223 
Q 519 334 519 647 
L 519 1709 
Q 519 2225 495 2337 
Q 472 2450 423 2490 
Q 375 2531 294 2531 
Q 206 2531 84 2484 
L 38 2597 
L 900 2947 
L 1034 2947 
L 1034 2341 
z
" transform="scale(0.015625)"/>
       <path id="TimesNewRomanPSMT-74" d="M 1031 3803 
L 1031 2863 
L 1700 2863 
L 1700 2644 
L 1031 2644 
L 1031 788 
Q 1031 509 1111 412 
Q 1191 316 1316 316 
Q 1419 316 1516 380 
Q 1613 444 1666 569 
L 1788 569 
Q 1678 263 1478 108 
Q 1278 -47 1066 -47 
Q 922 -47 784 33 
Q 647 113 581 261 
Q 516 409 516 719 
L 516 2644 
L 63 2644 
L 63 2747 
Q 234 2816 414 2980 
Q 594 3144 734 3369 
Q 806 3488 934 3803 
L 1031 3803 
z
" transform="scale(0.015625)"/>
       <path id="TimesNewRomanPSMT-20" transform="scale(0.015625)"/>
       <path id="TimesNewRomanPSMT-28" d="M 1988 -1253 
L 1988 -1369 
Q 1516 -1131 1200 -813 
Q 750 -359 506 256 
Q 263 872 263 1534 
Q 263 2503 741 3301 
Q 1219 4100 1988 4444 
L 1988 4313 
Q 1603 4100 1356 3731 
Q 1109 3363 987 2797 
Q 866 2231 866 1616 
Q 866 947 969 400 
Q 1050 -31 1165 -292 
Q 1281 -553 1476 -793 
Q 1672 -1034 1988 -1253 
z
" transform="scale(0.015625)"/>
       <path id="TimesNewRomanPSMT-29" d="M 144 4313 
L 144 4444 
Q 619 4209 934 3891 
Q 1381 3434 1625 2820 
Q 1869 2206 1869 1541 
Q 1869 572 1392 -226 
Q 916 -1025 144 -1369 
L 144 -1253 
Q 528 -1038 776 -670 
Q 1025 -303 1145 264 
Q 1266 831 1266 1447 
Q 1266 2113 1163 2663 
Q 1084 3094 967 3353 
Q 850 3613 656 3853 
Q 463 4094 144 4313 
z
" transform="scale(0.015625)"/>
      </defs>
      <use xlink:href="#TimesNewRomanPSMT-44"/>
      <use xlink:href="#TimesNewRomanPSMT-69" x="72.216797"/>
      <use xlink:href="#TimesNewRomanPSMT-73" x="100"/>
      <use xlink:href="#TimesNewRomanPSMT-70" x="138.916016"/>
      <use xlink:href="#TimesNewRomanPSMT-6c" x="188.916016"/>
      <use xlink:href="#TimesNewRomanPSMT-61" x="216.699219"/>
      <use xlink:href="#TimesNewRomanPSMT-63" x="261.083984"/>
      <use xlink:href="#TimesNewRomanPSMT-65" x="305.46875"/>
      <use xlink:href="#TimesNewRomanPSMT-6d" x="349.853516"/>
      <use xlink:href="#TimesNewRomanPSMT-65" x="427.636719"/>
      <use xlink:href="#TimesNewRomanPSMT-6e" x="472.021484"/>
      <use xlink:href="#TimesNewRomanPSMT-74" x="522.021484"/>
      <use xlink:href="#TimesNewRomanPSMT-20" x="549.804688"/>
      <use xlink:href="#TimesNewRomanPSMT-28" x="574.804688"/>
      <use xlink:href="#TimesNewRomanPSMT-6d" x="608.105469"/>
      <use xlink:href="#TimesNewRomanPSMT-6d" x="685.888672"/>
      <use xlink:href="#TimesNewRomanPSMT-29" x="763.671875"/>
     </g>
    </g>
   </g>
   <g id="matplotlib.axis_2">
    <g id="ytick_1">
     <g id="line2d_11">
      <path d="M 49.432813 230.871675 
L 272.522812 230.871675 
" clip-path="url(#paf43c0fda7)" style="fill: none; stroke-dasharray: 0.8,1.32; stroke-dashoffset: 0; stroke: #b0b0b0; stroke-width: 0.8"/>
     </g>
     <g id="line2d_12">
      <defs>
       <path id="md5f2d42710" d="M 0 0 
L -3.5 0 
" style="stroke: #000000; stroke-width: 0.8"/>
      </defs>
      <g>
       <use xlink:href="#md5f2d42710" x="49.432813" y="230.871675" style="stroke: #000000; stroke-width: 0.8"/>
      </g>
     </g>
     <g id="text_7">
      <!-- −150 -->
      <g transform="translate(20.282813 234.365425) scale(0.1 -0.1)">
       <use xlink:href="#Cambria-2212"/>
       <use xlink:href="#Cambria-31" x="55.371094"/>
       <use xlink:href="#Cambria-35" x="110.742188"/>
       <use xlink:href="#Cambria-30" x="166.113281"/>
      </g>
     </g>
    </g>
    <g id="ytick_2">
     <g id="line2d_13">
      <path d="M 49.432813 200.397959 
L 272.522812 200.397959 
" clip-path="url(#paf43c0fda7)" style="fill: none; stroke-dasharray: 0.8,1.32; stroke-dashoffset: 0; stroke: #b0b0b0; stroke-width: 0.8"/>
     </g>
     <g id="line2d_14">
      <g>
       <use xlink:href="#md5f2d42710" x="49.432813" y="200.397959" style="stroke: #000000; stroke-width: 0.8"/>
      </g>
     </g>
     <g id="text_8">
      <!-- −100 -->
      <g transform="translate(20.282813 203.891709) scale(0.1 -0.1)">
       <use xlink:href="#Cambria-2212"/>
       <use xlink:href="#Cambria-31" x="55.371094"/>
       <use xlink:href="#Cambria-30" x="110.742188"/>
       <use xlink:href="#Cambria-30" x="166.113281"/>
      </g>
     </g>
    </g>
    <g id="ytick_3">
     <g id="line2d_15">
      <path d="M 49.432813 169.924242 
L 272.522812 169.924242 
" clip-path="url(#paf43c0fda7)" style="fill: none; stroke-dasharray: 0.8,1.32; stroke-dashoffset: 0; stroke: #b0b0b0; stroke-width: 0.8"/>
     </g>
     <g id="line2d_16">
      <g>
       <use xlink:href="#md5f2d42710" x="49.432813" y="169.924242" style="stroke: #000000; stroke-width: 0.8"/>
      </g>
     </g>
     <g id="text_9">
      <!-- −50 -->
      <g transform="translate(25.820313 173.417992) scale(0.1 -0.1)">
       <use xlink:href="#Cambria-2212"/>
       <use xlink:href="#Cambria-35" x="55.371094"/>
       <use xlink:href="#Cambria-30" x="110.742188"/>
      </g>
     </g>
    </g>
    <g id="ytick_4">
     <g id="line2d_17">
      <path d="M 49.432813 139.450526 
L 272.522812 139.450526 
" clip-path="url(#paf43c0fda7)" style="fill: none; stroke-dasharray: 0.8,1.32; stroke-dashoffset: 0; stroke: #b0b0b0; stroke-width: 0.8"/>
     </g>
     <g id="line2d_18">
      <g>
       <use xlink:href="#md5f2d42710" x="49.432813" y="139.450526" style="stroke: #000000; stroke-width: 0.8"/>
      </g>
     </g>
     <g id="text_10">
      <!-- 0 -->
      <g transform="translate(36.895313 142.944276) scale(0.1 -0.1)">
       <use xlink:href="#Cambria-30"/>
      </g>
     </g>
    </g>
    <g id="ytick_5">
     <g id="line2d_19">
      <path d="M 49.432813 108.97681 
L 272.522812 108.97681 
" clip-path="url(#paf43c0fda7)" style="fill: none; stroke-dasharray: 0.8,1.32; stroke-dashoffset: 0; stroke: #b0b0b0; stroke-width: 0.8"/>
     </g>
     <g id="line2d_20">
      <g>
       <use xlink:href="#md5f2d42710" x="49.432813" y="108.97681" style="stroke: #000000; stroke-width: 0.8"/>
      </g>
     </g>
     <g id="text_11">
      <!-- 50 -->
      <g transform="translate(31.357813 112.47056) scale(0.1 -0.1)">
       <use xlink:href="#Cambria-35"/>
       <use xlink:href="#Cambria-30" x="55.371094"/>
      </g>
     </g>
    </g>
    <g id="ytick_6">
     <g id="line2d_21">
      <path d="M 49.432813 78.503093 
L 272.522812 78.503093 
" clip-path="url(#paf43c0fda7)" style="fill: none; stroke-dasharray: 0.8,1.32; stroke-dashoffset: 0; stroke: #b0b0b0; stroke-width: 0.8"/>
     </g>
     <g id="line2d_22">
      <g>
       <use xlink:href="#md5f2d42710" x="49.432813" y="78.503093" style="stroke: #000000; stroke-width: 0.8"/>
      </g>
     </g>
     <g id="text_12">
      <!-- 100 -->
      <g transform="translate(25.820313 81.996843) scale(0.1 -0.1)">
       <use xlink:href="#Cambria-31"/>
       <use xlink:href="#Cambria-30" x="55.371094"/>
       <use xlink:href="#Cambria-30" x="110.742188"/>
      </g>
     </g>
    </g>
    <g id="ytick_7">
     <g id="line2d_23">
      <path d="M 49.432813 48.029377 
L 272.522812 48.029377 
" clip-path="url(#paf43c0fda7)" style="fill: none; stroke-dasharray: 0.8,1.32; stroke-dashoffset: 0; stroke: #b0b0b0; stroke-width: 0.8"/>
     </g>
     <g id="line2d_24">
      <g>
       <use xlink:href="#md5f2d42710" x="49.432813" y="48.029377" style="stroke: #000000; stroke-width: 0.8"/>
      </g>
     </g>
     <g id="text_13">
      <!-- 150 -->
      <g transform="translate(25.820313 51.523127) scale(0.1 -0.1)">
       <use xlink:href="#Cambria-31"/>
       <use xlink:href="#Cambria-35" x="55.371094"/>
       <use xlink:href="#Cambria-30" x="110.742188"/>
      </g>
     </g>
    </g>
    <g id="text_14">
     <!-- Base Shear (kN) -->
     <g transform="translate(14.14375 171.319063) rotate(-90) scale(0.1 -0.1)">
      <defs>
       <path id="TimesNewRomanPSMT-42" d="M 2956 2163 
Q 3397 2069 3616 1863 
Q 3919 1575 3919 1159 
Q 3919 844 3719 555 
Q 3519 266 3170 133 
Q 2822 0 2106 0 
L 106 0 
L 106 116 
L 266 116 
Q 531 116 647 284 
Q 719 394 719 750 
L 719 3488 
Q 719 3881 628 3984 
Q 506 4122 266 4122 
L 106 4122 
L 106 4238 
L 1938 4238 
Q 2450 4238 2759 4163 
Q 3228 4050 3475 3764 
Q 3722 3478 3722 3106 
Q 3722 2788 3528 2536 
Q 3334 2284 2956 2163 
z
M 1319 2331 
Q 1434 2309 1582 2298 
Q 1731 2288 1909 2288 
Q 2366 2288 2595 2386 
Q 2825 2484 2947 2687 
Q 3069 2891 3069 3131 
Q 3069 3503 2766 3765 
Q 2463 4028 1881 4028 
Q 1569 4028 1319 3959 
L 1319 2331 
z
M 1319 306 
Q 1681 222 2034 222 
Q 2600 222 2897 476 
Q 3194 731 3194 1106 
Q 3194 1353 3059 1581 
Q 2925 1809 2622 1940 
Q 2319 2072 1872 2072 
Q 1678 2072 1540 2065 
Q 1403 2059 1319 2044 
L 1319 306 
z
" transform="scale(0.015625)"/>
       <path id="TimesNewRomanPSMT-53" d="M 2934 4334 
L 2934 2869 
L 2819 2869 
Q 2763 3291 2617 3541 
Q 2472 3791 2203 3937 
Q 1934 4084 1647 4084 
Q 1322 4084 1109 3886 
Q 897 3688 897 3434 
Q 897 3241 1031 3081 
Q 1225 2847 1953 2456 
Q 2547 2138 2764 1967 
Q 2981 1797 3098 1565 
Q 3216 1334 3216 1081 
Q 3216 600 2842 251 
Q 2469 -97 1881 -97 
Q 1697 -97 1534 -69 
Q 1438 -53 1133 45 
Q 828 144 747 144 
Q 669 144 623 97 
Q 578 50 556 -97 
L 441 -97 
L 441 1356 
L 556 1356 
Q 638 900 775 673 
Q 913 447 1195 297 
Q 1478 147 1816 147 
Q 2206 147 2432 353 
Q 2659 559 2659 841 
Q 2659 997 2573 1156 
Q 2488 1316 2306 1453 
Q 2184 1547 1640 1851 
Q 1097 2156 867 2337 
Q 638 2519 519 2737 
Q 400 2956 400 3219 
Q 400 3675 750 4004 
Q 1100 4334 1641 4334 
Q 1978 4334 2356 4169 
Q 2531 4091 2603 4091 
Q 2684 4091 2736 4139 
Q 2788 4188 2819 4334 
L 2934 4334 
z
" transform="scale(0.015625)"/>
       <path id="TimesNewRomanPSMT-68" d="M 1041 4444 
L 1041 2350 
Q 1388 2731 1591 2839 
Q 1794 2947 1997 2947 
Q 2241 2947 2416 2812 
Q 2591 2678 2675 2391 
Q 2734 2191 2734 1659 
L 2734 647 
Q 2734 375 2778 275 
Q 2809 200 2884 156 
Q 2959 113 3159 113 
L 3159 0 
L 1753 0 
L 1753 113 
L 1819 113 
Q 2019 113 2097 173 
Q 2175 234 2206 353 
Q 2216 403 2216 647 
L 2216 1659 
Q 2216 2128 2167 2275 
Q 2119 2422 2012 2495 
Q 1906 2569 1756 2569 
Q 1603 2569 1437 2487 
Q 1272 2406 1041 2159 
L 1041 647 
Q 1041 353 1073 281 
Q 1106 209 1195 161 
Q 1284 113 1503 113 
L 1503 0 
L 84 0 
L 84 113 
Q 275 113 384 172 
Q 447 203 484 290 
Q 522 378 522 647 
L 522 3238 
Q 522 3728 498 3840 
Q 475 3953 426 3993 
Q 378 4034 297 4034 
Q 231 4034 84 3984 
L 41 4094 
L 897 4444 
L 1041 4444 
z
" transform="scale(0.015625)"/>
       <path id="TimesNewRomanPSMT-72" d="M 1038 2947 
L 1038 2303 
Q 1397 2947 1775 2947 
Q 1947 2947 2059 2842 
Q 2172 2738 2172 2600 
Q 2172 2478 2090 2393 
Q 2009 2309 1897 2309 
Q 1788 2309 1652 2417 
Q 1516 2525 1450 2525 
Q 1394 2525 1328 2463 
Q 1188 2334 1038 2041 
L 1038 669 
Q 1038 431 1097 309 
Q 1138 225 1241 169 
Q 1344 113 1538 113 
L 1538 0 
L 72 0 
L 72 113 
Q 291 113 397 181 
Q 475 231 506 341 
Q 522 394 522 644 
L 522 1753 
Q 522 2253 501 2348 
Q 481 2444 426 2487 
Q 372 2531 291 2531 
Q 194 2531 72 2484 
L 41 2597 
L 906 2947 
L 1038 2947 
z
" transform="scale(0.015625)"/>
       <path id="TimesNewRomanPSMT-6b" d="M 1047 4444 
L 1047 1597 
L 1775 2259 
Q 2006 2472 2044 2528 
Q 2069 2566 2069 2603 
Q 2069 2666 2017 2711 
Q 1966 2756 1847 2763 
L 1847 2863 
L 3091 2863 
L 3091 2763 
Q 2834 2756 2664 2684 
Q 2494 2613 2291 2428 
L 1556 1750 
L 2291 822 
Q 2597 438 2703 334 
Q 2853 188 2966 144 
Q 3044 113 3238 113 
L 3238 0 
L 1847 0 
L 1847 113 
Q 1966 116 2008 148 
Q 2050 181 2050 241 
Q 2050 313 1925 472 
L 1047 1594 
L 1047 644 
Q 1047 366 1086 278 
Q 1125 191 1197 153 
Q 1269 116 1509 113 
L 1509 0 
L 53 0 
L 53 113 
Q 272 113 381 166 
Q 447 200 481 272 
Q 528 375 528 628 
L 528 3234 
Q 528 3731 506 3842 
Q 484 3953 434 3995 
Q 384 4038 303 4038 
Q 238 4038 106 3984 
L 53 4094 
L 903 4444 
L 1047 4444 
z
" transform="scale(0.015625)"/>
       <path id="TimesNewRomanPSMT-4e" d="M -84 4238 
L 1066 4238 
L 3656 1059 
L 3656 3503 
Q 3656 3894 3569 3991 
Q 3453 4122 3203 4122 
L 3056 4122 
L 3056 4238 
L 4531 4238 
L 4531 4122 
L 4381 4122 
Q 4113 4122 4000 3959 
Q 3931 3859 3931 3503 
L 3931 -69 
L 3819 -69 
L 1025 3344 
L 1025 734 
Q 1025 344 1109 247 
Q 1228 116 1475 116 
L 1625 116 
L 1625 0 
L 150 0 
L 150 116 
L 297 116 
Q 569 116 681 278 
Q 750 378 750 734 
L 750 3681 
Q 566 3897 470 3965 
Q 375 4034 191 4094 
Q 100 4122 -84 4122 
L -84 4238 
z
" transform="scale(0.015625)"/>
      </defs>
      <use xlink:href="#TimesNewRomanPSMT-42"/>
      <use xlink:href="#TimesNewRomanPSMT-61" x="66.699219"/>
      <use xlink:href="#TimesNewRomanPSMT-73" x="111.083984"/>
      <use xlink:href="#TimesNewRomanPSMT-65" x="150"/>
      <use xlink:href="#TimesNewRomanPSMT-20" x="194.384766"/>
      <use xlink:href="#TimesNewRomanPSMT-53" x="219.384766"/>
      <use xlink:href="#TimesNewRomanPSMT-68" x="275"/>
      <use xlink:href="#TimesNewRomanPSMT-65" x="325"/>
      <use xlink:href="#TimesNewRomanPSMT-61" x="369.384766"/>
      <use xlink:href="#TimesNewRomanPSMT-72" x="413.769531"/>
      <use xlink:href="#TimesNewRomanPSMT-20" x="447.070312"/>
      <use xlink:href="#TimesNewRomanPSMT-28" x="472.070312"/>
      <use xlink:href="#TimesNewRomanPSMT-6b" x="505.371094"/>
      <use xlink:href="#TimesNewRomanPSMT-4e" x="555.371094"/>
      <use xlink:href="#TimesNewRomanPSMT-29" x="627.587891"/>
     </g>
    </g>
   </g>
   <g id="line2d_25">
    <path d="M 169.176314 140.381711 
L 169.102716 131.112107 
L 169.731825 119.971672 
L 172.056317 96.429489 
L 174.429902 79.067046 
L 174.139852 87.727134 
L 173.210941 106.29171 
L 172.552409 113.724304 
L 171.530311 120.547375 
L 170.935542 136.013627 
L 170.272092 142.828245 
L 169.245077 149.033346 
L 167.898507 160.190688 
L 166.930338 173.811476 
L 165.22512 184.977271 
L 163.888468 197.370566 
L 163.190678 199.859366 
L 163.809952 187.482984 
L 164.768287 172.626249 
L 169.869187 137.274934 
L 172.562244 114.960251 
L 173.515661 99.485539 
L 174.48383 85.864757 
L 175.481504 75.951816 
L 176.857415 68.502315 
L 178.267747 65.378631 
L 177.304495 79.617389 
L 177.387929 90.122947 
L 176.065947 104.370159 
L 174.729212 116.763448 
L 173.37289 126.684843 
L 171.289354 135.387203 
L 169.603725 149.024892 
L 166.473504 161.460454 
L 165.176109 178.797536 
L 164.168682 187.474531 
L 163.52482 196.761043 
L 162.512475 204.820067 
L 161.136565 212.269562 
L 159.382255 217.255628 
L 159.652634 206.123641 
L 160.610969 191.266912 
L 164.650513 157.794881 
L 168.729315 129.266637 
L 170.41978 116.246918 
L 173.491155 96.395675 
L 174.454407 82.156916 
L 175.456917 72.861951 
L 177.560122 66.63149 
L 179.668245 61.019006 
L 182.139934 56.016032 
L 182.228284 67.13956 
L 181.255197 80.142372 
L 179.540145 90.07222 
L 178.193657 101.229568 
L 174.76847 121.707241 
L 173.377807 127.302819 
L 171.65292 135.99672 
L 170.316267 148.390009 
L 168.59138 157.083917 
L 165.810054 168.275072 
L 164.104837 179.440873 
L 161.687159 191.241552 
L 160.669896 198.682593 
L 159.667387 207.977564 
L 157.574016 215.443972 
L 157.234874 217.924319 
L 154.773021 224.163234 
L 153.008875 227.913348 
L 150.881164 231.053944 
L 150.173621 232.306798 
L 150.100023 223.037193 
L 152.105043 204.447251 
L 154.503133 190.174679 
L 156.183845 175.919007 
L 159.633538 158.531205 
L 161.697403 147.356956 
L 163.781021 138.654601 
L 166.916159 126.837016 
L 170.061132 116.255372 
L 172.10541 102.609229 
L 175.230713 89.555691 
L 179.402783 72.768958 
L 180.754188 62.229587 
L 183.186619 52.282825 
L 185.668142 48.515805 
L 188.523066 46.594254 
L 188.950477 55.237441 
L 188.291945 62.670029 
L 186.58181 73.217854 
L 184.537532 86.863996 
L 181.117262 107.959646 
L 177.987041 120.395208 
L 173.834641 139.653841 
L 166.812564 158.980107 
L 164.375216 168.308886 
L 161.618396 182.589911 
L 157.44149 198.75868 
L 155.716685 207.452581 
L 153.274419 216.16339 
L 152.242404 221.750514 
L 150.851742 227.346098 
L 148.375136 231.731095 
L 148.969905 216.264837 
L 150.630947 199.537277 
L 153.043789 187.118622 
L 156.886471 174.048183 
L 159.299313 161.629528 
L 161.373096 151.691227 
L 163.451714 142.370895 
L 164.817871 133.685447 
L 167.245384 123.120716 
L 170.38544 111.921107 
L 173.554918 104.429333 
L 176.704809 94.465671 
L 180.513232 77.069409 
L 182.945662 67.122654 
L 185.751575 59.021362 
L 187.456793 47.855561 
L 189.564834 42.243083 
L 192.056192 39.712009 
L 194.527881 34.709041 
L 196.665426 32.804398 
L 199.520432 30.882841 
L 199.923256 36.436158 
L 198.620944 53.155263 
L 197.269539 63.694635 
L 195.564321 74.86043 
L 193.495456 85.416708 
L 191.431509 96.590957 
L 186.556813 115.248526 
L 183.421674 127.066111 
L 180.964656 133.923002 
L 177.800095 142.032741 
L 173.544674 148.313928 
L 171.077821 153.934866 
L 163.687261 172.033639 
L 161.957538 180.109564 
L 157.74621 191.952516 
L 154.606154 203.152124 
L 152.154136 210.626986 
L 146.208167 229.927892 
L 141.60385 237.45348 
L 138.419619 243.091318 
L 134.134693 245.664659 
L 134.709874 227.726513 
L 136.390504 213.470854 
L 141.913979 186.144743 
L 144.341492 175.580012 
L 152.041689 151.293051 
L 155.565062 143.174853 
L 159.815567 136.275695 
L 164.395378 125.660243 
L 168.645882 118.761085 
L 174.989757 104.395519 
L 178.847272 93.178998 
L 183.402496 79.473675 
L 186.537634 67.65609 
L 189.333712 58.318852 
L 192.144543 50.835537 
L 201.343423 34.548421 
L 202.5078 45.646582 
L 200.458605 58.674754 
L 199.461013 68.587702 
L 196.704192 82.868728 
L 191.505107 105.860568 
L 188.718864 116.433746 
L 185.220078 127.641815 
L 180.291454 139.501673 
L 175.333324 147.653685 
L 164.031239 170.171262 
L 160.50303 177.671484 
L 155.554736 187.059449 
L 152.041198 196.413593 
L 149.250037 206.368802 
L 146.449123 215.088064 
L 142.576937 224.450668 
L 136.576958 236.953857 
L 133.043914 243.836108 
L 134.695121 225.87259 
L 136.739399 212.226447 
L 138.813181 202.288146 
L 141.570002 188.00712 
L 149.594588 159.385889 
L 152.749314 150.040197 
L 155.90904 141.312476 
L 161.211147 131.298094 
L 165.810546 123.15453 
L 170.758922 113.766571 
L 175.363239 106.240989 
L 179.235425 96.878385 
L 182.414739 90.622564 
L 185.93803 82.504366 
L 193.677485 63.161199 
L 196.856798 56.905377 
L 203.240013 47.483599 
L 206.448749 44.935618 
L 209.318425 44.867991 
L 212.163514 41.710488 
L 215.377168 39.780483 
L 216.143721 45.943311 
L 214.802069 57.718629 
L 211.332788 72.634538 
L 209.622653 83.182363 
L 206.133703 95.626378 
L 202.983812 105.59004 
L 195.259028 126.787137 
L 190.664546 135.548665 
L 185.323181 140.619266 
L 181.04809 144.428554 
L 175.69689 148.263202 
L 172.173599 156.3814 
L 168.267072 161.418181 
L 162.960048 170.814599 
L 159.780734 177.07042 
L 146.748926 207.663929 
L 143.928342 213.911297 
L 141.800631 217.051887 
L 140.365793 217.085701 
L 139.324025 221.436884 
L 137.55988 225.186992 
L 134.704956 227.108543 
L 133.663189 231.45972 
L 130.818018 234.617224 
L 126.891821 237.182111 
L 123.688002 240.348062 
L 121.177056 240.407236 
L 117.953567 241.101293 
L 118.582677 229.960858 
L 120.941509 210.744498 
L 122.278161 198.35121 
L 125.074239 189.013966 
L 128.946426 179.651367 
L 131.747421 170.932106 
L 135.619607 161.569507 
L 140.214171 152.807973 
L 144.105945 145.917268 
L 148.371202 140.872034 
L 151.22129 138.332506 
L 155.520887 137.613089 
L 155.491382 133.905248 
L 157.638763 133.236551 
L 160.837664 129.452624 
L 164.39046 125.042267 
L 169.712237 117.499778 
L 175.731722 107.468483 
L 180.694769 99.934441 
L 185.279498 89.936966 
L 191.303982 80.523635 
L 196.601171 69.891276 
L 200.841841 61.756171 
L 204.384802 56.109867 
L 209.352766 49.193802 
L 213.278962 46.628915 
L 217.209994 44.682004 
L 217.25417 50.243774 
L 215.897847 60.165169 
L 214.91009 71.314057 
L 210.713514 85.01092 
L 207.239234 99.308859 
L 203.715943 107.427057 
L 200.905194 114.910371 
L 198.104199 123.629633 
L 192.428609 131.798558 
L 187.101997 138.723076 
L 181.411737 145.038077 
L 173.932827 152.013316 
L 168.964862 158.92938 
L 163.289273 167.098305 
L 153.038872 186.500652 
L 149.12251 190.301486 
L 146.970212 190.352207 
L 147.717095 194.043141 
L 144.532864 199.680991 
L 140.650843 207.807643 
L 136.759069 214.698347 
L 134.267711 217.229421 
L 129.658476 224.137026 
L 127.162201 226.050124 
L 125.73228 226.701914 
L 123.968217 230.452028 
L 121.467023 231.747154 
L 118.62677 235.522628 
L 115.766929 236.826203 
L 117.098746 223.814937 
L 118.77454 208.941302 
L 121.526443 194.042299 
L 125.383877 182.825778 
L 128.179955 173.48854 
L 132.057058 164.743918 
L 135.939079 156.61726 
L 140.887374 147.229302 
L 146.572798 140.29633 
L 150.484242 135.877519 
L 154.764169 132.686208 
L 160.837664 129.452624 
L 166.179111 124.382023 
L 172.920974 114.951797 
L 177.510538 105.572292 
L 183.515352 93.687074 
L 188.463729 84.299109 
L 194.109813 72.42235 
L 200.134297 63.009031 
L 205.082592 53.621066 
L 211.84896 47.280705 
L 216.861099 45.926404 
L 221.141108 42.735087 
L 226.153166 41.380792 
L 228.290712 39.476149 
L 232.934368 36.894354 
L 234.762195 41.177898 
L 235.907066 49.804166 
L 234.531073 57.253674 
L 232.816103 67.183522 
L 228.295137 85.214661 
L 225.494142 93.933923 
L 221.268143 103.922951 
L 216.673661 112.684486 
L 210.639424 120.861858 
L 205.666542 127.159952 
L 199.244152 131.637937 
L 193.89787 136.090555 
L 186.389454 139.357959 
L 177.465953 145.131064 
L 170.728926 155.179267 
L 165.048501 162.730215 
L 154.744089 175.334851 
L 149.083253 185.357693 
L 144.832666 192.256851 
L 141.294705 198.521125 
L 138.827852 204.142069 
L 135.638785 209.161944 
L 132.444719 213.563847 
L 128.892005 217.974199 
L 123.555476 223.662776 
L 119.64895 228.699551 
L 108.219337 235.149813 
L 104.2588 233.388883 
L 101.693844 226.650346 
L 100.942125 222.341442 
L 102.662013 213.029564 
L 105.792316 200.594002 
L 107.866016 190.655694 
L 109.949552 181.953346 
L 112.416405 176.332402 
L 115.590801 169.458604 
L 119.114092 161.340406 
L 122.642301 153.840184 
L 126.907557 148.79495 
L 132.612569 144.333872 
L 140.120903 141.066474 
L 144.75956 137.866703 
L 149.029734 133.439439 
L 156.528314 128.936094 
L 165.810546 123.15453 
L 172.567161 115.578227 
L 184.670058 103.549295 
L 190.345565 95.380376 
L 199.224974 84.045501 
L 203.126665 78.390743 
L 209.888115 71.432405 
L 214.497349 64.524794 
L 221.249047 56.330515 
L 226.600247 52.495867 
L 231.243821 49.914073 
L 233.396119 49.863352 
L 233.798943 55.416657 
L 232.80135 65.329598 
L 230.015107 75.902783 
L 227.946242 86.459062 
L 223.381183 98.928437 
L 218.437725 108.934372 
L 212.442745 122.055538 
L 204.993258 132.738623 
L 198.58562 139.070525 
L 189.637449 141.753766 
L 179.986652 146.307838 
L 167.839661 152.775006 
L 160.345999 157.896328 
L 155.373117 164.194416 
L 151.107942 169.23965 
L 146.837768 173.666915 
L 141.845217 177.493109 
L 137.235982 184.40072 
L 130.833262 191.350605 
L 127.639196 195.752503 
L 121.590206 202.075957 
L 116.602654 206.520128 
L 111.988502 212.809763 
L 108.072141 216.610597 
L 103.806884 221.655832 
L 100.942125 222.341442 
L 97.384494 226.133817 
L 97.315731 217.482182 
L 99.016031 205.698417 
L 102.161004 195.116772 
L 105.649955 182.672763 
L 110.578661 170.812905 
L 115.531873 162.042923 
L 121.21238 154.491975 
L 130.135964 148.718863 
L 139.054548 142.327781 
L 148.341779 137.164193 
L 156.896797 130.163588 
L 165.102921 124.407389 
L 175.087942 116.754994 
L 181.85431 110.414633 
L 187.9033 104.091178 
L 195.00881 95.270476 
L 204.266536 86.399041 
L 209.966631 81.319986 
L 221.337398 67.454043 
L 228.103765 61.113688 
L 232.393527 59.158317 
L 235.228863 54.764873 
L 237.381162 54.714146 
L 240.589898 52.166172 
L 245.602038 50.811859 
L 251.356061 52.530528 
L 253.21831 61.139889 
L 256.151831 69.105914 
L 260.515192 76.42016 
L 262.382358 85.647498 
L 256.053154 101.866987 
L 251.463508 111.246492 
L 248.289112 118.120284 
L 244.746233 123.766588 
L 239.409703 129.455159 
L 231.557392 134.584934 
L 224.053976 138.470309 
L 207.238742 144.429401 
L 200.433116 145.825969 
L 190.767567 148.526117 
L 186.497475 152.953381 
L 181.49517 155.543629 
L 172.905729 158.218416 
L 163.613663 162.764028 
L 153.279746 171.660824 
L 146.159566 178.627615 
L 139.742093 183.723576 
L 131.182157 190.106205 
L 125.477145 194.567282 
L 119.049837 198.42729 
L 111.914904 203.540158 
L 104.440829 211.133374 
L 98.730981 214.976475 
L 90.859 217.634356 
L 82.593949 215.974873 
L 76.835008 213.63824 
L 73.916239 207.526127 
L 71.734518 203.869006 
L 71.312025 195.843802 
L 72.339122 189.638701 
L 75.847661 179.666586 
L 80.781285 168.424704 
L 86.093226 159.646262 
L 93.562302 151.435077 
L 99.262397 146.356023 
L 105.704457 144.349932 
L 122.534362 140.244763 
L 135.059752 136.241034 
L 144.371407 134.167316 
L 151.157445 130.298849 
L 163.294682 122.595733 
L 175.471178 119.836411 
L 183.323489 114.706636 
L 192.979203 110.770541 
L 200.487618 107.503144 
L 209.076977 104.828356 
L 220.182282 102.712364 
L 236.333985 103.56789 
L 242.44182 104.660123 
L 249.267116 105.735449 
L 252.868923 107.504832 
L 253.620723 111.813742 
L 251.158788 118.052657 
L 246.190906 124.968721 
L 235.871742 135.719434 
L 219.076177 144.150426 
L 213.351577 146.139604 
L 205.848079 150.024979 
L 195.116257 153.986434 
L 187.598088 156.017885 
L 175.062945 158.785666 
L 163.608745 162.146058 
L 154.316679 166.691676 
L 145.72232 168.748487 
L 135.707958 172.693035 
L 126.750034 174.14033 
L 115.286081 176.264768 
L 102.765608 180.886473 
L 95.969735 183.518988 
L 85.920951 183.137719 
L 79.469138 183.907863 
L 78.727172 180.834905 
L 75.498766 180.910992 
L 71.174663 178.540539 
L 67.572857 176.771156 
L 62.472366 167.001929 
L 59.573267 163.361715 
L 59.573267 163.361715 
" clip-path="url(#paf43c0fda7)" style="fill: none; stroke-dasharray: 3.7,1.6; stroke-dashoffset: 0; stroke: #000000"/>
   </g>
   <g id="line2d_26">
    <path d="M 168.99699 139.450526 
L 168.99699 139.450526 
L 169.127992 132.757321 
L 169.258995 126.0628 
L 169.389997 119.336373 
L 169.521 112.558977 
L 169.652002 105.935082 
L 169.783005 99.752873 
L 169.914007 94.230158 
L 170.04501 89.467417 
L 170.176012 85.523634 
L 170.307015 82.256381 
L 170.438017 79.658794 
L 170.56902 77.48426 
L 170.700022 75.764008 
L 170.831024 74.217884 
L 170.962027 73.026021 
L 171.093029 71.838515 
L 171.224032 70.698006 
L 171.355034 69.628937 
L 171.486037 68.737505 
L 171.617039 71.563174 
L 171.748042 71.755229 
L 171.879044 71.404667 
L 172.010047 70.856576 
L 172.141049 70.219837 
L 172.272052 69.539719 
L 172.403054 68.841664 
L 172.534056 68.156896 
L 172.665059 67.626863 
L 172.796061 67.126431 
L 172.927064 66.639762 
L 173.058066 66.171284 
L 173.189069 65.720668 
" clip-path="url(#paf43c0fda7)" style="fill: none; stroke: #ff0000; stroke-width: 1.2; stroke-linecap: square"/>
   </g>
   <g id="line2d_27">
    <path d="M 49.432813 139.450526 
L 272.522812 139.450526 
" clip-path="url(#paf43c0fda7)" style="fill: none; stroke: #000000; stroke-width: 0.4; stroke-linecap: square"/>
   </g>
   <g id="line2d_28">
    <path d="M 168.99699 256.40375 
L 168.99699 20.14375 
" clip-path="url(#paf43c0fda7)" style="fill: none; stroke: #000000; stroke-width: 0.4; stroke-linecap: square"/>
   </g>
   <g id="patch_3">
    <path d="M 49.432813 256.40375 
L 49.432813 20.14375 
" style="fill: none; stroke: #000000; stroke-width: 0.8; stroke-linejoin: miter; stroke-linecap: square"/>
   </g>
   <g id="patch_4">
    <path d="M 272.522812 256.40375 
L 272.522812 20.14375 
" style="fill: none; stroke: #000000; stroke-width: 0.8; stroke-linejoin: miter; stroke-linecap: square"/>
   </g>
   <g id="patch_5">
    <path d="M 49.432813 256.40375 
L 272.522812 256.40375 
" style="fill: none; stroke: #000000; stroke-width: 0.8; stroke-linejoin: miter; stroke-linecap: square"/>
   </g>
   <g id="patch_6">
    <path d="M 49.432813 20.14375 
L 272.522812 20.14375 
" style="fill: none; stroke: #000000; stroke-width: 0.8; stroke-linejoin: miter; stroke-linecap: square"/>
   </g>
   <g id="text_15">
    <!-- Specimen : Greifenhagen_M3 -->
    <g transform="translate(100.717656 14.14375) scale(0.1 -0.1)">
     <defs>
      <path id="TimesNewRomanPSMT-3a" d="M 903 2950 
Q 1047 2950 1148 2848 
Q 1250 2747 1250 2603 
Q 1250 2459 1148 2357 
Q 1047 2256 903 2256 
Q 759 2256 657 2357 
Q 556 2459 556 2603 
Q 556 2747 657 2848 
Q 759 2950 903 2950 
z
M 897 609 
Q 1044 609 1145 506 
Q 1247 403 1247 259 
Q 1247 116 1144 14 
Q 1041 -88 897 -88 
Q 753 -88 651 14 
Q 550 116 550 259 
Q 550 403 651 506 
Q 753 609 897 609 
z
" transform="scale(0.015625)"/>
      <path id="TimesNewRomanPSMT-47" d="M 3928 4334 
L 4038 2997 
L 3928 2997 
Q 3763 3497 3500 3750 
Q 3122 4116 2528 4116 
Q 1719 4116 1297 3475 
Q 944 2934 944 2188 
Q 944 1581 1178 1081 
Q 1413 581 1792 348 
Q 2172 116 2572 116 
Q 2806 116 3025 175 
Q 3244 234 3447 350 
L 3447 1575 
Q 3447 1894 3398 1992 
Q 3350 2091 3248 2142 
Q 3147 2194 2891 2194 
L 2891 2313 
L 4531 2313 
L 4531 2194 
L 4453 2194 
Q 4209 2194 4119 2031 
Q 4056 1916 4056 1575 
L 4056 278 
Q 3697 84 3347 -6 
Q 2997 -97 2569 -97 
Q 1341 -97 703 691 
Q 225 1281 225 2053 
Q 225 2613 494 3125 
Q 813 3734 1369 4063 
Q 1834 4334 2469 4334 
Q 2700 4334 2889 4296 
Q 3078 4259 3425 4131 
Q 3600 4066 3659 4066 
Q 3719 4066 3761 4120 
Q 3803 4175 3813 4334 
L 3928 4334 
z
" transform="scale(0.015625)"/>
      <path id="TimesNewRomanPSMT-66" d="M 1319 2638 
L 1319 756 
Q 1319 356 1406 250 
Q 1522 113 1716 113 
L 1975 113 
L 1975 0 
L 266 0 
L 266 113 
L 394 113 
Q 519 113 622 175 
Q 725 238 764 344 
Q 803 450 803 756 
L 803 2638 
L 247 2638 
L 247 2863 
L 803 2863 
L 803 3050 
Q 803 3478 940 3775 
Q 1078 4072 1361 4255 
Q 1644 4438 1997 4438 
Q 2325 4438 2600 4225 
Q 2781 4084 2781 3909 
Q 2781 3816 2700 3733 
Q 2619 3650 2525 3650 
Q 2453 3650 2373 3701 
Q 2294 3753 2178 3923 
Q 2063 4094 1966 4153 
Q 1869 4213 1750 4213 
Q 1606 4213 1506 4136 
Q 1406 4059 1362 3898 
Q 1319 3738 1319 3069 
L 1319 2863 
L 2056 2863 
L 2056 2638 
L 1319 2638 
z
" transform="scale(0.015625)"/>
      <path id="TimesNewRomanPSMT-67" d="M 966 1044 
Q 703 1172 562 1401 
Q 422 1631 422 1909 
Q 422 2334 742 2640 
Q 1063 2947 1563 2947 
Q 1972 2947 2272 2747 
L 2878 2747 
Q 3013 2747 3034 2739 
Q 3056 2731 3066 2713 
Q 3084 2684 3084 2613 
Q 3084 2531 3069 2500 
Q 3059 2484 3036 2475 
Q 3013 2466 2878 2466 
L 2506 2466 
Q 2681 2241 2681 1891 
Q 2681 1491 2375 1206 
Q 2069 922 1553 922 
Q 1341 922 1119 984 
Q 981 866 932 777 
Q 884 688 884 625 
Q 884 572 936 522 
Q 988 472 1138 450 
Q 1225 438 1575 428 
Q 2219 413 2409 384 
Q 2700 344 2873 169 
Q 3047 -6 3047 -263 
Q 3047 -616 2716 -925 
Q 2228 -1381 1444 -1381 
Q 841 -1381 425 -1109 
Q 191 -953 191 -784 
Q 191 -709 225 -634 
Q 278 -519 444 -313 
Q 466 -284 763 25 
Q 600 122 533 198 
Q 466 275 466 372 
Q 466 481 555 628 
Q 644 775 966 1044 
z
M 1509 2797 
Q 1278 2797 1122 2612 
Q 966 2428 966 2047 
Q 966 1553 1178 1281 
Q 1341 1075 1591 1075 
Q 1828 1075 1981 1253 
Q 2134 1431 2134 1813 
Q 2134 2309 1919 2591 
Q 1759 2797 1509 2797 
z
M 934 0 
Q 788 -159 713 -296 
Q 638 -434 638 -550 
Q 638 -700 819 -813 
Q 1131 -1006 1722 -1006 
Q 2284 -1006 2551 -807 
Q 2819 -609 2819 -384 
Q 2819 -222 2659 -153 
Q 2497 -84 2016 -72 
Q 1313 -53 934 0 
z
" transform="scale(0.015625)"/>
      <path id="TimesNewRomanPSMT-5f" d="M 3256 -1381 
L -53 -1381 
L -53 -1119 
L 3256 -1119 
L 3256 -1381 
z
" transform="scale(0.015625)"/>
      <path id="TimesNewRomanPSMT-4d" d="M 2619 0 
L 981 3566 
L 981 734 
Q 981 344 1066 247 
Q 1181 116 1431 116 
L 1581 116 
L 1581 0 
L 106 0 
L 106 116 
L 256 116 
Q 525 116 638 278 
Q 706 378 706 734 
L 706 3503 
Q 706 3784 644 3909 
Q 600 4000 483 4061 
Q 366 4122 106 4122 
L 106 4238 
L 1306 4238 
L 2844 922 
L 4356 4238 
L 5556 4238 
L 5556 4122 
L 5409 4122 
Q 5138 4122 5025 3959 
Q 4956 3859 4956 3503 
L 4956 734 
Q 4956 344 5044 247 
Q 5159 116 5409 116 
L 5556 116 
L 5556 0 
L 3756 0 
L 3756 116 
L 3906 116 
Q 4178 116 4288 278 
Q 4356 378 4356 734 
L 4356 3566 
L 2722 0 
L 2619 0 
z
" transform="scale(0.015625)"/>
      <path id="TimesNewRomanPSMT-33" d="M 325 3431 
Q 506 3859 782 4092 
Q 1059 4325 1472 4325 
Q 1981 4325 2253 3994 
Q 2459 3747 2459 3466 
Q 2459 3003 1878 2509 
Q 2269 2356 2469 2072 
Q 2669 1788 2669 1403 
Q 2669 853 2319 450 
Q 1863 -75 997 -75 
Q 569 -75 414 31 
Q 259 138 259 259 
Q 259 350 332 419 
Q 406 488 509 488 
Q 588 488 669 463 
Q 722 447 909 348 
Q 1097 250 1169 231 
Q 1284 197 1416 197 
Q 1734 197 1970 444 
Q 2206 691 2206 1028 
Q 2206 1275 2097 1509 
Q 2016 1684 1919 1775 
Q 1784 1900 1550 2001 
Q 1316 2103 1072 2103 
L 972 2103 
L 972 2197 
Q 1219 2228 1467 2375 
Q 1716 2522 1828 2728 
Q 1941 2934 1941 3181 
Q 1941 3503 1739 3701 
Q 1538 3900 1238 3900 
Q 753 3900 428 3381 
L 325 3431 
z
" transform="scale(0.015625)"/>
     </defs>
     <use xlink:href="#TimesNewRomanPSMT-53"/>
     <use xlink:href="#TimesNewRomanPSMT-70" x="55.615234"/>
     <use xlink:href="#TimesNewRomanPSMT-65" x="105.615234"/>
     <use xlink:href="#TimesNewRomanPSMT-63" x="150"/>
     <use xlink:href="#TimesNewRomanPSMT-69" x="194.384766"/>
     <use xlink:href="#TimesNewRomanPSMT-6d" x="222.167969"/>
     <use xlink:href="#TimesNewRomanPSMT-65" x="299.951172"/>
     <use xlink:href="#TimesNewRomanPSMT-6e" x="344.335938"/>
     <use xlink:href="#TimesNewRomanPSMT-20" x="394.335938"/>
     <use xlink:href="#TimesNewRomanPSMT-3a" x="419.335938"/>
     <use xlink:href="#TimesNewRomanPSMT-20" x="447.119141"/>
     <use xlink:href="#TimesNewRomanPSMT-47" x="472.119141"/>
     <use xlink:href="#TimesNewRomanPSMT-72" x="544.335938"/>
     <use xlink:href="#TimesNewRomanPSMT-65" x="577.636719"/>
     <use xlink:href="#TimesNewRomanPSMT-69" x="622.021484"/>
     <use xlink:href="#TimesNewRomanPSMT-66" x="649.804688"/>
     <use xlink:href="#TimesNewRomanPSMT-65" x="683.105469"/>
     <use xlink:href="#TimesNewRomanPSMT-6e" x="727.490234"/>
     <use xlink:href="#TimesNewRomanPSMT-68" x="777.490234"/>
     <use xlink:href="#TimesNewRomanPSMT-61" x="827.490234"/>
     <use xlink:href="#TimesNewRomanPSMT-67" x="871.875"/>
     <use xlink:href="#TimesNewRomanPSMT-65" x="921.875"/>
     <use xlink:href="#TimesNewRomanPSMT-6e" x="966.259766"/>
     <use xlink:href="#TimesNewRomanPSMT-5f" x="1016.259766"/>
     <use xlink:href="#TimesNewRomanPSMT-4d" x="1066.259766"/>
     <use xlink:href="#TimesNewRomanPSMT-33" x="1155.175781"/>
    </g>
   </g>
   <g id="legend_1">
    <g id="patch_7">
     <path d="M 55.263813 50.363428 
L 142.486722 50.363428 
Q 144.152722 50.363428 144.152722 48.697428 
L 144.152722 25.97475 
Q 144.152722 24.30875 142.486722 24.30875 
L 55.263813 24.30875 
Q 53.597813 24.30875 53.597813 25.97475 
L 53.597813 48.697428 
Q 53.597813 50.363428 55.263813 50.363428 
z
" style="fill: #ffffff; opacity: 0.8; stroke: #cccccc; stroke-linejoin: miter"/>
    </g>
    <g id="line2d_29">
     <path d="M 56.929813 30.55625 
L 65.259813 30.55625 
L 73.589813 30.55625 
" style="fill: none; stroke-dasharray: 3.7,1.6; stroke-dashoffset: 0; stroke: #000000"/>
    </g>
    <g id="text_16">
     <!-- Experimental Test -->
     <g transform="translate(80.253813 33.47175) scale(0.0833 -0.0833)">
      <defs>
       <path id="TimesNewRomanPSMT-45" d="M 1338 4006 
L 1338 2331 
L 2269 2331 
Q 2631 2331 2753 2441 
Q 2916 2584 2934 2947 
L 3050 2947 
L 3050 1472 
L 2934 1472 
Q 2891 1781 2847 1869 
Q 2791 1978 2662 2040 
Q 2534 2103 2269 2103 
L 1338 2103 
L 1338 706 
Q 1338 425 1363 364 
Q 1388 303 1450 267 
Q 1513 231 1688 231 
L 2406 231 
Q 2766 231 2928 281 
Q 3091 331 3241 478 
Q 3434 672 3638 1063 
L 3763 1063 
L 3397 0 
L 131 0 
L 131 116 
L 281 116 
Q 431 116 566 188 
Q 666 238 702 338 
Q 738 438 738 747 
L 738 3500 
Q 738 3903 656 3997 
Q 544 4122 281 4122 
L 131 4122 
L 131 4238 
L 3397 4238 
L 3444 3309 
L 3322 3309 
Q 3256 3644 3176 3769 
Q 3097 3894 2941 3959 
Q 2816 4006 2500 4006 
L 1338 4006 
z
" transform="scale(0.015625)"/>
       <path id="TimesNewRomanPSMT-78" d="M 84 2863 
L 1431 2863 
L 1431 2747 
Q 1303 2747 1251 2703 
Q 1200 2659 1200 2588 
Q 1200 2513 1309 2356 
Q 1344 2306 1413 2200 
L 1616 1875 
L 1850 2200 
Q 2075 2509 2075 2591 
Q 2075 2656 2022 2701 
Q 1969 2747 1850 2747 
L 1850 2863 
L 2819 2863 
L 2819 2747 
Q 2666 2738 2553 2663 
Q 2400 2556 2134 2200 
L 1744 1678 
L 2456 653 
Q 2719 275 2831 198 
Q 2944 122 3122 113 
L 3122 0 
L 1772 0 
L 1772 113 
Q 1913 113 1991 175 
Q 2050 219 2050 291 
Q 2050 363 1850 653 
L 1431 1266 
L 972 653 
Q 759 369 759 316 
Q 759 241 829 180 
Q 900 119 1041 113 
L 1041 0 
L 106 0 
L 106 113 
Q 219 128 303 191 
Q 422 281 703 653 
L 1303 1450 
L 759 2238 
Q 528 2575 401 2661 
Q 275 2747 84 2747 
L 84 2863 
z
" transform="scale(0.015625)"/>
       <path id="TimesNewRomanPSMT-54" d="M 3703 4238 
L 3750 3244 
L 3631 3244 
Q 3597 3506 3538 3619 
Q 3441 3800 3280 3886 
Q 3119 3972 2856 3972 
L 2259 3972 
L 2259 734 
Q 2259 344 2344 247 
Q 2463 116 2709 116 
L 2856 116 
L 2856 0 
L 1059 0 
L 1059 116 
L 1209 116 
Q 1478 116 1591 278 
Q 1659 378 1659 734 
L 1659 3972 
L 1150 3972 
Q 853 3972 728 3928 
Q 566 3869 450 3700 
Q 334 3531 313 3244 
L 194 3244 
L 244 4238 
L 3703 4238 
z
" transform="scale(0.015625)"/>
      </defs>
      <use xlink:href="#TimesNewRomanPSMT-45"/>
      <use xlink:href="#TimesNewRomanPSMT-78" x="61.083984"/>
      <use xlink:href="#TimesNewRomanPSMT-70" x="111.083984"/>
      <use xlink:href="#TimesNewRomanPSMT-65" x="161.083984"/>
      <use xlink:href="#TimesNewRomanPSMT-72" x="205.46875"/>
      <use xlink:href="#TimesNewRomanPSMT-69" x="238.769531"/>
      <use xlink:href="#TimesNewRomanPSMT-6d" x="266.552734"/>
      <use xlink:href="#TimesNewRomanPSMT-65" x="344.335938"/>
      <use xlink:href="#TimesNewRomanPSMT-6e" x="388.720703"/>
      <use xlink:href="#TimesNewRomanPSMT-74" x="438.720703"/>
      <use xlink:href="#TimesNewRomanPSMT-61" x="466.503906"/>
      <use xlink:href="#TimesNewRomanPSMT-6c" x="510.888672"/>
      <use xlink:href="#TimesNewRomanPSMT-20" x="538.671875"/>
      <use xlink:href="#TimesNewRomanPSMT-54" x="561.921875"/>
      <use xlink:href="#TimesNewRomanPSMT-65" x="616.005859"/>
      <use xlink:href="#TimesNewRomanPSMT-73" x="660.390625"/>
      <use xlink:href="#TimesNewRomanPSMT-74" x="699.306641"/>
     </g>
    </g>
    <g id="line2d_30">
     <path d="M 56.929813 42.334089 
L 65.259813 42.334089 
L 73.589813 42.334089 
" style="fill: none; stroke: #ff0000; stroke-width: 1.2; stroke-linecap: square"/>
    </g>
    <g id="text_17">
     <!-- Numerical Test -->
     <g transform="translate(80.253813 45.249589) scale(0.0833 -0.0833)">
      <defs>
       <path id="TimesNewRomanPSMT-75" d="M 2709 2863 
L 2709 1128 
Q 2709 631 2732 520 
Q 2756 409 2807 365 
Q 2859 322 2928 322 
Q 3025 322 3147 375 
L 3191 266 
L 2334 -88 
L 2194 -88 
L 2194 519 
Q 1825 119 1631 15 
Q 1438 -88 1222 -88 
Q 981 -88 804 51 
Q 628 191 559 409 
Q 491 628 491 1028 
L 491 2306 
Q 491 2509 447 2587 
Q 403 2666 317 2708 
Q 231 2750 6 2747 
L 6 2863 
L 1009 2863 
L 1009 947 
Q 1009 547 1148 422 
Q 1288 297 1484 297 
Q 1619 297 1789 381 
Q 1959 466 2194 703 
L 2194 2325 
Q 2194 2569 2105 2655 
Q 2016 2741 1734 2747 
L 1734 2863 
L 2709 2863 
z
" transform="scale(0.015625)"/>
      </defs>
      <use xlink:href="#TimesNewRomanPSMT-4e"/>
      <use xlink:href="#TimesNewRomanPSMT-75" x="72.216797"/>
      <use xlink:href="#TimesNewRomanPSMT-6d" x="122.216797"/>
      <use xlink:href="#TimesNewRomanPSMT-65" x="200"/>
      <use xlink:href="#TimesNewRomanPSMT-72" x="244.384766"/>
      <use xlink:href="#TimesNewRomanPSMT-69" x="277.685547"/>
      <use xlink:href="#TimesNewRomanPSMT-63" x="305.46875"/>
      <use xlink:href="#TimesNewRomanPSMT-61" x="349.853516"/>
      <use xlink:href="#TimesNewRomanPSMT-6c" x="394.238281"/>
      <use xlink:href="#TimesNewRomanPSMT-20" x="422.021484"/>
      <use xlink:href="#TimesNewRomanPSMT-54" x="445.271484"/>
      <use xlink:href="#TimesNewRomanPSMT-65" x="499.355469"/>
      <use xlink:href="#TimesNewRomanPSMT-73" x="543.740234"/>
      <use xlink:href="#TimesNewRomanPSMT-74" x="582.65625"/>
     </g>
    </g>
   </g>
  </g>
 </g>
 <defs>
  <clipPath id="paf43c0fda7">
   <rect x="49.432813" y="20.14375" width="223.09" height="236.26"/>
  </clipPath>
 </defs>
</svg>
