<?xml version="1.0" encoding="utf-8" standalone="no"?>
<!DOCTYPE svg PUBLIC "-//W3C//DTD SVG 1.1//EN"
  "http://www.w3.org/Graphics/SVG/1.1/DTD/svg11.dtd">
<svg xmlns:xlink="http://www.w3.org/1999/xlink" width="305.276094pt" height="302.961469pt" viewBox="0 0 305.276094 302.961469" xmlns="http://www.w3.org/2000/svg" version="1.1">
 <metadata>
  <rdf:RDF xmlns:dc="http://purl.org/dc/elements/1.1/" xmlns:cc="http://creativecommons.org/ns#" xmlns:rdf="http://www.w3.org/1999/02/22-rdf-syntax-ns#">
   <cc:Work>
    <dc:type rdf:resource="http://purl.org/dc/dcmitype/StillImage"/>
    <dc:date>2025-01-06T14:37:39.036196</dc:date>
    <dc:format>image/svg+xml</dc:format>
    <dc:creator>
     <cc:Agent>
      <dc:title>Matplotlib v3.8.0, https://matplotlib.org/</dc:title>
     </cc:Agent>
    </dc:creator>
   </cc:Work>
  </rdf:RDF>
 </metadata>
 <defs>
  <style type="text/css">*{stroke-linejoin: round; stroke-linecap: butt}</style>
 </defs>
 <g id="figure_1">
  <g id="patch_1">
   <path d="M 0 302.961469 
L 305.276094 302.961469 
L 305.276094 0 
L 0 0 
z
" style="fill: #ffffff"/>
  </g>
  <g id="axes_1">
   <g id="patch_2">
    <path d="M 52.556094 264.774125 
L 298.076094 264.774125 
L 298.076094 20.838125 
L 52.556094 20.838125 
z
" style="fill: #ffffff"/>
   </g>
   <g id="matplotlib.axis_1">
    <g id="xtick_1">
     <g id="line2d_1">
      <path d="M 93.221289 264.774125 
L 93.221289 20.838125 
" clip-path="url(#p93a13118b3)" style="fill: none; stroke-dasharray: 0.8,1.32; stroke-dashoffset: 0; stroke: #b0b0b0; stroke-width: 0.8"/>
     </g>
     <g id="line2d_2">
      <defs>
       <path id="m933583b594" d="M 0 0 
L 0 3.5 
" style="stroke: #000000; stroke-width: 0.8"/>
      </defs>
      <g>
       <use xlink:href="#m933583b594" x="93.221289" y="264.774125" style="stroke: #000000; stroke-width: 0.8"/>
      </g>
     </g>
     <g id="text_1">
      <!-- −10 -->
      <g transform="translate(84.084414 279.460375) scale(0.11 -0.11)">
       <defs>
        <path id="Cambria-2212" d="M 397 1613 
L 397 2047 
L 3147 2047 
L 3147 1613 
L 397 1613 
z
" transform="scale(0.015625)"/>
        <path id="Cambria-31" d="M 2172 816 
Q 2172 634 2192 542 
Q 2213 450 2264 392 
Q 2316 334 2412 301 
Q 2509 269 2656 251 
Q 2803 234 3044 228 
L 3044 0 
L 734 0 
L 734 228 
Q 1081 244 1229 270 
Q 1378 297 1456 350 
Q 1534 403 1570 500 
Q 1606 597 1606 816 
L 1606 3350 
Q 1606 3475 1562 3533 
Q 1519 3591 1434 3591 
Q 1334 3591 1150 3487 
Q 966 3384 694 3203 
L 556 3444 
L 2019 4316 
L 2191 4316 
Q 2172 4016 2172 3484 
L 2172 816 
z
" transform="scale(0.015625)"/>
        <path id="Cambria-30" d="M 1738 -50 
Q 1063 -50 733 481 
Q 403 1013 403 2094 
Q 403 2669 504 3087 
Q 606 3506 789 3779 
Q 972 4053 1228 4184 
Q 1484 4316 1788 4316 
Q 2472 4316 2806 3787 
Q 3141 3259 3141 2191 
Q 3141 1084 2783 517 
Q 2425 -50 1738 -50 
z
M 1013 2188 
Q 1013 1169 1202 692 
Q 1391 216 1788 216 
Q 2166 216 2348 664 
Q 2531 1113 2531 2053 
Q 2531 2772 2437 3217 
Q 2344 3663 2176 3856 
Q 2009 4050 1772 4050 
Q 1556 4050 1411 3922 
Q 1266 3794 1177 3553 
Q 1088 3313 1050 2967 
Q 1013 2622 1013 2188 
z
" transform="scale(0.015625)"/>
       </defs>
       <use xlink:href="#Cambria-2212"/>
       <use xlink:href="#Cambria-31" x="55.371094"/>
       <use xlink:href="#Cambria-30" x="110.742188"/>
      </g>
     </g>
    </g>
    <g id="xtick_2">
     <g id="line2d_3">
      <path d="M 137.243126 264.774125 
L 137.243126 20.838125 
" clip-path="url(#p93a13118b3)" style="fill: none; stroke-dasharray: 0.8,1.32; stroke-dashoffset: 0; stroke: #b0b0b0; stroke-width: 0.8"/>
     </g>
     <g id="line2d_4">
      <g>
       <use xlink:href="#m933583b594" x="137.243126" y="264.774125" style="stroke: #000000; stroke-width: 0.8"/>
      </g>
     </g>
     <g id="text_2">
      <!-- −5 -->
      <g transform="translate(131.151876 279.460375) scale(0.11 -0.11)">
       <defs>
        <path id="Cambria-35" d="M 469 172 
L 469 834 
L 847 834 
Q 941 516 1130 366 
Q 1319 216 1619 216 
Q 2034 216 2246 466 
Q 2459 716 2459 1213 
Q 2459 1544 2346 1761 
Q 2234 1978 2043 2075 
Q 1853 2172 1600 2172 
Q 1388 2172 1234 2145 
Q 1081 2119 906 2063 
L 656 2209 
L 656 4266 
L 2378 4266 
Q 2484 4266 2531 4283 
Q 2578 4300 2606 4336 
Q 2634 4372 2672 4472 
L 2916 4472 
L 2869 3747 
L 1072 3747 
L 1072 2375 
Q 1234 2444 1425 2478 
Q 1616 2513 1806 2513 
Q 2178 2513 2465 2361 
Q 2753 2209 2909 1929 
Q 3066 1650 3066 1281 
Q 3066 863 2891 563 
Q 2716 263 2384 106 
Q 2053 -50 1600 -50 
Q 1059 -50 469 172 
z
" transform="scale(0.015625)"/>
       </defs>
       <use xlink:href="#Cambria-2212"/>
       <use xlink:href="#Cambria-35" x="55.371094"/>
      </g>
     </g>
    </g>
    <g id="xtick_3">
     <g id="line2d_5">
      <path d="M 181.264962 264.774125 
L 181.264962 20.838125 
" clip-path="url(#p93a13118b3)" style="fill: none; stroke-dasharray: 0.8,1.32; stroke-dashoffset: 0; stroke: #b0b0b0; stroke-width: 0.8"/>
     </g>
     <g id="line2d_6">
      <g>
       <use xlink:href="#m933583b594" x="181.264962" y="264.774125" style="stroke: #000000; stroke-width: 0.8"/>
      </g>
     </g>
     <g id="text_3">
      <!-- 0 -->
      <g transform="translate(178.219337 279.460375) scale(0.11 -0.11)">
       <use xlink:href="#Cambria-30"/>
      </g>
     </g>
    </g>
    <g id="xtick_4">
     <g id="line2d_7">
      <path d="M 225.286798 264.774125 
L 225.286798 20.838125 
" clip-path="url(#p93a13118b3)" style="fill: none; stroke-dasharray: 0.8,1.32; stroke-dashoffset: 0; stroke: #b0b0b0; stroke-width: 0.8"/>
     </g>
     <g id="line2d_8">
      <g>
       <use xlink:href="#m933583b594" x="225.286798" y="264.774125" style="stroke: #000000; stroke-width: 0.8"/>
      </g>
     </g>
     <g id="text_4">
      <!-- 5 -->
      <g transform="translate(222.241173 279.460375) scale(0.11 -0.11)">
       <use xlink:href="#Cambria-35"/>
      </g>
     </g>
    </g>
    <g id="xtick_5">
     <g id="line2d_9">
      <path d="M 269.308635 264.774125 
L 269.308635 20.838125 
" clip-path="url(#p93a13118b3)" style="fill: none; stroke-dasharray: 0.8,1.32; stroke-dashoffset: 0; stroke: #b0b0b0; stroke-width: 0.8"/>
     </g>
     <g id="line2d_10">
      <g>
       <use xlink:href="#m933583b594" x="269.308635" y="264.774125" style="stroke: #000000; stroke-width: 0.8"/>
      </g>
     </g>
     <g id="text_5">
      <!-- 10 -->
      <g transform="translate(263.217385 279.460375) scale(0.11 -0.11)">
       <use xlink:href="#Cambria-31"/>
       <use xlink:href="#Cambria-30" x="55.371094"/>
      </g>
     </g>
    </g>
    <g id="text_6">
     <!-- Displacement (mm) -->
     <g transform="translate(131.481953 293.4085) scale(0.11 -0.11)">
      <defs>
       <path id="TimesNewRomanPSMT-44" d="M 109 0 
L 109 116 
L 269 116 
Q 538 116 650 288 
Q 719 391 719 750 
L 719 3488 
Q 719 3884 631 3984 
Q 509 4122 269 4122 
L 109 4122 
L 109 4238 
L 1834 4238 
Q 2784 4238 3279 4022 
Q 3775 3806 4076 3303 
Q 4378 2800 4378 2141 
Q 4378 1256 3841 663 
Q 3238 0 2003 0 
L 109 0 
z
M 1319 306 
Q 1716 219 1984 219 
Q 2709 219 3187 728 
Q 3666 1238 3666 2109 
Q 3666 2988 3187 3494 
Q 2709 4000 1959 4000 
Q 1678 4000 1319 3909 
L 1319 306 
z
" transform="scale(0.015625)"/>
       <path id="TimesNewRomanPSMT-69" d="M 928 4444 
Q 1059 4444 1151 4351 
Q 1244 4259 1244 4128 
Q 1244 3997 1151 3903 
Q 1059 3809 928 3809 
Q 797 3809 703 3903 
Q 609 3997 609 4128 
Q 609 4259 701 4351 
Q 794 4444 928 4444 
z
M 1188 2947 
L 1188 647 
Q 1188 378 1227 289 
Q 1266 200 1342 156 
Q 1419 113 1622 113 
L 1622 0 
L 231 0 
L 231 113 
Q 441 113 512 153 
Q 584 194 626 287 
Q 669 381 669 647 
L 669 1750 
Q 669 2216 641 2353 
Q 619 2453 572 2492 
Q 525 2531 444 2531 
Q 356 2531 231 2484 
L 188 2597 
L 1050 2947 
L 1188 2947 
z
" transform="scale(0.015625)"/>
       <path id="TimesNewRomanPSMT-73" d="M 2050 2947 
L 2050 1972 
L 1947 1972 
Q 1828 2431 1642 2597 
Q 1456 2763 1169 2763 
Q 950 2763 815 2647 
Q 681 2531 681 2391 
Q 681 2216 781 2091 
Q 878 1963 1175 1819 
L 1631 1597 
Q 2266 1288 2266 781 
Q 2266 391 1970 151 
Q 1675 -88 1309 -88 
Q 1047 -88 709 6 
Q 606 38 541 38 
Q 469 38 428 -44 
L 325 -44 
L 325 978 
L 428 978 
Q 516 541 762 319 
Q 1009 97 1316 97 
Q 1531 97 1667 223 
Q 1803 350 1803 528 
Q 1803 744 1651 891 
Q 1500 1038 1047 1263 
Q 594 1488 453 1669 
Q 313 1847 313 2119 
Q 313 2472 555 2709 
Q 797 2947 1181 2947 
Q 1350 2947 1591 2875 
Q 1750 2828 1803 2828 
Q 1853 2828 1881 2850 
Q 1909 2872 1947 2947 
L 2050 2947 
z
" transform="scale(0.015625)"/>
       <path id="TimesNewRomanPSMT-70" d="M -6 2578 
L 875 2934 
L 994 2934 
L 994 2266 
Q 1216 2644 1439 2795 
Q 1663 2947 1909 2947 
Q 2341 2947 2628 2609 
Q 2981 2197 2981 1534 
Q 2981 794 2556 309 
Q 2206 -88 1675 -88 
Q 1444 -88 1275 -22 
Q 1150 25 994 166 
L 994 -706 
Q 994 -1000 1030 -1079 
Q 1066 -1159 1155 -1206 
Q 1244 -1253 1478 -1253 
L 1478 -1369 
L -22 -1369 
L -22 -1253 
L 56 -1253 
Q 228 -1256 350 -1188 
Q 409 -1153 442 -1076 
Q 475 -1000 475 -688 
L 475 2019 
Q 475 2297 450 2372 
Q 425 2447 370 2484 
Q 316 2522 222 2522 
Q 147 2522 31 2478 
L -6 2578 
z
M 994 2081 
L 994 1013 
Q 994 666 1022 556 
Q 1066 375 1236 237 
Q 1406 100 1666 100 
Q 1978 100 2172 344 
Q 2425 663 2425 1241 
Q 2425 1897 2138 2250 
Q 1938 2494 1663 2494 
Q 1513 2494 1366 2419 
Q 1253 2363 994 2081 
z
" transform="scale(0.015625)"/>
       <path id="TimesNewRomanPSMT-6c" d="M 1184 4444 
L 1184 647 
Q 1184 378 1223 290 
Q 1263 203 1344 158 
Q 1425 113 1647 113 
L 1647 0 
L 244 0 
L 244 113 
Q 441 113 512 153 
Q 584 194 625 287 
Q 666 381 666 647 
L 666 3247 
Q 666 3731 644 3842 
Q 622 3953 573 3993 
Q 525 4034 450 4034 
Q 369 4034 244 3984 
L 191 4094 
L 1044 4444 
L 1184 4444 
z
" transform="scale(0.015625)"/>
       <path id="TimesNewRomanPSMT-61" d="M 1822 413 
Q 1381 72 1269 19 
Q 1100 -59 909 -59 
Q 613 -59 420 144 
Q 228 347 228 678 
Q 228 888 322 1041 
Q 450 1253 767 1440 
Q 1084 1628 1822 1897 
L 1822 2009 
Q 1822 2438 1686 2597 
Q 1550 2756 1291 2756 
Q 1094 2756 978 2650 
Q 859 2544 859 2406 
L 866 2225 
Q 866 2081 792 2003 
Q 719 1925 600 1925 
Q 484 1925 411 2006 
Q 338 2088 338 2228 
Q 338 2497 613 2722 
Q 888 2947 1384 2947 
Q 1766 2947 2009 2819 
Q 2194 2722 2281 2516 
Q 2338 2381 2338 1966 
L 2338 994 
Q 2338 584 2353 492 
Q 2369 400 2405 369 
Q 2441 338 2488 338 
Q 2538 338 2575 359 
Q 2641 400 2828 588 
L 2828 413 
Q 2478 -56 2159 -56 
Q 2006 -56 1915 50 
Q 1825 156 1822 413 
z
M 1822 616 
L 1822 1706 
Q 1350 1519 1213 1441 
Q 966 1303 859 1153 
Q 753 1003 753 825 
Q 753 600 887 451 
Q 1022 303 1197 303 
Q 1434 303 1822 616 
z
" transform="scale(0.015625)"/>
       <path id="TimesNewRomanPSMT-63" d="M 2631 1088 
Q 2516 522 2178 217 
Q 1841 -88 1431 -88 
Q 944 -88 581 321 
Q 219 731 219 1428 
Q 219 2103 620 2525 
Q 1022 2947 1584 2947 
Q 2006 2947 2278 2723 
Q 2550 2500 2550 2259 
Q 2550 2141 2473 2067 
Q 2397 1994 2259 1994 
Q 2075 1994 1981 2113 
Q 1928 2178 1911 2362 
Q 1894 2547 1784 2644 
Q 1675 2738 1481 2738 
Q 1169 2738 978 2506 
Q 725 2200 725 1697 
Q 725 1184 976 792 
Q 1228 400 1656 400 
Q 1963 400 2206 609 
Q 2378 753 2541 1131 
L 2631 1088 
z
" transform="scale(0.015625)"/>
       <path id="TimesNewRomanPSMT-65" d="M 681 1784 
Q 678 1147 991 784 
Q 1303 422 1725 422 
Q 2006 422 2214 576 
Q 2422 731 2563 1106 
L 2659 1044 
Q 2594 616 2278 264 
Q 1963 -88 1488 -88 
Q 972 -88 605 314 
Q 238 716 238 1394 
Q 238 2128 614 2539 
Q 991 2950 1559 2950 
Q 2041 2950 2350 2633 
Q 2659 2316 2659 1784 
L 681 1784 
z
M 681 1966 
L 2006 1966 
Q 1991 2241 1941 2353 
Q 1863 2528 1708 2628 
Q 1553 2728 1384 2728 
Q 1125 2728 920 2526 
Q 716 2325 681 1966 
z
" transform="scale(0.015625)"/>
       <path id="TimesNewRomanPSMT-6d" d="M 1050 2338 
Q 1363 2650 1419 2697 
Q 1559 2816 1721 2881 
Q 1884 2947 2044 2947 
Q 2313 2947 2506 2790 
Q 2700 2634 2766 2338 
Q 3088 2713 3309 2830 
Q 3531 2947 3766 2947 
Q 3994 2947 4170 2830 
Q 4347 2713 4450 2447 
Q 4519 2266 4519 1878 
L 4519 647 
Q 4519 378 4559 278 
Q 4591 209 4675 161 
Q 4759 113 4950 113 
L 4950 0 
L 3538 0 
L 3538 113 
L 3597 113 
Q 3781 113 3884 184 
Q 3956 234 3988 344 
Q 4000 397 4000 647 
L 4000 1878 
Q 4000 2228 3916 2372 
Q 3794 2572 3525 2572 
Q 3359 2572 3192 2489 
Q 3025 2406 2788 2181 
L 2781 2147 
L 2788 2013 
L 2788 647 
Q 2788 353 2820 281 
Q 2853 209 2943 161 
Q 3034 113 3253 113 
L 3253 0 
L 1806 0 
L 1806 113 
Q 2044 113 2133 169 
Q 2222 225 2256 338 
Q 2272 391 2272 647 
L 2272 1878 
Q 2272 2228 2169 2381 
Q 2031 2581 1784 2581 
Q 1616 2581 1450 2491 
Q 1191 2353 1050 2181 
L 1050 647 
Q 1050 366 1089 281 
Q 1128 197 1204 155 
Q 1281 113 1516 113 
L 1516 0 
L 100 0 
L 100 113 
Q 297 113 375 155 
Q 453 197 493 289 
Q 534 381 534 647 
L 534 1741 
Q 534 2213 506 2350 
Q 484 2453 437 2492 
Q 391 2531 309 2531 
Q 222 2531 100 2484 
L 53 2597 
L 916 2947 
L 1050 2947 
L 1050 2338 
z
" transform="scale(0.015625)"/>
       <path id="TimesNewRomanPSMT-6e" d="M 1034 2341 
Q 1538 2947 1994 2947 
Q 2228 2947 2397 2830 
Q 2566 2713 2666 2444 
Q 2734 2256 2734 1869 
L 2734 647 
Q 2734 375 2778 278 
Q 2813 200 2889 156 
Q 2966 113 3172 113 
L 3172 0 
L 1756 0 
L 1756 113 
L 1816 113 
Q 2016 113 2095 173 
Q 2175 234 2206 353 
Q 2219 400 2219 647 
L 2219 1819 
Q 2219 2209 2117 2386 
Q 2016 2563 1775 2563 
Q 1403 2563 1034 2156 
L 1034 647 
Q 1034 356 1069 288 
Q 1113 197 1189 155 
Q 1266 113 1500 113 
L 1500 0 
L 84 0 
L 84 113 
L 147 113 
Q 366 113 442 223 
Q 519 334 519 647 
L 519 1709 
Q 519 2225 495 2337 
Q 472 2450 423 2490 
Q 375 2531 294 2531 
Q 206 2531 84 2484 
L 38 2597 
L 900 2947 
L 1034 2947 
L 1034 2341 
z
" transform="scale(0.015625)"/>
       <path id="TimesNewRomanPSMT-74" d="M 1031 3803 
L 1031 2863 
L 1700 2863 
L 1700 2644 
L 1031 2644 
L 1031 788 
Q 1031 509 1111 412 
Q 1191 316 1316 316 
Q 1419 316 1516 380 
Q 1613 444 1666 569 
L 1788 569 
Q 1678 263 1478 108 
Q 1278 -47 1066 -47 
Q 922 -47 784 33 
Q 647 113 581 261 
Q 516 409 516 719 
L 516 2644 
L 63 2644 
L 63 2747 
Q 234 2816 414 2980 
Q 594 3144 734 3369 
Q 806 3488 934 3803 
L 1031 3803 
z
" transform="scale(0.015625)"/>
       <path id="TimesNewRomanPSMT-20" transform="scale(0.015625)"/>
       <path id="TimesNewRomanPSMT-28" d="M 1988 -1253 
L 1988 -1369 
Q 1516 -1131 1200 -813 
Q 750 -359 506 256 
Q 263 872 263 1534 
Q 263 2503 741 3301 
Q 1219 4100 1988 4444 
L 1988 4313 
Q 1603 4100 1356 3731 
Q 1109 3363 987 2797 
Q 866 2231 866 1616 
Q 866 947 969 400 
Q 1050 -31 1165 -292 
Q 1281 -553 1476 -793 
Q 1672 -1034 1988 -1253 
z
" transform="scale(0.015625)"/>
       <path id="TimesNewRomanPSMT-29" d="M 144 4313 
L 144 4444 
Q 619 4209 934 3891 
Q 1381 3434 1625 2820 
Q 1869 2206 1869 1541 
Q 1869 572 1392 -226 
Q 916 -1025 144 -1369 
L 144 -1253 
Q 528 -1038 776 -670 
Q 1025 -303 1145 264 
Q 1266 831 1266 1447 
Q 1266 2113 1163 2663 
Q 1084 3094 967 3353 
Q 850 3613 656 3853 
Q 463 4094 144 4313 
z
" transform="scale(0.015625)"/>
      </defs>
      <use xlink:href="#TimesNewRomanPSMT-44"/>
      <use xlink:href="#TimesNewRomanPSMT-69" x="72.216797"/>
      <use xlink:href="#TimesNewRomanPSMT-73" x="100"/>
      <use xlink:href="#TimesNewRomanPSMT-70" x="138.916016"/>
      <use xlink:href="#TimesNewRomanPSMT-6c" x="188.916016"/>
      <use xlink:href="#TimesNewRomanPSMT-61" x="216.699219"/>
      <use xlink:href="#TimesNewRomanPSMT-63" x="261.083984"/>
      <use xlink:href="#TimesNewRomanPSMT-65" x="305.46875"/>
      <use xlink:href="#TimesNewRomanPSMT-6d" x="349.853516"/>
      <use xlink:href="#TimesNewRomanPSMT-65" x="427.636719"/>
      <use xlink:href="#TimesNewRomanPSMT-6e" x="472.021484"/>
      <use xlink:href="#TimesNewRomanPSMT-74" x="522.021484"/>
      <use xlink:href="#TimesNewRomanPSMT-20" x="549.804688"/>
      <use xlink:href="#TimesNewRomanPSMT-28" x="574.804688"/>
      <use xlink:href="#TimesNewRomanPSMT-6d" x="608.105469"/>
      <use xlink:href="#TimesNewRomanPSMT-6d" x="685.888672"/>
      <use xlink:href="#TimesNewRomanPSMT-29" x="763.671875"/>
     </g>
    </g>
   </g>
   <g id="matplotlib.axis_2">
    <g id="ytick_1">
     <g id="line2d_11">
      <path d="M 52.556094 260.589552 
L 298.076094 260.589552 
" clip-path="url(#p93a13118b3)" style="fill: none; stroke-dasharray: 0.8,1.32; stroke-dashoffset: 0; stroke: #b0b0b0; stroke-width: 0.8"/>
     </g>
     <g id="line2d_12">
      <defs>
       <path id="m5ac319e3d2" d="M 0 0 
L -3.5 0 
" style="stroke: #000000; stroke-width: 0.8"/>
      </defs>
      <g>
       <use xlink:href="#m5ac319e3d2" x="52.556094" y="260.589552" style="stroke: #000000; stroke-width: 0.8"/>
      </g>
     </g>
     <g id="text_7">
      <!-- −200 -->
      <g transform="translate(21.191094 264.432677) scale(0.11 -0.11)">
       <defs>
        <path id="Cambria-32" d="M 2194 500 
Q 2347 500 2440 519 
Q 2534 538 2590 581 
Q 2647 625 2680 695 
Q 2713 766 2763 913 
L 3028 913 
L 2975 0 
L 403 0 
L 403 150 
Q 538 478 766 822 
Q 994 1166 1413 1631 
Q 1775 2031 1934 2238 
Q 2109 2463 2195 2627 
Q 2281 2791 2318 2936 
Q 2356 3081 2356 3228 
Q 2356 3463 2281 3642 
Q 2206 3822 2051 3925 
Q 1897 4028 1663 4028 
Q 1078 4028 875 3378 
L 497 3378 
L 497 3978 
Q 875 4156 1204 4236 
Q 1534 4316 1797 4316 
Q 2378 4316 2675 4061 
Q 2972 3806 2972 3322 
Q 2972 3156 2939 3017 
Q 2906 2878 2836 2742 
Q 2766 2606 2647 2450 
Q 2528 2294 2384 2133 
Q 2241 1972 1888 1597 
Q 1294 969 1016 500 
L 2194 500 
z
" transform="scale(0.015625)"/>
       </defs>
       <use xlink:href="#Cambria-2212"/>
       <use xlink:href="#Cambria-32" x="55.371094"/>
       <use xlink:href="#Cambria-30" x="110.742188"/>
       <use xlink:href="#Cambria-30" x="166.113281"/>
      </g>
     </g>
    </g>
    <g id="ytick_2">
     <g id="line2d_13">
      <path d="M 52.556094 230.776986 
L 298.076094 230.776986 
" clip-path="url(#p93a13118b3)" style="fill: none; stroke-dasharray: 0.8,1.32; stroke-dashoffset: 0; stroke: #b0b0b0; stroke-width: 0.8"/>
     </g>
     <g id="line2d_14">
      <g>
       <use xlink:href="#m5ac319e3d2" x="52.556094" y="230.776986" style="stroke: #000000; stroke-width: 0.8"/>
      </g>
     </g>
     <g id="text_8">
      <!-- −150 -->
      <g transform="translate(21.191094 234.620111) scale(0.11 -0.11)">
       <use xlink:href="#Cambria-2212"/>
       <use xlink:href="#Cambria-31" x="55.371094"/>
       <use xlink:href="#Cambria-35" x="110.742188"/>
       <use xlink:href="#Cambria-30" x="166.113281"/>
      </g>
     </g>
    </g>
    <g id="ytick_3">
     <g id="line2d_15">
      <path d="M 52.556094 200.96442 
L 298.076094 200.96442 
" clip-path="url(#p93a13118b3)" style="fill: none; stroke-dasharray: 0.8,1.32; stroke-dashoffset: 0; stroke: #b0b0b0; stroke-width: 0.8"/>
     </g>
     <g id="line2d_16">
      <g>
       <use xlink:href="#m5ac319e3d2" x="52.556094" y="200.96442" style="stroke: #000000; stroke-width: 0.8"/>
      </g>
     </g>
     <g id="text_9">
      <!-- −100 -->
      <g transform="translate(21.191094 204.807545) scale(0.11 -0.11)">
       <use xlink:href="#Cambria-2212"/>
       <use xlink:href="#Cambria-31" x="55.371094"/>
       <use xlink:href="#Cambria-30" x="110.742188"/>
       <use xlink:href="#Cambria-30" x="166.113281"/>
      </g>
     </g>
    </g>
    <g id="ytick_4">
     <g id="line2d_17">
      <path d="M 52.556094 171.151854 
L 298.076094 171.151854 
" clip-path="url(#p93a13118b3)" style="fill: none; stroke-dasharray: 0.8,1.32; stroke-dashoffset: 0; stroke: #b0b0b0; stroke-width: 0.8"/>
     </g>
     <g id="line2d_18">
      <g>
       <use xlink:href="#m5ac319e3d2" x="52.556094" y="171.151854" style="stroke: #000000; stroke-width: 0.8"/>
      </g>
     </g>
     <g id="text_10">
      <!-- −50 -->
      <g transform="translate(27.282344 174.994979) scale(0.11 -0.11)">
       <use xlink:href="#Cambria-2212"/>
       <use xlink:href="#Cambria-35" x="55.371094"/>
       <use xlink:href="#Cambria-30" x="110.742188"/>
      </g>
     </g>
    </g>
    <g id="ytick_5">
     <g id="line2d_19">
      <path d="M 52.556094 141.339288 
L 298.076094 141.339288 
" clip-path="url(#p93a13118b3)" style="fill: none; stroke-dasharray: 0.8,1.32; stroke-dashoffset: 0; stroke: #b0b0b0; stroke-width: 0.8"/>
     </g>
     <g id="line2d_20">
      <g>
       <use xlink:href="#m5ac319e3d2" x="52.556094" y="141.339288" style="stroke: #000000; stroke-width: 0.8"/>
      </g>
     </g>
     <g id="text_11">
      <!-- 0 -->
      <g transform="translate(39.464844 145.182413) scale(0.11 -0.11)">
       <use xlink:href="#Cambria-30"/>
      </g>
     </g>
    </g>
    <g id="ytick_6">
     <g id="line2d_21">
      <path d="M 52.556094 111.526722 
L 298.076094 111.526722 
" clip-path="url(#p93a13118b3)" style="fill: none; stroke-dasharray: 0.8,1.32; stroke-dashoffset: 0; stroke: #b0b0b0; stroke-width: 0.8"/>
     </g>
     <g id="line2d_22">
      <g>
       <use xlink:href="#m5ac319e3d2" x="52.556094" y="111.526722" style="stroke: #000000; stroke-width: 0.8"/>
      </g>
     </g>
     <g id="text_12">
      <!-- 50 -->
      <g transform="translate(33.373594 115.369847) scale(0.11 -0.11)">
       <use xlink:href="#Cambria-35"/>
       <use xlink:href="#Cambria-30" x="55.371094"/>
      </g>
     </g>
    </g>
    <g id="ytick_7">
     <g id="line2d_23">
      <path d="M 52.556094 81.714156 
L 298.076094 81.714156 
" clip-path="url(#p93a13118b3)" style="fill: none; stroke-dasharray: 0.8,1.32; stroke-dashoffset: 0; stroke: #b0b0b0; stroke-width: 0.8"/>
     </g>
     <g id="line2d_24">
      <g>
       <use xlink:href="#m5ac319e3d2" x="52.556094" y="81.714156" style="stroke: #000000; stroke-width: 0.8"/>
      </g>
     </g>
     <g id="text_13">
      <!-- 100 -->
      <g transform="translate(27.282344 85.557281) scale(0.11 -0.11)">
       <use xlink:href="#Cambria-31"/>
       <use xlink:href="#Cambria-30" x="55.371094"/>
       <use xlink:href="#Cambria-30" x="110.742188"/>
      </g>
     </g>
    </g>
    <g id="ytick_8">
     <g id="line2d_25">
      <path d="M 52.556094 51.90159 
L 298.076094 51.90159 
" clip-path="url(#p93a13118b3)" style="fill: none; stroke-dasharray: 0.8,1.32; stroke-dashoffset: 0; stroke: #b0b0b0; stroke-width: 0.8"/>
     </g>
     <g id="line2d_26">
      <g>
       <use xlink:href="#m5ac319e3d2" x="52.556094" y="51.90159" style="stroke: #000000; stroke-width: 0.8"/>
      </g>
     </g>
     <g id="text_14">
      <!-- 150 -->
      <g transform="translate(27.282344 55.744715) scale(0.11 -0.11)">
       <use xlink:href="#Cambria-31"/>
       <use xlink:href="#Cambria-35" x="55.371094"/>
       <use xlink:href="#Cambria-30" x="110.742188"/>
      </g>
     </g>
    </g>
    <g id="ytick_9">
     <g id="line2d_27">
      <path d="M 52.556094 22.089024 
L 298.076094 22.089024 
" clip-path="url(#p93a13118b3)" style="fill: none; stroke-dasharray: 0.8,1.32; stroke-dashoffset: 0; stroke: #b0b0b0; stroke-width: 0.8"/>
     </g>
     <g id="line2d_28">
      <g>
       <use xlink:href="#m5ac319e3d2" x="52.556094" y="22.089024" style="stroke: #000000; stroke-width: 0.8"/>
      </g>
     </g>
     <g id="text_15">
      <!-- 200 -->
      <g transform="translate(27.282344 25.932149) scale(0.11 -0.11)">
       <use xlink:href="#Cambria-32"/>
       <use xlink:href="#Cambria-30" x="55.371094"/>
       <use xlink:href="#Cambria-30" x="110.742188"/>
      </g>
     </g>
    </g>
    <g id="text_16">
     <!-- Base Shear (kN) -->
     <g transform="translate(14.838125 179.155969) rotate(-90) scale(0.11 -0.11)">
      <defs>
       <path id="TimesNewRomanPSMT-42" d="M 2956 2163 
Q 3397 2069 3616 1863 
Q 3919 1575 3919 1159 
Q 3919 844 3719 555 
Q 3519 266 3170 133 
Q 2822 0 2106 0 
L 106 0 
L 106 116 
L 266 116 
Q 531 116 647 284 
Q 719 394 719 750 
L 719 3488 
Q 719 3881 628 3984 
Q 506 4122 266 4122 
L 106 4122 
L 106 4238 
L 1938 4238 
Q 2450 4238 2759 4163 
Q 3228 4050 3475 3764 
Q 3722 3478 3722 3106 
Q 3722 2788 3528 2536 
Q 3334 2284 2956 2163 
z
M 1319 2331 
Q 1434 2309 1582 2298 
Q 1731 2288 1909 2288 
Q 2366 2288 2595 2386 
Q 2825 2484 2947 2687 
Q 3069 2891 3069 3131 
Q 3069 3503 2766 3765 
Q 2463 4028 1881 4028 
Q 1569 4028 1319 3959 
L 1319 2331 
z
M 1319 306 
Q 1681 222 2034 222 
Q 2600 222 2897 476 
Q 3194 731 3194 1106 
Q 3194 1353 3059 1581 
Q 2925 1809 2622 1940 
Q 2319 2072 1872 2072 
Q 1678 2072 1540 2065 
Q 1403 2059 1319 2044 
L 1319 306 
z
" transform="scale(0.015625)"/>
       <path id="TimesNewRomanPSMT-53" d="M 2934 4334 
L 2934 2869 
L 2819 2869 
Q 2763 3291 2617 3541 
Q 2472 3791 2203 3937 
Q 1934 4084 1647 4084 
Q 1322 4084 1109 3886 
Q 897 3688 897 3434 
Q 897 3241 1031 3081 
Q 1225 2847 1953 2456 
Q 2547 2138 2764 1967 
Q 2981 1797 3098 1565 
Q 3216 1334 3216 1081 
Q 3216 600 2842 251 
Q 2469 -97 1881 -97 
Q 1697 -97 1534 -69 
Q 1438 -53 1133 45 
Q 828 144 747 144 
Q 669 144 623 97 
Q 578 50 556 -97 
L 441 -97 
L 441 1356 
L 556 1356 
Q 638 900 775 673 
Q 913 447 1195 297 
Q 1478 147 1816 147 
Q 2206 147 2432 353 
Q 2659 559 2659 841 
Q 2659 997 2573 1156 
Q 2488 1316 2306 1453 
Q 2184 1547 1640 1851 
Q 1097 2156 867 2337 
Q 638 2519 519 2737 
Q 400 2956 400 3219 
Q 400 3675 750 4004 
Q 1100 4334 1641 4334 
Q 1978 4334 2356 4169 
Q 2531 4091 2603 4091 
Q 2684 4091 2736 4139 
Q 2788 4188 2819 4334 
L 2934 4334 
z
" transform="scale(0.015625)"/>
       <path id="TimesNewRomanPSMT-68" d="M 1041 4444 
L 1041 2350 
Q 1388 2731 1591 2839 
Q 1794 2947 1997 2947 
Q 2241 2947 2416 2812 
Q 2591 2678 2675 2391 
Q 2734 2191 2734 1659 
L 2734 647 
Q 2734 375 2778 275 
Q 2809 200 2884 156 
Q 2959 113 3159 113 
L 3159 0 
L 1753 0 
L 1753 113 
L 1819 113 
Q 2019 113 2097 173 
Q 2175 234 2206 353 
Q 2216 403 2216 647 
L 2216 1659 
Q 2216 2128 2167 2275 
Q 2119 2422 2012 2495 
Q 1906 2569 1756 2569 
Q 1603 2569 1437 2487 
Q 1272 2406 1041 2159 
L 1041 647 
Q 1041 353 1073 281 
Q 1106 209 1195 161 
Q 1284 113 1503 113 
L 1503 0 
L 84 0 
L 84 113 
Q 275 113 384 172 
Q 447 203 484 290 
Q 522 378 522 647 
L 522 3238 
Q 522 3728 498 3840 
Q 475 3953 426 3993 
Q 378 4034 297 4034 
Q 231 4034 84 3984 
L 41 4094 
L 897 4444 
L 1041 4444 
z
" transform="scale(0.015625)"/>
       <path id="TimesNewRomanPSMT-72" d="M 1038 2947 
L 1038 2303 
Q 1397 2947 1775 2947 
Q 1947 2947 2059 2842 
Q 2172 2738 2172 2600 
Q 2172 2478 2090 2393 
Q 2009 2309 1897 2309 
Q 1788 2309 1652 2417 
Q 1516 2525 1450 2525 
Q 1394 2525 1328 2463 
Q 1188 2334 1038 2041 
L 1038 669 
Q 1038 431 1097 309 
Q 1138 225 1241 169 
Q 1344 113 1538 113 
L 1538 0 
L 72 0 
L 72 113 
Q 291 113 397 181 
Q 475 231 506 341 
Q 522 394 522 644 
L 522 1753 
Q 522 2253 501 2348 
Q 481 2444 426 2487 
Q 372 2531 291 2531 
Q 194 2531 72 2484 
L 41 2597 
L 906 2947 
L 1038 2947 
z
" transform="scale(0.015625)"/>
       <path id="TimesNewRomanPSMT-6b" d="M 1047 4444 
L 1047 1597 
L 1775 2259 
Q 2006 2472 2044 2528 
Q 2069 2566 2069 2603 
Q 2069 2666 2017 2711 
Q 1966 2756 1847 2763 
L 1847 2863 
L 3091 2863 
L 3091 2763 
Q 2834 2756 2664 2684 
Q 2494 2613 2291 2428 
L 1556 1750 
L 2291 822 
Q 2597 438 2703 334 
Q 2853 188 2966 144 
Q 3044 113 3238 113 
L 3238 0 
L 1847 0 
L 1847 113 
Q 1966 116 2008 148 
Q 2050 181 2050 241 
Q 2050 313 1925 472 
L 1047 1594 
L 1047 644 
Q 1047 366 1086 278 
Q 1125 191 1197 153 
Q 1269 116 1509 113 
L 1509 0 
L 53 0 
L 53 113 
Q 272 113 381 166 
Q 447 200 481 272 
Q 528 375 528 628 
L 528 3234 
Q 528 3731 506 3842 
Q 484 3953 434 3995 
Q 384 4038 303 4038 
Q 238 4038 106 3984 
L 53 4094 
L 903 4444 
L 1047 4444 
z
" transform="scale(0.015625)"/>
       <path id="TimesNewRomanPSMT-4e" d="M -84 4238 
L 1066 4238 
L 3656 1059 
L 3656 3503 
Q 3656 3894 3569 3991 
Q 3453 4122 3203 4122 
L 3056 4122 
L 3056 4238 
L 4531 4238 
L 4531 4122 
L 4381 4122 
Q 4113 4122 4000 3959 
Q 3931 3859 3931 3503 
L 3931 -69 
L 3819 -69 
L 1025 3344 
L 1025 734 
Q 1025 344 1109 247 
Q 1228 116 1475 116 
L 1625 116 
L 1625 0 
L 150 0 
L 150 116 
L 297 116 
Q 569 116 681 278 
Q 750 378 750 734 
L 750 3681 
Q 566 3897 470 3965 
Q 375 4034 191 4094 
Q 100 4122 -84 4122 
L -84 4238 
z
" transform="scale(0.015625)"/>
      </defs>
      <use xlink:href="#TimesNewRomanPSMT-42"/>
      <use xlink:href="#TimesNewRomanPSMT-61" x="66.699219"/>
      <use xlink:href="#TimesNewRomanPSMT-73" x="111.083984"/>
      <use xlink:href="#TimesNewRomanPSMT-65" x="150"/>
      <use xlink:href="#TimesNewRomanPSMT-20" x="194.384766"/>
      <use xlink:href="#TimesNewRomanPSMT-53" x="219.384766"/>
      <use xlink:href="#TimesNewRomanPSMT-68" x="275"/>
      <use xlink:href="#TimesNewRomanPSMT-65" x="325"/>
      <use xlink:href="#TimesNewRomanPSMT-61" x="369.384766"/>
      <use xlink:href="#TimesNewRomanPSMT-72" x="413.769531"/>
      <use xlink:href="#TimesNewRomanPSMT-20" x="447.070312"/>
      <use xlink:href="#TimesNewRomanPSMT-28" x="472.070312"/>
      <use xlink:href="#TimesNewRomanPSMT-6b" x="505.371094"/>
      <use xlink:href="#TimesNewRomanPSMT-4e" x="555.371094"/>
      <use xlink:href="#TimesNewRomanPSMT-29" x="627.587891"/>
     </g>
    </g>
   </g>
   <g id="line2d_29">
    <path d="M 181.457602 142.250271 
L 181.378538 133.181777 
L 182.054362 122.283042 
L 184.551456 99.251625 
L 187.101289 82.265873 
L 186.789703 90.738074 
L 185.791816 108.899877 
L 185.084385 116.171216 
L 183.986392 122.846255 
L 183.347459 137.976955 
L 182.634746 144.643725 
L 181.53147 150.714201 
L 180.084913 161.629476 
L 179.044853 174.954751 
L 177.213016 185.878296 
L 175.777112 198.002708 
L 175.027508 200.437513 
L 175.692766 188.329646 
L 176.722261 173.795239 
L 182.201923 139.210897 
L 185.09495 117.380348 
L 186.119162 102.241372 
L 187.159222 88.916103 
L 188.230977 79.21823 
L 189.709055 71.930352 
L 191.22411 68.874438 
L 190.189333 82.804276 
L 190.278961 93.081908 
L 188.858817 107.020016 
L 187.422825 119.144423 
L 185.96579 128.850566 
L 183.727544 137.364122 
L 181.916749 150.705931 
L 178.554097 162.871694 
L 177.160366 179.832635 
L 176.078133 188.321376 
L 175.386462 197.406409 
L 174.298947 205.290587 
L 172.820869 212.57846 
L 170.936295 217.45635 
L 171.226751 206.565879 
L 172.256245 192.031478 
L 176.595742 159.285648 
L 180.977411 131.376346 
L 182.7934 118.6391 
L 186.092837 99.218545 
L 187.127614 85.288707 
L 188.204564 76.195403 
L 190.463941 70.100116 
L 192.7286 64.609399 
L 195.383821 59.714969 
L 195.478733 70.597163 
L 194.43339 83.317869 
L 192.590988 93.032282 
L 191.144519 103.947563 
L 189.307399 114.266539 
L 187.464997 123.980957 
L 185.971072 129.455135 
L 184.118105 137.960415 
L 182.682201 150.084822 
L 180.829234 158.590109 
L 177.841384 169.538464 
L 176.009547 180.462014 
L 173.412347 192.006668 
L 172.319549 199.286271 
L 171.242599 208.37958 
L 168.993787 215.683999 
L 168.629462 218.110533 
L 165.984807 224.214089 
L 164.089667 227.882842 
L 161.803965 230.955301 
L 161.043884 232.180973 
L 160.96482 223.112479 
L 163.118721 204.92586 
L 165.694879 190.962942 
L 167.50039 177.016558 
L 171.206237 160.005997 
L 173.423352 149.074182 
L 175.661687 140.560631 
L 179.029621 128.999438 
L 182.408121 118.64737 
L 184.604194 105.297291 
L 187.961564 92.526959 
L 192.443427 76.104427 
L 193.895179 65.793715 
L 196.508227 56.062756 
L 199.174014 52.377464 
L 202.240927 50.497603 
L 202.700075 58.95327 
L 201.992644 66.224602 
L 200.155524 76.543584 
L 197.959451 89.893663 
L 194.285213 110.531626 
L 190.922561 122.697389 
L 186.461828 141.538191 
L 178.918334 160.44516 
L 176.300003 169.571544 
L 173.338478 183.542732 
L 168.851421 199.360707 
L 166.998541 207.865987 
L 164.374928 216.387808 
L 163.266282 221.853715 
L 161.772357 227.327899 
L 159.111853 231.61776 
L 159.750786 216.487054 
L 161.535167 200.122412 
L 164.127173 187.973189 
L 168.255189 175.186323 
L 170.847194 163.0371 
L 173.074964 153.314417 
L 175.307927 144.196298 
L 176.775527 135.699287 
L 179.383293 125.363765 
L 182.75651 114.407141 
L 186.161335 107.077906 
L 189.545117 97.330413 
L 193.636331 80.311576 
L 196.249379 70.580623 
L 199.263642 62.655096 
L 201.095479 51.731545 
L 203.36005 46.240834 
L 206.036402 43.764674 
L 208.691623 38.870249 
L 210.98789 37.006928 
L 214.054891 35.127061 
L 214.487626 40.559894 
L 213.088612 56.916266 
L 211.63686 67.226978 
L 209.805023 78.150523 
L 207.582536 88.477775 
L 205.365333 99.409589 
L 200.128671 117.662369 
L 196.760736 129.223563 
L 194.121275 135.931688 
L 190.721733 143.86548 
L 186.150329 150.010392 
L 183.500303 155.509379 
L 175.560965 173.215486 
L 173.702803 181.116197 
L 169.178767 192.702207 
L 165.80555 203.658832 
L 163.171459 210.971521 
L 156.783979 229.853679 
L 151.837773 237.215993 
L 148.4171 242.731515 
L 143.814001 245.249025 
L 144.431892 227.700061 
L 146.237315 213.753689 
L 152.17093 187.020439 
L 154.778696 176.684917 
L 163.050663 152.92488 
L 166.835661 144.982813 
L 171.401782 138.233337 
L 176.321662 127.848196 
L 180.887783 121.09872 
L 187.702715 107.044826 
L 191.846667 96.071655 
L 196.740134 82.66368 
L 200.108069 71.102486 
L 203.111767 61.967827 
L 206.131313 54.646868 
L 216.013246 38.713113 
L 217.264083 49.570492 
L 215.062727 62.316008 
L 213.991059 72.013886 
L 211.029534 85.985074 
L 205.444396 108.478089 
L 202.451263 118.821875 
L 198.692679 129.786776 
L 193.398084 141.389325 
L 188.071794 149.364473 
L 175.930484 171.393515 
L 172.140292 178.731013 
L 166.824567 187.915299 
L 163.050135 197.066499 
L 160.05172 206.805721 
L 157.042827 215.335812 
L 152.883116 224.495288 
L 149.092924 231.83278 
L 146.437614 236.72721 
L 142.642228 243.460146 
L 144.416044 225.88636 
L 146.612117 212.536281 
L 148.839886 202.813598 
L 151.801411 188.84241 
L 160.421855 160.842138 
L 163.810832 151.699208 
L 167.20518 143.160842 
L 172.900989 133.363729 
L 177.841912 125.396845 
L 183.157725 116.212566 
L 188.10393 108.850257 
L 192.263642 99.690782 
L 195.679032 93.570685 
L 199.463941 85.628617 
L 207.778081 66.705115 
L 211.193472 60.585019 
L 218.050665 51.367653 
L 221.497663 48.874953 
L 224.580424 48.808793 
L 227.636772 45.719794 
L 231.089053 43.831662 
L 231.912525 49.860783 
L 230.47125 61.380627 
L 226.744361 75.972924 
L 224.907242 86.291905 
L 221.159223 98.465938 
L 217.775441 108.213431 
L 209.47706 128.95064 
L 204.54142 137.522081 
L 198.803438 142.482671 
L 194.210904 146.209314 
L 188.462356 149.960766 
L 184.677447 157.902834 
L 180.480845 162.830338 
L 174.779753 172.022894 
L 171.364363 178.14299 
L 157.364891 208.072749 
L 154.334868 214.184576 
L 152.049166 217.257029 
L 150.507785 217.290109 
L 149.388662 221.54689 
L 147.493522 225.215637 
L 144.426609 227.095498 
L 143.307486 231.352273 
L 140.25105 234.441272 
L 136.033318 236.950513 
L 132.591602 240.047776 
L 129.894208 240.105666 
L 126.431363 240.784665 
L 127.107186 229.88593 
L 128.558938 219.575218 
L 131.077075 198.962077 
L 134.080773 189.827411 
L 138.240484 180.667942 
L 141.249465 172.137851 
L 145.409176 162.978381 
L 150.344905 154.406935 
L 154.525658 147.665729 
L 159.107627 142.729955 
L 162.169346 140.245525 
L 166.788205 139.541715 
L 166.756509 135.914319 
L 169.063342 135.26013 
L 172.499774 131.558298 
L 176.316379 127.243627 
L 182.033319 119.864778 
L 188.499775 110.051119 
L 193.831347 102.680535 
L 198.75651 92.899962 
L 205.228337 83.69086 
L 210.918863 73.289179 
L 215.474419 65.330571 
L 219.280459 59.806768 
L 224.617314 53.040752 
L 228.835046 50.531512 
L 233.057973 48.626841 
L 233.105429 54.067944 
L 231.648394 63.774087 
L 230.587292 74.681091 
L 226.079103 88.08079 
L 222.346844 102.068524 
L 218.561935 110.010592 
L 215.542477 117.331551 
L 212.533496 125.861641 
L 206.436472 133.853335 
L 200.714338 140.62762 
L 194.601553 146.805613 
L 186.567304 153.629518 
L 181.230449 160.395534 
L 175.133425 168.387227 
L 164.12189 187.368626 
L 159.914724 191.086998 
L 157.602609 191.136618 
L 158.404951 194.747474 
L 154.984278 200.263008 
L 150.814001 208.213345 
L 146.633248 214.954551 
L 143.956896 217.430711 
L 139.005408 224.188451 
L 136.323774 226.060042 
L 134.787676 226.697691 
L 132.892624 230.366443 
L 130.205707 231.633471 
L 127.154553 235.327033 
L 124.082358 236.602326 
L 125.513067 223.87335 
L 127.313296 209.322409 
L 130.269539 194.746652 
L 134.413402 183.773481 
L 137.4171 174.638821 
L 141.582094 166.08392 
L 145.752371 158.133577 
L 151.068095 148.949297 
L 157.175685 142.166742 
L 161.377569 137.8438 
L 165.975298 134.721727 
L 172.499774 131.558298 
L 178.237844 126.597708 
L 185.480317 117.372078 
L 190.410675 108.196068 
L 196.86137 96.568708 
L 202.177183 87.384423 
L 208.242512 75.765339 
L 214.714338 66.556249 
L 220.030063 57.371963 
L 227.29886 51.169161 
L 232.683171 49.844243 
L 237.280988 46.722164 
L 242.665211 45.397251 
L 244.961478 43.53393 
L 249.949944 41.00815 
L 251.913494 45.198759 
L 253.143376 53.637874 
L 251.665211 60.925758 
L 249.822897 70.640171 
L 244.966232 88.280111 
L 241.957252 96.810202 
L 237.417456 106.582511 
L 232.481815 115.153957 
L 225.999512 123.153915 
L 220.657374 129.315367 
L 213.758096 133.696199 
L 208.014831 138.052214 
L 199.948886 141.248729 
L 190.362779 146.896583 
L 183.125501 156.726782 
L 177.023282 164.113906 
L 165.953727 176.445075 
L 159.872551 186.250464 
L 155.306342 192.999939 
L 151.505672 199.128306 
L 148.855646 204.627299 
L 145.429779 209.538264 
L 141.998541 213.844665 
L 138.182023 218.15933 
L 132.449236 223.72449 
L 128.252634 228.651988 
L 115.974328 234.962307 
L 111.719705 233.239581 
L 108.96429 226.647242 
L 108.156754 222.431823 
L 110.00435 213.321973 
L 113.36709 201.15621 
L 115.594771 191.433522 
L 117.833018 182.919977 
L 120.483044 177.420983 
L 123.893152 170.696318 
L 127.678061 162.75425 
L 131.468253 155.416752 
L 136.050222 150.480977 
L 142.178854 146.116686 
L 150.244711 142.920177 
L 155.227807 139.789828 
L 159.815058 135.458616 
L 167.870438 131.052975 
L 177.841912 125.396845 
L 185.100232 117.984917 
L 198.101818 106.216961 
L 204.198754 98.225273 
L 213.737494 87.136316 
L 217.928901 81.604243 
L 225.192416 74.796872 
L 230.143904 68.039126 
L 237.396941 60.022628 
L 243.145489 56.271176 
L 248.133867 53.745396 
L 250.445982 53.695776 
L 250.878717 59.128597 
L 249.807049 68.82647 
L 246.813917 79.170262 
L 244.59143 89.497513 
L 239.687398 101.696356 
L 234.376867 111.485205 
L 227.936737 124.321697 
L 219.934095 134.773005 
L 213.050665 140.967531 
L 203.438057 143.592558 
L 193.07065 148.047825 
L 180.021697 154.374683 
L 171.9716 159.384894 
L 166.629462 165.54634 
L 162.047582 170.482115 
L 157.46033 174.813326 
L 152.097062 178.556508 
L 147.145574 185.314254 
L 140.267426 192.113355 
L 136.836188 196.419751 
L 130.338037 202.606013 
L 124.980139 206.953764 
L 120.023368 213.106941 
L 115.816201 216.825313 
L 111.234232 221.761088 
L 108.156754 222.431823 
L 104.334954 226.141919 
L 104.261085 217.677988 
L 106.087639 206.149881 
L 109.466139 195.797813 
L 113.214158 183.623786 
L 118.508841 172.021236 
L 123.829848 163.441525 
L 129.932155 156.054401 
L 139.51835 150.406541 
L 149.099175 144.154119 
L 159.07602 139.102559 
L 168.266282 132.253837 
L 177.081743 126.622523 
L 187.808192 119.136153 
L 195.076989 112.93335 
L 201.575141 106.747088 
L 209.208263 98.117757 
L 219.153412 89.438795 
L 225.276761 84.469934 
L 237.491853 70.904823 
L 244.76065 64.702027 
L 249.368944 62.78908 
L 252.414815 58.490954 
L 254.72693 58.441328 
L 258.173928 55.948634 
L 263.558238 54.623704 
L 269.73952 56.305085 
L 271.740049 64.72766 
L 274.891396 72.520855 
L 279.578753 79.676413 
L 281.584564 88.703557 
L 274.785391 104.571152 
L 269.854946 113.747162 
L 266.444838 120.471821 
L 262.638886 125.995625 
L 256.906099 131.560778 
L 248.470722 136.579259 
L 240.410148 140.380337 
L 222.346316 146.210143 
L 215.035345 147.576411 
L 204.652091 150.217977 
L 200.064927 154.549188 
L 194.691182 157.083239 
L 185.463941 159.699995 
L 175.481901 164.146986 
L 164.380651 172.850759 
L 156.731769 179.6664 
L 149.837773 184.651801 
L 140.642228 190.895953 
L 134.513596 195.260245 
L 127.609035 199.036507 
L 119.944305 204.038447 
L 111.91525 211.466922 
L 105.781424 215.226644 
L 97.324917 217.82686 
L 88.446153 216.203381 
L 82.259588 213.917443 
L 79.124089 207.937937 
L 76.780366 204.360161 
L 76.326501 196.509069 
L 77.429864 190.438593 
L 81.198926 180.68283 
L 86.498891 169.684849 
L 92.205265 161.096863 
L 100.228949 153.063825 
L 106.352299 148.094965 
L 113.272708 146.132397 
L 131.3523 142.116293 
L 144.80775 138.199429 
L 154.810832 136.170701 
L 162.10076 132.386163 
L 175.139235 124.850172 
L 188.219884 122.150716 
L 196.65526 117.132236 
L 207.027949 113.281537 
L 215.093894 110.085028 
L 224.321047 107.468272 
L 236.250965 105.398189 
L 253.601996 106.235153 
L 260.163362 107.303689 
L 267.495463 108.355685 
L 271.364719 110.08668 
L 272.172343 114.302105 
L 269.527599 120.405661 
L 264.190832 127.171677 
L 253.105429 137.689145 
L 235.062728 145.93722 
L 228.913053 147.883242 
L 220.852391 151.68432 
L 209.323688 155.559828 
L 201.247266 157.547206 
L 187.781338 160.254938 
L 175.476619 163.542423 
L 165.494579 167.98942 
L 156.262056 170.001608 
L 145.504087 173.860576 
L 135.881002 175.27647 
L 123.565805 177.354817 
L 110.115638 181.876251 
L 102.815144 184.451651 
L 92.020198 184.078654 
L 85.089312 184.832089 
L 84.292252 181.825802 
L 80.824124 181.900238 
L 76.17894 179.581214 
L 72.309684 177.850219 
L 66.830463 168.292942 
L 63.716094 164.731706 
L 63.716094 164.731706 
" clip-path="url(#p93a13118b3)" style="fill: none; stroke-dasharray: 4.07,1.76; stroke-dashoffset: 0; stroke: #433f40; stroke-width: 1.1"/>
   </g>
   <g id="line2d_30">
    <path d="M 52.556094 35.127061 
L 298.076094 35.127061 
" clip-path="url(#p93a13118b3)" style="fill: none; stroke-dasharray: 3.7,1.6; stroke-dashoffset: 0; stroke: #ff0000"/>
   </g>
   <g id="line2d_31">
    <path d="M 52.556094 245.249025 
L 298.076094 245.249025 
" clip-path="url(#p93a13118b3)" style="fill: none; stroke-dasharray: 3.7,1.6; stroke-dashoffset: 0; stroke: #ff0000"/>
   </g>
   <g id="line2d_32">
    <path d="M 181.264962 141.339288 
L 182.647965 72.239785 
L 184.022424 53.550437 
L 185.379846 58.764474 
L 186.711846 56.770107 
L 188.010194 52.757673 
L 189.266869 50.091711 
L 190.474106 48.663477 
L 191.624448 54.650798 
L 192.710787 51.276723 
L 193.726411 48.882834 
L 194.665046 47.873185 
L 196.288663 47.013382 
L 198.660946 46.148857 
L 198.873673 46.179218 
L 198.651913 48.598371 
L 198.001136 52.634145 
L 196.937401 56.599159 
L 193.685588 67.539107 
L 192.666889 70.631854 
L 190.42489 76.580644 
L 189.215442 79.498423 
L 187.956874 82.197745 
L 186.656962 84.52134 
L 185.323737 86.292574 
L 183.965436 87.330226 
L 182.590451 95.974408 
L 181.207278 160.208752 
L 179.82446 214.594367 
L 178.450542 226.626488 
L 177.094013 233.908062 
L 175.763252 237.544614 
L 174.466482 240.452326 
L 172.0067 244.931623 
L 170.858886 246.0963 
L 169.775363 247.434222 
L 167.827527 249.343035 
L 165.540264 251.088958 
L 163.65644 252.198682 
L 164.164195 244.788237 
L 165.032715 234.860261 
L 166.301758 223.0466 
L 167.940013 209.863978 
L 169.907055 195.986797 
L 172.154348 182.866394 
L 173.365995 176.919725 
L 175.927905 172.407065 
L 177.26234 169.157491 
L 178.621504 160.126507 
L 179.997001 139.770125 
L 181.38033 106.908802 
L 182.762947 85.136067 
L 184.136309 73.586753 
L 185.491932 64.497816 
L 186.821439 56.863611 
L 188.116618 51.547973 
L 189.369465 47.996446 
L 190.572242 45.390926 
L 191.717516 43.227475 
L 192.798212 41.527362 
L 195.588307 38.139398 
L 197.585246 36.12705 
L 198.873106 35.015986 
L 198.351882 41.859085 
L 197.474764 51.378455 
L 196.197676 62.335495 
L 193.603544 81.303332 
L 191.484013 94.347414 
L 190.326163 100.762084 
L 189.112332 104.154418 
L 187.850017 106.330531 
L 186.547019 109.323757 
L 185.211388 112.027877 
L 183.851375 120.186549 
L 182.475382 143.431185 
L 181.091911 172.118277 
L 179.70951 188.896294 
L 178.336718 198.526412 
L 176.982017 206.599696 
L 174.360205 218.666771 
L 173.109291 223.413885 
L 171.908764 227.195946 
L 170.766042 230.406042 
L 168.68185 235.178216 
L 165.488681 241.288737 
L 163.657385 244.344026 
L 164.583395 232.911412 
L 165.672171 222.090357 
L 168.015719 201.824779 
L 168.967601 194.622408 
L 169.995459 188.378025 
L 172.25327 176.509623 
L 173.469274 173.160066 
L 174.733441 171.077389 
L 176.037961 168.615058 
L 177.374774 164.178546 
L 178.735622 153.608088 
L 180.112097 131.734363 
L 181.726425 102.315017 
L 184.490768 81.794088 
L 187.235182 67.217261 
L 189.94271 57.341391 
L 192.596626 49.930733 
L 195.180532 44.014409 
L 197.678465 39.863348 
L 200.074993 36.720813 
L 202.355309 34.667052 
L 204.505324 33.314009 
L 206.511756 32.611955 
L 210.045249 32.098002 
L 212.868601 32.052614 
L 213.991468 32.200206 
L 214.912145 31.926125 
L 216.478605 32.152934 
L 215.962868 37.718667 
L 214.590974 49.867565 
L 213.593741 57.302511 
L 211.007471 73.959095 
L 209.434411 83.340927 
L 207.687315 91.327963 
L 205.776977 98.685996 
L 203.7152 103.393442 
L 201.51472 106.656132 
L 194.220795 113.526379 
L 191.608739 116.387741 
L 186.209442 123.038496 
L 183.455559 140.035612 
L 180.688142 181.702594 
L 177.924289 199.451703 
L 175.181075 211.789589 
L 172.475449 221.678069 
L 169.824126 228.976418 
L 167.243486 234.6009 
L 164.749474 239.284998 
L 162.357498 243.161118 
L 160.082335 245.481093 
L 157.938043 247.128966 
L 155.937869 248.046778 
L 154.094171 248.461483 
L 150.920726 248.87597 
L 146.053209 249.212688 
L 146.586987 243.349419 
L 147.976429 231.045572 
L 150.187252 215.198435 
L 151.584393 205.863676 
L 153.164905 196.256268 
L 154.919025 188.061805 
L 156.835916 180.429757 
L 161.109703 173.574885 
L 163.440196 170.796331 
L 165.880813 168.557719 
L 168.416477 166.399916 
L 171.031521 164.471743 
L 173.709789 161.956884 
L 176.434734 157.137985 
L 179.189522 138.389533 
L 181.957132 100.934233 
L 184.720466 87.265332 
L 187.46245 77.265034 
L 190.166146 69.290948 
L 192.814848 63.606149 
L 195.392193 58.756931 
L 197.882258 54.344642 
L 200.269657 51.146406 
L 204.678188 46.074502 
L 210.177612 40.272303 
L 214.979554 35.559738 
L 216.474447 34.34506 
L 215.32436 45.442698 
L 213.501529 59.119154 
L 210.883274 75.618726 
L 209.295325 84.829132 
L 207.534199 92.617953 
L 205.610777 99.770296 
L 203.536942 104.453413 
L 201.325506 107.028976 
L 198.990132 109.560299 
L 194.005962 114.105301 
L 188.707412 120.657905 
L 185.980885 125.967209 
L 183.225223 146.699316 
L 180.457449 181.068133 
L 177.694665 195.362422 
L 174.953938 204.901077 
L 172.252203 212.415306 
L 169.60615 218.459779 
L 167.032127 223.409503 
L 164.546037 227.299409 
L 159.898457 233.475902 
L 149.510133 246.468468 
L 147.517208 248.516887 
L 146.058122 249.579261 
L 146.627963 243.736263 
L 148.052458 231.741339 
L 150.296458 216.071032 
L 151.709226 206.827271 
L 153.304594 197.801893 
L 155.072706 189.478655 
L 157.00264 182.023448 
L 159.08247 176.046172 
L 161.299348 172.165579 
L 163.639578 169.764229 
L 168.631585 165.335708 
L 171.252521 163.288232 
L 173.935315 160.882439 
L 176.663394 155.119826 
L 179.419902 132.43379 
L 182.649232 97.004267 
L 186.792541 82.151511 
L 190.901699 70.297019 
L 194.951319 62.343525 
L 198.916382 55.726433 
L 202.772392 50.259564 
L 206.495524 46.237454 
L 213.452112 39.173287 
L 216.642589 36.169945 
L 219.614496 33.942276 
L 222.349472 33.240518 
L 227.042611 32.970132 
L 228.97178 32.988308 
L 230.606206 33.892629 
L 231.935793 34.803143 
L 233.649524 36.441125 
L 234.023081 36.858741 
L 234.070687 36.702182 
L 233.188891 44.00623 
L 232.264936 50.582837 
L 231.025893 58.39957 
L 229.479418 67.176996 
L 227.635065 76.930762 
L 225.504228 86.187179 
L 223.100073 94.182412 
L 220.437452 99.503706 
L 217.532816 103.450311 
L 214.404111 106.256061 
L 211.070666 108.895928 
L 207.553075 111.343792 
L 203.873071 113.532232 
L 200.05339 116.293059 
L 192.090109 123.428091 
L 187.995707 130.554091 
L 183.859722 152.199395 
L 179.707705 187.745757 
L 175.56531 202.087435 
L 171.458128 212.448437 
L 167.411534 220.528922 
L 163.45053 226.942132 
L 155.882496 236.021305 
L 145.75901 247.677669 
L 142.796618 249.88069 
L 140.071892 250.462083 
L 129.542136 250.792177 
L 128.464338 250.759566 
L 129.373159 242.729925 
L 130.310371 235.900277 
L 133.12148 218.754336 
L 134.97801 208.679985 
L 137.12051 198.192661 
L 139.535742 189.004198 
L 142.208786 181.855425 
L 145.123126 177.438646 
L 148.260758 174.144964 
L 151.602295 170.929314 
L 155.127094 168.041996 
L 162.638372 163.415519 
L 166.578445 161.548766 
L 170.609254 159.404365 
L 174.705896 154.765865 
L 178.843061 131.675764 
L 182.995189 97.320271 
L 187.136627 85.972533 
L 191.241789 77.544731 
L 195.285312 70.627688 
L 199.242215 64.60145 
L 203.088051 60.579076 
L 210.352314 55.96859 
L 213.725861 53.192765 
L 216.898858 50.301418 
L 227.214354 39.93604 
L 229.119391 40.484827 
L 233.022695 44.289116 
L 233.69306 45.666282 
L 234.039515 45.893182 
L 234.059918 45.76592 
L 233.754144 48.194257 
L 232.173624 58.701352 
L 230.908643 66.137744 
L 229.336954 74.278447 
L 227.468267 83.073628 
L 225.314127 90.817489 
L 222.887843 95.357508 
L 220.204405 99.802905 
L 217.280391 103.497006 
L 214.133868 106.333497 
L 210.784274 108.878215 
L 207.252304 111.07386 
L 203.559779 112.74832 
L 199.729513 120.266709 
L 195.785169 131.72441 
L 191.751117 138.273476 
L 187.652279 146.048004 
L 183.513979 165.463618 
L 179.361784 190.59175 
L 175.221348 201.897193 
L 171.11825 210.061957 
L 167.07784 216.493354 
L 163.125081 220.925568 
L 155.579507 229.061703 
L 152.033309 233.043726 
L 133.337498 247.527871 
L 131.740662 248.931492 
L 128.476241 251.015407 
L 129.439082 242.76575 
L 130.402776 235.894149 
L 133.264976 218.789724 
L 135.1458 208.711201 
L 137.311557 198.232511 
L 139.748867 189.469297 
L 142.44267 182.314502 
L 145.376326 176.606356 
L 148.531708 173.462271 
L 151.889322 170.514073 
L 155.428425 166.777153 
L 159.127151 164.240661 
L 162.962648 162.550568 
L 166.91122 160.688572 
L 170.948473 158.28194 
L 175.049463 151.55679 
L 179.188854 124.735484 
L 184.033107 99.90437 
L 189.552294 86.180634 
L 195.020281 78.245766 
L 200.403284 71.205986 
L 205.668048 65.346328 
L 210.782044 60.081367 
L 215.713678 54.764716 
L 220.432482 50.177482 
L 224.909301 46.179045 
L 229.116477 41.777283 
L 233.028018 44.660601 
L 239.869502 52.460677 
L 242.757178 57.283046 
L 247.377304 61.546278 
L 249.081211 63.682992 
L 250.366136 64.166226 
L 251.649924 64.125951 
L 251.640856 64.185067 
L 247.297362 75.989988 
L 245.168248 81.215999 
L 242.644327 86.784978 
L 239.741193 92.276302 
L 236.476781 97.13248 
L 232.871261 101.165807 
L 228.946906 104.137248 
L 224.727964 106.36528 
L 220.240499 108.08763 
L 215.512236 113.422847 
L 210.572386 134.390746 
L 205.45147 147.494293 
L 200.181125 153.679238 
L 194.793912 161.502859 
L 189.323115 175.535972 
L 183.802532 186.655277 
L 178.266273 199.761039 
L 172.74854 213.61205 
L 167.283422 221.478237 
L 161.904686 226.333847 
L 151.538539 235.004533 
L 146.615173 238.462546 
L 129.345705 251.435531 
L 125.767788 253.174715 
L 122.532742 253.061187 
L 113.386746 252.093255 
L 110.871687 251.623335 
L 111.360831 247.661967 
L 112.254652 241.474404 
L 115.313213 224.646471 
L 117.459057 213.701022 
L 119.999106 202.184499 
L 122.917668 192.503941 
L 126.19671 185.276104 
L 129.815974 178.908166 
L 133.7531 174.114986 
L 137.983763 171.105471 
L 142.481826 167.762993 
L 147.219498 165.241096 
L 152.16751 163.354963 
L 162.571162 159.841747 
L 167.962526 157.607445 
L 173.436076 150.837215 
L 178.957993 127.826709 
L 184.494164 121.014766 
L 195.472573 97.781609 
L 200.846985 88.098656 
L 206.100415 82.08604 
L 211.200407 78.676521 
L 225.270568 67.228875 
L 229.454076 63.801003 
L 233.339863 60.022361 
L 236.903922 54.384795 
L 240.124232 52.299738 
L 242.980898 54.056911 
L 245.456272 56.660338 
L 247.535059 59.368389 
L 250.454033 62.420171 
L 251.665794 63.536025 
L 251.620454 63.806575 
L 251.140444 65.369457 
L 248.890944 71.508179 
L 247.135353 75.865373 
L 244.972801 80.791976 
L 242.416651 86.098177 
L 239.482694 91.536815 
L 236.189056 96.726818 
L 232.556087 101.117288 
L 228.606232 104.420501 
L 224.363893 108.384255 
L 219.855281 122.494436 
L 215.10825 142.262092 
L 210.152129 153.745459 
L 205.017538 160.696971 
L 199.736199 169.455087 
L 194.340741 176.018527 
L 188.864499 181.262342 
L 183.341305 190.691597 
L 177.805283 202.239852 
L 172.290635 212.405481 
L 166.831433 219.746335 
L 161.461403 224.022463 
L 151.120816 229.948986 
L 141.524024 235.422044 
L 132.907823 239.966588 
L 122.279274 245.65411 
L 112.033056 251.498785 
L 110.857328 252.116145 
L 112.348477 241.249052 
L 115.476637 224.140144 
L 117.655872 213.084313 
L 120.228096 201.654668 
L 123.177418 191.850673 
L 126.485616 184.603368 
L 130.13225 177.755526 
L 134.094793 173.526741 
L 138.348762 170.057191 
L 142.867875 166.830821 
L 147.624212 164.720489 
L 163.016486 159.43143 
L 168.41598 157.202303 
L 173.894857 149.616765 
L 179.419268 129.148055 
L 185.877612 125.555246 
L 192.768882 116.142946 
L 199.589078 103.743373 
L 206.296065 91.801823 
L 212.848405 82.577312 
L 219.205616 79.945796 
L 225.328422 76.251826 
L 231.178996 72.031755 
L 236.721192 67.724406 
L 241.920768 58.941475 
L 246.745602 56.640843 
L 251.165883 60.47388 
L 255.154303 62.682637 
L 268.840289 62.223073 
L 269.282062 62.206802 
L 269.180049 62.715948 
L 268.53488 64.212476 
L 267.35054 67.343559 
L 263.396904 76.771155 
L 260.652035 82.301755 
L 257.416697 87.722953 
L 253.710879 92.714778 
L 249.557476 97.958939 
L 244.982149 108.583338 
L 240.013165 127.356031 
L 234.681224 141.58745 
L 229.019267 151.117073 
L 223.062274 157.042987 
L 216.84705 162.896119 
L 210.411993 170.307163 
L 203.79686 173.432451 
L 197.042521 175.916596 
L 190.190705 183.639957 
L 183.283744 197.646581 
L 176.36431 210.168464 
L 169.475154 217.381022 
L 162.658838 223.248617 
L 155.957473 227.485621 
L 149.412463 231.067575 
L 143.064244 234.732107 
L 136.952036 237.951763 
L 125.585013 243.644804 
L 115.591869 249.045479 
L 107.219182 253.686125 
L 103.706779 253.582929 
L 98.13822 239.975724 
L 96.116468 235.940614 
L 94.620779 233.508608 
L 93.660395 232.258472 
L 93.241248 232.206737 
L 94.033667 227.973241 
L 96.978482 213.397473 
L 99.237365 204.552919 
L 102.003031 196.351736 
L 105.258392 188.896382 
L 113.15485 180.378047 
L 117.747161 176.30002 
L 122.731897 173.106894 
L 128.078262 169.977487 
L 133.753224 166.452301 
L 139.721723 163.556645 
L 145.946883 161.196801 
L 152.390246 158.608488 
L 159.012002 152.131116 
L 165.771241 141.614343 
L 172.626203 131.757079 
L 179.534537 128.764912 
L 186.453562 126.216836 
L 193.340531 122.329787 
L 200.152895 116.463302 
L 206.848565 109.635822 
L 219.725334 95.131481 
L 231.65311 81.691334 
L 237.168034 76.78883 
L 242.337578 75.124141 
L 247.129804 73.422744 
L 251.515104 71.509045 
L 255.466386 69.58692 
L 258.959237 64.113795 
L 261.972078 58.274221 
L 266.486355 56.390639 
L 267.959901 56.204649 
L 269.294344 57.090837 
L 268.456699 61.963101 
L 267.227713 66.492368 
L 265.467633 70.853129 
L 263.187333 75.387295 
L 260.4009 79.786168 
L 257.125551 83.346256 
L 253.381521 90.426204 
L 249.191941 104.078974 
L 244.582695 121.665011 
L 239.58226 134.653934 
L 234.221529 144.178406 
L 228.533623 151.434203 
L 222.553682 157.119227 
L 216.318652 162.822949 
L 209.867053 168.911489 
L 203.238745 172.442568 
L 196.474679 174.850429 
L 189.616644 180.158469 
L 182.707011 188.141819 
L 168.903761 207.187832 
L 162.095424 214.410485 
L 155.405519 219.302718 
L 148.875379 223.85602 
L 142.545348 227.8395 
L 125.139368 236.160735 
L 119.984924 238.177025 
L 115.209079 240.487437 
L 110.84134 242.807992 
L 106.908691 238.407495 
L 103.43543 231.349209 
L 100.443014 226.238272 
L 97.949931 224.011909 
L 95.971585 221.546046 
L 94.520198 220.051233 
L 93.230856 219.281754 
L 94.113719 214.668034 
L 95.365009 209.172944 
L 97.147004 204.161815 
L 99.448697 199.136883 
L 102.255865 193.655779 
L 105.551168 188.263512 
L 109.314244 183.276125 
L 113.521845 178.854331 
L 118.147977 175.265081 
L 123.164057 171.752999 
L 128.539096 168.881946 
L 134.239885 166.062448 
L 140.231204 162.692805 
L 146.476037 157.434483 
L 152.935803 145.302316 
L 159.570592 129.674905 
L 166.339413 128.69153 
L 173.200446 125.385734 
L 180.111304 121.127678 
L 204.606088 103.469859 
L 212.626968 96.528259 
L 220.454088 89.105342 
L 228.03909 82.395381 
L 235.335113 76.427637 
L 242.29708 73.698249 
L 248.881978 71.488975 
L 255.049126 68.315088 
L 260.760422 60.558272 
L 265.980579 55.401332 
L 270.677347 57.709672 
L 274.821708 61.297117 
L 286.910425 60.481785 
L 286.679216 61.803036 
L 285.796738 63.226504 
L 284.268443 66.900633 
L 282.103773 71.163719 
L 279.316101 75.057933 
L 275.92265 77.452384 
L 271.944387 87.533577 
L 267.405889 106.046632 
L 262.335195 121.314079 
L 256.763635 131.742778 
L 250.725629 138.964735 
L 244.258482 144.74803 
L 237.402148 149.753697 
L 230.198989 154.351387 
L 222.693506 158.929981 
L 214.93207 164.470639 
L 206.962631 169.95918 
L 198.834428 173.52339 
L 190.597677 175.108532 
L 182.303267 181.909884 
L 165.746486 198.056174 
L 157.586407 205.620928 
L 149.572617 212.117159 
L 141.75463 216.485638 
L 126.897754 227.484753 
L 119.950655 231.534551 
L 113.382368 223.953818 
L 107.233471 216.600277 
L 101.541956 210.695995 
L 96.342985 209.487371 
L 78.743444 207.822703 
L 75.616098 207.450991 
L 75.874499 206.74071 
L 76.784023 205.302699 
L 78.33905 202.226452 
L 80.529973 198.158819 
L 83.343255 193.345789 
L 86.761517 188.0644 
L 90.763639 182.660033 
L 100.417106 171.978994 
L 106.00881 164.51429 
L 112.06546 151.222211 
L 118.549639 137.899863 
L 125.421284 132.13616 
L 132.637943 128.89124 
L 147.926099 122.329002 
L 155.903143 117.31703 
L 164.036878 113.765763 
L 172.277051 109.022736 
L 188.872731 101.498639 
L 197.125707 96.195796 
L 205.280693 90.799218 
L 213.287305 85.725092 
L 221.096076 81.145167 
L 228.658764 77.181375 
L 235.928643 73.967157 
L 242.8608 71.387211 
L 249.412406 69.455355 
L 261.214659 66.980293 
L 266.392389 64.402342 
L 275.141309 57.401638 
L 278.658446 55.782521 
L 281.573868 54.622585 
L 283.869563 55.178916 
L 285.531346 56.507548 
L 286.916094 58.293517 
L 286.630502 59.998174 
L 285.693943 62.539687 
L 284.112201 66.025908 
L 281.895049 69.288554 
L 279.056186 71.016819 
L 275.61315 75.472113 
L 271.587212 93.342854 
L 267.003247 109.134782 
L 261.889574 120.289754 
L 256.277787 128.607602 
L 250.202556 134.523711 
L 243.701416 139.592868 
L 236.814532 143.966125 
L 229.584451 147.728559 
L 222.055844 150.860978 
L 206.290658 157.115755 
L 198.15148 160.647319 
L 181.611069 168.260921 
L 173.312026 170.900018 
L 165.062118 173.001541 
L 156.912314 177.011599 
L 148.912965 183.574006 
L 141.113493 187.044235 
L 133.562085 190.893429 
L 126.305394 193.098675 
L 119.388254 196.336799 
L 112.853399 201.579277 
L 106.741205 208.734767 
L 101.089432 213.122703 
L 95.932999 218.241574 
L 91.303764 214.687068 
L 87.230325 209.449924 
L 83.737851 205.588369 
L 80.847918 204.466866 
L 75.612697 203.664693 
L 75.925475 202.782966 
L 76.88906 201.328779 
L 78.4975 198.153705 
L 83.605271 189.743367 
L 87.073045 184.571205 
L 91.122754 177.454322 
L 95.729379 167.899235 
L 106.49627 143.493954 
L 112.590015 133.543461 
L 119.108047 129.324843 
L 126.010097 126.086154 
L 133.253521 122.874969 
L 140.793569 118.91346 
L 148.583658 114.504304 
L 156.575657 110.292672 
L 164.720192 107.101979 
L 172.966944 103.052091 
L 172.966944 103.052091 
" clip-path="url(#p93a13118b3)" style="fill: none; stroke: #3152a1; stroke-width: 1.5; stroke-linecap: square"/>
   </g>
   <g id="line2d_33">
    <path d="M 52.556094 141.339288 
L 298.076094 141.339288 
" clip-path="url(#p93a13118b3)" style="fill: none; stroke: #000000; stroke-width: 0.4; stroke-linecap: square"/>
   </g>
   <g id="line2d_34">
    <path d="M 181.264962 264.774125 
L 181.264962 20.838125 
" clip-path="url(#p93a13118b3)" style="fill: none; stroke: #000000; stroke-width: 0.4; stroke-linecap: square"/>
   </g>
   <g id="line2d_35">
    <path d="M 52.556094 31.926125 
L 298.076094 31.926125 
" clip-path="url(#p93a13118b3)" style="fill: none; stroke: #3152a1; stroke-linecap: square"/>
   </g>
   <g id="line2d_36">
    <path d="M 52.556094 253.686125 
L 298.076094 253.686125 
" clip-path="url(#p93a13118b3)" style="fill: none; stroke: #3152a1; stroke-linecap: square"/>
   </g>
   <g id="patch_3">
    <path d="M 52.556094 264.774125 
L 52.556094 20.838125 
" style="fill: none; stroke: #000000; stroke-width: 0.8; stroke-linejoin: miter; stroke-linecap: square"/>
   </g>
   <g id="patch_4">
    <path d="M 298.076094 264.774125 
L 298.076094 20.838125 
" style="fill: none; stroke: #000000; stroke-width: 0.8; stroke-linejoin: miter; stroke-linecap: square"/>
   </g>
   <g id="patch_5">
    <path d="M 52.556094 264.774125 
L 298.076094 264.774125 
" style="fill: none; stroke: #000000; stroke-width: 0.8; stroke-linejoin: miter; stroke-linecap: square"/>
   </g>
   <g id="patch_6">
    <path d="M 52.556094 20.838125 
L 298.076094 20.838125 
" style="fill: none; stroke: #000000; stroke-width: 0.8; stroke-linejoin: miter; stroke-linecap: square"/>
   </g>
   <g id="text_17">
    <!-- Specimen : Greifenhagen_M3 -->
    <g transform="translate(109.029922 14.838125) scale(0.11 -0.11)">
     <defs>
      <path id="TimesNewRomanPSMT-3a" d="M 903 2950 
Q 1047 2950 1148 2848 
Q 1250 2747 1250 2603 
Q 1250 2459 1148 2357 
Q 1047 2256 903 2256 
Q 759 2256 657 2357 
Q 556 2459 556 2603 
Q 556 2747 657 2848 
Q 759 2950 903 2950 
z
M 897 609 
Q 1044 609 1145 506 
Q 1247 403 1247 259 
Q 1247 116 1144 14 
Q 1041 -88 897 -88 
Q 753 -88 651 14 
Q 550 116 550 259 
Q 550 403 651 506 
Q 753 609 897 609 
z
" transform="scale(0.015625)"/>
      <path id="TimesNewRomanPSMT-47" d="M 3928 4334 
L 4038 2997 
L 3928 2997 
Q 3763 3497 3500 3750 
Q 3122 4116 2528 4116 
Q 1719 4116 1297 3475 
Q 944 2934 944 2188 
Q 944 1581 1178 1081 
Q 1413 581 1792 348 
Q 2172 116 2572 116 
Q 2806 116 3025 175 
Q 3244 234 3447 350 
L 3447 1575 
Q 3447 1894 3398 1992 
Q 3350 2091 3248 2142 
Q 3147 2194 2891 2194 
L 2891 2313 
L 4531 2313 
L 4531 2194 
L 4453 2194 
Q 4209 2194 4119 2031 
Q 4056 1916 4056 1575 
L 4056 278 
Q 3697 84 3347 -6 
Q 2997 -97 2569 -97 
Q 1341 -97 703 691 
Q 225 1281 225 2053 
Q 225 2613 494 3125 
Q 813 3734 1369 4063 
Q 1834 4334 2469 4334 
Q 2700 4334 2889 4296 
Q 3078 4259 3425 4131 
Q 3600 4066 3659 4066 
Q 3719 4066 3761 4120 
Q 3803 4175 3813 4334 
L 3928 4334 
z
" transform="scale(0.015625)"/>
      <path id="TimesNewRomanPSMT-66" d="M 1319 2638 
L 1319 756 
Q 1319 356 1406 250 
Q 1522 113 1716 113 
L 1975 113 
L 1975 0 
L 266 0 
L 266 113 
L 394 113 
Q 519 113 622 175 
Q 725 238 764 344 
Q 803 450 803 756 
L 803 2638 
L 247 2638 
L 247 2863 
L 803 2863 
L 803 3050 
Q 803 3478 940 3775 
Q 1078 4072 1361 4255 
Q 1644 4438 1997 4438 
Q 2325 4438 2600 4225 
Q 2781 4084 2781 3909 
Q 2781 3816 2700 3733 
Q 2619 3650 2525 3650 
Q 2453 3650 2373 3701 
Q 2294 3753 2178 3923 
Q 2063 4094 1966 4153 
Q 1869 4213 1750 4213 
Q 1606 4213 1506 4136 
Q 1406 4059 1362 3898 
Q 1319 3738 1319 3069 
L 1319 2863 
L 2056 2863 
L 2056 2638 
L 1319 2638 
z
" transform="scale(0.015625)"/>
      <path id="TimesNewRomanPSMT-67" d="M 966 1044 
Q 703 1172 562 1401 
Q 422 1631 422 1909 
Q 422 2334 742 2640 
Q 1063 2947 1563 2947 
Q 1972 2947 2272 2747 
L 2878 2747 
Q 3013 2747 3034 2739 
Q 3056 2731 3066 2713 
Q 3084 2684 3084 2613 
Q 3084 2531 3069 2500 
Q 3059 2484 3036 2475 
Q 3013 2466 2878 2466 
L 2506 2466 
Q 2681 2241 2681 1891 
Q 2681 1491 2375 1206 
Q 2069 922 1553 922 
Q 1341 922 1119 984 
Q 981 866 932 777 
Q 884 688 884 625 
Q 884 572 936 522 
Q 988 472 1138 450 
Q 1225 438 1575 428 
Q 2219 413 2409 384 
Q 2700 344 2873 169 
Q 3047 -6 3047 -263 
Q 3047 -616 2716 -925 
Q 2228 -1381 1444 -1381 
Q 841 -1381 425 -1109 
Q 191 -953 191 -784 
Q 191 -709 225 -634 
Q 278 -519 444 -313 
Q 466 -284 763 25 
Q 600 122 533 198 
Q 466 275 466 372 
Q 466 481 555 628 
Q 644 775 966 1044 
z
M 1509 2797 
Q 1278 2797 1122 2612 
Q 966 2428 966 2047 
Q 966 1553 1178 1281 
Q 1341 1075 1591 1075 
Q 1828 1075 1981 1253 
Q 2134 1431 2134 1813 
Q 2134 2309 1919 2591 
Q 1759 2797 1509 2797 
z
M 934 0 
Q 788 -159 713 -296 
Q 638 -434 638 -550 
Q 638 -700 819 -813 
Q 1131 -1006 1722 -1006 
Q 2284 -1006 2551 -807 
Q 2819 -609 2819 -384 
Q 2819 -222 2659 -153 
Q 2497 -84 2016 -72 
Q 1313 -53 934 0 
z
" transform="scale(0.015625)"/>
      <path id="TimesNewRomanPSMT-5f" d="M 3256 -1381 
L -53 -1381 
L -53 -1119 
L 3256 -1119 
L 3256 -1381 
z
" transform="scale(0.015625)"/>
      <path id="TimesNewRomanPSMT-4d" d="M 2619 0 
L 981 3566 
L 981 734 
Q 981 344 1066 247 
Q 1181 116 1431 116 
L 1581 116 
L 1581 0 
L 106 0 
L 106 116 
L 256 116 
Q 525 116 638 278 
Q 706 378 706 734 
L 706 3503 
Q 706 3784 644 3909 
Q 600 4000 483 4061 
Q 366 4122 106 4122 
L 106 4238 
L 1306 4238 
L 2844 922 
L 4356 4238 
L 5556 4238 
L 5556 4122 
L 5409 4122 
Q 5138 4122 5025 3959 
Q 4956 3859 4956 3503 
L 4956 734 
Q 4956 344 5044 247 
Q 5159 116 5409 116 
L 5556 116 
L 5556 0 
L 3756 0 
L 3756 116 
L 3906 116 
Q 4178 116 4288 278 
Q 4356 378 4356 734 
L 4356 3566 
L 2722 0 
L 2619 0 
z
" transform="scale(0.015625)"/>
      <path id="TimesNewRomanPSMT-33" d="M 325 3431 
Q 506 3859 782 4092 
Q 1059 4325 1472 4325 
Q 1981 4325 2253 3994 
Q 2459 3747 2459 3466 
Q 2459 3003 1878 2509 
Q 2269 2356 2469 2072 
Q 2669 1788 2669 1403 
Q 2669 853 2319 450 
Q 1863 -75 997 -75 
Q 569 -75 414 31 
Q 259 138 259 259 
Q 259 350 332 419 
Q 406 488 509 488 
Q 588 488 669 463 
Q 722 447 909 348 
Q 1097 250 1169 231 
Q 1284 197 1416 197 
Q 1734 197 1970 444 
Q 2206 691 2206 1028 
Q 2206 1275 2097 1509 
Q 2016 1684 1919 1775 
Q 1784 1900 1550 2001 
Q 1316 2103 1072 2103 
L 972 2103 
L 972 2197 
Q 1219 2228 1467 2375 
Q 1716 2522 1828 2728 
Q 1941 2934 1941 3181 
Q 1941 3503 1739 3701 
Q 1538 3900 1238 3900 
Q 753 3900 428 3381 
L 325 3431 
z
" transform="scale(0.015625)"/>
     </defs>
     <use xlink:href="#TimesNewRomanPSMT-53"/>
     <use xlink:href="#TimesNewRomanPSMT-70" x="55.615234"/>
     <use xlink:href="#TimesNewRomanPSMT-65" x="105.615234"/>
     <use xlink:href="#TimesNewRomanPSMT-63" x="150"/>
     <use xlink:href="#TimesNewRomanPSMT-69" x="194.384766"/>
     <use xlink:href="#TimesNewRomanPSMT-6d" x="222.167969"/>
     <use xlink:href="#TimesNewRomanPSMT-65" x="299.951172"/>
     <use xlink:href="#TimesNewRomanPSMT-6e" x="344.335938"/>
     <use xlink:href="#TimesNewRomanPSMT-20" x="394.335938"/>
     <use xlink:href="#TimesNewRomanPSMT-3a" x="419.335938"/>
     <use xlink:href="#TimesNewRomanPSMT-20" x="447.119141"/>
     <use xlink:href="#TimesNewRomanPSMT-47" x="472.119141"/>
     <use xlink:href="#TimesNewRomanPSMT-72" x="544.335938"/>
     <use xlink:href="#TimesNewRomanPSMT-65" x="577.636719"/>
     <use xlink:href="#TimesNewRomanPSMT-69" x="622.021484"/>
     <use xlink:href="#TimesNewRomanPSMT-66" x="649.804688"/>
     <use xlink:href="#TimesNewRomanPSMT-65" x="683.105469"/>
     <use xlink:href="#TimesNewRomanPSMT-6e" x="727.490234"/>
     <use xlink:href="#TimesNewRomanPSMT-68" x="777.490234"/>
     <use xlink:href="#TimesNewRomanPSMT-61" x="827.490234"/>
     <use xlink:href="#TimesNewRomanPSMT-67" x="871.875"/>
     <use xlink:href="#TimesNewRomanPSMT-65" x="921.875"/>
     <use xlink:href="#TimesNewRomanPSMT-6e" x="966.259766"/>
     <use xlink:href="#TimesNewRomanPSMT-5f" x="1016.259766"/>
     <use xlink:href="#TimesNewRomanPSMT-4d" x="1066.259766"/>
     <use xlink:href="#TimesNewRomanPSMT-33" x="1155.175781"/>
    </g>
   </g>
   <g id="legend_1">
    <g id="patch_7">
     <path d="M 58.970194 78.473371 
L 154.915394 78.473371 
Q 156.747994 78.473371 156.747994 76.640771 
L 156.747994 51.645825 
Q 156.747994 49.813225 154.915394 49.813225 
L 58.970194 49.813225 
Q 57.137594 49.813225 57.137594 51.645825 
L 57.137594 76.640771 
Q 57.137594 78.473371 58.970194 78.473371 
z
" style="fill: #ffffff; opacity: 0.8; stroke: #cccccc; stroke-linejoin: miter"/>
    </g>
    <g id="line2d_37">
     <path d="M 60.802794 56.685475 
L 69.965794 56.685475 
L 79.128794 56.685475 
" style="fill: none; stroke-dasharray: 4.07,1.76; stroke-dashoffset: 0; stroke: #433f40; stroke-width: 1.1"/>
    </g>
    <g id="text_18">
     <!-- Experimental Test -->
     <g transform="translate(86.459194 59.892525) scale(0.09163 -0.09163)">
      <defs>
       <path id="TimesNewRomanPSMT-45" d="M 1338 4006 
L 1338 2331 
L 2269 2331 
Q 2631 2331 2753 2441 
Q 2916 2584 2934 2947 
L 3050 2947 
L 3050 1472 
L 2934 1472 
Q 2891 1781 2847 1869 
Q 2791 1978 2662 2040 
Q 2534 2103 2269 2103 
L 1338 2103 
L 1338 706 
Q 1338 425 1363 364 
Q 1388 303 1450 267 
Q 1513 231 1688 231 
L 2406 231 
Q 2766 231 2928 281 
Q 3091 331 3241 478 
Q 3434 672 3638 1063 
L 3763 1063 
L 3397 0 
L 131 0 
L 131 116 
L 281 116 
Q 431 116 566 188 
Q 666 238 702 338 
Q 738 438 738 747 
L 738 3500 
Q 738 3903 656 3997 
Q 544 4122 281 4122 
L 131 4122 
L 131 4238 
L 3397 4238 
L 3444 3309 
L 3322 3309 
Q 3256 3644 3176 3769 
Q 3097 3894 2941 3959 
Q 2816 4006 2500 4006 
L 1338 4006 
z
" transform="scale(0.015625)"/>
       <path id="TimesNewRomanPSMT-78" d="M 84 2863 
L 1431 2863 
L 1431 2747 
Q 1303 2747 1251 2703 
Q 1200 2659 1200 2588 
Q 1200 2513 1309 2356 
Q 1344 2306 1413 2200 
L 1616 1875 
L 1850 2200 
Q 2075 2509 2075 2591 
Q 2075 2656 2022 2701 
Q 1969 2747 1850 2747 
L 1850 2863 
L 2819 2863 
L 2819 2747 
Q 2666 2738 2553 2663 
Q 2400 2556 2134 2200 
L 1744 1678 
L 2456 653 
Q 2719 275 2831 198 
Q 2944 122 3122 113 
L 3122 0 
L 1772 0 
L 1772 113 
Q 1913 113 1991 175 
Q 2050 219 2050 291 
Q 2050 363 1850 653 
L 1431 1266 
L 972 653 
Q 759 369 759 316 
Q 759 241 829 180 
Q 900 119 1041 113 
L 1041 0 
L 106 0 
L 106 113 
Q 219 128 303 191 
Q 422 281 703 653 
L 1303 1450 
L 759 2238 
Q 528 2575 401 2661 
Q 275 2747 84 2747 
L 84 2863 
z
" transform="scale(0.015625)"/>
       <path id="TimesNewRomanPSMT-54" d="M 3703 4238 
L 3750 3244 
L 3631 3244 
Q 3597 3506 3538 3619 
Q 3441 3800 3280 3886 
Q 3119 3972 2856 3972 
L 2259 3972 
L 2259 734 
Q 2259 344 2344 247 
Q 2463 116 2709 116 
L 2856 116 
L 2856 0 
L 1059 0 
L 1059 116 
L 1209 116 
Q 1478 116 1591 278 
Q 1659 378 1659 734 
L 1659 3972 
L 1150 3972 
Q 853 3972 728 3928 
Q 566 3869 450 3700 
Q 334 3531 313 3244 
L 194 3244 
L 244 4238 
L 3703 4238 
z
" transform="scale(0.015625)"/>
      </defs>
      <use xlink:href="#TimesNewRomanPSMT-45"/>
      <use xlink:href="#TimesNewRomanPSMT-78" x="61.083984"/>
      <use xlink:href="#TimesNewRomanPSMT-70" x="111.083984"/>
      <use xlink:href="#TimesNewRomanPSMT-65" x="161.083984"/>
      <use xlink:href="#TimesNewRomanPSMT-72" x="205.46875"/>
      <use xlink:href="#TimesNewRomanPSMT-69" x="238.769531"/>
      <use xlink:href="#TimesNewRomanPSMT-6d" x="266.552734"/>
      <use xlink:href="#TimesNewRomanPSMT-65" x="344.335938"/>
      <use xlink:href="#TimesNewRomanPSMT-6e" x="388.720703"/>
      <use xlink:href="#TimesNewRomanPSMT-74" x="438.720703"/>
      <use xlink:href="#TimesNewRomanPSMT-61" x="466.503906"/>
      <use xlink:href="#TimesNewRomanPSMT-6c" x="510.888672"/>
      <use xlink:href="#TimesNewRomanPSMT-20" x="538.671875"/>
      <use xlink:href="#TimesNewRomanPSMT-54" x="561.921875"/>
      <use xlink:href="#TimesNewRomanPSMT-65" x="616.005859"/>
      <use xlink:href="#TimesNewRomanPSMT-73" x="660.390625"/>
      <use xlink:href="#TimesNewRomanPSMT-74" x="699.306641"/>
     </g>
    </g>
    <g id="line2d_38">
     <path d="M 60.802794 69.641098 
L 69.965794 69.641098 
L 79.128794 69.641098 
" style="fill: none; stroke: #3152a1; stroke-width: 1.5; stroke-linecap: square"/>
    </g>
    <g id="text_19">
     <!-- Numerical Test -->
     <g transform="translate(86.459194 72.848148) scale(0.09163 -0.09163)">
      <defs>
       <path id="TimesNewRomanPSMT-75" d="M 2709 2863 
L 2709 1128 
Q 2709 631 2732 520 
Q 2756 409 2807 365 
Q 2859 322 2928 322 
Q 3025 322 3147 375 
L 3191 266 
L 2334 -88 
L 2194 -88 
L 2194 519 
Q 1825 119 1631 15 
Q 1438 -88 1222 -88 
Q 981 -88 804 51 
Q 628 191 559 409 
Q 491 628 491 1028 
L 491 2306 
Q 491 2509 447 2587 
Q 403 2666 317 2708 
Q 231 2750 6 2747 
L 6 2863 
L 1009 2863 
L 1009 947 
Q 1009 547 1148 422 
Q 1288 297 1484 297 
Q 1619 297 1789 381 
Q 1959 466 2194 703 
L 2194 2325 
Q 2194 2569 2105 2655 
Q 2016 2741 1734 2747 
L 1734 2863 
L 2709 2863 
z
" transform="scale(0.015625)"/>
      </defs>
      <use xlink:href="#TimesNewRomanPSMT-4e"/>
      <use xlink:href="#TimesNewRomanPSMT-75" x="72.216797"/>
      <use xlink:href="#TimesNewRomanPSMT-6d" x="122.216797"/>
      <use xlink:href="#TimesNewRomanPSMT-65" x="200"/>
      <use xlink:href="#TimesNewRomanPSMT-72" x="244.384766"/>
      <use xlink:href="#TimesNewRomanPSMT-69" x="277.685547"/>
      <use xlink:href="#TimesNewRomanPSMT-63" x="305.46875"/>
      <use xlink:href="#TimesNewRomanPSMT-61" x="349.853516"/>
      <use xlink:href="#TimesNewRomanPSMT-6c" x="394.238281"/>
      <use xlink:href="#TimesNewRomanPSMT-20" x="422.021484"/>
      <use xlink:href="#TimesNewRomanPSMT-54" x="445.271484"/>
      <use xlink:href="#TimesNewRomanPSMT-65" x="499.355469"/>
      <use xlink:href="#TimesNewRomanPSMT-73" x="543.740234"/>
      <use xlink:href="#TimesNewRomanPSMT-74" x="582.65625"/>
     </g>
    </g>
   </g>
  </g>
 </g>
 <defs>
  <clipPath id="p93a13118b3">
   <rect x="52.556094" y="20.838125" width="245.52" height="243.936"/>
  </clipPath>
 </defs>
</svg>
