<?xml version="1.0" encoding="utf-8" standalone="no"?>
<!DOCTYPE svg PUBLIC "-//W3C//DTD SVG 1.1//EN"
  "http://www.w3.org/Graphics/SVG/1.1/DTD/svg11.dtd">
<svg xmlns:xlink="http://www.w3.org/1999/xlink" width="279.812813pt" height="293.468437pt" viewBox="0 0 279.812813 293.468437" xmlns="http://www.w3.org/2000/svg" version="1.1">
 <metadata>
  <rdf:RDF xmlns:dc="http://purl.org/dc/elements/1.1/" xmlns:cc="http://creativecommons.org/ns#" xmlns:rdf="http://www.w3.org/1999/02/22-rdf-syntax-ns#">
   <cc:Work>
    <dc:type rdf:resource="http://purl.org/dc/dcmitype/StillImage"/>
    <dc:date>2024-12-31T15:45:57.735432</dc:date>
    <dc:format>image/svg+xml</dc:format>
    <dc:creator>
     <cc:Agent>
      <dc:title>Matplotlib v3.8.0, https://matplotlib.org/</dc:title>
     </cc:Agent>
    </dc:creator>
   </cc:Work>
  </rdf:RDF>
 </metadata>
 <defs>
  <style type="text/css">*{stroke-linejoin: round; stroke-linecap: butt}</style>
 </defs>
 <g id="figure_1">
  <g id="patch_1">
   <path d="M 0 293.468437 
L 279.812813 293.468437 
L 279.812813 0 
L 0 0 
z
" style="fill: #ffffff"/>
  </g>
  <g id="axes_1">
   <g id="patch_2">
    <path d="M 49.432813 257.098125 
L 272.612813 257.098125 
L 272.612813 20.838125 
L 49.432813 20.838125 
z
" style="fill: #ffffff"/>
   </g>
   <g id="matplotlib.axis_1">
    <g id="xtick_1">
     <g id="line2d_1">
      <path d="M 59.577196 257.098125 
L 59.577196 20.838125 
" clip-path="url(#p2f0bea23a1)" style="fill: none; stroke-dasharray: 0.8,1.32; stroke-dashoffset: 0; stroke: #b0b0b0; stroke-width: 0.8"/>
     </g>
     <g id="line2d_2">
      <defs>
       <path id="m9389e8aef1" d="M 0 0 
L 0 3.5 
" style="stroke: #000000; stroke-width: 0.8"/>
      </defs>
      <g>
       <use xlink:href="#m9389e8aef1" x="59.577196" y="257.098125" style="stroke: #000000; stroke-width: 0.8"/>
      </g>
     </g>
     <g id="text_1">
      <!-- −60 -->
      <g transform="translate(51.270946 271.085625) scale(0.1 -0.1)">
       <defs>
        <path id="Cambria-2212" d="M 397 1613 
L 397 2047 
L 3147 2047 
L 3147 1613 
L 397 1613 
z
" transform="scale(0.015625)"/>
        <path id="Cambria-36" d="M 2847 4144 
L 2847 3991 
Q 2366 3991 1994 3784 
Q 1622 3578 1376 3178 
Q 1131 2778 1031 2228 
L 1063 2216 
Q 1325 2403 1579 2490 
Q 1834 2578 2131 2578 
Q 2484 2578 2732 2423 
Q 2981 2269 3106 1989 
Q 3231 1709 3231 1334 
Q 3231 928 3075 617 
Q 2919 306 2592 128 
Q 2266 -50 1788 -50 
Q 1103 -50 754 375 
Q 406 800 406 1628 
Q 406 2184 581 2668 
Q 756 3153 1078 3514 
Q 1400 3875 1825 4083 
Q 2250 4291 2719 4316 
L 2847 4144 
z
M 1916 2250 
Q 1763 2250 1620 2215 
Q 1478 2181 1353 2115 
Q 1228 2050 1109 1950 
Q 1072 1916 1053 1878 
Q 1022 1819 1012 1731 
Q 1003 1644 1003 1438 
Q 1003 841 1203 528 
Q 1403 216 1809 216 
Q 2044 216 2203 297 
Q 2363 378 2461 520 
Q 2559 663 2601 855 
Q 2644 1047 2644 1272 
Q 2644 1734 2453 1992 
Q 2263 2250 1916 2250 
z
" transform="scale(0.015625)"/>
        <path id="Cambria-30" d="M 1738 -50 
Q 1063 -50 733 481 
Q 403 1013 403 2094 
Q 403 2669 504 3087 
Q 606 3506 789 3779 
Q 972 4053 1228 4184 
Q 1484 4316 1788 4316 
Q 2472 4316 2806 3787 
Q 3141 3259 3141 2191 
Q 3141 1084 2783 517 
Q 2425 -50 1738 -50 
z
M 1013 2188 
Q 1013 1169 1202 692 
Q 1391 216 1788 216 
Q 2166 216 2348 664 
Q 2531 1113 2531 2053 
Q 2531 2772 2437 3217 
Q 2344 3663 2176 3856 
Q 2009 4050 1772 4050 
Q 1556 4050 1411 3922 
Q 1266 3794 1177 3553 
Q 1088 3313 1050 2967 
Q 1013 2622 1013 2188 
z
" transform="scale(0.015625)"/>
       </defs>
       <use xlink:href="#Cambria-2212"/>
       <use xlink:href="#Cambria-36" x="55.371094"/>
       <use xlink:href="#Cambria-30" x="110.742188"/>
      </g>
     </g>
    </g>
    <g id="xtick_2">
     <g id="line2d_3">
      <path d="M 93.392617 257.098125 
L 93.392617 20.838125 
" clip-path="url(#p2f0bea23a1)" style="fill: none; stroke-dasharray: 0.8,1.32; stroke-dashoffset: 0; stroke: #b0b0b0; stroke-width: 0.8"/>
     </g>
     <g id="line2d_4">
      <g>
       <use xlink:href="#m9389e8aef1" x="93.392617" y="257.098125" style="stroke: #000000; stroke-width: 0.8"/>
      </g>
     </g>
     <g id="text_2">
      <!-- −40 -->
      <g transform="translate(85.086367 271.085625) scale(0.1 -0.1)">
       <defs>
        <path id="Cambria-34" d="M 1613 153 
Q 1806 203 1872 264 
Q 1938 325 1958 437 
Q 1978 550 1978 781 
L 1978 1294 
L 241 1294 
L 241 1528 
L 2069 4288 
L 2516 4288 
L 2516 1597 
L 2581 1597 
Q 2763 1597 2841 1623 
Q 2919 1650 2970 1717 
Q 3022 1784 3066 1938 
L 3303 1938 
L 3266 1294 
L 2516 1294 
L 2516 781 
Q 2516 572 2530 475 
Q 2544 378 2576 322 
Q 2609 266 2673 228 
Q 2738 191 2881 153 
L 2881 0 
L 1613 0 
L 1613 153 
z
M 756 1597 
L 1978 1597 
L 1978 2375 
Q 1978 2669 1987 3033 
Q 1997 3397 2009 3581 
L 1978 3581 
L 756 1641 
L 756 1597 
z
" transform="scale(0.015625)"/>
       </defs>
       <use xlink:href="#Cambria-2212"/>
       <use xlink:href="#Cambria-34" x="55.371094"/>
       <use xlink:href="#Cambria-30" x="110.742188"/>
      </g>
     </g>
    </g>
    <g id="xtick_3">
     <g id="line2d_5">
      <path d="M 127.208039 257.098125 
L 127.208039 20.838125 
" clip-path="url(#p2f0bea23a1)" style="fill: none; stroke-dasharray: 0.8,1.32; stroke-dashoffset: 0; stroke: #b0b0b0; stroke-width: 0.8"/>
     </g>
     <g id="line2d_6">
      <g>
       <use xlink:href="#m9389e8aef1" x="127.208039" y="257.098125" style="stroke: #000000; stroke-width: 0.8"/>
      </g>
     </g>
     <g id="text_3">
      <!-- −20 -->
      <g transform="translate(118.901789 271.085625) scale(0.1 -0.1)">
       <defs>
        <path id="Cambria-32" d="M 2194 500 
Q 2347 500 2440 519 
Q 2534 538 2590 581 
Q 2647 625 2680 695 
Q 2713 766 2763 913 
L 3028 913 
L 2975 0 
L 403 0 
L 403 150 
Q 538 478 766 822 
Q 994 1166 1413 1631 
Q 1775 2031 1934 2238 
Q 2109 2463 2195 2627 
Q 2281 2791 2318 2936 
Q 2356 3081 2356 3228 
Q 2356 3463 2281 3642 
Q 2206 3822 2051 3925 
Q 1897 4028 1663 4028 
Q 1078 4028 875 3378 
L 497 3378 
L 497 3978 
Q 875 4156 1204 4236 
Q 1534 4316 1797 4316 
Q 2378 4316 2675 4061 
Q 2972 3806 2972 3322 
Q 2972 3156 2939 3017 
Q 2906 2878 2836 2742 
Q 2766 2606 2647 2450 
Q 2528 2294 2384 2133 
Q 2241 1972 1888 1597 
Q 1294 969 1016 500 
L 2194 500 
z
" transform="scale(0.015625)"/>
       </defs>
       <use xlink:href="#Cambria-2212"/>
       <use xlink:href="#Cambria-32" x="55.371094"/>
       <use xlink:href="#Cambria-30" x="110.742188"/>
      </g>
     </g>
    </g>
    <g id="xtick_4">
     <g id="line2d_7">
      <path d="M 161.02346 257.098125 
L 161.02346 20.838125 
" clip-path="url(#p2f0bea23a1)" style="fill: none; stroke-dasharray: 0.8,1.32; stroke-dashoffset: 0; stroke: #b0b0b0; stroke-width: 0.8"/>
     </g>
     <g id="line2d_8">
      <g>
       <use xlink:href="#m9389e8aef1" x="161.02346" y="257.098125" style="stroke: #000000; stroke-width: 0.8"/>
      </g>
     </g>
     <g id="text_4">
      <!-- 0 -->
      <g transform="translate(158.25471 271.085625) scale(0.1 -0.1)">
       <use xlink:href="#Cambria-30"/>
      </g>
     </g>
    </g>
    <g id="xtick_5">
     <g id="line2d_9">
      <path d="M 194.838882 257.098125 
L 194.838882 20.838125 
" clip-path="url(#p2f0bea23a1)" style="fill: none; stroke-dasharray: 0.8,1.32; stroke-dashoffset: 0; stroke: #b0b0b0; stroke-width: 0.8"/>
     </g>
     <g id="line2d_10">
      <g>
       <use xlink:href="#m9389e8aef1" x="194.838882" y="257.098125" style="stroke: #000000; stroke-width: 0.8"/>
      </g>
     </g>
     <g id="text_5">
      <!-- 20 -->
      <g transform="translate(189.301382 271.085625) scale(0.1 -0.1)">
       <use xlink:href="#Cambria-32"/>
       <use xlink:href="#Cambria-30" x="55.371094"/>
      </g>
     </g>
    </g>
    <g id="xtick_6">
     <g id="line2d_11">
      <path d="M 228.654303 257.098125 
L 228.654303 20.838125 
" clip-path="url(#p2f0bea23a1)" style="fill: none; stroke-dasharray: 0.8,1.32; stroke-dashoffset: 0; stroke: #b0b0b0; stroke-width: 0.8"/>
     </g>
     <g id="line2d_12">
      <g>
       <use xlink:href="#m9389e8aef1" x="228.654303" y="257.098125" style="stroke: #000000; stroke-width: 0.8"/>
      </g>
     </g>
     <g id="text_6">
      <!-- 40 -->
      <g transform="translate(223.116803 271.085625) scale(0.1 -0.1)">
       <use xlink:href="#Cambria-34"/>
       <use xlink:href="#Cambria-30" x="55.371094"/>
      </g>
     </g>
    </g>
    <g id="xtick_7">
     <g id="line2d_13">
      <path d="M 262.469725 257.098125 
L 262.469725 20.838125 
" clip-path="url(#p2f0bea23a1)" style="fill: none; stroke-dasharray: 0.8,1.32; stroke-dashoffset: 0; stroke: #b0b0b0; stroke-width: 0.8"/>
     </g>
     <g id="line2d_14">
      <g>
       <use xlink:href="#m9389e8aef1" x="262.469725" y="257.098125" style="stroke: #000000; stroke-width: 0.8"/>
      </g>
     </g>
     <g id="text_7">
      <!-- 60 -->
      <g transform="translate(256.932225 271.085625) scale(0.1 -0.1)">
       <use xlink:href="#Cambria-36"/>
       <use xlink:href="#Cambria-30" x="55.371094"/>
      </g>
     </g>
    </g>
    <g id="text_8">
     <!-- Displacement (mm) -->
     <g transform="translate(121.173594 284.129375) scale(0.1 -0.1)">
      <defs>
       <path id="TimesNewRomanPSMT-44" d="M 109 0 
L 109 116 
L 269 116 
Q 538 116 650 288 
Q 719 391 719 750 
L 719 3488 
Q 719 3884 631 3984 
Q 509 4122 269 4122 
L 109 4122 
L 109 4238 
L 1834 4238 
Q 2784 4238 3279 4022 
Q 3775 3806 4076 3303 
Q 4378 2800 4378 2141 
Q 4378 1256 3841 663 
Q 3238 0 2003 0 
L 109 0 
z
M 1319 306 
Q 1716 219 1984 219 
Q 2709 219 3187 728 
Q 3666 1238 3666 2109 
Q 3666 2988 3187 3494 
Q 2709 4000 1959 4000 
Q 1678 4000 1319 3909 
L 1319 306 
z
" transform="scale(0.015625)"/>
       <path id="TimesNewRomanPSMT-69" d="M 928 4444 
Q 1059 4444 1151 4351 
Q 1244 4259 1244 4128 
Q 1244 3997 1151 3903 
Q 1059 3809 928 3809 
Q 797 3809 703 3903 
Q 609 3997 609 4128 
Q 609 4259 701 4351 
Q 794 4444 928 4444 
z
M 1188 2947 
L 1188 647 
Q 1188 378 1227 289 
Q 1266 200 1342 156 
Q 1419 113 1622 113 
L 1622 0 
L 231 0 
L 231 113 
Q 441 113 512 153 
Q 584 194 626 287 
Q 669 381 669 647 
L 669 1750 
Q 669 2216 641 2353 
Q 619 2453 572 2492 
Q 525 2531 444 2531 
Q 356 2531 231 2484 
L 188 2597 
L 1050 2947 
L 1188 2947 
z
" transform="scale(0.015625)"/>
       <path id="TimesNewRomanPSMT-73" d="M 2050 2947 
L 2050 1972 
L 1947 1972 
Q 1828 2431 1642 2597 
Q 1456 2763 1169 2763 
Q 950 2763 815 2647 
Q 681 2531 681 2391 
Q 681 2216 781 2091 
Q 878 1963 1175 1819 
L 1631 1597 
Q 2266 1288 2266 781 
Q 2266 391 1970 151 
Q 1675 -88 1309 -88 
Q 1047 -88 709 6 
Q 606 38 541 38 
Q 469 38 428 -44 
L 325 -44 
L 325 978 
L 428 978 
Q 516 541 762 319 
Q 1009 97 1316 97 
Q 1531 97 1667 223 
Q 1803 350 1803 528 
Q 1803 744 1651 891 
Q 1500 1038 1047 1263 
Q 594 1488 453 1669 
Q 313 1847 313 2119 
Q 313 2472 555 2709 
Q 797 2947 1181 2947 
Q 1350 2947 1591 2875 
Q 1750 2828 1803 2828 
Q 1853 2828 1881 2850 
Q 1909 2872 1947 2947 
L 2050 2947 
z
" transform="scale(0.015625)"/>
       <path id="TimesNewRomanPSMT-70" d="M -6 2578 
L 875 2934 
L 994 2934 
L 994 2266 
Q 1216 2644 1439 2795 
Q 1663 2947 1909 2947 
Q 2341 2947 2628 2609 
Q 2981 2197 2981 1534 
Q 2981 794 2556 309 
Q 2206 -88 1675 -88 
Q 1444 -88 1275 -22 
Q 1150 25 994 166 
L 994 -706 
Q 994 -1000 1030 -1079 
Q 1066 -1159 1155 -1206 
Q 1244 -1253 1478 -1253 
L 1478 -1369 
L -22 -1369 
L -22 -1253 
L 56 -1253 
Q 228 -1256 350 -1188 
Q 409 -1153 442 -1076 
Q 475 -1000 475 -688 
L 475 2019 
Q 475 2297 450 2372 
Q 425 2447 370 2484 
Q 316 2522 222 2522 
Q 147 2522 31 2478 
L -6 2578 
z
M 994 2081 
L 994 1013 
Q 994 666 1022 556 
Q 1066 375 1236 237 
Q 1406 100 1666 100 
Q 1978 100 2172 344 
Q 2425 663 2425 1241 
Q 2425 1897 2138 2250 
Q 1938 2494 1663 2494 
Q 1513 2494 1366 2419 
Q 1253 2363 994 2081 
z
" transform="scale(0.015625)"/>
       <path id="TimesNewRomanPSMT-6c" d="M 1184 4444 
L 1184 647 
Q 1184 378 1223 290 
Q 1263 203 1344 158 
Q 1425 113 1647 113 
L 1647 0 
L 244 0 
L 244 113 
Q 441 113 512 153 
Q 584 194 625 287 
Q 666 381 666 647 
L 666 3247 
Q 666 3731 644 3842 
Q 622 3953 573 3993 
Q 525 4034 450 4034 
Q 369 4034 244 3984 
L 191 4094 
L 1044 4444 
L 1184 4444 
z
" transform="scale(0.015625)"/>
       <path id="TimesNewRomanPSMT-61" d="M 1822 413 
Q 1381 72 1269 19 
Q 1100 -59 909 -59 
Q 613 -59 420 144 
Q 228 347 228 678 
Q 228 888 322 1041 
Q 450 1253 767 1440 
Q 1084 1628 1822 1897 
L 1822 2009 
Q 1822 2438 1686 2597 
Q 1550 2756 1291 2756 
Q 1094 2756 978 2650 
Q 859 2544 859 2406 
L 866 2225 
Q 866 2081 792 2003 
Q 719 1925 600 1925 
Q 484 1925 411 2006 
Q 338 2088 338 2228 
Q 338 2497 613 2722 
Q 888 2947 1384 2947 
Q 1766 2947 2009 2819 
Q 2194 2722 2281 2516 
Q 2338 2381 2338 1966 
L 2338 994 
Q 2338 584 2353 492 
Q 2369 400 2405 369 
Q 2441 338 2488 338 
Q 2538 338 2575 359 
Q 2641 400 2828 588 
L 2828 413 
Q 2478 -56 2159 -56 
Q 2006 -56 1915 50 
Q 1825 156 1822 413 
z
M 1822 616 
L 1822 1706 
Q 1350 1519 1213 1441 
Q 966 1303 859 1153 
Q 753 1003 753 825 
Q 753 600 887 451 
Q 1022 303 1197 303 
Q 1434 303 1822 616 
z
" transform="scale(0.015625)"/>
       <path id="TimesNewRomanPSMT-63" d="M 2631 1088 
Q 2516 522 2178 217 
Q 1841 -88 1431 -88 
Q 944 -88 581 321 
Q 219 731 219 1428 
Q 219 2103 620 2525 
Q 1022 2947 1584 2947 
Q 2006 2947 2278 2723 
Q 2550 2500 2550 2259 
Q 2550 2141 2473 2067 
Q 2397 1994 2259 1994 
Q 2075 1994 1981 2113 
Q 1928 2178 1911 2362 
Q 1894 2547 1784 2644 
Q 1675 2738 1481 2738 
Q 1169 2738 978 2506 
Q 725 2200 725 1697 
Q 725 1184 976 792 
Q 1228 400 1656 400 
Q 1963 400 2206 609 
Q 2378 753 2541 1131 
L 2631 1088 
z
" transform="scale(0.015625)"/>
       <path id="TimesNewRomanPSMT-65" d="M 681 1784 
Q 678 1147 991 784 
Q 1303 422 1725 422 
Q 2006 422 2214 576 
Q 2422 731 2563 1106 
L 2659 1044 
Q 2594 616 2278 264 
Q 1963 -88 1488 -88 
Q 972 -88 605 314 
Q 238 716 238 1394 
Q 238 2128 614 2539 
Q 991 2950 1559 2950 
Q 2041 2950 2350 2633 
Q 2659 2316 2659 1784 
L 681 1784 
z
M 681 1966 
L 2006 1966 
Q 1991 2241 1941 2353 
Q 1863 2528 1708 2628 
Q 1553 2728 1384 2728 
Q 1125 2728 920 2526 
Q 716 2325 681 1966 
z
" transform="scale(0.015625)"/>
       <path id="TimesNewRomanPSMT-6d" d="M 1050 2338 
Q 1363 2650 1419 2697 
Q 1559 2816 1721 2881 
Q 1884 2947 2044 2947 
Q 2313 2947 2506 2790 
Q 2700 2634 2766 2338 
Q 3088 2713 3309 2830 
Q 3531 2947 3766 2947 
Q 3994 2947 4170 2830 
Q 4347 2713 4450 2447 
Q 4519 2266 4519 1878 
L 4519 647 
Q 4519 378 4559 278 
Q 4591 209 4675 161 
Q 4759 113 4950 113 
L 4950 0 
L 3538 0 
L 3538 113 
L 3597 113 
Q 3781 113 3884 184 
Q 3956 234 3988 344 
Q 4000 397 4000 647 
L 4000 1878 
Q 4000 2228 3916 2372 
Q 3794 2572 3525 2572 
Q 3359 2572 3192 2489 
Q 3025 2406 2788 2181 
L 2781 2147 
L 2788 2013 
L 2788 647 
Q 2788 353 2820 281 
Q 2853 209 2943 161 
Q 3034 113 3253 113 
L 3253 0 
L 1806 0 
L 1806 113 
Q 2044 113 2133 169 
Q 2222 225 2256 338 
Q 2272 391 2272 647 
L 2272 1878 
Q 2272 2228 2169 2381 
Q 2031 2581 1784 2581 
Q 1616 2581 1450 2491 
Q 1191 2353 1050 2181 
L 1050 647 
Q 1050 366 1089 281 
Q 1128 197 1204 155 
Q 1281 113 1516 113 
L 1516 0 
L 100 0 
L 100 113 
Q 297 113 375 155 
Q 453 197 493 289 
Q 534 381 534 647 
L 534 1741 
Q 534 2213 506 2350 
Q 484 2453 437 2492 
Q 391 2531 309 2531 
Q 222 2531 100 2484 
L 53 2597 
L 916 2947 
L 1050 2947 
L 1050 2338 
z
" transform="scale(0.015625)"/>
       <path id="TimesNewRomanPSMT-6e" d="M 1034 2341 
Q 1538 2947 1994 2947 
Q 2228 2947 2397 2830 
Q 2566 2713 2666 2444 
Q 2734 2256 2734 1869 
L 2734 647 
Q 2734 375 2778 278 
Q 2813 200 2889 156 
Q 2966 113 3172 113 
L 3172 0 
L 1756 0 
L 1756 113 
L 1816 113 
Q 2016 113 2095 173 
Q 2175 234 2206 353 
Q 2219 400 2219 647 
L 2219 1819 
Q 2219 2209 2117 2386 
Q 2016 2563 1775 2563 
Q 1403 2563 1034 2156 
L 1034 647 
Q 1034 356 1069 288 
Q 1113 197 1189 155 
Q 1266 113 1500 113 
L 1500 0 
L 84 0 
L 84 113 
L 147 113 
Q 366 113 442 223 
Q 519 334 519 647 
L 519 1709 
Q 519 2225 495 2337 
Q 472 2450 423 2490 
Q 375 2531 294 2531 
Q 206 2531 84 2484 
L 38 2597 
L 900 2947 
L 1034 2947 
L 1034 2341 
z
" transform="scale(0.015625)"/>
       <path id="TimesNewRomanPSMT-74" d="M 1031 3803 
L 1031 2863 
L 1700 2863 
L 1700 2644 
L 1031 2644 
L 1031 788 
Q 1031 509 1111 412 
Q 1191 316 1316 316 
Q 1419 316 1516 380 
Q 1613 444 1666 569 
L 1788 569 
Q 1678 263 1478 108 
Q 1278 -47 1066 -47 
Q 922 -47 784 33 
Q 647 113 581 261 
Q 516 409 516 719 
L 516 2644 
L 63 2644 
L 63 2747 
Q 234 2816 414 2980 
Q 594 3144 734 3369 
Q 806 3488 934 3803 
L 1031 3803 
z
" transform="scale(0.015625)"/>
       <path id="TimesNewRomanPSMT-20" transform="scale(0.015625)"/>
       <path id="TimesNewRomanPSMT-28" d="M 1988 -1253 
L 1988 -1369 
Q 1516 -1131 1200 -813 
Q 750 -359 506 256 
Q 263 872 263 1534 
Q 263 2503 741 3301 
Q 1219 4100 1988 4444 
L 1988 4313 
Q 1603 4100 1356 3731 
Q 1109 3363 987 2797 
Q 866 2231 866 1616 
Q 866 947 969 400 
Q 1050 -31 1165 -292 
Q 1281 -553 1476 -793 
Q 1672 -1034 1988 -1253 
z
" transform="scale(0.015625)"/>
       <path id="TimesNewRomanPSMT-29" d="M 144 4313 
L 144 4444 
Q 619 4209 934 3891 
Q 1381 3434 1625 2820 
Q 1869 2206 1869 1541 
Q 1869 572 1392 -226 
Q 916 -1025 144 -1369 
L 144 -1253 
Q 528 -1038 776 -670 
Q 1025 -303 1145 264 
Q 1266 831 1266 1447 
Q 1266 2113 1163 2663 
Q 1084 3094 967 3353 
Q 850 3613 656 3853 
Q 463 4094 144 4313 
z
" transform="scale(0.015625)"/>
      </defs>
      <use xlink:href="#TimesNewRomanPSMT-44"/>
      <use xlink:href="#TimesNewRomanPSMT-69" x="72.216797"/>
      <use xlink:href="#TimesNewRomanPSMT-73" x="100"/>
      <use xlink:href="#TimesNewRomanPSMT-70" x="138.916016"/>
      <use xlink:href="#TimesNewRomanPSMT-6c" x="188.916016"/>
      <use xlink:href="#TimesNewRomanPSMT-61" x="216.699219"/>
      <use xlink:href="#TimesNewRomanPSMT-63" x="261.083984"/>
      <use xlink:href="#TimesNewRomanPSMT-65" x="305.46875"/>
      <use xlink:href="#TimesNewRomanPSMT-6d" x="349.853516"/>
      <use xlink:href="#TimesNewRomanPSMT-65" x="427.636719"/>
      <use xlink:href="#TimesNewRomanPSMT-6e" x="472.021484"/>
      <use xlink:href="#TimesNewRomanPSMT-74" x="522.021484"/>
      <use xlink:href="#TimesNewRomanPSMT-20" x="549.804688"/>
      <use xlink:href="#TimesNewRomanPSMT-28" x="574.804688"/>
      <use xlink:href="#TimesNewRomanPSMT-6d" x="608.105469"/>
      <use xlink:href="#TimesNewRomanPSMT-6d" x="685.888672"/>
      <use xlink:href="#TimesNewRomanPSMT-29" x="763.671875"/>
     </g>
    </g>
   </g>
   <g id="matplotlib.axis_2">
    <g id="ytick_1">
     <g id="line2d_15">
      <path d="M 49.432813 241.061422 
L 272.612813 241.061422 
" clip-path="url(#p2f0bea23a1)" style="fill: none; stroke-dasharray: 0.8,1.32; stroke-dashoffset: 0; stroke: #b0b0b0; stroke-width: 0.8"/>
     </g>
     <g id="line2d_16">
      <defs>
       <path id="m3cb27eab8c" d="M 0 0 
L -3.5 0 
" style="stroke: #000000; stroke-width: 0.8"/>
      </defs>
      <g>
       <use xlink:href="#m3cb27eab8c" x="49.432813" y="241.061422" style="stroke: #000000; stroke-width: 0.8"/>
      </g>
     </g>
     <g id="text_9">
      <!-- −600 -->
      <g transform="translate(20.282813 244.555172) scale(0.1 -0.1)">
       <use xlink:href="#Cambria-2212"/>
       <use xlink:href="#Cambria-36" x="55.371094"/>
       <use xlink:href="#Cambria-30" x="110.742188"/>
       <use xlink:href="#Cambria-30" x="166.113281"/>
      </g>
     </g>
    </g>
    <g id="ytick_2">
     <g id="line2d_17">
      <path d="M 49.432813 206.992958 
L 272.612813 206.992958 
" clip-path="url(#p2f0bea23a1)" style="fill: none; stroke-dasharray: 0.8,1.32; stroke-dashoffset: 0; stroke: #b0b0b0; stroke-width: 0.8"/>
     </g>
     <g id="line2d_18">
      <g>
       <use xlink:href="#m3cb27eab8c" x="49.432813" y="206.992958" style="stroke: #000000; stroke-width: 0.8"/>
      </g>
     </g>
     <g id="text_10">
      <!-- −400 -->
      <g transform="translate(20.282813 210.486708) scale(0.1 -0.1)">
       <use xlink:href="#Cambria-2212"/>
       <use xlink:href="#Cambria-34" x="55.371094"/>
       <use xlink:href="#Cambria-30" x="110.742188"/>
       <use xlink:href="#Cambria-30" x="166.113281"/>
      </g>
     </g>
    </g>
    <g id="ytick_3">
     <g id="line2d_19">
      <path d="M 49.432813 172.924493 
L 272.612813 172.924493 
" clip-path="url(#p2f0bea23a1)" style="fill: none; stroke-dasharray: 0.8,1.32; stroke-dashoffset: 0; stroke: #b0b0b0; stroke-width: 0.8"/>
     </g>
     <g id="line2d_20">
      <g>
       <use xlink:href="#m3cb27eab8c" x="49.432813" y="172.924493" style="stroke: #000000; stroke-width: 0.8"/>
      </g>
     </g>
     <g id="text_11">
      <!-- −200 -->
      <g transform="translate(20.282813 176.418243) scale(0.1 -0.1)">
       <use xlink:href="#Cambria-2212"/>
       <use xlink:href="#Cambria-32" x="55.371094"/>
       <use xlink:href="#Cambria-30" x="110.742188"/>
       <use xlink:href="#Cambria-30" x="166.113281"/>
      </g>
     </g>
    </g>
    <g id="ytick_4">
     <g id="line2d_21">
      <path d="M 49.432813 138.856028 
L 272.612813 138.856028 
" clip-path="url(#p2f0bea23a1)" style="fill: none; stroke-dasharray: 0.8,1.32; stroke-dashoffset: 0; stroke: #b0b0b0; stroke-width: 0.8"/>
     </g>
     <g id="line2d_22">
      <g>
       <use xlink:href="#m3cb27eab8c" x="49.432813" y="138.856028" style="stroke: #000000; stroke-width: 0.8"/>
      </g>
     </g>
     <g id="text_12">
      <!-- 0 -->
      <g transform="translate(36.895313 142.349778) scale(0.1 -0.1)">
       <use xlink:href="#Cambria-30"/>
      </g>
     </g>
    </g>
    <g id="ytick_5">
     <g id="line2d_23">
      <path d="M 49.432813 104.787563 
L 272.612813 104.787563 
" clip-path="url(#p2f0bea23a1)" style="fill: none; stroke-dasharray: 0.8,1.32; stroke-dashoffset: 0; stroke: #b0b0b0; stroke-width: 0.8"/>
     </g>
     <g id="line2d_24">
      <g>
       <use xlink:href="#m3cb27eab8c" x="49.432813" y="104.787563" style="stroke: #000000; stroke-width: 0.8"/>
      </g>
     </g>
     <g id="text_13">
      <!-- 200 -->
      <g transform="translate(25.820313 108.281313) scale(0.1 -0.1)">
       <use xlink:href="#Cambria-32"/>
       <use xlink:href="#Cambria-30" x="55.371094"/>
       <use xlink:href="#Cambria-30" x="110.742188"/>
      </g>
     </g>
    </g>
    <g id="ytick_6">
     <g id="line2d_25">
      <path d="M 49.432813 70.719099 
L 272.612813 70.719099 
" clip-path="url(#p2f0bea23a1)" style="fill: none; stroke-dasharray: 0.8,1.32; stroke-dashoffset: 0; stroke: #b0b0b0; stroke-width: 0.8"/>
     </g>
     <g id="line2d_26">
      <g>
       <use xlink:href="#m3cb27eab8c" x="49.432813" y="70.719099" style="stroke: #000000; stroke-width: 0.8"/>
      </g>
     </g>
     <g id="text_14">
      <!-- 400 -->
      <g transform="translate(25.820313 74.212849) scale(0.1 -0.1)">
       <use xlink:href="#Cambria-34"/>
       <use xlink:href="#Cambria-30" x="55.371094"/>
       <use xlink:href="#Cambria-30" x="110.742188"/>
      </g>
     </g>
    </g>
    <g id="ytick_7">
     <g id="line2d_27">
      <path d="M 49.432813 36.650634 
L 272.612813 36.650634 
" clip-path="url(#p2f0bea23a1)" style="fill: none; stroke-dasharray: 0.8,1.32; stroke-dashoffset: 0; stroke: #b0b0b0; stroke-width: 0.8"/>
     </g>
     <g id="line2d_28">
      <g>
       <use xlink:href="#m3cb27eab8c" x="49.432813" y="36.650634" style="stroke: #000000; stroke-width: 0.8"/>
      </g>
     </g>
     <g id="text_15">
      <!-- 600 -->
      <g transform="translate(25.820313 40.144384) scale(0.1 -0.1)">
       <use xlink:href="#Cambria-36"/>
       <use xlink:href="#Cambria-30" x="55.371094"/>
       <use xlink:href="#Cambria-30" x="110.742188"/>
      </g>
     </g>
    </g>
    <g id="text_16">
     <!-- Base Shear (kN) -->
     <g transform="translate(14.14375 172.013437) rotate(-90) scale(0.1 -0.1)">
      <defs>
       <path id="TimesNewRomanPSMT-42" d="M 2956 2163 
Q 3397 2069 3616 1863 
Q 3919 1575 3919 1159 
Q 3919 844 3719 555 
Q 3519 266 3170 133 
Q 2822 0 2106 0 
L 106 0 
L 106 116 
L 266 116 
Q 531 116 647 284 
Q 719 394 719 750 
L 719 3488 
Q 719 3881 628 3984 
Q 506 4122 266 4122 
L 106 4122 
L 106 4238 
L 1938 4238 
Q 2450 4238 2759 4163 
Q 3228 4050 3475 3764 
Q 3722 3478 3722 3106 
Q 3722 2788 3528 2536 
Q 3334 2284 2956 2163 
z
M 1319 2331 
Q 1434 2309 1582 2298 
Q 1731 2288 1909 2288 
Q 2366 2288 2595 2386 
Q 2825 2484 2947 2687 
Q 3069 2891 3069 3131 
Q 3069 3503 2766 3765 
Q 2463 4028 1881 4028 
Q 1569 4028 1319 3959 
L 1319 2331 
z
M 1319 306 
Q 1681 222 2034 222 
Q 2600 222 2897 476 
Q 3194 731 3194 1106 
Q 3194 1353 3059 1581 
Q 2925 1809 2622 1940 
Q 2319 2072 1872 2072 
Q 1678 2072 1540 2065 
Q 1403 2059 1319 2044 
L 1319 306 
z
" transform="scale(0.015625)"/>
       <path id="TimesNewRomanPSMT-53" d="M 2934 4334 
L 2934 2869 
L 2819 2869 
Q 2763 3291 2617 3541 
Q 2472 3791 2203 3937 
Q 1934 4084 1647 4084 
Q 1322 4084 1109 3886 
Q 897 3688 897 3434 
Q 897 3241 1031 3081 
Q 1225 2847 1953 2456 
Q 2547 2138 2764 1967 
Q 2981 1797 3098 1565 
Q 3216 1334 3216 1081 
Q 3216 600 2842 251 
Q 2469 -97 1881 -97 
Q 1697 -97 1534 -69 
Q 1438 -53 1133 45 
Q 828 144 747 144 
Q 669 144 623 97 
Q 578 50 556 -97 
L 441 -97 
L 441 1356 
L 556 1356 
Q 638 900 775 673 
Q 913 447 1195 297 
Q 1478 147 1816 147 
Q 2206 147 2432 353 
Q 2659 559 2659 841 
Q 2659 997 2573 1156 
Q 2488 1316 2306 1453 
Q 2184 1547 1640 1851 
Q 1097 2156 867 2337 
Q 638 2519 519 2737 
Q 400 2956 400 3219 
Q 400 3675 750 4004 
Q 1100 4334 1641 4334 
Q 1978 4334 2356 4169 
Q 2531 4091 2603 4091 
Q 2684 4091 2736 4139 
Q 2788 4188 2819 4334 
L 2934 4334 
z
" transform="scale(0.015625)"/>
       <path id="TimesNewRomanPSMT-68" d="M 1041 4444 
L 1041 2350 
Q 1388 2731 1591 2839 
Q 1794 2947 1997 2947 
Q 2241 2947 2416 2812 
Q 2591 2678 2675 2391 
Q 2734 2191 2734 1659 
L 2734 647 
Q 2734 375 2778 275 
Q 2809 200 2884 156 
Q 2959 113 3159 113 
L 3159 0 
L 1753 0 
L 1753 113 
L 1819 113 
Q 2019 113 2097 173 
Q 2175 234 2206 353 
Q 2216 403 2216 647 
L 2216 1659 
Q 2216 2128 2167 2275 
Q 2119 2422 2012 2495 
Q 1906 2569 1756 2569 
Q 1603 2569 1437 2487 
Q 1272 2406 1041 2159 
L 1041 647 
Q 1041 353 1073 281 
Q 1106 209 1195 161 
Q 1284 113 1503 113 
L 1503 0 
L 84 0 
L 84 113 
Q 275 113 384 172 
Q 447 203 484 290 
Q 522 378 522 647 
L 522 3238 
Q 522 3728 498 3840 
Q 475 3953 426 3993 
Q 378 4034 297 4034 
Q 231 4034 84 3984 
L 41 4094 
L 897 4444 
L 1041 4444 
z
" transform="scale(0.015625)"/>
       <path id="TimesNewRomanPSMT-72" d="M 1038 2947 
L 1038 2303 
Q 1397 2947 1775 2947 
Q 1947 2947 2059 2842 
Q 2172 2738 2172 2600 
Q 2172 2478 2090 2393 
Q 2009 2309 1897 2309 
Q 1788 2309 1652 2417 
Q 1516 2525 1450 2525 
Q 1394 2525 1328 2463 
Q 1188 2334 1038 2041 
L 1038 669 
Q 1038 431 1097 309 
Q 1138 225 1241 169 
Q 1344 113 1538 113 
L 1538 0 
L 72 0 
L 72 113 
Q 291 113 397 181 
Q 475 231 506 341 
Q 522 394 522 644 
L 522 1753 
Q 522 2253 501 2348 
Q 481 2444 426 2487 
Q 372 2531 291 2531 
Q 194 2531 72 2484 
L 41 2597 
L 906 2947 
L 1038 2947 
z
" transform="scale(0.015625)"/>
       <path id="TimesNewRomanPSMT-6b" d="M 1047 4444 
L 1047 1597 
L 1775 2259 
Q 2006 2472 2044 2528 
Q 2069 2566 2069 2603 
Q 2069 2666 2017 2711 
Q 1966 2756 1847 2763 
L 1847 2863 
L 3091 2863 
L 3091 2763 
Q 2834 2756 2664 2684 
Q 2494 2613 2291 2428 
L 1556 1750 
L 2291 822 
Q 2597 438 2703 334 
Q 2853 188 2966 144 
Q 3044 113 3238 113 
L 3238 0 
L 1847 0 
L 1847 113 
Q 1966 116 2008 148 
Q 2050 181 2050 241 
Q 2050 313 1925 472 
L 1047 1594 
L 1047 644 
Q 1047 366 1086 278 
Q 1125 191 1197 153 
Q 1269 116 1509 113 
L 1509 0 
L 53 0 
L 53 113 
Q 272 113 381 166 
Q 447 200 481 272 
Q 528 375 528 628 
L 528 3234 
Q 528 3731 506 3842 
Q 484 3953 434 3995 
Q 384 4038 303 4038 
Q 238 4038 106 3984 
L 53 4094 
L 903 4444 
L 1047 4444 
z
" transform="scale(0.015625)"/>
       <path id="TimesNewRomanPSMT-4e" d="M -84 4238 
L 1066 4238 
L 3656 1059 
L 3656 3503 
Q 3656 3894 3569 3991 
Q 3453 4122 3203 4122 
L 3056 4122 
L 3056 4238 
L 4531 4238 
L 4531 4122 
L 4381 4122 
Q 4113 4122 4000 3959 
Q 3931 3859 3931 3503 
L 3931 -69 
L 3819 -69 
L 1025 3344 
L 1025 734 
Q 1025 344 1109 247 
Q 1228 116 1475 116 
L 1625 116 
L 1625 0 
L 150 0 
L 150 116 
L 297 116 
Q 569 116 681 278 
Q 750 378 750 734 
L 750 3681 
Q 566 3897 470 3965 
Q 375 4034 191 4094 
Q 100 4122 -84 4122 
L -84 4238 
z
" transform="scale(0.015625)"/>
      </defs>
      <use xlink:href="#TimesNewRomanPSMT-42"/>
      <use xlink:href="#TimesNewRomanPSMT-61" x="66.699219"/>
      <use xlink:href="#TimesNewRomanPSMT-73" x="111.083984"/>
      <use xlink:href="#TimesNewRomanPSMT-65" x="150"/>
      <use xlink:href="#TimesNewRomanPSMT-20" x="194.384766"/>
      <use xlink:href="#TimesNewRomanPSMT-53" x="219.384766"/>
      <use xlink:href="#TimesNewRomanPSMT-68" x="275"/>
      <use xlink:href="#TimesNewRomanPSMT-65" x="325"/>
      <use xlink:href="#TimesNewRomanPSMT-61" x="369.384766"/>
      <use xlink:href="#TimesNewRomanPSMT-72" x="413.769531"/>
      <use xlink:href="#TimesNewRomanPSMT-20" x="447.070312"/>
      <use xlink:href="#TimesNewRomanPSMT-28" x="472.070312"/>
      <use xlink:href="#TimesNewRomanPSMT-6b" x="505.371094"/>
      <use xlink:href="#TimesNewRomanPSMT-4e" x="555.371094"/>
      <use xlink:href="#TimesNewRomanPSMT-29" x="627.587891"/>
     </g>
    </g>
   </g>
   <g id="line2d_29">
    <path d="M 161.02346 138.856028 
L 163.013036 105.194365 
L 163.761315 95.941495 
L 164.404997 90.237478 
L 164.362324 90.86326 
L 163.408154 103.752647 
L 162.549488 113.264623 
L 161.541107 129.583217 
L 159.024125 172.029061 
L 158.27853 181.194752 
L 157.641967 186.822758 
L 157.686532 186.162443 
L 158.647351 172.976105 
L 159.508228 162.813261 
L 161.047632 137.236105 
L 162.581755 112.81823 
L 164.404868 90.960097 
L 164.021761 96.463835 
L 161.517207 131.868697 
L 159.004682 172.570905 
L 158.264483 181.479566 
L 157.642183 187.018577 
L 157.690531 186.324481 
L 158.66461 172.684659 
L 159.529875 160.755852 
L 163.274843 104.064783 
L 165.282131 85.161234 
L 167.184317 76.097892 
L 168.934459 69.797342 
L 170.489363 65.238507 
L 172.865728 59.353799 
L 174.209769 56.498524 
L 173.497315 62.80332 
L 172.672945 68.683137 
L 171.561075 75.24071 
L 170.189145 82.08123 
L 166.806118 97.391438 
L 164.878511 107.987914 
L 162.855766 125.676164 
L 160.7878 153.553359 
L 158.72565 178.45682 
L 156.720208 193.323362 
L 154.820968 201.504998 
L 153.0748 207.376449 
L 151.524799 211.821017 
L 149.160526 217.461905 
L 147.837994 220.184453 
L 148.564986 213.719449 
L 149.396144 207.668296 
L 150.514255 200.769153 
L 155.283202 175.323921 
L 157.21351 161.681864 
L 159.237844 142.888503 
L 161.306247 120.048523 
L 163.36767 102.203258 
L 165.37124 91.159605 
L 167.26751 82.837251 
L 169.009681 76.146817 
L 170.554759 70.952042 
L 172.906911 64.209186 
L 174.207916 60.986901 
L 173.466395 66.834656 
L 172.628461 72.514058 
L 171.504123 79.251803 
L 168.513614 95.233255 
L 166.721247 105.930793 
L 164.788262 119.550443 
L 162.762364 137.96872 
L 160.693552 159.249216 
L 158.632882 174.210391 
L 156.631209 184.281143 
L 154.737934 192.72568 
L 152.999781 199.67744 
L 151.459647 205.14784 
L 149.119645 212.370867 
L 147.840184 215.939046 
L 148.596224 209.768185 
L 149.440925 203.929521 
L 150.571475 197.127753 
L 153.572149 180.609969 
L 155.368219 169.749961 
L 157.303856 156.126245 
L 159.331291 138.756056 
L 161.680839 116.434465 
L 165.272444 95.182933 
L 168.759187 81.199778 
L 172.055018 69.849039 
L 175.078599 61.020118 
L 177.755309 55.518006 
L 180.019089 51.923953 
L 183.095957 47.958477 
L 184.007337 46.945924 
L 183.614339 49.875217 
L 182.663815 56.01009 
L 181.179223 64.412604 
L 179.197202 74.016816 
L 173.947599 96.983401 
L 167.430036 124.732545 
L 163.892388 142.748878 
L 160.283936 168.209554 
L 156.693736 185.159091 
L 153.21039 197.92974 
L 149.919865 208.249214 
L 146.903368 216.044805 
L 144.235345 221.322167 
L 141.98164 224.886852 
L 138.928066 228.873821 
L 138.042227 229.883255 
L 138.448056 226.911564 
L 139.41103 220.793592 
L 140.907383 212.416913 
L 142.900185 202.735634 
L 148.167378 179.342682 
L 154.695855 151.547662 
L 158.236093 135.191917 
L 161.845121 113.803804 
L 165.433871 97.758283 
L 168.913775 85.724147 
L 172.198952 76.248856 
L 175.208326 68.760403 
L 177.867629 63.009687 
L 180.111229 58.725274 
L 183.14147 53.596209 
L 184.001757 52.25412 
L 182.60769 61.078902 
L 181.099596 69.356797 
L 179.096038 78.997682 
L 173.811322 102.316497 
L 170.660587 115.452094 
L 167.272015 128.912147 
L 163.729233 144.711865 
L 160.119675 164.890486 
L 156.532421 179.459431 
L 153.056003 191.007574 
L 149.776216 200.456692 
L 146.774002 208.106058 
L 144.123455 214.058171 
L 141.889987 218.537319 
L 138.883118 223.910674 
L 138.048394 225.297879 
L 139.467707 216.440044 
L 140.987523 208.137749 
L 143.001811 198.355345 
L 148.303983 174.731614 
L 151.461013 161.628301 
L 154.854037 148.196292 
L 158.399317 133.13738 
L 162.429818 112.125501 
L 167.54473 92.425029 
L 172.498702 77.887229 
L 177.169473 66.722455 
L 181.441773 58.269403 
L 185.210164 51.963755 
L 188.381645 47.860553 
L 190.877946 45.353884 
L 193.791691 42.896902 
L 193.157921 46.979921 
L 191.731096 55.07714 
L 189.54643 65.995772 
L 186.657837 78.460625 
L 183.136608 92.520416 
L 179.069642 107.224883 
L 174.55731 121.438741 
L 164.650233 148.405331 
L 159.499988 169.241512 
L 154.387341 186.982042 
L 149.438469 200.808743 
L 144.775505 211.539549 
L 140.513529 219.542457 
L 136.757724 225.381698 
L 133.600778 229.279352 
L 131.120604 231.738913 
L 128.260675 234.126679 
L 128.912718 229.980377 
L 130.35723 221.889185 
L 132.558562 211.015006 
L 135.462387 198.483717 
L 138.99704 184.344346 
L 143.075289 169.505586 
L 147.596486 155.152254 
L 152.44905 142.839042 
L 157.513224 130.481869 
L 162.664029 111.932045 
L 167.774345 94.826073 
L 172.718055 81.438964 
L 177.373151 71.104758 
L 181.624748 63.207721 
L 185.367921 57.312629 
L 188.51029 52.981309 
L 192.699156 47.887367 
L 193.780382 46.667832 
L 193.110075 50.699634 
L 191.647894 58.76516 
L 189.429924 69.659359 
L 186.510904 82.146422 
L 182.962872 96.207314 
L 178.873393 110.566882 
L 174.343389 124.147514 
L 164.417115 148.63486 
L 159.265817 166.732618 
L 154.157896 183.082166 
L 149.219413 196.334458 
L 144.572244 206.778418 
L 140.331079 214.751687 
L 136.600587 220.69391 
L 133.472834 225.047623 
L 129.317525 230.144737 
L 128.27282 231.327042 
L 128.961384 227.219536 
L 130.441215 219.121649 
L 132.675794 208.249532 
L 135.609973 195.623074 
L 139.171337 181.456073 
L 143.271996 166.863652 
L 147.810747 153.008173 
L 152.675579 141.549609 
L 157.74643 129.096745 
L 163.458632 109.331686 
L 170.090467 89.012189 
L 176.498534 73.851596 
L 182.524688 62.665968 
L 188.020208 54.512895 
L 192.849467 48.516332 
L 196.893285 44.296267 
L 200.051862 41.834838 
L 203.556825 39.654211 
L 202.6387 45.013062 
L 200.693542 55.121353 
L 197.769356 68.398493 
L 193.938307 83.470579 
L 189.294945 99.7651 
L 183.953864 115.406469 
L 178.046877 129.317824 
L 171.719764 140.123016 
L 165.128675 150.98988 
L 158.436272 169.720749 
L 151.807719 188.950206 
L 145.406604 203.784079 
L 139.390901 214.801008 
L 133.909074 222.695632 
L 129.09641 228.45863 
L 125.071682 232.463798 
L 121.934217 234.928344 
L 118.499342 237.105392 
L 119.441158 231.612111 
L 121.409194 221.449298 
L 124.354881 208.16804 
L 128.205522 192.929264 
L 132.866085 176.547394 
L 138.221551 160.791035 
L 144.139751 147.513915 
L 150.474629 137.640408 
L 157.069844 127.890319 
L 170.387819 91.810344 
L 176.7819 77.463172 
L 182.787075 66.551192 
L 188.25514 58.667109 
L 193.051147 52.94817 
L 197.056735 48.792749 
L 202.323177 43.950235 
L 203.537789 42.914261 
L 202.572294 48.298666 
L 200.581405 58.419188 
L 197.614255 71.731245 
L 193.744072 86.937885 
L 189.066368 103.07461 
L 183.696585 118.256538 
L 177.767247 130.99974 
L 171.424684 140.41234 
L 164.825427 151.069196 
L 158.13234 168.133831 
L 151.510604 186.267037 
L 145.123638 200.615735 
L 139.129068 211.425223 
L 133.674836 219.26732 
L 128.895547 224.918238 
L 124.909151 229.018393 
L 119.686569 233.778664 
L 118.519465 234.759062 
L 119.508626 229.30664 
L 121.522342 219.05916 
L 124.510917 205.727235 
L 128.400594 190.40413 
L 133.09538 174.085475 
L 138.47941 158.688467 
L 144.41981 146.403735 
L 157.373191 127.151036 
L 164.766872 107.249975 
L 172.90831 86.291675 
L 180.756438 70.551436 
L 188.117571 59.502195 
L 194.810041 51.751873 
L 200.668684 46.093302 
L 205.548911 42.026776 
L 209.330284 39.581064 
L 211.919479 38.263682 
L 213.296742 37.693203 
L 212.050819 44.498306 
L 209.545579 56.715038 
L 205.842849 72.341994 
L 201.034009 89.715211 
L 195.237738 107.313036 
L 188.597085 123.039171 
L 181.275934 134.773567 
L 173.454968 143.769817 
L 165.327201 153.514346 
L 157.093221 171.462969 
L 148.956237 192.07093 
L 141.117062 207.332643 
L 133.769163 218.101328 
L 127.09388 225.611373 
L 121.255954 231.078373 
L 116.39946 234.997722 
L 112.644254 237.380609 
L 108.764226 239.269974 
L 110.03923 232.291804 
L 112.572488 219.998898 
L 116.301481 204.389073 
L 121.134178 186.70318 
L 126.951314 169.051645 
L 133.609325 153.574107 
L 140.943896 142.898027 
L 148.774017 134.031443 
L 156.906444 125.162239 
L 165.140477 106.751584 
L 173.272904 87.618079 
L 181.103025 72.755721 
L 188.437596 62.058787 
L 195.095607 54.6186 
L 200.912743 49.302073 
L 205.74544 45.43455 
L 212.00769 40.913371 
L 213.282695 40.055017 
L 213.267981 40.048196 
L 211.96391 47.003507 
L 209.402667 59.26259 
L 205.647461 74.890862 
L 200.790967 92.459619 
L 194.953041 109.865973 
L 188.277758 124.995444 
L 180.929858 135.203681 
L 173.090684 143.977729 
L 164.9537 153.822781 
L 156.71972 170.981461 
L 148.591953 190.666825 
L 140.770986 205.471479 
L 133.449836 215.999776 
L 126.809183 223.327598 
L 121.012912 228.541188 
L 116.204072 232.320268 
L 109.996102 236.713304 
L 108.750179 237.494133 
L 108.794322 237.344634 
L 110.127441 230.239092 
L 112.716637 217.886887 
L 116.49801 202.254417 
L 121.378237 184.622851 
L 127.23688 167.193613 
L 133.92935 152.572827 
L 141.290483 142.332152 
L 157.280049 124.830498 
L 175.996802 83.030125 
L 185.27006 67.299603 
L 193.944931 56.700251 
L 201.807324 49.454637 
L 208.663201 44.141603 
L 214.343365 40.242633 
L 218.707633 37.880457 
L 223.092787 36.154845 
L 223.005451 36.639859 
L 221.388445 44.950107 
L 218.281676 59.233582 
L 213.761816 77.023034 
L 207.940413 96.30822 
L 200.961134 114.325221 
L 192.996223 128.566884 
L 184.242248 138.350884 
L 174.91525 146.643348 
L 165.245413 155.945003 
L 155.471382 174.723749 
L 145.834371 196.169245 
L 136.572217 211.214413 
L 127.9135 221.409039 
L 120.071913 228.356011 
L 113.24098 233.434647 
L 107.589284 237.16289 
L 103.256303 239.438356 
L 98.939044 241.121298 
L 99.061314 240.442146 
L 100.712763 231.946419 
L 103.852635 217.551759 
L 108.403441 199.785495 
L 114.25287 180.391432 
L 121.256563 162.363537 
L 129.241674 148.818065 
L 138.011136 138.971509 
L 157.0234 122.766077 
L 166.796995 103.439893 
L 176.428103 83.820707 
L 185.679036 68.94796 
L 194.321487 58.723148 
L 202.142168 51.798388 
L 208.948069 46.88914 
L 214.571227 43.275673 
L 221.746823 39.051818 
L 223.122173 38.302971 
L 221.279101 47.571636 
L 218.106166 61.932058 
L 213.524471 79.773708 
L 207.64709 99.096336 
L 200.619072 116.564457 
L 192.613864 129.163675 
L 183.829029 138.455175 
L 174.481368 146.630774 
L 164.801577 156.107683 
L 155.028544 174.344398 
L 145.403461 195.031794 
L 136.163869 209.715959 
L 127.537792 219.689159 
L 119.738118 226.459513 
L 112.957335 231.268862 
L 107.362788 234.802094 
L 100.251999 238.922947 
L 98.911245 239.604485 
L 100.823646 229.994431 
L 104.029605 215.539318 
L 108.642129 197.753031 
L 114.547387 178.484233 
L 121.599639 160.758278 
L 129.624842 148.082076 
L 138.42494 138.431622 
L 147.782753 130.787465 
L 157.467337 122.086491 
L 168.219413 100.583309 
L 179.354375 79.304119 
L 190.036944 64.171416 
L 200.003481 54.298137 
L 209.00802 47.636401 
L 216.828336 42.690481 
L 223.271428 38.977787 
L 228.178287 36.594049 
L 231.427814 35.343468 
L 232.939814 34.886987 
L 232.676972 36.264296 
L 230.645773 46.200632 
L 226.896348 62.580461 
L 221.521228 82.454905 
L 214.653068 102.944525 
L 206.461369 120.106391 
L 197.148296 131.924313 
L 186.943689 141.45042 
L 176.09939 148.778602 
L 164.883028 158.115785 
L 153.571414 178.078829 
L 142.443712 199.892011 
L 131.774544 214.434808 
L 121.827218 223.967686 
L 112.847226 230.404979 
L 105.056188 235.163502 
L 98.646381 238.728968 
L 93.775994 241.006868 
L 89.093312 242.675708 
L 89.396583 241.084012 
L 91.467553 230.970114 
L 95.25511 214.583134 
L 100.665782 194.844206 
L 107.566037 174.315108 
L 115.785582 157.097031 
L 125.121563 145.317874 
L 135.343578 135.728656 
L 146.199352 129.064391 
L 157.420975 120.087595 
L 168.731505 99.257681 
L 179.851805 79.461942 
L 190.507436 65.090226 
L 200.435425 55.586152 
L 209.390755 49.247074 
L 217.152416 44.686822 
L 223.528856 41.299357 
L 232.966484 36.661394 
L 230.512075 48.511719 
L 226.686433 64.983121 
L 221.240278 84.841662 
L 214.308017 105.233166 
L 206.060732 121.220967 
L 196.70196 132.378304 
L 186.462669 141.730768 
L 175.595558 148.986372 
L 164.368818 158.78899 
L 153.059517 178.434841 
L 141.94676 199.422921 
L 131.304802 213.551582 
L 121.396278 222.82459 
L 112.465725 229.032945 
L 104.73354 233.495145 
L 98.390549 236.808442 
L 90.460161 240.672244 
L 89.06848 241.270436 
L 89.452596 239.328063 
L 91.603027 229.03899 
L 95.466703 212.583242 
L 100.948272 192.841837 
L 107.912452 172.557556 
L 116.187372 155.975845 
L 125.568814 144.6927 
L 135.825251 135.336522 
L 146.70356 128.852125 
L 157.935274 119.406886 
L 170.362322 96.529946 
L 182.979351 75.578063 
L 195.054525 61.227527 
L 206.289838 52.104292 
L 216.408009 45.912996 
L 225.159331 41.287047 
L 232.327827 37.757867 
L 237.736584 35.392593 
L 242.787668 33.680946 
L 242.305338 36.095244 
L 239.817031 47.781618 
L 235.384156 66.198129 
L 229.116115 87.756799 
L 221.167598 108.868152 
L 211.734768 124.276498 
L 201.05042 134.834416 
L 189.378236 143.799555 
L 177.006277 150.691237 
L 164.239875 160.76979 
L 138.785957 204.021784 
L 126.726627 217.69332 
L 115.513717 226.42987 
L 105.423953 232.33396 
L 96.706345 236.781171 
L 89.576035 240.162372 
L 84.208995 242.405893 
L 79.247757 244.049411 
L 79.775999 241.391471 
L 82.309368 229.547349 
L 86.785343 211.195581 
L 93.09346 189.759212 
L 101.078038 168.73587 
L 110.542026 153.15366 
L 121.251858 142.220995 
L 132.943224 133.441218 
L 145.327589 127.189357 
L 158.099317 117.177349 
L 170.94321 94.912051 
L 183.542292 75.358286 
L 195.585625 61.802539 
L 206.775989 52.985023 
L 216.837215 47.128051 
L 225.520999 42.833316 
L 237.938286 37.289853 
L 242.809615 35.252321 
L 242.235468 38.039899 
L 239.657069 49.945155 
L 235.138051 68.460474 
L 228.789939 89.956574 
L 220.769401 110.830714 
L 211.274377 124.973441 
L 200.539198 135.289896 
L 188.8288 144.039862 
L 176.432186 150.96176 
L 163.655296 161.526982 
L 138.223589 203.588962 
L 126.196407 216.934693 
L 115.028731 225.501992 
L 104.99617 231.206831 
L 96.346322 235.388139 
L 84.009257 240.789519 
L 79.2279 242.724494 
L 79.847944 239.686817 
L 82.47134 227.619326 
L 87.033344 209.194038 
L 93.421369 187.823564 
L 101.477764 167.091786 
L 111.003703 152.292169 
L 121.764092 141.643446 
L 133.493374 133.174419 
L 145.902078 126.960852 
L 158.683966 116.431801 
L 172.781872 92.189248 
L 186.869941 71.953268 
L 200.320138 58.598619 
L 212.800522 50.151599 
L 224.003087 44.388783 
L 233.651361 40.0042 
L 241.507232 36.621071 
L 247.376823 34.285933 
L 252.630332 32.56642 
L 251.884596 36.176387 
L 248.896475 49.681006 
L 243.739713 70.002953 
L 236.541575 93.040478 
L 227.479706 113.991902 
L 216.777745 127.321953 
L 204.69981 137.445422 
L 191.543975 145.635876 
L 177.634917 152.352158 
L 163.3159 163.546508 
L 148.940307 186.704154 
L 134.862917 207.655904 
L 121.431151 220.402273 
L 108.976493 228.405205 
L 97.806316 233.913757 
L 88.196291 238.147342 
L 80.383587 241.400795 
L 74.561016 243.622687 
L 69.408396 245.264713 
L 70.20551 241.398631 
L 73.243945 227.7592 
L 78.448713 207.529473 
L 85.691364 184.685939 
L 94.793157 163.722676 
L 105.529464 149.878911 
L 117.635321 139.458014 
L 130.811967 131.778855 
L 144.734209 125.609094 
L 159.058458 114.012971 
L 173.431202 90.576034 
L 187.497732 71.669267 
L 200.910897 59.060332 
L 213.339669 50.832667 
L 224.477316 45.386635 
L 234.048968 41.294741 
L 247.593883 35.967935 
L 252.645548 34.075697 
L 251.797065 38.089774 
L 248.708356 51.873037 
L 243.455648 72.283817 
L 236.168576 95.172328 
L 227.026977 115.301472 
L 216.25646 127.912175 
L 204.122834 137.849355 
L 190.925547 145.852154 
L 176.990299 152.68909 
L 162.661001 164.361394 
L 148.291289 186.948695 
L 134.235798 207.295929 
L 120.841407 219.760987 
L 108.43868 227.683173 
L 97.333705 232.982401 
L 87.800547 236.964052 
L 74.346167 242.151241 
L 69.39552 243.947972 
L 70.295362 239.677774 
L 73.434306 225.785794 
L 78.734885 205.462924 
L 86.066286 182.788291 
L 95.247574 162.6337 
L 106.052163 149.194634 
L 118.213403 138.927677 
L 131.431163 131.564459 
L 145.379239 125.344628 
L 159.713403 113.10053 
L 175.477082 87.916813 
L 191.024247 68.61861 
L 205.831014 56.282572 
L 219.531964 48.436638 
L 231.788968 43.018616 
L 242.299531 38.818648 
L 250.80426 35.565722 
L 257.093266 33.286847 
L 262.461788 31.577216 
L 261.408812 36.527196 
L 257.8784 51.966105 
L 251.95768 74.131921 
L 243.79277 98.097087 
L 233.585175 117.471275 
L 221.58681 129.983056 
L 208.093787 139.867299 
L 193.439103 147.308069 
L 177.984425 153.881459 
L 162.111163 166.601517 
L 146.211057 191.118803 
L 130.67651 211.057485 
L 115.890903 223.030097 
L 102.219135 230.463978 
L 89.998614 235.690177 
L 79.530934 239.740573 
L 71.074429 242.854639 
L 64.837799 244.945208 
L 59.581246 246.359034 
L 60.691049 241.164742 
L 64.276982 225.672846 
L 70.250547 203.638964 
L 78.46432 179.80127 
L 88.715592 160.306931 
L 100.751369 147.267266 
L 114.274616 137.108119 
L 128.95159 130.22597 
L 144.420074 124.228575 
L 160.298318 110.490306 
L 176.194457 86.368632 
L 191.716188 68.231134 
L 206.480445 56.475146 
L 220.122856 48.811048 
L 232.306739 43.695859 
L 242.731403 39.768232 
L 261.131301 33.322996 
L 262.468267 32.893591 
L 261.30165 38.293152 
L 257.660241 54.03924 
L 251.633908 76.292896 
L 243.371376 100.025899 
L 233.076558 118.187131 
L 221.003524 130.511562 
L 207.450225 140.333047 
L 192.751148 147.571466 
L 177.269056 154.312485 
L 161.386034 167.379902 
L 145.494064 191.470611 
L 129.985348 210.781563 
L 115.24263 222.427561 
L 101.629749 229.757186 
L 89.48266 234.757485 
L 79.101146 238.583097 
L 60.857557 244.830671 
L 59.577358 245.233205 
L 60.800774 239.600026 
L 64.497612 223.826646 
L 70.576636 201.70469 
L 78.887821 178.097256 
L 89.226053 159.239876 
L 101.336192 146.536175 
L 114.919368 136.564395 
L 129.64036 129.949433 
L 145.135863 123.872471 
L 145.135863 123.872471 
" clip-path="url(#p2f0bea23a1)" style="fill: none; stroke: #3152a1; stroke-width: 1.5; stroke-linecap: square"/>
   </g>
   <g id="line2d_30">
    <path d="M 49.432813 138.856028 
L 272.612813 138.856028 
" clip-path="url(#p2f0bea23a1)" style="fill: none; stroke: #000000; stroke-width: 0.4; stroke-linecap: square"/>
   </g>
   <g id="line2d_31">
    <path d="M 161.02346 257.098125 
L 161.02346 20.838125 
" clip-path="url(#p2f0bea23a1)" style="fill: none; stroke: #000000; stroke-width: 0.4; stroke-linecap: square"/>
   </g>
   <g id="patch_3">
    <path d="M 49.432813 257.098125 
L 49.432813 20.838125 
" style="fill: none; stroke: #000000; stroke-width: 0.8; stroke-linejoin: miter; stroke-linecap: square"/>
   </g>
   <g id="patch_4">
    <path d="M 272.612813 257.098125 
L 272.612813 20.838125 
" style="fill: none; stroke: #000000; stroke-width: 0.8; stroke-linejoin: miter; stroke-linecap: square"/>
   </g>
   <g id="patch_5">
    <path d="M 49.432813 257.098125 
L 272.612813 257.098125 
" style="fill: none; stroke: #000000; stroke-width: 0.8; stroke-linejoin: miter; stroke-linecap: square"/>
   </g>
   <g id="patch_6">
    <path d="M 49.432813 20.838125 
L 272.612813 20.838125 
" style="fill: none; stroke: #000000; stroke-width: 0.8; stroke-linejoin: miter; stroke-linecap: square"/>
   </g>
   <g id="text_17">
    <!-- Specimen : Guoshan_SW -->
    <g transform="translate(104.501719 14.838125) scale(0.11 -0.11)">
     <defs>
      <path id="TimesNewRomanPSMT-3a" d="M 903 2950 
Q 1047 2950 1148 2848 
Q 1250 2747 1250 2603 
Q 1250 2459 1148 2357 
Q 1047 2256 903 2256 
Q 759 2256 657 2357 
Q 556 2459 556 2603 
Q 556 2747 657 2848 
Q 759 2950 903 2950 
z
M 897 609 
Q 1044 609 1145 506 
Q 1247 403 1247 259 
Q 1247 116 1144 14 
Q 1041 -88 897 -88 
Q 753 -88 651 14 
Q 550 116 550 259 
Q 550 403 651 506 
Q 753 609 897 609 
z
" transform="scale(0.015625)"/>
      <path id="TimesNewRomanPSMT-47" d="M 3928 4334 
L 4038 2997 
L 3928 2997 
Q 3763 3497 3500 3750 
Q 3122 4116 2528 4116 
Q 1719 4116 1297 3475 
Q 944 2934 944 2188 
Q 944 1581 1178 1081 
Q 1413 581 1792 348 
Q 2172 116 2572 116 
Q 2806 116 3025 175 
Q 3244 234 3447 350 
L 3447 1575 
Q 3447 1894 3398 1992 
Q 3350 2091 3248 2142 
Q 3147 2194 2891 2194 
L 2891 2313 
L 4531 2313 
L 4531 2194 
L 4453 2194 
Q 4209 2194 4119 2031 
Q 4056 1916 4056 1575 
L 4056 278 
Q 3697 84 3347 -6 
Q 2997 -97 2569 -97 
Q 1341 -97 703 691 
Q 225 1281 225 2053 
Q 225 2613 494 3125 
Q 813 3734 1369 4063 
Q 1834 4334 2469 4334 
Q 2700 4334 2889 4296 
Q 3078 4259 3425 4131 
Q 3600 4066 3659 4066 
Q 3719 4066 3761 4120 
Q 3803 4175 3813 4334 
L 3928 4334 
z
" transform="scale(0.015625)"/>
      <path id="TimesNewRomanPSMT-75" d="M 2709 2863 
L 2709 1128 
Q 2709 631 2732 520 
Q 2756 409 2807 365 
Q 2859 322 2928 322 
Q 3025 322 3147 375 
L 3191 266 
L 2334 -88 
L 2194 -88 
L 2194 519 
Q 1825 119 1631 15 
Q 1438 -88 1222 -88 
Q 981 -88 804 51 
Q 628 191 559 409 
Q 491 628 491 1028 
L 491 2306 
Q 491 2509 447 2587 
Q 403 2666 317 2708 
Q 231 2750 6 2747 
L 6 2863 
L 1009 2863 
L 1009 947 
Q 1009 547 1148 422 
Q 1288 297 1484 297 
Q 1619 297 1789 381 
Q 1959 466 2194 703 
L 2194 2325 
Q 2194 2569 2105 2655 
Q 2016 2741 1734 2747 
L 1734 2863 
L 2709 2863 
z
" transform="scale(0.015625)"/>
      <path id="TimesNewRomanPSMT-6f" d="M 1600 2947 
Q 2250 2947 2644 2453 
Q 2978 2031 2978 1484 
Q 2978 1100 2793 706 
Q 2609 313 2286 112 
Q 1963 -88 1566 -88 
Q 919 -88 538 428 
Q 216 863 216 1403 
Q 216 1797 411 2186 
Q 606 2575 925 2761 
Q 1244 2947 1600 2947 
z
M 1503 2744 
Q 1338 2744 1170 2645 
Q 1003 2547 900 2300 
Q 797 2053 797 1666 
Q 797 1041 1045 587 
Q 1294 134 1700 134 
Q 2003 134 2200 384 
Q 2397 634 2397 1244 
Q 2397 2006 2069 2444 
Q 1847 2744 1503 2744 
z
" transform="scale(0.015625)"/>
      <path id="TimesNewRomanPSMT-5f" d="M 3256 -1381 
L -53 -1381 
L -53 -1119 
L 3256 -1119 
L 3256 -1381 
z
" transform="scale(0.015625)"/>
      <path id="TimesNewRomanPSMT-57" d="M 5991 4238 
L 5991 4122 
Q 5825 4122 5722 4062 
Q 5619 4003 5525 3841 
Q 5463 3731 5328 3319 
L 4147 -97 
L 4022 -97 
L 3056 2613 
L 2097 -97 
L 1984 -97 
L 725 3422 
Q 584 3816 547 3888 
Q 484 4006 376 4064 
Q 269 4122 84 4122 
L 84 4238 
L 1653 4238 
L 1653 4122 
L 1578 4122 
Q 1413 4122 1325 4047 
Q 1238 3972 1238 3866 
Q 1238 3756 1375 3363 
L 2209 984 
L 2913 3006 
L 2788 3363 
L 2688 3647 
Q 2622 3803 2541 3922 
Q 2500 3981 2441 4022 
Q 2363 4078 2284 4103 
Q 2225 4122 2097 4122 
L 2097 4238 
L 3747 4238 
L 3747 4122 
L 3634 4122 
Q 3459 4122 3378 4047 
Q 3297 3972 3297 3844 
Q 3297 3684 3438 3288 
L 4250 984 
L 5056 3319 
Q 5194 3706 5194 3856 
Q 5194 3928 5148 3990 
Q 5103 4053 5034 4078 
Q 4916 4122 4725 4122 
L 4725 4238 
L 5991 4238 
z
" transform="scale(0.015625)"/>
     </defs>
     <use xlink:href="#TimesNewRomanPSMT-53"/>
     <use xlink:href="#TimesNewRomanPSMT-70" x="55.615234"/>
     <use xlink:href="#TimesNewRomanPSMT-65" x="105.615234"/>
     <use xlink:href="#TimesNewRomanPSMT-63" x="150"/>
     <use xlink:href="#TimesNewRomanPSMT-69" x="194.384766"/>
     <use xlink:href="#TimesNewRomanPSMT-6d" x="222.167969"/>
     <use xlink:href="#TimesNewRomanPSMT-65" x="299.951172"/>
     <use xlink:href="#TimesNewRomanPSMT-6e" x="344.335938"/>
     <use xlink:href="#TimesNewRomanPSMT-20" x="394.335938"/>
     <use xlink:href="#TimesNewRomanPSMT-3a" x="419.335938"/>
     <use xlink:href="#TimesNewRomanPSMT-20" x="447.119141"/>
     <use xlink:href="#TimesNewRomanPSMT-47" x="472.119141"/>
     <use xlink:href="#TimesNewRomanPSMT-75" x="544.335938"/>
     <use xlink:href="#TimesNewRomanPSMT-6f" x="594.335938"/>
     <use xlink:href="#TimesNewRomanPSMT-73" x="644.335938"/>
     <use xlink:href="#TimesNewRomanPSMT-68" x="683.251953"/>
     <use xlink:href="#TimesNewRomanPSMT-61" x="733.251953"/>
     <use xlink:href="#TimesNewRomanPSMT-6e" x="777.636719"/>
     <use xlink:href="#TimesNewRomanPSMT-5f" x="827.636719"/>
     <use xlink:href="#TimesNewRomanPSMT-53" x="877.636719"/>
     <use xlink:href="#TimesNewRomanPSMT-57" x="933.251953"/>
    </g>
   </g>
   <g id="legend_1">
    <g id="patch_7">
     <path d="M 55.263813 39.279964 
L 132.770558 39.279964 
Q 134.436558 39.279964 134.436558 37.613964 
L 134.436558 26.669125 
Q 134.436558 25.003125 132.770558 25.003125 
L 55.263813 25.003125 
Q 53.597813 25.003125 53.597813 26.669125 
L 53.597813 37.613964 
Q 53.597813 39.279964 55.263813 39.279964 
z
" style="fill: #ffffff; opacity: 0.8; stroke: #cccccc; stroke-linejoin: miter"/>
    </g>
    <g id="line2d_32">
     <path d="M 56.929813 31.250625 
L 65.259813 31.250625 
L 73.589813 31.250625 
" style="fill: none; stroke: #3152a1; stroke-width: 1.5; stroke-linecap: square"/>
    </g>
    <g id="text_18">
     <!-- Numerical Test -->
     <g transform="translate(80.253813 34.166125) scale(0.0833 -0.0833)">
      <defs>
       <path id="TimesNewRomanPSMT-54" d="M 3703 4238 
L 3750 3244 
L 3631 3244 
Q 3597 3506 3538 3619 
Q 3441 3800 3280 3886 
Q 3119 3972 2856 3972 
L 2259 3972 
L 2259 734 
Q 2259 344 2344 247 
Q 2463 116 2709 116 
L 2856 116 
L 2856 0 
L 1059 0 
L 1059 116 
L 1209 116 
Q 1478 116 1591 278 
Q 1659 378 1659 734 
L 1659 3972 
L 1150 3972 
Q 853 3972 728 3928 
Q 566 3869 450 3700 
Q 334 3531 313 3244 
L 194 3244 
L 244 4238 
L 3703 4238 
z
" transform="scale(0.015625)"/>
      </defs>
      <use xlink:href="#TimesNewRomanPSMT-4e"/>
      <use xlink:href="#TimesNewRomanPSMT-75" x="72.216797"/>
      <use xlink:href="#TimesNewRomanPSMT-6d" x="122.216797"/>
      <use xlink:href="#TimesNewRomanPSMT-65" x="200"/>
      <use xlink:href="#TimesNewRomanPSMT-72" x="244.384766"/>
      <use xlink:href="#TimesNewRomanPSMT-69" x="277.685547"/>
      <use xlink:href="#TimesNewRomanPSMT-63" x="305.46875"/>
      <use xlink:href="#TimesNewRomanPSMT-61" x="349.853516"/>
      <use xlink:href="#TimesNewRomanPSMT-6c" x="394.238281"/>
      <use xlink:href="#TimesNewRomanPSMT-20" x="422.021484"/>
      <use xlink:href="#TimesNewRomanPSMT-54" x="445.271484"/>
      <use xlink:href="#TimesNewRomanPSMT-65" x="499.355469"/>
      <use xlink:href="#TimesNewRomanPSMT-73" x="543.740234"/>
      <use xlink:href="#TimesNewRomanPSMT-74" x="582.65625"/>
     </g>
    </g>
   </g>
  </g>
 </g>
 <defs>
  <clipPath id="p2f0bea23a1">
   <rect x="49.432813" y="20.838125" width="223.18" height="236.26"/>
  </clipPath>
 </defs>
</svg>
