<?xml version="1.0" encoding="utf-8" standalone="no"?>
<!DOCTYPE svg PUBLIC "-//W3C//DTD SVG 1.1//EN"
  "http://www.w3.org/Graphics/SVG/1.1/DTD/svg11.dtd">
<svg xmlns:xlink="http://www.w3.org/1999/xlink" width="311.367344pt" height="302.961469pt" viewBox="0 0 311.367344 302.961469" xmlns="http://www.w3.org/2000/svg" version="1.1">
 <metadata>
  <rdf:RDF xmlns:dc="http://purl.org/dc/elements/1.1/" xmlns:cc="http://creativecommons.org/ns#" xmlns:rdf="http://www.w3.org/1999/02/22-rdf-syntax-ns#">
   <cc:Work>
    <dc:type rdf:resource="http://purl.org/dc/dcmitype/StillImage"/>
    <dc:date>2025-01-06T14:21:11.140109</dc:date>
    <dc:format>image/svg+xml</dc:format>
    <dc:creator>
     <cc:Agent>
      <dc:title>Matplotlib v3.8.0, https://matplotlib.org/</dc:title>
     </cc:Agent>
    </dc:creator>
   </cc:Work>
  </rdf:RDF>
 </metadata>
 <defs>
  <style type="text/css">*{stroke-linejoin: round; stroke-linecap: butt}</style>
 </defs>
 <g id="figure_1">
  <g id="patch_1">
   <path d="M 0 302.961469 
L 311.367344 302.961469 
L 311.367344 0 
L 0 0 
z
" style="fill: #ffffff"/>
  </g>
  <g id="axes_1">
   <g id="patch_2">
    <path d="M 58.647344 264.774125 
L 304.167344 264.774125 
L 304.167344 20.838125 
L 58.647344 20.838125 
z
" style="fill: #ffffff"/>
   </g>
   <g id="matplotlib.axis_1">
    <g id="xtick_1">
     <g id="line2d_1">
      <path d="M 69.807344 264.774125 
L 69.807344 20.838125 
" clip-path="url(#p5ab1b360b7)" style="fill: none; stroke-dasharray: 0.8,1.32; stroke-dashoffset: 0; stroke: #b0b0b0; stroke-width: 0.8"/>
     </g>
     <g id="line2d_2">
      <defs>
       <path id="md409c961ec" d="M 0 0 
L 0 3.5 
" style="stroke: #000000; stroke-width: 0.8"/>
      </defs>
      <g>
       <use xlink:href="#md409c961ec" x="69.807344" y="264.774125" style="stroke: #000000; stroke-width: 0.8"/>
      </g>
     </g>
     <g id="text_1">
      <!-- −150 -->
      <g transform="translate(57.624844 279.460375) scale(0.11 -0.11)">
       <defs>
        <path id="Cambria-2212" d="M 397 1613 
L 397 2047 
L 3147 2047 
L 3147 1613 
L 397 1613 
z
" transform="scale(0.015625)"/>
        <path id="Cambria-31" d="M 2172 816 
Q 2172 634 2192 542 
Q 2213 450 2264 392 
Q 2316 334 2412 301 
Q 2509 269 2656 251 
Q 2803 234 3044 228 
L 3044 0 
L 734 0 
L 734 228 
Q 1081 244 1229 270 
Q 1378 297 1456 350 
Q 1534 403 1570 500 
Q 1606 597 1606 816 
L 1606 3350 
Q 1606 3475 1562 3533 
Q 1519 3591 1434 3591 
Q 1334 3591 1150 3487 
Q 966 3384 694 3203 
L 556 3444 
L 2019 4316 
L 2191 4316 
Q 2172 4016 2172 3484 
L 2172 816 
z
" transform="scale(0.015625)"/>
        <path id="Cambria-35" d="M 469 172 
L 469 834 
L 847 834 
Q 941 516 1130 366 
Q 1319 216 1619 216 
Q 2034 216 2246 466 
Q 2459 716 2459 1213 
Q 2459 1544 2346 1761 
Q 2234 1978 2043 2075 
Q 1853 2172 1600 2172 
Q 1388 2172 1234 2145 
Q 1081 2119 906 2063 
L 656 2209 
L 656 4266 
L 2378 4266 
Q 2484 4266 2531 4283 
Q 2578 4300 2606 4336 
Q 2634 4372 2672 4472 
L 2916 4472 
L 2869 3747 
L 1072 3747 
L 1072 2375 
Q 1234 2444 1425 2478 
Q 1616 2513 1806 2513 
Q 2178 2513 2465 2361 
Q 2753 2209 2909 1929 
Q 3066 1650 3066 1281 
Q 3066 863 2891 563 
Q 2716 263 2384 106 
Q 2053 -50 1600 -50 
Q 1059 -50 469 172 
z
" transform="scale(0.015625)"/>
        <path id="Cambria-30" d="M 1738 -50 
Q 1063 -50 733 481 
Q 403 1013 403 2094 
Q 403 2669 504 3087 
Q 606 3506 789 3779 
Q 972 4053 1228 4184 
Q 1484 4316 1788 4316 
Q 2472 4316 2806 3787 
Q 3141 3259 3141 2191 
Q 3141 1084 2783 517 
Q 2425 -50 1738 -50 
z
M 1013 2188 
Q 1013 1169 1202 692 
Q 1391 216 1788 216 
Q 2166 216 2348 664 
Q 2531 1113 2531 2053 
Q 2531 2772 2437 3217 
Q 2344 3663 2176 3856 
Q 2009 4050 1772 4050 
Q 1556 4050 1411 3922 
Q 1266 3794 1177 3553 
Q 1088 3313 1050 2967 
Q 1013 2622 1013 2188 
z
" transform="scale(0.015625)"/>
       </defs>
       <use xlink:href="#Cambria-2212"/>
       <use xlink:href="#Cambria-31" x="55.371094"/>
       <use xlink:href="#Cambria-35" x="110.742188"/>
       <use xlink:href="#Cambria-30" x="166.113281"/>
      </g>
     </g>
    </g>
    <g id="xtick_2">
     <g id="line2d_3">
      <path d="M 109.807344 264.774125 
L 109.807344 20.838125 
" clip-path="url(#p5ab1b360b7)" style="fill: none; stroke-dasharray: 0.8,1.32; stroke-dashoffset: 0; stroke: #b0b0b0; stroke-width: 0.8"/>
     </g>
     <g id="line2d_4">
      <g>
       <use xlink:href="#md409c961ec" x="109.807344" y="264.774125" style="stroke: #000000; stroke-width: 0.8"/>
      </g>
     </g>
     <g id="text_2">
      <!-- −100 -->
      <g transform="translate(97.624844 279.460375) scale(0.11 -0.11)">
       <use xlink:href="#Cambria-2212"/>
       <use xlink:href="#Cambria-31" x="55.371094"/>
       <use xlink:href="#Cambria-30" x="110.742188"/>
       <use xlink:href="#Cambria-30" x="166.113281"/>
      </g>
     </g>
    </g>
    <g id="xtick_3">
     <g id="line2d_5">
      <path d="M 149.807344 264.774125 
L 149.807344 20.838125 
" clip-path="url(#p5ab1b360b7)" style="fill: none; stroke-dasharray: 0.8,1.32; stroke-dashoffset: 0; stroke: #b0b0b0; stroke-width: 0.8"/>
     </g>
     <g id="line2d_6">
      <g>
       <use xlink:href="#md409c961ec" x="149.807344" y="264.774125" style="stroke: #000000; stroke-width: 0.8"/>
      </g>
     </g>
     <g id="text_3">
      <!-- −50 -->
      <g transform="translate(140.670469 279.460375) scale(0.11 -0.11)">
       <use xlink:href="#Cambria-2212"/>
       <use xlink:href="#Cambria-35" x="55.371094"/>
       <use xlink:href="#Cambria-30" x="110.742188"/>
      </g>
     </g>
    </g>
    <g id="xtick_4">
     <g id="line2d_7">
      <path d="M 189.807344 264.774125 
L 189.807344 20.838125 
" clip-path="url(#p5ab1b360b7)" style="fill: none; stroke-dasharray: 0.8,1.32; stroke-dashoffset: 0; stroke: #b0b0b0; stroke-width: 0.8"/>
     </g>
     <g id="line2d_8">
      <g>
       <use xlink:href="#md409c961ec" x="189.807344" y="264.774125" style="stroke: #000000; stroke-width: 0.8"/>
      </g>
     </g>
     <g id="text_4">
      <!-- 0 -->
      <g transform="translate(186.761719 279.460375) scale(0.11 -0.11)">
       <use xlink:href="#Cambria-30"/>
      </g>
     </g>
    </g>
    <g id="xtick_5">
     <g id="line2d_9">
      <path d="M 229.807344 264.774125 
L 229.807344 20.838125 
" clip-path="url(#p5ab1b360b7)" style="fill: none; stroke-dasharray: 0.8,1.32; stroke-dashoffset: 0; stroke: #b0b0b0; stroke-width: 0.8"/>
     </g>
     <g id="line2d_10">
      <g>
       <use xlink:href="#md409c961ec" x="229.807344" y="264.774125" style="stroke: #000000; stroke-width: 0.8"/>
      </g>
     </g>
     <g id="text_5">
      <!-- 50 -->
      <g transform="translate(223.716094 279.460375) scale(0.11 -0.11)">
       <use xlink:href="#Cambria-35"/>
       <use xlink:href="#Cambria-30" x="55.371094"/>
      </g>
     </g>
    </g>
    <g id="xtick_6">
     <g id="line2d_11">
      <path d="M 269.807344 264.774125 
L 269.807344 20.838125 
" clip-path="url(#p5ab1b360b7)" style="fill: none; stroke-dasharray: 0.8,1.32; stroke-dashoffset: 0; stroke: #b0b0b0; stroke-width: 0.8"/>
     </g>
     <g id="line2d_12">
      <g>
       <use xlink:href="#md409c961ec" x="269.807344" y="264.774125" style="stroke: #000000; stroke-width: 0.8"/>
      </g>
     </g>
     <g id="text_6">
      <!-- 100 -->
      <g transform="translate(260.670469 279.460375) scale(0.11 -0.11)">
       <use xlink:href="#Cambria-31"/>
       <use xlink:href="#Cambria-30" x="55.371094"/>
       <use xlink:href="#Cambria-30" x="110.742188"/>
      </g>
     </g>
    </g>
    <g id="text_7">
     <!-- Displacement (mm) -->
     <g transform="translate(137.573203 293.4085) scale(0.11 -0.11)">
      <defs>
       <path id="TimesNewRomanPSMT-44" d="M 109 0 
L 109 116 
L 269 116 
Q 538 116 650 288 
Q 719 391 719 750 
L 719 3488 
Q 719 3884 631 3984 
Q 509 4122 269 4122 
L 109 4122 
L 109 4238 
L 1834 4238 
Q 2784 4238 3279 4022 
Q 3775 3806 4076 3303 
Q 4378 2800 4378 2141 
Q 4378 1256 3841 663 
Q 3238 0 2003 0 
L 109 0 
z
M 1319 306 
Q 1716 219 1984 219 
Q 2709 219 3187 728 
Q 3666 1238 3666 2109 
Q 3666 2988 3187 3494 
Q 2709 4000 1959 4000 
Q 1678 4000 1319 3909 
L 1319 306 
z
" transform="scale(0.015625)"/>
       <path id="TimesNewRomanPSMT-69" d="M 928 4444 
Q 1059 4444 1151 4351 
Q 1244 4259 1244 4128 
Q 1244 3997 1151 3903 
Q 1059 3809 928 3809 
Q 797 3809 703 3903 
Q 609 3997 609 4128 
Q 609 4259 701 4351 
Q 794 4444 928 4444 
z
M 1188 2947 
L 1188 647 
Q 1188 378 1227 289 
Q 1266 200 1342 156 
Q 1419 113 1622 113 
L 1622 0 
L 231 0 
L 231 113 
Q 441 113 512 153 
Q 584 194 626 287 
Q 669 381 669 647 
L 669 1750 
Q 669 2216 641 2353 
Q 619 2453 572 2492 
Q 525 2531 444 2531 
Q 356 2531 231 2484 
L 188 2597 
L 1050 2947 
L 1188 2947 
z
" transform="scale(0.015625)"/>
       <path id="TimesNewRomanPSMT-73" d="M 2050 2947 
L 2050 1972 
L 1947 1972 
Q 1828 2431 1642 2597 
Q 1456 2763 1169 2763 
Q 950 2763 815 2647 
Q 681 2531 681 2391 
Q 681 2216 781 2091 
Q 878 1963 1175 1819 
L 1631 1597 
Q 2266 1288 2266 781 
Q 2266 391 1970 151 
Q 1675 -88 1309 -88 
Q 1047 -88 709 6 
Q 606 38 541 38 
Q 469 38 428 -44 
L 325 -44 
L 325 978 
L 428 978 
Q 516 541 762 319 
Q 1009 97 1316 97 
Q 1531 97 1667 223 
Q 1803 350 1803 528 
Q 1803 744 1651 891 
Q 1500 1038 1047 1263 
Q 594 1488 453 1669 
Q 313 1847 313 2119 
Q 313 2472 555 2709 
Q 797 2947 1181 2947 
Q 1350 2947 1591 2875 
Q 1750 2828 1803 2828 
Q 1853 2828 1881 2850 
Q 1909 2872 1947 2947 
L 2050 2947 
z
" transform="scale(0.015625)"/>
       <path id="TimesNewRomanPSMT-70" d="M -6 2578 
L 875 2934 
L 994 2934 
L 994 2266 
Q 1216 2644 1439 2795 
Q 1663 2947 1909 2947 
Q 2341 2947 2628 2609 
Q 2981 2197 2981 1534 
Q 2981 794 2556 309 
Q 2206 -88 1675 -88 
Q 1444 -88 1275 -22 
Q 1150 25 994 166 
L 994 -706 
Q 994 -1000 1030 -1079 
Q 1066 -1159 1155 -1206 
Q 1244 -1253 1478 -1253 
L 1478 -1369 
L -22 -1369 
L -22 -1253 
L 56 -1253 
Q 228 -1256 350 -1188 
Q 409 -1153 442 -1076 
Q 475 -1000 475 -688 
L 475 2019 
Q 475 2297 450 2372 
Q 425 2447 370 2484 
Q 316 2522 222 2522 
Q 147 2522 31 2478 
L -6 2578 
z
M 994 2081 
L 994 1013 
Q 994 666 1022 556 
Q 1066 375 1236 237 
Q 1406 100 1666 100 
Q 1978 100 2172 344 
Q 2425 663 2425 1241 
Q 2425 1897 2138 2250 
Q 1938 2494 1663 2494 
Q 1513 2494 1366 2419 
Q 1253 2363 994 2081 
z
" transform="scale(0.015625)"/>
       <path id="TimesNewRomanPSMT-6c" d="M 1184 4444 
L 1184 647 
Q 1184 378 1223 290 
Q 1263 203 1344 158 
Q 1425 113 1647 113 
L 1647 0 
L 244 0 
L 244 113 
Q 441 113 512 153 
Q 584 194 625 287 
Q 666 381 666 647 
L 666 3247 
Q 666 3731 644 3842 
Q 622 3953 573 3993 
Q 525 4034 450 4034 
Q 369 4034 244 3984 
L 191 4094 
L 1044 4444 
L 1184 4444 
z
" transform="scale(0.015625)"/>
       <path id="TimesNewRomanPSMT-61" d="M 1822 413 
Q 1381 72 1269 19 
Q 1100 -59 909 -59 
Q 613 -59 420 144 
Q 228 347 228 678 
Q 228 888 322 1041 
Q 450 1253 767 1440 
Q 1084 1628 1822 1897 
L 1822 2009 
Q 1822 2438 1686 2597 
Q 1550 2756 1291 2756 
Q 1094 2756 978 2650 
Q 859 2544 859 2406 
L 866 2225 
Q 866 2081 792 2003 
Q 719 1925 600 1925 
Q 484 1925 411 2006 
Q 338 2088 338 2228 
Q 338 2497 613 2722 
Q 888 2947 1384 2947 
Q 1766 2947 2009 2819 
Q 2194 2722 2281 2516 
Q 2338 2381 2338 1966 
L 2338 994 
Q 2338 584 2353 492 
Q 2369 400 2405 369 
Q 2441 338 2488 338 
Q 2538 338 2575 359 
Q 2641 400 2828 588 
L 2828 413 
Q 2478 -56 2159 -56 
Q 2006 -56 1915 50 
Q 1825 156 1822 413 
z
M 1822 616 
L 1822 1706 
Q 1350 1519 1213 1441 
Q 966 1303 859 1153 
Q 753 1003 753 825 
Q 753 600 887 451 
Q 1022 303 1197 303 
Q 1434 303 1822 616 
z
" transform="scale(0.015625)"/>
       <path id="TimesNewRomanPSMT-63" d="M 2631 1088 
Q 2516 522 2178 217 
Q 1841 -88 1431 -88 
Q 944 -88 581 321 
Q 219 731 219 1428 
Q 219 2103 620 2525 
Q 1022 2947 1584 2947 
Q 2006 2947 2278 2723 
Q 2550 2500 2550 2259 
Q 2550 2141 2473 2067 
Q 2397 1994 2259 1994 
Q 2075 1994 1981 2113 
Q 1928 2178 1911 2362 
Q 1894 2547 1784 2644 
Q 1675 2738 1481 2738 
Q 1169 2738 978 2506 
Q 725 2200 725 1697 
Q 725 1184 976 792 
Q 1228 400 1656 400 
Q 1963 400 2206 609 
Q 2378 753 2541 1131 
L 2631 1088 
z
" transform="scale(0.015625)"/>
       <path id="TimesNewRomanPSMT-65" d="M 681 1784 
Q 678 1147 991 784 
Q 1303 422 1725 422 
Q 2006 422 2214 576 
Q 2422 731 2563 1106 
L 2659 1044 
Q 2594 616 2278 264 
Q 1963 -88 1488 -88 
Q 972 -88 605 314 
Q 238 716 238 1394 
Q 238 2128 614 2539 
Q 991 2950 1559 2950 
Q 2041 2950 2350 2633 
Q 2659 2316 2659 1784 
L 681 1784 
z
M 681 1966 
L 2006 1966 
Q 1991 2241 1941 2353 
Q 1863 2528 1708 2628 
Q 1553 2728 1384 2728 
Q 1125 2728 920 2526 
Q 716 2325 681 1966 
z
" transform="scale(0.015625)"/>
       <path id="TimesNewRomanPSMT-6d" d="M 1050 2338 
Q 1363 2650 1419 2697 
Q 1559 2816 1721 2881 
Q 1884 2947 2044 2947 
Q 2313 2947 2506 2790 
Q 2700 2634 2766 2338 
Q 3088 2713 3309 2830 
Q 3531 2947 3766 2947 
Q 3994 2947 4170 2830 
Q 4347 2713 4450 2447 
Q 4519 2266 4519 1878 
L 4519 647 
Q 4519 378 4559 278 
Q 4591 209 4675 161 
Q 4759 113 4950 113 
L 4950 0 
L 3538 0 
L 3538 113 
L 3597 113 
Q 3781 113 3884 184 
Q 3956 234 3988 344 
Q 4000 397 4000 647 
L 4000 1878 
Q 4000 2228 3916 2372 
Q 3794 2572 3525 2572 
Q 3359 2572 3192 2489 
Q 3025 2406 2788 2181 
L 2781 2147 
L 2788 2013 
L 2788 647 
Q 2788 353 2820 281 
Q 2853 209 2943 161 
Q 3034 113 3253 113 
L 3253 0 
L 1806 0 
L 1806 113 
Q 2044 113 2133 169 
Q 2222 225 2256 338 
Q 2272 391 2272 647 
L 2272 1878 
Q 2272 2228 2169 2381 
Q 2031 2581 1784 2581 
Q 1616 2581 1450 2491 
Q 1191 2353 1050 2181 
L 1050 647 
Q 1050 366 1089 281 
Q 1128 197 1204 155 
Q 1281 113 1516 113 
L 1516 0 
L 100 0 
L 100 113 
Q 297 113 375 155 
Q 453 197 493 289 
Q 534 381 534 647 
L 534 1741 
Q 534 2213 506 2350 
Q 484 2453 437 2492 
Q 391 2531 309 2531 
Q 222 2531 100 2484 
L 53 2597 
L 916 2947 
L 1050 2947 
L 1050 2338 
z
" transform="scale(0.015625)"/>
       <path id="TimesNewRomanPSMT-6e" d="M 1034 2341 
Q 1538 2947 1994 2947 
Q 2228 2947 2397 2830 
Q 2566 2713 2666 2444 
Q 2734 2256 2734 1869 
L 2734 647 
Q 2734 375 2778 278 
Q 2813 200 2889 156 
Q 2966 113 3172 113 
L 3172 0 
L 1756 0 
L 1756 113 
L 1816 113 
Q 2016 113 2095 173 
Q 2175 234 2206 353 
Q 2219 400 2219 647 
L 2219 1819 
Q 2219 2209 2117 2386 
Q 2016 2563 1775 2563 
Q 1403 2563 1034 2156 
L 1034 647 
Q 1034 356 1069 288 
Q 1113 197 1189 155 
Q 1266 113 1500 113 
L 1500 0 
L 84 0 
L 84 113 
L 147 113 
Q 366 113 442 223 
Q 519 334 519 647 
L 519 1709 
Q 519 2225 495 2337 
Q 472 2450 423 2490 
Q 375 2531 294 2531 
Q 206 2531 84 2484 
L 38 2597 
L 900 2947 
L 1034 2947 
L 1034 2341 
z
" transform="scale(0.015625)"/>
       <path id="TimesNewRomanPSMT-74" d="M 1031 3803 
L 1031 2863 
L 1700 2863 
L 1700 2644 
L 1031 2644 
L 1031 788 
Q 1031 509 1111 412 
Q 1191 316 1316 316 
Q 1419 316 1516 380 
Q 1613 444 1666 569 
L 1788 569 
Q 1678 263 1478 108 
Q 1278 -47 1066 -47 
Q 922 -47 784 33 
Q 647 113 581 261 
Q 516 409 516 719 
L 516 2644 
L 63 2644 
L 63 2747 
Q 234 2816 414 2980 
Q 594 3144 734 3369 
Q 806 3488 934 3803 
L 1031 3803 
z
" transform="scale(0.015625)"/>
       <path id="TimesNewRomanPSMT-20" transform="scale(0.015625)"/>
       <path id="TimesNewRomanPSMT-28" d="M 1988 -1253 
L 1988 -1369 
Q 1516 -1131 1200 -813 
Q 750 -359 506 256 
Q 263 872 263 1534 
Q 263 2503 741 3301 
Q 1219 4100 1988 4444 
L 1988 4313 
Q 1603 4100 1356 3731 
Q 1109 3363 987 2797 
Q 866 2231 866 1616 
Q 866 947 969 400 
Q 1050 -31 1165 -292 
Q 1281 -553 1476 -793 
Q 1672 -1034 1988 -1253 
z
" transform="scale(0.015625)"/>
       <path id="TimesNewRomanPSMT-29" d="M 144 4313 
L 144 4444 
Q 619 4209 934 3891 
Q 1381 3434 1625 2820 
Q 1869 2206 1869 1541 
Q 1869 572 1392 -226 
Q 916 -1025 144 -1369 
L 144 -1253 
Q 528 -1038 776 -670 
Q 1025 -303 1145 264 
Q 1266 831 1266 1447 
Q 1266 2113 1163 2663 
Q 1084 3094 967 3353 
Q 850 3613 656 3853 
Q 463 4094 144 4313 
z
" transform="scale(0.015625)"/>
      </defs>
      <use xlink:href="#TimesNewRomanPSMT-44"/>
      <use xlink:href="#TimesNewRomanPSMT-69" x="72.216797"/>
      <use xlink:href="#TimesNewRomanPSMT-73" x="100"/>
      <use xlink:href="#TimesNewRomanPSMT-70" x="138.916016"/>
      <use xlink:href="#TimesNewRomanPSMT-6c" x="188.916016"/>
      <use xlink:href="#TimesNewRomanPSMT-61" x="216.699219"/>
      <use xlink:href="#TimesNewRomanPSMT-63" x="261.083984"/>
      <use xlink:href="#TimesNewRomanPSMT-65" x="305.46875"/>
      <use xlink:href="#TimesNewRomanPSMT-6d" x="349.853516"/>
      <use xlink:href="#TimesNewRomanPSMT-65" x="427.636719"/>
      <use xlink:href="#TimesNewRomanPSMT-6e" x="472.021484"/>
      <use xlink:href="#TimesNewRomanPSMT-74" x="522.021484"/>
      <use xlink:href="#TimesNewRomanPSMT-20" x="549.804688"/>
      <use xlink:href="#TimesNewRomanPSMT-28" x="574.804688"/>
      <use xlink:href="#TimesNewRomanPSMT-6d" x="608.105469"/>
      <use xlink:href="#TimesNewRomanPSMT-6d" x="685.888672"/>
      <use xlink:href="#TimesNewRomanPSMT-29" x="763.671875"/>
     </g>
    </g>
   </g>
   <g id="matplotlib.axis_2">
    <g id="ytick_1">
     <g id="line2d_13">
      <path d="M 58.647344 252.164362 
L 304.167344 252.164362 
" clip-path="url(#p5ab1b360b7)" style="fill: none; stroke-dasharray: 0.8,1.32; stroke-dashoffset: 0; stroke: #b0b0b0; stroke-width: 0.8"/>
     </g>
     <g id="line2d_14">
      <defs>
       <path id="md091669657" d="M 0 0 
L -3.5 0 
" style="stroke: #000000; stroke-width: 0.8"/>
      </defs>
      <g>
       <use xlink:href="#md091669657" x="58.647344" y="252.164362" style="stroke: #000000; stroke-width: 0.8"/>
      </g>
     </g>
     <g id="text_8">
      <!-- −1000 -->
      <g transform="translate(21.191094 256.007487) scale(0.11 -0.11)">
       <use xlink:href="#Cambria-2212"/>
       <use xlink:href="#Cambria-31" x="55.371094"/>
       <use xlink:href="#Cambria-30" x="110.742188"/>
       <use xlink:href="#Cambria-30" x="166.113281"/>
       <use xlink:href="#Cambria-30" x="221.484375"/>
      </g>
     </g>
    </g>
    <g id="ytick_2">
     <g id="line2d_15">
      <path d="M 58.647344 224.202147 
L 304.167344 224.202147 
" clip-path="url(#p5ab1b360b7)" style="fill: none; stroke-dasharray: 0.8,1.32; stroke-dashoffset: 0; stroke: #b0b0b0; stroke-width: 0.8"/>
     </g>
     <g id="line2d_16">
      <g>
       <use xlink:href="#md091669657" x="58.647344" y="224.202147" style="stroke: #000000; stroke-width: 0.8"/>
      </g>
     </g>
     <g id="text_9">
      <!-- −750 -->
      <g transform="translate(27.282344 228.045272) scale(0.11 -0.11)">
       <defs>
        <path id="Cambria-37" d="M 3206 4116 
L 1388 -22 
L 934 -22 
L 934 131 
L 2619 3697 
L 2619 3744 
L 1244 3744 
Q 1116 3744 1039 3720 
Q 963 3697 911 3653 
Q 859 3609 825 3537 
Q 791 3466 731 3253 
L 463 3253 
L 525 4266 
L 3206 4266 
L 3206 4116 
z
" transform="scale(0.015625)"/>
       </defs>
       <use xlink:href="#Cambria-2212"/>
       <use xlink:href="#Cambria-37" x="55.371094"/>
       <use xlink:href="#Cambria-35" x="110.742188"/>
       <use xlink:href="#Cambria-30" x="166.113281"/>
      </g>
     </g>
    </g>
    <g id="ytick_3">
     <g id="line2d_17">
      <path d="M 58.647344 196.239931 
L 304.167344 196.239931 
" clip-path="url(#p5ab1b360b7)" style="fill: none; stroke-dasharray: 0.8,1.32; stroke-dashoffset: 0; stroke: #b0b0b0; stroke-width: 0.8"/>
     </g>
     <g id="line2d_18">
      <g>
       <use xlink:href="#md091669657" x="58.647344" y="196.239931" style="stroke: #000000; stroke-width: 0.8"/>
      </g>
     </g>
     <g id="text_10">
      <!-- −500 -->
      <g transform="translate(27.282344 200.083056) scale(0.11 -0.11)">
       <use xlink:href="#Cambria-2212"/>
       <use xlink:href="#Cambria-35" x="55.371094"/>
       <use xlink:href="#Cambria-30" x="110.742188"/>
       <use xlink:href="#Cambria-30" x="166.113281"/>
      </g>
     </g>
    </g>
    <g id="ytick_4">
     <g id="line2d_19">
      <path d="M 58.647344 168.277715 
L 304.167344 168.277715 
" clip-path="url(#p5ab1b360b7)" style="fill: none; stroke-dasharray: 0.8,1.32; stroke-dashoffset: 0; stroke: #b0b0b0; stroke-width: 0.8"/>
     </g>
     <g id="line2d_20">
      <g>
       <use xlink:href="#md091669657" x="58.647344" y="168.277715" style="stroke: #000000; stroke-width: 0.8"/>
      </g>
     </g>
     <g id="text_11">
      <!-- −250 -->
      <g transform="translate(27.282344 172.12084) scale(0.11 -0.11)">
       <defs>
        <path id="Cambria-32" d="M 2194 500 
Q 2347 500 2440 519 
Q 2534 538 2590 581 
Q 2647 625 2680 695 
Q 2713 766 2763 913 
L 3028 913 
L 2975 0 
L 403 0 
L 403 150 
Q 538 478 766 822 
Q 994 1166 1413 1631 
Q 1775 2031 1934 2238 
Q 2109 2463 2195 2627 
Q 2281 2791 2318 2936 
Q 2356 3081 2356 3228 
Q 2356 3463 2281 3642 
Q 2206 3822 2051 3925 
Q 1897 4028 1663 4028 
Q 1078 4028 875 3378 
L 497 3378 
L 497 3978 
Q 875 4156 1204 4236 
Q 1534 4316 1797 4316 
Q 2378 4316 2675 4061 
Q 2972 3806 2972 3322 
Q 2972 3156 2939 3017 
Q 2906 2878 2836 2742 
Q 2766 2606 2647 2450 
Q 2528 2294 2384 2133 
Q 2241 1972 1888 1597 
Q 1294 969 1016 500 
L 2194 500 
z
" transform="scale(0.015625)"/>
       </defs>
       <use xlink:href="#Cambria-2212"/>
       <use xlink:href="#Cambria-32" x="55.371094"/>
       <use xlink:href="#Cambria-35" x="110.742188"/>
       <use xlink:href="#Cambria-30" x="166.113281"/>
      </g>
     </g>
    </g>
    <g id="ytick_5">
     <g id="line2d_21">
      <path d="M 58.647344 140.315499 
L 304.167344 140.315499 
" clip-path="url(#p5ab1b360b7)" style="fill: none; stroke-dasharray: 0.8,1.32; stroke-dashoffset: 0; stroke: #b0b0b0; stroke-width: 0.8"/>
     </g>
     <g id="line2d_22">
      <g>
       <use xlink:href="#md091669657" x="58.647344" y="140.315499" style="stroke: #000000; stroke-width: 0.8"/>
      </g>
     </g>
     <g id="text_12">
      <!-- 0 -->
      <g transform="translate(45.556094 144.158624) scale(0.11 -0.11)">
       <use xlink:href="#Cambria-30"/>
      </g>
     </g>
    </g>
    <g id="ytick_6">
     <g id="line2d_23">
      <path d="M 58.647344 112.353283 
L 304.167344 112.353283 
" clip-path="url(#p5ab1b360b7)" style="fill: none; stroke-dasharray: 0.8,1.32; stroke-dashoffset: 0; stroke: #b0b0b0; stroke-width: 0.8"/>
     </g>
     <g id="line2d_24">
      <g>
       <use xlink:href="#md091669657" x="58.647344" y="112.353283" style="stroke: #000000; stroke-width: 0.8"/>
      </g>
     </g>
     <g id="text_13">
      <!-- 250 -->
      <g transform="translate(33.373594 116.196408) scale(0.11 -0.11)">
       <use xlink:href="#Cambria-32"/>
       <use xlink:href="#Cambria-35" x="55.371094"/>
       <use xlink:href="#Cambria-30" x="110.742188"/>
      </g>
     </g>
    </g>
    <g id="ytick_7">
     <g id="line2d_25">
      <path d="M 58.647344 84.391067 
L 304.167344 84.391067 
" clip-path="url(#p5ab1b360b7)" style="fill: none; stroke-dasharray: 0.8,1.32; stroke-dashoffset: 0; stroke: #b0b0b0; stroke-width: 0.8"/>
     </g>
     <g id="line2d_26">
      <g>
       <use xlink:href="#md091669657" x="58.647344" y="84.391067" style="stroke: #000000; stroke-width: 0.8"/>
      </g>
     </g>
     <g id="text_14">
      <!-- 500 -->
      <g transform="translate(33.373594 88.234192) scale(0.11 -0.11)">
       <use xlink:href="#Cambria-35"/>
       <use xlink:href="#Cambria-30" x="55.371094"/>
       <use xlink:href="#Cambria-30" x="110.742188"/>
      </g>
     </g>
    </g>
    <g id="ytick_8">
     <g id="line2d_27">
      <path d="M 58.647344 56.428852 
L 304.167344 56.428852 
" clip-path="url(#p5ab1b360b7)" style="fill: none; stroke-dasharray: 0.8,1.32; stroke-dashoffset: 0; stroke: #b0b0b0; stroke-width: 0.8"/>
     </g>
     <g id="line2d_28">
      <g>
       <use xlink:href="#md091669657" x="58.647344" y="56.428852" style="stroke: #000000; stroke-width: 0.8"/>
      </g>
     </g>
     <g id="text_15">
      <!-- 750 -->
      <g transform="translate(33.373594 60.271977) scale(0.11 -0.11)">
       <use xlink:href="#Cambria-37"/>
       <use xlink:href="#Cambria-35" x="55.371094"/>
       <use xlink:href="#Cambria-30" x="110.742188"/>
      </g>
     </g>
    </g>
    <g id="ytick_9">
     <g id="line2d_29">
      <path d="M 58.647344 28.466636 
L 304.167344 28.466636 
" clip-path="url(#p5ab1b360b7)" style="fill: none; stroke-dasharray: 0.8,1.32; stroke-dashoffset: 0; stroke: #b0b0b0; stroke-width: 0.8"/>
     </g>
     <g id="line2d_30">
      <g>
       <use xlink:href="#md091669657" x="58.647344" y="28.466636" style="stroke: #000000; stroke-width: 0.8"/>
      </g>
     </g>
     <g id="text_16">
      <!-- 1000 -->
      <g transform="translate(27.282344 32.309761) scale(0.11 -0.11)">
       <use xlink:href="#Cambria-31"/>
       <use xlink:href="#Cambria-30" x="55.371094"/>
       <use xlink:href="#Cambria-30" x="110.742188"/>
       <use xlink:href="#Cambria-30" x="166.113281"/>
      </g>
     </g>
    </g>
    <g id="text_17">
     <!-- Base Shear (kN) -->
     <g transform="translate(14.838125 179.155969) rotate(-90) scale(0.11 -0.11)">
      <defs>
       <path id="TimesNewRomanPSMT-42" d="M 2956 2163 
Q 3397 2069 3616 1863 
Q 3919 1575 3919 1159 
Q 3919 844 3719 555 
Q 3519 266 3170 133 
Q 2822 0 2106 0 
L 106 0 
L 106 116 
L 266 116 
Q 531 116 647 284 
Q 719 394 719 750 
L 719 3488 
Q 719 3881 628 3984 
Q 506 4122 266 4122 
L 106 4122 
L 106 4238 
L 1938 4238 
Q 2450 4238 2759 4163 
Q 3228 4050 3475 3764 
Q 3722 3478 3722 3106 
Q 3722 2788 3528 2536 
Q 3334 2284 2956 2163 
z
M 1319 2331 
Q 1434 2309 1582 2298 
Q 1731 2288 1909 2288 
Q 2366 2288 2595 2386 
Q 2825 2484 2947 2687 
Q 3069 2891 3069 3131 
Q 3069 3503 2766 3765 
Q 2463 4028 1881 4028 
Q 1569 4028 1319 3959 
L 1319 2331 
z
M 1319 306 
Q 1681 222 2034 222 
Q 2600 222 2897 476 
Q 3194 731 3194 1106 
Q 3194 1353 3059 1581 
Q 2925 1809 2622 1940 
Q 2319 2072 1872 2072 
Q 1678 2072 1540 2065 
Q 1403 2059 1319 2044 
L 1319 306 
z
" transform="scale(0.015625)"/>
       <path id="TimesNewRomanPSMT-53" d="M 2934 4334 
L 2934 2869 
L 2819 2869 
Q 2763 3291 2617 3541 
Q 2472 3791 2203 3937 
Q 1934 4084 1647 4084 
Q 1322 4084 1109 3886 
Q 897 3688 897 3434 
Q 897 3241 1031 3081 
Q 1225 2847 1953 2456 
Q 2547 2138 2764 1967 
Q 2981 1797 3098 1565 
Q 3216 1334 3216 1081 
Q 3216 600 2842 251 
Q 2469 -97 1881 -97 
Q 1697 -97 1534 -69 
Q 1438 -53 1133 45 
Q 828 144 747 144 
Q 669 144 623 97 
Q 578 50 556 -97 
L 441 -97 
L 441 1356 
L 556 1356 
Q 638 900 775 673 
Q 913 447 1195 297 
Q 1478 147 1816 147 
Q 2206 147 2432 353 
Q 2659 559 2659 841 
Q 2659 997 2573 1156 
Q 2488 1316 2306 1453 
Q 2184 1547 1640 1851 
Q 1097 2156 867 2337 
Q 638 2519 519 2737 
Q 400 2956 400 3219 
Q 400 3675 750 4004 
Q 1100 4334 1641 4334 
Q 1978 4334 2356 4169 
Q 2531 4091 2603 4091 
Q 2684 4091 2736 4139 
Q 2788 4188 2819 4334 
L 2934 4334 
z
" transform="scale(0.015625)"/>
       <path id="TimesNewRomanPSMT-68" d="M 1041 4444 
L 1041 2350 
Q 1388 2731 1591 2839 
Q 1794 2947 1997 2947 
Q 2241 2947 2416 2812 
Q 2591 2678 2675 2391 
Q 2734 2191 2734 1659 
L 2734 647 
Q 2734 375 2778 275 
Q 2809 200 2884 156 
Q 2959 113 3159 113 
L 3159 0 
L 1753 0 
L 1753 113 
L 1819 113 
Q 2019 113 2097 173 
Q 2175 234 2206 353 
Q 2216 403 2216 647 
L 2216 1659 
Q 2216 2128 2167 2275 
Q 2119 2422 2012 2495 
Q 1906 2569 1756 2569 
Q 1603 2569 1437 2487 
Q 1272 2406 1041 2159 
L 1041 647 
Q 1041 353 1073 281 
Q 1106 209 1195 161 
Q 1284 113 1503 113 
L 1503 0 
L 84 0 
L 84 113 
Q 275 113 384 172 
Q 447 203 484 290 
Q 522 378 522 647 
L 522 3238 
Q 522 3728 498 3840 
Q 475 3953 426 3993 
Q 378 4034 297 4034 
Q 231 4034 84 3984 
L 41 4094 
L 897 4444 
L 1041 4444 
z
" transform="scale(0.015625)"/>
       <path id="TimesNewRomanPSMT-72" d="M 1038 2947 
L 1038 2303 
Q 1397 2947 1775 2947 
Q 1947 2947 2059 2842 
Q 2172 2738 2172 2600 
Q 2172 2478 2090 2393 
Q 2009 2309 1897 2309 
Q 1788 2309 1652 2417 
Q 1516 2525 1450 2525 
Q 1394 2525 1328 2463 
Q 1188 2334 1038 2041 
L 1038 669 
Q 1038 431 1097 309 
Q 1138 225 1241 169 
Q 1344 113 1538 113 
L 1538 0 
L 72 0 
L 72 113 
Q 291 113 397 181 
Q 475 231 506 341 
Q 522 394 522 644 
L 522 1753 
Q 522 2253 501 2348 
Q 481 2444 426 2487 
Q 372 2531 291 2531 
Q 194 2531 72 2484 
L 41 2597 
L 906 2947 
L 1038 2947 
z
" transform="scale(0.015625)"/>
       <path id="TimesNewRomanPSMT-6b" d="M 1047 4444 
L 1047 1597 
L 1775 2259 
Q 2006 2472 2044 2528 
Q 2069 2566 2069 2603 
Q 2069 2666 2017 2711 
Q 1966 2756 1847 2763 
L 1847 2863 
L 3091 2863 
L 3091 2763 
Q 2834 2756 2664 2684 
Q 2494 2613 2291 2428 
L 1556 1750 
L 2291 822 
Q 2597 438 2703 334 
Q 2853 188 2966 144 
Q 3044 113 3238 113 
L 3238 0 
L 1847 0 
L 1847 113 
Q 1966 116 2008 148 
Q 2050 181 2050 241 
Q 2050 313 1925 472 
L 1047 1594 
L 1047 644 
Q 1047 366 1086 278 
Q 1125 191 1197 153 
Q 1269 116 1509 113 
L 1509 0 
L 53 0 
L 53 113 
Q 272 113 381 166 
Q 447 200 481 272 
Q 528 375 528 628 
L 528 3234 
Q 528 3731 506 3842 
Q 484 3953 434 3995 
Q 384 4038 303 4038 
Q 238 4038 106 3984 
L 53 4094 
L 903 4444 
L 1047 4444 
z
" transform="scale(0.015625)"/>
       <path id="TimesNewRomanPSMT-4e" d="M -84 4238 
L 1066 4238 
L 3656 1059 
L 3656 3503 
Q 3656 3894 3569 3991 
Q 3453 4122 3203 4122 
L 3056 4122 
L 3056 4238 
L 4531 4238 
L 4531 4122 
L 4381 4122 
Q 4113 4122 4000 3959 
Q 3931 3859 3931 3503 
L 3931 -69 
L 3819 -69 
L 1025 3344 
L 1025 734 
Q 1025 344 1109 247 
Q 1228 116 1475 116 
L 1625 116 
L 1625 0 
L 150 0 
L 150 116 
L 297 116 
Q 569 116 681 278 
Q 750 378 750 734 
L 750 3681 
Q 566 3897 470 3965 
Q 375 4034 191 4094 
Q 100 4122 -84 4122 
L -84 4238 
z
" transform="scale(0.015625)"/>
      </defs>
      <use xlink:href="#TimesNewRomanPSMT-42"/>
      <use xlink:href="#TimesNewRomanPSMT-61" x="66.699219"/>
      <use xlink:href="#TimesNewRomanPSMT-73" x="111.083984"/>
      <use xlink:href="#TimesNewRomanPSMT-65" x="150"/>
      <use xlink:href="#TimesNewRomanPSMT-20" x="194.384766"/>
      <use xlink:href="#TimesNewRomanPSMT-53" x="219.384766"/>
      <use xlink:href="#TimesNewRomanPSMT-68" x="275"/>
      <use xlink:href="#TimesNewRomanPSMT-65" x="325"/>
      <use xlink:href="#TimesNewRomanPSMT-61" x="369.384766"/>
      <use xlink:href="#TimesNewRomanPSMT-72" x="413.769531"/>
      <use xlink:href="#TimesNewRomanPSMT-20" x="447.070312"/>
      <use xlink:href="#TimesNewRomanPSMT-28" x="472.070312"/>
      <use xlink:href="#TimesNewRomanPSMT-6b" x="505.371094"/>
      <use xlink:href="#TimesNewRomanPSMT-4e" x="555.371094"/>
      <use xlink:href="#TimesNewRomanPSMT-29" x="627.587891"/>
     </g>
    </g>
   </g>
   <g id="line2d_31">
    <path d="M 190.048944 140.454875 
L 190.225744 134.833436 
L 190.879344 128.907902 
L 192.015344 122.382643 
L 191.911344 113.513356 
L 192.327344 107.592051 
L 193.487344 103.727571 
L 194.271344 108.445185 
L 194.359344 115.836265 
L 192.359344 131.247707 
L 190.759344 139.259632 
L 189.904144 148.737098 
L 188.319344 157.931594 
L 188.119344 161.483537 
L 186.463344 165.060813 
L 185.535344 168.034139 
L 186.151344 158.856538 
L 188.639344 144.323573 
L 190.927344 132.751263 
L 191.463344 116.773871 
L 192.559344 106.700892 
L 193.695344 100.766922 
L 194.591344 94.541523 
L 196.223344 88.894741 
L 197.607344 83.252188 
L 199.007344 79.679131 
L 200.447344 79.062505 
L 201.487344 82.00204 
L 200.287344 86.162157 
L 199.647344 91.792044 
L 198.687344 95.356653 
L 198.047344 101.282181 
L 195.551344 114.336933 
L 192.503344 122.669837 
L 191.199344 135.112182 
L 189.831504 142.5286 
L 189.683344 150.515182 
L 188.823344 159.992653 
L 187.231344 168.595861 
L 186.167344 180.73834 
L 185.255344 185.781162 
L 184.335344 189.641413 
L 183.391344 191.72781 
L 180.527344 194.143633 
L 179.567344 194.160528 
L 179.967344 189.126149 
L 181.567344 181.705512 
L 182.719344 175.475895 
L 184.583344 169.233606 
L 185.959344 162.999759 
L 188.263344 153.201309 
L 189.600144 143.419748 
L 192.551344 127.104481 
L 195.311344 114.636799 
L 194.271344 108.445185 
L 193.463344 101.65807 
L 194.607344 96.019741 
L 197.887344 84.134889 
L 198.767344 82.048497 
L 196.863344 102.485872 
L 195.535344 112.858715 
L 192.767344 124.735115 
L 191.455344 136.881818 
L 189.372144 144.606544 
L 188.047344 155.275034 
L 187.655344 163.561481 
L 185.567344 170.694923 
L 184.183344 176.633123 
L 183.327344 186.110589 
L 183.135344 190.549462 
L 181.727344 193.531231 
L 179.327344 193.869111 
L 179.967344 190.013078 
L 181.167344 184.374749 
L 184.607344 171.598748 
L 186.215344 164.473754 
L 189.378544 145.197832 
L 192.095344 129.18243 
L 196.455344 108.702823 
L 199.407344 92.978839 
L 200.047344 86.166381 
L 201.887344 79.037162 
L 204.047344 73.086291 
L 205.647344 67.439514 
L 209.167344 57.915586 
L 211.807344 55.208345 
L 213.487344 53.996202 
L 212.767344 58.147875 
L 211.647344 62.012355 
L 210.687344 65.872601 
L 206.287344 82.213211 
L 203.727344 87.876883 
L 201.407344 95.014549 
L 196.591344 120.528536 
L 192.895344 135.378262 
L 191.063344 144.28134 
L 189.444944 150.815047 
L 185.751344 166.256056 
L 185.119344 174.251085 
L 184.471344 180.47226 
L 183.311344 185.223665 
L 182.911344 192.327545 
L 181.247344 197.974322 
L 180.127344 203.021369 
L 178.447344 206.598649 
L 176.847344 212.541068 
L 174.687344 216.126801 
L 171.167344 219.737867 
L 171.327344 215.594641 
L 172.207344 209.960536 
L 173.567344 202.248477 
L 176.367344 192.73722 
L 178.447344 184.125559 
L 181.487344 170.471082 
L 184.263344 163.029326 
L 185.879344 156.495614 
L 188.919344 146.980134 
L 190.011344 137.202802 
L 192.311344 127.108705 
L 193.911344 119.09678 
L 195.295344 113.454227 
L 197.599344 103.36013 
L 199.887344 93.857321 
L 201.727344 87.319385 
L 203.807344 77.8208 
L 205.647344 70.100293 
L 209.167344 60.576375 
L 211.327344 55.80807 
L 213.247344 53.409142 
L 212.607344 60.812883 
L 210.527344 69.720185 
L 208.127344 75.67528 
L 205.567344 84.591025 
L 203.007344 92.915487 
L 200.687344 101.827012 
L 198.367344 109.26032 
L 196.575344 119.050323 
L 194.719344 126.179542 
L 194.055344 131.513787 
L 188.743344 153.192861 
L 186.463344 164.765171 
L 181.567344 182.592442 
L 180.447344 188.526418 
L 177.247344 201.889478 
L 175.567344 207.53626 
L 174.447344 214.357165 
L 173.567344 218.513058 
L 171.087344 218.259655 
L 171.967344 209.669113 
L 174.047344 200.466169 
L 176.847344 190.36363 
L 179.567344 178.191584 
L 182.615344 166.606607 
L 185.655344 157.978056 
L 190.546544 141.628999 
L 189.796944 139.572169 
L 192.343344 129.769494 
L 194.159344 119.683845 
L 196.471344 110.181036 
L 199.407344 92.978839 
L 202.847344 74.289981 
L 207.007344 62.683881 
L 210.527344 51.681739 
L 213.647344 46.600903 
L 217.647344 40.911888 
L 219.567344 40.286814 
L 219.887344 42.943385 
L 220.367344 43.52622 
L 221.727344 39.361875 
L 229.247344 36.274521 
L 229.967344 39.218276 
L 230.767344 46.005396 
L 229.887344 52.526431 
L 189.440944 171.218636 
L 227.167344 64.402831 
L 225.727344 69.454111 
L 223.647344 74.813693 
L 221.327344 82.246996 
L 219.407344 88.784932 
L 217.327344 94.144515 
L 214.767344 102.173335 
L 211.727344 109.619314 
L 209.327344 115.870051 
L 207.727344 122.403757 
L 205.167344 129.250006 
L 203.007344 134.609589 
L 199.727344 141.172862 
L 197.623344 146.828092 
L 195.287344 154.2614 
L 190.367344 167.654026 
L 186.823344 174.812812 
L 184.439344 178.107117 
L 182.631344 188.488409 
L 181.087344 200.934972 
L 177.327344 209.280553 
L 173.807344 217.621909 
L 172.367344 222.081896 
L 170.767344 226.250455 
L 169.327344 231.006093 
L 167.487344 235.178881 
L 165.567344 237.577809 
L 164.607344 239.368559 
L 162.447344 239.406569 
L 161.647344 237.054097 
L 161.007344 239.727558 
L 157.647344 241.856182 
L 154.207344 242.802241 
L 152.047344 244.614114 
L 148.687344 244.081955 
L 149.567344 233.421912 
L 151.167344 226.592559 
L 152.767344 219.171922 
L 155.087344 210.556043 
L 158.287344 197.784266 
L 161.807344 187.077767 
L 226.687344 46.077196 
L 167.647344 168.642318 
L 170.447344 160.609279 
L 173.967344 151.972281 
L 180.127344 140.628036 
L 182.967344 134.664493 
L 186.279344 128.692508 
L 194.119344 115.840484 
L 196.455344 108.998464 
L 198.607344 105.117094 
L 204.287344 95.555157 
L 207.567344 86.035453 
L 210.367344 77.115479 
L 217.887344 61.015616 
L 221.247344 55.339268 
L 227.887344 43.690934 
L 229.567344 41.296229 
L 230.767344 41.570752 
L 231.487344 45.401441 
L 229.647344 53.121938 
L 227.327344 59.668326 
L 225.487344 70.640901 
L 222.447344 79.86074 
L 220.367344 84.629034 
L 217.807344 92.657854 
L 215.247344 100.095386 
L 212.127344 107.541365 
L 210.767344 113.479565 
L 207.967344 120.921321 
L 206.127344 127.16361 
L 201.167344 139.373665 
L 197.391344 148.014887 
L 193.655344 159.316893 
L 187.327344 176.578219 
L 179.887344 184.100222 
L 174.287344 197.801156 
L 171.647344 202.577909 
L 169.567344 208.233133 
L 167.647344 212.110279 
L 164.847344 216.595609 
L 161.727344 221.972082 
L 159.647344 227.627307 
L 157.007344 232.995337 
L 153.167344 237.497562 
L 150.047344 239.326326 
L 149.567344 235.195771 
L 151.807344 223.32782 
L 154.367344 211.159997 
L 157.807344 199.862215 
L 161.167344 191.22944 
L 166.207344 172.215375 
L 170.207344 162.091716 
L 172.527344 155.249691 
L 176.127344 148.090911 
L 178.927344 140.944797 
L 182.479344 134.377299 
L 186.031344 127.514161 
L 192.207344 117.943776 
L 196.231344 110.776543 
L 201.407344 98.562269 
L 206.367344 87.830426 
L 213.647344 69.960918 
L 216.527344 63.99738 
L 219.807344 57.729748 
L 222.847344 51.466345 
L 229.087344 43.965461 
L 231.007344 43.931671 
L 230.847344 49.257463 
L 228.527344 56.986423 
L 226.207344 65.897949 
L 218.287344 91.762477 
L 214.927344 98.621397 
L 213.087344 106.341904 
L 209.567344 113.796326 
L 206.127344 126.27668 
L 202.047344 135.513414 
L 196.223344 151.58372 
L 193.199344 161.394842 
L 188.471344 171.235526 
L 194.215344 165.812591 
L 182.071344 181.992711 
L 175.887344 192.745663 
L 174.527344 196.614366 
L 171.407344 203.469057 
L 161.007344 224.054255 
L 157.247344 230.625981 
L 153.167344 236.314996 
L 151.007344 237.535576 
L 150.047344 236.369895 
L 150.927344 227.779354 
L 153.007344 218.576415 
L 154.527344 209.086273 
L 156.847344 200.76604 
L 160.847344 190.938018 
L 164.127344 179.9401 
L 165.967344 173.106528 
L 170.447344 162.087492 
L 178.687344 141.540304 
L 182.255344 135.859736 
L 186.047344 128.992374 
L 195.295344 113.158581 
L 201.007344 102.11843 
L 205.647344 90.20824 
L 211.567344 78.868225 
L 214.847344 71.418016 
L 219.647344 62.168621 
L 223.887344 54.997169 
L 227.407344 49.316592 
L 231.007344 44.522959 
L 234.607344 41.798818 
L 237.487344 39.382994 
L 238.287344 42.918037 
L 238.927344 39.94894 
L 241.087344 37.841424 
L 244.687344 36.004217 
L 247.807344 35.062388 
L 251.007344 34.41619 
L 251.967344 37.947014 
L 252.047344 42.381658 
L 251.647344 48.894251 
L 249.247344 55.144987 
L 247.167344 62.27843 
L 244.607344 67.942102 
L 242.047344 77.153493 
L 240.207344 82.804494 
L 237.087344 90.250478 
L 233.807344 99.178895 
L 231.007344 105.73372 
L 228.447344 112.284322 
L 225.567344 119.134795 
L 219.487344 130.774676 
L 215.887344 137.342178 
L 213.487344 140.636484 
L 210.207344 144.834614 
L 200.607344 156.82927 
L 197.063344 161.031625 
L 193.263344 167.012057 
L 183.015344 180.497598 
L 175.407344 194.52797 
L 172.607344 200.491507 
L 170.767344 206.142518 
L 167.167344 212.118727 
L 163.167344 220.17288 
L 158.207344 230.904722 
L 153.887344 235.711036 
L 149.407344 240.521569 
L 146.287344 242.645975 
L 135.647344 246.97081 
L 132.527344 247.912639 
L 130.367344 248.837578 
L 128.207344 248.875587 
L 128.127344 241.188876 
L 129.967344 233.76401 
L 133.887344 216.840565 
L 136.847344 206.142518 
L 143.167344 187.402975 
L 145.967344 177.891718 
L 149.247344 168.66766 
L 153.967344 160.009543 
L 158.767344 151.647072 
L 163.967344 144.163079 
L 168.767344 139.05268 
L 172.607344 135.43739 
L 177.087344 130.331216 
L 182.151344 126.990448 
L 187.639344 120.684807 
L 190.983344 117.077965 
L 200.047344 104.500468 
L 204.767344 96.137992 
L 209.487344 86.888597 
L 213.327344 80.316871 
L 217.567344 74.623637 
L 223.087344 67.431066 
L 227.327344 61.146539 
L 232.367344 54.553699 
L 237.327344 48.847794 
L 242.127344 45.511245 
L 247.407344 40.983688 
L 250.047344 39.754664 
L 252.527344 40.894998 
L 251.407344 48.011545 
L 246.927344 62.873937 
L 243.407344 70.624005 
L 241.567344 77.753224 
L 237.807344 87.577018 
L 234.287344 96.214016 
L 231.727344 103.651548 
L 228.207344 111.401616 
L 224.847344 119.738749 
L 223.247344 122.724742 
L 220.607344 129.275344 
L 218.047344 132.86952 
L 211.887344 143.031193 
L 206.847344 148.441457 
L 201.327344 152.086313 
L 197.479344 155.405962 
L 194.143344 159.604087 
L 189.610544 165.005908 
L 184.127344 172.198479 
L 180.127344 180.548284 
L 175.567344 186.541388 
L 172.527344 191.622224 
L 169.887344 196.398967 
L 167.567344 201.467132 
L 164.207344 207.439122 
L 160.927344 213.706754 
L 156.847344 219.100122 
L 153.567344 224.776471 
L 150.687344 227.487941 
L 146.847344 231.694514 
L 141.567344 235.926435 
L 137.727344 240.428655 
L 133.647344 243.752522 
L 130.527344 245.285645 
L 128.127344 244.440948 
L 129.487344 235.250676 
L 131.327344 226.051961 
L 133.887344 218.614424 
L 135.487344 211.48943 
L 138.527344 200.791378 
L 141.567344 190.980256 
L 143.647344 183.25553 
L 147.327344 172.24916 
L 150.207344 165.398693 
L 161.567344 146.274818 
L 169.887344 136.370777 
L 174.447344 130.082031 
L 181.167344 125.824772 
L 186.895344 119.219261 
L 194.543344 111.101751 
L 199.247344 102.147992 
L 204.527344 97.620434 
L 209.967344 88.654004 
L 214.287344 80.891264 
L 218.607344 76.084955 
L 222.847344 69.504786 
L 228.127344 62.907722 
L 231.887344 58.996791 
L 236.447344 54.4819 
L 241.727344 47.884846 
L 245.567344 45.452117 
L 249.887344 41.237101 
L 251.567344 40.616246 
L 251.407344 48.307187 
L 249.247344 53.371133 
L 247.007344 63.760867 
L 243.887344 70.319921 
L 241.807344 77.749 
L 238.527344 86.677421 
L 235.487344 93.827759 
L 233.407344 100.665555 
L 231.247344 105.729497 
L 224.847344 119.147461 
L 220.847344 127.497265 
L 204.687344 149.662037 
L 199.887344 154.181152 
L 192.951344 161.103419 
L 184.895344 175.43788 
L 177.727344 185.320802 
L 174.207344 189.523157 
L 169.887344 194.920754 
L 165.567344 200.022705 
L 161.807344 207.776997 
L 155.407344 216.169039 
L 153.727344 221.224528 
L 149.647344 225.730972 
L 141.327344 235.339366 
L 135.087344 238.996894 
L 131.967344 242.00823 
L 128.847344 243.541347 
L 129.007344 237.624266 
L 131.807344 226.930443 
L 135.247344 212.380583 
L 137.087344 203.477505 
L 140.847344 193.062428 
L 143.887344 183.251301 
L 147.327344 171.657877 
L 150.927344 163.907808 
L 157.087344 154.928706 
L 166.367344 139.981843 
L 179.487344 126.741264 
L 187.375344 118.61953 
L 192.879344 113.200819 
L 196.207344 108.707042 
L 207.407344 94.613323 
L 211.887344 85.959429 
L 216.207344 80.857478 
L 220.447344 74.277315 
L 227.167344 65.881049 
L 232.847344 58.388612 
L 236.927344 52.403956 
L 242.207344 48.763323 
L 245.807344 45.447898 
L 249.407344 41.541185 
L 252.447344 39.121138 
L 256.367344 37.870996 
L 264.767344 34.175458 
L 268.367344 33.225176 
L 270.607344 34.369734 
L 271.407344 39.091576 
L 268.367344 51.559264 
L 265.567344 59.00102 
L 263.727344 67.312805 
L 261.407344 75.633042 
L 259.487344 80.397118 
L 257.167344 86.647855 
L 254.367344 93.202681 
L 251.247344 101.239948 
L 248.687344 108.67748 
L 244.207344 115.853155 
L 241.407344 123.886199 
L 235.887344 130.487482 
L 232.607344 137.642043 
L 228.287344 141.265781 
L 223.007344 146.97591 
L 216.047344 149.463538 
L 209.087344 152.246803 
L 204.287344 155.878988 
L 199.247344 160.402327 
L 187.775344 173.908987 
L 182.071344 182.583994 
L 175.167344 188.914978 
L 169.647344 196.403196 
L 162.447344 203.329682 
L 158.447344 212.566416 
L 151.327344 222.449338 
L 145.407344 229.945998 
L 140.127344 235.951773 
L 136.527344 238.675915 
L 132.447344 242.295424 
L 127.887344 245.627738 
L 123.807344 247.769044 
L 118.767344 249.927235 
L 115.647344 251.755995 
L 111.247344 252.423311 
L 108.207344 252.473987 
L 109.007344 245.661529 
L 109.887344 235.592779 
L 111.487344 228.763421 
L 114.047344 220.143323 
L 118.287344 209.128511 
L 122.287344 197.230992 
L 126.047344 187.70284 
L 130.527344 177.866375 
L 134.047344 169.525024 
L 141.567344 153.720797 
L 155.887344 136.91138 
L 150.367344 142.625737 
L 155.167344 137.810981 
L 161.647344 135.036159 
L 166.927344 131.691172 
L 171.807344 129.5372 
L 175.407344 126.221775 
L 181.855344 122.264387 
L 186.639344 117.745272 
L 192.863344 112.313889 
L 201.487344 102.701266 
L 208.607344 92.227061 
L 214.767344 83.839247 
L 219.087344 78.737297 
L 224.287344 72.140233 
L 229.087344 66.438546 
L 234.367344 61.615342 
L 239.647344 56.496496 
L 244.847344 50.786362 
L 255.167344 42.6224 
L 262.607344 39.239395 
L 267.247344 37.976581 
L 271.407344 38.204647 
L 272.207344 40.840088 
L 270.607344 45.895587 
L 269.087344 53.320447 
L 267.487344 59.262876 
L 261.167344 79.480622 
L 257.407344 86.643631 
L 255.247344 92.003219 
L 251.967344 99.749064 
L 249.887344 105.995576 
L 247.567344 111.950666 
L 243.967344 117.92688 
L 239.967344 124.207184 
L 236.367344 130.183393 
L 231.647344 139.432793 
L 228.287344 143.039636 
L 222.287344 148.171153 
L 216.047344 152.124323 
L 208.367344 156.398477 
L 204.047344 160.317856 
L 200.687344 163.629057 
L 195.919344 166.374317 
L 186.119344 176.894979 
L 178.927344 184.117117 
L 171.807344 190.747966 
L 167.247344 197.627995 
L 162.447344 202.738398 
L 153.887344 212.9423 
L 149.567344 217.452972 
L 147.007344 221.934073 
L 142.447344 226.153318 
L 132.127344 236.682437 
L 127.567344 239.127822 
L 122.287344 243.655385 
L 117.247344 246.109218 
L 112.927344 248.550384 
L 109.007344 250.387596 
L 109.007344 243.891898 
L 109.807344 236.483933 
L 112.687344 224.603305 
L 115.727344 215.087824 
L 119.727344 205.555454 
L 122.527344 196.635485 
L 125.087344 190.38052 
L 128.127344 182.638904 
L 132.607344 172.506797 
L 140.687344 156.694118 
L 144.687344 148.344319 
L 151.087344 140.839211 
L 160.927344 134.457547 
L 167.407344 130.795795 
L 177.087344 126.487855 
L 182.815344 121.95185 
L 189.040144 116.224821 
L 194.071344 112.29277 
L 202.447344 101.206158 
L 207.887344 95.787446 
L 211.967344 89.802785 
L 219.807344 80.794126 
L 224.127344 74.213958 
L 228.687344 70.29035 
L 232.927344 66.075334 
L 241.567344 56.462706 
L 245.647344 53.43448 
L 250.447344 49.211007 
L 256.447344 45.262061 
L 260.527344 42.825123 
L 267.247344 39.750436 
L 270.607344 38.800154 
L 272.207344 42.330978 
L 268.847344 52.733388 
L 265.327344 63.144241 
L 262.767344 71.468702 
L 261.407344 78.885115 
L 258.607344 85.439941 
L 254.367344 96.454753 
L 250.127344 105.695706 
L 239.967344 124.798467 
L 217.967344 151.794891 
L 207.407344 157.893585 
L 193.535344 169.668618 
L 177.727344 185.91209 
L 165.087344 196.187791 
L 161.247344 200.690016 
L 153.407344 211.472534 
L 148.127344 218.069598 
L 142.447344 224.970746 
L 136.447344 230.397905 
L 127.087344 237.953698 
L 120.127344 243.397748 
L 113.167344 247.067947 
L 110.287344 248.301199 
L 109.007344 247.143966 
L 109.007344 239.448807 
L 110.527344 231.441101 
L 113.087344 222.525361 
L 117.567344 209.141182 
L 122.927344 194.26189 
L 127.167344 184.134007 
L 129.807344 178.765976 
L 132.847344 173.389498 
L 135.967344 167.12609 
L 140.607344 156.398477 
L 145.647344 146.849211 
L 150.607344 142.325872 
L 161.167344 135.044606 
L 169.407344 131.057651 
L 184.255344 121.039577 
L 194.543344 110.806109 
L 203.327344 99.415408 
L 213.887344 88.290786 
L 225.327344 77.740558 
L 231.567344 70.535315 
L 237.487344 63.03865 
L 243.007344 57.915586 
L 249.967344 52.17589 
L 251.727344 54.215825 
L 252.607344 51.833787 
L 254.767344 48.839341 
L 259.327344 46.098315 
L 264.367344 42.757547 
L 271.407344 38.791706 
L 277.007344 36.924938 
L 281.807344 33.871364 
L 287.407344 32.600103 
L 292.207344 32.224209 
L 289.807344 52.670031 
L 287.407344 57.438335 
L 285.807344 65.158832 
L 282.607344 73.191876 
L 280.207344 80.033901 
L 274.607344 94.921636 
L 269.807344 104.753877 
L 265.487344 114.298919 
L 261.407344 121.466147 
L 257.407344 126.563879 
L 251.647344 134.351957 
L 242.367344 143.681604 
L 234.127344 146.485988 
L 223.327344 150.815047 
L 215.807344 153.606759 
L 204.527344 160.60505 
L 192.343344 171.16795 
L 183.735344 179.893643 
L 176.527344 186.524493 
L 157.647344 206.666225 
L 151.967344 214.158661 
L 141.647344 224.687771 
L 136.207344 230.402134 
L 128.767344 236.150277 
L 120.127344 242.510818 
L 112.207344 246.493554 
L 106.607344 248.073134 
L 99.407344 250.556533 
L 93.807344 252.727395 
L 89.807344 253.686125 
L 87.407344 253.137075 
L 87.407344 246.033199 
L 90.607344 236.526161 
L 93.007344 228.50157 
L 96.207344 216.903922 
L 100.207344 208.853983 
L 104.207344 196.065311 
L 108.207344 186.53294 
L 113.967344 174.60586 
L 119.407344 162.683004 
L 123.967344 154.91604 
L 127.007344 149.243915 
L 131.807344 144.133517 
L 136.847344 140.792749 
L 142.607344 138.326245 
L 149.327344 135.842841 
L 158.287344 134.208362 
L 168.607344 129.296463 
L 174.607344 124.164946 
L 185.159344 115.405467 
L 192.599344 110.248612 
L 191.887344 111.443854 
L 201.247344 103.001136 
L 217.007344 86.757664 
L 222.287344 83.117036 
L 227.087344 78.893562 
L 237.327344 68.364453 
L 240.447344 64.761834 
L 243.807344 62.337558 
L 245.247344 64.086075 
L 245.487344 60.829779 
L 248.127344 59.009462 
L 252.207344 56.868166 
L 257.247344 52.936111 
L 262.287344 50.186631 
L 267.327344 47.14151 
L 273.007344 43.192569 
L 279.407344 40.421966 
L 285.007344 37.364174 
L 290.607344 35.493177 
L 291.407344 41.993098 
L 289.807344 49.409511 
L 286.607344 60.698851 
L 285.007344 68.12794 
L 281.807344 77.647639 
L 278.607344 83.615405 
L 275.407344 92.243951 
L 267.087344 110.721638 
L 263.087344 118.184513 
L 257.647344 127.150938 
L 254.047344 132.535864 
L 249.007344 137.650491 
L 232.447344 148.289415 
L 220.447344 152.048299 
L 206.207344 159.688559 
L 197.135344 167.53577 
L 186.855344 177.769238 
L 175.087344 184.480334 
L 168.607344 191.098512 
L 163.407344 196.808646 
L 157.887344 203.705575 
L 153.087344 207.929039 
L 149.567344 213.31397 
L 143.087344 220.227789 
L 136.847344 224.180964 
L 132.767344 228.687403 
L 126.767344 233.227632 
L 120.287344 237.480667 
L 113.567344 240.850996 
L 109.967344 243.870779 
L 102.607344 246.062761 
L 97.807344 248.220952 
L 91.407344 250.400267 
L 87.407344 249.880779 
L 88.207344 244.250892 
L 89.807344 238.608334 
L 91.407344 231.774757 
L 94.607344 220.781068 
L 97.807344 210.670081 
L 102.607344 200.242323 
L 106.607344 188.627779 
L 112.367344 177.887494 
L 117.087344 166.272951 
L 123.007344 157.002431 
L 127.727344 148.935602 
L 137.087344 139.901601 
L 143.087344 137.135226 
L 151.007344 134.03942 
L 160.207344 130.626857 
L 165.727344 128.164572 
L 171.487344 124.811138 
L 177.487344 121.749122 
L 185.383344 113.627388 
L 191.607344 108.491647 
L 207.887344 96.970018 
L 215.567344 90.922009 
L 219.647344 87.30249 
L 224.447344 84.261593 
L 228.287344 81.533233 
L 230.207344 79.725588 
L 231.007344 81.782417 
L 232.127344 79.987444 
L 234.047344 75.223363 
L 237.647344 70.725372 
L 242.927344 66.789097 
L 249.407344 62.240421 
L 254.687344 59.191076 
L 259.007344 55.86298 
L 263.327344 52.830525 
L 268.367344 50.967976 
L 271.407344 49.439082 
L 271.407344 52.986791 
L 273.007344 49.709381 
L 275.407344 46.702269 
L 278.607344 44.286446 
L 281.807344 42.153593 
L 285.007344 41.220201 
L 288.207344 42.335196 
L 289.807344 48.231168 
L 289.807344 53.248647 
L 291.407344 58.844744 
L 293.007344 69.758195 
L 290.607344 75.117783 
L 285.807344 90.288488 
L 283.407344 96.239359 
L 279.407344 105.484536 
L 274.607344 116.212154 
L 272.207344 120.389161 
L 268.047344 125.491116 
L 263.247344 132.375374 
L 256.767344 139.58484 
L 249.567344 144.44183 
L 239.007344 150.244878 
L 227.487344 153.699678 
L 217.807344 155.051187 
L 204.847344 161.487756 
L 184.399344 174.559398 
L 177.967344 179.699368 
L 174.127344 184.201583 
L 169.327344 188.425056 
L 164.767344 192.644301 
L 159.967344 198.641629 
L 155.487344 202.269596 
L 152.607344 205.572344 
L 150.687344 207.379994 
L 149.167344 205.335831 
L 145.887344 210.125249 
L 143.247344 214.310709 
L 137.727344 219.72942 
L 135.407344 223.023725 
L 132.527344 225.735196 
L 130.127344 226.96 
L 128.847344 223.43341 
L 126.927344 227.606198 
L 120.927344 231.555139 
L 117.167344 234.874787 
L 113.087344 237.607376 
L 110.367344 238.540758 
L 109.887344 235.297138 
L 107.407344 240.069652 
L 102.607344 242.819131 
L 97.807344 244.373377 
L 93.007344 246.235927 
L 89.807344 246.890562 
L 87.407344 243.668051 
L 85.807344 246.958138 
L 82.607344 249.673832 
L 77.007344 250.653671 
L 75.407344 250.391814 
L 74.607344 247.143966 
L 73.807344 241.839292 
L 72.207344 234.473555 
L 70.607344 217.651476 
L 69.807344 208.199343 
L 70.607344 201.38689 
L 73.007344 193.957801 
L 74.607344 187.415646 
L 77.007344 182.351705 
L 83.407344 171.590301 
L 87.407344 166.492569 
L 90.607344 161.998797 
L 94.607344 158.096313 
L 98.607344 154.476799 
L 101.007344 151.765329 
L 103.407344 149.653595 
L 103.407344 149.653595 
" clip-path="url(#p5ab1b360b7)" style="fill: none; stroke-dasharray: 4.07,1.76; stroke-dashoffset: 0; stroke: #433f40; stroke-width: 1.1"/>
   </g>
   <g id="line2d_32">
    <path d="M 58.647344 32.224209 
L 304.167344 32.224209 
" clip-path="url(#p5ab1b360b7)" style="fill: none; stroke-dasharray: 3.7,1.6; stroke-dashoffset: 0; stroke: #ff0000"/>
   </g>
   <g id="line2d_33">
    <path d="M 58.647344 253.686125 
L 304.167344 253.686125 
" clip-path="url(#p5ab1b360b7)" style="fill: none; stroke-dasharray: 3.7,1.6; stroke-dashoffset: 0; stroke: #ff0000"/>
   </g>
   <g id="line2d_34">
    <path d="M 189.807344 140.315499 
L 190.879344 116.895944 
L 192.015344 98.987021 
L 191.911344 100.975811 
L 192.327344 96.144008 
L 193.487344 87.603147 
L 194.359344 82.365535 
L 193.471344 94.58545 
L 190.759344 119.563037 
L 188.119344 174.405764 
L 186.463344 188.344317 
L 185.535344 193.434194 
L 186.151344 184.217317 
L 187.279344 172.570139 
L 188.639344 159.844464 
L 190.927344 114.711006 
L 191.463344 107.905868 
L 192.559344 96.006213 
L 193.695344 87.888048 
L 194.591344 83.069939 
L 196.223344 75.915233 
L 197.607344 71.282803 
L 201.463344 62.578435 
L 200.303344 73.949289 
L 199.639344 79.293384 
L 198.055344 90.12087 
L 195.551344 105.807523 
L 192.503344 128.086204 
L 191.199344 139.63698 
L 189.679344 156.03419 
L 188.823344 166.756545 
L 187.231344 183.698808 
L 186.167344 190.84596 
L 184.335344 199.457937 
L 183.391344 203.180769 
L 180.519344 212.551149 
L 179.551344 215.133544 
L 179.975344 210.32444 
L 181.583344 196.392197 
L 185.959344 165.464657 
L 188.263344 144.100527 
L 189.599344 127.748057 
L 192.551344 104.796862 
L 195.311344 90.502079 
L 193.463344 107.724226 
L 194.607344 96.692917 
L 195.999344 87.635094 
L 197.855344 80.47148 
L 198.799344 77.333479 
L 197.519344 89.254071 
L 196.863344 94.511254 
L 195.535344 104.238454 
L 191.455344 137.368189 
L 188.047344 167.628102 
L 187.655344 170.386231 
L 185.567344 183.050432 
L 183.135344 195.677874 
L 181.719344 202.013163 
L 179.303344 211.113837 
L 179.983344 204.112595 
L 181.127344 194.43589 
L 184.607344 169.762439 
L 186.215344 157.620772 
L 188.023344 141.973912 
L 189.375344 127.954175 
L 192.095344 109.096742 
L 194.159344 98.323794 
L 196.455344 88.174479 
L 200.055344 75.36303 
L 201.911344 70.360687 
L 204.015344 65.814882 
L 205.647344 62.611188 
L 207.519344 59.364752 
L 209.159344 56.970804 
L 211.791344 53.588873 
L 213.471344 51.737162 
L 212.791344 57.569168 
L 210.703344 72.723884 
L 207.687344 90.86837 
L 203.703344 112.6937 
L 201.375344 124.251191 
L 200.231344 128.618391 
L 196.591344 137.180161 
L 194.743344 142.234229 
L 192.895344 147.995865 
L 191.063344 154.364457 
L 189.447344 161.562585 
L 184.471344 186.343847 
L 182.911344 193.114602 
L 180.135344 203.512273 
L 178.487344 208.633922 
L 176.863344 212.913692 
L 174.727344 217.609118 
L 172.815344 221.116564 
L 171.143344 223.746876 
L 171.335344 221.89842 
L 172.231344 214.401901 
L 173.599344 204.371577 
L 176.391344 186.891183 
L 180.071344 165.656647 
L 181.447344 158.161072 
L 184.263344 145.354711 
L 190.007344 125.744733 
L 195.295344 105.529343 
L 197.599344 97.414279 
L 199.903344 90.037575 
L 201.767344 84.584882 
L 203.831344 79.014814 
L 205.679344 74.547215 
L 209.191344 67.186901 
L 211.311344 63.359967 
L 213.223344 60.290664 
L 212.583344 65.506536 
L 210.511344 80.271665 
L 208.159344 94.596723 
L 205.607344 109.107144 
L 203.039344 121.271614 
L 200.727344 127.479638 
L 196.575344 137.01197 
L 194.055344 143.342179 
L 191.055344 151.229631 
L 188.743344 158.44137 
L 186.463344 167.673629 
L 183.679344 179.606135 
L 180.447344 192.177344 
L 178.599344 198.555511 
L 177.223344 202.875005 
L 174.463344 210.453336 
L 173.543344 212.676156 
L 171.119344 217.892069 
L 171.991344 210.660327 
L 174.055344 195.966317 
L 176.847344 178.699326 
L 179.607344 162.962959 
L 181.687344 152.677847 
L 182.615344 149.154774 
L 190.543344 125.408967 
L 189.799344 131.767345 
L 192.343344 119.535759 
L 196.471344 105.09277 
L 199.415344 95.32438 
L 202.823344 85.194198 
L 207.039344 74.5654 
L 210.543344 67.230741 
L 213.623344 61.810885 
L 216.487344 57.661119 
L 217.671344 56.173922 
L 220.367344 53.197522 
L 221.767344 51.891735 
L 225.375344 48.839993 
L 229.991344 45.66858 
L 230.791344 45.200909 
L 229.903344 51.95334 
L 189.439344 165.82811 
L 227.143344 54.247356 
L 225.743344 64.247417 
L 223.631344 77.705938 
L 221.303344 90.929293 
L 219.439344 100.763478 
L 217.327344 111.07256 
L 214.759344 122.273031 
L 211.703344 129.483779 
L 205.159344 141.911809 
L 203.047344 145.684399 
L 197.623344 154.408533 
L 192.711344 161.608002 
L 190.367344 164.951742 
L 186.823344 171.033239 
L 184.439344 177.298734 
L 181.079344 188.251201 
L 177.303344 200.432352 
L 173.775344 209.870991 
L 172.375344 213.016364 
L 170.735344 216.31224 
L 169.335344 218.814248 
L 167.447344 221.767058 
L 164.599344 225.481637 
L 161.663344 228.620246 
L 160.967344 229.281234 
L 157.607344 232.111052 
L 154.231344 234.471387 
L 152.079344 235.785768 
L 148.687344 237.625339 
L 149.527344 231.248836 
L 151.143344 220.272604 
L 152.751344 210.460816 
L 155.063344 197.805884 
L 158.303344 181.624047 
L 161.807344 166.186444 
L 226.687344 54.733846 
L 167.639344 211.005907 
L 170.447344 191.778031 
L 173.975344 171.622107 
L 177.055344 158.724912 
L 180.135344 150.223302 
L 186.279344 136.900441 
L 190.319344 128.484712 
L 194.119344 119.924487 
L 196.455344 114.188446 
L 198.583344 108.60907 
L 204.279344 93.250201 
L 207.559344 85.088073 
L 210.351344 78.802534 
L 214.367344 70.920733 
L 217.911344 65.082784 
L 221.231344 60.461666 
L 225.495344 55.503585 
L 229.527344 51.662988 
L 231.511344 50.00828 
L 229.671344 62.900969 
L 227.327344 77.386795 
L 225.519344 87.278575 
L 222.479344 102.546686 
L 220.359344 112.12748 
L 217.791344 118.709047 
L 215.223344 123.876272 
L 210.783344 132.127422 
L 206.103344 139.921894 
L 201.167344 147.488847 
L 197.391344 152.883536 
L 193.655344 157.92772 
L 187.327344 166.785584 
L 179.919344 184.049605 
L 174.271344 199.589511 
L 171.663344 205.717426 
L 169.551344 210.096338 
L 167.663344 213.580987 
L 164.815344 218.141988 
L 161.735344 222.271685 
L 159.623344 224.713136 
L 157.023344 227.371371 
L 153.207344 230.733158 
L 149.551344 233.50325 
L 151.831344 217.608037 
L 154.351344 202.520949 
L 157.847344 184.289624 
L 161.127344 169.236274 
L 164.375344 158.775206 
L 166.231344 154.12529 
L 170.223344 146.403316 
L 176.111344 136.981875 
L 182.479344 128.378339 
L 186.031344 123.918838 
L 192.207344 116.618557 
L 196.231344 111.431494 
L 201.415344 101.534314 
L 206.367344 89.982031 
L 210.599344 80.634672 
L 213.655344 74.605059 
L 216.487344 69.630323 
L 219.807344 64.540139 
L 222.879344 60.488142 
L 229.079344 53.854708 
L 231.015344 52.119171 
L 228.503344 69.0789 
L 226.191344 82.638059 
L 222.927344 99.448693 
L 220.367344 109.531691 
L 218.263344 114.474075 
L 214.959344 121.223112 
L 213.111344 124.715624 
L 209.575344 131.036433 
L 206.087344 136.693553 
L 199.271344 147.018715 
L 193.199344 155.468486 
L 188.471344 161.905652 
L 194.215344 140.601277 
L 182.071344 173.756621 
L 174.495344 194.00064 
L 171.431344 201.502086 
L 168.359344 208.046166 
L 164.575344 214.777585 
L 161.031344 219.922923 
L 157.239344 224.443621 
L 153.191344 228.434021 
L 150.047344 231.098377 
L 150.911344 224.840183 
L 152.983344 211.19354 
L 154.567344 201.859718 
L 156.887344 189.415804 
L 160.887344 170.43601 
L 164.143344 159.230957 
L 165.999344 154.50858 
L 170.463344 145.896624 
L 174.927344 138.877614 
L 178.695344 133.558309 
L 182.255344 128.936032 
L 186.047344 124.234693 
L 189.367344 120.318898 
L 195.295344 113.15002 
L 200.967344 102.996951 
L 205.671344 92.224866 
L 211.583344 79.23314 
L 214.887344 72.93703 
L 219.615344 65.305811 
L 223.887344 59.698186 
L 227.447344 55.795343 
L 231.023344 52.428542 
L 234.615344 49.516539 
L 238.951344 46.522949 
L 241.103344 45.224279 
L 244.711344 43.297136 
L 247.839344 41.817928 
L 252.039344 40.059741 
L 251.631344 42.966602 
L 249.287344 58.000776 
L 247.191344 70.010208 
L 244.599344 83.300613 
L 242.047344 95.294875 
L 240.175344 103.378241 
L 237.119344 112.163171 
L 233.831344 118.593776 
L 228.423344 128.055571 
L 225.599344 132.555454 
L 222.287344 137.320044 
L 219.447344 141.129282 
L 213.519344 148.398623 
L 210.175344 152.111163 
L 204.215344 157.987347 
L 200.639344 161.099271 
L 197.063344 163.940056 
L 193.263344 166.71442 
L 183.015344 175.053975 
L 175.439344 189.875132 
L 170.735344 200.978526 
L 167.183344 208.225984 
L 163.159344 215.019432 
L 158.207344 221.597317 
L 153.911344 226.091571 
L 149.367344 229.988313 
L 146.247344 232.280739 
L 140.951344 235.627123 
L 135.655344 238.3145 
L 130.359344 240.543597 
L 128.087344 241.390704 
L 129.935344 228.976087 
L 132.471344 213.989451 
L 133.855344 206.588653 
L 136.871344 191.789436 
L 139.439344 180.373754 
L 143.183344 167.977117 
L 145.975344 161.109705 
L 149.255344 154.177288 
L 153.991344 146.560085 
L 158.735344 140.266842 
L 163.967344 134.024666 
L 168.743344 128.902754 
L 172.575344 125.182122 
L 177.111344 121.210166 
L 182.151344 117.309177 
L 187.639344 113.584645 
L 190.983344 111.501046 
L 200.031344 104.635761 
L 204.767344 97.570137 
L 213.295344 81.135298 
L 217.583344 73.530652 
L 223.063344 65.378746 
L 227.343344 60.220667 
L 232.343344 55.29602 
L 237.359344 51.248124 
L 242.159344 47.978441 
L 247.431344 44.868956 
L 252.503344 42.230751 
L 251.383344 49.732356 
L 248.815344 65.312532 
L 246.959344 75.431458 
L 243.423344 92.667856 
L 241.567344 100.851767 
L 237.815344 110.174758 
L 234.287344 116.976359 
L 231.711344 121.599856 
L 228.175344 127.402942 
L 223.223344 134.585704 
L 218.023344 141.294162 
L 211.847344 148.569902 
L 206.831344 153.858257 
L 201.311344 159.019812 
L 197.479344 162.226539 
L 194.143344 164.799234 
L 189.607344 168.07958 
L 184.127344 172.445407 
L 180.119344 177.378991 
L 175.591344 185.537516 
L 167.543344 202.699485 
L 164.223344 208.759142 
L 160.911344 213.952329 
L 156.863344 219.237791 
L 153.543344 222.847898 
L 150.671344 225.547355 
L 146.847344 228.668065 
L 141.575344 232.313877 
L 137.759344 234.611624 
L 130.559344 238.417217 
L 128.127344 239.585775 
L 129.471344 230.562073 
L 131.295344 219.270522 
L 133.871344 205.104767 
L 135.479344 197.095811 
L 138.503344 183.181513 
L 141.535344 172.055577 
L 143.623344 166.538088 
L 147.359344 157.996936 
L 150.183344 152.877274 
L 156.351344 144.038902 
L 161.575344 137.484734 
L 169.927344 128.548919 
L 174.447344 124.296922 
L 181.167344 118.781735 
L 186.895344 114.746648 
L 194.543344 109.901591 
L 199.279344 106.187897 
L 204.543344 99.099877 
L 210.007344 88.910515 
L 214.271344 80.715222 
L 218.567344 73.220935 
L 222.847344 66.808547 
L 228.087344 60.367319 
L 231.911344 56.507917 
L 236.455344 52.629023 
L 241.703344 48.8651 
L 245.543344 46.468633 
L 251.535344 43.175957 
L 249.263344 57.785118 
L 246.967344 71.005004 
L 243.903344 86.547818 
L 241.807344 96.20404 
L 238.527344 106.710238 
L 235.463344 112.858223 
L 231.247344 120.555478 
L 227.471344 126.727421 
L 224.879344 130.579129 
L 220.863344 136.016269 
L 204.671344 154.498227 
L 199.887344 158.925524 
L 192.951344 164.590875 
L 184.895344 170.837751 
L 177.751344 180.173933 
L 174.175344 187.249596 
L 169.879344 196.615433 
L 165.583344 205.208469 
L 161.807344 211.599255 
L 158.471344 216.358813 
L 155.375344 220.123217 
L 153.743344 221.892156 
L 149.679344 225.756064 
L 144.663344 229.704968 
L 141.327344 231.964497 
L 135.079344 235.65155 
L 128.839344 238.843605 
L 131.791344 219.916249 
L 135.255344 201.089934 
L 137.079344 192.26176 
L 140.831344 175.900417 
L 143.863344 167.238715 
L 147.351344 159.1744 
L 150.895344 152.732799 
L 157.079344 144.066861 
L 166.335344 133.16228 
L 179.487344 120.843069 
L 187.375344 115.033654 
L 196.207344 109.1704 
L 207.415344 94.352034 
L 211.911344 85.636084 
L 216.207344 77.653432 
L 220.479344 70.63194 
L 227.159344 61.747752 
L 232.871344 55.923267 
L 236.919344 52.533686 
L 242.199344 48.777363 
L 245.783344 46.548279 
L 249.367344 44.520271 
L 252.487344 42.888971 
L 256.343344 41.037418 
L 262.119344 38.699439 
L 264.767344 37.768196 
L 271.111344 35.823629 
L 268.351344 52.956687 
L 265.535344 68.392778 
L 263.703344 77.461092 
L 261.375344 88.167873 
L 259.503344 96.142853 
L 257.151344 104.478381 
L 254.327344 110.327893 
L 248.703344 120.226204 
L 244.191344 127.237146 
L 241.383344 131.100045 
L 235.895344 137.929115 
L 232.591344 141.719466 
L 228.279344 146.284571 
L 223.023344 151.283579 
L 216.039344 157.036984 
L 209.055344 161.868615 
L 204.263344 164.719171 
L 199.231344 167.377158 
L 187.775344 172.738865 
L 182.071344 176.410415 
L 175.135344 185.611629 
L 169.655344 196.280576 
L 162.479344 209.589764 
L 158.479344 215.450526 
L 151.335344 223.470947 
L 145.375344 228.444729 
L 140.119344 231.997754 
L 136.527344 234.119158 
L 132.455344 236.30045 
L 127.895344 238.530589 
L 123.815344 240.357253 
L 118.759344 242.29288 
L 115.631344 243.339624 
L 108.383344 245.436763 
L 109.879344 235.696656 
L 111.495344 226.023136 
L 114.055344 212.163705 
L 118.279344 192.300432 
L 122.255344 177.179675 
L 126.015344 168.022667 
L 130.495344 158.729286 
L 134.023344 153.042575 
L 137.567344 148.187228 
L 141.583344 143.290939 
L 155.895344 128.964725 
L 150.399344 140.301496 
L 155.183344 130.47166 
L 161.679344 124.359698 
L 166.967344 120.668358 
L 171.775344 117.723093 
L 175.367344 115.745433 
L 181.855344 112.566586 
L 192.863344 107.852299 
L 201.463344 102.717945 
L 208.599344 93.694682 
L 219.079344 75.689695 
L 224.327344 67.94568 
L 229.095344 62.137832 
L 234.367344 56.934676 
L 239.623344 52.741794 
L 244.879344 49.254256 
L 251.831344 45.380911 
L 255.191344 43.723193 
L 262.647344 40.403655 
L 271.103344 37.106899 
L 272.583344 36.598054 
L 270.951344 46.904736 
L 269.103344 57.658224 
L 267.479344 66.449863 
L 264.911344 79.167914 
L 261.183344 95.605528 
L 257.399344 106.151935 
L 255.279344 110.106782 
L 251.983344 115.99846 
L 249.879344 119.522566 
L 247.535344 123.184264 
L 243.975344 128.197567 
L 239.935344 133.396645 
L 236.375344 137.598952 
L 231.647344 142.819671 
L 228.303344 146.235593 
L 222.311344 151.785031 
L 216.071344 156.82979 
L 208.375344 162.083803 
L 204.071344 164.613087 
L 200.719344 166.414779 
L 195.919344 168.793723 
L 191.375344 170.919602 
L 186.119344 173.536193 
L 178.951344 179.401168 
L 171.767344 190.06355 
L 167.255344 198.642603 
L 162.471344 207.138836 
L 159.135344 212.198109 
L 153.887344 218.738961 
L 149.583344 223.019291 
L 146.975344 225.236237 
L 142.431344 228.582895 
L 138.367344 231.147969 
L 132.151344 234.52627 
L 127.583344 236.70829 
L 122.311344 239.004455 
L 112.935344 242.677782 
L 108.767344 244.182636 
L 109.647344 238.486587 
L 112.655344 220.477083 
L 115.687344 204.69851 
L 119.687344 186.778461 
L 122.487344 177.261563 
L 125.079344 170.922737 
L 128.127344 164.220603 
L 132.607344 156.17885 
L 137.103344 149.827921 
L 140.647344 145.424986 
L 144.663344 140.905132 
L 151.103344 134.305168 
L 160.951344 125.765761 
L 167.439344 121.113291 
L 177.063344 115.467566 
L 182.815344 112.651789 
L 194.071344 107.777272 
L 202.415344 102.679327 
L 207.911344 96.084286 
L 211.951344 89.42362 
L 219.831344 75.800431 
L 224.111344 69.423387 
L 228.663344 63.689031 
L 232.967344 59.182343 
L 237.743344 55.011323 
L 241.559344 52.225912 
L 245.639344 49.597317 
L 250.423344 46.888423 
L 256.431344 43.899427 
L 263.159344 40.943997 
L 271.879344 37.537833 
L 268.855344 56.068 
L 265.343344 74.704905 
L 261.415344 92.581497 
L 258.591344 102.417008 
L 254.367344 110.704741 
L 250.119344 118.10282 
L 245.623344 124.931224 
L 239.943344 132.363084 
L 217.999344 154.521277 
L 207.431344 162.024668 
L 193.535344 169.50431 
L 177.759344 180.017102 
L 170.567344 191.421812 
L 165.055344 201.881238 
L 161.239344 208.286972 
L 153.383344 218.579618 
L 148.135344 223.655414 
L 142.415344 228.023616 
L 136.431344 231.727315 
L 127.087344 236.432382 
L 120.135344 239.413167 
L 108.807344 243.709077 
L 110.559344 232.674803 
L 113.111344 217.840873 
L 117.551344 195.708084 
L 120.135344 184.641246 
L 122.943344 175.899721 
L 127.183344 166.090277 
L 129.775344 160.879767 
L 132.863344 155.823084 
L 135.935344 151.484616 
L 140.647344 145.575247 
L 145.615344 140.062296 
L 150.639344 134.986275 
L 161.199344 125.823574 
L 169.375344 120.0887 
L 184.255344 112.138878 
L 194.543344 107.729693 
L 203.359344 102.245234 
L 213.871344 86.503896 
L 225.359344 68.05966 
L 231.567344 60.845892 
L 237.527344 55.492505 
L 243.031344 51.536449 
L 249.975344 47.445189 
L 254.775344 45.010032 
L 259.343344 42.915992 
L 264.383344 40.786542 
L 271.351344 38.083755 
L 276.647344 36.200466 
L 282.175344 34.430926 
L 287.247344 33.01867 
L 291.839344 31.926125 
L 290.783344 38.588652 
L 289.415344 46.700775 
L 287.295344 58.378051 
L 285.447344 67.790488 
L 282.639344 80.827606 
L 280.295344 90.750728 
L 277.007344 102.377037 
L 274.423344 107.583157 
L 270.183344 114.855185 
L 265.463344 122.04934 
L 261.431344 127.48871 
L 257.375344 132.390493 
L 251.663344 138.637422 
L 247.119344 143.205002 
L 242.335344 147.552052 
L 234.143344 153.941578 
L 228.127344 157.893713 
L 223.311344 160.663935 
L 215.847344 164.369516 
L 204.559344 168.965278 
L 192.343344 173.145274 
L 183.735344 176.550542 
L 176.559344 182.673668 
L 165.327344 200.906846 
L 157.679344 212.844598 
L 151.967344 219.512046 
L 141.687344 227.979227 
L 136.191344 231.322142 
L 128.759344 235.102224 
L 120.119344 238.832741 
L 112.183344 241.870208 
L 106.399344 243.923564 
L 99.655344 246.120873 
L 93.871344 247.781303 
L 87.343344 249.319208 
L 87.751344 246.694883 
L 90.295344 231.382297 
L 92.623344 218.621544 
L 96.359344 200.880599 
L 100.135344 185.373408 
L 104.335344 174.629331 
L 108.343344 166.200154 
L 114.007344 156.556179 
L 119.431344 149.417535 
L 123.935344 144.318014 
L 127.015344 141.165805 
L 131.791344 136.599741 
L 136.831344 132.324203 
L 142.607344 127.942473 
L 149.351344 123.511152 
L 158.287344 118.650705 
L 168.631344 114.133213 
L 174.615344 111.906913 
L 185.159344 108.418048 
L 192.599344 106.015956 
L 191.887344 108.051751 
L 201.223344 101.955131 
L 208.631344 94.988709 
L 216.999344 82.361488 
L 222.279344 74.185398 
L 227.063344 67.729158 
L 232.087344 62.097451 
L 237.343344 57.318563 
L 240.447344 54.931542 
L 245.479344 51.589601 
L 248.119344 50.044686 
L 252.207344 47.868682 
L 257.247344 45.468295 
L 262.295344 43.300906 
L 267.335344 41.31641 
L 273.335344 39.128318 
L 285.367344 35.133927 
L 291.223344 33.328138 
L 289.863344 41.757879 
L 286.847344 58.945501 
L 284.759344 69.612503 
L 281.479344 84.58822 
L 278.407344 96.980212 
L 275.359344 104.275028 
L 271.599344 110.929797 
L 267.111344 118.092914 
L 263.087344 123.729678 
L 257.623344 130.491295 
L 254.063344 134.505681 
L 249.039344 139.746875 
L 232.471344 153.960534 
L 220.423344 161.389863 
L 206.239344 167.856559 
L 186.855344 175.082066 
L 175.079344 184.338151 
L 168.631344 193.755039 
L 163.375344 202.633025 
L 157.887344 210.871444 
L 153.103344 216.731677 
L 149.535344 220.367058 
L 143.087344 225.683181 
L 136.839344 229.699604 
L 132.783344 231.898295 
L 126.783344 234.750031 
L 120.303344 237.45139 
L 109.975344 241.231997 
L 97.935344 245.137183 
L 87.551344 248.222353 
L 89.599344 235.757343 
L 91.455344 225.154934 
L 94.471344 209.44198 
L 97.735344 194.72268 
L 102.207344 179.966118 
L 106.911344 169.563042 
L 112.351344 159.677911 
L 117.055344 153.068146 
L 122.991344 146.046734 
L 127.735344 141.169648 
L 137.063344 132.780311 
L 143.079344 128.185562 
L 151.031344 122.987253 
L 160.183344 118.108145 
L 165.711344 115.624175 
L 171.479344 113.316183 
L 177.495344 111.145769 
L 191.607344 106.593965 
L 207.927344 97.025266 
L 215.599344 85.889267 
L 219.663344 79.227031 
L 224.471344 72.01071 
L 228.303344 67.049951 
L 232.159344 62.767233 
L 234.039344 60.91207 
L 237.615344 57.754711 
L 242.887344 53.839544 
L 249.367344 49.912601 
L 254.655344 47.206789 
L 258.967344 45.232396 
L 263.287344 43.415838 
L 271.271344 40.372706 
L 278.431344 37.883908 
L 289.607344 34.301601 
L 292.999344 33.27991 
L 290.887344 46.131924 
L 288.559344 59.226018 
L 285.743344 73.380454 
L 283.631344 82.936133 
L 279.143344 99.787228 
L 274.431344 108.865695 
L 272.303344 112.434184 
L 268.007344 119.006655 
L 263.255344 125.376164 
L 256.807344 132.932102 
L 249.607344 140.377107 
L 239.031344 149.757192 
L 227.455344 157.817232 
L 217.799344 163.045619 
L 204.807344 168.551054 
L 184.399344 176.090146 
L 177.927344 180.66813 
L 174.111344 184.922085 
L 169.319344 191.974377 
L 164.775344 199.665943 
L 160.007344 207.279669 
L 155.455344 213.417877 
L 152.591344 216.726426 
L 149.199344 220.144118 
L 145.871344 223.042797 
L 143.255344 225.060621 
L 137.759344 228.699617 
L 132.503344 231.592625 
L 126.959344 234.228458 
L 120.959344 236.749849 
L 113.047344 239.713225 
L 107.511344 241.616845 
L 98.127344 244.621595 
L 85.583344 248.322451 
L 77.159344 250.528668 
L 70.479344 252.023197 
L 69.887344 252.1406 
L 72.623344 235.809801 
L 74.727344 224.198153 
L 76.847344 213.448944 
L 79.927344 199.646383 
L 83.487344 185.753097 
L 87.543344 176.174459 
L 90.879344 169.309611 
L 94.215344 163.118466 
L 98.287344 156.811749 
L 101.159344 153.028137 
L 101.159344 153.028137 
" clip-path="url(#p5ab1b360b7)" style="fill: none; stroke: #3152a1; stroke-width: 1.5; stroke-linecap: square"/>
   </g>
   <g id="line2d_35">
    <path d="M 58.647344 140.315499 
L 304.167344 140.315499 
" clip-path="url(#p5ab1b360b7)" style="fill: none; stroke: #000000; stroke-width: 0.4; stroke-linecap: square"/>
   </g>
   <g id="line2d_36">
    <path d="M 189.807344 264.774125 
L 189.807344 20.838125 
" clip-path="url(#p5ab1b360b7)" style="fill: none; stroke: #000000; stroke-width: 0.4; stroke-linecap: square"/>
   </g>
   <g id="line2d_37">
    <path d="M 58.647344 31.926125 
L 304.167344 31.926125 
" clip-path="url(#p5ab1b360b7)" style="fill: none; stroke: #3152a1; stroke-linecap: square"/>
   </g>
   <g id="line2d_38">
    <path d="M 58.647344 252.1406 
L 304.167344 252.1406 
" clip-path="url(#p5ab1b360b7)" style="fill: none; stroke: #3152a1; stroke-linecap: square"/>
   </g>
   <g id="patch_3">
    <path d="M 58.647344 264.774125 
L 58.647344 20.838125 
" style="fill: none; stroke: #000000; stroke-width: 0.8; stroke-linejoin: miter; stroke-linecap: square"/>
   </g>
   <g id="patch_4">
    <path d="M 304.167344 264.774125 
L 304.167344 20.838125 
" style="fill: none; stroke: #000000; stroke-width: 0.8; stroke-linejoin: miter; stroke-linecap: square"/>
   </g>
   <g id="patch_5">
    <path d="M 58.647344 264.774125 
L 304.167344 264.774125 
" style="fill: none; stroke: #000000; stroke-width: 0.8; stroke-linejoin: miter; stroke-linecap: square"/>
   </g>
   <g id="patch_6">
    <path d="M 58.647344 20.838125 
L 304.167344 20.838125 
" style="fill: none; stroke: #000000; stroke-width: 0.8; stroke-linejoin: miter; stroke-linecap: square"/>
   </g>
   <g id="text_18">
    <!-- Specimen : Oesterle_B7 -->
    <g transform="translate(127.947344 14.838125) scale(0.11 -0.11)">
     <defs>
      <path id="TimesNewRomanPSMT-3a" d="M 903 2950 
Q 1047 2950 1148 2848 
Q 1250 2747 1250 2603 
Q 1250 2459 1148 2357 
Q 1047 2256 903 2256 
Q 759 2256 657 2357 
Q 556 2459 556 2603 
Q 556 2747 657 2848 
Q 759 2950 903 2950 
z
M 897 609 
Q 1044 609 1145 506 
Q 1247 403 1247 259 
Q 1247 116 1144 14 
Q 1041 -88 897 -88 
Q 753 -88 651 14 
Q 550 116 550 259 
Q 550 403 651 506 
Q 753 609 897 609 
z
" transform="scale(0.015625)"/>
      <path id="TimesNewRomanPSMT-4f" d="M 2341 4334 
Q 3166 4334 3770 3707 
Q 4375 3081 4375 2144 
Q 4375 1178 3765 540 
Q 3156 -97 2291 -97 
Q 1416 -97 820 525 
Q 225 1147 225 2134 
Q 225 3144 913 3781 
Q 1509 4334 2341 4334 
z
M 2281 4106 
Q 1713 4106 1369 3684 
Q 941 3159 941 2147 
Q 941 1109 1384 550 
Q 1725 125 2284 125 
Q 2881 125 3270 590 
Q 3659 1056 3659 2059 
Q 3659 3147 3231 3681 
Q 2888 4106 2281 4106 
z
" transform="scale(0.015625)"/>
      <path id="TimesNewRomanPSMT-5f" d="M 3256 -1381 
L -53 -1381 
L -53 -1119 
L 3256 -1119 
L 3256 -1381 
z
" transform="scale(0.015625)"/>
      <path id="TimesNewRomanPSMT-37" d="M 644 4238 
L 2916 4238 
L 2916 4119 
L 1503 -88 
L 1153 -88 
L 2419 3728 
L 1253 3728 
Q 900 3728 750 3644 
Q 488 3500 328 3200 
L 238 3234 
L 644 4238 
z
" transform="scale(0.015625)"/>
     </defs>
     <use xlink:href="#TimesNewRomanPSMT-53"/>
     <use xlink:href="#TimesNewRomanPSMT-70" x="55.615234"/>
     <use xlink:href="#TimesNewRomanPSMT-65" x="105.615234"/>
     <use xlink:href="#TimesNewRomanPSMT-63" x="150"/>
     <use xlink:href="#TimesNewRomanPSMT-69" x="194.384766"/>
     <use xlink:href="#TimesNewRomanPSMT-6d" x="222.167969"/>
     <use xlink:href="#TimesNewRomanPSMT-65" x="299.951172"/>
     <use xlink:href="#TimesNewRomanPSMT-6e" x="344.335938"/>
     <use xlink:href="#TimesNewRomanPSMT-20" x="394.335938"/>
     <use xlink:href="#TimesNewRomanPSMT-3a" x="419.335938"/>
     <use xlink:href="#TimesNewRomanPSMT-20" x="447.119141"/>
     <use xlink:href="#TimesNewRomanPSMT-4f" x="472.119141"/>
     <use xlink:href="#TimesNewRomanPSMT-65" x="544.335938"/>
     <use xlink:href="#TimesNewRomanPSMT-73" x="588.720703"/>
     <use xlink:href="#TimesNewRomanPSMT-74" x="627.636719"/>
     <use xlink:href="#TimesNewRomanPSMT-65" x="655.419922"/>
     <use xlink:href="#TimesNewRomanPSMT-72" x="699.804688"/>
     <use xlink:href="#TimesNewRomanPSMT-6c" x="733.105469"/>
     <use xlink:href="#TimesNewRomanPSMT-65" x="760.888672"/>
     <use xlink:href="#TimesNewRomanPSMT-5f" x="805.273438"/>
     <use xlink:href="#TimesNewRomanPSMT-42" x="855.273438"/>
     <use xlink:href="#TimesNewRomanPSMT-37" x="921.972656"/>
    </g>
   </g>
   <g id="legend_1">
    <g id="patch_7">
     <path d="M 65.061444 78.473371 
L 161.006644 78.473371 
Q 162.839244 78.473371 162.839244 76.640771 
L 162.839244 51.645825 
Q 162.839244 49.813225 161.006644 49.813225 
L 65.061444 49.813225 
Q 63.228844 49.813225 63.228844 51.645825 
L 63.228844 76.640771 
Q 63.228844 78.473371 65.061444 78.473371 
z
" style="fill: #ffffff; opacity: 0.8; stroke: #cccccc; stroke-linejoin: miter"/>
    </g>
    <g id="line2d_39">
     <path d="M 66.894044 56.685475 
L 76.057044 56.685475 
L 85.220044 56.685475 
" style="fill: none; stroke-dasharray: 4.07,1.76; stroke-dashoffset: 0; stroke: #433f40; stroke-width: 1.1"/>
    </g>
    <g id="text_19">
     <!-- Experimental Test -->
     <g transform="translate(92.550444 59.892525) scale(0.09163 -0.09163)">
      <defs>
       <path id="TimesNewRomanPSMT-45" d="M 1338 4006 
L 1338 2331 
L 2269 2331 
Q 2631 2331 2753 2441 
Q 2916 2584 2934 2947 
L 3050 2947 
L 3050 1472 
L 2934 1472 
Q 2891 1781 2847 1869 
Q 2791 1978 2662 2040 
Q 2534 2103 2269 2103 
L 1338 2103 
L 1338 706 
Q 1338 425 1363 364 
Q 1388 303 1450 267 
Q 1513 231 1688 231 
L 2406 231 
Q 2766 231 2928 281 
Q 3091 331 3241 478 
Q 3434 672 3638 1063 
L 3763 1063 
L 3397 0 
L 131 0 
L 131 116 
L 281 116 
Q 431 116 566 188 
Q 666 238 702 338 
Q 738 438 738 747 
L 738 3500 
Q 738 3903 656 3997 
Q 544 4122 281 4122 
L 131 4122 
L 131 4238 
L 3397 4238 
L 3444 3309 
L 3322 3309 
Q 3256 3644 3176 3769 
Q 3097 3894 2941 3959 
Q 2816 4006 2500 4006 
L 1338 4006 
z
" transform="scale(0.015625)"/>
       <path id="TimesNewRomanPSMT-78" d="M 84 2863 
L 1431 2863 
L 1431 2747 
Q 1303 2747 1251 2703 
Q 1200 2659 1200 2588 
Q 1200 2513 1309 2356 
Q 1344 2306 1413 2200 
L 1616 1875 
L 1850 2200 
Q 2075 2509 2075 2591 
Q 2075 2656 2022 2701 
Q 1969 2747 1850 2747 
L 1850 2863 
L 2819 2863 
L 2819 2747 
Q 2666 2738 2553 2663 
Q 2400 2556 2134 2200 
L 1744 1678 
L 2456 653 
Q 2719 275 2831 198 
Q 2944 122 3122 113 
L 3122 0 
L 1772 0 
L 1772 113 
Q 1913 113 1991 175 
Q 2050 219 2050 291 
Q 2050 363 1850 653 
L 1431 1266 
L 972 653 
Q 759 369 759 316 
Q 759 241 829 180 
Q 900 119 1041 113 
L 1041 0 
L 106 0 
L 106 113 
Q 219 128 303 191 
Q 422 281 703 653 
L 1303 1450 
L 759 2238 
Q 528 2575 401 2661 
Q 275 2747 84 2747 
L 84 2863 
z
" transform="scale(0.015625)"/>
       <path id="TimesNewRomanPSMT-54" d="M 3703 4238 
L 3750 3244 
L 3631 3244 
Q 3597 3506 3538 3619 
Q 3441 3800 3280 3886 
Q 3119 3972 2856 3972 
L 2259 3972 
L 2259 734 
Q 2259 344 2344 247 
Q 2463 116 2709 116 
L 2856 116 
L 2856 0 
L 1059 0 
L 1059 116 
L 1209 116 
Q 1478 116 1591 278 
Q 1659 378 1659 734 
L 1659 3972 
L 1150 3972 
Q 853 3972 728 3928 
Q 566 3869 450 3700 
Q 334 3531 313 3244 
L 194 3244 
L 244 4238 
L 3703 4238 
z
" transform="scale(0.015625)"/>
      </defs>
      <use xlink:href="#TimesNewRomanPSMT-45"/>
      <use xlink:href="#TimesNewRomanPSMT-78" x="61.083984"/>
      <use xlink:href="#TimesNewRomanPSMT-70" x="111.083984"/>
      <use xlink:href="#TimesNewRomanPSMT-65" x="161.083984"/>
      <use xlink:href="#TimesNewRomanPSMT-72" x="205.46875"/>
      <use xlink:href="#TimesNewRomanPSMT-69" x="238.769531"/>
      <use xlink:href="#TimesNewRomanPSMT-6d" x="266.552734"/>
      <use xlink:href="#TimesNewRomanPSMT-65" x="344.335938"/>
      <use xlink:href="#TimesNewRomanPSMT-6e" x="388.720703"/>
      <use xlink:href="#TimesNewRomanPSMT-74" x="438.720703"/>
      <use xlink:href="#TimesNewRomanPSMT-61" x="466.503906"/>
      <use xlink:href="#TimesNewRomanPSMT-6c" x="510.888672"/>
      <use xlink:href="#TimesNewRomanPSMT-20" x="538.671875"/>
      <use xlink:href="#TimesNewRomanPSMT-54" x="561.921875"/>
      <use xlink:href="#TimesNewRomanPSMT-65" x="616.005859"/>
      <use xlink:href="#TimesNewRomanPSMT-73" x="660.390625"/>
      <use xlink:href="#TimesNewRomanPSMT-74" x="699.306641"/>
     </g>
    </g>
    <g id="line2d_40">
     <path d="M 66.894044 69.641098 
L 76.057044 69.641098 
L 85.220044 69.641098 
" style="fill: none; stroke: #3152a1; stroke-width: 1.5; stroke-linecap: square"/>
    </g>
    <g id="text_20">
     <!-- Numerical Test -->
     <g transform="translate(92.550444 72.848148) scale(0.09163 -0.09163)">
      <defs>
       <path id="TimesNewRomanPSMT-75" d="M 2709 2863 
L 2709 1128 
Q 2709 631 2732 520 
Q 2756 409 2807 365 
Q 2859 322 2928 322 
Q 3025 322 3147 375 
L 3191 266 
L 2334 -88 
L 2194 -88 
L 2194 519 
Q 1825 119 1631 15 
Q 1438 -88 1222 -88 
Q 981 -88 804 51 
Q 628 191 559 409 
Q 491 628 491 1028 
L 491 2306 
Q 491 2509 447 2587 
Q 403 2666 317 2708 
Q 231 2750 6 2747 
L 6 2863 
L 1009 2863 
L 1009 947 
Q 1009 547 1148 422 
Q 1288 297 1484 297 
Q 1619 297 1789 381 
Q 1959 466 2194 703 
L 2194 2325 
Q 2194 2569 2105 2655 
Q 2016 2741 1734 2747 
L 1734 2863 
L 2709 2863 
z
" transform="scale(0.015625)"/>
      </defs>
      <use xlink:href="#TimesNewRomanPSMT-4e"/>
      <use xlink:href="#TimesNewRomanPSMT-75" x="72.216797"/>
      <use xlink:href="#TimesNewRomanPSMT-6d" x="122.216797"/>
      <use xlink:href="#TimesNewRomanPSMT-65" x="200"/>
      <use xlink:href="#TimesNewRomanPSMT-72" x="244.384766"/>
      <use xlink:href="#TimesNewRomanPSMT-69" x="277.685547"/>
      <use xlink:href="#TimesNewRomanPSMT-63" x="305.46875"/>
      <use xlink:href="#TimesNewRomanPSMT-61" x="349.853516"/>
      <use xlink:href="#TimesNewRomanPSMT-6c" x="394.238281"/>
      <use xlink:href="#TimesNewRomanPSMT-20" x="422.021484"/>
      <use xlink:href="#TimesNewRomanPSMT-54" x="445.271484"/>
      <use xlink:href="#TimesNewRomanPSMT-65" x="499.355469"/>
      <use xlink:href="#TimesNewRomanPSMT-73" x="543.740234"/>
      <use xlink:href="#TimesNewRomanPSMT-74" x="582.65625"/>
     </g>
    </g>
   </g>
  </g>
 </g>
 <defs>
  <clipPath id="p5ab1b360b7">
   <rect x="58.647344" y="20.838125" width="245.52" height="243.936"/>
  </clipPath>
 </defs>
</svg>
