<?xml version="1.0" encoding="utf-8" standalone="no"?>
<!DOCTYPE svg PUBLIC "-//W3C//DTD SVG 1.1//EN"
  "http://www.w3.org/Graphics/SVG/1.1/DTD/svg11.dtd">
<svg xmlns:xlink="http://www.w3.org/1999/xlink" width="311.367344pt" height="302.961469pt" viewBox="0 0 311.367344 302.961469" xmlns="http://www.w3.org/2000/svg" version="1.1">
 <metadata>
  <rdf:RDF xmlns:dc="http://purl.org/dc/elements/1.1/" xmlns:cc="http://creativecommons.org/ns#" xmlns:rdf="http://www.w3.org/1999/02/22-rdf-syntax-ns#">
   <cc:Work>
    <dc:type rdf:resource="http://purl.org/dc/dcmitype/StillImage"/>
    <dc:date>2025-01-23T13:13:27.960642</dc:date>
    <dc:format>image/svg+xml</dc:format>
    <dc:creator>
     <cc:Agent>
      <dc:title>Matplotlib v3.8.0, https://matplotlib.org/</dc:title>
     </cc:Agent>
    </dc:creator>
   </cc:Work>
  </rdf:RDF>
 </metadata>
 <defs>
  <style type="text/css">*{stroke-linejoin: round; stroke-linecap: butt}</style>
 </defs>
 <g id="figure_1">
  <g id="patch_1">
   <path d="M 0 302.961469 
L 311.367344 302.961469 
L 311.367344 0 
L 0 0 
z
" style="fill: #ffffff"/>
  </g>
  <g id="axes_1">
   <g id="patch_2">
    <path d="M 58.647344 264.774125 
L 304.167344 264.774125 
L 304.167344 20.838125 
L 58.647344 20.838125 
z
" style="fill: #ffffff"/>
   </g>
   <g id="matplotlib.axis_1">
    <g id="xtick_1">
     <g id="line2d_1">
      <path d="M 69.807344 264.774125 
L 69.807344 20.838125 
" clip-path="url(#pc7ea47277a)" style="fill: none; stroke-dasharray: 0.8,1.32; stroke-dashoffset: 0; stroke: #b0b0b0; stroke-width: 0.8"/>
     </g>
     <g id="line2d_2">
      <defs>
       <path id="m5c284b11a7" d="M 0 0 
L 0 3.5 
" style="stroke: #000000; stroke-width: 0.8"/>
      </defs>
      <g>
       <use xlink:href="#m5c284b11a7" x="69.807344" y="264.774125" style="stroke: #000000; stroke-width: 0.8"/>
      </g>
     </g>
     <g id="text_1">
      <!-- −150 -->
      <g transform="translate(57.624844 279.460375) scale(0.11 -0.11)">
       <defs>
        <path id="Cambria-2212" d="M 397 1613 
L 397 2047 
L 3147 2047 
L 3147 1613 
L 397 1613 
z
" transform="scale(0.015625)"/>
        <path id="Cambria-31" d="M 2172 816 
Q 2172 634 2192 542 
Q 2213 450 2264 392 
Q 2316 334 2412 301 
Q 2509 269 2656 251 
Q 2803 234 3044 228 
L 3044 0 
L 734 0 
L 734 228 
Q 1081 244 1229 270 
Q 1378 297 1456 350 
Q 1534 403 1570 500 
Q 1606 597 1606 816 
L 1606 3350 
Q 1606 3475 1562 3533 
Q 1519 3591 1434 3591 
Q 1334 3591 1150 3487 
Q 966 3384 694 3203 
L 556 3444 
L 2019 4316 
L 2191 4316 
Q 2172 4016 2172 3484 
L 2172 816 
z
" transform="scale(0.015625)"/>
        <path id="Cambria-35" d="M 469 172 
L 469 834 
L 847 834 
Q 941 516 1130 366 
Q 1319 216 1619 216 
Q 2034 216 2246 466 
Q 2459 716 2459 1213 
Q 2459 1544 2346 1761 
Q 2234 1978 2043 2075 
Q 1853 2172 1600 2172 
Q 1388 2172 1234 2145 
Q 1081 2119 906 2063 
L 656 2209 
L 656 4266 
L 2378 4266 
Q 2484 4266 2531 4283 
Q 2578 4300 2606 4336 
Q 2634 4372 2672 4472 
L 2916 4472 
L 2869 3747 
L 1072 3747 
L 1072 2375 
Q 1234 2444 1425 2478 
Q 1616 2513 1806 2513 
Q 2178 2513 2465 2361 
Q 2753 2209 2909 1929 
Q 3066 1650 3066 1281 
Q 3066 863 2891 563 
Q 2716 263 2384 106 
Q 2053 -50 1600 -50 
Q 1059 -50 469 172 
z
" transform="scale(0.015625)"/>
        <path id="Cambria-30" d="M 1738 -50 
Q 1063 -50 733 481 
Q 403 1013 403 2094 
Q 403 2669 504 3087 
Q 606 3506 789 3779 
Q 972 4053 1228 4184 
Q 1484 4316 1788 4316 
Q 2472 4316 2806 3787 
Q 3141 3259 3141 2191 
Q 3141 1084 2783 517 
Q 2425 -50 1738 -50 
z
M 1013 2188 
Q 1013 1169 1202 692 
Q 1391 216 1788 216 
Q 2166 216 2348 664 
Q 2531 1113 2531 2053 
Q 2531 2772 2437 3217 
Q 2344 3663 2176 3856 
Q 2009 4050 1772 4050 
Q 1556 4050 1411 3922 
Q 1266 3794 1177 3553 
Q 1088 3313 1050 2967 
Q 1013 2622 1013 2188 
z
" transform="scale(0.015625)"/>
       </defs>
       <use xlink:href="#Cambria-2212"/>
       <use xlink:href="#Cambria-31" x="55.371094"/>
       <use xlink:href="#Cambria-35" x="110.742188"/>
       <use xlink:href="#Cambria-30" x="166.113281"/>
      </g>
     </g>
    </g>
    <g id="xtick_2">
     <g id="line2d_3">
      <path d="M 109.807344 264.774125 
L 109.807344 20.838125 
" clip-path="url(#pc7ea47277a)" style="fill: none; stroke-dasharray: 0.8,1.32; stroke-dashoffset: 0; stroke: #b0b0b0; stroke-width: 0.8"/>
     </g>
     <g id="line2d_4">
      <g>
       <use xlink:href="#m5c284b11a7" x="109.807344" y="264.774125" style="stroke: #000000; stroke-width: 0.8"/>
      </g>
     </g>
     <g id="text_2">
      <!-- −100 -->
      <g transform="translate(97.624844 279.460375) scale(0.11 -0.11)">
       <use xlink:href="#Cambria-2212"/>
       <use xlink:href="#Cambria-31" x="55.371094"/>
       <use xlink:href="#Cambria-30" x="110.742188"/>
       <use xlink:href="#Cambria-30" x="166.113281"/>
      </g>
     </g>
    </g>
    <g id="xtick_3">
     <g id="line2d_5">
      <path d="M 149.807344 264.774125 
L 149.807344 20.838125 
" clip-path="url(#pc7ea47277a)" style="fill: none; stroke-dasharray: 0.8,1.32; stroke-dashoffset: 0; stroke: #b0b0b0; stroke-width: 0.8"/>
     </g>
     <g id="line2d_6">
      <g>
       <use xlink:href="#m5c284b11a7" x="149.807344" y="264.774125" style="stroke: #000000; stroke-width: 0.8"/>
      </g>
     </g>
     <g id="text_3">
      <!-- −50 -->
      <g transform="translate(140.670469 279.460375) scale(0.11 -0.11)">
       <use xlink:href="#Cambria-2212"/>
       <use xlink:href="#Cambria-35" x="55.371094"/>
       <use xlink:href="#Cambria-30" x="110.742188"/>
      </g>
     </g>
    </g>
    <g id="xtick_4">
     <g id="line2d_7">
      <path d="M 189.807344 264.774125 
L 189.807344 20.838125 
" clip-path="url(#pc7ea47277a)" style="fill: none; stroke-dasharray: 0.8,1.32; stroke-dashoffset: 0; stroke: #b0b0b0; stroke-width: 0.8"/>
     </g>
     <g id="line2d_8">
      <g>
       <use xlink:href="#m5c284b11a7" x="189.807344" y="264.774125" style="stroke: #000000; stroke-width: 0.8"/>
      </g>
     </g>
     <g id="text_4">
      <!-- 0 -->
      <g transform="translate(186.761719 279.460375) scale(0.11 -0.11)">
       <use xlink:href="#Cambria-30"/>
      </g>
     </g>
    </g>
    <g id="xtick_5">
     <g id="line2d_9">
      <path d="M 229.807344 264.774125 
L 229.807344 20.838125 
" clip-path="url(#pc7ea47277a)" style="fill: none; stroke-dasharray: 0.8,1.32; stroke-dashoffset: 0; stroke: #b0b0b0; stroke-width: 0.8"/>
     </g>
     <g id="line2d_10">
      <g>
       <use xlink:href="#m5c284b11a7" x="229.807344" y="264.774125" style="stroke: #000000; stroke-width: 0.8"/>
      </g>
     </g>
     <g id="text_5">
      <!-- 50 -->
      <g transform="translate(223.716094 279.460375) scale(0.11 -0.11)">
       <use xlink:href="#Cambria-35"/>
       <use xlink:href="#Cambria-30" x="55.371094"/>
      </g>
     </g>
    </g>
    <g id="xtick_6">
     <g id="line2d_11">
      <path d="M 269.807344 264.774125 
L 269.807344 20.838125 
" clip-path="url(#pc7ea47277a)" style="fill: none; stroke-dasharray: 0.8,1.32; stroke-dashoffset: 0; stroke: #b0b0b0; stroke-width: 0.8"/>
     </g>
     <g id="line2d_12">
      <g>
       <use xlink:href="#m5c284b11a7" x="269.807344" y="264.774125" style="stroke: #000000; stroke-width: 0.8"/>
      </g>
     </g>
     <g id="text_6">
      <!-- 100 -->
      <g transform="translate(260.670469 279.460375) scale(0.11 -0.11)">
       <use xlink:href="#Cambria-31"/>
       <use xlink:href="#Cambria-30" x="55.371094"/>
       <use xlink:href="#Cambria-30" x="110.742188"/>
      </g>
     </g>
    </g>
    <g id="text_7">
     <!-- Displacement (mm) -->
     <g transform="translate(137.573203 293.4085) scale(0.11 -0.11)">
      <defs>
       <path id="TimesNewRomanPSMT-44" d="M 109 0 
L 109 116 
L 269 116 
Q 538 116 650 288 
Q 719 391 719 750 
L 719 3488 
Q 719 3884 631 3984 
Q 509 4122 269 4122 
L 109 4122 
L 109 4238 
L 1834 4238 
Q 2784 4238 3279 4022 
Q 3775 3806 4076 3303 
Q 4378 2800 4378 2141 
Q 4378 1256 3841 663 
Q 3238 0 2003 0 
L 109 0 
z
M 1319 306 
Q 1716 219 1984 219 
Q 2709 219 3187 728 
Q 3666 1238 3666 2109 
Q 3666 2988 3187 3494 
Q 2709 4000 1959 4000 
Q 1678 4000 1319 3909 
L 1319 306 
z
" transform="scale(0.015625)"/>
       <path id="TimesNewRomanPSMT-69" d="M 928 4444 
Q 1059 4444 1151 4351 
Q 1244 4259 1244 4128 
Q 1244 3997 1151 3903 
Q 1059 3809 928 3809 
Q 797 3809 703 3903 
Q 609 3997 609 4128 
Q 609 4259 701 4351 
Q 794 4444 928 4444 
z
M 1188 2947 
L 1188 647 
Q 1188 378 1227 289 
Q 1266 200 1342 156 
Q 1419 113 1622 113 
L 1622 0 
L 231 0 
L 231 113 
Q 441 113 512 153 
Q 584 194 626 287 
Q 669 381 669 647 
L 669 1750 
Q 669 2216 641 2353 
Q 619 2453 572 2492 
Q 525 2531 444 2531 
Q 356 2531 231 2484 
L 188 2597 
L 1050 2947 
L 1188 2947 
z
" transform="scale(0.015625)"/>
       <path id="TimesNewRomanPSMT-73" d="M 2050 2947 
L 2050 1972 
L 1947 1972 
Q 1828 2431 1642 2597 
Q 1456 2763 1169 2763 
Q 950 2763 815 2647 
Q 681 2531 681 2391 
Q 681 2216 781 2091 
Q 878 1963 1175 1819 
L 1631 1597 
Q 2266 1288 2266 781 
Q 2266 391 1970 151 
Q 1675 -88 1309 -88 
Q 1047 -88 709 6 
Q 606 38 541 38 
Q 469 38 428 -44 
L 325 -44 
L 325 978 
L 428 978 
Q 516 541 762 319 
Q 1009 97 1316 97 
Q 1531 97 1667 223 
Q 1803 350 1803 528 
Q 1803 744 1651 891 
Q 1500 1038 1047 1263 
Q 594 1488 453 1669 
Q 313 1847 313 2119 
Q 313 2472 555 2709 
Q 797 2947 1181 2947 
Q 1350 2947 1591 2875 
Q 1750 2828 1803 2828 
Q 1853 2828 1881 2850 
Q 1909 2872 1947 2947 
L 2050 2947 
z
" transform="scale(0.015625)"/>
       <path id="TimesNewRomanPSMT-70" d="M -6 2578 
L 875 2934 
L 994 2934 
L 994 2266 
Q 1216 2644 1439 2795 
Q 1663 2947 1909 2947 
Q 2341 2947 2628 2609 
Q 2981 2197 2981 1534 
Q 2981 794 2556 309 
Q 2206 -88 1675 -88 
Q 1444 -88 1275 -22 
Q 1150 25 994 166 
L 994 -706 
Q 994 -1000 1030 -1079 
Q 1066 -1159 1155 -1206 
Q 1244 -1253 1478 -1253 
L 1478 -1369 
L -22 -1369 
L -22 -1253 
L 56 -1253 
Q 228 -1256 350 -1188 
Q 409 -1153 442 -1076 
Q 475 -1000 475 -688 
L 475 2019 
Q 475 2297 450 2372 
Q 425 2447 370 2484 
Q 316 2522 222 2522 
Q 147 2522 31 2478 
L -6 2578 
z
M 994 2081 
L 994 1013 
Q 994 666 1022 556 
Q 1066 375 1236 237 
Q 1406 100 1666 100 
Q 1978 100 2172 344 
Q 2425 663 2425 1241 
Q 2425 1897 2138 2250 
Q 1938 2494 1663 2494 
Q 1513 2494 1366 2419 
Q 1253 2363 994 2081 
z
" transform="scale(0.015625)"/>
       <path id="TimesNewRomanPSMT-6c" d="M 1184 4444 
L 1184 647 
Q 1184 378 1223 290 
Q 1263 203 1344 158 
Q 1425 113 1647 113 
L 1647 0 
L 244 0 
L 244 113 
Q 441 113 512 153 
Q 584 194 625 287 
Q 666 381 666 647 
L 666 3247 
Q 666 3731 644 3842 
Q 622 3953 573 3993 
Q 525 4034 450 4034 
Q 369 4034 244 3984 
L 191 4094 
L 1044 4444 
L 1184 4444 
z
" transform="scale(0.015625)"/>
       <path id="TimesNewRomanPSMT-61" d="M 1822 413 
Q 1381 72 1269 19 
Q 1100 -59 909 -59 
Q 613 -59 420 144 
Q 228 347 228 678 
Q 228 888 322 1041 
Q 450 1253 767 1440 
Q 1084 1628 1822 1897 
L 1822 2009 
Q 1822 2438 1686 2597 
Q 1550 2756 1291 2756 
Q 1094 2756 978 2650 
Q 859 2544 859 2406 
L 866 2225 
Q 866 2081 792 2003 
Q 719 1925 600 1925 
Q 484 1925 411 2006 
Q 338 2088 338 2228 
Q 338 2497 613 2722 
Q 888 2947 1384 2947 
Q 1766 2947 2009 2819 
Q 2194 2722 2281 2516 
Q 2338 2381 2338 1966 
L 2338 994 
Q 2338 584 2353 492 
Q 2369 400 2405 369 
Q 2441 338 2488 338 
Q 2538 338 2575 359 
Q 2641 400 2828 588 
L 2828 413 
Q 2478 -56 2159 -56 
Q 2006 -56 1915 50 
Q 1825 156 1822 413 
z
M 1822 616 
L 1822 1706 
Q 1350 1519 1213 1441 
Q 966 1303 859 1153 
Q 753 1003 753 825 
Q 753 600 887 451 
Q 1022 303 1197 303 
Q 1434 303 1822 616 
z
" transform="scale(0.015625)"/>
       <path id="TimesNewRomanPSMT-63" d="M 2631 1088 
Q 2516 522 2178 217 
Q 1841 -88 1431 -88 
Q 944 -88 581 321 
Q 219 731 219 1428 
Q 219 2103 620 2525 
Q 1022 2947 1584 2947 
Q 2006 2947 2278 2723 
Q 2550 2500 2550 2259 
Q 2550 2141 2473 2067 
Q 2397 1994 2259 1994 
Q 2075 1994 1981 2113 
Q 1928 2178 1911 2362 
Q 1894 2547 1784 2644 
Q 1675 2738 1481 2738 
Q 1169 2738 978 2506 
Q 725 2200 725 1697 
Q 725 1184 976 792 
Q 1228 400 1656 400 
Q 1963 400 2206 609 
Q 2378 753 2541 1131 
L 2631 1088 
z
" transform="scale(0.015625)"/>
       <path id="TimesNewRomanPSMT-65" d="M 681 1784 
Q 678 1147 991 784 
Q 1303 422 1725 422 
Q 2006 422 2214 576 
Q 2422 731 2563 1106 
L 2659 1044 
Q 2594 616 2278 264 
Q 1963 -88 1488 -88 
Q 972 -88 605 314 
Q 238 716 238 1394 
Q 238 2128 614 2539 
Q 991 2950 1559 2950 
Q 2041 2950 2350 2633 
Q 2659 2316 2659 1784 
L 681 1784 
z
M 681 1966 
L 2006 1966 
Q 1991 2241 1941 2353 
Q 1863 2528 1708 2628 
Q 1553 2728 1384 2728 
Q 1125 2728 920 2526 
Q 716 2325 681 1966 
z
" transform="scale(0.015625)"/>
       <path id="TimesNewRomanPSMT-6d" d="M 1050 2338 
Q 1363 2650 1419 2697 
Q 1559 2816 1721 2881 
Q 1884 2947 2044 2947 
Q 2313 2947 2506 2790 
Q 2700 2634 2766 2338 
Q 3088 2713 3309 2830 
Q 3531 2947 3766 2947 
Q 3994 2947 4170 2830 
Q 4347 2713 4450 2447 
Q 4519 2266 4519 1878 
L 4519 647 
Q 4519 378 4559 278 
Q 4591 209 4675 161 
Q 4759 113 4950 113 
L 4950 0 
L 3538 0 
L 3538 113 
L 3597 113 
Q 3781 113 3884 184 
Q 3956 234 3988 344 
Q 4000 397 4000 647 
L 4000 1878 
Q 4000 2228 3916 2372 
Q 3794 2572 3525 2572 
Q 3359 2572 3192 2489 
Q 3025 2406 2788 2181 
L 2781 2147 
L 2788 2013 
L 2788 647 
Q 2788 353 2820 281 
Q 2853 209 2943 161 
Q 3034 113 3253 113 
L 3253 0 
L 1806 0 
L 1806 113 
Q 2044 113 2133 169 
Q 2222 225 2256 338 
Q 2272 391 2272 647 
L 2272 1878 
Q 2272 2228 2169 2381 
Q 2031 2581 1784 2581 
Q 1616 2581 1450 2491 
Q 1191 2353 1050 2181 
L 1050 647 
Q 1050 366 1089 281 
Q 1128 197 1204 155 
Q 1281 113 1516 113 
L 1516 0 
L 100 0 
L 100 113 
Q 297 113 375 155 
Q 453 197 493 289 
Q 534 381 534 647 
L 534 1741 
Q 534 2213 506 2350 
Q 484 2453 437 2492 
Q 391 2531 309 2531 
Q 222 2531 100 2484 
L 53 2597 
L 916 2947 
L 1050 2947 
L 1050 2338 
z
" transform="scale(0.015625)"/>
       <path id="TimesNewRomanPSMT-6e" d="M 1034 2341 
Q 1538 2947 1994 2947 
Q 2228 2947 2397 2830 
Q 2566 2713 2666 2444 
Q 2734 2256 2734 1869 
L 2734 647 
Q 2734 375 2778 278 
Q 2813 200 2889 156 
Q 2966 113 3172 113 
L 3172 0 
L 1756 0 
L 1756 113 
L 1816 113 
Q 2016 113 2095 173 
Q 2175 234 2206 353 
Q 2219 400 2219 647 
L 2219 1819 
Q 2219 2209 2117 2386 
Q 2016 2563 1775 2563 
Q 1403 2563 1034 2156 
L 1034 647 
Q 1034 356 1069 288 
Q 1113 197 1189 155 
Q 1266 113 1500 113 
L 1500 0 
L 84 0 
L 84 113 
L 147 113 
Q 366 113 442 223 
Q 519 334 519 647 
L 519 1709 
Q 519 2225 495 2337 
Q 472 2450 423 2490 
Q 375 2531 294 2531 
Q 206 2531 84 2484 
L 38 2597 
L 900 2947 
L 1034 2947 
L 1034 2341 
z
" transform="scale(0.015625)"/>
       <path id="TimesNewRomanPSMT-74" d="M 1031 3803 
L 1031 2863 
L 1700 2863 
L 1700 2644 
L 1031 2644 
L 1031 788 
Q 1031 509 1111 412 
Q 1191 316 1316 316 
Q 1419 316 1516 380 
Q 1613 444 1666 569 
L 1788 569 
Q 1678 263 1478 108 
Q 1278 -47 1066 -47 
Q 922 -47 784 33 
Q 647 113 581 261 
Q 516 409 516 719 
L 516 2644 
L 63 2644 
L 63 2747 
Q 234 2816 414 2980 
Q 594 3144 734 3369 
Q 806 3488 934 3803 
L 1031 3803 
z
" transform="scale(0.015625)"/>
       <path id="TimesNewRomanPSMT-20" transform="scale(0.015625)"/>
       <path id="TimesNewRomanPSMT-28" d="M 1988 -1253 
L 1988 -1369 
Q 1516 -1131 1200 -813 
Q 750 -359 506 256 
Q 263 872 263 1534 
Q 263 2503 741 3301 
Q 1219 4100 1988 4444 
L 1988 4313 
Q 1603 4100 1356 3731 
Q 1109 3363 987 2797 
Q 866 2231 866 1616 
Q 866 947 969 400 
Q 1050 -31 1165 -292 
Q 1281 -553 1476 -793 
Q 1672 -1034 1988 -1253 
z
" transform="scale(0.015625)"/>
       <path id="TimesNewRomanPSMT-29" d="M 144 4313 
L 144 4444 
Q 619 4209 934 3891 
Q 1381 3434 1625 2820 
Q 1869 2206 1869 1541 
Q 1869 572 1392 -226 
Q 916 -1025 144 -1369 
L 144 -1253 
Q 528 -1038 776 -670 
Q 1025 -303 1145 264 
Q 1266 831 1266 1447 
Q 1266 2113 1163 2663 
Q 1084 3094 967 3353 
Q 850 3613 656 3853 
Q 463 4094 144 4313 
z
" transform="scale(0.015625)"/>
      </defs>
      <use xlink:href="#TimesNewRomanPSMT-44"/>
      <use xlink:href="#TimesNewRomanPSMT-69" x="72.216797"/>
      <use xlink:href="#TimesNewRomanPSMT-73" x="100"/>
      <use xlink:href="#TimesNewRomanPSMT-70" x="138.916016"/>
      <use xlink:href="#TimesNewRomanPSMT-6c" x="188.916016"/>
      <use xlink:href="#TimesNewRomanPSMT-61" x="216.699219"/>
      <use xlink:href="#TimesNewRomanPSMT-63" x="261.083984"/>
      <use xlink:href="#TimesNewRomanPSMT-65" x="305.46875"/>
      <use xlink:href="#TimesNewRomanPSMT-6d" x="349.853516"/>
      <use xlink:href="#TimesNewRomanPSMT-65" x="427.636719"/>
      <use xlink:href="#TimesNewRomanPSMT-6e" x="472.021484"/>
      <use xlink:href="#TimesNewRomanPSMT-74" x="522.021484"/>
      <use xlink:href="#TimesNewRomanPSMT-20" x="549.804688"/>
      <use xlink:href="#TimesNewRomanPSMT-28" x="574.804688"/>
      <use xlink:href="#TimesNewRomanPSMT-6d" x="608.105469"/>
      <use xlink:href="#TimesNewRomanPSMT-6d" x="685.888672"/>
      <use xlink:href="#TimesNewRomanPSMT-29" x="763.671875"/>
     </g>
    </g>
   </g>
   <g id="matplotlib.axis_2">
    <g id="ytick_1">
     <g id="line2d_13">
      <path d="M 58.647344 252.162314 
L 304.167344 252.162314 
" clip-path="url(#pc7ea47277a)" style="fill: none; stroke-dasharray: 0.8,1.32; stroke-dashoffset: 0; stroke: #b0b0b0; stroke-width: 0.8"/>
     </g>
     <g id="line2d_14">
      <defs>
       <path id="m2c13f7c1fb" d="M 0 0 
L -3.5 0 
" style="stroke: #000000; stroke-width: 0.8"/>
      </defs>
      <g>
       <use xlink:href="#m2c13f7c1fb" x="58.647344" y="252.162314" style="stroke: #000000; stroke-width: 0.8"/>
      </g>
     </g>
     <g id="text_8">
      <!-- −1000 -->
      <g transform="translate(21.191094 256.005439) scale(0.11 -0.11)">
       <use xlink:href="#Cambria-2212"/>
       <use xlink:href="#Cambria-31" x="55.371094"/>
       <use xlink:href="#Cambria-30" x="110.742188"/>
       <use xlink:href="#Cambria-30" x="166.113281"/>
       <use xlink:href="#Cambria-30" x="221.484375"/>
      </g>
     </g>
    </g>
    <g id="ytick_2">
     <g id="line2d_15">
      <path d="M 58.647344 224.162462 
L 304.167344 224.162462 
" clip-path="url(#pc7ea47277a)" style="fill: none; stroke-dasharray: 0.8,1.32; stroke-dashoffset: 0; stroke: #b0b0b0; stroke-width: 0.8"/>
     </g>
     <g id="line2d_16">
      <g>
       <use xlink:href="#m2c13f7c1fb" x="58.647344" y="224.162462" style="stroke: #000000; stroke-width: 0.8"/>
      </g>
     </g>
     <g id="text_9">
      <!-- −750 -->
      <g transform="translate(27.282344 228.005587) scale(0.11 -0.11)">
       <defs>
        <path id="Cambria-37" d="M 3206 4116 
L 1388 -22 
L 934 -22 
L 934 131 
L 2619 3697 
L 2619 3744 
L 1244 3744 
Q 1116 3744 1039 3720 
Q 963 3697 911 3653 
Q 859 3609 825 3537 
Q 791 3466 731 3253 
L 463 3253 
L 525 4266 
L 3206 4266 
L 3206 4116 
z
" transform="scale(0.015625)"/>
       </defs>
       <use xlink:href="#Cambria-2212"/>
       <use xlink:href="#Cambria-37" x="55.371094"/>
       <use xlink:href="#Cambria-35" x="110.742188"/>
       <use xlink:href="#Cambria-30" x="166.113281"/>
      </g>
     </g>
    </g>
    <g id="ytick_3">
     <g id="line2d_17">
      <path d="M 58.647344 196.162609 
L 304.167344 196.162609 
" clip-path="url(#pc7ea47277a)" style="fill: none; stroke-dasharray: 0.8,1.32; stroke-dashoffset: 0; stroke: #b0b0b0; stroke-width: 0.8"/>
     </g>
     <g id="line2d_18">
      <g>
       <use xlink:href="#m2c13f7c1fb" x="58.647344" y="196.162609" style="stroke: #000000; stroke-width: 0.8"/>
      </g>
     </g>
     <g id="text_10">
      <!-- −500 -->
      <g transform="translate(27.282344 200.005734) scale(0.11 -0.11)">
       <use xlink:href="#Cambria-2212"/>
       <use xlink:href="#Cambria-35" x="55.371094"/>
       <use xlink:href="#Cambria-30" x="110.742188"/>
       <use xlink:href="#Cambria-30" x="166.113281"/>
      </g>
     </g>
    </g>
    <g id="ytick_4">
     <g id="line2d_19">
      <path d="M 58.647344 168.162757 
L 304.167344 168.162757 
" clip-path="url(#pc7ea47277a)" style="fill: none; stroke-dasharray: 0.8,1.32; stroke-dashoffset: 0; stroke: #b0b0b0; stroke-width: 0.8"/>
     </g>
     <g id="line2d_20">
      <g>
       <use xlink:href="#m2c13f7c1fb" x="58.647344" y="168.162757" style="stroke: #000000; stroke-width: 0.8"/>
      </g>
     </g>
     <g id="text_11">
      <!-- −250 -->
      <g transform="translate(27.282344 172.005882) scale(0.11 -0.11)">
       <defs>
        <path id="Cambria-32" d="M 2194 500 
Q 2347 500 2440 519 
Q 2534 538 2590 581 
Q 2647 625 2680 695 
Q 2713 766 2763 913 
L 3028 913 
L 2975 0 
L 403 0 
L 403 150 
Q 538 478 766 822 
Q 994 1166 1413 1631 
Q 1775 2031 1934 2238 
Q 2109 2463 2195 2627 
Q 2281 2791 2318 2936 
Q 2356 3081 2356 3228 
Q 2356 3463 2281 3642 
Q 2206 3822 2051 3925 
Q 1897 4028 1663 4028 
Q 1078 4028 875 3378 
L 497 3378 
L 497 3978 
Q 875 4156 1204 4236 
Q 1534 4316 1797 4316 
Q 2378 4316 2675 4061 
Q 2972 3806 2972 3322 
Q 2972 3156 2939 3017 
Q 2906 2878 2836 2742 
Q 2766 2606 2647 2450 
Q 2528 2294 2384 2133 
Q 2241 1972 1888 1597 
Q 1294 969 1016 500 
L 2194 500 
z
" transform="scale(0.015625)"/>
       </defs>
       <use xlink:href="#Cambria-2212"/>
       <use xlink:href="#Cambria-32" x="55.371094"/>
       <use xlink:href="#Cambria-35" x="110.742188"/>
       <use xlink:href="#Cambria-30" x="166.113281"/>
      </g>
     </g>
    </g>
    <g id="ytick_5">
     <g id="line2d_21">
      <path d="M 58.647344 140.162904 
L 304.167344 140.162904 
" clip-path="url(#pc7ea47277a)" style="fill: none; stroke-dasharray: 0.8,1.32; stroke-dashoffset: 0; stroke: #b0b0b0; stroke-width: 0.8"/>
     </g>
     <g id="line2d_22">
      <g>
       <use xlink:href="#m2c13f7c1fb" x="58.647344" y="140.162904" style="stroke: #000000; stroke-width: 0.8"/>
      </g>
     </g>
     <g id="text_12">
      <!-- 0 -->
      <g transform="translate(45.556094 144.006029) scale(0.11 -0.11)">
       <use xlink:href="#Cambria-30"/>
      </g>
     </g>
    </g>
    <g id="ytick_6">
     <g id="line2d_23">
      <path d="M 58.647344 112.163052 
L 304.167344 112.163052 
" clip-path="url(#pc7ea47277a)" style="fill: none; stroke-dasharray: 0.8,1.32; stroke-dashoffset: 0; stroke: #b0b0b0; stroke-width: 0.8"/>
     </g>
     <g id="line2d_24">
      <g>
       <use xlink:href="#m2c13f7c1fb" x="58.647344" y="112.163052" style="stroke: #000000; stroke-width: 0.8"/>
      </g>
     </g>
     <g id="text_13">
      <!-- 250 -->
      <g transform="translate(33.373594 116.006177) scale(0.11 -0.11)">
       <use xlink:href="#Cambria-32"/>
       <use xlink:href="#Cambria-35" x="55.371094"/>
       <use xlink:href="#Cambria-30" x="110.742188"/>
      </g>
     </g>
    </g>
    <g id="ytick_7">
     <g id="line2d_25">
      <path d="M 58.647344 84.163199 
L 304.167344 84.163199 
" clip-path="url(#pc7ea47277a)" style="fill: none; stroke-dasharray: 0.8,1.32; stroke-dashoffset: 0; stroke: #b0b0b0; stroke-width: 0.8"/>
     </g>
     <g id="line2d_26">
      <g>
       <use xlink:href="#m2c13f7c1fb" x="58.647344" y="84.163199" style="stroke: #000000; stroke-width: 0.8"/>
      </g>
     </g>
     <g id="text_14">
      <!-- 500 -->
      <g transform="translate(33.373594 88.006324) scale(0.11 -0.11)">
       <use xlink:href="#Cambria-35"/>
       <use xlink:href="#Cambria-30" x="55.371094"/>
       <use xlink:href="#Cambria-30" x="110.742188"/>
      </g>
     </g>
    </g>
    <g id="ytick_8">
     <g id="line2d_27">
      <path d="M 58.647344 56.163347 
L 304.167344 56.163347 
" clip-path="url(#pc7ea47277a)" style="fill: none; stroke-dasharray: 0.8,1.32; stroke-dashoffset: 0; stroke: #b0b0b0; stroke-width: 0.8"/>
     </g>
     <g id="line2d_28">
      <g>
       <use xlink:href="#m2c13f7c1fb" x="58.647344" y="56.163347" style="stroke: #000000; stroke-width: 0.8"/>
      </g>
     </g>
     <g id="text_15">
      <!-- 750 -->
      <g transform="translate(33.373594 60.006472) scale(0.11 -0.11)">
       <use xlink:href="#Cambria-37"/>
       <use xlink:href="#Cambria-35" x="55.371094"/>
       <use xlink:href="#Cambria-30" x="110.742188"/>
      </g>
     </g>
    </g>
    <g id="ytick_9">
     <g id="line2d_29">
      <path d="M 58.647344 28.163494 
L 304.167344 28.163494 
" clip-path="url(#pc7ea47277a)" style="fill: none; stroke-dasharray: 0.8,1.32; stroke-dashoffset: 0; stroke: #b0b0b0; stroke-width: 0.8"/>
     </g>
     <g id="line2d_30">
      <g>
       <use xlink:href="#m2c13f7c1fb" x="58.647344" y="28.163494" style="stroke: #000000; stroke-width: 0.8"/>
      </g>
     </g>
     <g id="text_16">
      <!-- 1000 -->
      <g transform="translate(27.282344 32.006619) scale(0.11 -0.11)">
       <use xlink:href="#Cambria-31"/>
       <use xlink:href="#Cambria-30" x="55.371094"/>
       <use xlink:href="#Cambria-30" x="110.742188"/>
       <use xlink:href="#Cambria-30" x="166.113281"/>
      </g>
     </g>
    </g>
    <g id="text_17">
     <!-- Base Shear (kN) -->
     <g transform="translate(14.838125 179.155969) rotate(-90) scale(0.11 -0.11)">
      <defs>
       <path id="TimesNewRomanPSMT-42" d="M 2956 2163 
Q 3397 2069 3616 1863 
Q 3919 1575 3919 1159 
Q 3919 844 3719 555 
Q 3519 266 3170 133 
Q 2822 0 2106 0 
L 106 0 
L 106 116 
L 266 116 
Q 531 116 647 284 
Q 719 394 719 750 
L 719 3488 
Q 719 3881 628 3984 
Q 506 4122 266 4122 
L 106 4122 
L 106 4238 
L 1938 4238 
Q 2450 4238 2759 4163 
Q 3228 4050 3475 3764 
Q 3722 3478 3722 3106 
Q 3722 2788 3528 2536 
Q 3334 2284 2956 2163 
z
M 1319 2331 
Q 1434 2309 1582 2298 
Q 1731 2288 1909 2288 
Q 2366 2288 2595 2386 
Q 2825 2484 2947 2687 
Q 3069 2891 3069 3131 
Q 3069 3503 2766 3765 
Q 2463 4028 1881 4028 
Q 1569 4028 1319 3959 
L 1319 2331 
z
M 1319 306 
Q 1681 222 2034 222 
Q 2600 222 2897 476 
Q 3194 731 3194 1106 
Q 3194 1353 3059 1581 
Q 2925 1809 2622 1940 
Q 2319 2072 1872 2072 
Q 1678 2072 1540 2065 
Q 1403 2059 1319 2044 
L 1319 306 
z
" transform="scale(0.015625)"/>
       <path id="TimesNewRomanPSMT-53" d="M 2934 4334 
L 2934 2869 
L 2819 2869 
Q 2763 3291 2617 3541 
Q 2472 3791 2203 3937 
Q 1934 4084 1647 4084 
Q 1322 4084 1109 3886 
Q 897 3688 897 3434 
Q 897 3241 1031 3081 
Q 1225 2847 1953 2456 
Q 2547 2138 2764 1967 
Q 2981 1797 3098 1565 
Q 3216 1334 3216 1081 
Q 3216 600 2842 251 
Q 2469 -97 1881 -97 
Q 1697 -97 1534 -69 
Q 1438 -53 1133 45 
Q 828 144 747 144 
Q 669 144 623 97 
Q 578 50 556 -97 
L 441 -97 
L 441 1356 
L 556 1356 
Q 638 900 775 673 
Q 913 447 1195 297 
Q 1478 147 1816 147 
Q 2206 147 2432 353 
Q 2659 559 2659 841 
Q 2659 997 2573 1156 
Q 2488 1316 2306 1453 
Q 2184 1547 1640 1851 
Q 1097 2156 867 2337 
Q 638 2519 519 2737 
Q 400 2956 400 3219 
Q 400 3675 750 4004 
Q 1100 4334 1641 4334 
Q 1978 4334 2356 4169 
Q 2531 4091 2603 4091 
Q 2684 4091 2736 4139 
Q 2788 4188 2819 4334 
L 2934 4334 
z
" transform="scale(0.015625)"/>
       <path id="TimesNewRomanPSMT-68" d="M 1041 4444 
L 1041 2350 
Q 1388 2731 1591 2839 
Q 1794 2947 1997 2947 
Q 2241 2947 2416 2812 
Q 2591 2678 2675 2391 
Q 2734 2191 2734 1659 
L 2734 647 
Q 2734 375 2778 275 
Q 2809 200 2884 156 
Q 2959 113 3159 113 
L 3159 0 
L 1753 0 
L 1753 113 
L 1819 113 
Q 2019 113 2097 173 
Q 2175 234 2206 353 
Q 2216 403 2216 647 
L 2216 1659 
Q 2216 2128 2167 2275 
Q 2119 2422 2012 2495 
Q 1906 2569 1756 2569 
Q 1603 2569 1437 2487 
Q 1272 2406 1041 2159 
L 1041 647 
Q 1041 353 1073 281 
Q 1106 209 1195 161 
Q 1284 113 1503 113 
L 1503 0 
L 84 0 
L 84 113 
Q 275 113 384 172 
Q 447 203 484 290 
Q 522 378 522 647 
L 522 3238 
Q 522 3728 498 3840 
Q 475 3953 426 3993 
Q 378 4034 297 4034 
Q 231 4034 84 3984 
L 41 4094 
L 897 4444 
L 1041 4444 
z
" transform="scale(0.015625)"/>
       <path id="TimesNewRomanPSMT-72" d="M 1038 2947 
L 1038 2303 
Q 1397 2947 1775 2947 
Q 1947 2947 2059 2842 
Q 2172 2738 2172 2600 
Q 2172 2478 2090 2393 
Q 2009 2309 1897 2309 
Q 1788 2309 1652 2417 
Q 1516 2525 1450 2525 
Q 1394 2525 1328 2463 
Q 1188 2334 1038 2041 
L 1038 669 
Q 1038 431 1097 309 
Q 1138 225 1241 169 
Q 1344 113 1538 113 
L 1538 0 
L 72 0 
L 72 113 
Q 291 113 397 181 
Q 475 231 506 341 
Q 522 394 522 644 
L 522 1753 
Q 522 2253 501 2348 
Q 481 2444 426 2487 
Q 372 2531 291 2531 
Q 194 2531 72 2484 
L 41 2597 
L 906 2947 
L 1038 2947 
z
" transform="scale(0.015625)"/>
       <path id="TimesNewRomanPSMT-6b" d="M 1047 4444 
L 1047 1597 
L 1775 2259 
Q 2006 2472 2044 2528 
Q 2069 2566 2069 2603 
Q 2069 2666 2017 2711 
Q 1966 2756 1847 2763 
L 1847 2863 
L 3091 2863 
L 3091 2763 
Q 2834 2756 2664 2684 
Q 2494 2613 2291 2428 
L 1556 1750 
L 2291 822 
Q 2597 438 2703 334 
Q 2853 188 2966 144 
Q 3044 113 3238 113 
L 3238 0 
L 1847 0 
L 1847 113 
Q 1966 116 2008 148 
Q 2050 181 2050 241 
Q 2050 313 1925 472 
L 1047 1594 
L 1047 644 
Q 1047 366 1086 278 
Q 1125 191 1197 153 
Q 1269 116 1509 113 
L 1509 0 
L 53 0 
L 53 113 
Q 272 113 381 166 
Q 447 200 481 272 
Q 528 375 528 628 
L 528 3234 
Q 528 3731 506 3842 
Q 484 3953 434 3995 
Q 384 4038 303 4038 
Q 238 4038 106 3984 
L 53 4094 
L 903 4444 
L 1047 4444 
z
" transform="scale(0.015625)"/>
       <path id="TimesNewRomanPSMT-4e" d="M -84 4238 
L 1066 4238 
L 3656 1059 
L 3656 3503 
Q 3656 3894 3569 3991 
Q 3453 4122 3203 4122 
L 3056 4122 
L 3056 4238 
L 4531 4238 
L 4531 4122 
L 4381 4122 
Q 4113 4122 4000 3959 
Q 3931 3859 3931 3503 
L 3931 -69 
L 3819 -69 
L 1025 3344 
L 1025 734 
Q 1025 344 1109 247 
Q 1228 116 1475 116 
L 1625 116 
L 1625 0 
L 150 0 
L 150 116 
L 297 116 
Q 569 116 681 278 
Q 750 378 750 734 
L 750 3681 
Q 566 3897 470 3965 
Q 375 4034 191 4094 
Q 100 4122 -84 4122 
L -84 4238 
z
" transform="scale(0.015625)"/>
      </defs>
      <use xlink:href="#TimesNewRomanPSMT-42"/>
      <use xlink:href="#TimesNewRomanPSMT-61" x="66.699219"/>
      <use xlink:href="#TimesNewRomanPSMT-73" x="111.083984"/>
      <use xlink:href="#TimesNewRomanPSMT-65" x="150"/>
      <use xlink:href="#TimesNewRomanPSMT-20" x="194.384766"/>
      <use xlink:href="#TimesNewRomanPSMT-53" x="219.384766"/>
      <use xlink:href="#TimesNewRomanPSMT-68" x="275"/>
      <use xlink:href="#TimesNewRomanPSMT-65" x="325"/>
      <use xlink:href="#TimesNewRomanPSMT-61" x="369.384766"/>
      <use xlink:href="#TimesNewRomanPSMT-72" x="413.769531"/>
      <use xlink:href="#TimesNewRomanPSMT-20" x="447.070312"/>
      <use xlink:href="#TimesNewRomanPSMT-28" x="472.070312"/>
      <use xlink:href="#TimesNewRomanPSMT-6b" x="505.371094"/>
      <use xlink:href="#TimesNewRomanPSMT-4e" x="555.371094"/>
      <use xlink:href="#TimesNewRomanPSMT-29" x="627.587891"/>
     </g>
    </g>
   </g>
   <g id="line2d_31">
    <path d="M 190.048944 140.302468 
L 190.225744 134.673462 
L 190.879344 128.739953 
L 192.015344 122.205911 
L 191.911344 113.324685 
L 192.327344 107.395411 
L 193.487344 103.52573 
L 194.271344 108.249694 
L 194.359344 115.650722 
L 192.359344 131.082907 
L 190.759344 139.105616 
L 189.904144 148.595839 
L 188.319344 157.80271 
L 188.119344 161.359434 
L 186.463344 164.941525 
L 185.535344 167.918853 
L 186.151344 158.728899 
L 188.639344 144.176373 
L 190.927344 132.588487 
L 191.463344 116.589589 
L 192.559344 106.503053 
L 193.695344 100.561095 
L 194.591344 94.327317 
L 196.223344 88.672935 
L 197.607344 83.022787 
L 199.007344 79.44492 
L 200.447344 78.827464 
L 201.487344 81.770957 
L 200.287344 85.936673 
L 199.647344 91.574137 
L 198.687344 95.143544 
L 198.047344 101.077048 
L 195.551344 114.149372 
L 192.503344 122.493492 
L 191.199344 134.952584 
L 189.831504 142.378984 
L 189.683344 150.376315 
L 188.823344 159.866543 
L 187.231344 168.481331 
L 186.167344 180.640154 
L 185.255344 185.689763 
L 184.335344 189.55521 
L 183.391344 191.644415 
L 180.527344 194.06349 
L 179.567344 194.080408 
L 179.967344 189.039252 
L 181.567344 181.608628 
L 182.719344 175.370625 
L 184.583344 169.119934 
L 185.959344 162.877697 
L 188.263344 153.066058 
L 189.600144 143.271332 
L 192.551344 126.934105 
L 195.311344 114.449641 
L 194.271344 108.249694 
L 193.463344 101.453443 
L 194.607344 95.807525 
L 197.887344 83.906676 
L 198.767344 81.817476 
L 196.863344 102.282359 
L 195.535344 112.669164 
L 192.767344 124.561549 
L 191.455344 136.724601 
L 189.372144 144.459724 
L 188.047344 155.142574 
L 187.655344 163.440175 
L 185.567344 170.583219 
L 184.183344 176.529411 
L 183.327344 186.019634 
L 183.135344 190.464481 
L 181.727344 193.450263 
L 179.327344 193.788598 
L 179.967344 189.927376 
L 181.167344 184.281457 
L 184.607344 171.48826 
L 186.215344 164.353675 
L 189.378544 145.051808 
L 192.095344 129.01485 
L 196.455344 108.507678 
L 199.407344 92.76253 
L 200.047344 85.940902 
L 201.887344 78.802088 
L 204.047344 72.843207 
L 205.647344 67.188829 
L 209.167344 57.652082 
L 211.807344 54.941197 
L 213.487344 53.727422 
L 212.767344 57.884684 
L 211.647344 61.754365 
L 210.687344 65.619807 
L 206.287344 81.982411 
L 203.727344 87.653707 
L 201.407344 94.80098 
L 196.591344 120.349309 
L 192.895344 135.219022 
L 191.063344 144.134083 
L 189.444944 150.676584 
L 185.751344 166.138376 
L 185.119344 174.144167 
L 184.471344 180.373716 
L 183.311344 185.131515 
L 182.911344 192.244958 
L 181.247344 197.899335 
L 180.127344 202.953175 
L 178.447344 206.53527 
L 176.847344 212.485687 
L 174.687344 216.076247 
L 171.167344 219.692174 
L 171.327344 215.543371 
L 172.207344 209.901682 
L 173.567344 202.179242 
L 176.367344 192.655184 
L 178.447344 184.031932 
L 181.487344 170.359076 
L 184.263344 162.907304 
L 185.879344 156.364798 
L 188.919344 146.83651 
L 190.011344 137.046018 
L 192.311344 126.938334 
L 193.911344 118.915625 
L 195.295344 113.265478 
L 197.599344 103.157794 
L 199.887344 93.642194 
L 201.727344 87.095459 
L 203.807344 77.584088 
L 205.647344 69.85319 
L 209.167344 60.316453 
L 211.327344 55.54173 
L 213.247344 53.139573 
L 212.607344 60.553279 
L 210.527344 69.472571 
L 208.127344 75.435681 
L 205.567344 84.363426 
L 203.007344 92.699092 
L 200.687344 101.622613 
L 198.367344 109.065926 
L 196.575344 118.869106 
L 194.719344 126.007921 
L 194.055344 131.349345 
L 188.743344 153.057599 
L 186.463344 164.645485 
L 181.567344 182.496751 
L 180.447344 188.438714 
L 177.247344 201.819761 
L 175.567344 207.474143 
L 174.447344 214.304229 
L 173.567344 218.465716 
L 171.087344 218.211971 
L 171.967344 209.609867 
L 174.047344 200.394536 
L 176.847344 190.278399 
L 179.567344 178.089969 
L 182.615344 166.489399 
L 185.655344 157.849235 
L 190.546544 141.478172 
L 189.796944 139.418573 
L 192.343344 129.602705 
L 194.159344 119.50348 
L 196.471344 109.98788 
L 199.407344 92.76253 
L 202.847344 74.048517 
L 207.007344 62.426795 
L 210.527344 51.409845 
L 213.647344 46.32217 
L 217.647344 40.625497 
L 219.567344 39.999582 
L 219.887344 42.659729 
L 220.367344 43.243349 
L 221.727344 39.073398 
L 229.247344 35.981889 
L 229.967344 38.929606 
L 230.767344 45.725861 
L 229.887344 52.255674 
L 189.440944 171.107636 
L 227.167344 64.148059 
L 225.727344 69.206137 
L 223.647344 74.572934 
L 221.327344 82.016242 
L 219.407344 88.562978 
L 217.327344 93.929775 
L 214.767344 101.969401 
L 211.727344 109.425403 
L 209.327344 115.684553 
L 207.727344 122.227054 
L 205.167344 129.082517 
L 203.007344 134.449314 
L 199.727344 141.021421 
L 197.623344 146.684263 
L 195.287344 154.127576 
L 190.367344 167.538229 
L 186.823344 174.70665 
L 184.439344 178.005389 
L 182.631344 188.400654 
L 181.087344 200.86397 
L 177.327344 209.220784 
L 173.807344 217.573368 
L 172.367344 222.039357 
L 170.767344 226.213527 
L 169.327344 230.975567 
L 167.487344 235.153971 
L 165.567344 237.556128 
L 164.607344 239.349288 
L 162.447344 239.387349 
L 161.647344 237.031711 
L 161.007344 239.70877 
L 157.647344 241.84026 
L 154.207344 242.787591 
L 152.047344 244.601904 
L 148.687344 244.069027 
L 149.567344 233.394637 
L 151.167344 226.556091 
L 152.767344 219.125467 
L 155.087344 210.497991 
L 158.287344 197.709023 
L 161.807344 186.988113 
L 226.687344 45.797758 
L 167.647344 168.52785 
L 170.447344 160.483999 
L 173.967344 151.835375 
L 180.127344 140.475862 
L 182.967344 134.504292 
L 186.279344 128.524269 
L 194.119344 115.654946 
L 196.455344 108.803717 
L 198.607344 104.917123 
L 204.287344 95.342315 
L 207.567344 85.809798 
L 210.367344 76.877818 
L 217.887344 60.756285 
L 221.247344 55.072296 
L 227.887344 43.408284 
L 229.567344 41.010356 
L 230.767344 41.285248 
L 231.487344 45.121094 
L 229.647344 52.851982 
L 227.327344 59.407182 
L 225.487344 70.394525 
L 222.447344 79.626774 
L 220.367344 84.401487 
L 217.807344 92.441113 
L 215.247344 99.888656 
L 212.127344 107.344657 
L 210.767344 113.29085 
L 207.967344 120.742622 
L 206.127344 126.993312 
L 201.167344 139.219802 
L 197.391344 147.872655 
L 193.655344 159.189874 
L 187.327344 176.474433 
L 179.887344 184.00656 
L 174.287344 197.725936 
L 171.647344 202.509118 
L 169.567344 208.171954 
L 167.647344 212.054319 
L 164.847344 216.545686 
L 161.727344 221.929396 
L 159.647344 227.592232 
L 157.007344 232.967488 
L 153.167344 237.475773 
L 150.047344 239.306998 
L 149.567344 235.170884 
L 151.807344 223.286958 
L 154.367344 211.102758 
L 157.807344 199.789769 
L 161.167344 191.145375 
L 166.207344 172.105716 
L 170.207344 161.968431 
L 172.527344 155.117197 
L 176.127344 147.948781 
L 178.927344 140.793049 
L 182.479344 134.216712 
L 186.031344 127.344335 
L 192.207344 117.761069 
L 196.231344 110.584189 
L 201.407344 98.353475 
L 206.367344 87.607187 
L 213.647344 69.713627 
L 216.527344 63.742062 
L 219.807344 57.465994 
L 222.847344 51.194161 
L 229.087344 43.683181 
L 231.007344 43.649345 
L 230.847344 48.982306 
L 228.527344 56.721669 
L 226.207344 65.645189 
L 218.287344 91.544531 
L 214.927344 98.412682 
L 213.087344 106.143581 
L 209.567344 113.608036 
L 206.127344 126.105189 
L 202.047344 135.354355 
L 196.223344 151.446292 
L 193.199344 161.27062 
L 188.471344 171.124549 
L 194.215344 165.694315 
L 182.071344 181.896213 
L 175.887344 192.663638 
L 174.527344 196.537549 
L 171.407344 203.401466 
L 161.007344 224.014371 
L 157.247344 230.594942 
L 153.167344 236.291614 
L 151.007344 237.513838 
L 150.047344 236.346588 
L 150.927344 227.744484 
L 153.007344 218.529158 
L 154.527344 209.026242 
L 156.847344 200.69481 
L 160.847344 190.85356 
L 164.127344 179.840839 
L 165.967344 172.998069 
L 170.447344 161.964202 
L 178.687344 141.389357 
L 182.255344 135.701144 
L 186.047344 128.824538 
L 195.295344 112.969433 
L 201.007344 101.914423 
L 205.647344 89.988202 
L 211.567344 78.632923 
L 214.847344 71.172687 
L 219.647344 61.910842 
L 223.887344 54.729737 
L 227.407344 49.041514 
L 231.007344 44.241429 
L 234.607344 41.513621 
L 237.487344 39.094546 
L 238.287344 42.634347 
L 238.927344 39.661253 
L 241.087344 37.550901 
L 244.687344 35.711221 
L 247.807344 34.768124 
L 251.007344 34.121057 
L 251.967344 37.656633 
L 252.047344 42.097246 
L 251.647344 48.618605 
L 249.247344 54.877755 
L 247.167344 62.020799 
L 244.607344 67.692094 
L 242.047344 76.915884 
L 240.207344 82.57449 
L 237.087344 90.030497 
L 233.807344 98.970931 
L 231.007344 105.534579 
L 228.447344 112.093998 
L 225.567344 118.953691 
L 219.487344 130.609239 
L 215.887344 137.185581 
L 213.487344 140.484321 
L 210.207344 144.688102 
L 200.607344 156.698903 
L 197.063344 160.906913 
L 193.263344 166.895396 
L 183.015344 180.399087 
L 175.407344 194.448344 
L 172.607344 200.419908 
L 170.767344 206.078525 
L 167.167344 212.062778 
L 163.167344 220.127772 
L 158.207344 230.874059 
L 153.887344 235.686842 
L 149.407344 240.50385 
L 146.287344 242.631115 
L 135.647344 246.961771 
L 132.527344 247.904868 
L 130.367344 248.831052 
L 128.207344 248.869112 
L 128.127344 241.172055 
L 129.967344 233.737196 
L 133.887344 216.790971 
L 136.847344 206.078525 
L 143.167344 187.313759 
L 145.967344 177.7897 
L 149.247344 168.553227 
L 153.967344 159.883456 
L 158.767344 151.509729 
L 163.967344 144.015663 
L 168.767344 138.898386 
L 172.607344 135.27823 
L 177.087344 130.165182 
L 182.151344 126.819918 
L 187.639344 120.50579 
L 190.983344 116.894093 
L 200.047344 104.299667 
L 204.767344 95.925935 
L 209.487344 86.66409 
L 213.327344 80.083519 
L 217.567344 74.382622 
L 223.087344 67.18037 
L 227.327344 60.887384 
L 232.367344 54.285671 
L 237.327344 48.572085 
L 242.127344 45.231046 
L 247.407344 40.697394 
L 250.047344 39.466716 
L 252.527344 40.608585 
L 251.407344 47.734711 
L 246.927344 62.617107 
L 243.407344 70.377607 
L 241.567344 77.516422 
L 237.807344 87.353438 
L 234.287344 96.002061 
L 231.727344 103.449604 
L 228.207344 111.210104 
L 224.847344 119.558458 
L 223.247344 122.54847 
L 220.607344 129.107889 
L 218.047344 132.706903 
L 211.887344 142.882253 
L 206.847344 148.299799 
L 201.327344 151.949562 
L 197.479344 155.273678 
L 194.143344 159.477455 
L 189.610544 164.886546 
L 184.127344 172.088798 
L 180.127344 180.449841 
L 175.567344 186.451012 
L 172.527344 191.538688 
L 169.887344 196.321859 
L 167.567344 201.396846 
L 164.207344 207.376875 
L 160.927344 213.652942 
L 156.847344 219.05357 
L 153.567344 224.737559 
L 150.687344 227.452679 
L 146.847344 231.664914 
L 141.567344 235.902531 
L 137.727344 240.410811 
L 133.647344 243.739152 
L 130.527344 245.274338 
L 128.127344 244.428504 
L 129.487344 235.225862 
L 131.327344 226.014766 
L 133.887344 218.567219 
L 135.487344 211.432634 
L 138.527344 200.720182 
L 141.567344 190.895855 
L 143.647344 183.160732 
L 147.327344 172.139547 
L 150.207344 165.279859 
L 161.567344 146.130244 
L 169.887344 136.212873 
L 174.447344 129.915662 
L 181.167344 125.652673 
L 186.895344 119.038271 
L 194.543344 110.909835 
L 199.247344 101.944024 
L 204.527344 97.410373 
L 209.967344 88.431874 
L 214.287344 80.658685 
L 218.607344 75.845907 
L 222.847344 69.256881 
L 228.127344 62.650938 
L 231.887344 58.734742 
L 236.447344 54.213774 
L 241.727344 47.607841 
L 245.567344 45.171838 
L 249.887344 40.951148 
L 251.567344 40.329458 
L 251.407344 48.03075 
L 249.247344 53.101512 
L 247.007344 63.505231 
L 243.887344 70.073114 
L 241.807344 77.512192 
L 238.527344 86.452631 
L 235.487344 93.612593 
L 233.407344 100.459592 
L 231.247344 105.53035 
L 224.847344 118.966374 
L 220.847344 127.327417 
L 204.687344 149.522023 
L 199.887344 154.04722 
L 192.951344 160.978805 
L 184.895344 175.33256 
L 177.727344 185.228784 
L 174.207344 189.436794 
L 169.887344 194.841657 
L 165.567344 199.950475 
L 161.807344 207.715204 
L 155.407344 216.118542 
L 153.727344 221.180835 
L 149.647344 225.693345 
L 141.327344 235.314672 
L 135.087344 238.977123 
L 131.967344 241.992511 
L 128.847344 243.527692 
L 129.007344 237.602647 
L 131.807344 226.894431 
L 135.247344 212.324987 
L 137.087344 203.409925 
L 140.847344 192.98083 
L 143.887344 183.156497 
L 147.327344 171.547468 
L 150.927344 163.786968 
L 157.087344 154.795781 
L 166.367344 139.828799 
L 179.487344 126.570398 
L 187.375344 118.437733 
L 192.879344 113.011728 
L 196.207344 108.511902 
L 207.407344 94.399213 
L 211.887344 85.733672 
L 216.207344 80.624854 
L 220.447344 74.035834 
L 227.167344 65.628266 
L 232.847344 58.125745 
L 236.927344 52.133033 
L 242.207344 48.4875 
L 245.807344 45.167613 
L 249.407344 41.255642 
L 252.447344 38.832337 
L 256.367344 37.580512 
L 264.767344 33.880001 
L 268.367344 32.92844 
L 270.607344 34.074538 
L 271.407344 38.802736 
L 268.367344 51.287205 
L 265.567344 58.738977 
L 263.727344 67.061949 
L 261.407344 75.393386 
L 259.487344 80.163874 
L 257.167344 86.423024 
L 254.367344 92.986673 
L 251.247344 101.034758 
L 248.687344 108.482301 
L 244.207344 115.667635 
L 241.407344 123.711491 
L 235.887344 130.321659 
L 232.607344 137.48585 
L 228.287344 141.114465 
L 223.007344 146.83228 
L 216.047344 149.323257 
L 209.087344 152.110268 
L 204.287344 155.747342 
L 199.247344 160.276769 
L 187.775344 173.801608 
L 182.071344 182.488292 
L 175.167344 188.827797 
L 169.647344 196.326094 
L 162.447344 203.261903 
L 158.447344 212.511069 
L 151.327344 222.407293 
L 145.407344 229.914044 
L 140.127344 235.927903 
L 136.527344 238.655711 
L 132.447344 242.280092 
L 127.887344 245.616892 
L 123.807344 247.76108 
L 118.767344 249.922176 
L 115.647344 251.753397 
L 111.247344 252.421612 
L 108.207344 252.472355 
L 109.007344 245.650728 
L 109.887344 235.568426 
L 111.487344 228.729876 
L 114.047344 220.098175 
L 118.287344 209.068537 
L 122.287344 197.155005 
L 126.047344 187.614028 
L 130.527344 177.764323 
L 134.047344 169.411744 
L 141.567344 153.586246 
L 155.887344 136.754203 
L 150.367344 142.476252 
L 155.167344 137.655015 
L 161.647344 134.876458 
L 166.927344 131.526969 
L 171.807344 129.370098 
L 175.407344 126.05021 
L 181.855344 122.087495 
L 186.639344 117.562298 
L 192.863344 112.123604 
L 201.487344 102.498043 
L 208.607344 92.00974 
L 214.767344 83.610636 
L 219.087344 78.501819 
L 224.287344 71.895875 
L 229.087344 66.186514 
L 234.367344 61.356818 
L 239.647344 56.231082 
L 244.847344 50.513263 
L 255.167344 42.338312 
L 262.607344 38.950753 
L 267.247344 37.68624 
L 271.407344 37.914612 
L 272.207344 40.553601 
L 270.607344 45.615904 
L 269.087344 53.050758 
L 267.487344 59.001185 
L 261.167344 79.246144 
L 257.407344 86.418795 
L 255.247344 91.785597 
L 251.967344 99.541867 
L 249.887344 105.796788 
L 247.567344 111.759893 
L 243.967344 117.744151 
L 239.967344 124.032907 
L 236.367344 130.01716 
L 231.647344 139.27901 
L 228.287344 142.890707 
L 222.287344 148.029132 
L 216.047344 151.987622 
L 208.367344 156.267529 
L 204.047344 160.192184 
L 200.687344 163.507842 
L 195.919344 166.256797 
L 186.119344 176.79162 
L 178.927344 184.023478 
L 171.807344 190.663252 
L 167.247344 197.552542 
L 162.447344 202.669824 
L 153.887344 212.887459 
L 149.567344 217.404203 
L 147.007344 221.891335 
L 142.447344 226.116259 
L 132.127344 236.65955 
L 127.567344 239.108227 
L 122.287344 243.641884 
L 117.247344 246.099019 
L 112.927344 248.543471 
L 109.007344 250.383156 
L 109.007344 243.878715 
L 109.807344 236.460779 
L 112.687344 224.56416 
L 115.727344 215.035872 
L 119.727344 205.490671 
L 122.527344 196.558696 
L 125.087344 190.295312 
L 128.127344 182.543276 
L 132.607344 172.397531 
L 140.687344 156.563569 
L 144.687344 148.202531 
L 151.087344 140.687321 
L 160.927344 134.297067 
L 167.407344 130.630387 
L 177.087344 126.316649 
L 182.815344 121.774538 
L 189.040144 116.0398 
L 194.071344 112.102457 
L 202.447344 101.000922 
L 207.887344 95.574918 
L 211.967344 89.582201 
L 219.807344 80.561417 
L 224.127344 73.972391 
L 228.687344 70.043502 
L 232.927344 65.822813 
L 241.567344 56.197246 
L 245.647344 53.164945 
L 250.447344 48.935787 
L 256.447344 44.981525 
L 260.527344 42.541308 
L 267.247344 39.462482 
L 270.607344 38.510921 
L 272.207344 42.046497 
L 268.847344 52.462909 
L 265.327344 62.887775 
L 262.767344 71.223441 
L 261.407344 78.649836 
L 258.607344 85.213484 
L 254.367344 96.243122 
L 250.127344 105.496514 
L 239.967344 124.624986 
L 217.967344 151.657747 
L 207.407344 157.76465 
L 193.535344 169.555532 
L 177.727344 185.820868 
L 165.087344 196.1104 
L 161.247344 200.618684 
L 153.407344 211.415716 
L 148.127344 218.021659 
L 142.447344 224.932096 
L 136.447344 230.36656 
L 127.087344 237.932523 
L 120.127344 243.3839 
L 113.167344 247.059039 
L 110.287344 248.293951 
L 109.007344 247.13516 
L 109.007344 239.429643 
L 110.527344 231.411159 
L 113.087344 222.483419 
L 117.567344 209.081225 
L 122.927344 194.181906 
L 127.167344 184.040391 
L 129.807344 178.665135 
L 132.847344 173.28142 
L 135.967344 167.009582 
L 140.607344 156.267529 
L 145.647344 146.70541 
L 150.607344 142.175983 
L 161.167344 134.884917 
L 169.407344 130.892595 
L 184.255344 120.861037 
L 194.543344 110.613795 
L 203.327344 99.207762 
L 213.887344 88.068167 
L 225.327344 77.503738 
L 231.567344 70.288798 
L 237.487344 62.782042 
L 243.007344 57.652082 
L 249.967344 51.904661 
L 251.727344 53.947341 
L 252.607344 51.562097 
L 254.767344 48.563621 
L 259.327344 45.818905 
L 264.367344 42.473641 
L 271.407344 38.502462 
L 277.007344 36.633181 
L 281.807344 33.575497 
L 287.407344 32.302525 
L 292.207344 31.926125 
L 289.807344 52.399467 
L 287.407344 57.174189 
L 285.807344 64.905078 
L 282.607344 72.948934 
L 280.207344 79.800168 
L 274.607344 94.707941 
L 269.807344 104.553417 
L 265.487344 114.111306 
L 261.407344 121.288181 
L 257.407344 126.392774 
L 251.647344 134.191335 
L 242.367344 143.53354 
L 234.127344 146.341699 
L 223.327344 150.676584 
L 215.807344 153.472054 
L 204.527344 160.479765 
L 192.343344 171.056882 
L 183.735344 179.79432 
L 176.527344 186.434094 
L 157.647344 206.602937 
L 151.967344 214.105458 
L 141.647344 224.64874 
L 136.207344 230.370794 
L 128.767344 236.126674 
L 120.127344 242.495776 
L 112.207344 246.483873 
L 106.607344 248.065579 
L 99.407344 250.552321 
L 93.807344 252.726105 
L 89.807344 253.686125 
L 87.407344 253.136336 
L 87.407344 246.022898 
L 90.607344 236.503064 
L 93.007344 228.467672 
L 96.207344 216.854414 
L 100.207344 208.79364 
L 104.207344 195.987754 
L 108.207344 186.442553 
L 113.967344 174.499419 
L 119.407344 162.560515 
L 123.967344 154.783097 
L 127.007344 149.103338 
L 131.807344 143.986061 
L 136.847344 140.640797 
L 142.607344 138.170973 
L 149.327344 135.684226 
L 158.287344 134.047547 
L 168.607344 129.129037 
L 174.607344 123.990612 
L 185.159344 115.219343 
L 192.599344 110.055547 
L 191.887344 111.252399 
L 201.247344 102.798317 
L 217.007344 86.532981 
L 222.287344 82.887453 
L 227.087344 78.658295 
L 237.327344 68.115013 
L 240.447344 64.507546 
L 243.807344 62.080006 
L 245.247344 63.830877 
L 245.487344 60.570197 
L 248.127344 58.747431 
L 252.207344 56.603253 
L 257.247344 52.665905 
L 262.287344 49.912725 
L 267.327344 46.863505 
L 273.007344 42.909249 
L 279.407344 40.134916 
L 285.007344 37.073008 
L 290.607344 35.199493 
L 291.407344 41.708163 
L 289.807344 49.134558 
L 286.607344 60.439093 
L 285.007344 67.878182 
L 281.807344 77.410694 
L 278.607344 83.386493 
L 275.407344 92.026653 
L 267.087344 110.52921 
L 263.087344 118.00213 
L 257.647344 126.980624 
L 254.047344 132.372798 
L 249.007344 137.494309 
L 232.447344 148.147552 
L 220.447344 151.911496 
L 206.207344 159.56204 
L 197.135344 167.419813 
L 186.855344 177.667055 
L 175.087344 184.387185 
L 168.607344 191.01427 
L 163.407344 196.73209 
L 157.887344 203.638303 
L 153.087344 207.867451 
L 149.567344 213.25963 
L 143.087344 220.182755 
L 136.847344 224.141251 
L 132.767344 228.653755 
L 126.767344 233.200095 
L 120.287344 237.458855 
L 113.567344 240.83372 
L 109.967344 243.857568 
L 102.607344 246.0525 
L 97.807344 248.213596 
L 91.407344 250.395844 
L 87.407344 249.875657 
L 88.207344 244.238192 
L 89.807344 238.588039 
L 91.407344 231.745264 
L 94.607344 220.736779 
L 97.807344 210.612182 
L 102.607344 200.170388 
L 106.607344 188.540212 
L 112.367344 177.785471 
L 117.087344 166.155294 
L 123.007344 156.872297 
L 127.727344 148.79461 
L 137.087344 139.748449 
L 143.087344 136.978351 
L 151.007344 133.878377 
L 160.207344 130.461222 
L 165.727344 127.995622 
L 171.487344 124.637675 
L 177.487344 121.571537 
L 185.383344 113.438872 
L 191.607344 108.296218 
L 207.887344 96.759081 
L 215.567344 90.702931 
L 219.647344 87.078541 
L 224.447344 84.033551 
L 228.287344 81.301518 
L 230.207344 79.49144 
L 231.007344 81.551038 
L 232.127344 79.753648 
L 234.047344 74.983155 
L 237.647344 70.47911 
L 242.927344 66.537537 
L 249.407344 61.982738 
L 254.687344 58.929289 
L 259.007344 55.596713 
L 263.327344 52.560177 
L 268.367344 50.695121 
L 271.407344 49.164169 
L 271.407344 52.716654 
L 273.007344 49.434832 
L 275.407344 46.423673 
L 278.607344 44.004598 
L 281.807344 41.868873 
L 285.007344 40.934226 
L 288.207344 42.050722 
L 289.807344 47.954629 
L 289.807344 52.978862 
L 291.407344 58.582491 
L 293.007344 69.510631 
L 290.607344 74.877433 
L 285.807344 90.068557 
L 283.407344 96.027438 
L 279.407344 105.285059 
L 274.607344 116.027117 
L 272.207344 120.209745 
L 268.047344 125.318568 
L 263.247344 132.212092 
L 256.767344 139.431262 
L 249.567344 144.294789 
L 239.007344 150.105648 
L 227.487344 153.565098 
L 217.807344 154.918426 
L 204.847344 161.363659 
L 184.399344 174.452895 
L 177.967344 179.599783 
L 174.127344 184.108058 
L 169.327344 188.337216 
L 164.767344 192.56214 
L 159.967344 198.56754 
L 155.487344 202.20039 
L 152.607344 205.507584 
L 150.687344 207.317667 
L 149.167344 205.270752 
L 145.887344 210.066617 
L 143.247344 214.25771 
L 137.727344 219.683715 
L 135.407344 222.982454 
L 132.527344 225.697574 
L 130.127344 226.924027 
L 128.847344 223.39269 
L 126.927344 227.571095 
L 120.927344 231.525351 
L 117.167344 234.849467 
L 113.087344 237.585734 
L 110.367344 238.520372 
L 109.887344 235.272387 
L 107.407344 240.051324 
L 102.607344 242.804504 
L 97.807344 244.360843 
L 93.007344 246.225899 
L 89.807344 246.881415 
L 87.407344 243.654567 
L 85.807344 246.949082 
L 82.607344 249.668431 
L 77.007344 250.649589 
L 75.407344 250.38738 
L 74.607344 247.13516 
L 73.807344 241.823347 
L 72.207344 234.447695 
L 70.607344 217.602974 
L 69.807344 208.138118 
L 70.607344 201.316496 
L 73.007344 193.877407 
L 74.607344 187.326447 
L 77.007344 182.25569 
L 83.407344 171.479801 
L 87.407344 166.375208 
L 90.607344 161.875387 
L 94.607344 157.967651 
L 98.607344 154.343265 
L 101.007344 151.628145 
L 103.407344 149.513569 
L 103.407344 149.513569 
" clip-path="url(#pc7ea47277a)" style="fill: none; stroke-dasharray: 4.07,1.76; stroke-dashoffset: 0; stroke: #433f40; stroke-width: 1.1"/>
   </g>
   <g id="line2d_32">
    <path d="M 58.647344 31.926125 
L 304.167344 31.926125 
" clip-path="url(#pc7ea47277a)" style="fill: none; stroke-dasharray: 3.7,1.6; stroke-dashoffset: 0; stroke: #ff0000"/>
   </g>
   <g id="line2d_33">
    <path d="M 58.647344 253.686125 
L 304.167344 253.686125 
" clip-path="url(#pc7ea47277a)" style="fill: none; stroke-dasharray: 3.7,1.6; stroke-dashoffset: 0; stroke: #ff0000"/>
   </g>
   <g id="line2d_34">
    <path d="M 189.807344 140.162904 
L 190.879344 116.936851 
L 192.015344 99.048476 
L 191.911344 100.948269 
L 192.327344 96.206139 
L 193.487344 87.699344 
L 194.359344 82.491262 
L 193.471344 94.71928 
L 190.759344 119.551785 
L 188.119344 174.004722 
L 186.463344 187.953686 
L 185.535344 193.056782 
L 186.151344 183.902936 
L 187.279344 172.319638 
L 188.639344 159.654178 
L 190.927344 114.701873 
L 191.463344 107.797383 
L 192.559344 96.139017 
L 193.695344 88.090521 
L 194.591344 83.225537 
L 196.223344 75.97251 
L 197.607344 71.733924 
L 200.463344 64.720913 
L 201.463344 62.906638 
L 200.303344 74.211796 
L 199.639344 79.515844 
L 198.055344 90.27938 
L 195.551344 105.872764 
L 192.503344 127.825251 
L 191.199344 139.285448 
L 189.679344 155.71242 
L 188.823344 166.383574 
L 187.231344 183.527667 
L 186.167344 190.595432 
L 185.255344 195.202738 
L 183.391344 202.831896 
L 180.519344 212.181106 
L 179.551344 214.793742 
L 179.975344 210.010335 
L 181.583344 196.160575 
L 185.959344 165.531903 
L 188.263344 144.210809 
L 189.599344 127.707813 
L 192.551344 104.669955 
L 195.311344 90.795884 
L 193.463344 108.014512 
L 194.607344 96.980697 
L 195.999344 87.730805 
L 198.799344 77.500239 
L 197.519344 89.333417 
L 196.863344 94.568698 
L 195.535344 104.231062 
L 192.767344 126.321963 
L 187.655344 170.244072 
L 185.567344 182.765064 
L 183.135344 195.379465 
L 181.719344 201.666398 
L 179.303344 210.760462 
L 179.983344 203.796636 
L 181.127344 194.15816 
L 184.607344 169.736367 
L 186.215344 157.632422 
L 188.023344 141.997622 
L 189.375344 127.723966 
L 192.095344 108.969728 
L 194.159344 98.49867 
L 196.455344 88.148868 
L 200.055344 75.647126 
L 201.911344 70.674854 
L 204.015344 65.908257 
L 205.647344 62.675091 
L 207.519344 59.401622 
L 209.159344 56.875115 
L 211.791344 53.434997 
L 213.471344 51.639152 
L 212.791344 57.434391 
L 210.703344 72.463833 
L 207.687344 90.476907 
L 203.703344 112.204251 
L 201.375344 123.805931 
L 200.231344 128.459906 
L 196.591344 136.939092 
L 194.743344 141.967204 
L 192.895344 147.740461 
L 191.063344 153.861689 
L 189.447344 161.384776 
L 184.471344 186.037469 
L 182.911344 192.724297 
L 180.135344 203.059428 
L 178.487344 208.183665 
L 176.863344 212.463061 
L 174.727344 217.168627 
L 172.815344 220.692934 
L 171.143344 223.335238 
L 171.335344 221.491093 
L 172.231344 214.039267 
L 173.599344 204.081492 
L 176.391344 186.766129 
L 180.071344 165.723317 
L 181.447344 158.275552 
L 184.263344 145.589177 
L 190.007344 125.668909 
L 195.295344 105.485965 
L 197.599344 97.515177 
L 199.903344 90.189255 
L 201.767344 84.666698 
L 203.831344 79.092861 
L 205.679344 74.584325 
L 209.191344 67.15969 
L 211.311344 63.346783 
L 213.223344 60.330534 
L 212.583344 65.496924 
L 210.511344 80.130665 
L 208.159344 94.330843 
L 205.607344 108.71704 
L 203.039344 121.043161 
L 200.727344 127.171476 
L 194.055344 142.931304 
L 191.055344 150.729475 
L 188.743344 158.000526 
L 181.591344 187.718839 
L 180.447344 191.960806 
L 178.599344 198.306641 
L 177.223344 202.601881 
L 174.463344 210.145775 
L 173.543344 212.363509 
L 171.119344 217.584204 
L 171.991344 210.404485 
L 174.055344 195.818985 
L 176.847344 178.66238 
L 179.607344 162.955612 
L 181.687344 152.623543 
L 182.615344 149.050645 
L 190.543344 125.23268 
L 189.799344 131.480109 
L 192.343344 119.400788 
L 194.159344 112.952436 
L 199.415344 95.480542 
L 202.823344 85.269814 
L 207.039344 74.507182 
L 210.543344 67.245761 
L 213.623344 61.84267 
L 216.487344 57.738474 
L 217.671344 56.2465 
L 220.367344 53.237202 
L 221.767344 51.86376 
L 225.375344 48.796007 
L 230.791344 45.121127 
L 229.903344 51.836417 
L 189.439344 165.454927 
L 227.143344 54.24625 
L 225.743344 64.190826 
L 223.631344 77.560381 
L 221.303344 90.666692 
L 219.439344 100.430328 
L 217.327344 110.689026 
L 214.759344 121.880687 
L 211.703344 129.286303 
L 205.159344 141.800228 
L 203.047344 145.546227 
L 197.623344 154.175549 
L 190.367344 164.579796 
L 186.823344 170.556997 
L 184.439344 176.96122 
L 177.303344 199.805071 
L 173.775344 209.214411 
L 172.375344 212.386771 
L 170.735344 215.741399 
L 169.335344 218.27514 
L 167.447344 221.263147 
L 164.599344 225.014042 
L 161.663344 228.198071 
L 160.967344 228.870301 
L 157.607344 231.727659 
L 154.231344 234.104648 
L 152.079344 235.426895 
L 148.687344 237.278643 
L 149.527344 230.945065 
L 151.143344 220.012478 
L 152.751344 210.279857 
L 155.063344 197.707316 
L 158.303344 181.587013 
L 161.807344 166.336226 
L 226.687344 54.700871 
L 167.639344 210.42616 
L 170.447344 191.369418 
L 173.975344 171.360869 
L 177.055344 158.635823 
L 180.135344 150.193499 
L 186.279344 136.778323 
L 190.319344 128.531899 
L 194.119344 119.970791 
L 198.583344 108.550357 
L 204.279344 93.206001 
L 207.559344 85.054699 
L 210.351344 78.778446 
L 214.367344 70.894453 
L 217.911344 65.046762 
L 221.231344 60.418006 
L 225.495344 55.451061 
L 229.527344 51.57513 
L 231.511344 49.913726 
L 229.671344 62.730556 
L 227.327344 77.105007 
L 225.519344 86.933177 
L 222.479344 102.093418 
L 220.359344 111.641215 
L 217.791344 118.512383 
L 215.223344 123.657857 
L 210.783344 132.046885 
L 207.967344 136.9104 
L 203.279344 144.26882 
L 201.167344 147.415988 
L 197.391344 152.717247 
L 193.655344 157.718247 
L 187.327344 166.443139 
L 179.919344 183.753596 
L 174.271344 199.039554 
L 171.663344 205.142375 
L 169.551344 209.524118 
L 167.663344 213.018647 
L 164.815344 217.599458 
L 161.735344 221.763572 
L 159.623344 224.22716 
L 157.023344 226.909559 
L 153.207344 230.295083 
L 149.551344 233.079369 
L 151.831344 217.305364 
L 154.351344 202.312435 
L 157.847344 184.180398 
L 161.127344 169.29798 
L 164.375344 158.908157 
L 166.231344 154.232228 
L 170.223344 146.488692 
L 176.111344 137.086605 
L 182.479344 128.446566 
L 186.031344 124.006607 
L 192.207344 116.69712 
L 196.231344 111.42573 
L 201.415344 101.453789 
L 206.367344 89.925746 
L 210.599344 80.586009 
L 213.655344 74.551703 
L 216.487344 69.568002 
L 219.807344 64.470966 
L 222.879344 60.421628 
L 229.079344 53.833087 
L 231.015344 52.109113 
L 228.503344 68.962618 
L 226.191344 82.421907 
L 222.927344 99.094333 
L 220.367344 109.318585 
L 218.263344 114.285065 
L 213.111344 124.608732 
L 209.575344 131.009907 
L 206.087344 136.619089 
L 199.271344 146.846616 
L 193.199344 155.301737 
L 188.471344 161.687886 
L 194.215344 140.477659 
L 182.071344 173.481067 
L 174.495344 193.609036 
L 171.431344 201.076172 
L 168.359344 207.608502 
L 164.575344 214.347884 
L 161.031344 219.515459 
L 157.239344 224.06066 
L 153.191344 228.0696 
L 150.047344 230.741908 
L 150.911344 224.520749 
L 152.983344 211.003147 
L 154.567344 201.739711 
L 156.887344 189.357035 
L 160.887344 170.592906 
L 164.143344 159.375549 
L 165.999344 154.630729 
L 170.463344 145.973515 
L 174.927344 138.975147 
L 178.695344 133.64827 
L 182.255344 129.005671 
L 186.047344 124.295696 
L 189.367344 120.353152 
L 195.295344 113.120192 
L 200.967344 102.919687 
L 205.671344 92.103949 
L 211.583344 79.187733 
L 214.887344 72.918877 
L 219.615344 65.301741 
L 223.887344 59.706371 
L 227.447344 55.818126 
L 231.023344 52.466943 
L 234.615344 49.567453 
L 238.951344 46.567004 
L 241.103344 45.261782 
L 244.711344 43.323507 
L 247.839344 41.836572 
L 252.039344 40.069442 
L 251.631344 42.963367 
L 249.287344 57.863824 
L 247.191344 69.767214 
L 244.599344 82.988203 
L 242.047344 94.902775 
L 240.175344 102.961747 
L 237.119344 111.934733 
L 233.831344 118.374486 
L 231.007344 123.550856 
L 228.423344 127.889762 
L 225.599344 132.302937 
L 222.287344 137.06299 
L 219.447344 140.875499 
L 215.895344 145.328726 
L 213.519344 148.120418 
L 210.175344 151.827716 
L 204.215344 157.728878 
L 200.639344 160.84827 
L 197.063344 163.703252 
L 193.263344 166.479366 
L 183.015344 174.724952 
L 175.439344 189.648255 
L 170.735344 200.563874 
L 167.183344 207.798219 
L 163.159344 214.615903 
L 158.207344 221.232796 
L 153.911344 225.761473 
L 149.367344 229.674948 
L 146.247344 231.971487 
L 140.951344 235.321424 
L 135.655344 238.01025 
L 130.359344 240.242975 
L 128.087344 241.091429 
L 129.935344 228.745223 
L 132.471344 213.831672 
L 133.855344 206.479041 
L 136.871344 191.863756 
L 139.439344 180.59157 
L 143.183344 168.245322 
L 145.975344 161.336503 
L 149.255344 154.242175 
L 153.991344 146.619631 
L 158.735344 140.214071 
L 163.967344 133.966171 
L 168.743344 128.818314 
L 172.575344 125.072937 
L 177.111344 121.089188 
L 182.151344 117.178596 
L 187.639344 113.448218 
L 190.983344 111.364528 
L 200.031344 104.424689 
L 204.767344 97.341994 
L 213.295344 81.05924 
L 217.583344 73.52367 
L 223.063344 65.424345 
L 227.343344 60.257616 
L 232.343344 55.319334 
L 237.359344 51.252972 
L 242.159344 47.968846 
L 247.431344 44.853495 
L 252.503344 42.217013 
L 251.383344 49.648212 
L 248.815344 65.113097 
L 246.959344 75.171012 
L 243.423344 92.297626 
L 241.567344 100.457967 
L 237.815344 109.974014 
L 234.287344 116.860749 
L 231.711344 121.486876 
L 228.175344 127.222373 
L 223.223344 134.338785 
L 218.023344 141.04596 
L 211.847344 148.333568 
L 206.831344 153.635498 
L 201.311344 158.787505 
L 197.479344 162.006404 
L 194.143344 164.586767 
L 189.607344 167.86279 
L 184.127344 172.200422 
L 180.119344 177.094003 
L 175.591344 185.278896 
L 169.895344 197.514719 
L 167.543344 202.283061 
L 164.223344 208.343755 
L 160.911344 213.543084 
L 156.863344 218.853381 
L 153.543344 222.483083 
L 150.671344 225.200731 
L 146.847344 228.338076 
L 141.575344 231.997806 
L 137.759344 234.301474 
L 133.679344 236.531281 
L 128.127344 239.275257 
L 129.471344 230.290961 
L 131.295344 219.070702 
L 133.871344 204.979893 
L 135.479344 197.035876 
L 138.503344 183.335096 
L 141.535344 172.23266 
L 143.623344 166.649616 
L 147.359344 158.016072 
L 150.183344 152.894418 
L 156.351344 143.933251 
L 161.575344 137.320747 
L 169.927344 128.416496 
L 174.447344 124.199125 
L 181.167344 118.666643 
L 186.895344 114.61547 
L 194.543344 109.744623 
L 199.279344 105.958013 
L 204.543344 98.762776 
L 214.271344 80.428439 
L 218.567344 72.98679 
L 222.847344 66.608646 
L 228.087344 60.18071 
L 231.911344 56.327013 
L 236.455344 52.450038 
L 241.703344 48.693061 
L 245.543344 46.304776 
L 251.535344 43.038825 
L 249.263344 57.531099 
L 246.967344 70.66201 
L 243.903344 86.107713 
L 241.807344 95.731814 
L 238.527344 106.4668 
L 233.367344 116.625798 
L 231.247344 120.396116 
L 227.471344 126.478021 
L 224.879344 130.289038 
L 220.863344 135.751925 
L 204.671344 154.177906 
L 199.887344 158.610375 
L 192.951344 164.297001 
L 184.895344 170.52695 
L 177.751344 179.803954 
L 174.175344 186.93977 
L 169.879344 196.223988 
L 165.583344 204.767836 
L 161.807344 211.165349 
L 158.471344 215.943224 
L 155.375344 219.734439 
L 153.743344 221.513105 
L 149.679344 225.400262 
L 144.663344 229.365063 
L 141.327344 231.632387 
L 135.079344 235.327966 
L 128.839344 238.520076 
L 129.015344 237.345154 
L 131.791344 219.698086 
L 135.255344 200.948631 
L 137.079344 192.191116 
L 140.831344 176.019825 
L 143.863344 167.252564 
L 147.351344 159.161086 
L 150.895344 152.6941 
L 157.079344 143.92761 
L 166.335344 133.056701 
L 179.487344 120.749134 
L 187.375344 114.904187 
L 196.207344 108.993543 
L 207.415344 93.958744 
L 211.911344 85.251296 
L 216.207344 77.299035 
L 220.479344 70.305366 
L 227.159344 61.453951 
L 232.871344 55.651591 
L 236.919344 52.275749 
L 242.199344 48.547943 
L 245.783344 46.337295 
L 249.367344 44.327278 
L 252.487344 42.718854 
L 256.343344 40.897268 
L 262.119344 38.583927 
L 268.383344 36.50735 
L 271.111344 35.72007 
L 268.351344 52.719637 
L 265.535344 68.080295 
L 263.703344 77.069893 
L 261.375344 87.731768 
L 259.503344 95.652712 
L 257.151344 104.15322 
L 254.327344 110.116847 
L 251.279344 115.709303 
L 248.703344 119.947663 
L 244.191344 126.9389 
L 241.383344 130.809511 
L 235.895344 137.526087 
L 232.591344 141.307929 
L 228.279344 145.863371 
L 223.023344 150.896294 
L 216.039344 156.718203 
L 209.055344 161.598367 
L 204.263344 164.468133 
L 199.231344 167.142863 
L 187.775344 172.499553 
L 182.071344 176.073519 
L 175.135344 185.294362 
L 169.655344 195.985249 
L 162.479344 209.203817 
L 158.479344 215.094671 
L 151.335344 223.164679 
L 145.375344 228.168341 
L 140.119344 231.723838 
L 136.527344 233.843923 
L 132.455344 236.023755 
L 127.895344 238.250675 
L 123.815344 240.075544 
L 118.759344 242.022409 
L 115.631344 243.080672 
L 108.383344 245.195636 
L 109.879344 235.505628 
L 111.495344 225.867903 
L 114.055344 212.065667 
L 118.279344 192.463194 
L 122.255344 177.369853 
L 126.015344 168.193245 
L 130.495344 158.857148 
L 134.023344 152.98771 
L 137.567344 148.082143 
L 141.583344 143.247983 
L 155.895344 128.952845 
L 150.399344 140.238559 
L 155.183344 130.428734 
L 161.679344 124.325557 
L 166.967344 120.609818 
L 171.775344 117.638099 
L 175.367344 115.642715 
L 181.855344 112.430656 
L 186.639344 110.308908 
L 192.863344 107.681622 
L 201.463344 102.512339 
L 208.599344 93.492625 
L 219.079344 75.759414 
L 224.327344 68.08172 
L 229.095344 62.283124 
L 234.367344 57.062069 
L 239.623344 52.848413 
L 244.879344 49.347308 
L 251.831344 45.459468 
L 255.191344 43.799812 
L 262.647344 40.490945 
L 271.103344 37.19232 
L 272.583344 36.685554 
L 270.951344 46.897875 
L 267.479344 66.314882 
L 264.911344 78.919297 
L 261.183344 95.268454 
L 257.399344 106.037771 
L 255.279344 110.12813 
L 251.983344 115.89806 
L 247.535344 122.988468 
L 243.975344 127.945564 
L 239.935344 133.016786 
L 236.375344 137.207062 
L 231.647344 142.41598 
L 228.303344 145.817331 
L 222.311344 151.408404 
L 216.071344 156.512549 
L 208.375344 161.831844 
L 204.071344 164.391153 
L 200.719344 166.211473 
L 195.919344 168.605947 
L 191.375344 170.728922 
L 186.119344 173.327625 
L 178.951344 179.077538 
L 171.767344 189.757305 
L 167.255344 198.21887 
L 162.471344 206.625506 
L 159.135344 211.697349 
L 153.887344 218.288851 
L 149.583344 222.613563 
L 146.975344 224.852639 
L 142.431344 228.22733 
L 138.367344 230.804491 
L 132.151344 234.19096 
L 127.583344 236.375003 
L 122.311344 238.669882 
L 112.935344 242.336077 
L 108.767344 243.839399 
L 109.647344 238.174042 
L 112.655344 220.240791 
L 115.687344 204.511273 
L 119.687344 186.870593 
L 122.487344 177.478768 
L 125.079344 171.136434 
L 128.127344 164.37063 
L 132.607344 156.16781 
L 137.103344 149.787583 
L 140.647344 145.449451 
L 144.663344 140.902934 
L 151.103344 134.301172 
L 160.951344 125.746659 
L 167.439344 121.055039 
L 177.063344 115.340941 
L 182.815344 112.50279 
L 194.071344 107.610094 
L 202.415344 102.496472 
L 207.911344 95.91902 
L 211.951344 89.361928 
L 219.831344 75.941838 
L 224.111344 69.610178 
L 228.663344 63.887088 
L 232.967344 59.368122 
L 237.743344 55.19365 
L 241.559344 52.363072 
L 245.639344 49.712805 
L 250.423344 46.98209 
L 256.431344 43.977726 
L 263.159344 41.012778 
L 271.879344 37.580836 
L 268.855344 55.960138 
L 265.343344 74.462027 
L 261.415344 92.241178 
L 258.591344 102.218418 
L 254.367344 110.737501 
L 250.119344 117.920598 
L 245.623344 124.67482 
L 239.943344 131.958635 
L 217.999344 154.163563 
L 207.431344 161.765316 
L 193.535344 169.297765 
L 177.759344 179.603873 
L 170.567344 191.132712 
L 165.055344 201.433636 
L 161.239344 207.80913 
L 153.383344 218.154799 
L 148.135344 223.2783 
L 142.415344 227.689096 
L 136.431344 231.406628 
L 127.087344 236.116462 
L 120.135344 239.093365 
L 108.807344 243.374813 
L 110.559344 232.384121 
L 113.111344 217.607825 
L 117.551344 195.598955 
L 120.135344 184.684424 
L 122.943344 175.821279 
L 127.183344 165.99696 
L 129.775344 160.827755 
L 132.863344 155.629114 
L 135.935344 151.297899 
L 140.647344 145.459042 
L 145.615344 139.912508 
L 150.639344 134.863122 
L 161.199344 125.71858 
L 169.375344 119.950194 
L 184.255344 111.973911 
L 194.543344 107.534085 
L 203.359344 101.944199 
L 213.871344 86.224378 
L 225.359344 67.98885 
L 231.567344 60.796753 
L 237.527344 55.439749 
L 243.031344 51.476149 
L 249.975344 47.375311 
L 254.775344 44.944125 
L 259.343344 42.857156 
L 264.383344 40.732668 
L 271.351344 38.025368 
L 276.647344 36.147291 
L 282.175344 34.397447 
L 287.247344 33.012403 
L 291.839344 31.926419 
L 290.783344 38.573355 
L 289.415344 46.652406 
L 287.295344 58.307445 
L 285.447344 67.633904 
L 282.639344 80.609815 
L 280.295344 90.461057 
L 277.007344 102.2014 
L 274.423344 107.54576 
L 270.183344 114.655077 
L 265.463344 121.875984 
L 261.431344 127.250922 
L 257.375344 132.107774 
L 251.663344 138.33106 
L 247.119344 142.873598 
L 242.335344 147.214529 
L 234.143344 153.629673 
L 228.127344 157.613438 
L 223.311344 160.406385 
L 215.847344 164.148779 
L 204.559344 168.770589 
L 192.343344 172.926691 
L 183.735344 176.192178 
L 176.559344 182.079629 
L 165.327344 200.091971 
L 157.679344 212.0122 
L 151.967344 218.768263 
L 141.687344 227.389856 
L 136.191344 230.79037 
L 128.759344 234.603572 
L 120.119344 238.355085 
L 112.183344 241.402452 
L 106.399344 243.456798 
L 99.655344 245.654018 
L 93.871344 247.315383 
L 87.343344 248.864057 
L 87.751344 246.254985 
L 90.295344 231.046166 
L 92.623344 218.309517 
L 96.359344 200.765327 
L 100.135344 185.440183 
L 104.335344 174.729438 
L 108.343344 166.320788 
L 114.007344 156.512509 
L 119.431344 149.424167 
L 123.935344 144.317916 
L 127.015344 141.155482 
L 131.791344 136.61409 
L 136.831344 132.315837 
L 142.607344 127.910126 
L 149.351344 123.499338 
L 158.287344 118.596705 
L 168.631344 114.029562 
L 174.615344 111.787823 
L 179.407344 110.146856 
L 192.599344 105.891467 
L 191.887344 107.957538 
L 201.223344 101.820479 
L 208.631344 94.891093 
L 216.999344 82.325859 
L 222.279344 74.169169 
L 227.063344 67.716208 
L 232.087344 62.072374 
L 237.343344 57.27848 
L 240.447344 54.881447 
L 245.479344 51.529606 
L 248.119344 49.981004 
L 252.207344 47.803197 
L 257.247344 45.411027 
L 262.295344 43.26268 
L 267.335344 41.291235 
L 273.335344 39.113391 
L 285.367344 35.147843 
L 291.223344 33.354869 
L 289.863344 41.757805 
L 286.847344 58.903049 
L 284.759344 69.508724 
L 281.479344 84.36865 
L 278.407344 96.69004 
L 275.359344 104.238092 
L 271.599344 110.785213 
L 267.111344 117.968772 
L 263.087344 123.547149 
L 257.623344 130.258493 
L 254.063344 134.239999 
L 249.039344 139.418178 
L 232.471344 153.648715 
L 220.423344 161.127382 
L 206.239344 167.650832 
L 186.855344 174.81306 
L 186.855344 174.81306 
" clip-path="url(#pc7ea47277a)" style="fill: none; stroke: #3152a1; stroke-width: 1.5; stroke-linecap: square"/>
   </g>
   <g id="line2d_35">
    <path d="M 58.647344 140.162904 
L 304.167344 140.162904 
" clip-path="url(#pc7ea47277a)" style="fill: none; stroke: #000000; stroke-width: 0.4; stroke-linecap: square"/>
   </g>
   <g id="line2d_36">
    <path d="M 189.807344 264.774125 
L 189.807344 20.838125 
" clip-path="url(#pc7ea47277a)" style="fill: none; stroke: #000000; stroke-width: 0.4; stroke-linecap: square"/>
   </g>
   <g id="line2d_37">
    <path d="M 58.647344 31.926419 
L 304.167344 31.926419 
" clip-path="url(#pc7ea47277a)" style="fill: none; stroke: #3152a1; stroke-linecap: square"/>
   </g>
   <g id="line2d_38">
    <path d="M 58.647344 248.864057 
L 304.167344 248.864057 
" clip-path="url(#pc7ea47277a)" style="fill: none; stroke: #3152a1; stroke-linecap: square"/>
   </g>
   <g id="patch_3">
    <path d="M 58.647344 264.774125 
L 58.647344 20.838125 
" style="fill: none; stroke: #000000; stroke-width: 0.8; stroke-linejoin: miter; stroke-linecap: square"/>
   </g>
   <g id="patch_4">
    <path d="M 304.167344 264.774125 
L 304.167344 20.838125 
" style="fill: none; stroke: #000000; stroke-width: 0.8; stroke-linejoin: miter; stroke-linecap: square"/>
   </g>
   <g id="patch_5">
    <path d="M 58.647344 264.774125 
L 304.167344 264.774125 
" style="fill: none; stroke: #000000; stroke-width: 0.8; stroke-linejoin: miter; stroke-linecap: square"/>
   </g>
   <g id="patch_6">
    <path d="M 58.647344 20.838125 
L 304.167344 20.838125 
" style="fill: none; stroke: #000000; stroke-width: 0.8; stroke-linejoin: miter; stroke-linecap: square"/>
   </g>
   <g id="text_18">
    <!-- Specimen : Oesterle_B7 -->
    <g transform="translate(127.947344 14.838125) scale(0.11 -0.11)">
     <defs>
      <path id="TimesNewRomanPSMT-3a" d="M 903 2950 
Q 1047 2950 1148 2848 
Q 1250 2747 1250 2603 
Q 1250 2459 1148 2357 
Q 1047 2256 903 2256 
Q 759 2256 657 2357 
Q 556 2459 556 2603 
Q 556 2747 657 2848 
Q 759 2950 903 2950 
z
M 897 609 
Q 1044 609 1145 506 
Q 1247 403 1247 259 
Q 1247 116 1144 14 
Q 1041 -88 897 -88 
Q 753 -88 651 14 
Q 550 116 550 259 
Q 550 403 651 506 
Q 753 609 897 609 
z
" transform="scale(0.015625)"/>
      <path id="TimesNewRomanPSMT-4f" d="M 2341 4334 
Q 3166 4334 3770 3707 
Q 4375 3081 4375 2144 
Q 4375 1178 3765 540 
Q 3156 -97 2291 -97 
Q 1416 -97 820 525 
Q 225 1147 225 2134 
Q 225 3144 913 3781 
Q 1509 4334 2341 4334 
z
M 2281 4106 
Q 1713 4106 1369 3684 
Q 941 3159 941 2147 
Q 941 1109 1384 550 
Q 1725 125 2284 125 
Q 2881 125 3270 590 
Q 3659 1056 3659 2059 
Q 3659 3147 3231 3681 
Q 2888 4106 2281 4106 
z
" transform="scale(0.015625)"/>
      <path id="TimesNewRomanPSMT-5f" d="M 3256 -1381 
L -53 -1381 
L -53 -1119 
L 3256 -1119 
L 3256 -1381 
z
" transform="scale(0.015625)"/>
      <path id="TimesNewRomanPSMT-37" d="M 644 4238 
L 2916 4238 
L 2916 4119 
L 1503 -88 
L 1153 -88 
L 2419 3728 
L 1253 3728 
Q 900 3728 750 3644 
Q 488 3500 328 3200 
L 238 3234 
L 644 4238 
z
" transform="scale(0.015625)"/>
     </defs>
     <use xlink:href="#TimesNewRomanPSMT-53"/>
     <use xlink:href="#TimesNewRomanPSMT-70" x="55.615234"/>
     <use xlink:href="#TimesNewRomanPSMT-65" x="105.615234"/>
     <use xlink:href="#TimesNewRomanPSMT-63" x="150"/>
     <use xlink:href="#TimesNewRomanPSMT-69" x="194.384766"/>
     <use xlink:href="#TimesNewRomanPSMT-6d" x="222.167969"/>
     <use xlink:href="#TimesNewRomanPSMT-65" x="299.951172"/>
     <use xlink:href="#TimesNewRomanPSMT-6e" x="344.335938"/>
     <use xlink:href="#TimesNewRomanPSMT-20" x="394.335938"/>
     <use xlink:href="#TimesNewRomanPSMT-3a" x="419.335938"/>
     <use xlink:href="#TimesNewRomanPSMT-20" x="447.119141"/>
     <use xlink:href="#TimesNewRomanPSMT-4f" x="472.119141"/>
     <use xlink:href="#TimesNewRomanPSMT-65" x="544.335938"/>
     <use xlink:href="#TimesNewRomanPSMT-73" x="588.720703"/>
     <use xlink:href="#TimesNewRomanPSMT-74" x="627.636719"/>
     <use xlink:href="#TimesNewRomanPSMT-65" x="655.419922"/>
     <use xlink:href="#TimesNewRomanPSMT-72" x="699.804688"/>
     <use xlink:href="#TimesNewRomanPSMT-6c" x="733.105469"/>
     <use xlink:href="#TimesNewRomanPSMT-65" x="760.888672"/>
     <use xlink:href="#TimesNewRomanPSMT-5f" x="805.273438"/>
     <use xlink:href="#TimesNewRomanPSMT-42" x="855.273438"/>
     <use xlink:href="#TimesNewRomanPSMT-37" x="921.972656"/>
    </g>
   </g>
   <g id="legend_1">
    <g id="patch_7">
     <path d="M 65.061444 54.079771 
L 161.006644 54.079771 
Q 162.839244 54.079771 162.839244 52.247171 
L 162.839244 27.252225 
Q 162.839244 25.419625 161.006644 25.419625 
L 65.061444 25.419625 
Q 63.228844 25.419625 63.228844 27.252225 
L 63.228844 52.247171 
Q 63.228844 54.079771 65.061444 54.079771 
z
" style="fill: #ffffff; opacity: 0.8; stroke: #cccccc; stroke-linejoin: miter"/>
    </g>
    <g id="line2d_39">
     <path d="M 66.894044 32.291875 
L 76.057044 32.291875 
L 85.220044 32.291875 
" style="fill: none; stroke-dasharray: 4.07,1.76; stroke-dashoffset: 0; stroke: #433f40; stroke-width: 1.1"/>
    </g>
    <g id="text_19">
     <!-- Experimental Test -->
     <g transform="translate(92.550444 35.498925) scale(0.09163 -0.09163)">
      <defs>
       <path id="TimesNewRomanPSMT-45" d="M 1338 4006 
L 1338 2331 
L 2269 2331 
Q 2631 2331 2753 2441 
Q 2916 2584 2934 2947 
L 3050 2947 
L 3050 1472 
L 2934 1472 
Q 2891 1781 2847 1869 
Q 2791 1978 2662 2040 
Q 2534 2103 2269 2103 
L 1338 2103 
L 1338 706 
Q 1338 425 1363 364 
Q 1388 303 1450 267 
Q 1513 231 1688 231 
L 2406 231 
Q 2766 231 2928 281 
Q 3091 331 3241 478 
Q 3434 672 3638 1063 
L 3763 1063 
L 3397 0 
L 131 0 
L 131 116 
L 281 116 
Q 431 116 566 188 
Q 666 238 702 338 
Q 738 438 738 747 
L 738 3500 
Q 738 3903 656 3997 
Q 544 4122 281 4122 
L 131 4122 
L 131 4238 
L 3397 4238 
L 3444 3309 
L 3322 3309 
Q 3256 3644 3176 3769 
Q 3097 3894 2941 3959 
Q 2816 4006 2500 4006 
L 1338 4006 
z
" transform="scale(0.015625)"/>
       <path id="TimesNewRomanPSMT-78" d="M 84 2863 
L 1431 2863 
L 1431 2747 
Q 1303 2747 1251 2703 
Q 1200 2659 1200 2588 
Q 1200 2513 1309 2356 
Q 1344 2306 1413 2200 
L 1616 1875 
L 1850 2200 
Q 2075 2509 2075 2591 
Q 2075 2656 2022 2701 
Q 1969 2747 1850 2747 
L 1850 2863 
L 2819 2863 
L 2819 2747 
Q 2666 2738 2553 2663 
Q 2400 2556 2134 2200 
L 1744 1678 
L 2456 653 
Q 2719 275 2831 198 
Q 2944 122 3122 113 
L 3122 0 
L 1772 0 
L 1772 113 
Q 1913 113 1991 175 
Q 2050 219 2050 291 
Q 2050 363 1850 653 
L 1431 1266 
L 972 653 
Q 759 369 759 316 
Q 759 241 829 180 
Q 900 119 1041 113 
L 1041 0 
L 106 0 
L 106 113 
Q 219 128 303 191 
Q 422 281 703 653 
L 1303 1450 
L 759 2238 
Q 528 2575 401 2661 
Q 275 2747 84 2747 
L 84 2863 
z
" transform="scale(0.015625)"/>
       <path id="TimesNewRomanPSMT-54" d="M 3703 4238 
L 3750 3244 
L 3631 3244 
Q 3597 3506 3538 3619 
Q 3441 3800 3280 3886 
Q 3119 3972 2856 3972 
L 2259 3972 
L 2259 734 
Q 2259 344 2344 247 
Q 2463 116 2709 116 
L 2856 116 
L 2856 0 
L 1059 0 
L 1059 116 
L 1209 116 
Q 1478 116 1591 278 
Q 1659 378 1659 734 
L 1659 3972 
L 1150 3972 
Q 853 3972 728 3928 
Q 566 3869 450 3700 
Q 334 3531 313 3244 
L 194 3244 
L 244 4238 
L 3703 4238 
z
" transform="scale(0.015625)"/>
      </defs>
      <use xlink:href="#TimesNewRomanPSMT-45"/>
      <use xlink:href="#TimesNewRomanPSMT-78" x="61.083984"/>
      <use xlink:href="#TimesNewRomanPSMT-70" x="111.083984"/>
      <use xlink:href="#TimesNewRomanPSMT-65" x="161.083984"/>
      <use xlink:href="#TimesNewRomanPSMT-72" x="205.46875"/>
      <use xlink:href="#TimesNewRomanPSMT-69" x="238.769531"/>
      <use xlink:href="#TimesNewRomanPSMT-6d" x="266.552734"/>
      <use xlink:href="#TimesNewRomanPSMT-65" x="344.335938"/>
      <use xlink:href="#TimesNewRomanPSMT-6e" x="388.720703"/>
      <use xlink:href="#TimesNewRomanPSMT-74" x="438.720703"/>
      <use xlink:href="#TimesNewRomanPSMT-61" x="466.503906"/>
      <use xlink:href="#TimesNewRomanPSMT-6c" x="510.888672"/>
      <use xlink:href="#TimesNewRomanPSMT-20" x="538.671875"/>
      <use xlink:href="#TimesNewRomanPSMT-54" x="561.921875"/>
      <use xlink:href="#TimesNewRomanPSMT-65" x="616.005859"/>
      <use xlink:href="#TimesNewRomanPSMT-73" x="660.390625"/>
      <use xlink:href="#TimesNewRomanPSMT-74" x="699.306641"/>
     </g>
    </g>
    <g id="line2d_40">
     <path d="M 66.894044 45.247498 
L 76.057044 45.247498 
L 85.220044 45.247498 
" style="fill: none; stroke: #3152a1; stroke-width: 1.5; stroke-linecap: square"/>
    </g>
    <g id="text_20">
     <!-- Numerical Test -->
     <g transform="translate(92.550444 48.454548) scale(0.09163 -0.09163)">
      <defs>
       <path id="TimesNewRomanPSMT-75" d="M 2709 2863 
L 2709 1128 
Q 2709 631 2732 520 
Q 2756 409 2807 365 
Q 2859 322 2928 322 
Q 3025 322 3147 375 
L 3191 266 
L 2334 -88 
L 2194 -88 
L 2194 519 
Q 1825 119 1631 15 
Q 1438 -88 1222 -88 
Q 981 -88 804 51 
Q 628 191 559 409 
Q 491 628 491 1028 
L 491 2306 
Q 491 2509 447 2587 
Q 403 2666 317 2708 
Q 231 2750 6 2747 
L 6 2863 
L 1009 2863 
L 1009 947 
Q 1009 547 1148 422 
Q 1288 297 1484 297 
Q 1619 297 1789 381 
Q 1959 466 2194 703 
L 2194 2325 
Q 2194 2569 2105 2655 
Q 2016 2741 1734 2747 
L 1734 2863 
L 2709 2863 
z
" transform="scale(0.015625)"/>
      </defs>
      <use xlink:href="#TimesNewRomanPSMT-4e"/>
      <use xlink:href="#TimesNewRomanPSMT-75" x="72.216797"/>
      <use xlink:href="#TimesNewRomanPSMT-6d" x="122.216797"/>
      <use xlink:href="#TimesNewRomanPSMT-65" x="200"/>
      <use xlink:href="#TimesNewRomanPSMT-72" x="244.384766"/>
      <use xlink:href="#TimesNewRomanPSMT-69" x="277.685547"/>
      <use xlink:href="#TimesNewRomanPSMT-63" x="305.46875"/>
      <use xlink:href="#TimesNewRomanPSMT-61" x="349.853516"/>
      <use xlink:href="#TimesNewRomanPSMT-6c" x="394.238281"/>
      <use xlink:href="#TimesNewRomanPSMT-20" x="422.021484"/>
      <use xlink:href="#TimesNewRomanPSMT-54" x="445.271484"/>
      <use xlink:href="#TimesNewRomanPSMT-65" x="499.355469"/>
      <use xlink:href="#TimesNewRomanPSMT-73" x="543.740234"/>
      <use xlink:href="#TimesNewRomanPSMT-74" x="582.65625"/>
     </g>
    </g>
   </g>
  </g>
 </g>
 <defs>
  <clipPath id="pc7ea47277a">
   <rect x="58.647344" y="20.838125" width="245.52" height="243.936"/>
  </clipPath>
 </defs>
</svg>
