<?xml version="1.0" encoding="utf-8" standalone="no"?>
<!DOCTYPE svg PUBLIC "-//W3C//DTD SVG 1.1//EN"
  "http://www.w3.org/Graphics/SVG/1.1/DTD/svg11.dtd">
<svg xmlns:xlink="http://www.w3.org/1999/xlink" width="305.276094pt" height="302.961469pt" viewBox="0 0 305.276094 302.961469" xmlns="http://www.w3.org/2000/svg" version="1.1">
 <metadata>
  <rdf:RDF xmlns:dc="http://purl.org/dc/elements/1.1/" xmlns:cc="http://creativecommons.org/ns#" xmlns:rdf="http://www.w3.org/1999/02/22-rdf-syntax-ns#">
   <cc:Work>
    <dc:type rdf:resource="http://purl.org/dc/dcmitype/StillImage"/>
    <dc:date>2025-01-06T14:11:53.545005</dc:date>
    <dc:format>image/svg+xml</dc:format>
    <dc:creator>
     <cc:Agent>
      <dc:title>Matplotlib v3.8.0, https://matplotlib.org/</dc:title>
     </cc:Agent>
    </dc:creator>
   </cc:Work>
  </rdf:RDF>
 </metadata>
 <defs>
  <style type="text/css">*{stroke-linejoin: round; stroke-linecap: butt}</style>
 </defs>
 <g id="figure_1">
  <g id="patch_1">
   <path d="M 0 302.961469 
L 305.276094 302.961469 
L 305.276094 0 
L 0 0 
z
" style="fill: #ffffff"/>
  </g>
  <g id="axes_1">
   <g id="patch_2">
    <path d="M 52.556094 264.774125 
L 298.076094 264.774125 
L 298.076094 20.838125 
L 52.556094 20.838125 
z
" style="fill: #ffffff"/>
   </g>
   <g id="matplotlib.axis_1">
    <g id="xtick_1">
     <g id="line2d_1">
      <path d="M 110.336169 264.774125 
L 110.336169 20.838125 
" clip-path="url(#pd57698854b)" style="fill: none; stroke-dasharray: 0.8,1.32; stroke-dashoffset: 0; stroke: #b0b0b0; stroke-width: 0.8"/>
     </g>
     <g id="line2d_2">
      <defs>
       <path id="mea9f96ed34" d="M 0 0 
L 0 3.5 
" style="stroke: #000000; stroke-width: 0.8"/>
      </defs>
      <g>
       <use xlink:href="#mea9f96ed34" x="110.336169" y="264.774125" style="stroke: #000000; stroke-width: 0.8"/>
      </g>
     </g>
     <g id="text_1">
      <!-- −50 -->
      <g transform="translate(101.199294 279.460375) scale(0.11 -0.11)">
       <defs>
        <path id="Cambria-2212" d="M 397 1613 
L 397 2047 
L 3147 2047 
L 3147 1613 
L 397 1613 
z
" transform="scale(0.015625)"/>
        <path id="Cambria-35" d="M 469 172 
L 469 834 
L 847 834 
Q 941 516 1130 366 
Q 1319 216 1619 216 
Q 2034 216 2246 466 
Q 2459 716 2459 1213 
Q 2459 1544 2346 1761 
Q 2234 1978 2043 2075 
Q 1853 2172 1600 2172 
Q 1388 2172 1234 2145 
Q 1081 2119 906 2063 
L 656 2209 
L 656 4266 
L 2378 4266 
Q 2484 4266 2531 4283 
Q 2578 4300 2606 4336 
Q 2634 4372 2672 4472 
L 2916 4472 
L 2869 3747 
L 1072 3747 
L 1072 2375 
Q 1234 2444 1425 2478 
Q 1616 2513 1806 2513 
Q 2178 2513 2465 2361 
Q 2753 2209 2909 1929 
Q 3066 1650 3066 1281 
Q 3066 863 2891 563 
Q 2716 263 2384 106 
Q 2053 -50 1600 -50 
Q 1059 -50 469 172 
z
" transform="scale(0.015625)"/>
        <path id="Cambria-30" d="M 1738 -50 
Q 1063 -50 733 481 
Q 403 1013 403 2094 
Q 403 2669 504 3087 
Q 606 3506 789 3779 
Q 972 4053 1228 4184 
Q 1484 4316 1788 4316 
Q 2472 4316 2806 3787 
Q 3141 3259 3141 2191 
Q 3141 1084 2783 517 
Q 2425 -50 1738 -50 
z
M 1013 2188 
Q 1013 1169 1202 692 
Q 1391 216 1788 216 
Q 2166 216 2348 664 
Q 2531 1113 2531 2053 
Q 2531 2772 2437 3217 
Q 2344 3663 2176 3856 
Q 2009 4050 1772 4050 
Q 1556 4050 1411 3922 
Q 1266 3794 1177 3553 
Q 1088 3313 1050 2967 
Q 1013 2622 1013 2188 
z
" transform="scale(0.015625)"/>
       </defs>
       <use xlink:href="#Cambria-2212"/>
       <use xlink:href="#Cambria-35" x="55.371094"/>
       <use xlink:href="#Cambria-30" x="110.742188"/>
      </g>
     </g>
    </g>
    <g id="xtick_2">
     <g id="line2d_3">
      <path d="M 175.304869 264.774125 
L 175.304869 20.838125 
" clip-path="url(#pd57698854b)" style="fill: none; stroke-dasharray: 0.8,1.32; stroke-dashoffset: 0; stroke: #b0b0b0; stroke-width: 0.8"/>
     </g>
     <g id="line2d_4">
      <g>
       <use xlink:href="#mea9f96ed34" x="175.304869" y="264.774125" style="stroke: #000000; stroke-width: 0.8"/>
      </g>
     </g>
     <g id="text_2">
      <!-- 0 -->
      <g transform="translate(172.259244 279.460375) scale(0.11 -0.11)">
       <use xlink:href="#Cambria-30"/>
      </g>
     </g>
    </g>
    <g id="xtick_3">
     <g id="line2d_5">
      <path d="M 240.27357 264.774125 
L 240.27357 20.838125 
" clip-path="url(#pd57698854b)" style="fill: none; stroke-dasharray: 0.8,1.32; stroke-dashoffset: 0; stroke: #b0b0b0; stroke-width: 0.8"/>
     </g>
     <g id="line2d_6">
      <g>
       <use xlink:href="#mea9f96ed34" x="240.27357" y="264.774125" style="stroke: #000000; stroke-width: 0.8"/>
      </g>
     </g>
     <g id="text_3">
      <!-- 50 -->
      <g transform="translate(234.18232 279.460375) scale(0.11 -0.11)">
       <use xlink:href="#Cambria-35"/>
       <use xlink:href="#Cambria-30" x="55.371094"/>
      </g>
     </g>
    </g>
    <g id="text_4">
     <!-- Displacement (mm) -->
     <g transform="translate(131.481953 293.4085) scale(0.11 -0.11)">
      <defs>
       <path id="TimesNewRomanPSMT-44" d="M 109 0 
L 109 116 
L 269 116 
Q 538 116 650 288 
Q 719 391 719 750 
L 719 3488 
Q 719 3884 631 3984 
Q 509 4122 269 4122 
L 109 4122 
L 109 4238 
L 1834 4238 
Q 2784 4238 3279 4022 
Q 3775 3806 4076 3303 
Q 4378 2800 4378 2141 
Q 4378 1256 3841 663 
Q 3238 0 2003 0 
L 109 0 
z
M 1319 306 
Q 1716 219 1984 219 
Q 2709 219 3187 728 
Q 3666 1238 3666 2109 
Q 3666 2988 3187 3494 
Q 2709 4000 1959 4000 
Q 1678 4000 1319 3909 
L 1319 306 
z
" transform="scale(0.015625)"/>
       <path id="TimesNewRomanPSMT-69" d="M 928 4444 
Q 1059 4444 1151 4351 
Q 1244 4259 1244 4128 
Q 1244 3997 1151 3903 
Q 1059 3809 928 3809 
Q 797 3809 703 3903 
Q 609 3997 609 4128 
Q 609 4259 701 4351 
Q 794 4444 928 4444 
z
M 1188 2947 
L 1188 647 
Q 1188 378 1227 289 
Q 1266 200 1342 156 
Q 1419 113 1622 113 
L 1622 0 
L 231 0 
L 231 113 
Q 441 113 512 153 
Q 584 194 626 287 
Q 669 381 669 647 
L 669 1750 
Q 669 2216 641 2353 
Q 619 2453 572 2492 
Q 525 2531 444 2531 
Q 356 2531 231 2484 
L 188 2597 
L 1050 2947 
L 1188 2947 
z
" transform="scale(0.015625)"/>
       <path id="TimesNewRomanPSMT-73" d="M 2050 2947 
L 2050 1972 
L 1947 1972 
Q 1828 2431 1642 2597 
Q 1456 2763 1169 2763 
Q 950 2763 815 2647 
Q 681 2531 681 2391 
Q 681 2216 781 2091 
Q 878 1963 1175 1819 
L 1631 1597 
Q 2266 1288 2266 781 
Q 2266 391 1970 151 
Q 1675 -88 1309 -88 
Q 1047 -88 709 6 
Q 606 38 541 38 
Q 469 38 428 -44 
L 325 -44 
L 325 978 
L 428 978 
Q 516 541 762 319 
Q 1009 97 1316 97 
Q 1531 97 1667 223 
Q 1803 350 1803 528 
Q 1803 744 1651 891 
Q 1500 1038 1047 1263 
Q 594 1488 453 1669 
Q 313 1847 313 2119 
Q 313 2472 555 2709 
Q 797 2947 1181 2947 
Q 1350 2947 1591 2875 
Q 1750 2828 1803 2828 
Q 1853 2828 1881 2850 
Q 1909 2872 1947 2947 
L 2050 2947 
z
" transform="scale(0.015625)"/>
       <path id="TimesNewRomanPSMT-70" d="M -6 2578 
L 875 2934 
L 994 2934 
L 994 2266 
Q 1216 2644 1439 2795 
Q 1663 2947 1909 2947 
Q 2341 2947 2628 2609 
Q 2981 2197 2981 1534 
Q 2981 794 2556 309 
Q 2206 -88 1675 -88 
Q 1444 -88 1275 -22 
Q 1150 25 994 166 
L 994 -706 
Q 994 -1000 1030 -1079 
Q 1066 -1159 1155 -1206 
Q 1244 -1253 1478 -1253 
L 1478 -1369 
L -22 -1369 
L -22 -1253 
L 56 -1253 
Q 228 -1256 350 -1188 
Q 409 -1153 442 -1076 
Q 475 -1000 475 -688 
L 475 2019 
Q 475 2297 450 2372 
Q 425 2447 370 2484 
Q 316 2522 222 2522 
Q 147 2522 31 2478 
L -6 2578 
z
M 994 2081 
L 994 1013 
Q 994 666 1022 556 
Q 1066 375 1236 237 
Q 1406 100 1666 100 
Q 1978 100 2172 344 
Q 2425 663 2425 1241 
Q 2425 1897 2138 2250 
Q 1938 2494 1663 2494 
Q 1513 2494 1366 2419 
Q 1253 2363 994 2081 
z
" transform="scale(0.015625)"/>
       <path id="TimesNewRomanPSMT-6c" d="M 1184 4444 
L 1184 647 
Q 1184 378 1223 290 
Q 1263 203 1344 158 
Q 1425 113 1647 113 
L 1647 0 
L 244 0 
L 244 113 
Q 441 113 512 153 
Q 584 194 625 287 
Q 666 381 666 647 
L 666 3247 
Q 666 3731 644 3842 
Q 622 3953 573 3993 
Q 525 4034 450 4034 
Q 369 4034 244 3984 
L 191 4094 
L 1044 4444 
L 1184 4444 
z
" transform="scale(0.015625)"/>
       <path id="TimesNewRomanPSMT-61" d="M 1822 413 
Q 1381 72 1269 19 
Q 1100 -59 909 -59 
Q 613 -59 420 144 
Q 228 347 228 678 
Q 228 888 322 1041 
Q 450 1253 767 1440 
Q 1084 1628 1822 1897 
L 1822 2009 
Q 1822 2438 1686 2597 
Q 1550 2756 1291 2756 
Q 1094 2756 978 2650 
Q 859 2544 859 2406 
L 866 2225 
Q 866 2081 792 2003 
Q 719 1925 600 1925 
Q 484 1925 411 2006 
Q 338 2088 338 2228 
Q 338 2497 613 2722 
Q 888 2947 1384 2947 
Q 1766 2947 2009 2819 
Q 2194 2722 2281 2516 
Q 2338 2381 2338 1966 
L 2338 994 
Q 2338 584 2353 492 
Q 2369 400 2405 369 
Q 2441 338 2488 338 
Q 2538 338 2575 359 
Q 2641 400 2828 588 
L 2828 413 
Q 2478 -56 2159 -56 
Q 2006 -56 1915 50 
Q 1825 156 1822 413 
z
M 1822 616 
L 1822 1706 
Q 1350 1519 1213 1441 
Q 966 1303 859 1153 
Q 753 1003 753 825 
Q 753 600 887 451 
Q 1022 303 1197 303 
Q 1434 303 1822 616 
z
" transform="scale(0.015625)"/>
       <path id="TimesNewRomanPSMT-63" d="M 2631 1088 
Q 2516 522 2178 217 
Q 1841 -88 1431 -88 
Q 944 -88 581 321 
Q 219 731 219 1428 
Q 219 2103 620 2525 
Q 1022 2947 1584 2947 
Q 2006 2947 2278 2723 
Q 2550 2500 2550 2259 
Q 2550 2141 2473 2067 
Q 2397 1994 2259 1994 
Q 2075 1994 1981 2113 
Q 1928 2178 1911 2362 
Q 1894 2547 1784 2644 
Q 1675 2738 1481 2738 
Q 1169 2738 978 2506 
Q 725 2200 725 1697 
Q 725 1184 976 792 
Q 1228 400 1656 400 
Q 1963 400 2206 609 
Q 2378 753 2541 1131 
L 2631 1088 
z
" transform="scale(0.015625)"/>
       <path id="TimesNewRomanPSMT-65" d="M 681 1784 
Q 678 1147 991 784 
Q 1303 422 1725 422 
Q 2006 422 2214 576 
Q 2422 731 2563 1106 
L 2659 1044 
Q 2594 616 2278 264 
Q 1963 -88 1488 -88 
Q 972 -88 605 314 
Q 238 716 238 1394 
Q 238 2128 614 2539 
Q 991 2950 1559 2950 
Q 2041 2950 2350 2633 
Q 2659 2316 2659 1784 
L 681 1784 
z
M 681 1966 
L 2006 1966 
Q 1991 2241 1941 2353 
Q 1863 2528 1708 2628 
Q 1553 2728 1384 2728 
Q 1125 2728 920 2526 
Q 716 2325 681 1966 
z
" transform="scale(0.015625)"/>
       <path id="TimesNewRomanPSMT-6d" d="M 1050 2338 
Q 1363 2650 1419 2697 
Q 1559 2816 1721 2881 
Q 1884 2947 2044 2947 
Q 2313 2947 2506 2790 
Q 2700 2634 2766 2338 
Q 3088 2713 3309 2830 
Q 3531 2947 3766 2947 
Q 3994 2947 4170 2830 
Q 4347 2713 4450 2447 
Q 4519 2266 4519 1878 
L 4519 647 
Q 4519 378 4559 278 
Q 4591 209 4675 161 
Q 4759 113 4950 113 
L 4950 0 
L 3538 0 
L 3538 113 
L 3597 113 
Q 3781 113 3884 184 
Q 3956 234 3988 344 
Q 4000 397 4000 647 
L 4000 1878 
Q 4000 2228 3916 2372 
Q 3794 2572 3525 2572 
Q 3359 2572 3192 2489 
Q 3025 2406 2788 2181 
L 2781 2147 
L 2788 2013 
L 2788 647 
Q 2788 353 2820 281 
Q 2853 209 2943 161 
Q 3034 113 3253 113 
L 3253 0 
L 1806 0 
L 1806 113 
Q 2044 113 2133 169 
Q 2222 225 2256 338 
Q 2272 391 2272 647 
L 2272 1878 
Q 2272 2228 2169 2381 
Q 2031 2581 1784 2581 
Q 1616 2581 1450 2491 
Q 1191 2353 1050 2181 
L 1050 647 
Q 1050 366 1089 281 
Q 1128 197 1204 155 
Q 1281 113 1516 113 
L 1516 0 
L 100 0 
L 100 113 
Q 297 113 375 155 
Q 453 197 493 289 
Q 534 381 534 647 
L 534 1741 
Q 534 2213 506 2350 
Q 484 2453 437 2492 
Q 391 2531 309 2531 
Q 222 2531 100 2484 
L 53 2597 
L 916 2947 
L 1050 2947 
L 1050 2338 
z
" transform="scale(0.015625)"/>
       <path id="TimesNewRomanPSMT-6e" d="M 1034 2341 
Q 1538 2947 1994 2947 
Q 2228 2947 2397 2830 
Q 2566 2713 2666 2444 
Q 2734 2256 2734 1869 
L 2734 647 
Q 2734 375 2778 278 
Q 2813 200 2889 156 
Q 2966 113 3172 113 
L 3172 0 
L 1756 0 
L 1756 113 
L 1816 113 
Q 2016 113 2095 173 
Q 2175 234 2206 353 
Q 2219 400 2219 647 
L 2219 1819 
Q 2219 2209 2117 2386 
Q 2016 2563 1775 2563 
Q 1403 2563 1034 2156 
L 1034 647 
Q 1034 356 1069 288 
Q 1113 197 1189 155 
Q 1266 113 1500 113 
L 1500 0 
L 84 0 
L 84 113 
L 147 113 
Q 366 113 442 223 
Q 519 334 519 647 
L 519 1709 
Q 519 2225 495 2337 
Q 472 2450 423 2490 
Q 375 2531 294 2531 
Q 206 2531 84 2484 
L 38 2597 
L 900 2947 
L 1034 2947 
L 1034 2341 
z
" transform="scale(0.015625)"/>
       <path id="TimesNewRomanPSMT-74" d="M 1031 3803 
L 1031 2863 
L 1700 2863 
L 1700 2644 
L 1031 2644 
L 1031 788 
Q 1031 509 1111 412 
Q 1191 316 1316 316 
Q 1419 316 1516 380 
Q 1613 444 1666 569 
L 1788 569 
Q 1678 263 1478 108 
Q 1278 -47 1066 -47 
Q 922 -47 784 33 
Q 647 113 581 261 
Q 516 409 516 719 
L 516 2644 
L 63 2644 
L 63 2747 
Q 234 2816 414 2980 
Q 594 3144 734 3369 
Q 806 3488 934 3803 
L 1031 3803 
z
" transform="scale(0.015625)"/>
       <path id="TimesNewRomanPSMT-20" transform="scale(0.015625)"/>
       <path id="TimesNewRomanPSMT-28" d="M 1988 -1253 
L 1988 -1369 
Q 1516 -1131 1200 -813 
Q 750 -359 506 256 
Q 263 872 263 1534 
Q 263 2503 741 3301 
Q 1219 4100 1988 4444 
L 1988 4313 
Q 1603 4100 1356 3731 
Q 1109 3363 987 2797 
Q 866 2231 866 1616 
Q 866 947 969 400 
Q 1050 -31 1165 -292 
Q 1281 -553 1476 -793 
Q 1672 -1034 1988 -1253 
z
" transform="scale(0.015625)"/>
       <path id="TimesNewRomanPSMT-29" d="M 144 4313 
L 144 4444 
Q 619 4209 934 3891 
Q 1381 3434 1625 2820 
Q 1869 2206 1869 1541 
Q 1869 572 1392 -226 
Q 916 -1025 144 -1369 
L 144 -1253 
Q 528 -1038 776 -670 
Q 1025 -303 1145 264 
Q 1266 831 1266 1447 
Q 1266 2113 1163 2663 
Q 1084 3094 967 3353 
Q 850 3613 656 3853 
Q 463 4094 144 4313 
z
" transform="scale(0.015625)"/>
      </defs>
      <use xlink:href="#TimesNewRomanPSMT-44"/>
      <use xlink:href="#TimesNewRomanPSMT-69" x="72.216797"/>
      <use xlink:href="#TimesNewRomanPSMT-73" x="100"/>
      <use xlink:href="#TimesNewRomanPSMT-70" x="138.916016"/>
      <use xlink:href="#TimesNewRomanPSMT-6c" x="188.916016"/>
      <use xlink:href="#TimesNewRomanPSMT-61" x="216.699219"/>
      <use xlink:href="#TimesNewRomanPSMT-63" x="261.083984"/>
      <use xlink:href="#TimesNewRomanPSMT-65" x="305.46875"/>
      <use xlink:href="#TimesNewRomanPSMT-6d" x="349.853516"/>
      <use xlink:href="#TimesNewRomanPSMT-65" x="427.636719"/>
      <use xlink:href="#TimesNewRomanPSMT-6e" x="472.021484"/>
      <use xlink:href="#TimesNewRomanPSMT-74" x="522.021484"/>
      <use xlink:href="#TimesNewRomanPSMT-20" x="549.804688"/>
      <use xlink:href="#TimesNewRomanPSMT-28" x="574.804688"/>
      <use xlink:href="#TimesNewRomanPSMT-6d" x="608.105469"/>
      <use xlink:href="#TimesNewRomanPSMT-6d" x="685.888672"/>
      <use xlink:href="#TimesNewRomanPSMT-29" x="763.671875"/>
     </g>
    </g>
   </g>
   <g id="matplotlib.axis_2">
    <g id="ytick_1">
     <g id="line2d_7">
      <path d="M 52.556094 247.268218 
L 298.076094 247.268218 
" clip-path="url(#pd57698854b)" style="fill: none; stroke-dasharray: 0.8,1.32; stroke-dashoffset: 0; stroke: #b0b0b0; stroke-width: 0.8"/>
     </g>
     <g id="line2d_8">
      <defs>
       <path id="m71278e4c3a" d="M 0 0 
L -3.5 0 
" style="stroke: #000000; stroke-width: 0.8"/>
      </defs>
      <g>
       <use xlink:href="#m71278e4c3a" x="52.556094" y="247.268218" style="stroke: #000000; stroke-width: 0.8"/>
      </g>
     </g>
     <g id="text_5">
      <!-- −150 -->
      <g transform="translate(21.191094 251.111343) scale(0.11 -0.11)">
       <defs>
        <path id="Cambria-31" d="M 2172 816 
Q 2172 634 2192 542 
Q 2213 450 2264 392 
Q 2316 334 2412 301 
Q 2509 269 2656 251 
Q 2803 234 3044 228 
L 3044 0 
L 734 0 
L 734 228 
Q 1081 244 1229 270 
Q 1378 297 1456 350 
Q 1534 403 1570 500 
Q 1606 597 1606 816 
L 1606 3350 
Q 1606 3475 1562 3533 
Q 1519 3591 1434 3591 
Q 1334 3591 1150 3487 
Q 966 3384 694 3203 
L 556 3444 
L 2019 4316 
L 2191 4316 
Q 2172 4016 2172 3484 
L 2172 816 
z
" transform="scale(0.015625)"/>
       </defs>
       <use xlink:href="#Cambria-2212"/>
       <use xlink:href="#Cambria-31" x="55.371094"/>
       <use xlink:href="#Cambria-35" x="110.742188"/>
       <use xlink:href="#Cambria-30" x="166.113281"/>
      </g>
     </g>
    </g>
    <g id="ytick_2">
     <g id="line2d_9">
      <path d="M 52.556094 212.574529 
L 298.076094 212.574529 
" clip-path="url(#pd57698854b)" style="fill: none; stroke-dasharray: 0.8,1.32; stroke-dashoffset: 0; stroke: #b0b0b0; stroke-width: 0.8"/>
     </g>
     <g id="line2d_10">
      <g>
       <use xlink:href="#m71278e4c3a" x="52.556094" y="212.574529" style="stroke: #000000; stroke-width: 0.8"/>
      </g>
     </g>
     <g id="text_6">
      <!-- −100 -->
      <g transform="translate(21.191094 216.417654) scale(0.11 -0.11)">
       <use xlink:href="#Cambria-2212"/>
       <use xlink:href="#Cambria-31" x="55.371094"/>
       <use xlink:href="#Cambria-30" x="110.742188"/>
       <use xlink:href="#Cambria-30" x="166.113281"/>
      </g>
     </g>
    </g>
    <g id="ytick_3">
     <g id="line2d_11">
      <path d="M 52.556094 177.88084 
L 298.076094 177.88084 
" clip-path="url(#pd57698854b)" style="fill: none; stroke-dasharray: 0.8,1.32; stroke-dashoffset: 0; stroke: #b0b0b0; stroke-width: 0.8"/>
     </g>
     <g id="line2d_12">
      <g>
       <use xlink:href="#m71278e4c3a" x="52.556094" y="177.88084" style="stroke: #000000; stroke-width: 0.8"/>
      </g>
     </g>
     <g id="text_7">
      <!-- −50 -->
      <g transform="translate(27.282344 181.723965) scale(0.11 -0.11)">
       <use xlink:href="#Cambria-2212"/>
       <use xlink:href="#Cambria-35" x="55.371094"/>
       <use xlink:href="#Cambria-30" x="110.742188"/>
      </g>
     </g>
    </g>
    <g id="ytick_4">
     <g id="line2d_13">
      <path d="M 52.556094 143.18715 
L 298.076094 143.18715 
" clip-path="url(#pd57698854b)" style="fill: none; stroke-dasharray: 0.8,1.32; stroke-dashoffset: 0; stroke: #b0b0b0; stroke-width: 0.8"/>
     </g>
     <g id="line2d_14">
      <g>
       <use xlink:href="#m71278e4c3a" x="52.556094" y="143.18715" style="stroke: #000000; stroke-width: 0.8"/>
      </g>
     </g>
     <g id="text_8">
      <!-- 0 -->
      <g transform="translate(39.464844 147.030275) scale(0.11 -0.11)">
       <use xlink:href="#Cambria-30"/>
      </g>
     </g>
    </g>
    <g id="ytick_5">
     <g id="line2d_15">
      <path d="M 52.556094 108.493461 
L 298.076094 108.493461 
" clip-path="url(#pd57698854b)" style="fill: none; stroke-dasharray: 0.8,1.32; stroke-dashoffset: 0; stroke: #b0b0b0; stroke-width: 0.8"/>
     </g>
     <g id="line2d_16">
      <g>
       <use xlink:href="#m71278e4c3a" x="52.556094" y="108.493461" style="stroke: #000000; stroke-width: 0.8"/>
      </g>
     </g>
     <g id="text_9">
      <!-- 50 -->
      <g transform="translate(33.373594 112.336586) scale(0.11 -0.11)">
       <use xlink:href="#Cambria-35"/>
       <use xlink:href="#Cambria-30" x="55.371094"/>
      </g>
     </g>
    </g>
    <g id="ytick_6">
     <g id="line2d_17">
      <path d="M 52.556094 73.799772 
L 298.076094 73.799772 
" clip-path="url(#pd57698854b)" style="fill: none; stroke-dasharray: 0.8,1.32; stroke-dashoffset: 0; stroke: #b0b0b0; stroke-width: 0.8"/>
     </g>
     <g id="line2d_18">
      <g>
       <use xlink:href="#m71278e4c3a" x="52.556094" y="73.799772" style="stroke: #000000; stroke-width: 0.8"/>
      </g>
     </g>
     <g id="text_10">
      <!-- 100 -->
      <g transform="translate(27.282344 77.642897) scale(0.11 -0.11)">
       <use xlink:href="#Cambria-31"/>
       <use xlink:href="#Cambria-30" x="55.371094"/>
       <use xlink:href="#Cambria-30" x="110.742188"/>
      </g>
     </g>
    </g>
    <g id="ytick_7">
     <g id="line2d_19">
      <path d="M 52.556094 39.106083 
L 298.076094 39.106083 
" clip-path="url(#pd57698854b)" style="fill: none; stroke-dasharray: 0.8,1.32; stroke-dashoffset: 0; stroke: #b0b0b0; stroke-width: 0.8"/>
     </g>
     <g id="line2d_20">
      <g>
       <use xlink:href="#m71278e4c3a" x="52.556094" y="39.106083" style="stroke: #000000; stroke-width: 0.8"/>
      </g>
     </g>
     <g id="text_11">
      <!-- 150 -->
      <g transform="translate(27.282344 42.949208) scale(0.11 -0.11)">
       <use xlink:href="#Cambria-31"/>
       <use xlink:href="#Cambria-35" x="55.371094"/>
       <use xlink:href="#Cambria-30" x="110.742188"/>
      </g>
     </g>
    </g>
    <g id="text_12">
     <!-- Base Shear (kN) -->
     <g transform="translate(14.838125 179.155969) rotate(-90) scale(0.11 -0.11)">
      <defs>
       <path id="TimesNewRomanPSMT-42" d="M 2956 2163 
Q 3397 2069 3616 1863 
Q 3919 1575 3919 1159 
Q 3919 844 3719 555 
Q 3519 266 3170 133 
Q 2822 0 2106 0 
L 106 0 
L 106 116 
L 266 116 
Q 531 116 647 284 
Q 719 394 719 750 
L 719 3488 
Q 719 3881 628 3984 
Q 506 4122 266 4122 
L 106 4122 
L 106 4238 
L 1938 4238 
Q 2450 4238 2759 4163 
Q 3228 4050 3475 3764 
Q 3722 3478 3722 3106 
Q 3722 2788 3528 2536 
Q 3334 2284 2956 2163 
z
M 1319 2331 
Q 1434 2309 1582 2298 
Q 1731 2288 1909 2288 
Q 2366 2288 2595 2386 
Q 2825 2484 2947 2687 
Q 3069 2891 3069 3131 
Q 3069 3503 2766 3765 
Q 2463 4028 1881 4028 
Q 1569 4028 1319 3959 
L 1319 2331 
z
M 1319 306 
Q 1681 222 2034 222 
Q 2600 222 2897 476 
Q 3194 731 3194 1106 
Q 3194 1353 3059 1581 
Q 2925 1809 2622 1940 
Q 2319 2072 1872 2072 
Q 1678 2072 1540 2065 
Q 1403 2059 1319 2044 
L 1319 306 
z
" transform="scale(0.015625)"/>
       <path id="TimesNewRomanPSMT-53" d="M 2934 4334 
L 2934 2869 
L 2819 2869 
Q 2763 3291 2617 3541 
Q 2472 3791 2203 3937 
Q 1934 4084 1647 4084 
Q 1322 4084 1109 3886 
Q 897 3688 897 3434 
Q 897 3241 1031 3081 
Q 1225 2847 1953 2456 
Q 2547 2138 2764 1967 
Q 2981 1797 3098 1565 
Q 3216 1334 3216 1081 
Q 3216 600 2842 251 
Q 2469 -97 1881 -97 
Q 1697 -97 1534 -69 
Q 1438 -53 1133 45 
Q 828 144 747 144 
Q 669 144 623 97 
Q 578 50 556 -97 
L 441 -97 
L 441 1356 
L 556 1356 
Q 638 900 775 673 
Q 913 447 1195 297 
Q 1478 147 1816 147 
Q 2206 147 2432 353 
Q 2659 559 2659 841 
Q 2659 997 2573 1156 
Q 2488 1316 2306 1453 
Q 2184 1547 1640 1851 
Q 1097 2156 867 2337 
Q 638 2519 519 2737 
Q 400 2956 400 3219 
Q 400 3675 750 4004 
Q 1100 4334 1641 4334 
Q 1978 4334 2356 4169 
Q 2531 4091 2603 4091 
Q 2684 4091 2736 4139 
Q 2788 4188 2819 4334 
L 2934 4334 
z
" transform="scale(0.015625)"/>
       <path id="TimesNewRomanPSMT-68" d="M 1041 4444 
L 1041 2350 
Q 1388 2731 1591 2839 
Q 1794 2947 1997 2947 
Q 2241 2947 2416 2812 
Q 2591 2678 2675 2391 
Q 2734 2191 2734 1659 
L 2734 647 
Q 2734 375 2778 275 
Q 2809 200 2884 156 
Q 2959 113 3159 113 
L 3159 0 
L 1753 0 
L 1753 113 
L 1819 113 
Q 2019 113 2097 173 
Q 2175 234 2206 353 
Q 2216 403 2216 647 
L 2216 1659 
Q 2216 2128 2167 2275 
Q 2119 2422 2012 2495 
Q 1906 2569 1756 2569 
Q 1603 2569 1437 2487 
Q 1272 2406 1041 2159 
L 1041 647 
Q 1041 353 1073 281 
Q 1106 209 1195 161 
Q 1284 113 1503 113 
L 1503 0 
L 84 0 
L 84 113 
Q 275 113 384 172 
Q 447 203 484 290 
Q 522 378 522 647 
L 522 3238 
Q 522 3728 498 3840 
Q 475 3953 426 3993 
Q 378 4034 297 4034 
Q 231 4034 84 3984 
L 41 4094 
L 897 4444 
L 1041 4444 
z
" transform="scale(0.015625)"/>
       <path id="TimesNewRomanPSMT-72" d="M 1038 2947 
L 1038 2303 
Q 1397 2947 1775 2947 
Q 1947 2947 2059 2842 
Q 2172 2738 2172 2600 
Q 2172 2478 2090 2393 
Q 2009 2309 1897 2309 
Q 1788 2309 1652 2417 
Q 1516 2525 1450 2525 
Q 1394 2525 1328 2463 
Q 1188 2334 1038 2041 
L 1038 669 
Q 1038 431 1097 309 
Q 1138 225 1241 169 
Q 1344 113 1538 113 
L 1538 0 
L 72 0 
L 72 113 
Q 291 113 397 181 
Q 475 231 506 341 
Q 522 394 522 644 
L 522 1753 
Q 522 2253 501 2348 
Q 481 2444 426 2487 
Q 372 2531 291 2531 
Q 194 2531 72 2484 
L 41 2597 
L 906 2947 
L 1038 2947 
z
" transform="scale(0.015625)"/>
       <path id="TimesNewRomanPSMT-6b" d="M 1047 4444 
L 1047 1597 
L 1775 2259 
Q 2006 2472 2044 2528 
Q 2069 2566 2069 2603 
Q 2069 2666 2017 2711 
Q 1966 2756 1847 2763 
L 1847 2863 
L 3091 2863 
L 3091 2763 
Q 2834 2756 2664 2684 
Q 2494 2613 2291 2428 
L 1556 1750 
L 2291 822 
Q 2597 438 2703 334 
Q 2853 188 2966 144 
Q 3044 113 3238 113 
L 3238 0 
L 1847 0 
L 1847 113 
Q 1966 116 2008 148 
Q 2050 181 2050 241 
Q 2050 313 1925 472 
L 1047 1594 
L 1047 644 
Q 1047 366 1086 278 
Q 1125 191 1197 153 
Q 1269 116 1509 113 
L 1509 0 
L 53 0 
L 53 113 
Q 272 113 381 166 
Q 447 200 481 272 
Q 528 375 528 628 
L 528 3234 
Q 528 3731 506 3842 
Q 484 3953 434 3995 
Q 384 4038 303 4038 
Q 238 4038 106 3984 
L 53 4094 
L 903 4444 
L 1047 4444 
z
" transform="scale(0.015625)"/>
       <path id="TimesNewRomanPSMT-4e" d="M -84 4238 
L 1066 4238 
L 3656 1059 
L 3656 3503 
Q 3656 3894 3569 3991 
Q 3453 4122 3203 4122 
L 3056 4122 
L 3056 4238 
L 4531 4238 
L 4531 4122 
L 4381 4122 
Q 4113 4122 4000 3959 
Q 3931 3859 3931 3503 
L 3931 -69 
L 3819 -69 
L 1025 3344 
L 1025 734 
Q 1025 344 1109 247 
Q 1228 116 1475 116 
L 1625 116 
L 1625 0 
L 150 0 
L 150 116 
L 297 116 
Q 569 116 681 278 
Q 750 378 750 734 
L 750 3681 
Q 566 3897 470 3965 
Q 375 4034 191 4094 
Q 100 4122 -84 4122 
L -84 4238 
z
" transform="scale(0.015625)"/>
      </defs>
      <use xlink:href="#TimesNewRomanPSMT-42"/>
      <use xlink:href="#TimesNewRomanPSMT-61" x="66.699219"/>
      <use xlink:href="#TimesNewRomanPSMT-73" x="111.083984"/>
      <use xlink:href="#TimesNewRomanPSMT-65" x="150"/>
      <use xlink:href="#TimesNewRomanPSMT-20" x="194.384766"/>
      <use xlink:href="#TimesNewRomanPSMT-53" x="219.384766"/>
      <use xlink:href="#TimesNewRomanPSMT-68" x="275"/>
      <use xlink:href="#TimesNewRomanPSMT-65" x="325"/>
      <use xlink:href="#TimesNewRomanPSMT-61" x="369.384766"/>
      <use xlink:href="#TimesNewRomanPSMT-72" x="413.769531"/>
      <use xlink:href="#TimesNewRomanPSMT-20" x="447.070312"/>
      <use xlink:href="#TimesNewRomanPSMT-28" x="472.070312"/>
      <use xlink:href="#TimesNewRomanPSMT-6b" x="505.371094"/>
      <use xlink:href="#TimesNewRomanPSMT-4e" x="555.371094"/>
      <use xlink:href="#TimesNewRomanPSMT-29" x="627.587891"/>
     </g>
    </g>
   </g>
   <g id="line2d_21">
    <path d="M 174.498249 143.949201 
L 176.649126 128.707969 
L 177.72473 116.51497 
L 178.800334 105.846104 
L 181.488848 97.463453 
L 182.026814 94.415188 
L 183.640055 105.084054 
L 184.177692 115.752919 
L 178.262367 135.566519 
L 174.498249 143.949201 
L 172.347372 160.714566 
L 167.507651 190.434981 
L 168.045288 173.669615 
L 170.734132 159.190434 
L 173.422646 147.759517 
L 175.573853 134.804468 
L 178.800334 108.894369 
L 182.564451 98.987554 
L 183.102088 108.132319 
L 182.564451 121.849419 
L 178.800334 134.042417 
L 175.573853 145.473334 
L 172.885009 161.476648 
L 171.809405 175.955799 
L 168.582924 183.576431 
L 168.045288 187.386746 
L 166.969684 177.479931 
L 170.734132 163.00075 
L 173.960612 143.949201 
L 177.72473 122.611469 
L 180.413574 108.132319 
L 183.640055 93.653137 
L 186.866536 83.746322 
L 189.55505 76.887772 
L 192.78153 70.029222 
L 191.16829 82.222189 
L 189.017413 95.93932 
L 185.790932 105.084054 
L 180.951211 112.704685 
L 178.800334 122.611469 
L 175.035886 138.614784 
L 172.347372 154.618067 
L 170.734132 172.907565 
L 167.507651 188.148797 
L 164.818807 197.293531 
L 163.205566 204.152111 
L 159.979086 211.010661 
L 158.365845 217.107161 
L 155.139364 220.155395 
L 156.214968 211.772712 
L 158.365845 198.817663 
L 164.28117 174.431697 
L 166.969684 159.952515 
L 177.72473 123.373551 
L 184.177692 99.749636 
L 189.017413 87.556638 
L 192.78153 76.887772 
L 191.16829 89.08077 
L 186.866536 102.035819 
L 183.640055 112.704685 
L 181.488848 128.707969 
L 174.498249 153.856016 
L 169.120891 175.955799 
L 163.743203 187.386746 
L 159.979086 197.293531 
L 158.365845 207.200346 
L 155.677331 214.820977 
L 159.441449 198.055612 
L 161.592326 185.862614 
L 163.743203 174.431697 
L 166.432047 163.762831 
L 171.271768 149.28365 
L 175.573853 135.566519 
L 179.875607 109.65642 
L 187.404172 91.366954 
L 192.243894 76.887772 
L 196.545648 66.980957 
L 200.847732 58.598274 
L 204.61185 54.025908 
L 202.998609 64.694773 
L 201.923336 77.649823 
L 198.696855 88.318689 
L 193.319167 96.701371 
L 189.017413 111.180553 
L 184.715328 123.373551 
L 180.413574 137.852702 
L 173.960612 151.569833 
L 170.196165 172.145514 
L 165.356444 183.576431 
L 161.054689 194.245296 
L 157.828208 210.248611 
L 154.064091 219.393344 
L 150.83761 226.251894 
L 147.611129 231.586342 
L 143.309045 235.396627 
L 145.459922 224.727762 
L 149.762006 208.724478 
L 154.064091 193.483246 
L 158.903482 179.766115 
L 164.28117 163.762831 
L 169.120891 148.521599 
L 175.573853 130.232101 
L 181.488848 109.65642 
L 187.404172 98.225504 
L 194.394771 81.460138 
L 198.696855 73.839507 
L 201.385369 66.218906 
L 205.687453 57.836223 
L 201.923336 73.077456 
L 200.847732 82.984271 
L 194.932407 93.653137 
L 190.093016 105.846104 
L 185.253295 123.373551 
L 173.422646 150.0457 
L 171.271768 165.286933 
L 164.818807 185.100563 
L 157.290572 200.341796 
L 154.064091 212.534794 
L 150.299643 217.869211 
L 147.611129 227.013945 
L 145.997889 230.06221 
L 153.526124 197.293531 
L 159.441449 181.290247 
L 163.743203 167.573116 
L 168.582924 149.28365 
L 176.11149 124.135602 
L 186.328569 102.79787 
L 196.545648 77.649823 
L 201.923336 61.646539 
L 206.763057 54.025908 
L 211.064811 50.215592 
L 213.216019 47.929408 
L 216.980136 48.69149 
L 215.366896 57.074173 
L 212.140415 69.26714 
L 206.763057 82.984271 
L 204.074213 90.604872 
L 199.772129 100.511687 
L 196.008011 110.418502 
L 189.017413 124.897653 
L 184.715328 137.852702 
L 180.951211 150.807782 
L 178.800334 155.380149 
L 176.11149 159.190434 
L 170.196165 173.669615 
L 159.979086 193.483246 
L 158.365845 204.914162 
L 152.45085 220.917446 
L 146.535526 231.586342 
L 143.846682 233.872526 
L 139.00696 237.682811 
L 135.242843 238.444892 
L 132.016362 238.444892 
L 134.705206 228.538077 
L 137.931687 214.820977 
L 143.309045 200.341796 
L 147.611129 187.386746 
L 152.45085 175.955799 
L 157.828208 163.762831 
L 162.66793 151.569833 
L 166.432047 139.376835 
L 171.809405 131.756234 
L 177.187093 120.325286 
L 185.790932 106.608186 
L 191.706257 93.653137 
L 198.696855 82.222189 
L 204.61185 69.26714 
L 208.913934 60.884458 
L 213.216019 54.787958 
L 215.366896 50.977673 
L 216.442499 66.218906 
L 213.753655 79.173955 
L 210.527175 87.556638 
L 206.22509 96.701371 
L 200.847732 105.846104 
L 193.319167 126.421785 
L 187.404172 139.376835 
L 170.196165 170.621381 
L 158.365845 193.483246 
L 150.299643 204.152111 
L 138.469324 219.393344 
L 135.242843 221.679527 
L 135.78048 211.772712 
L 141.158168 195.007347 
L 145.459922 182.052298 
L 156.214968 160.714566 
L 159.979086 150.0457 
L 165.356444 140.138916 
L 170.734132 133.280335 
L 175.035886 126.421785 
L 179.33797 114.990869 
L 189.017413 99.749636 
L 196.008011 85.270454 
L 201.923336 75.363639 
L 207.838331 62.40859 
L 213.753655 54.025908 
L 220.206617 47.167358 
L 228.272819 44.881174 
L 233.650177 44.119092 
L 238.489898 46.405307 
L 236.876658 57.836223 
L 232.574573 70.791273 
L 227.197215 80.698088 
L 223.970735 92.891055 
L 215.904533 105.846104 
L 208.376298 122.611469 
L 200.310096 134.804468 
L 194.394771 145.473334 
L 186.328569 156.1422 
L 178.262367 165.286933 
L 172.347372 173.669615 
L 165.356444 185.100563 
L 156.214968 199.579714 
L 148.686403 213.296845 
L 141.158168 225.489843 
L 135.78048 233.872526 
L 129.327518 240.731076 
L 120.186042 245.303442 
L 113.195444 246.065493 
L 109.968963 244.541392 
L 110.5066 233.872526 
L 115.883958 223.20366 
L 121.799283 210.248611 
L 127.714278 194.245296 
L 134.167239 180.528196 
L 145.997889 156.1422 
L 158.903482 134.042417 
L 168.582924 124.135602 
L 178.800334 113.466736 
L 205.687453 76.887772 
L 212.140415 70.029222 
L 219.66898 59.360356 
L 226.121612 53.263857 
L 230.423696 49.453541 
L 239.565502 43.357042 
L 237.414295 57.074173 
L 232.574573 71.553323 
L 227.734852 84.508373 
L 219.131013 99.749636 
L 214.291292 113.466736 
L 207.300694 124.897653 
L 199.772129 138.614784 
L 191.16829 150.807782 
L 183.102088 161.476648 
L 173.422646 171.383432 
L 144.922285 211.772712 
L 135.242843 221.679527 
L 127.714278 232.348393 
L 119.648406 239.968994 
L 113.195444 243.77931 
L 113.733081 231.586342 
L 118.572802 214.820977 
L 123.95016 198.817663 
L 142.771408 156.90425 
L 148.148766 146.997466 
L 155.139364 138.614784 
L 165.356444 128.707969 
L 176.649126 119.563235 
L 183.102088 103.559921 
L 208.913934 72.315405 
L 216.980136 61.646539 
L 225.046338 55.55004 
L 232.036937 47.929408 
L 240.103139 41.832909 
L 248.169341 37.260542 
L 256.235543 35.73641 
L 261.612901 39.546726 
L 256.773179 55.55004 
L 251.395821 67.743038 
L 247.631704 82.222189 
L 240.103139 94.415188 
L 232.036937 111.942604 
L 224.508701 122.611469 
L 215.366896 138.614784 
L 205.687453 148.521599 
L 200.310096 154.618067 
L 194.932407 159.190434 
L 186.328569 165.286933 
L 178.262367 172.907565 
L 166.969684 182.81438 
L 154.064091 198.817663 
L 146.535526 210.248611 
L 135.242843 222.441578 
L 123.412523 234.634577 
L 115.883958 241.493127 
L 106.742483 247.589626 
L 96.525073 248.351677 
L 90.072442 248.351677 
L 91.147715 236.92076 
L 99.751554 212.534794 
L 104.053639 198.817663 
L 109.430996 188.148797 
L 118.035165 175.193748 
L 125.5634 162.238699 
L 133.091966 150.807782 
L 140.082564 141.663018 
L 148.148766 132.518285 
L 158.365845 126.421785 
L 167.507651 119.563235 
L 177.187093 112.704685 
L 187.941809 102.035819 
L 200.310096 91.366954 
L 208.376298 76.887772 
L 219.131013 66.218906 
L 228.810456 57.074173 
L 236.876658 50.977673 
L 246.018463 44.881174 
L 255.159939 38.022624 
L 262.688504 34.974359 
L 271.292343 32.688176 
L 279.358545 31.926125 
L 286.349143 31.926125 
L 283.122663 43.357042 
L 279.358545 55.55004 
L 275.056461 65.456855 
L 272.367947 74.601588 
L 265.914985 84.508373 
L 260.537297 97.463453 
L 254.622302 108.894369 
L 247.631704 118.039103 
L 240.640775 130.994152 
L 230.423696 143.949201 
L 216.980136 153.093965 
L 205.687453 161.476648 
L 194.932407 168.335198 
L 184.177692 173.669615 
L 171.809405 176.717881 
L 158.903482 193.483246 
L 132.016362 224.727762 
L 118.572802 233.110444 
L 107.817756 239.968994 
L 95.987437 246.827575 
L 86.307994 252.161992 
L 73.402071 253.686125 
L 66.411473 250.637891 
L 70.713557 234.634577 
L 76.628552 218.631262 
L 83.61948 202.627979 
L 91.147715 186.624665 
L 109.968963 156.90425 
L 122.33692 147.759517 
L 135.78048 138.614784 
L 148.148766 130.994152 
L 163.205566 124.135602 
L 175.573853 116.51497 
L 185.790932 104.322003 
L 193.857134 92.891055 
L 205.149817 80.698088 
L 218.593377 69.26714 
L 229.886059 62.40859 
L 239.565502 57.074173 
L 247.093737 50.215592 
L 258.38642 46.405307 
L 270.216739 44.119092 
L 279.358545 43.357042 
L 286.349143 45.643225 
L 278.282941 70.029222 
L 272.905583 82.984271 
L 264.301745 98.987554 
L 257.310816 112.704685 
L 247.093737 124.897653 
L 238.489898 137.852702 
L 226.121612 151.569833 
L 212.140415 159.190434 
L 188.479776 172.907565 
L 170.196165 184.338481 
L 155.139364 195.769429 
L 141.158168 207.962396 
L 118.572802 227.013945 
L 108.355723 233.872526 
L 94.374196 239.206943 
L 84.157117 246.065493 
L 76.090915 248.351677 
L 69.637953 247.589626 
L 65.873836 246.827575 
L 70.17559 233.872526 
L 75.015311 221.679527 
L 80.392999 207.200346 
L 87.383598 191.959113 
L 94.911833 175.955799 
L 106.204516 162.238699 
L 115.346321 147.759517 
L 126.101037 139.376835 
L 135.78048 134.042417 
L 147.073162 126.421785 
L 157.828208 120.325286 
L 176.649126 114.228787 
L 176.649126 114.228787 
" clip-path="url(#pd57698854b)" style="fill: none; stroke-dasharray: 4.07,1.76; stroke-dashoffset: 0; stroke: #433f40; stroke-width: 1.1"/>
   </g>
   <g id="line2d_22">
    <path d="M 52.556094 31.926125 
L 298.076094 31.926125 
" clip-path="url(#pd57698854b)" style="fill: none; stroke-dasharray: 2.96,1.28; stroke-dashoffset: 0; stroke: #ff0000; stroke-width: 0.8"/>
   </g>
   <g id="line2d_23">
    <path d="M 52.556094 253.686125 
L 298.076094 253.686125 
" clip-path="url(#pd57698854b)" style="fill: none; stroke-dasharray: 2.96,1.28; stroke-dashoffset: 0; stroke: #ff0000; stroke-width: 0.8"/>
   </g>
   <g id="line2d_24">
    <path d="M 175.304869 143.18715 
L 177.057737 113.312588 
L 178.782893 93.224209 
L 180.45306 82.965844 
L 182.041834 75.561434 
L 184.876413 64.118249 
L 187.952144 52.893523 
L 189.247207 48.650578 
L 189.243754 48.691463 
L 188.579264 54.830761 
L 187.928732 59.782775 
L 187.078617 65.333107 
L 186.042358 70.989855 
L 184.836338 76.654573 
L 181.993671 88.250084 
L 180.401965 94.426434 
L 178.729674 101.782703 
L 177.003236 114.151281 
L 173.497527 171.408547 
L 171.773681 190.751758 
L 170.105663 200.266402 
L 168.519845 208.407364 
L 165.693399 219.867555 
L 162.634378 231.10491 
L 161.359294 235.201329 
L 161.369653 235.072999 
L 162.047672 228.570152 
L 162.704614 223.400014 
L 163.560765 217.635529 
L 164.602592 211.722264 
L 165.813623 205.707062 
L 170.258948 185.695828 
L 171.933337 176.718439 
L 173.66103 162.514083 
L 175.414712 134.292745 
L 177.166658 110.119063 
L 178.889168 95.703221 
L 180.555011 85.425341 
L 182.137849 77.927706 
L 183.612657 72.429054 
L 184.956118 68.21561 
L 187.166453 62.659976 
L 188.629624 59.65854 
L 189.253466 58.547258 
L 189.236202 58.716778 
L 188.544664 64.441602 
L 187.019148 74.474913 
L 185.97177 80.217747 
L 183.390306 92.872459 
L 181.897034 101.359917 
L 180.299539 112.020482 
L 178.623078 125.619958 
L 176.894156 142.815302 
L 175.140107 163.226643 
L 173.388664 180.67061 
L 171.667515 191.566859 
L 170.003874 200.4299 
L 168.424041 207.149767 
L 166.952995 212.449544 
L 165.613992 216.6173 
L 163.414373 222.511214 
L 161.549869 226.668434 
L 161.353466 227.048114 
L 161.377636 226.81785 
L 162.082682 221.000922 
L 163.620597 210.778503 
L 164.67351 204.885253 
L 167.264281 191.957388 
L 168.761177 183.414396 
L 170.361529 172.671167 
L 172.040036 159.010438 
L 173.77016 142.077017 
L 175.744227 121.270661 
L 179.246056 98.35036 
L 182.685575 84.141081 
L 186.008405 72.887108 
L 189.162011 64.036444 
L 192.096536 58.942861 
L 194.765583 54.969917 
L 197.126955 52.197146 
L 199.14332 50.292082 
L 200.782797 49.446651 
L 203.212856 47.706376 
L 202.648315 51.745303 
L 201.713621 57.482229 
L 200.361404 64.806438 
L 198.613041 73.026342 
L 194.044275 91.266449 
L 185.088738 127.123343 
L 178.265085 152.996189 
L 174.755686 177.555492 
L 171.254968 193.844101 
L 167.81828 205.616964 
L 164.499955 214.73239 
L 161.352456 221.765201 
L 158.425546 226.91088 
L 155.765498 230.592331 
L 153.414369 233.321526 
L 151.40933 235.324552 
L 148.558347 237.693949 
L 147.392133 238.542027 
L 147.984149 234.488899 
L 148.932149 228.830507 
L 150.297103 221.563952 
L 152.057431 213.329082 
L 154.185302 204.645637 
L 165.623963 160.566898 
L 168.989005 148.449936 
L 172.453901 135.315073 
L 175.963871 117.968674 
L 182.897227 95.443896 
L 186.210995 86.521666 
L 189.352338 79.262212 
L 192.271589 73.374328 
L 199.257129 62.691871 
L 202.082903 59.018767 
L 203.221923 57.69843 
L 201.64115 67.149344 
L 200.263481 74.157411 
L 198.491214 82.108227 
L 191.115474 111.51445 
L 188.100216 122.920575 
L 184.882663 133.578102 
L 181.513685 141.707811 
L 178.046545 152.177954 
L 174.53606 168.265444 
L 171.037729 181.870845 
L 167.606861 192.168151 
L 164.2977 200.795835 
L 161.162563 207.975993 
L 158.251016 213.858824 
L 155.609091 218.601418 
L 153.278557 222.369836 
L 149.693541 227.471348 
L 147.383929 230.319161 
L 149.005435 220.850328 
L 150.395799 213.818737 
L 152.179976 205.75884 
L 154.329759 197.014237 
L 159.584947 176.943515 
L 162.607267 165.947771 
L 165.830336 154.860272 
L 169.203198 144.132741 
L 172.672528 132.68825 
L 176.622778 116.579697 
L 181.868363 100.404538 
L 187.010179 87.048886 
L 191.966933 77.923901 
L 196.660259 69.777846 
L 201.015955 63.221442 
L 204.965158 58.600306 
L 208.445431 55.343724 
L 211.40175 52.94781 
L 213.787375 51.922582 
L 217.191462 49.775661 
L 216.179888 55.749046 
L 214.698142 63.395011 
L 212.593587 72.996012 
L 209.899495 83.604797 
L 206.658461 95.372977 
L 202.921725 107.955832 
L 198.748366 120.317266 
L 194.204363 131.625863 
L 189.361559 138.70267 
L 184.296518 145.757771 
L 179.089319 155.725664 
L 173.822287 173.560332 
L 168.578695 189.42029 
L 163.441444 202.332051 
L 158.491754 212.336722 
L 153.807881 220.015357 
L 149.463875 225.867028 
L 145.528418 230.242846 
L 142.063727 233.43046 
L 139.12458 235.735977 
L 134.999747 238.465596 
L 133.413743 239.387829 
L 134.46647 233.243217 
L 135.968085 225.586331 
L 138.091617 216.011126 
L 140.803492 205.448134 
L 144.060835 193.950089 
L 147.812148 181.535048 
L 151.998123 168.934066 
L 156.552577 157.008343 
L 161.403507 146.375351 
L 166.474218 138.31414 
L 171.684541 130.966377 
L 176.952103 118.300302 
L 182.193621 104.806968 
L 192.268777 84.670295 
L 196.943125 76.708087 
L 201.275372 70.543301 
L 205.197024 65.743604 
L 208.646079 61.981862 
L 213.916616 56.984159 
L 217.199883 54.239046 
L 216.106019 60.349322 
L 214.584557 67.906749 
L 212.442081 77.408779 
L 209.712465 87.991948 
L 206.438862 99.767943 
L 202.67303 112.078991 
L 198.474506 123.695146 
L 193.909669 131.398716 
L 189.050689 137.948895 
L 183.974387 145.236569 
L 178.76102 154.748425 
L 168.253647 184.545863 
L 163.125764 196.970337 
L 158.190432 206.768673 
L 153.525681 214.532031 
L 149.20526 220.586036 
L 145.297475 225.267838 
L 141.864108 228.85017 
L 138.959441 231.549495 
L 134.910813 234.901189 
L 133.406617 236.038692 
L 136.082886 222.153056 
L 138.244272 212.614285 
L 140.991588 202.108826 
L 144.281399 190.60461 
L 148.061692 178.3887 
L 152.272701 166.276105 
L 156.847849 155.054603 
L 161.714804 145.404156 
L 172.012949 130.302916 
L 177.940144 116.258889 
L 184.922981 100.617601 
L 191.753755 87.032098 
L 198.324472 76.353768 
L 204.531248 68.052859 
L 210.275953 61.776704 
L 215.467764 56.896171 
L 220.024598 53.235326 
L 223.874411 50.641914 
L 226.956337 48.892953 
L 231.172661 46.84173 
L 230.827511 48.82908 
L 229.604546 55.176905 
L 227.523101 64.878701 
L 224.616083 76.73625 
L 220.929452 89.680915 
L 216.521494 103.729501 
L 211.4619 117.469043 
L 205.830662 127.87204 
L 199.716809 134.856687 
L 193.217002 141.785971 
L 186.434004 149.413811 
L 179.475054 157.628469 
L 172.450173 173.978464 
L 165.470425 191.315024 
L 158.646159 204.95788 
L 152.085269 215.392153 
L 145.891482 223.203526 
L 140.162721 228.997863 
L 134.98956 233.301328 
L 130.453786 236.508849 
L 126.627109 238.822926 
L 121.330881 241.457183 
L 119.434486 242.28341 
L 119.807223 240.147651 
L 121.05738 233.723316 
L 123.165192 224.013631 
L 126.097335 212.208511 
L 129.807452 199.403816 
L 134.236884 185.712428 
L 139.315603 172.085634 
L 144.963315 159.416446 
L 151.090727 148.50305 
L 157.600967 140.672 
L 171.353791 128.04617 
L 178.378944 116.253986 
L 185.355495 102.061279 
L 192.173146 89.465018 
L 198.724108 79.447007 
L 204.904811 71.605166 
L 210.617538 65.395023 
L 215.77197 60.566777 
L 220.286615 56.878885 
L 224.090096 54.110057 
L 229.33523 50.69623 
L 231.17698 49.599127 
L 229.499333 58.126084 
L 227.365186 67.850648 
L 224.407964 79.676434 
L 220.674419 92.580846 
L 216.22358 106.462442 
L 211.125814 119.634542 
L 205.461717 128.304744 
L 186.003094 149.172165 
L 179.03678 157.58375 
L 172.011464 172.582978 
L 165.038217 188.707075 
L 158.227287 201.954798 
L 151.686354 212.306194 
L 145.518831 220.15833 
L 139.822226 226.071643 
L 134.686604 230.507205 
L 130.193158 233.835543 
L 126.41293 236.325733 
L 121.218971 239.386733 
L 119.431895 240.351761 
L 121.16427 231.55499 
L 123.324718 221.780302 
L 126.306974 209.993657 
L 130.063889 197.17273 
L 134.536066 183.546624 
L 139.6528 170.209922 
L 145.333194 158.010739 
L 151.487442 147.769114 
L 158.018245 140.423794 
L 164.82235 134.298369 
L 171.792184 127.590073 
L 179.695726 113.788379 
L 188.408018 96.643557 
L 196.91315 82.990729 
L 205.076653 72.345304 
L 212.769463 64.135875 
L 219.869956 57.936605 
L 226.265874 53.296856 
L 231.856095 49.815643 
L 244.611221 44.352128 
L 245.146087 44.157477 
L 244.576761 47.151431 
L 242.912242 55.061953 
L 240.178848 66.710249 
L 236.419793 80.586203 
L 231.694509 95.6846 
L 226.077702 110.924937 
L 219.658174 123.494769 
L 212.537418 131.37436 
L 196.651847 145.573116 
L 188.138184 152.361841 
L 179.421626 159.72152 
L 170.639981 176.037475 
L 161.932089 194.634748 
L 153.435621 209.051509 
L 145.284907 219.546308 
L 137.608809 227.109646 
L 130.528689 232.581062 
L 124.156481 236.631418 
L 118.592932 239.678551 
L 113.926001 241.916181 
L 107.56179 244.454631 
L 105.464731 245.189888 
L 106.06851 242.020384 
L 107.766918 233.983431 
L 110.533105 222.263628 
L 114.323336 208.426471 
L 119.077688 193.480211 
L 124.720994 178.253801 
L 131.164034 164.16111 
L 138.304942 152.14894 
L 146.030821 143.54573 
L 154.219524 136.907914 
L 162.741587 131.451729 
L 171.462276 125.459182 
L 180.243717 113.004998 
L 188.947074 98.396356 
L 197.434748 85.405 
L 205.572547 74.852114 
L 213.231813 66.88425 
L 220.291452 60.809708 
L 226.639851 56.224443 
L 232.176642 52.775526 
L 236.814287 50.18534 
L 243.114231 47.031306 
L 245.142848 46.089024 
L 242.772355 57.284899 
L 239.973419 69.01138 
L 236.15207 82.89243 
L 231.368724 97.938563 
L 225.699006 112.962976 
L 219.232554 124.314221 
L 212.071604 131.58348 
L 196.128257 145.491693 
L 187.597925 152.227086 
L 178.87324 160.168153 
L 170.092139 175.685204 
L 161.393451 193.243093 
L 152.914703 207.292785 
L 144.789945 217.681612 
L 137.147629 225.239637 
L 130.108581 230.744466 
L 123.784088 234.80198 
L 118.274141 237.842906 
L 113.665853 240.123951 
L 105.901567 243.566543 
L 105.47013 243.742789 
L 107.908892 232.256607 
L 110.740535 220.467693 
L 114.592943 206.604744 
L 119.405209 191.641389 
L 125.101251 176.602571 
L 131.591015 162.821667 
L 138.771896 151.225745 
L 146.530366 143.171304 
L 154.743762 136.753512 
L 163.28223 131.296594 
L 172.010777 124.97867 
L 181.888709 110.238826 
L 192.32137 93.420065 
L 202.484999 79.028682 
L 212.218909 68.417388 
L 221.369206 60.46226 
L 229.791224 54.621544 
L 237.351811 50.289593 
L 243.931432 47.018802 
L 249.426064 44.583215 
L 253.748837 42.976875 
L 259.101374 41.274574 
L 258.252884 45.45213 
L 256.092981 55.098338 
L 252.655815 68.772538 
L 247.995727 84.508567 
L 242.186393 101.157406 
L 235.319659 116.780872 
L 227.504088 127.15696 
L 218.863246 134.530295 
L 209.533743 141.630766 
L 199.663081 148.776394 
L 189.407314 155.046623 
L 178.928586 162.096537 
L 168.392568 179.158304 
L 157.965833 198.509815 
L 147.81323 213.131101 
L 138.09527 223.386076 
L 128.965596 230.560452 
L 120.568548 235.670849 
L 113.036883 239.46336 
L 106.489679 242.349514 
L 101.030446 244.509467 
L 93.70257 246.951145 
L 91.514842 247.59296 
L 92.404626 243.186244 
L 94.605067 233.34113 
L 98.081375 219.561244 
L 102.778591 203.796331 
L 108.62245 187.239502 
L 115.520561 171.374323 
L 123.363865 157.655781 
L 132.028358 147.393508 
L 141.377055 139.981977 
L 151.262152 134.09433 
L 161.527366 129.07883 
L 172.010403 123.050189 
L 182.545525 109.926454 
L 192.966173 93.679132 
L 203.107594 79.982815 
L 212.809453 69.864359 
L 221.918363 62.042375 
L 230.290311 56.266252 
L 237.792937 51.992379 
L 244.307624 48.796138 
L 249.731374 46.408816 
L 258.693585 42.857706 
L 259.087123 42.713203 
L 258.156059 47.078379 
L 255.915114 56.920603 
L 252.399718 70.688176 
L 247.665448 86.486244 
L 241.787155 103.067331 
L 234.857773 118.053694 
L 226.986857 127.468826 
L 218.298847 134.733816 
L 208.9311 141.841222 
L 199.03172 148.95187 
L 188.757218 155.223797 
L 178.270034 162.926049 
L 167.735971 179.556469 
L 157.321572 198.168909 
L 147.191489 212.394621 
L 137.505881 222.463341 
L 128.417876 229.542029 
L 120.071157 234.575458 
L 112.597686 238.286058 
L 106.115618 241.088209 
L 96.518324 244.749407 
L 91.531684 246.475565 
L 92.504013 241.869515 
L 94.785428 231.828678 
L 98.339858 217.94403 
L 103.111109 202.084023 
L 109.023746 185.553298 
L 115.984291 169.945153 
L 123.882697 156.582288 
L 132.59409 146.872702 
L 141.980743 139.714553 
L 151.894251 133.979227 
L 162.177882 128.991429 
L 172.669052 122.925153 
L 184.518064 107.65484 
L 196.660719 88.946859 
L 208.465736 74.909625 
L 219.746479 64.369987 
L 230.324598 56.818007 
L 240.032852 51.388513 
L 248.717754 47.358124 
L 256.241995 44.294998 
L 262.486617 41.980518 
L 267.352891 40.414827 
L 273.028161 38.838367 
L 271.845651 44.40348 
L 269.136828 55.95131 
L 264.944517 71.622047 
L 259.334999 89.105805 
L 252.396961 106.912492 
L 244.240094 121.440341 
L 234.993357 130.094607 
L 224.802943 137.73089 
L 213.829962 145.009453 
L 202.247897 151.890082 
L 190.239862 157.511572 
L 177.995704 164.689992 
L 165.709004 183.159689 
L 153.574014 203.194338 
L 141.782591 217.488328 
L 130.521156 227.173981 
L 119.967754 233.760924 
L 110.289235 238.469008 
L 101.638615 242.010055 
L 94.152662 244.738888 
L 87.94973 246.809268 
L 79.763364 249.144426 
L 77.59518 249.690927 
L 78.825796 243.889353 
L 81.581751 232.158971 
L 85.819472 216.371872 
L 91.471962 198.768336 
L 98.449854 181.082443 
L 106.642827 165.185372 
L 115.921351 152.430222 
L 126.13873 143.926429 
L 137.133428 137.214416 
L 148.731619 131.881521 
L 160.749934 127.237628 
L 172.998363 121.086642 
L 185.283258 106.580555 
L 197.410394 88.862835 
L 209.188041 75.388889 
L 220.429993 65.167068 
L 230.958515 57.804111 
L 240.607151 52.509084 
L 249.223354 48.595108 
L 256.670903 45.644189 
L 267.60939 41.808574 
L 272.999446 40.077861 
L 271.720742 45.877891 
L 268.917699 57.657105 
L 264.634632 73.425691 
L 258.939258 91.010923 
L 251.92162 108.700145 
L 243.692668 122.052226 
L 234.382501 130.400412 
L 224.138315 138.035595 
L 213.122069 145.357467 
L 201.507932 152.115916 
L 189.479524 157.755855 
L 177.227013 165.562814 
L 164.944113 183.886027 
L 152.825017 203.27668 
L 141.061329 217.192242 
L 129.839032 226.653066 
L 119.335553 233.109901 
L 109.716951 237.697745 
L 101.135297 241.124578 
L 93.726267 243.747291 
L 82.874238 247.206973 
L 77.626915 248.74901 
L 78.953688 242.71189 
L 81.803777 230.722246 
L 86.132122 214.795768 
L 91.870293 197.13665 
L 98.927568 179.535581 
L 107.192372 163.912897 
L 116.534038 151.731274 
L 126.804873 143.495276 
L 137.842495 136.968933 
L 149.472399 131.711458 
L 161.510716 127.090629 
L 173.767119 120.992581 
L 187.582543 103.607841 
L 201.423535 84.411174 
L 214.85159 70.449429 
L 227.654409 60.428338 
L 239.62958 53.484638 
L 250.587774 48.504211 
L 260.355742 44.763679 
L 268.779051 41.889215 
L 275.72453 39.692122 
L 284.767861 37.269021 
L 286.916094 36.770196 
L 285.344871 43.877391 
L 282.03391 57.409746 
L 277.035559 74.996893 
L 270.42884 94.060701 
L 262.318208 112.549298 
L 252.83189 124.560111 
L 242.119867 133.086613 
L 230.351495 140.764279 
L 217.712834 148.205273 
L 204.403701 154.391847 
L 190.634514 159.472317 
L 176.622965 167.262795 
L 148.759202 208.17927 
L 135.347515 221.809952 
L 122.567556 230.691305 
L 110.621376 236.656471 
L 99.697846 240.969913 
L 89.969665 244.269915 
L 81.590639 246.843182 
L 74.693238 248.81309 
L 65.75436 251.037378 
L 63.716094 251.491343 
L 65.342204 244.134656 
L 68.706829 230.402439 
L 73.756774 212.663393 
L 80.4122 193.503506 
L 88.567882 175.214955 
L 98.09488 159.776507 
L 108.842572 148.884234 
L 120.641036 141.116709 
L 133.303737 134.981147 
L 146.630479 130.064179 
L 160.410563 125.811529 
L 174.426128 119.271494 
L 188.455585 102.326212 
L 202.277129 84.235708 
L 215.67224 70.43687 
L 228.429141 60.713014 
L 240.346145 53.972976 
L 251.234844 49.163502 
L 260.923086 45.576748 
L 269.2577 42.840465 
L 286.869471 37.968772 
L 285.188498 45.35981 
L 281.770261 59.076876 
L 276.6688 76.828699 
L 269.964771 96.096931 
L 261.764165 114.07898 
L 252.196633 125.186583 
L 241.413439 133.290349 
L 229.585065 140.845891 
L 216.898519 148.286097 
L 203.554376 154.485082 
L 189.763606 159.711136 
L 175.744244 168.317317 
L 161.717934 188.996974 
L 147.906435 208.615831 
L 134.528106 221.761479 
L 121.79446 230.379625 
L 109.906816 236.180638 
L 99.053118 240.359467 
L 89.404964 243.540285 
L 81.114891 246.007032 
L 69.109712 249.28222 
L 63.766166 250.636651 
L 65.501975 242.984202 
L 68.973773 229.057912 
L 74.12667 211.219748 
L 80.879199 192.012976 
L 89.124603 173.815877 
L 98.73252 158.624133 
L 109.55105 148.244371 
L 121.40915 140.673489 
L 134.119345 134.696947 
L 147.480684 129.84673 
L 161.281925 125.627409 
L 161.281925 125.627409 
" clip-path="url(#pd57698854b)" style="fill: none; stroke: #3152a1; stroke-width: 1.5; stroke-linecap: square"/>
   </g>
   <g id="line2d_25">
    <path d="M 52.556094 143.18715 
L 298.076094 143.18715 
" clip-path="url(#pd57698854b)" style="fill: none; stroke: #000000; stroke-width: 0.4; stroke-linecap: square"/>
   </g>
   <g id="line2d_26">
    <path d="M 175.304869 264.774125 
L 175.304869 20.838125 
" clip-path="url(#pd57698854b)" style="fill: none; stroke: #000000; stroke-width: 0.4; stroke-linecap: square"/>
   </g>
   <g id="line2d_27">
    <path d="M 52.556094 36.770196 
L 298.076094 36.770196 
" clip-path="url(#pd57698854b)" style="fill: none; stroke: #3152a1; stroke-width: 0.8; stroke-linecap: square"/>
   </g>
   <g id="line2d_28">
    <path d="M 52.556094 251.491343 
L 298.076094 251.491343 
" clip-path="url(#pd57698854b)" style="fill: none; stroke: #3152a1; stroke-width: 0.8; stroke-linecap: square"/>
   </g>
   <g id="patch_3">
    <path d="M 52.556094 264.774125 
L 52.556094 20.838125 
" style="fill: none; stroke: #000000; stroke-width: 0.8; stroke-linejoin: miter; stroke-linecap: square"/>
   </g>
   <g id="patch_4">
    <path d="M 298.076094 264.774125 
L 298.076094 20.838125 
" style="fill: none; stroke: #000000; stroke-width: 0.8; stroke-linejoin: miter; stroke-linecap: square"/>
   </g>
   <g id="patch_5">
    <path d="M 52.556094 264.774125 
L 298.076094 264.774125 
" style="fill: none; stroke: #000000; stroke-width: 0.8; stroke-linejoin: miter; stroke-linecap: square"/>
   </g>
   <g id="patch_6">
    <path d="M 52.556094 20.838125 
L 298.076094 20.838125 
" style="fill: none; stroke: #000000; stroke-width: 0.8; stroke-linejoin: miter; stroke-linecap: square"/>
   </g>
   <g id="text_13">
    <!-- Specimen : Thomsen_and_Wallace_RW2 -->
    <g transform="translate(83.903516 14.838125) scale(0.11 -0.11)">
     <defs>
      <path id="TimesNewRomanPSMT-3a" d="M 903 2950 
Q 1047 2950 1148 2848 
Q 1250 2747 1250 2603 
Q 1250 2459 1148 2357 
Q 1047 2256 903 2256 
Q 759 2256 657 2357 
Q 556 2459 556 2603 
Q 556 2747 657 2848 
Q 759 2950 903 2950 
z
M 897 609 
Q 1044 609 1145 506 
Q 1247 403 1247 259 
Q 1247 116 1144 14 
Q 1041 -88 897 -88 
Q 753 -88 651 14 
Q 550 116 550 259 
Q 550 403 651 506 
Q 753 609 897 609 
z
" transform="scale(0.015625)"/>
      <path id="TimesNewRomanPSMT-54" d="M 3703 4238 
L 3750 3244 
L 3631 3244 
Q 3597 3506 3538 3619 
Q 3441 3800 3280 3886 
Q 3119 3972 2856 3972 
L 2259 3972 
L 2259 734 
Q 2259 344 2344 247 
Q 2463 116 2709 116 
L 2856 116 
L 2856 0 
L 1059 0 
L 1059 116 
L 1209 116 
Q 1478 116 1591 278 
Q 1659 378 1659 734 
L 1659 3972 
L 1150 3972 
Q 853 3972 728 3928 
Q 566 3869 450 3700 
Q 334 3531 313 3244 
L 194 3244 
L 244 4238 
L 3703 4238 
z
" transform="scale(0.015625)"/>
      <path id="TimesNewRomanPSMT-6f" d="M 1600 2947 
Q 2250 2947 2644 2453 
Q 2978 2031 2978 1484 
Q 2978 1100 2793 706 
Q 2609 313 2286 112 
Q 1963 -88 1566 -88 
Q 919 -88 538 428 
Q 216 863 216 1403 
Q 216 1797 411 2186 
Q 606 2575 925 2761 
Q 1244 2947 1600 2947 
z
M 1503 2744 
Q 1338 2744 1170 2645 
Q 1003 2547 900 2300 
Q 797 2053 797 1666 
Q 797 1041 1045 587 
Q 1294 134 1700 134 
Q 2003 134 2200 384 
Q 2397 634 2397 1244 
Q 2397 2006 2069 2444 
Q 1847 2744 1503 2744 
z
" transform="scale(0.015625)"/>
      <path id="TimesNewRomanPSMT-5f" d="M 3256 -1381 
L -53 -1381 
L -53 -1119 
L 3256 -1119 
L 3256 -1381 
z
" transform="scale(0.015625)"/>
      <path id="TimesNewRomanPSMT-64" d="M 2222 322 
Q 2013 103 1813 7 
Q 1613 -88 1381 -88 
Q 913 -88 563 304 
Q 213 697 213 1313 
Q 213 1928 600 2439 
Q 988 2950 1597 2950 
Q 1975 2950 2222 2709 
L 2222 3238 
Q 2222 3728 2198 3840 
Q 2175 3953 2125 3993 
Q 2075 4034 2000 4034 
Q 1919 4034 1784 3984 
L 1744 4094 
L 2597 4444 
L 2738 4444 
L 2738 1134 
Q 2738 631 2761 520 
Q 2784 409 2836 365 
Q 2888 322 2956 322 
Q 3041 322 3181 375 
L 3216 266 
L 2366 -88 
L 2222 -88 
L 2222 322 
z
M 2222 541 
L 2222 2016 
Q 2203 2228 2109 2403 
Q 2016 2578 1861 2667 
Q 1706 2756 1559 2756 
Q 1284 2756 1069 2509 
Q 784 2184 784 1559 
Q 784 928 1059 592 
Q 1334 256 1672 256 
Q 1956 256 2222 541 
z
" transform="scale(0.015625)"/>
      <path id="TimesNewRomanPSMT-57" d="M 5991 4238 
L 5991 4122 
Q 5825 4122 5722 4062 
Q 5619 4003 5525 3841 
Q 5463 3731 5328 3319 
L 4147 -97 
L 4022 -97 
L 3056 2613 
L 2097 -97 
L 1984 -97 
L 725 3422 
Q 584 3816 547 3888 
Q 484 4006 376 4064 
Q 269 4122 84 4122 
L 84 4238 
L 1653 4238 
L 1653 4122 
L 1578 4122 
Q 1413 4122 1325 4047 
Q 1238 3972 1238 3866 
Q 1238 3756 1375 3363 
L 2209 984 
L 2913 3006 
L 2788 3363 
L 2688 3647 
Q 2622 3803 2541 3922 
Q 2500 3981 2441 4022 
Q 2363 4078 2284 4103 
Q 2225 4122 2097 4122 
L 2097 4238 
L 3747 4238 
L 3747 4122 
L 3634 4122 
Q 3459 4122 3378 4047 
Q 3297 3972 3297 3844 
Q 3297 3684 3438 3288 
L 4250 984 
L 5056 3319 
Q 5194 3706 5194 3856 
Q 5194 3928 5148 3990 
Q 5103 4053 5034 4078 
Q 4916 4122 4725 4122 
L 4725 4238 
L 5991 4238 
z
" transform="scale(0.015625)"/>
      <path id="TimesNewRomanPSMT-52" d="M 4325 0 
L 3194 0 
L 1759 1981 
Q 1600 1975 1500 1975 
Q 1459 1975 1412 1976 
Q 1366 1978 1316 1981 
L 1316 750 
Q 1316 350 1403 253 
Q 1522 116 1759 116 
L 1925 116 
L 1925 0 
L 109 0 
L 109 116 
L 269 116 
Q 538 116 653 291 
Q 719 388 719 750 
L 719 3488 
Q 719 3888 631 3984 
Q 509 4122 269 4122 
L 109 4122 
L 109 4238 
L 1653 4238 
Q 2328 4238 2648 4139 
Q 2969 4041 3192 3777 
Q 3416 3513 3416 3147 
Q 3416 2756 3161 2468 
Q 2906 2181 2372 2063 
L 3247 847 
Q 3547 428 3762 290 
Q 3978 153 4325 116 
L 4325 0 
z
M 1316 2178 
Q 1375 2178 1419 2176 
Q 1463 2175 1491 2175 
Q 2097 2175 2405 2437 
Q 2713 2700 2713 3106 
Q 2713 3503 2464 3751 
Q 2216 4000 1806 4000 
Q 1625 4000 1316 3941 
L 1316 2178 
z
" transform="scale(0.015625)"/>
      <path id="TimesNewRomanPSMT-32" d="M 2934 816 
L 2638 0 
L 138 0 
L 138 116 
Q 1241 1122 1691 1759 
Q 2141 2397 2141 2925 
Q 2141 3328 1894 3587 
Q 1647 3847 1303 3847 
Q 991 3847 742 3664 
Q 494 3481 375 3128 
L 259 3128 
Q 338 3706 661 4015 
Q 984 4325 1469 4325 
Q 1984 4325 2329 3994 
Q 2675 3663 2675 3213 
Q 2675 2891 2525 2569 
Q 2294 2063 1775 1497 
Q 997 647 803 472 
L 1909 472 
Q 2247 472 2383 497 
Q 2519 522 2628 598 
Q 2738 675 2819 816 
L 2934 816 
z
" transform="scale(0.015625)"/>
     </defs>
     <use xlink:href="#TimesNewRomanPSMT-53"/>
     <use xlink:href="#TimesNewRomanPSMT-70" x="55.615234"/>
     <use xlink:href="#TimesNewRomanPSMT-65" x="105.615234"/>
     <use xlink:href="#TimesNewRomanPSMT-63" x="150"/>
     <use xlink:href="#TimesNewRomanPSMT-69" x="194.384766"/>
     <use xlink:href="#TimesNewRomanPSMT-6d" x="222.167969"/>
     <use xlink:href="#TimesNewRomanPSMT-65" x="299.951172"/>
     <use xlink:href="#TimesNewRomanPSMT-6e" x="344.335938"/>
     <use xlink:href="#TimesNewRomanPSMT-20" x="394.335938"/>
     <use xlink:href="#TimesNewRomanPSMT-3a" x="419.335938"/>
     <use xlink:href="#TimesNewRomanPSMT-20" x="447.119141"/>
     <use xlink:href="#TimesNewRomanPSMT-54" x="470.369141"/>
     <use xlink:href="#TimesNewRomanPSMT-68" x="531.453125"/>
     <use xlink:href="#TimesNewRomanPSMT-6f" x="581.453125"/>
     <use xlink:href="#TimesNewRomanPSMT-6d" x="631.453125"/>
     <use xlink:href="#TimesNewRomanPSMT-73" x="709.236328"/>
     <use xlink:href="#TimesNewRomanPSMT-65" x="748.152344"/>
     <use xlink:href="#TimesNewRomanPSMT-6e" x="792.537109"/>
     <use xlink:href="#TimesNewRomanPSMT-5f" x="842.537109"/>
     <use xlink:href="#TimesNewRomanPSMT-61" x="892.537109"/>
     <use xlink:href="#TimesNewRomanPSMT-6e" x="936.921875"/>
     <use xlink:href="#TimesNewRomanPSMT-64" x="986.921875"/>
     <use xlink:href="#TimesNewRomanPSMT-5f" x="1036.921875"/>
     <use xlink:href="#TimesNewRomanPSMT-57" x="1086.921875"/>
     <use xlink:href="#TimesNewRomanPSMT-61" x="1173.306641"/>
     <use xlink:href="#TimesNewRomanPSMT-6c" x="1217.691406"/>
     <use xlink:href="#TimesNewRomanPSMT-6c" x="1245.474609"/>
     <use xlink:href="#TimesNewRomanPSMT-61" x="1273.257812"/>
     <use xlink:href="#TimesNewRomanPSMT-63" x="1317.642578"/>
     <use xlink:href="#TimesNewRomanPSMT-65" x="1362.027344"/>
     <use xlink:href="#TimesNewRomanPSMT-5f" x="1406.412109"/>
     <use xlink:href="#TimesNewRomanPSMT-52" x="1456.412109"/>
     <use xlink:href="#TimesNewRomanPSMT-57" x="1517.611328"/>
     <use xlink:href="#TimesNewRomanPSMT-32" x="1611.996094"/>
    </g>
   </g>
   <g id="legend_1">
    <g id="patch_7">
     <path d="M 58.970194 78.473371 
L 154.915394 78.473371 
Q 156.747994 78.473371 156.747994 76.640771 
L 156.747994 51.645825 
Q 156.747994 49.813225 154.915394 49.813225 
L 58.970194 49.813225 
Q 57.137594 49.813225 57.137594 51.645825 
L 57.137594 76.640771 
Q 57.137594 78.473371 58.970194 78.473371 
z
" style="fill: #ffffff; opacity: 0.8; stroke: #cccccc; stroke-linejoin: miter"/>
    </g>
    <g id="line2d_29">
     <path d="M 60.802794 56.685475 
L 69.965794 56.685475 
L 79.128794 56.685475 
" style="fill: none; stroke-dasharray: 4.07,1.76; stroke-dashoffset: 0; stroke: #433f40; stroke-width: 1.1"/>
    </g>
    <g id="text_14">
     <!-- Experimental Test -->
     <g transform="translate(86.459194 59.892525) scale(0.09163 -0.09163)">
      <defs>
       <path id="TimesNewRomanPSMT-45" d="M 1338 4006 
L 1338 2331 
L 2269 2331 
Q 2631 2331 2753 2441 
Q 2916 2584 2934 2947 
L 3050 2947 
L 3050 1472 
L 2934 1472 
Q 2891 1781 2847 1869 
Q 2791 1978 2662 2040 
Q 2534 2103 2269 2103 
L 1338 2103 
L 1338 706 
Q 1338 425 1363 364 
Q 1388 303 1450 267 
Q 1513 231 1688 231 
L 2406 231 
Q 2766 231 2928 281 
Q 3091 331 3241 478 
Q 3434 672 3638 1063 
L 3763 1063 
L 3397 0 
L 131 0 
L 131 116 
L 281 116 
Q 431 116 566 188 
Q 666 238 702 338 
Q 738 438 738 747 
L 738 3500 
Q 738 3903 656 3997 
Q 544 4122 281 4122 
L 131 4122 
L 131 4238 
L 3397 4238 
L 3444 3309 
L 3322 3309 
Q 3256 3644 3176 3769 
Q 3097 3894 2941 3959 
Q 2816 4006 2500 4006 
L 1338 4006 
z
" transform="scale(0.015625)"/>
       <path id="TimesNewRomanPSMT-78" d="M 84 2863 
L 1431 2863 
L 1431 2747 
Q 1303 2747 1251 2703 
Q 1200 2659 1200 2588 
Q 1200 2513 1309 2356 
Q 1344 2306 1413 2200 
L 1616 1875 
L 1850 2200 
Q 2075 2509 2075 2591 
Q 2075 2656 2022 2701 
Q 1969 2747 1850 2747 
L 1850 2863 
L 2819 2863 
L 2819 2747 
Q 2666 2738 2553 2663 
Q 2400 2556 2134 2200 
L 1744 1678 
L 2456 653 
Q 2719 275 2831 198 
Q 2944 122 3122 113 
L 3122 0 
L 1772 0 
L 1772 113 
Q 1913 113 1991 175 
Q 2050 219 2050 291 
Q 2050 363 1850 653 
L 1431 1266 
L 972 653 
Q 759 369 759 316 
Q 759 241 829 180 
Q 900 119 1041 113 
L 1041 0 
L 106 0 
L 106 113 
Q 219 128 303 191 
Q 422 281 703 653 
L 1303 1450 
L 759 2238 
Q 528 2575 401 2661 
Q 275 2747 84 2747 
L 84 2863 
z
" transform="scale(0.015625)"/>
      </defs>
      <use xlink:href="#TimesNewRomanPSMT-45"/>
      <use xlink:href="#TimesNewRomanPSMT-78" x="61.083984"/>
      <use xlink:href="#TimesNewRomanPSMT-70" x="111.083984"/>
      <use xlink:href="#TimesNewRomanPSMT-65" x="161.083984"/>
      <use xlink:href="#TimesNewRomanPSMT-72" x="205.46875"/>
      <use xlink:href="#TimesNewRomanPSMT-69" x="238.769531"/>
      <use xlink:href="#TimesNewRomanPSMT-6d" x="266.552734"/>
      <use xlink:href="#TimesNewRomanPSMT-65" x="344.335938"/>
      <use xlink:href="#TimesNewRomanPSMT-6e" x="388.720703"/>
      <use xlink:href="#TimesNewRomanPSMT-74" x="438.720703"/>
      <use xlink:href="#TimesNewRomanPSMT-61" x="466.503906"/>
      <use xlink:href="#TimesNewRomanPSMT-6c" x="510.888672"/>
      <use xlink:href="#TimesNewRomanPSMT-20" x="538.671875"/>
      <use xlink:href="#TimesNewRomanPSMT-54" x="561.921875"/>
      <use xlink:href="#TimesNewRomanPSMT-65" x="616.005859"/>
      <use xlink:href="#TimesNewRomanPSMT-73" x="660.390625"/>
      <use xlink:href="#TimesNewRomanPSMT-74" x="699.306641"/>
     </g>
    </g>
    <g id="line2d_30">
     <path d="M 60.802794 69.641098 
L 69.965794 69.641098 
L 79.128794 69.641098 
" style="fill: none; stroke: #3152a1; stroke-width: 1.5; stroke-linecap: square"/>
    </g>
    <g id="text_15">
     <!-- Numerical Test -->
     <g transform="translate(86.459194 72.848148) scale(0.09163 -0.09163)">
      <defs>
       <path id="TimesNewRomanPSMT-75" d="M 2709 2863 
L 2709 1128 
Q 2709 631 2732 520 
Q 2756 409 2807 365 
Q 2859 322 2928 322 
Q 3025 322 3147 375 
L 3191 266 
L 2334 -88 
L 2194 -88 
L 2194 519 
Q 1825 119 1631 15 
Q 1438 -88 1222 -88 
Q 981 -88 804 51 
Q 628 191 559 409 
Q 491 628 491 1028 
L 491 2306 
Q 491 2509 447 2587 
Q 403 2666 317 2708 
Q 231 2750 6 2747 
L 6 2863 
L 1009 2863 
L 1009 947 
Q 1009 547 1148 422 
Q 1288 297 1484 297 
Q 1619 297 1789 381 
Q 1959 466 2194 703 
L 2194 2325 
Q 2194 2569 2105 2655 
Q 2016 2741 1734 2747 
L 1734 2863 
L 2709 2863 
z
" transform="scale(0.015625)"/>
      </defs>
      <use xlink:href="#TimesNewRomanPSMT-4e"/>
      <use xlink:href="#TimesNewRomanPSMT-75" x="72.216797"/>
      <use xlink:href="#TimesNewRomanPSMT-6d" x="122.216797"/>
      <use xlink:href="#TimesNewRomanPSMT-65" x="200"/>
      <use xlink:href="#TimesNewRomanPSMT-72" x="244.384766"/>
      <use xlink:href="#TimesNewRomanPSMT-69" x="277.685547"/>
      <use xlink:href="#TimesNewRomanPSMT-63" x="305.46875"/>
      <use xlink:href="#TimesNewRomanPSMT-61" x="349.853516"/>
      <use xlink:href="#TimesNewRomanPSMT-6c" x="394.238281"/>
      <use xlink:href="#TimesNewRomanPSMT-20" x="422.021484"/>
      <use xlink:href="#TimesNewRomanPSMT-54" x="445.271484"/>
      <use xlink:href="#TimesNewRomanPSMT-65" x="499.355469"/>
      <use xlink:href="#TimesNewRomanPSMT-73" x="543.740234"/>
      <use xlink:href="#TimesNewRomanPSMT-74" x="582.65625"/>
     </g>
    </g>
   </g>
  </g>
 </g>
 <defs>
  <clipPath id="pd57698854b">
   <rect x="52.556094" y="20.838125" width="245.52" height="243.936"/>
  </clipPath>
 </defs>
</svg>
