<?xml version="1.0" encoding="utf-8" standalone="no"?>
<!DOCTYPE svg PUBLIC "-//W3C//DTD SVG 1.1//EN"
  "http://www.w3.org/Graphics/SVG/1.1/DTD/svg11.dtd">
<svg xmlns:xlink="http://www.w3.org/1999/xlink" width="279.812813pt" height="293.468437pt" viewBox="0 0 279.812813 293.468437" xmlns="http://www.w3.org/2000/svg" version="1.1">
 <metadata>
  <rdf:RDF xmlns:dc="http://purl.org/dc/elements/1.1/" xmlns:cc="http://creativecommons.org/ns#" xmlns:rdf="http://www.w3.org/1999/02/22-rdf-syntax-ns#">
   <cc:Work>
    <dc:type rdf:resource="http://purl.org/dc/dcmitype/StillImage"/>
    <dc:date>2025-01-03T22:39:14.790279</dc:date>
    <dc:format>image/svg+xml</dc:format>
    <dc:creator>
     <cc:Agent>
      <dc:title>Matplotlib v3.8.0, https://matplotlib.org/</dc:title>
     </cc:Agent>
    </dc:creator>
   </cc:Work>
  </rdf:RDF>
 </metadata>
 <defs>
  <style type="text/css">*{stroke-linejoin: round; stroke-linecap: butt}</style>
 </defs>
 <g id="figure_1">
  <g id="patch_1">
   <path d="M 0 293.468437 
L 279.812813 293.468437 
L 279.812813 0 
L 0 0 
z
" style="fill: #ffffff"/>
  </g>
  <g id="axes_1">
   <g id="patch_2">
    <path d="M 49.432813 257.098125 
L 272.612813 257.098125 
L 272.612813 20.838125 
L 49.432813 20.838125 
z
" style="fill: #ffffff"/>
   </g>
   <g id="matplotlib.axis_1">
    <g id="xtick_1">
     <g id="line2d_1">
      <path d="M 60.912085 257.098125 
L 60.912085 20.838125 
" clip-path="url(#pc7e85aa83a)" style="fill: none; stroke-dasharray: 0.8,1.32; stroke-dashoffset: 0; stroke: #b0b0b0; stroke-width: 0.8"/>
     </g>
     <g id="line2d_2">
      <defs>
       <path id="mf5386c65a2" d="M 0 0 
L 0 3.5 
" style="stroke: #000000; stroke-width: 0.8"/>
      </defs>
      <g>
       <use xlink:href="#mf5386c65a2" x="60.912085" y="257.098125" style="stroke: #000000; stroke-width: 0.8"/>
      </g>
     </g>
     <g id="text_1">
      <!-- −75 -->
      <g transform="translate(52.605835 271.085625) scale(0.1 -0.1)">
       <defs>
        <path id="Cambria-2212" d="M 397 1613 
L 397 2047 
L 3147 2047 
L 3147 1613 
L 397 1613 
z
" transform="scale(0.015625)"/>
        <path id="Cambria-37" d="M 3206 4116 
L 1388 -22 
L 934 -22 
L 934 131 
L 2619 3697 
L 2619 3744 
L 1244 3744 
Q 1116 3744 1039 3720 
Q 963 3697 911 3653 
Q 859 3609 825 3537 
Q 791 3466 731 3253 
L 463 3253 
L 525 4266 
L 3206 4266 
L 3206 4116 
z
" transform="scale(0.015625)"/>
        <path id="Cambria-35" d="M 469 172 
L 469 834 
L 847 834 
Q 941 516 1130 366 
Q 1319 216 1619 216 
Q 2034 216 2246 466 
Q 2459 716 2459 1213 
Q 2459 1544 2346 1761 
Q 2234 1978 2043 2075 
Q 1853 2172 1600 2172 
Q 1388 2172 1234 2145 
Q 1081 2119 906 2063 
L 656 2209 
L 656 4266 
L 2378 4266 
Q 2484 4266 2531 4283 
Q 2578 4300 2606 4336 
Q 2634 4372 2672 4472 
L 2916 4472 
L 2869 3747 
L 1072 3747 
L 1072 2375 
Q 1234 2444 1425 2478 
Q 1616 2513 1806 2513 
Q 2178 2513 2465 2361 
Q 2753 2209 2909 1929 
Q 3066 1650 3066 1281 
Q 3066 863 2891 563 
Q 2716 263 2384 106 
Q 2053 -50 1600 -50 
Q 1059 -50 469 172 
z
" transform="scale(0.015625)"/>
       </defs>
       <use xlink:href="#Cambria-2212"/>
       <use xlink:href="#Cambria-37" x="55.371094"/>
       <use xlink:href="#Cambria-35" x="110.742188"/>
      </g>
     </g>
    </g>
    <g id="xtick_2">
     <g id="line2d_3">
      <path d="M 94.282444 257.098125 
L 94.282444 20.838125 
" clip-path="url(#pc7e85aa83a)" style="fill: none; stroke-dasharray: 0.8,1.32; stroke-dashoffset: 0; stroke: #b0b0b0; stroke-width: 0.8"/>
     </g>
     <g id="line2d_4">
      <g>
       <use xlink:href="#mf5386c65a2" x="94.282444" y="257.098125" style="stroke: #000000; stroke-width: 0.8"/>
      </g>
     </g>
     <g id="text_2">
      <!-- −50 -->
      <g transform="translate(85.976194 271.085625) scale(0.1 -0.1)">
       <defs>
        <path id="Cambria-30" d="M 1738 -50 
Q 1063 -50 733 481 
Q 403 1013 403 2094 
Q 403 2669 504 3087 
Q 606 3506 789 3779 
Q 972 4053 1228 4184 
Q 1484 4316 1788 4316 
Q 2472 4316 2806 3787 
Q 3141 3259 3141 2191 
Q 3141 1084 2783 517 
Q 2425 -50 1738 -50 
z
M 1013 2188 
Q 1013 1169 1202 692 
Q 1391 216 1788 216 
Q 2166 216 2348 664 
Q 2531 1113 2531 2053 
Q 2531 2772 2437 3217 
Q 2344 3663 2176 3856 
Q 2009 4050 1772 4050 
Q 1556 4050 1411 3922 
Q 1266 3794 1177 3553 
Q 1088 3313 1050 2967 
Q 1013 2622 1013 2188 
z
" transform="scale(0.015625)"/>
       </defs>
       <use xlink:href="#Cambria-2212"/>
       <use xlink:href="#Cambria-35" x="55.371094"/>
       <use xlink:href="#Cambria-30" x="110.742188"/>
      </g>
     </g>
    </g>
    <g id="xtick_3">
     <g id="line2d_5">
      <path d="M 127.652802 257.098125 
L 127.652802 20.838125 
" clip-path="url(#pc7e85aa83a)" style="fill: none; stroke-dasharray: 0.8,1.32; stroke-dashoffset: 0; stroke: #b0b0b0; stroke-width: 0.8"/>
     </g>
     <g id="line2d_6">
      <g>
       <use xlink:href="#mf5386c65a2" x="127.652802" y="257.098125" style="stroke: #000000; stroke-width: 0.8"/>
      </g>
     </g>
     <g id="text_3">
      <!-- −25 -->
      <g transform="translate(119.346552 271.085625) scale(0.1 -0.1)">
       <defs>
        <path id="Cambria-32" d="M 2194 500 
Q 2347 500 2440 519 
Q 2534 538 2590 581 
Q 2647 625 2680 695 
Q 2713 766 2763 913 
L 3028 913 
L 2975 0 
L 403 0 
L 403 150 
Q 538 478 766 822 
Q 994 1166 1413 1631 
Q 1775 2031 1934 2238 
Q 2109 2463 2195 2627 
Q 2281 2791 2318 2936 
Q 2356 3081 2356 3228 
Q 2356 3463 2281 3642 
Q 2206 3822 2051 3925 
Q 1897 4028 1663 4028 
Q 1078 4028 875 3378 
L 497 3378 
L 497 3978 
Q 875 4156 1204 4236 
Q 1534 4316 1797 4316 
Q 2378 4316 2675 4061 
Q 2972 3806 2972 3322 
Q 2972 3156 2939 3017 
Q 2906 2878 2836 2742 
Q 2766 2606 2647 2450 
Q 2528 2294 2384 2133 
Q 2241 1972 1888 1597 
Q 1294 969 1016 500 
L 2194 500 
z
" transform="scale(0.015625)"/>
       </defs>
       <use xlink:href="#Cambria-2212"/>
       <use xlink:href="#Cambria-32" x="55.371094"/>
       <use xlink:href="#Cambria-35" x="110.742188"/>
      </g>
     </g>
    </g>
    <g id="xtick_4">
     <g id="line2d_7">
      <path d="M 161.023161 257.098125 
L 161.023161 20.838125 
" clip-path="url(#pc7e85aa83a)" style="fill: none; stroke-dasharray: 0.8,1.32; stroke-dashoffset: 0; stroke: #b0b0b0; stroke-width: 0.8"/>
     </g>
     <g id="line2d_8">
      <g>
       <use xlink:href="#mf5386c65a2" x="161.023161" y="257.098125" style="stroke: #000000; stroke-width: 0.8"/>
      </g>
     </g>
     <g id="text_4">
      <!-- 0 -->
      <g transform="translate(158.254411 271.085625) scale(0.1 -0.1)">
       <use xlink:href="#Cambria-30"/>
      </g>
     </g>
    </g>
    <g id="xtick_5">
     <g id="line2d_9">
      <path d="M 194.393519 257.098125 
L 194.393519 20.838125 
" clip-path="url(#pc7e85aa83a)" style="fill: none; stroke-dasharray: 0.8,1.32; stroke-dashoffset: 0; stroke: #b0b0b0; stroke-width: 0.8"/>
     </g>
     <g id="line2d_10">
      <g>
       <use xlink:href="#mf5386c65a2" x="194.393519" y="257.098125" style="stroke: #000000; stroke-width: 0.8"/>
      </g>
     </g>
     <g id="text_5">
      <!-- 25 -->
      <g transform="translate(188.856019 271.085625) scale(0.1 -0.1)">
       <use xlink:href="#Cambria-32"/>
       <use xlink:href="#Cambria-35" x="55.371094"/>
      </g>
     </g>
    </g>
    <g id="xtick_6">
     <g id="line2d_11">
      <path d="M 227.763878 257.098125 
L 227.763878 20.838125 
" clip-path="url(#pc7e85aa83a)" style="fill: none; stroke-dasharray: 0.8,1.32; stroke-dashoffset: 0; stroke: #b0b0b0; stroke-width: 0.8"/>
     </g>
     <g id="line2d_12">
      <g>
       <use xlink:href="#mf5386c65a2" x="227.763878" y="257.098125" style="stroke: #000000; stroke-width: 0.8"/>
      </g>
     </g>
     <g id="text_6">
      <!-- 50 -->
      <g transform="translate(222.226378 271.085625) scale(0.1 -0.1)">
       <use xlink:href="#Cambria-35"/>
       <use xlink:href="#Cambria-30" x="55.371094"/>
      </g>
     </g>
    </g>
    <g id="xtick_7">
     <g id="line2d_13">
      <path d="M 261.134236 257.098125 
L 261.134236 20.838125 
" clip-path="url(#pc7e85aa83a)" style="fill: none; stroke-dasharray: 0.8,1.32; stroke-dashoffset: 0; stroke: #b0b0b0; stroke-width: 0.8"/>
     </g>
     <g id="line2d_14">
      <g>
       <use xlink:href="#mf5386c65a2" x="261.134236" y="257.098125" style="stroke: #000000; stroke-width: 0.8"/>
      </g>
     </g>
     <g id="text_7">
      <!-- 75 -->
      <g transform="translate(255.596736 271.085625) scale(0.1 -0.1)">
       <use xlink:href="#Cambria-37"/>
       <use xlink:href="#Cambria-35" x="55.371094"/>
      </g>
     </g>
    </g>
    <g id="text_8">
     <!-- Displacement (mm) -->
     <g transform="translate(121.173594 284.129375) scale(0.1 -0.1)">
      <defs>
       <path id="TimesNewRomanPSMT-44" d="M 109 0 
L 109 116 
L 269 116 
Q 538 116 650 288 
Q 719 391 719 750 
L 719 3488 
Q 719 3884 631 3984 
Q 509 4122 269 4122 
L 109 4122 
L 109 4238 
L 1834 4238 
Q 2784 4238 3279 4022 
Q 3775 3806 4076 3303 
Q 4378 2800 4378 2141 
Q 4378 1256 3841 663 
Q 3238 0 2003 0 
L 109 0 
z
M 1319 306 
Q 1716 219 1984 219 
Q 2709 219 3187 728 
Q 3666 1238 3666 2109 
Q 3666 2988 3187 3494 
Q 2709 4000 1959 4000 
Q 1678 4000 1319 3909 
L 1319 306 
z
" transform="scale(0.015625)"/>
       <path id="TimesNewRomanPSMT-69" d="M 928 4444 
Q 1059 4444 1151 4351 
Q 1244 4259 1244 4128 
Q 1244 3997 1151 3903 
Q 1059 3809 928 3809 
Q 797 3809 703 3903 
Q 609 3997 609 4128 
Q 609 4259 701 4351 
Q 794 4444 928 4444 
z
M 1188 2947 
L 1188 647 
Q 1188 378 1227 289 
Q 1266 200 1342 156 
Q 1419 113 1622 113 
L 1622 0 
L 231 0 
L 231 113 
Q 441 113 512 153 
Q 584 194 626 287 
Q 669 381 669 647 
L 669 1750 
Q 669 2216 641 2353 
Q 619 2453 572 2492 
Q 525 2531 444 2531 
Q 356 2531 231 2484 
L 188 2597 
L 1050 2947 
L 1188 2947 
z
" transform="scale(0.015625)"/>
       <path id="TimesNewRomanPSMT-73" d="M 2050 2947 
L 2050 1972 
L 1947 1972 
Q 1828 2431 1642 2597 
Q 1456 2763 1169 2763 
Q 950 2763 815 2647 
Q 681 2531 681 2391 
Q 681 2216 781 2091 
Q 878 1963 1175 1819 
L 1631 1597 
Q 2266 1288 2266 781 
Q 2266 391 1970 151 
Q 1675 -88 1309 -88 
Q 1047 -88 709 6 
Q 606 38 541 38 
Q 469 38 428 -44 
L 325 -44 
L 325 978 
L 428 978 
Q 516 541 762 319 
Q 1009 97 1316 97 
Q 1531 97 1667 223 
Q 1803 350 1803 528 
Q 1803 744 1651 891 
Q 1500 1038 1047 1263 
Q 594 1488 453 1669 
Q 313 1847 313 2119 
Q 313 2472 555 2709 
Q 797 2947 1181 2947 
Q 1350 2947 1591 2875 
Q 1750 2828 1803 2828 
Q 1853 2828 1881 2850 
Q 1909 2872 1947 2947 
L 2050 2947 
z
" transform="scale(0.015625)"/>
       <path id="TimesNewRomanPSMT-70" d="M -6 2578 
L 875 2934 
L 994 2934 
L 994 2266 
Q 1216 2644 1439 2795 
Q 1663 2947 1909 2947 
Q 2341 2947 2628 2609 
Q 2981 2197 2981 1534 
Q 2981 794 2556 309 
Q 2206 -88 1675 -88 
Q 1444 -88 1275 -22 
Q 1150 25 994 166 
L 994 -706 
Q 994 -1000 1030 -1079 
Q 1066 -1159 1155 -1206 
Q 1244 -1253 1478 -1253 
L 1478 -1369 
L -22 -1369 
L -22 -1253 
L 56 -1253 
Q 228 -1256 350 -1188 
Q 409 -1153 442 -1076 
Q 475 -1000 475 -688 
L 475 2019 
Q 475 2297 450 2372 
Q 425 2447 370 2484 
Q 316 2522 222 2522 
Q 147 2522 31 2478 
L -6 2578 
z
M 994 2081 
L 994 1013 
Q 994 666 1022 556 
Q 1066 375 1236 237 
Q 1406 100 1666 100 
Q 1978 100 2172 344 
Q 2425 663 2425 1241 
Q 2425 1897 2138 2250 
Q 1938 2494 1663 2494 
Q 1513 2494 1366 2419 
Q 1253 2363 994 2081 
z
" transform="scale(0.015625)"/>
       <path id="TimesNewRomanPSMT-6c" d="M 1184 4444 
L 1184 647 
Q 1184 378 1223 290 
Q 1263 203 1344 158 
Q 1425 113 1647 113 
L 1647 0 
L 244 0 
L 244 113 
Q 441 113 512 153 
Q 584 194 625 287 
Q 666 381 666 647 
L 666 3247 
Q 666 3731 644 3842 
Q 622 3953 573 3993 
Q 525 4034 450 4034 
Q 369 4034 244 3984 
L 191 4094 
L 1044 4444 
L 1184 4444 
z
" transform="scale(0.015625)"/>
       <path id="TimesNewRomanPSMT-61" d="M 1822 413 
Q 1381 72 1269 19 
Q 1100 -59 909 -59 
Q 613 -59 420 144 
Q 228 347 228 678 
Q 228 888 322 1041 
Q 450 1253 767 1440 
Q 1084 1628 1822 1897 
L 1822 2009 
Q 1822 2438 1686 2597 
Q 1550 2756 1291 2756 
Q 1094 2756 978 2650 
Q 859 2544 859 2406 
L 866 2225 
Q 866 2081 792 2003 
Q 719 1925 600 1925 
Q 484 1925 411 2006 
Q 338 2088 338 2228 
Q 338 2497 613 2722 
Q 888 2947 1384 2947 
Q 1766 2947 2009 2819 
Q 2194 2722 2281 2516 
Q 2338 2381 2338 1966 
L 2338 994 
Q 2338 584 2353 492 
Q 2369 400 2405 369 
Q 2441 338 2488 338 
Q 2538 338 2575 359 
Q 2641 400 2828 588 
L 2828 413 
Q 2478 -56 2159 -56 
Q 2006 -56 1915 50 
Q 1825 156 1822 413 
z
M 1822 616 
L 1822 1706 
Q 1350 1519 1213 1441 
Q 966 1303 859 1153 
Q 753 1003 753 825 
Q 753 600 887 451 
Q 1022 303 1197 303 
Q 1434 303 1822 616 
z
" transform="scale(0.015625)"/>
       <path id="TimesNewRomanPSMT-63" d="M 2631 1088 
Q 2516 522 2178 217 
Q 1841 -88 1431 -88 
Q 944 -88 581 321 
Q 219 731 219 1428 
Q 219 2103 620 2525 
Q 1022 2947 1584 2947 
Q 2006 2947 2278 2723 
Q 2550 2500 2550 2259 
Q 2550 2141 2473 2067 
Q 2397 1994 2259 1994 
Q 2075 1994 1981 2113 
Q 1928 2178 1911 2362 
Q 1894 2547 1784 2644 
Q 1675 2738 1481 2738 
Q 1169 2738 978 2506 
Q 725 2200 725 1697 
Q 725 1184 976 792 
Q 1228 400 1656 400 
Q 1963 400 2206 609 
Q 2378 753 2541 1131 
L 2631 1088 
z
" transform="scale(0.015625)"/>
       <path id="TimesNewRomanPSMT-65" d="M 681 1784 
Q 678 1147 991 784 
Q 1303 422 1725 422 
Q 2006 422 2214 576 
Q 2422 731 2563 1106 
L 2659 1044 
Q 2594 616 2278 264 
Q 1963 -88 1488 -88 
Q 972 -88 605 314 
Q 238 716 238 1394 
Q 238 2128 614 2539 
Q 991 2950 1559 2950 
Q 2041 2950 2350 2633 
Q 2659 2316 2659 1784 
L 681 1784 
z
M 681 1966 
L 2006 1966 
Q 1991 2241 1941 2353 
Q 1863 2528 1708 2628 
Q 1553 2728 1384 2728 
Q 1125 2728 920 2526 
Q 716 2325 681 1966 
z
" transform="scale(0.015625)"/>
       <path id="TimesNewRomanPSMT-6d" d="M 1050 2338 
Q 1363 2650 1419 2697 
Q 1559 2816 1721 2881 
Q 1884 2947 2044 2947 
Q 2313 2947 2506 2790 
Q 2700 2634 2766 2338 
Q 3088 2713 3309 2830 
Q 3531 2947 3766 2947 
Q 3994 2947 4170 2830 
Q 4347 2713 4450 2447 
Q 4519 2266 4519 1878 
L 4519 647 
Q 4519 378 4559 278 
Q 4591 209 4675 161 
Q 4759 113 4950 113 
L 4950 0 
L 3538 0 
L 3538 113 
L 3597 113 
Q 3781 113 3884 184 
Q 3956 234 3988 344 
Q 4000 397 4000 647 
L 4000 1878 
Q 4000 2228 3916 2372 
Q 3794 2572 3525 2572 
Q 3359 2572 3192 2489 
Q 3025 2406 2788 2181 
L 2781 2147 
L 2788 2013 
L 2788 647 
Q 2788 353 2820 281 
Q 2853 209 2943 161 
Q 3034 113 3253 113 
L 3253 0 
L 1806 0 
L 1806 113 
Q 2044 113 2133 169 
Q 2222 225 2256 338 
Q 2272 391 2272 647 
L 2272 1878 
Q 2272 2228 2169 2381 
Q 2031 2581 1784 2581 
Q 1616 2581 1450 2491 
Q 1191 2353 1050 2181 
L 1050 647 
Q 1050 366 1089 281 
Q 1128 197 1204 155 
Q 1281 113 1516 113 
L 1516 0 
L 100 0 
L 100 113 
Q 297 113 375 155 
Q 453 197 493 289 
Q 534 381 534 647 
L 534 1741 
Q 534 2213 506 2350 
Q 484 2453 437 2492 
Q 391 2531 309 2531 
Q 222 2531 100 2484 
L 53 2597 
L 916 2947 
L 1050 2947 
L 1050 2338 
z
" transform="scale(0.015625)"/>
       <path id="TimesNewRomanPSMT-6e" d="M 1034 2341 
Q 1538 2947 1994 2947 
Q 2228 2947 2397 2830 
Q 2566 2713 2666 2444 
Q 2734 2256 2734 1869 
L 2734 647 
Q 2734 375 2778 278 
Q 2813 200 2889 156 
Q 2966 113 3172 113 
L 3172 0 
L 1756 0 
L 1756 113 
L 1816 113 
Q 2016 113 2095 173 
Q 2175 234 2206 353 
Q 2219 400 2219 647 
L 2219 1819 
Q 2219 2209 2117 2386 
Q 2016 2563 1775 2563 
Q 1403 2563 1034 2156 
L 1034 647 
Q 1034 356 1069 288 
Q 1113 197 1189 155 
Q 1266 113 1500 113 
L 1500 0 
L 84 0 
L 84 113 
L 147 113 
Q 366 113 442 223 
Q 519 334 519 647 
L 519 1709 
Q 519 2225 495 2337 
Q 472 2450 423 2490 
Q 375 2531 294 2531 
Q 206 2531 84 2484 
L 38 2597 
L 900 2947 
L 1034 2947 
L 1034 2341 
z
" transform="scale(0.015625)"/>
       <path id="TimesNewRomanPSMT-74" d="M 1031 3803 
L 1031 2863 
L 1700 2863 
L 1700 2644 
L 1031 2644 
L 1031 788 
Q 1031 509 1111 412 
Q 1191 316 1316 316 
Q 1419 316 1516 380 
Q 1613 444 1666 569 
L 1788 569 
Q 1678 263 1478 108 
Q 1278 -47 1066 -47 
Q 922 -47 784 33 
Q 647 113 581 261 
Q 516 409 516 719 
L 516 2644 
L 63 2644 
L 63 2747 
Q 234 2816 414 2980 
Q 594 3144 734 3369 
Q 806 3488 934 3803 
L 1031 3803 
z
" transform="scale(0.015625)"/>
       <path id="TimesNewRomanPSMT-20" transform="scale(0.015625)"/>
       <path id="TimesNewRomanPSMT-28" d="M 1988 -1253 
L 1988 -1369 
Q 1516 -1131 1200 -813 
Q 750 -359 506 256 
Q 263 872 263 1534 
Q 263 2503 741 3301 
Q 1219 4100 1988 4444 
L 1988 4313 
Q 1603 4100 1356 3731 
Q 1109 3363 987 2797 
Q 866 2231 866 1616 
Q 866 947 969 400 
Q 1050 -31 1165 -292 
Q 1281 -553 1476 -793 
Q 1672 -1034 1988 -1253 
z
" transform="scale(0.015625)"/>
       <path id="TimesNewRomanPSMT-29" d="M 144 4313 
L 144 4444 
Q 619 4209 934 3891 
Q 1381 3434 1625 2820 
Q 1869 2206 1869 1541 
Q 1869 572 1392 -226 
Q 916 -1025 144 -1369 
L 144 -1253 
Q 528 -1038 776 -670 
Q 1025 -303 1145 264 
Q 1266 831 1266 1447 
Q 1266 2113 1163 2663 
Q 1084 3094 967 3353 
Q 850 3613 656 3853 
Q 463 4094 144 4313 
z
" transform="scale(0.015625)"/>
      </defs>
      <use xlink:href="#TimesNewRomanPSMT-44"/>
      <use xlink:href="#TimesNewRomanPSMT-69" x="72.216797"/>
      <use xlink:href="#TimesNewRomanPSMT-73" x="100"/>
      <use xlink:href="#TimesNewRomanPSMT-70" x="138.916016"/>
      <use xlink:href="#TimesNewRomanPSMT-6c" x="188.916016"/>
      <use xlink:href="#TimesNewRomanPSMT-61" x="216.699219"/>
      <use xlink:href="#TimesNewRomanPSMT-63" x="261.083984"/>
      <use xlink:href="#TimesNewRomanPSMT-65" x="305.46875"/>
      <use xlink:href="#TimesNewRomanPSMT-6d" x="349.853516"/>
      <use xlink:href="#TimesNewRomanPSMT-65" x="427.636719"/>
      <use xlink:href="#TimesNewRomanPSMT-6e" x="472.021484"/>
      <use xlink:href="#TimesNewRomanPSMT-74" x="522.021484"/>
      <use xlink:href="#TimesNewRomanPSMT-20" x="549.804688"/>
      <use xlink:href="#TimesNewRomanPSMT-28" x="574.804688"/>
      <use xlink:href="#TimesNewRomanPSMT-6d" x="608.105469"/>
      <use xlink:href="#TimesNewRomanPSMT-6d" x="685.888672"/>
      <use xlink:href="#TimesNewRomanPSMT-29" x="763.671875"/>
     </g>
    </g>
   </g>
   <g id="matplotlib.axis_2">
    <g id="ytick_1">
     <g id="line2d_15">
      <path d="M 49.432813 250.812009 
L 272.612813 250.812009 
" clip-path="url(#pc7e85aa83a)" style="fill: none; stroke-dasharray: 0.8,1.32; stroke-dashoffset: 0; stroke: #b0b0b0; stroke-width: 0.8"/>
     </g>
     <g id="line2d_16">
      <defs>
       <path id="mfb1056ed7d" d="M 0 0 
L -3.5 0 
" style="stroke: #000000; stroke-width: 0.8"/>
      </defs>
      <g>
       <use xlink:href="#mfb1056ed7d" x="49.432813" y="250.812009" style="stroke: #000000; stroke-width: 0.8"/>
      </g>
     </g>
     <g id="text_9">
      <!-- −800 -->
      <g transform="translate(20.282813 254.305759) scale(0.1 -0.1)">
       <defs>
        <path id="Cambria-38" d="M 2475 2253 
L 2481 2213 
Q 2834 2075 3015 1811 
Q 3197 1547 3197 1175 
Q 3197 809 3022 531 
Q 2847 253 2514 101 
Q 2181 -50 1738 -50 
Q 1322 -50 1008 89 
Q 694 228 520 495 
Q 347 763 347 1125 
Q 347 1397 440 1597 
Q 534 1797 686 1926 
Q 838 2056 1069 2163 
L 1063 2203 
Q 391 2494 391 3200 
Q 391 3522 567 3775 
Q 744 4028 1070 4172 
Q 1397 4316 1794 4316 
Q 2244 4316 2550 4189 
Q 2856 4063 3011 3823 
Q 3166 3584 3166 3250 
Q 3166 2906 2997 2657 
Q 2828 2409 2475 2253 
z
M 978 3228 
Q 978 3044 1022 2881 
Q 1066 2719 1162 2600 
Q 1259 2481 1414 2411 
Q 1569 2341 1794 2341 
Q 2053 2341 2229 2442 
Q 2406 2544 2492 2739 
Q 2578 2934 2578 3191 
Q 2578 3472 2476 3667 
Q 2375 3863 2197 3956 
Q 2019 4050 1788 4050 
Q 1394 4050 1186 3836 
Q 978 3622 978 3228 
z
M 944 1178 
Q 944 975 991 798 
Q 1038 622 1139 494 
Q 1241 366 1400 291 
Q 1559 216 1788 216 
Q 2044 216 2226 320 
Q 2409 425 2504 631 
Q 2600 838 2600 1119 
Q 2600 1419 2497 1636 
Q 2394 1853 2206 1967 
Q 2019 2081 1772 2081 
Q 1541 2081 1383 2009 
Q 1225 1938 1126 1816 
Q 1028 1694 986 1530 
Q 944 1366 944 1178 
z
" transform="scale(0.015625)"/>
       </defs>
       <use xlink:href="#Cambria-2212"/>
       <use xlink:href="#Cambria-38" x="55.371094"/>
       <use xlink:href="#Cambria-30" x="110.742188"/>
       <use xlink:href="#Cambria-30" x="166.113281"/>
      </g>
     </g>
    </g>
    <g id="ytick_2">
     <g id="line2d_17">
      <path d="M 49.432813 222.724581 
L 272.612813 222.724581 
" clip-path="url(#pc7e85aa83a)" style="fill: none; stroke-dasharray: 0.8,1.32; stroke-dashoffset: 0; stroke: #b0b0b0; stroke-width: 0.8"/>
     </g>
     <g id="line2d_18">
      <g>
       <use xlink:href="#mfb1056ed7d" x="49.432813" y="222.724581" style="stroke: #000000; stroke-width: 0.8"/>
      </g>
     </g>
     <g id="text_10">
      <!-- −600 -->
      <g transform="translate(20.282813 226.218331) scale(0.1 -0.1)">
       <defs>
        <path id="Cambria-36" d="M 2847 4144 
L 2847 3991 
Q 2366 3991 1994 3784 
Q 1622 3578 1376 3178 
Q 1131 2778 1031 2228 
L 1063 2216 
Q 1325 2403 1579 2490 
Q 1834 2578 2131 2578 
Q 2484 2578 2732 2423 
Q 2981 2269 3106 1989 
Q 3231 1709 3231 1334 
Q 3231 928 3075 617 
Q 2919 306 2592 128 
Q 2266 -50 1788 -50 
Q 1103 -50 754 375 
Q 406 800 406 1628 
Q 406 2184 581 2668 
Q 756 3153 1078 3514 
Q 1400 3875 1825 4083 
Q 2250 4291 2719 4316 
L 2847 4144 
z
M 1916 2250 
Q 1763 2250 1620 2215 
Q 1478 2181 1353 2115 
Q 1228 2050 1109 1950 
Q 1072 1916 1053 1878 
Q 1022 1819 1012 1731 
Q 1003 1644 1003 1438 
Q 1003 841 1203 528 
Q 1403 216 1809 216 
Q 2044 216 2203 297 
Q 2363 378 2461 520 
Q 2559 663 2601 855 
Q 2644 1047 2644 1272 
Q 2644 1734 2453 1992 
Q 2263 2250 1916 2250 
z
" transform="scale(0.015625)"/>
       </defs>
       <use xlink:href="#Cambria-2212"/>
       <use xlink:href="#Cambria-36" x="55.371094"/>
       <use xlink:href="#Cambria-30" x="110.742188"/>
       <use xlink:href="#Cambria-30" x="166.113281"/>
      </g>
     </g>
    </g>
    <g id="ytick_3">
     <g id="line2d_19">
      <path d="M 49.432813 194.637153 
L 272.612813 194.637153 
" clip-path="url(#pc7e85aa83a)" style="fill: none; stroke-dasharray: 0.8,1.32; stroke-dashoffset: 0; stroke: #b0b0b0; stroke-width: 0.8"/>
     </g>
     <g id="line2d_20">
      <g>
       <use xlink:href="#mfb1056ed7d" x="49.432813" y="194.637153" style="stroke: #000000; stroke-width: 0.8"/>
      </g>
     </g>
     <g id="text_11">
      <!-- −400 -->
      <g transform="translate(20.282813 198.130903) scale(0.1 -0.1)">
       <defs>
        <path id="Cambria-34" d="M 1613 153 
Q 1806 203 1872 264 
Q 1938 325 1958 437 
Q 1978 550 1978 781 
L 1978 1294 
L 241 1294 
L 241 1528 
L 2069 4288 
L 2516 4288 
L 2516 1597 
L 2581 1597 
Q 2763 1597 2841 1623 
Q 2919 1650 2970 1717 
Q 3022 1784 3066 1938 
L 3303 1938 
L 3266 1294 
L 2516 1294 
L 2516 781 
Q 2516 572 2530 475 
Q 2544 378 2576 322 
Q 2609 266 2673 228 
Q 2738 191 2881 153 
L 2881 0 
L 1613 0 
L 1613 153 
z
M 756 1597 
L 1978 1597 
L 1978 2375 
Q 1978 2669 1987 3033 
Q 1997 3397 2009 3581 
L 1978 3581 
L 756 1641 
L 756 1597 
z
" transform="scale(0.015625)"/>
       </defs>
       <use xlink:href="#Cambria-2212"/>
       <use xlink:href="#Cambria-34" x="55.371094"/>
       <use xlink:href="#Cambria-30" x="110.742188"/>
       <use xlink:href="#Cambria-30" x="166.113281"/>
      </g>
     </g>
    </g>
    <g id="ytick_4">
     <g id="line2d_21">
      <path d="M 49.432813 166.549725 
L 272.612813 166.549725 
" clip-path="url(#pc7e85aa83a)" style="fill: none; stroke-dasharray: 0.8,1.32; stroke-dashoffset: 0; stroke: #b0b0b0; stroke-width: 0.8"/>
     </g>
     <g id="line2d_22">
      <g>
       <use xlink:href="#mfb1056ed7d" x="49.432813" y="166.549725" style="stroke: #000000; stroke-width: 0.8"/>
      </g>
     </g>
     <g id="text_12">
      <!-- −200 -->
      <g transform="translate(20.282813 170.043475) scale(0.1 -0.1)">
       <use xlink:href="#Cambria-2212"/>
       <use xlink:href="#Cambria-32" x="55.371094"/>
       <use xlink:href="#Cambria-30" x="110.742188"/>
       <use xlink:href="#Cambria-30" x="166.113281"/>
      </g>
     </g>
    </g>
    <g id="ytick_5">
     <g id="line2d_23">
      <path d="M 49.432813 138.462297 
L 272.612813 138.462297 
" clip-path="url(#pc7e85aa83a)" style="fill: none; stroke-dasharray: 0.8,1.32; stroke-dashoffset: 0; stroke: #b0b0b0; stroke-width: 0.8"/>
     </g>
     <g id="line2d_24">
      <g>
       <use xlink:href="#mfb1056ed7d" x="49.432813" y="138.462297" style="stroke: #000000; stroke-width: 0.8"/>
      </g>
     </g>
     <g id="text_13">
      <!-- 0 -->
      <g transform="translate(36.895313 141.956047) scale(0.1 -0.1)">
       <use xlink:href="#Cambria-30"/>
      </g>
     </g>
    </g>
    <g id="ytick_6">
     <g id="line2d_25">
      <path d="M 49.432813 110.374869 
L 272.612813 110.374869 
" clip-path="url(#pc7e85aa83a)" style="fill: none; stroke-dasharray: 0.8,1.32; stroke-dashoffset: 0; stroke: #b0b0b0; stroke-width: 0.8"/>
     </g>
     <g id="line2d_26">
      <g>
       <use xlink:href="#mfb1056ed7d" x="49.432813" y="110.374869" style="stroke: #000000; stroke-width: 0.8"/>
      </g>
     </g>
     <g id="text_14">
      <!-- 200 -->
      <g transform="translate(25.820313 113.868619) scale(0.1 -0.1)">
       <use xlink:href="#Cambria-32"/>
       <use xlink:href="#Cambria-30" x="55.371094"/>
       <use xlink:href="#Cambria-30" x="110.742188"/>
      </g>
     </g>
    </g>
    <g id="ytick_7">
     <g id="line2d_27">
      <path d="M 49.432813 82.287441 
L 272.612813 82.287441 
" clip-path="url(#pc7e85aa83a)" style="fill: none; stroke-dasharray: 0.8,1.32; stroke-dashoffset: 0; stroke: #b0b0b0; stroke-width: 0.8"/>
     </g>
     <g id="line2d_28">
      <g>
       <use xlink:href="#mfb1056ed7d" x="49.432813" y="82.287441" style="stroke: #000000; stroke-width: 0.8"/>
      </g>
     </g>
     <g id="text_15">
      <!-- 400 -->
      <g transform="translate(25.820313 85.781191) scale(0.1 -0.1)">
       <use xlink:href="#Cambria-34"/>
       <use xlink:href="#Cambria-30" x="55.371094"/>
       <use xlink:href="#Cambria-30" x="110.742188"/>
      </g>
     </g>
    </g>
    <g id="ytick_8">
     <g id="line2d_29">
      <path d="M 49.432813 54.200013 
L 272.612813 54.200013 
" clip-path="url(#pc7e85aa83a)" style="fill: none; stroke-dasharray: 0.8,1.32; stroke-dashoffset: 0; stroke: #b0b0b0; stroke-width: 0.8"/>
     </g>
     <g id="line2d_30">
      <g>
       <use xlink:href="#mfb1056ed7d" x="49.432813" y="54.200013" style="stroke: #000000; stroke-width: 0.8"/>
      </g>
     </g>
     <g id="text_16">
      <!-- 600 -->
      <g transform="translate(25.820313 57.693763) scale(0.1 -0.1)">
       <use xlink:href="#Cambria-36"/>
       <use xlink:href="#Cambria-30" x="55.371094"/>
       <use xlink:href="#Cambria-30" x="110.742188"/>
      </g>
     </g>
    </g>
    <g id="ytick_9">
     <g id="line2d_31">
      <path d="M 49.432813 26.112585 
L 272.612813 26.112585 
" clip-path="url(#pc7e85aa83a)" style="fill: none; stroke-dasharray: 0.8,1.32; stroke-dashoffset: 0; stroke: #b0b0b0; stroke-width: 0.8"/>
     </g>
     <g id="line2d_32">
      <g>
       <use xlink:href="#mfb1056ed7d" x="49.432813" y="26.112585" style="stroke: #000000; stroke-width: 0.8"/>
      </g>
     </g>
     <g id="text_17">
      <!-- 800 -->
      <g transform="translate(25.820313 29.606335) scale(0.1 -0.1)">
       <use xlink:href="#Cambria-38"/>
       <use xlink:href="#Cambria-30" x="55.371094"/>
       <use xlink:href="#Cambria-30" x="110.742188"/>
      </g>
     </g>
    </g>
    <g id="text_18">
     <!-- Base Shear (kN) -->
     <g transform="translate(14.14375 172.013437) rotate(-90) scale(0.1 -0.1)">
      <defs>
       <path id="TimesNewRomanPSMT-42" d="M 2956 2163 
Q 3397 2069 3616 1863 
Q 3919 1575 3919 1159 
Q 3919 844 3719 555 
Q 3519 266 3170 133 
Q 2822 0 2106 0 
L 106 0 
L 106 116 
L 266 116 
Q 531 116 647 284 
Q 719 394 719 750 
L 719 3488 
Q 719 3881 628 3984 
Q 506 4122 266 4122 
L 106 4122 
L 106 4238 
L 1938 4238 
Q 2450 4238 2759 4163 
Q 3228 4050 3475 3764 
Q 3722 3478 3722 3106 
Q 3722 2788 3528 2536 
Q 3334 2284 2956 2163 
z
M 1319 2331 
Q 1434 2309 1582 2298 
Q 1731 2288 1909 2288 
Q 2366 2288 2595 2386 
Q 2825 2484 2947 2687 
Q 3069 2891 3069 3131 
Q 3069 3503 2766 3765 
Q 2463 4028 1881 4028 
Q 1569 4028 1319 3959 
L 1319 2331 
z
M 1319 306 
Q 1681 222 2034 222 
Q 2600 222 2897 476 
Q 3194 731 3194 1106 
Q 3194 1353 3059 1581 
Q 2925 1809 2622 1940 
Q 2319 2072 1872 2072 
Q 1678 2072 1540 2065 
Q 1403 2059 1319 2044 
L 1319 306 
z
" transform="scale(0.015625)"/>
       <path id="TimesNewRomanPSMT-53" d="M 2934 4334 
L 2934 2869 
L 2819 2869 
Q 2763 3291 2617 3541 
Q 2472 3791 2203 3937 
Q 1934 4084 1647 4084 
Q 1322 4084 1109 3886 
Q 897 3688 897 3434 
Q 897 3241 1031 3081 
Q 1225 2847 1953 2456 
Q 2547 2138 2764 1967 
Q 2981 1797 3098 1565 
Q 3216 1334 3216 1081 
Q 3216 600 2842 251 
Q 2469 -97 1881 -97 
Q 1697 -97 1534 -69 
Q 1438 -53 1133 45 
Q 828 144 747 144 
Q 669 144 623 97 
Q 578 50 556 -97 
L 441 -97 
L 441 1356 
L 556 1356 
Q 638 900 775 673 
Q 913 447 1195 297 
Q 1478 147 1816 147 
Q 2206 147 2432 353 
Q 2659 559 2659 841 
Q 2659 997 2573 1156 
Q 2488 1316 2306 1453 
Q 2184 1547 1640 1851 
Q 1097 2156 867 2337 
Q 638 2519 519 2737 
Q 400 2956 400 3219 
Q 400 3675 750 4004 
Q 1100 4334 1641 4334 
Q 1978 4334 2356 4169 
Q 2531 4091 2603 4091 
Q 2684 4091 2736 4139 
Q 2788 4188 2819 4334 
L 2934 4334 
z
" transform="scale(0.015625)"/>
       <path id="TimesNewRomanPSMT-68" d="M 1041 4444 
L 1041 2350 
Q 1388 2731 1591 2839 
Q 1794 2947 1997 2947 
Q 2241 2947 2416 2812 
Q 2591 2678 2675 2391 
Q 2734 2191 2734 1659 
L 2734 647 
Q 2734 375 2778 275 
Q 2809 200 2884 156 
Q 2959 113 3159 113 
L 3159 0 
L 1753 0 
L 1753 113 
L 1819 113 
Q 2019 113 2097 173 
Q 2175 234 2206 353 
Q 2216 403 2216 647 
L 2216 1659 
Q 2216 2128 2167 2275 
Q 2119 2422 2012 2495 
Q 1906 2569 1756 2569 
Q 1603 2569 1437 2487 
Q 1272 2406 1041 2159 
L 1041 647 
Q 1041 353 1073 281 
Q 1106 209 1195 161 
Q 1284 113 1503 113 
L 1503 0 
L 84 0 
L 84 113 
Q 275 113 384 172 
Q 447 203 484 290 
Q 522 378 522 647 
L 522 3238 
Q 522 3728 498 3840 
Q 475 3953 426 3993 
Q 378 4034 297 4034 
Q 231 4034 84 3984 
L 41 4094 
L 897 4444 
L 1041 4444 
z
" transform="scale(0.015625)"/>
       <path id="TimesNewRomanPSMT-72" d="M 1038 2947 
L 1038 2303 
Q 1397 2947 1775 2947 
Q 1947 2947 2059 2842 
Q 2172 2738 2172 2600 
Q 2172 2478 2090 2393 
Q 2009 2309 1897 2309 
Q 1788 2309 1652 2417 
Q 1516 2525 1450 2525 
Q 1394 2525 1328 2463 
Q 1188 2334 1038 2041 
L 1038 669 
Q 1038 431 1097 309 
Q 1138 225 1241 169 
Q 1344 113 1538 113 
L 1538 0 
L 72 0 
L 72 113 
Q 291 113 397 181 
Q 475 231 506 341 
Q 522 394 522 644 
L 522 1753 
Q 522 2253 501 2348 
Q 481 2444 426 2487 
Q 372 2531 291 2531 
Q 194 2531 72 2484 
L 41 2597 
L 906 2947 
L 1038 2947 
z
" transform="scale(0.015625)"/>
       <path id="TimesNewRomanPSMT-6b" d="M 1047 4444 
L 1047 1597 
L 1775 2259 
Q 2006 2472 2044 2528 
Q 2069 2566 2069 2603 
Q 2069 2666 2017 2711 
Q 1966 2756 1847 2763 
L 1847 2863 
L 3091 2863 
L 3091 2763 
Q 2834 2756 2664 2684 
Q 2494 2613 2291 2428 
L 1556 1750 
L 2291 822 
Q 2597 438 2703 334 
Q 2853 188 2966 144 
Q 3044 113 3238 113 
L 3238 0 
L 1847 0 
L 1847 113 
Q 1966 116 2008 148 
Q 2050 181 2050 241 
Q 2050 313 1925 472 
L 1047 1594 
L 1047 644 
Q 1047 366 1086 278 
Q 1125 191 1197 153 
Q 1269 116 1509 113 
L 1509 0 
L 53 0 
L 53 113 
Q 272 113 381 166 
Q 447 200 481 272 
Q 528 375 528 628 
L 528 3234 
Q 528 3731 506 3842 
Q 484 3953 434 3995 
Q 384 4038 303 4038 
Q 238 4038 106 3984 
L 53 4094 
L 903 4444 
L 1047 4444 
z
" transform="scale(0.015625)"/>
       <path id="TimesNewRomanPSMT-4e" d="M -84 4238 
L 1066 4238 
L 3656 1059 
L 3656 3503 
Q 3656 3894 3569 3991 
Q 3453 4122 3203 4122 
L 3056 4122 
L 3056 4238 
L 4531 4238 
L 4531 4122 
L 4381 4122 
Q 4113 4122 4000 3959 
Q 3931 3859 3931 3503 
L 3931 -69 
L 3819 -69 
L 1025 3344 
L 1025 734 
Q 1025 344 1109 247 
Q 1228 116 1475 116 
L 1625 116 
L 1625 0 
L 150 0 
L 150 116 
L 297 116 
Q 569 116 681 278 
Q 750 378 750 734 
L 750 3681 
Q 566 3897 470 3965 
Q 375 4034 191 4094 
Q 100 4122 -84 4122 
L -84 4238 
z
" transform="scale(0.015625)"/>
      </defs>
      <use xlink:href="#TimesNewRomanPSMT-42"/>
      <use xlink:href="#TimesNewRomanPSMT-61" x="66.699219"/>
      <use xlink:href="#TimesNewRomanPSMT-73" x="111.083984"/>
      <use xlink:href="#TimesNewRomanPSMT-65" x="150"/>
      <use xlink:href="#TimesNewRomanPSMT-20" x="194.384766"/>
      <use xlink:href="#TimesNewRomanPSMT-53" x="219.384766"/>
      <use xlink:href="#TimesNewRomanPSMT-68" x="275"/>
      <use xlink:href="#TimesNewRomanPSMT-65" x="325"/>
      <use xlink:href="#TimesNewRomanPSMT-61" x="369.384766"/>
      <use xlink:href="#TimesNewRomanPSMT-72" x="413.769531"/>
      <use xlink:href="#TimesNewRomanPSMT-20" x="447.070312"/>
      <use xlink:href="#TimesNewRomanPSMT-28" x="472.070312"/>
      <use xlink:href="#TimesNewRomanPSMT-6b" x="505.371094"/>
      <use xlink:href="#TimesNewRomanPSMT-4e" x="555.371094"/>
      <use xlink:href="#TimesNewRomanPSMT-29" x="627.587891"/>
     </g>
    </g>
   </g>
   <g id="line2d_33">
    <path d="M 161.80469 135.246109 
L 162.070417 129.681479 
L 164.156501 119.599704 
L 166.502694 108.822932 
L 168.592792 95.262847 
L 170.675263 88.31155 
L 172.239525 81.011092 
L 174.84141 73.365462 
L 176.924684 65.718503 
L 175.620531 72.323965 
L 174.835389 78.582926 
L 173.267113 89.361693 
L 169.365088 100.134475 
L 167.794805 112.652397 
L 165.970837 120.300021 
L 163.099611 136.640757 
L 161.538962 140.810738 
L 159.715796 147.7627 
L 159.18434 158.891959 
L 157.09665 170.365058 
L 155.533994 176.274193 
L 152.932912 183.22416 
L 151.627554 190.873114 
L 148.506255 199.213075 
L 146.164478 206.163707 
L 145.124447 208.595863 
L 147.475456 193.64512 
L 151.897697 181.482345 
L 152.942545 174.876218 
L 154.505603 168.619253 
L 155.549649 162.708788 
L 156.851795 157.84248 
L 156.861429 149.494539 
L 161.28648 134.896947 
L 163.372163 125.163003 
L 165.976055 115.778219 
L 168.578341 107.78476 
L 170.925336 96.312326 
L 173.26912 87.622539 
L 175.097504 76.148775 
L 177.443697 65.372003 
L 179.784269 59.464863 
L 182.645861 51.472068 
L 184.73034 42.781616 
L 184.980814 50.434561 
L 181.334081 64.686317 
L 177.692967 74.06844 
L 175.866991 83.455219 
L 173.784118 90.754347 
L 171.960952 97.706309 
L 169.100565 104.655612 
L 167.794404 113.000228 
L 165.187702 124.819828 
L 163.361325 134.554437 
L 161.280058 140.462242 
L 159.193974 150.544017 
L 158.67175 153.673165 
L 153.732102 164.791118 
L 153.716448 178.356522 
L 151.890873 187.39547 
L 149.289791 194.345438 
L 145.904772 206.510873 
L 144.080803 214.158497 
L 142.258841 220.066967 
L 139.920275 224.234952 
L 136.542882 229.791601 
L 137.065106 226.662453 
L 137.85105 219.70783 
L 140.194433 211.365874 
L 143.577044 201.287424 
L 146.43984 192.251136 
L 148.784828 182.517857 
L 151.12821 174.175901 
L 152.173059 167.569774 
L 154.777352 157.83716 
L 156.60092 150.537367 
L 158.426895 141.150588 
L 163.369353 127.597819 
L 167.008861 119.60702 
L 172.7477 90.056025 
L 175.611298 80.324076 
L 179.777847 65.030157 
L 186.542668 45.221088 
L 190.69597 41.405589 
L 194.068145 40.370742 
L 191.726769 46.973544 
L 191.20013 53.928832 
L 189.10642 70.619394 
L 186.761833 80.004843 
L 185.195965 88.696625 
L 181.033832 100.164403 
L 179.210265 107.464196 
L 175.044118 122.410284 
L 172.95964 131.100736 
L 169.31692 141.874183 
L 165.676208 150.908475 
L 157.10227 165.495425 
L 154.501991 171.749731 
L 152.420723 177.657535 
L 144.098866 198.506107 
L 142.017197 204.761742 
L 138.117179 213.79537 
L 138.10594 223.534635 
L 135.247158 229.092613 
L 130.834551 232.907447 
L 128.242299 232.205135 
L 128.771346 223.162861 
L 131.898265 209.953268 
L 135.026789 195.352351 
L 137.374988 182.836425 
L 141.277414 171.715812 
L 145.956954 161.292857 
L 149.080259 151.213741 
L 151.687363 139.046311 
L 157.923939 127.583853 
L 161.30374 119.940219 
L 167.282216 107.433603 
L 172.223469 94.924327 
L 176.898192 88.675342 
L 179.502485 78.942728 
L 182.887103 67.125123 
L 185.22888 60.174491 
L 188.60828 52.878688 
L 193.022493 47.672531 
L 198.47433 42.121203 
L 201.846504 41.086356 
L 205.995391 41.096997 
L 204.425911 52.919257 
L 201.301 64.389696 
L 198.695101 75.513634 
L 194.527348 91.851045 
L 189.059054 111.66344 
L 181.782446 125.558054 
L 180.734387 134.946828 
L 177.356191 141.199138 
L 173.716282 149.537768 
L 169.821081 154.397425 
L 166.963904 158.56408 
L 164.365632 163.079231 
L 161.508857 166.898055 
L 155.01739 174.533708 
L 150.080552 183.216844 
L 140.724684 201.280108 
L 138.120792 210.664892 
L 136.296823 218.312516 
L 130.059846 230.122805 
L 123.314292 233.235991 
L 119.162194 236.007997 
L 111.900438 237.032868 
L 112.683572 232.513061 
L 113.475538 220.340975 
L 117.640481 206.43838 
L 121.029916 190.446805 
L 127.006785 179.331513 
L 130.653518 165.079757 
L 138.712057 147.70883 
L 145.213157 131.725235 
L 151.443712 125.480241 
L 159.23291 116.80442 
L 167.28623 103.955294 
L 178.456433 86.592347 
L 184.693009 75.12989 
L 186.516577 67.830096 
L 195.090514 53.243146 
L 200.022134 49.081811 
L 205.474372 43.182653 
L 210.66329 40.761138 
L 209.617639 48.062926 
L 207.014148 57.099879 
L 205.448281 65.791661 
L 202.061656 79.34842 
L 199.97517 89.778026 
L 192.951044 109.58643 
L 188.788108 121.749871 
L 186.964139 129.397495 
L 183.586746 134.954143 
L 177.875605 140.504806 
L 174.497409 146.757116 
L 169.301266 155.439587 
L 163.330417 161.337416 
L 159.432808 168.284058 
L 156.053408 175.579861 
L 152.675613 181.48434 
L 144.104485 193.636474 
L 139.428157 201.276783 
L 133.455302 208.913766 
L 130.598125 213.080421 
L 126.181503 220.373564 
L 121.244264 229.404531 
L 117.609171 233.56919 
L 112.16175 235.294378 
L 113.46751 227.297593 
L 116.854938 213.045172 
L 118.680512 204.006225 
L 123.886691 186.627981 
L 129.615093 166.12059 
L 136.374294 151.181153 
L 142.093062 139.021703 
L 146.251181 131.032234 
L 162.350194 111.942769 
L 165.208575 106.732621 
L 172.479563 97.70764 
L 180.530475 86.945499 
L 184.686988 80.347353 
L 190.402947 70.622719 
L 194.302964 61.589092 
L 198.718783 54.991611 
L 203.132595 50.133285 
L 207.804508 46.319116 
L 213.254739 42.159112 
L 219.221573 39.739592 
L 224.14958 38.708736 
L 227.260844 39.064548 
L 224.133926 52.274141 
L 212.415408 95.375244 
L 206.693428 110.317341 
L 199.672112 127.690929 
L 195.772496 136.376725 
L 191.359085 140.887221 
L 184.090907 147.477386 
L 175.790725 149.543089 
L 170.855091 157.182732 
L 167.219998 161.347392 
L 159.953024 166.894065 
L 153.202252 174.529052 
L 148.523114 184.604177 
L 145.662726 191.553479 
L 142.803944 197.111458 
L 137.611012 203.011282 
L 130.33882 213.079756 
L 122.028201 224.189062 
L 119.172229 227.312225 
L 115.019328 230.779893 
L 111.646752 232.16257 
L 106.200134 233.192096 
L 102.826354 235.618267 
L 98.676263 236.651118 
L 97.119628 237.34279 
L 96.082406 237.34013 
L 95.832734 228.991523 
L 100.261398 211.263453 
L 106.244288 194.930698 
L 112.751008 174.077471 
L 117.955581 158.090551 
L 125.235801 141.065459 
L 134.058207 135.870608 
L 140.286354 131.712599 
L 146.512494 129.293744 
L 154.300086 122.009247 
L 159.497032 112.631115 
L 165.72839 105.690458 
L 171.181832 98.747807 
L 176.375166 92.500152 
L 180.530876 86.597668 
L 186.502126 80.352008 
L 193.513408 71.674193 
L 197.928424 65.772374 
L 207.017761 53.969401 
L 218.435629 46.694215 
L 222.587325 44.27004 
L 229.852293 40.462522 
L 232.706659 38.730683 
L 239.189696 38.399479 
L 245.415435 36.328455 
L 252.936898 34.956419 
L 259.419533 34.973045 
L 258.6368 39.145021 
L 254.733571 50.961295 
L 250.827131 65.560217 
L 248.216816 80.510295 
L 244.314792 91.283077 
L 240.672474 101.708692 
L 231.829597 124.642919 
L 225.336124 134.017727 
L 219.109582 136.784412 
L 206.658507 140.578629 
L 196.024174 142.986177 
L 189.279022 145.751533 
L 183.309779 150.258038 
L 174.482156 159.97469 
L 162.282759 170.378359 
L 158.387959 174.890185 
L 155.530783 179.05684 
L 141.769532 194.673981 
L 138.650241 201.274788 
L 131.122757 207.864288 
L 125.672526 212.024292 
L 118.924966 216.876633 
L 110.359056 224.506965 
L 101.795153 230.398143 
L 90.901114 233.152857 
L 85.972304 234.879376 
L 74.820164 236.589932 
L 68.85333 239.009452 
L 63.66682 239.343981 
L 63.933752 232.735859 
L 73.568995 197.281716 
L 86.054993 163.226211 
L 94.370027 148.290765 
L 103.718268 136.836288 
L 117.727183 131.306907 
L 130.699278 125.427035 
L 141.596528 119.889674 
L 153.796327 109.138174 
L 162.361032 102.551334 
L 171.18705 94.226005 
L 183.64495 84.518663 
L 195.588654 70.983852 
L 213.493974 59.551322 
L 220.502446 53.308323 
L 230.362073 48.116132 
L 236.330111 44.653119 
L 244.631096 41.891754 
L 253.450692 39.13172 
L 257.854067 43.316997 
L 252.907194 60.695905 
L 248.482946 74.597835 
L 242.494436 95.800223 
L 237.812487 108.310164 
L 228.455817 127.06909 
L 225.85353 135.06255 
L 218.585352 141.652715 
L 202.504803 144.741958 
L 193.684806 147.849824 
L 180.190488 156.858844 
L 173.444131 160.667692 
L 166.697373 164.824371 
L 160.466417 171.417196 
L 156.831324 175.581856 
L 139.440199 190.841856 
L 132.170415 198.823345 
L 124.384027 205.064349 
L 110.630403 214.072703 
L 104.92167 217.536381 
L 92.731505 219.939939 
L 88.581013 221.320621 
L 84.961976 211.572045 
L 85.228507 205.311754 
L 83.935593 202.177951 
L 78.49339 199.381337 
L 74.350123 194.501064 
L 68.914343 186.139156 
L 65.289285 181.608043 
L 62.962761 175.341101 
L 66.60227 167.350302 
L 74.395481 155.196172 
L 80.89056 144.430041 
L 91.273615 135.06521 
L 103.9852 130.228166 
L 117.473899 126.088778 
L 128.887753 122.291902 
L 137.449247 118.487709 
L 147.569785 111.90486 
L 156.650693 107.406335 
L 164.17617 102.55599 
L 168.848083 98.741821 
L 175.853745 94.933638 
L 180.266754 90.770974 
L 186.233187 88.699285 
L 191.939913 86.974762 
L 197.904339 86.642228 
L 202.570231 88.045522 
L 205.418978 91.183316 
L 210.595453 99.544559 
L 215.775541 104.775324 
L 220.179719 108.264939 
L 225.881628 110.714387 
L 234.437102 112.127658 
L 237.804459 115.266782 
L 238.834456 121.530398 
L 237.274609 125.004717 
L 233.380211 129.168711 
L 228.449796 132.286553 
L 223.518577 136.100057 
L 218.586155 140.957053 
L 207.950217 144.755925 
L 198.089386 150.991608 
L 190.824017 155.146957 
L 184.855175 159.305631 
L 179.141625 166.94328 
L 173.429681 173.189604 
L 167.457628 180.130926 
L 160.710067 184.983266 
L 155.25783 190.882425 
L 153.441488 191.921262 
L 153.441488 191.921262 
" clip-path="url(#pc7e85aa83a)" style="fill: none; stroke-dasharray: 4.07,1.76; stroke-dashoffset: 0; stroke: #433f40; stroke-width: 1.1"/>
   </g>
   <g id="line2d_34">
    <path d="M 161.023161 138.462297 
L 162.281413 115.396863 
L 163.534692 101.187598 
L 164.778042 91.185003 
L 167.215355 74.326554 
L 168.399683 66.894636 
L 169.55485 61.110189 
L 170.676291 56.510939 
L 171.759572 52.697982 
L 172.80041 50.020733 
L 173.794692 48.610289 
L 175.628061 46.656781 
L 177.230719 45.311971 
L 179.147836 44.002248 
L 181.045359 42.992324 
L 180.685201 46.129118 
L 179.627347 53.315262 
L 178.552055 58.725965 
L 170.630296 96.656911 
L 168.350886 110.751302 
L 164.726498 137.871517 
L 163.482636 145.867028 
L 162.229051 153.068541 
L 160.970699 158.573711 
L 159.712555 163.254785 
L 157.216762 176.231122 
L 155.98898 183.278628 
L 154.781098 189.304467 
L 153.597893 194.388113 
L 151.324101 202.426472 
L 149.203525 208.596651 
L 147.269662 213.409676 
L 145.553062 217.082701 
L 143.443801 220.954325 
L 141.611588 223.765712 
L 141.0011 224.603452 
L 141.65076 218.612968 
L 142.943319 208.217064 
L 144.877431 194.754925 
L 148.332611 172.72971 
L 150.37546 160.604735 
L 151.462086 155.026999 
L 153.744283 144.777489 
L 157.371393 129.569729 
L 159.869641 117.457349 
L 162.386112 104.064452 
L 163.638751 98.080089 
L 166.108101 88.142503 
L 168.497124 79.658874 
L 170.768082 72.604294 
L 172.885101 66.96738 
L 174.814738 62.533598 
L 176.526511 59.062496 
L 178.627572 55.372104 
L 181.044946 51.631117 
L 180.382238 57.392357 
L 178.501108 71.812716 
L 175.519952 91.860239 
L 171.626397 117.865441 
L 169.412206 129.02486 
L 167.065495 139.15331 
L 164.623334 148.007091 
L 162.124302 155.943466 
L 155.887496 174.515187 
L 148.130816 198.721912 
L 145.486665 205.850164 
L 143.393819 210.85152 
L 141.322577 215.221816 
L 141.001788 215.839622 
L 142.040111 207.177923 
L 143.570867 195.789732 
L 145.720908 181.394437 
L 147.461468 170.661207 
L 148.413941 165.437331 
L 150.464463 156.183364 
L 151.554405 151.689619 
L 157.474606 131.062667 
L 159.974406 121.431278 
L 163.68443 106.169585 
L 165.954663 97.674699 
L 168.205402 89.973417 
L 170.427748 82.86783 
L 172.612917 76.404717 
L 174.75227 70.673026 
L 176.83735 65.655858 
L 178.859914 61.306005 
L 180.811968 57.63289 
L 182.685793 54.528038 
L 184.473984 51.912375 
L 186.169471 49.75208 
L 187.765551 48.01739 
L 190.634671 45.401367 
L 193.036022 43.593081 
L 195.680171 41.872848 
L 197.327587 40.923528 
L 196.603186 46.664296 
L 194.616248 60.694134 
L 192.623252 73.228508 
L 188.709801 96.101819 
L 185.544961 113.1048 
L 183.813904 120.622211 
L 181.992753 127.891231 
L 180.088707 134.106812 
L 178.109292 140.004239 
L 173.955922 149.25318 
L 171.798387 153.576898 
L 167.364226 161.928361 
L 165.10513 165.90626 
L 162.829897 169.528478 
L 158.267026 176.126265 
L 155.997426 179.733728 
L 153.747694 183.846363 
L 151.526722 188.404899 
L 149.343291 193.283858 
L 147.206032 198.346987 
L 145.123394 202.962953 
L 141.154663 210.893881 
L 139.28426 214.268881 
L 137.499793 217.209118 
L 135.808317 219.741446 
L 134.216519 221.895125 
L 131.356706 225.223349 
L 128.96553 227.587341 
L 126.337917 229.808313 
L 124.719981 231.011298 
L 125.462198 225.182484 
L 127.466277 211.036091 
L 129.470022 198.445483 
L 131.972209 184.084493 
L 133.398156 177.324297 
L 134.933309 170.941211 
L 136.571599 165.327113 
L 138.306548 159.8087 
L 140.131299 154.7127 
L 142.038639 149.949831 
L 144.021026 145.334099 
L 152.540534 127.455907 
L 157.035733 118.574383 
L 163.874142 105.611611 
L 166.143093 100.940615 
L 174.928214 81.078195 
L 179.025387 72.877566 
L 182.83818 66.006935 
L 184.618911 63.155284 
L 187.89387 58.464125 
L 190.744356 54.842849 
L 194.127708 51.074407 
L 197.324845 47.982059 
L 196.028573 57.427624 
L 193.600762 73.200756 
L 191.332951 86.358796 
L 190.016954 93.225247 
L 187.046766 106.999278 
L 185.404317 113.38763 
L 183.665486 119.228183 
L 181.837147 124.465524 
L 179.926528 129.260321 
L 175.888956 137.959489 
L 173.777964 142.284191 
L 169.413261 150.481033 
L 164.91602 158.357636 
L 160.357284 165.73563 
L 153.561392 176.054815 
L 151.343215 179.781999 
L 149.163305 183.852531 
L 147.030278 188.219296 
L 140.995693 201.192559 
L 137.355191 208.179513 
L 134.088569 213.765092 
L 131.247429 218.024647 
L 128.876654 221.197069 
L 126.282166 224.316733 
L 124.723221 226.030469 
L 126.043112 216.199829 
L 127.539375 206.020163 
L 129.564577 193.55188 
L 130.765846 186.566228 
L 132.086726 180.072108 
L 133.521996 174.017129 
L 135.065981 168.65078 
L 136.712578 163.397122 
L 138.455278 158.564868 
L 140.287192 153.943985 
L 142.201078 149.662827 
L 146.244207 141.387753 
L 152.725645 128.752524 
L 157.224897 120.431294 
L 162.125476 111.566219 
L 165.427581 105.328953 
L 168.712275 98.39757 
L 175.17761 84.106501 
L 178.332692 77.711428 
L 181.419348 71.897952 
L 184.425375 66.633962 
L 187.33889 62.112536 
L 190.148376 58.229087 
L 192.842726 54.874864 
L 195.41129 51.975528 
L 197.843912 49.50291 
L 200.130978 47.38048 
L 202.263445 45.592544 
L 206.031511 42.847706 
L 209.088584 41.047119 
L 211.386374 39.929642 
L 213.601803 39.031419 
L 212.449299 47.200646 
L 210.66195 58.810502 
L 208.090462 73.861049 
L 206.522893 82.381572 
L 204.775458 90.869055 
L 202.855065 99.157389 
L 200.769304 107.23839 
L 198.526422 114.768545 
L 196.135285 121.508675 
L 193.605346 127.705051 
L 190.946604 133.127957 
L 188.169572 138.184606 
L 185.285226 143.117498 
L 179.240583 152.408965 
L 176.104181 156.862114 
L 172.908162 161.048745 
L 169.66516 165.000281 
L 166.387995 168.686311 
L 163.089622 172.056115 
L 153.197754 181.424859 
L 149.945003 185.310016 
L 146.736046 189.925213 
L 143.583567 195.155431 
L 137.497622 206.218212 
L 134.588214 211.132136 
L 131.783307 215.330491 
L 129.093988 218.940843 
L 126.53089 222.010838 
L 124.104144 224.66486 
L 121.823344 226.955249 
L 119.697505 228.889539 
L 117.735032 230.445825 
L 114.330538 232.750796 
L 110.620432 234.808429 
L 108.447768 235.848873 
L 109.626049 227.419638 
L 111.430066 215.679427 
L 114.0175 200.531627 
L 115.592692 192.036698 
L 117.347477 184.142032 
L 119.274917 176.908506 
L 121.367393 170.584582 
L 123.616633 164.622128 
L 126.013747 158.964665 
L 128.549256 153.529621 
L 131.21314 148.496945 
L 133.994866 143.659623 
L 139.867438 133.988075 
L 146.074204 124.480007 
L 149.272435 119.925541 
L 152.517117 115.589662 
L 155.795426 111.495764 
L 159.0944 107.627173 
L 165.70215 100.212322 
L 168.984806 96.013703 
L 172.235988 90.909878 
L 178.592697 80.117648 
L 181.673096 75.222813 
L 184.671863 70.807568 
L 187.577144 66.772109 
L 190.377453 63.118677 
L 193.061721 59.906575 
L 195.619337 57.149134 
L 200.314709 52.601452 
L 204.389397 49.100066 
L 207.779034 46.471661 
L 212.300639 43.330606 
L 213.594944 42.505676 
L 212.390893 50.642741 
L 210.57022 61.985798 
L 207.966857 76.669148 
L 206.384053 84.188878 
L 204.621931 92.013432 
L 202.687458 99.26312 
L 200.58828 106.225716 
L 198.332697 112.754241 
L 195.929624 118.785051 
L 193.388562 124.218717 
L 190.719555 129.218961 
L 185.040375 138.812139 
L 178.981798 148.030028 
L 175.839951 152.493787 
L 172.639531 156.815579 
L 169.39319 160.931134 
L 166.113761 164.805517 
L 162.814208 168.428008 
L 159.507576 171.804765 
L 152.925332 178.170519 
L 149.675741 181.684241 
L 146.471008 185.791237 
L 143.323802 190.424016 
L 140.246564 195.460445 
L 134.350324 205.569316 
L 131.554632 209.966787 
L 128.875433 213.758516 
L 126.323317 217.07255 
L 123.908375 219.919682 
L 121.640152 222.364625 
L 117.579115 226.27903 
L 114.204358 229.147583 
L 110.542441 231.951489 
L 108.455349 233.41714 
L 110.503964 219.358424 
L 112.736672 205.695236 
L 115.732156 189.3917 
L 117.501603 181.931141 
L 119.443096 175.196699 
L 121.548961 169.43198 
L 123.810872 163.872442 
L 126.219888 158.481231 
L 128.766485 153.426347 
L 131.440598 148.650169 
L 134.231654 143.971027 
L 143.194102 130.020832 
L 149.541227 121.033268 
L 152.789204 116.789809 
L 156.06973 112.743604 
L 167.510394 99.460171 
L 171.806719 93.2216 
L 180.254666 79.372238 
L 184.372893 73.202715 
L 188.398815 67.654851 
L 192.316518 62.671768 
L 196.110515 58.34836 
L 199.765806 54.691625 
L 203.267944 51.494852 
L 206.603082 48.706321 
L 209.758036 46.286673 
L 212.720336 44.191235 
L 218.020937 40.869159 
L 220.338284 39.638823 
L 224.261303 37.904733 
L 229.064255 36.311632 
L 229.868315 36.064122 
L 229.862642 36.090491 
L 228.218299 46.694577 
L 225.790287 61.069392 
L 224.189574 69.766313 
L 222.339156 78.534074 
L 220.246349 87.611222 
L 217.919424 96.026284 
L 215.367582 103.93793 
L 212.600909 111.772889 
L 209.630343 118.776037 
L 206.467626 125.005104 
L 203.125262 130.744181 
L 195.955099 141.620414 
L 188.23312 151.576245 
L 184.203031 156.381991 
L 180.081309 160.905196 
L 175.884248 165.09654 
L 171.628439 168.903097 
L 167.330706 172.336178 
L 163.008039 175.446629 
L 154.356283 181.171851 
L 150.061397 184.571223 
L 145.809844 188.907955 
L 141.618431 194.050039 
L 137.503727 199.956593 
L 133.481999 206.068603 
L 129.569144 211.731568 
L 125.780631 216.600824 
L 122.131437 220.695064 
L 118.635986 224.111641 
L 115.308097 227.027797 
L 112.160926 229.522936 
L 106.457736 233.554371 
L 103.924263 235.114525 
L 101.61651 236.364707 
L 97.713724 238.097347 
L 92.954279 239.774509 
L 92.172806 240.024046 
L 92.189826 239.903454 
L 93.867884 228.677725 
L 96.31766 213.954049 
L 99.78958 195.611471 
L 101.892315 186.981289 
L 104.2288 179.158315 
L 106.789802 172.529532 
L 109.565194 166.10565 
L 112.544007 159.911919 
L 115.714463 154.036337 
L 119.064031 148.419137 
L 126.246879 137.750286 
L 130.051764 132.549232 
L 133.979083 127.413159 
L 138.013311 122.442179 
L 142.1385 117.726109 
L 146.338342 113.312914 
L 150.596235 109.245518 
L 154.895347 105.51597 
L 159.218683 102.065499 
L 163.549152 98.753692 
L 167.869636 95.183121 
L 172.163055 90.521122 
L 176.412436 84.885827 
L 180.600982 79.145541 
L 184.712134 73.820967 
L 188.729641 69.055661 
L 192.63762 64.750971 
L 196.420623 60.881585 
L 200.063696 57.47672 
L 203.552436 54.49836 
L 206.873053 51.938033 
L 212.958126 47.697477 
L 218.222787 44.361208 
L 222.583873 41.791268 
L 227.284774 39.283656 
L 229.878244 38.027218 
L 227.032826 55.527958 
L 225.666592 63.179907 
L 224.044815 71.581227 
L 222.173906 79.930089 
L 220.061259 88.044439 
L 217.715228 95.879362 
L 215.145086 103.571492 
L 212.360992 110.661208 
L 209.373954 117.104876 
L 206.195779 122.949084 
L 202.839031 128.423226 
L 195.643548 139.051916 
L 191.833258 144.136972 
L 187.901171 149.167296 
L 183.862832 154.018951 
L 179.734205 158.643365 
L 175.531611 162.973722 
L 171.271663 166.968602 
L 166.971201 170.60932 
L 162.647226 173.92293 
L 153.997134 179.977722 
L 149.705213 183.356778 
L 145.458032 187.457211 
L 141.272382 192.195731 
L 137.16481 197.464188 
L 129.248476 208.57793 
L 125.471008 213.393273 
L 121.834082 217.462938 
L 118.352076 220.884641 
L 115.038754 223.805492 
L 111.907214 226.352628 
L 108.969836 228.508207 
L 103.723198 231.969755 
L 97.572438 235.574834 
L 92.163822 238.403861 
L 92.515301 236.010498 
L 93.94899 226.651642 
L 96.442242 211.825924 
L 99.955671 193.498997 
L 102.078215 184.978658 
L 104.433776 177.939465 
L 107.013042 171.652735 
L 109.805816 165.438749 
L 112.80106 159.53355 
L 115.986931 153.87829 
L 119.350836 148.565029 
L 122.879478 143.366226 
L 126.558906 138.143707 
L 134.311403 128.002589 
L 138.353825 123.101473 
L 142.485862 118.439434 
L 146.69118 114.038024 
L 150.953153 109.932113 
L 155.254935 106.130414 
L 164.592312 98.641289 
L 169.932323 93.764214 
L 175.237114 87.339052 
L 180.485715 80.374853 
L 185.657379 73.878273 
L 190.73166 68.15081 
L 195.6885 63.043277 
L 200.508304 58.53084 
L 205.172018 54.600251 
L 209.661205 51.169825 
L 213.958121 48.2131 
L 218.045777 45.591942 
L 221.908017 43.254314 
L 228.896122 39.398106 
L 231.994363 37.861454 
L 234.812046 36.604101 
L 237.338032 35.652085 
L 239.562336 35.040893 
L 241.476164 34.802694 
L 246.167873 33.868425 
L 243.904958 47.600188 
L 242.51123 55.438767 
L 240.79537 63.932992 
L 238.76416 72.865633 
L 236.42563 82.013963 
L 233.789024 90.901153 
L 230.864766 99.587451 
L 227.664415 107.817686 
L 224.200623 115.358078 
L 220.487082 122.048044 
L 216.538473 128.161259 
L 207.999355 140.279321 
L 203.442601 146.200876 
L 198.718159 151.839568 
L 193.844703 156.238029 
L 188.841499 161.057774 
L 183.728326 165.45393 
L 178.525397 169.400751 
L 173.253279 172.918229 
L 167.932814 176.061488 
L 157.23108 181.84646 
L 151.892117 185.359514 
L 146.58925 189.608487 
L 141.343441 194.621423 
L 136.175429 200.454401 
L 131.105644 206.720969 
L 126.154126 212.604038 
L 121.34045 217.65577 
L 116.683644 221.918098 
L 112.202119 225.458399 
L 107.913589 228.554706 
L 103.835008 231.151665 
L 96.371291 235.392472 
L 89.928873 238.659373 
L 84.609522 241.053776 
L 80.497268 242.367925 
L 75.874356 243.5899 
L 77.113098 235.5781 
L 79.600197 220.890986 
L 81.329341 211.54271 
L 83.373525 201.24528 
L 85.724667 191.0182 
L 88.373475 182.313741 
L 91.309475 175.206353 
L 94.521063 168.242728 
L 97.995542 161.530325 
L 101.719176 155.181392 
L 105.677248 149.196658 
L 109.854108 143.337393 
L 114.233247 137.47841 
L 118.797351 131.936721 
L 123.52838 126.520978 
L 128.40763 121.356691 
L 133.415814 116.497725 
L 138.533133 112.021757 
L 143.739358 107.95626 
L 149.013908 104.299437 
L 154.335932 100.986922 
L 159.684392 97.873434 
L 165.038144 94.62484 
L 170.376024 90.434796 
L 175.676931 84.938295 
L 180.91991 79.023108 
L 186.084235 73.470449 
L 191.14949 68.554903 
L 196.095651 64.228597 
L 200.903167 60.358057 
L 205.553032 56.924932 
L 210.026865 53.918074 
L 218.376457 48.767533 
L 222.219209 46.531929 
L 229.164732 42.928516 
L 237.535042 38.93066 
L 243.190371 36.41449 
L 246.175473 35.175201 
L 244.894828 42.958608 
L 242.38046 56.918161 
L 240.638044 65.898725 
L 238.580901 74.858782 
L 236.217161 83.467971 
L 233.556171 91.951466 
L 230.608448 100.207616 
L 227.385646 107.979795 
L 223.900504 114.92066 
L 220.166801 121.147985 
L 216.199295 127.146416 
L 212.01367 133.018454 
L 207.626474 138.933156 
L 203.055049 144.88728 
L 198.317467 150.605663 
L 193.432455 155.034237 
L 188.419326 159.92937 
L 183.297896 164.437829 
L 178.088411 168.515939 
L 172.811465 172.170546 
L 167.487918 175.456504 
L 156.785302 181.694482 
L 151.448542 185.344587 
L 146.149632 189.544931 
L 140.909518 194.327363 
L 135.748916 199.717923 
L 130.688227 205.517406 
L 125.747455 210.994582 
L 120.946133 215.85714 
L 116.30324 219.915261 
L 111.837131 223.373514 
L 107.56546 226.294843 
L 103.505115 228.839747 
L 96.081704 233.100821 
L 89.684166 236.284434 
L 82.227611 239.67214 
L 75.867925 242.290076 
L 78.297763 227.247261 
L 81.48776 209.68473 
L 83.557849 199.395234 
L 85.934169 189.269362 
L 88.607325 181.274523 
L 91.56675 174.390783 
L 94.800744 167.638265 
L 98.296525 161.125417 
L 102.040271 155.075034 
L 106.017185 149.145527 
L 110.211544 143.428144 
L 114.606768 137.647128 
L 119.185482 132.045048 
L 123.929585 126.865311 
L 128.820324 121.706501 
L 133.838365 116.83109 
L 138.963871 112.314609 
L 144.17658 108.194477 
L 149.455886 104.474809 
L 154.780919 101.095578 
L 160.130628 97.895222 
L 166.336852 93.806299 
L 172.692744 88.138605 
L 185.241189 74.866051 
L 191.384138 69.080029 
L 197.407066 64.073507 
L 203.286163 59.600338 
L 208.99819 55.591207 
L 214.520565 52.128753 
L 224.909874 46.07663 
L 229.735739 43.575864 
L 238.554575 39.362954 
L 246.148657 35.893116 
L 249.448117 34.49449 
L 252.398021 33.463822 
L 260.490519 31.92205 
L 262.464785 31.577216 
L 260.839451 40.941235 
L 259.504067 48.14001 
L 257.779375 56.724559 
L 255.672193 66.31031 
L 253.190851 76.101791 
L 250.345159 85.533214 
L 247.146366 94.767096 
L 243.607117 103.690359 
L 239.741403 111.826374 
L 235.564506 118.977498 
L 231.092938 125.637047 
L 226.344375 132.019696 
L 221.337588 138.500868 
L 216.092371 144.893085 
L 210.629459 151.012746 
L 204.970447 156.711649 
L 199.137705 161.857917 
L 193.154292 165.382661 
L 187.04386 169.458779 
L 180.830565 173.060943 
L 174.53897 176.286062 
L 168.193944 179.349788 
L 161.820571 182.555514 
L 155.444046 186.136646 
L 149.089576 190.283276 
L 142.782281 195.040683 
L 136.547095 200.525131 
L 130.408665 206.69421 
L 124.391259 212.510731 
L 118.518663 217.701301 
L 112.814092 222.003512 
L 107.300099 225.688595 
L 101.998479 228.853281 
L 96.930191 231.676562 
L 92.115271 234.197035 
L 87.572753 236.378377 
L 79.375602 239.974482 
L 72.468228 242.809209 
L 69.53315 243.929157 
L 64.758184 245.188071 
L 59.579447 246.359034 
L 61.254664 236.093442 
L 64.347162 219.005158 
L 66.470111 208.246821 
L 68.966839 196.592977 
L 71.827478 186.924249 
L 75.040719 179.035568 
L 78.593859 171.537815 
L 82.472853 164.277739 
L 86.662366 157.452222 
L 91.145837 150.90719 
L 95.905541 144.625573 
L 100.922664 138.368812 
L 106.177372 132.055675 
L 117.315595 121.174385 
L 123.155079 116.129439 
L 129.144261 111.553274 
L 135.259464 107.459615 
L 141.476514 103.813138 
L 147.770835 100.540823 
L 160.491551 94.40994 
L 166.86766 90.522986 
L 173.220665 85.279774 
L 179.525451 79.325405 
L 185.757096 73.619868 
L 191.890964 68.580034 
L 197.902808 64.246434 
L 203.768863 60.400293 
L 209.465937 56.963402 
L 214.971512 53.844357 
L 220.263822 51.036285 
L 230.125888 46.194034 
L 238.896348 42.077073 
L 246.436654 38.867155 
L 260.593634 33.270255 
L 262.468267 32.58464 
L 260.743178 42.370034 
L 257.61828 58.464555 
L 255.47958 68.0916 
L 252.967481 77.394022 
L 250.091915 86.597408 
L 246.864248 95.428816 
L 243.297241 103.897907 
L 239.404994 111.588605 
L 235.202894 118.427458 
L 230.707552 124.98477 
L 225.936739 131.360313 
L 220.909314 137.780849 
L 215.645151 144.15933 
L 210.165061 150.319822 
L 204.490707 156.10385 
L 198.64452 161.396113 
L 192.649611 166.092625 
L 186.529678 169.168929 
L 180.308915 172.939695 
L 174.011913 176.365622 
L 161.288967 183.075387 
L 154.913317 186.850372 
L 148.561821 191.046089 
L 142.259586 195.659622 
L 136.031526 200.837707 
L 129.902261 206.558751 
L 123.896021 211.860567 
L 118.036549 216.768455 
L 112.347008 220.751748 
L 106.849891 224.310255 
L 101.566927 227.260953 
L 96.519001 229.880785 
L 87.207077 234.346785 
L 79.061216 237.975514 
L 72.210098 240.789883 
L 62.802833 244.215071 
L 59.577358 245.310316 
L 61.352308 234.656274 
L 64.509584 217.474802 
L 66.664022 206.730405 
L 69.191473 195.0956 
L 72.081947 185.928849 
L 75.324017 178.347415 
L 78.904866 171.045242 
L 82.810339 163.985941 
L 87.024998 157.299673 
L 91.532181 150.929908 
L 96.31407 144.696357 
L 106.625344 132.284031 
L 117.795933 121.395366 
L 123.648783 116.323041 
L 129.649378 111.691632 
L 135.773998 107.536015 
L 141.998431 103.831414 
L 148.298071 100.496442 
L 154.648015 97.362811 
L 154.648015 97.362811 
" clip-path="url(#pc7e85aa83a)" style="fill: none; stroke: #3152a1; stroke-width: 1.5; stroke-linecap: square"/>
   </g>
   <g id="line2d_35">
    <path d="M 49.432813 138.462297 
L 272.612813 138.462297 
" clip-path="url(#pc7e85aa83a)" style="fill: none; stroke: #000000; stroke-width: 0.4; stroke-linecap: square"/>
   </g>
   <g id="line2d_36">
    <path d="M 161.023161 257.098125 
L 161.023161 20.838125 
" clip-path="url(#pc7e85aa83a)" style="fill: none; stroke: #000000; stroke-width: 0.4; stroke-linecap: square"/>
   </g>
   <g id="patch_3">
    <path d="M 49.432813 257.098125 
L 49.432813 20.838125 
" style="fill: none; stroke: #000000; stroke-width: 0.8; stroke-linejoin: miter; stroke-linecap: square"/>
   </g>
   <g id="patch_4">
    <path d="M 272.612813 257.098125 
L 272.612813 20.838125 
" style="fill: none; stroke: #000000; stroke-width: 0.8; stroke-linejoin: miter; stroke-linecap: square"/>
   </g>
   <g id="patch_5">
    <path d="M 49.432812 257.098125 
L 272.612813 257.098125 
" style="fill: none; stroke: #000000; stroke-width: 0.8; stroke-linejoin: miter; stroke-linecap: square"/>
   </g>
   <g id="patch_6">
    <path d="M 49.432812 20.838125 
L 272.612813 20.838125 
" style="fill: none; stroke: #000000; stroke-width: 0.8; stroke-linejoin: miter; stroke-linecap: square"/>
   </g>
   <g id="text_19">
    <!-- Specimen : Tran_A20P10S63 -->
    <g transform="translate(95.623516 14.838125) scale(0.11 -0.11)">
     <defs>
      <path id="TimesNewRomanPSMT-3a" d="M 903 2950 
Q 1047 2950 1148 2848 
Q 1250 2747 1250 2603 
Q 1250 2459 1148 2357 
Q 1047 2256 903 2256 
Q 759 2256 657 2357 
Q 556 2459 556 2603 
Q 556 2747 657 2848 
Q 759 2950 903 2950 
z
M 897 609 
Q 1044 609 1145 506 
Q 1247 403 1247 259 
Q 1247 116 1144 14 
Q 1041 -88 897 -88 
Q 753 -88 651 14 
Q 550 116 550 259 
Q 550 403 651 506 
Q 753 609 897 609 
z
" transform="scale(0.015625)"/>
      <path id="TimesNewRomanPSMT-54" d="M 3703 4238 
L 3750 3244 
L 3631 3244 
Q 3597 3506 3538 3619 
Q 3441 3800 3280 3886 
Q 3119 3972 2856 3972 
L 2259 3972 
L 2259 734 
Q 2259 344 2344 247 
Q 2463 116 2709 116 
L 2856 116 
L 2856 0 
L 1059 0 
L 1059 116 
L 1209 116 
Q 1478 116 1591 278 
Q 1659 378 1659 734 
L 1659 3972 
L 1150 3972 
Q 853 3972 728 3928 
Q 566 3869 450 3700 
Q 334 3531 313 3244 
L 194 3244 
L 244 4238 
L 3703 4238 
z
" transform="scale(0.015625)"/>
      <path id="TimesNewRomanPSMT-5f" d="M 3256 -1381 
L -53 -1381 
L -53 -1119 
L 3256 -1119 
L 3256 -1381 
z
" transform="scale(0.015625)"/>
      <path id="TimesNewRomanPSMT-41" d="M 2928 1419 
L 1288 1419 
L 1000 750 
Q 894 503 894 381 
Q 894 284 986 211 
Q 1078 138 1384 116 
L 1384 0 
L 50 0 
L 50 116 
Q 316 163 394 238 
Q 553 388 747 847 
L 2238 4334 
L 2347 4334 
L 3822 809 
Q 4000 384 4145 257 
Q 4291 131 4550 116 
L 4550 0 
L 2878 0 
L 2878 116 
Q 3131 128 3220 200 
Q 3309 272 3309 375 
Q 3309 513 3184 809 
L 2928 1419 
z
M 2841 1650 
L 2122 3363 
L 1384 1650 
L 2841 1650 
z
" transform="scale(0.015625)"/>
      <path id="TimesNewRomanPSMT-32" d="M 2934 816 
L 2638 0 
L 138 0 
L 138 116 
Q 1241 1122 1691 1759 
Q 2141 2397 2141 2925 
Q 2141 3328 1894 3587 
Q 1647 3847 1303 3847 
Q 991 3847 742 3664 
Q 494 3481 375 3128 
L 259 3128 
Q 338 3706 661 4015 
Q 984 4325 1469 4325 
Q 1984 4325 2329 3994 
Q 2675 3663 2675 3213 
Q 2675 2891 2525 2569 
Q 2294 2063 1775 1497 
Q 997 647 803 472 
L 1909 472 
Q 2247 472 2383 497 
Q 2519 522 2628 598 
Q 2738 675 2819 816 
L 2934 816 
z
" transform="scale(0.015625)"/>
      <path id="TimesNewRomanPSMT-30" d="M 231 2094 
Q 231 2819 450 3342 
Q 669 3866 1031 4122 
Q 1313 4325 1613 4325 
Q 2100 4325 2488 3828 
Q 2972 3213 2972 2159 
Q 2972 1422 2759 906 
Q 2547 391 2217 158 
Q 1888 -75 1581 -75 
Q 975 -75 572 641 
Q 231 1244 231 2094 
z
M 844 2016 
Q 844 1141 1059 588 
Q 1238 122 1591 122 
Q 1759 122 1940 273 
Q 2122 425 2216 781 
Q 2359 1319 2359 2297 
Q 2359 3022 2209 3506 
Q 2097 3866 1919 4016 
Q 1791 4119 1609 4119 
Q 1397 4119 1231 3928 
Q 1006 3669 925 3112 
Q 844 2556 844 2016 
z
" transform="scale(0.015625)"/>
      <path id="TimesNewRomanPSMT-50" d="M 1313 1984 
L 1313 750 
Q 1313 350 1400 253 
Q 1519 116 1759 116 
L 1922 116 
L 1922 0 
L 106 0 
L 106 116 
L 266 116 
Q 534 116 650 291 
Q 713 388 713 750 
L 713 3488 
Q 713 3888 628 3984 
Q 506 4122 266 4122 
L 106 4122 
L 106 4238 
L 1659 4238 
Q 2228 4238 2556 4120 
Q 2884 4003 3109 3725 
Q 3334 3447 3334 3066 
Q 3334 2547 2992 2222 
Q 2650 1897 2025 1897 
Q 1872 1897 1694 1919 
Q 1516 1941 1313 1984 
z
M 1313 2163 
Q 1478 2131 1606 2115 
Q 1734 2100 1825 2100 
Q 2150 2100 2386 2351 
Q 2622 2603 2622 3003 
Q 2622 3278 2509 3514 
Q 2397 3750 2190 3867 
Q 1984 3984 1722 3984 
Q 1563 3984 1313 3925 
L 1313 2163 
z
" transform="scale(0.015625)"/>
      <path id="TimesNewRomanPSMT-31" d="M 750 3822 
L 1781 4325 
L 1884 4325 
L 1884 747 
Q 1884 391 1914 303 
Q 1944 216 2037 169 
Q 2131 122 2419 116 
L 2419 0 
L 825 0 
L 825 116 
Q 1125 122 1212 167 
Q 1300 213 1334 289 
Q 1369 366 1369 747 
L 1369 3034 
Q 1369 3497 1338 3628 
Q 1316 3728 1258 3775 
Q 1200 3822 1119 3822 
Q 1003 3822 797 3725 
L 750 3822 
z
" transform="scale(0.015625)"/>
      <path id="TimesNewRomanPSMT-36" d="M 2869 4325 
L 2869 4209 
Q 2456 4169 2195 4045 
Q 1934 3922 1679 3669 
Q 1425 3416 1258 3105 
Q 1091 2794 978 2366 
Q 1428 2675 1881 2675 
Q 2316 2675 2634 2325 
Q 2953 1975 2953 1425 
Q 2953 894 2631 456 
Q 2244 -75 1606 -75 
Q 1172 -75 869 213 
Q 275 772 275 1663 
Q 275 2231 503 2743 
Q 731 3256 1154 3653 
Q 1578 4050 1965 4187 
Q 2353 4325 2688 4325 
L 2869 4325 
z
M 925 2138 
Q 869 1716 869 1456 
Q 869 1156 980 804 
Q 1091 453 1309 247 
Q 1469 100 1697 100 
Q 1969 100 2183 356 
Q 2397 613 2397 1088 
Q 2397 1622 2184 2012 
Q 1972 2403 1581 2403 
Q 1463 2403 1327 2353 
Q 1191 2303 925 2138 
z
" transform="scale(0.015625)"/>
      <path id="TimesNewRomanPSMT-33" d="M 325 3431 
Q 506 3859 782 4092 
Q 1059 4325 1472 4325 
Q 1981 4325 2253 3994 
Q 2459 3747 2459 3466 
Q 2459 3003 1878 2509 
Q 2269 2356 2469 2072 
Q 2669 1788 2669 1403 
Q 2669 853 2319 450 
Q 1863 -75 997 -75 
Q 569 -75 414 31 
Q 259 138 259 259 
Q 259 350 332 419 
Q 406 488 509 488 
Q 588 488 669 463 
Q 722 447 909 348 
Q 1097 250 1169 231 
Q 1284 197 1416 197 
Q 1734 197 1970 444 
Q 2206 691 2206 1028 
Q 2206 1275 2097 1509 
Q 2016 1684 1919 1775 
Q 1784 1900 1550 2001 
Q 1316 2103 1072 2103 
L 972 2103 
L 972 2197 
Q 1219 2228 1467 2375 
Q 1716 2522 1828 2728 
Q 1941 2934 1941 3181 
Q 1941 3503 1739 3701 
Q 1538 3900 1238 3900 
Q 753 3900 428 3381 
L 325 3431 
z
" transform="scale(0.015625)"/>
     </defs>
     <use xlink:href="#TimesNewRomanPSMT-53"/>
     <use xlink:href="#TimesNewRomanPSMT-70" x="55.615234"/>
     <use xlink:href="#TimesNewRomanPSMT-65" x="105.615234"/>
     <use xlink:href="#TimesNewRomanPSMT-63" x="150"/>
     <use xlink:href="#TimesNewRomanPSMT-69" x="194.384766"/>
     <use xlink:href="#TimesNewRomanPSMT-6d" x="222.167969"/>
     <use xlink:href="#TimesNewRomanPSMT-65" x="299.951172"/>
     <use xlink:href="#TimesNewRomanPSMT-6e" x="344.335938"/>
     <use xlink:href="#TimesNewRomanPSMT-20" x="394.335938"/>
     <use xlink:href="#TimesNewRomanPSMT-3a" x="419.335938"/>
     <use xlink:href="#TimesNewRomanPSMT-20" x="447.119141"/>
     <use xlink:href="#TimesNewRomanPSMT-54" x="470.369141"/>
     <use xlink:href="#TimesNewRomanPSMT-72" x="527.953125"/>
     <use xlink:href="#TimesNewRomanPSMT-61" x="561.253906"/>
     <use xlink:href="#TimesNewRomanPSMT-6e" x="605.638672"/>
     <use xlink:href="#TimesNewRomanPSMT-5f" x="655.638672"/>
     <use xlink:href="#TimesNewRomanPSMT-41" x="705.638672"/>
     <use xlink:href="#TimesNewRomanPSMT-32" x="777.855469"/>
     <use xlink:href="#TimesNewRomanPSMT-30" x="827.855469"/>
     <use xlink:href="#TimesNewRomanPSMT-50" x="877.855469"/>
     <use xlink:href="#TimesNewRomanPSMT-31" x="933.470703"/>
     <use xlink:href="#TimesNewRomanPSMT-30" x="983.470703"/>
     <use xlink:href="#TimesNewRomanPSMT-53" x="1033.470703"/>
     <use xlink:href="#TimesNewRomanPSMT-36" x="1089.085938"/>
     <use xlink:href="#TimesNewRomanPSMT-33" x="1139.085938"/>
    </g>
   </g>
   <g id="legend_1">
    <g id="patch_7">
     <path d="M 55.263813 51.057803 
L 142.486722 51.057803 
Q 144.152722 51.057803 144.152722 49.391803 
L 144.152722 26.669125 
Q 144.152722 25.003125 142.486722 25.003125 
L 55.263813 25.003125 
Q 53.597813 25.003125 53.597813 26.669125 
L 53.597813 49.391803 
Q 53.597813 51.057803 55.263813 51.057803 
z
" style="fill: #ffffff; opacity: 0.8; stroke: #cccccc; stroke-linejoin: miter"/>
    </g>
    <g id="line2d_37">
     <path d="M 56.929813 31.250625 
L 65.259813 31.250625 
L 73.589813 31.250625 
" style="fill: none; stroke-dasharray: 4.07,1.76; stroke-dashoffset: 0; stroke: #433f40; stroke-width: 1.1"/>
    </g>
    <g id="text_20">
     <!-- Experimental Test -->
     <g transform="translate(80.253813 34.166125) scale(0.0833 -0.0833)">
      <defs>
       <path id="TimesNewRomanPSMT-45" d="M 1338 4006 
L 1338 2331 
L 2269 2331 
Q 2631 2331 2753 2441 
Q 2916 2584 2934 2947 
L 3050 2947 
L 3050 1472 
L 2934 1472 
Q 2891 1781 2847 1869 
Q 2791 1978 2662 2040 
Q 2534 2103 2269 2103 
L 1338 2103 
L 1338 706 
Q 1338 425 1363 364 
Q 1388 303 1450 267 
Q 1513 231 1688 231 
L 2406 231 
Q 2766 231 2928 281 
Q 3091 331 3241 478 
Q 3434 672 3638 1063 
L 3763 1063 
L 3397 0 
L 131 0 
L 131 116 
L 281 116 
Q 431 116 566 188 
Q 666 238 702 338 
Q 738 438 738 747 
L 738 3500 
Q 738 3903 656 3997 
Q 544 4122 281 4122 
L 131 4122 
L 131 4238 
L 3397 4238 
L 3444 3309 
L 3322 3309 
Q 3256 3644 3176 3769 
Q 3097 3894 2941 3959 
Q 2816 4006 2500 4006 
L 1338 4006 
z
" transform="scale(0.015625)"/>
       <path id="TimesNewRomanPSMT-78" d="M 84 2863 
L 1431 2863 
L 1431 2747 
Q 1303 2747 1251 2703 
Q 1200 2659 1200 2588 
Q 1200 2513 1309 2356 
Q 1344 2306 1413 2200 
L 1616 1875 
L 1850 2200 
Q 2075 2509 2075 2591 
Q 2075 2656 2022 2701 
Q 1969 2747 1850 2747 
L 1850 2863 
L 2819 2863 
L 2819 2747 
Q 2666 2738 2553 2663 
Q 2400 2556 2134 2200 
L 1744 1678 
L 2456 653 
Q 2719 275 2831 198 
Q 2944 122 3122 113 
L 3122 0 
L 1772 0 
L 1772 113 
Q 1913 113 1991 175 
Q 2050 219 2050 291 
Q 2050 363 1850 653 
L 1431 1266 
L 972 653 
Q 759 369 759 316 
Q 759 241 829 180 
Q 900 119 1041 113 
L 1041 0 
L 106 0 
L 106 113 
Q 219 128 303 191 
Q 422 281 703 653 
L 1303 1450 
L 759 2238 
Q 528 2575 401 2661 
Q 275 2747 84 2747 
L 84 2863 
z
" transform="scale(0.015625)"/>
      </defs>
      <use xlink:href="#TimesNewRomanPSMT-45"/>
      <use xlink:href="#TimesNewRomanPSMT-78" x="61.083984"/>
      <use xlink:href="#TimesNewRomanPSMT-70" x="111.083984"/>
      <use xlink:href="#TimesNewRomanPSMT-65" x="161.083984"/>
      <use xlink:href="#TimesNewRomanPSMT-72" x="205.46875"/>
      <use xlink:href="#TimesNewRomanPSMT-69" x="238.769531"/>
      <use xlink:href="#TimesNewRomanPSMT-6d" x="266.552734"/>
      <use xlink:href="#TimesNewRomanPSMT-65" x="344.335938"/>
      <use xlink:href="#TimesNewRomanPSMT-6e" x="388.720703"/>
      <use xlink:href="#TimesNewRomanPSMT-74" x="438.720703"/>
      <use xlink:href="#TimesNewRomanPSMT-61" x="466.503906"/>
      <use xlink:href="#TimesNewRomanPSMT-6c" x="510.888672"/>
      <use xlink:href="#TimesNewRomanPSMT-20" x="538.671875"/>
      <use xlink:href="#TimesNewRomanPSMT-54" x="561.921875"/>
      <use xlink:href="#TimesNewRomanPSMT-65" x="616.005859"/>
      <use xlink:href="#TimesNewRomanPSMT-73" x="660.390625"/>
      <use xlink:href="#TimesNewRomanPSMT-74" x="699.306641"/>
     </g>
    </g>
    <g id="line2d_38">
     <path d="M 56.929813 43.028464 
L 65.259813 43.028464 
L 73.589813 43.028464 
" style="fill: none; stroke: #3152a1; stroke-width: 1.5; stroke-linecap: square"/>
    </g>
    <g id="text_21">
     <!-- Numerical Test -->
     <g transform="translate(80.253813 45.943964) scale(0.0833 -0.0833)">
      <defs>
       <path id="TimesNewRomanPSMT-75" d="M 2709 2863 
L 2709 1128 
Q 2709 631 2732 520 
Q 2756 409 2807 365 
Q 2859 322 2928 322 
Q 3025 322 3147 375 
L 3191 266 
L 2334 -88 
L 2194 -88 
L 2194 519 
Q 1825 119 1631 15 
Q 1438 -88 1222 -88 
Q 981 -88 804 51 
Q 628 191 559 409 
Q 491 628 491 1028 
L 491 2306 
Q 491 2509 447 2587 
Q 403 2666 317 2708 
Q 231 2750 6 2747 
L 6 2863 
L 1009 2863 
L 1009 947 
Q 1009 547 1148 422 
Q 1288 297 1484 297 
Q 1619 297 1789 381 
Q 1959 466 2194 703 
L 2194 2325 
Q 2194 2569 2105 2655 
Q 2016 2741 1734 2747 
L 1734 2863 
L 2709 2863 
z
" transform="scale(0.015625)"/>
      </defs>
      <use xlink:href="#TimesNewRomanPSMT-4e"/>
      <use xlink:href="#TimesNewRomanPSMT-75" x="72.216797"/>
      <use xlink:href="#TimesNewRomanPSMT-6d" x="122.216797"/>
      <use xlink:href="#TimesNewRomanPSMT-65" x="200"/>
      <use xlink:href="#TimesNewRomanPSMT-72" x="244.384766"/>
      <use xlink:href="#TimesNewRomanPSMT-69" x="277.685547"/>
      <use xlink:href="#TimesNewRomanPSMT-63" x="305.46875"/>
      <use xlink:href="#TimesNewRomanPSMT-61" x="349.853516"/>
      <use xlink:href="#TimesNewRomanPSMT-6c" x="394.238281"/>
      <use xlink:href="#TimesNewRomanPSMT-20" x="422.021484"/>
      <use xlink:href="#TimesNewRomanPSMT-54" x="445.271484"/>
      <use xlink:href="#TimesNewRomanPSMT-65" x="499.355469"/>
      <use xlink:href="#TimesNewRomanPSMT-73" x="543.740234"/>
      <use xlink:href="#TimesNewRomanPSMT-74" x="582.65625"/>
     </g>
    </g>
   </g>
  </g>
 </g>
 <defs>
  <clipPath id="pc7e85aa83a">
   <rect x="49.432813" y="20.838125" width="223.18" height="236.26"/>
  </clipPath>
 </defs>
</svg>
