<?xml version="1.0" encoding="utf-8" standalone="no"?>
<!DOCTYPE svg PUBLIC "-//W3C//DTD SVG 1.1//EN"
  "http://www.w3.org/Graphics/SVG/1.1/DTD/svg11.dtd">
<svg xmlns:xlink="http://www.w3.org/1999/xlink" width="279.812813pt" height="293.468437pt" viewBox="0 0 279.812813 293.468437" xmlns="http://www.w3.org/2000/svg" version="1.1">
 <metadata>
  <rdf:RDF xmlns:dc="http://purl.org/dc/elements/1.1/" xmlns:cc="http://creativecommons.org/ns#" xmlns:rdf="http://www.w3.org/1999/02/22-rdf-syntax-ns#">
   <cc:Work>
    <dc:type rdf:resource="http://purl.org/dc/dcmitype/StillImage"/>
    <dc:date>2025-01-03T15:31:40.448184</dc:date>
    <dc:format>image/svg+xml</dc:format>
    <dc:creator>
     <cc:Agent>
      <dc:title>Matplotlib v3.8.0, https://matplotlib.org/</dc:title>
     </cc:Agent>
    </dc:creator>
   </cc:Work>
  </rdf:RDF>
 </metadata>
 <defs>
  <style type="text/css">*{stroke-linejoin: round; stroke-linecap: butt}</style>
 </defs>
 <g id="figure_1">
  <g id="patch_1">
   <path d="M 0 293.468437 
L 279.812813 293.468437 
L 279.812813 0 
L 0 0 
z
" style="fill: #ffffff"/>
  </g>
  <g id="axes_1">
   <g id="patch_2">
    <path d="M 49.432813 257.098125 
L 272.612813 257.098125 
L 272.612813 20.838125 
L 49.432813 20.838125 
z
" style="fill: #ffffff"/>
   </g>
   <g id="matplotlib.axis_1">
    <g id="xtick_1">
     <g id="line2d_1">
      <path d="M 76.484919 257.098125 
L 76.484919 20.838125 
" clip-path="url(#p3e8e523b0e)" style="fill: none; stroke-dasharray: 0.8,1.32; stroke-dashoffset: 0; stroke: #b0b0b0; stroke-width: 0.8"/>
     </g>
     <g id="line2d_2">
      <defs>
       <path id="md0ccd685ec" d="M 0 0 
L 0 3.5 
" style="stroke: #000000; stroke-width: 0.8"/>
      </defs>
      <g>
       <use xlink:href="#md0ccd685ec" x="76.484919" y="257.098125" style="stroke: #000000; stroke-width: 0.8"/>
      </g>
     </g>
     <g id="text_1">
      <!-- −40 -->
      <g transform="translate(68.178669 271.085625) scale(0.1 -0.1)">
       <defs>
        <path id="Cambria-2212" d="M 397 1613 
L 397 2047 
L 3147 2047 
L 3147 1613 
L 397 1613 
z
" transform="scale(0.015625)"/>
        <path id="Cambria-34" d="M 1613 153 
Q 1806 203 1872 264 
Q 1938 325 1958 437 
Q 1978 550 1978 781 
L 1978 1294 
L 241 1294 
L 241 1528 
L 2069 4288 
L 2516 4288 
L 2516 1597 
L 2581 1597 
Q 2763 1597 2841 1623 
Q 2919 1650 2970 1717 
Q 3022 1784 3066 1938 
L 3303 1938 
L 3266 1294 
L 2516 1294 
L 2516 781 
Q 2516 572 2530 475 
Q 2544 378 2576 322 
Q 2609 266 2673 228 
Q 2738 191 2881 153 
L 2881 0 
L 1613 0 
L 1613 153 
z
M 756 1597 
L 1978 1597 
L 1978 2375 
Q 1978 2669 1987 3033 
Q 1997 3397 2009 3581 
L 1978 3581 
L 756 1641 
L 756 1597 
z
" transform="scale(0.015625)"/>
        <path id="Cambria-30" d="M 1738 -50 
Q 1063 -50 733 481 
Q 403 1013 403 2094 
Q 403 2669 504 3087 
Q 606 3506 789 3779 
Q 972 4053 1228 4184 
Q 1484 4316 1788 4316 
Q 2472 4316 2806 3787 
Q 3141 3259 3141 2191 
Q 3141 1084 2783 517 
Q 2425 -50 1738 -50 
z
M 1013 2188 
Q 1013 1169 1202 692 
Q 1391 216 1788 216 
Q 2166 216 2348 664 
Q 2531 1113 2531 2053 
Q 2531 2772 2437 3217 
Q 2344 3663 2176 3856 
Q 2009 4050 1772 4050 
Q 1556 4050 1411 3922 
Q 1266 3794 1177 3553 
Q 1088 3313 1050 2967 
Q 1013 2622 1013 2188 
z
" transform="scale(0.015625)"/>
       </defs>
       <use xlink:href="#Cambria-2212"/>
       <use xlink:href="#Cambria-34" x="55.371094"/>
       <use xlink:href="#Cambria-30" x="110.742188"/>
      </g>
     </g>
    </g>
    <g id="xtick_2">
     <g id="line2d_3">
      <path d="M 118.75404 257.098125 
L 118.75404 20.838125 
" clip-path="url(#p3e8e523b0e)" style="fill: none; stroke-dasharray: 0.8,1.32; stroke-dashoffset: 0; stroke: #b0b0b0; stroke-width: 0.8"/>
     </g>
     <g id="line2d_4">
      <g>
       <use xlink:href="#md0ccd685ec" x="118.75404" y="257.098125" style="stroke: #000000; stroke-width: 0.8"/>
      </g>
     </g>
     <g id="text_2">
      <!-- −20 -->
      <g transform="translate(110.44779 271.085625) scale(0.1 -0.1)">
       <defs>
        <path id="Cambria-32" d="M 2194 500 
Q 2347 500 2440 519 
Q 2534 538 2590 581 
Q 2647 625 2680 695 
Q 2713 766 2763 913 
L 3028 913 
L 2975 0 
L 403 0 
L 403 150 
Q 538 478 766 822 
Q 994 1166 1413 1631 
Q 1775 2031 1934 2238 
Q 2109 2463 2195 2627 
Q 2281 2791 2318 2936 
Q 2356 3081 2356 3228 
Q 2356 3463 2281 3642 
Q 2206 3822 2051 3925 
Q 1897 4028 1663 4028 
Q 1078 4028 875 3378 
L 497 3378 
L 497 3978 
Q 875 4156 1204 4236 
Q 1534 4316 1797 4316 
Q 2378 4316 2675 4061 
Q 2972 3806 2972 3322 
Q 2972 3156 2939 3017 
Q 2906 2878 2836 2742 
Q 2766 2606 2647 2450 
Q 2528 2294 2384 2133 
Q 2241 1972 1888 1597 
Q 1294 969 1016 500 
L 2194 500 
z
" transform="scale(0.015625)"/>
       </defs>
       <use xlink:href="#Cambria-2212"/>
       <use xlink:href="#Cambria-32" x="55.371094"/>
       <use xlink:href="#Cambria-30" x="110.742188"/>
      </g>
     </g>
    </g>
    <g id="xtick_3">
     <g id="line2d_5">
      <path d="M 161.023161 257.098125 
L 161.023161 20.838125 
" clip-path="url(#p3e8e523b0e)" style="fill: none; stroke-dasharray: 0.8,1.32; stroke-dashoffset: 0; stroke: #b0b0b0; stroke-width: 0.8"/>
     </g>
     <g id="line2d_6">
      <g>
       <use xlink:href="#md0ccd685ec" x="161.023161" y="257.098125" style="stroke: #000000; stroke-width: 0.8"/>
      </g>
     </g>
     <g id="text_3">
      <!-- 0 -->
      <g transform="translate(158.254411 271.085625) scale(0.1 -0.1)">
       <use xlink:href="#Cambria-30"/>
      </g>
     </g>
    </g>
    <g id="xtick_4">
     <g id="line2d_7">
      <path d="M 203.292281 257.098125 
L 203.292281 20.838125 
" clip-path="url(#p3e8e523b0e)" style="fill: none; stroke-dasharray: 0.8,1.32; stroke-dashoffset: 0; stroke: #b0b0b0; stroke-width: 0.8"/>
     </g>
     <g id="line2d_8">
      <g>
       <use xlink:href="#md0ccd685ec" x="203.292281" y="257.098125" style="stroke: #000000; stroke-width: 0.8"/>
      </g>
     </g>
     <g id="text_4">
      <!-- 20 -->
      <g transform="translate(197.754781 271.085625) scale(0.1 -0.1)">
       <use xlink:href="#Cambria-32"/>
       <use xlink:href="#Cambria-30" x="55.371094"/>
      </g>
     </g>
    </g>
    <g id="xtick_5">
     <g id="line2d_9">
      <path d="M 245.561402 257.098125 
L 245.561402 20.838125 
" clip-path="url(#p3e8e523b0e)" style="fill: none; stroke-dasharray: 0.8,1.32; stroke-dashoffset: 0; stroke: #b0b0b0; stroke-width: 0.8"/>
     </g>
     <g id="line2d_10">
      <g>
       <use xlink:href="#md0ccd685ec" x="245.561402" y="257.098125" style="stroke: #000000; stroke-width: 0.8"/>
      </g>
     </g>
     <g id="text_5">
      <!-- 40 -->
      <g transform="translate(240.023902 271.085625) scale(0.1 -0.1)">
       <use xlink:href="#Cambria-34"/>
       <use xlink:href="#Cambria-30" x="55.371094"/>
      </g>
     </g>
    </g>
    <g id="text_6">
     <!-- Displacement (mm) -->
     <g transform="translate(121.173594 284.129375) scale(0.1 -0.1)">
      <defs>
       <path id="TimesNewRomanPSMT-44" d="M 109 0 
L 109 116 
L 269 116 
Q 538 116 650 288 
Q 719 391 719 750 
L 719 3488 
Q 719 3884 631 3984 
Q 509 4122 269 4122 
L 109 4122 
L 109 4238 
L 1834 4238 
Q 2784 4238 3279 4022 
Q 3775 3806 4076 3303 
Q 4378 2800 4378 2141 
Q 4378 1256 3841 663 
Q 3238 0 2003 0 
L 109 0 
z
M 1319 306 
Q 1716 219 1984 219 
Q 2709 219 3187 728 
Q 3666 1238 3666 2109 
Q 3666 2988 3187 3494 
Q 2709 4000 1959 4000 
Q 1678 4000 1319 3909 
L 1319 306 
z
" transform="scale(0.015625)"/>
       <path id="TimesNewRomanPSMT-69" d="M 928 4444 
Q 1059 4444 1151 4351 
Q 1244 4259 1244 4128 
Q 1244 3997 1151 3903 
Q 1059 3809 928 3809 
Q 797 3809 703 3903 
Q 609 3997 609 4128 
Q 609 4259 701 4351 
Q 794 4444 928 4444 
z
M 1188 2947 
L 1188 647 
Q 1188 378 1227 289 
Q 1266 200 1342 156 
Q 1419 113 1622 113 
L 1622 0 
L 231 0 
L 231 113 
Q 441 113 512 153 
Q 584 194 626 287 
Q 669 381 669 647 
L 669 1750 
Q 669 2216 641 2353 
Q 619 2453 572 2492 
Q 525 2531 444 2531 
Q 356 2531 231 2484 
L 188 2597 
L 1050 2947 
L 1188 2947 
z
" transform="scale(0.015625)"/>
       <path id="TimesNewRomanPSMT-73" d="M 2050 2947 
L 2050 1972 
L 1947 1972 
Q 1828 2431 1642 2597 
Q 1456 2763 1169 2763 
Q 950 2763 815 2647 
Q 681 2531 681 2391 
Q 681 2216 781 2091 
Q 878 1963 1175 1819 
L 1631 1597 
Q 2266 1288 2266 781 
Q 2266 391 1970 151 
Q 1675 -88 1309 -88 
Q 1047 -88 709 6 
Q 606 38 541 38 
Q 469 38 428 -44 
L 325 -44 
L 325 978 
L 428 978 
Q 516 541 762 319 
Q 1009 97 1316 97 
Q 1531 97 1667 223 
Q 1803 350 1803 528 
Q 1803 744 1651 891 
Q 1500 1038 1047 1263 
Q 594 1488 453 1669 
Q 313 1847 313 2119 
Q 313 2472 555 2709 
Q 797 2947 1181 2947 
Q 1350 2947 1591 2875 
Q 1750 2828 1803 2828 
Q 1853 2828 1881 2850 
Q 1909 2872 1947 2947 
L 2050 2947 
z
" transform="scale(0.015625)"/>
       <path id="TimesNewRomanPSMT-70" d="M -6 2578 
L 875 2934 
L 994 2934 
L 994 2266 
Q 1216 2644 1439 2795 
Q 1663 2947 1909 2947 
Q 2341 2947 2628 2609 
Q 2981 2197 2981 1534 
Q 2981 794 2556 309 
Q 2206 -88 1675 -88 
Q 1444 -88 1275 -22 
Q 1150 25 994 166 
L 994 -706 
Q 994 -1000 1030 -1079 
Q 1066 -1159 1155 -1206 
Q 1244 -1253 1478 -1253 
L 1478 -1369 
L -22 -1369 
L -22 -1253 
L 56 -1253 
Q 228 -1256 350 -1188 
Q 409 -1153 442 -1076 
Q 475 -1000 475 -688 
L 475 2019 
Q 475 2297 450 2372 
Q 425 2447 370 2484 
Q 316 2522 222 2522 
Q 147 2522 31 2478 
L -6 2578 
z
M 994 2081 
L 994 1013 
Q 994 666 1022 556 
Q 1066 375 1236 237 
Q 1406 100 1666 100 
Q 1978 100 2172 344 
Q 2425 663 2425 1241 
Q 2425 1897 2138 2250 
Q 1938 2494 1663 2494 
Q 1513 2494 1366 2419 
Q 1253 2363 994 2081 
z
" transform="scale(0.015625)"/>
       <path id="TimesNewRomanPSMT-6c" d="M 1184 4444 
L 1184 647 
Q 1184 378 1223 290 
Q 1263 203 1344 158 
Q 1425 113 1647 113 
L 1647 0 
L 244 0 
L 244 113 
Q 441 113 512 153 
Q 584 194 625 287 
Q 666 381 666 647 
L 666 3247 
Q 666 3731 644 3842 
Q 622 3953 573 3993 
Q 525 4034 450 4034 
Q 369 4034 244 3984 
L 191 4094 
L 1044 4444 
L 1184 4444 
z
" transform="scale(0.015625)"/>
       <path id="TimesNewRomanPSMT-61" d="M 1822 413 
Q 1381 72 1269 19 
Q 1100 -59 909 -59 
Q 613 -59 420 144 
Q 228 347 228 678 
Q 228 888 322 1041 
Q 450 1253 767 1440 
Q 1084 1628 1822 1897 
L 1822 2009 
Q 1822 2438 1686 2597 
Q 1550 2756 1291 2756 
Q 1094 2756 978 2650 
Q 859 2544 859 2406 
L 866 2225 
Q 866 2081 792 2003 
Q 719 1925 600 1925 
Q 484 1925 411 2006 
Q 338 2088 338 2228 
Q 338 2497 613 2722 
Q 888 2947 1384 2947 
Q 1766 2947 2009 2819 
Q 2194 2722 2281 2516 
Q 2338 2381 2338 1966 
L 2338 994 
Q 2338 584 2353 492 
Q 2369 400 2405 369 
Q 2441 338 2488 338 
Q 2538 338 2575 359 
Q 2641 400 2828 588 
L 2828 413 
Q 2478 -56 2159 -56 
Q 2006 -56 1915 50 
Q 1825 156 1822 413 
z
M 1822 616 
L 1822 1706 
Q 1350 1519 1213 1441 
Q 966 1303 859 1153 
Q 753 1003 753 825 
Q 753 600 887 451 
Q 1022 303 1197 303 
Q 1434 303 1822 616 
z
" transform="scale(0.015625)"/>
       <path id="TimesNewRomanPSMT-63" d="M 2631 1088 
Q 2516 522 2178 217 
Q 1841 -88 1431 -88 
Q 944 -88 581 321 
Q 219 731 219 1428 
Q 219 2103 620 2525 
Q 1022 2947 1584 2947 
Q 2006 2947 2278 2723 
Q 2550 2500 2550 2259 
Q 2550 2141 2473 2067 
Q 2397 1994 2259 1994 
Q 2075 1994 1981 2113 
Q 1928 2178 1911 2362 
Q 1894 2547 1784 2644 
Q 1675 2738 1481 2738 
Q 1169 2738 978 2506 
Q 725 2200 725 1697 
Q 725 1184 976 792 
Q 1228 400 1656 400 
Q 1963 400 2206 609 
Q 2378 753 2541 1131 
L 2631 1088 
z
" transform="scale(0.015625)"/>
       <path id="TimesNewRomanPSMT-65" d="M 681 1784 
Q 678 1147 991 784 
Q 1303 422 1725 422 
Q 2006 422 2214 576 
Q 2422 731 2563 1106 
L 2659 1044 
Q 2594 616 2278 264 
Q 1963 -88 1488 -88 
Q 972 -88 605 314 
Q 238 716 238 1394 
Q 238 2128 614 2539 
Q 991 2950 1559 2950 
Q 2041 2950 2350 2633 
Q 2659 2316 2659 1784 
L 681 1784 
z
M 681 1966 
L 2006 1966 
Q 1991 2241 1941 2353 
Q 1863 2528 1708 2628 
Q 1553 2728 1384 2728 
Q 1125 2728 920 2526 
Q 716 2325 681 1966 
z
" transform="scale(0.015625)"/>
       <path id="TimesNewRomanPSMT-6d" d="M 1050 2338 
Q 1363 2650 1419 2697 
Q 1559 2816 1721 2881 
Q 1884 2947 2044 2947 
Q 2313 2947 2506 2790 
Q 2700 2634 2766 2338 
Q 3088 2713 3309 2830 
Q 3531 2947 3766 2947 
Q 3994 2947 4170 2830 
Q 4347 2713 4450 2447 
Q 4519 2266 4519 1878 
L 4519 647 
Q 4519 378 4559 278 
Q 4591 209 4675 161 
Q 4759 113 4950 113 
L 4950 0 
L 3538 0 
L 3538 113 
L 3597 113 
Q 3781 113 3884 184 
Q 3956 234 3988 344 
Q 4000 397 4000 647 
L 4000 1878 
Q 4000 2228 3916 2372 
Q 3794 2572 3525 2572 
Q 3359 2572 3192 2489 
Q 3025 2406 2788 2181 
L 2781 2147 
L 2788 2013 
L 2788 647 
Q 2788 353 2820 281 
Q 2853 209 2943 161 
Q 3034 113 3253 113 
L 3253 0 
L 1806 0 
L 1806 113 
Q 2044 113 2133 169 
Q 2222 225 2256 338 
Q 2272 391 2272 647 
L 2272 1878 
Q 2272 2228 2169 2381 
Q 2031 2581 1784 2581 
Q 1616 2581 1450 2491 
Q 1191 2353 1050 2181 
L 1050 647 
Q 1050 366 1089 281 
Q 1128 197 1204 155 
Q 1281 113 1516 113 
L 1516 0 
L 100 0 
L 100 113 
Q 297 113 375 155 
Q 453 197 493 289 
Q 534 381 534 647 
L 534 1741 
Q 534 2213 506 2350 
Q 484 2453 437 2492 
Q 391 2531 309 2531 
Q 222 2531 100 2484 
L 53 2597 
L 916 2947 
L 1050 2947 
L 1050 2338 
z
" transform="scale(0.015625)"/>
       <path id="TimesNewRomanPSMT-6e" d="M 1034 2341 
Q 1538 2947 1994 2947 
Q 2228 2947 2397 2830 
Q 2566 2713 2666 2444 
Q 2734 2256 2734 1869 
L 2734 647 
Q 2734 375 2778 278 
Q 2813 200 2889 156 
Q 2966 113 3172 113 
L 3172 0 
L 1756 0 
L 1756 113 
L 1816 113 
Q 2016 113 2095 173 
Q 2175 234 2206 353 
Q 2219 400 2219 647 
L 2219 1819 
Q 2219 2209 2117 2386 
Q 2016 2563 1775 2563 
Q 1403 2563 1034 2156 
L 1034 647 
Q 1034 356 1069 288 
Q 1113 197 1189 155 
Q 1266 113 1500 113 
L 1500 0 
L 84 0 
L 84 113 
L 147 113 
Q 366 113 442 223 
Q 519 334 519 647 
L 519 1709 
Q 519 2225 495 2337 
Q 472 2450 423 2490 
Q 375 2531 294 2531 
Q 206 2531 84 2484 
L 38 2597 
L 900 2947 
L 1034 2947 
L 1034 2341 
z
" transform="scale(0.015625)"/>
       <path id="TimesNewRomanPSMT-74" d="M 1031 3803 
L 1031 2863 
L 1700 2863 
L 1700 2644 
L 1031 2644 
L 1031 788 
Q 1031 509 1111 412 
Q 1191 316 1316 316 
Q 1419 316 1516 380 
Q 1613 444 1666 569 
L 1788 569 
Q 1678 263 1478 108 
Q 1278 -47 1066 -47 
Q 922 -47 784 33 
Q 647 113 581 261 
Q 516 409 516 719 
L 516 2644 
L 63 2644 
L 63 2747 
Q 234 2816 414 2980 
Q 594 3144 734 3369 
Q 806 3488 934 3803 
L 1031 3803 
z
" transform="scale(0.015625)"/>
       <path id="TimesNewRomanPSMT-20" transform="scale(0.015625)"/>
       <path id="TimesNewRomanPSMT-28" d="M 1988 -1253 
L 1988 -1369 
Q 1516 -1131 1200 -813 
Q 750 -359 506 256 
Q 263 872 263 1534 
Q 263 2503 741 3301 
Q 1219 4100 1988 4444 
L 1988 4313 
Q 1603 4100 1356 3731 
Q 1109 3363 987 2797 
Q 866 2231 866 1616 
Q 866 947 969 400 
Q 1050 -31 1165 -292 
Q 1281 -553 1476 -793 
Q 1672 -1034 1988 -1253 
z
" transform="scale(0.015625)"/>
       <path id="TimesNewRomanPSMT-29" d="M 144 4313 
L 144 4444 
Q 619 4209 934 3891 
Q 1381 3434 1625 2820 
Q 1869 2206 1869 1541 
Q 1869 572 1392 -226 
Q 916 -1025 144 -1369 
L 144 -1253 
Q 528 -1038 776 -670 
Q 1025 -303 1145 264 
Q 1266 831 1266 1447 
Q 1266 2113 1163 2663 
Q 1084 3094 967 3353 
Q 850 3613 656 3853 
Q 463 4094 144 4313 
z
" transform="scale(0.015625)"/>
      </defs>
      <use xlink:href="#TimesNewRomanPSMT-44"/>
      <use xlink:href="#TimesNewRomanPSMT-69" x="72.216797"/>
      <use xlink:href="#TimesNewRomanPSMT-73" x="100"/>
      <use xlink:href="#TimesNewRomanPSMT-70" x="138.916016"/>
      <use xlink:href="#TimesNewRomanPSMT-6c" x="188.916016"/>
      <use xlink:href="#TimesNewRomanPSMT-61" x="216.699219"/>
      <use xlink:href="#TimesNewRomanPSMT-63" x="261.083984"/>
      <use xlink:href="#TimesNewRomanPSMT-65" x="305.46875"/>
      <use xlink:href="#TimesNewRomanPSMT-6d" x="349.853516"/>
      <use xlink:href="#TimesNewRomanPSMT-65" x="427.636719"/>
      <use xlink:href="#TimesNewRomanPSMT-6e" x="472.021484"/>
      <use xlink:href="#TimesNewRomanPSMT-74" x="522.021484"/>
      <use xlink:href="#TimesNewRomanPSMT-20" x="549.804688"/>
      <use xlink:href="#TimesNewRomanPSMT-28" x="574.804688"/>
      <use xlink:href="#TimesNewRomanPSMT-6d" x="608.105469"/>
      <use xlink:href="#TimesNewRomanPSMT-6d" x="685.888672"/>
      <use xlink:href="#TimesNewRomanPSMT-29" x="763.671875"/>
     </g>
    </g>
   </g>
   <g id="matplotlib.axis_2">
    <g id="ytick_1">
     <g id="line2d_11">
      <path d="M 49.432813 237.741991 
L 272.612813 237.741991 
" clip-path="url(#p3e8e523b0e)" style="fill: none; stroke-dasharray: 0.8,1.32; stroke-dashoffset: 0; stroke: #b0b0b0; stroke-width: 0.8"/>
     </g>
     <g id="line2d_12">
      <defs>
       <path id="m26c3da08e0" d="M 0 0 
L -3.5 0 
" style="stroke: #000000; stroke-width: 0.8"/>
      </defs>
      <g>
       <use xlink:href="#m26c3da08e0" x="49.432813" y="237.741991" style="stroke: #000000; stroke-width: 0.8"/>
      </g>
     </g>
     <g id="text_7">
      <!-- −400 -->
      <g transform="translate(20.282813 241.235741) scale(0.1 -0.1)">
       <use xlink:href="#Cambria-2212"/>
       <use xlink:href="#Cambria-34" x="55.371094"/>
       <use xlink:href="#Cambria-30" x="110.742188"/>
       <use xlink:href="#Cambria-30" x="166.113281"/>
      </g>
     </g>
    </g>
    <g id="ytick_2">
     <g id="line2d_13">
      <path d="M 49.432813 188.822797 
L 272.612813 188.822797 
" clip-path="url(#p3e8e523b0e)" style="fill: none; stroke-dasharray: 0.8,1.32; stroke-dashoffset: 0; stroke: #b0b0b0; stroke-width: 0.8"/>
     </g>
     <g id="line2d_14">
      <g>
       <use xlink:href="#m26c3da08e0" x="49.432813" y="188.822797" style="stroke: #000000; stroke-width: 0.8"/>
      </g>
     </g>
     <g id="text_8">
      <!-- −200 -->
      <g transform="translate(20.282813 192.316547) scale(0.1 -0.1)">
       <use xlink:href="#Cambria-2212"/>
       <use xlink:href="#Cambria-32" x="55.371094"/>
       <use xlink:href="#Cambria-30" x="110.742188"/>
       <use xlink:href="#Cambria-30" x="166.113281"/>
      </g>
     </g>
    </g>
    <g id="ytick_3">
     <g id="line2d_15">
      <path d="M 49.432813 139.903604 
L 272.612813 139.903604 
" clip-path="url(#p3e8e523b0e)" style="fill: none; stroke-dasharray: 0.8,1.32; stroke-dashoffset: 0; stroke: #b0b0b0; stroke-width: 0.8"/>
     </g>
     <g id="line2d_16">
      <g>
       <use xlink:href="#m26c3da08e0" x="49.432813" y="139.903604" style="stroke: #000000; stroke-width: 0.8"/>
      </g>
     </g>
     <g id="text_9">
      <!-- 0 -->
      <g transform="translate(36.895313 143.397354) scale(0.1 -0.1)">
       <use xlink:href="#Cambria-30"/>
      </g>
     </g>
    </g>
    <g id="ytick_4">
     <g id="line2d_17">
      <path d="M 49.432813 90.984411 
L 272.612813 90.984411 
" clip-path="url(#p3e8e523b0e)" style="fill: none; stroke-dasharray: 0.8,1.32; stroke-dashoffset: 0; stroke: #b0b0b0; stroke-width: 0.8"/>
     </g>
     <g id="line2d_18">
      <g>
       <use xlink:href="#m26c3da08e0" x="49.432813" y="90.984411" style="stroke: #000000; stroke-width: 0.8"/>
      </g>
     </g>
     <g id="text_10">
      <!-- 200 -->
      <g transform="translate(25.820313 94.478161) scale(0.1 -0.1)">
       <use xlink:href="#Cambria-32"/>
       <use xlink:href="#Cambria-30" x="55.371094"/>
       <use xlink:href="#Cambria-30" x="110.742188"/>
      </g>
     </g>
    </g>
    <g id="ytick_5">
     <g id="line2d_19">
      <path d="M 49.432813 42.065217 
L 272.612813 42.065217 
" clip-path="url(#p3e8e523b0e)" style="fill: none; stroke-dasharray: 0.8,1.32; stroke-dashoffset: 0; stroke: #b0b0b0; stroke-width: 0.8"/>
     </g>
     <g id="line2d_20">
      <g>
       <use xlink:href="#m26c3da08e0" x="49.432813" y="42.065217" style="stroke: #000000; stroke-width: 0.8"/>
      </g>
     </g>
     <g id="text_11">
      <!-- 400 -->
      <g transform="translate(25.820313 45.558967) scale(0.1 -0.1)">
       <use xlink:href="#Cambria-34"/>
       <use xlink:href="#Cambria-30" x="55.371094"/>
       <use xlink:href="#Cambria-30" x="110.742188"/>
      </g>
     </g>
    </g>
    <g id="text_12">
     <!-- Base Shear (kN) -->
     <g transform="translate(14.14375 172.013437) rotate(-90) scale(0.1 -0.1)">
      <defs>
       <path id="TimesNewRomanPSMT-42" d="M 2956 2163 
Q 3397 2069 3616 1863 
Q 3919 1575 3919 1159 
Q 3919 844 3719 555 
Q 3519 266 3170 133 
Q 2822 0 2106 0 
L 106 0 
L 106 116 
L 266 116 
Q 531 116 647 284 
Q 719 394 719 750 
L 719 3488 
Q 719 3881 628 3984 
Q 506 4122 266 4122 
L 106 4122 
L 106 4238 
L 1938 4238 
Q 2450 4238 2759 4163 
Q 3228 4050 3475 3764 
Q 3722 3478 3722 3106 
Q 3722 2788 3528 2536 
Q 3334 2284 2956 2163 
z
M 1319 2331 
Q 1434 2309 1582 2298 
Q 1731 2288 1909 2288 
Q 2366 2288 2595 2386 
Q 2825 2484 2947 2687 
Q 3069 2891 3069 3131 
Q 3069 3503 2766 3765 
Q 2463 4028 1881 4028 
Q 1569 4028 1319 3959 
L 1319 2331 
z
M 1319 306 
Q 1681 222 2034 222 
Q 2600 222 2897 476 
Q 3194 731 3194 1106 
Q 3194 1353 3059 1581 
Q 2925 1809 2622 1940 
Q 2319 2072 1872 2072 
Q 1678 2072 1540 2065 
Q 1403 2059 1319 2044 
L 1319 306 
z
" transform="scale(0.015625)"/>
       <path id="TimesNewRomanPSMT-53" d="M 2934 4334 
L 2934 2869 
L 2819 2869 
Q 2763 3291 2617 3541 
Q 2472 3791 2203 3937 
Q 1934 4084 1647 4084 
Q 1322 4084 1109 3886 
Q 897 3688 897 3434 
Q 897 3241 1031 3081 
Q 1225 2847 1953 2456 
Q 2547 2138 2764 1967 
Q 2981 1797 3098 1565 
Q 3216 1334 3216 1081 
Q 3216 600 2842 251 
Q 2469 -97 1881 -97 
Q 1697 -97 1534 -69 
Q 1438 -53 1133 45 
Q 828 144 747 144 
Q 669 144 623 97 
Q 578 50 556 -97 
L 441 -97 
L 441 1356 
L 556 1356 
Q 638 900 775 673 
Q 913 447 1195 297 
Q 1478 147 1816 147 
Q 2206 147 2432 353 
Q 2659 559 2659 841 
Q 2659 997 2573 1156 
Q 2488 1316 2306 1453 
Q 2184 1547 1640 1851 
Q 1097 2156 867 2337 
Q 638 2519 519 2737 
Q 400 2956 400 3219 
Q 400 3675 750 4004 
Q 1100 4334 1641 4334 
Q 1978 4334 2356 4169 
Q 2531 4091 2603 4091 
Q 2684 4091 2736 4139 
Q 2788 4188 2819 4334 
L 2934 4334 
z
" transform="scale(0.015625)"/>
       <path id="TimesNewRomanPSMT-68" d="M 1041 4444 
L 1041 2350 
Q 1388 2731 1591 2839 
Q 1794 2947 1997 2947 
Q 2241 2947 2416 2812 
Q 2591 2678 2675 2391 
Q 2734 2191 2734 1659 
L 2734 647 
Q 2734 375 2778 275 
Q 2809 200 2884 156 
Q 2959 113 3159 113 
L 3159 0 
L 1753 0 
L 1753 113 
L 1819 113 
Q 2019 113 2097 173 
Q 2175 234 2206 353 
Q 2216 403 2216 647 
L 2216 1659 
Q 2216 2128 2167 2275 
Q 2119 2422 2012 2495 
Q 1906 2569 1756 2569 
Q 1603 2569 1437 2487 
Q 1272 2406 1041 2159 
L 1041 647 
Q 1041 353 1073 281 
Q 1106 209 1195 161 
Q 1284 113 1503 113 
L 1503 0 
L 84 0 
L 84 113 
Q 275 113 384 172 
Q 447 203 484 290 
Q 522 378 522 647 
L 522 3238 
Q 522 3728 498 3840 
Q 475 3953 426 3993 
Q 378 4034 297 4034 
Q 231 4034 84 3984 
L 41 4094 
L 897 4444 
L 1041 4444 
z
" transform="scale(0.015625)"/>
       <path id="TimesNewRomanPSMT-72" d="M 1038 2947 
L 1038 2303 
Q 1397 2947 1775 2947 
Q 1947 2947 2059 2842 
Q 2172 2738 2172 2600 
Q 2172 2478 2090 2393 
Q 2009 2309 1897 2309 
Q 1788 2309 1652 2417 
Q 1516 2525 1450 2525 
Q 1394 2525 1328 2463 
Q 1188 2334 1038 2041 
L 1038 669 
Q 1038 431 1097 309 
Q 1138 225 1241 169 
Q 1344 113 1538 113 
L 1538 0 
L 72 0 
L 72 113 
Q 291 113 397 181 
Q 475 231 506 341 
Q 522 394 522 644 
L 522 1753 
Q 522 2253 501 2348 
Q 481 2444 426 2487 
Q 372 2531 291 2531 
Q 194 2531 72 2484 
L 41 2597 
L 906 2947 
L 1038 2947 
z
" transform="scale(0.015625)"/>
       <path id="TimesNewRomanPSMT-6b" d="M 1047 4444 
L 1047 1597 
L 1775 2259 
Q 2006 2472 2044 2528 
Q 2069 2566 2069 2603 
Q 2069 2666 2017 2711 
Q 1966 2756 1847 2763 
L 1847 2863 
L 3091 2863 
L 3091 2763 
Q 2834 2756 2664 2684 
Q 2494 2613 2291 2428 
L 1556 1750 
L 2291 822 
Q 2597 438 2703 334 
Q 2853 188 2966 144 
Q 3044 113 3238 113 
L 3238 0 
L 1847 0 
L 1847 113 
Q 1966 116 2008 148 
Q 2050 181 2050 241 
Q 2050 313 1925 472 
L 1047 1594 
L 1047 644 
Q 1047 366 1086 278 
Q 1125 191 1197 153 
Q 1269 116 1509 113 
L 1509 0 
L 53 0 
L 53 113 
Q 272 113 381 166 
Q 447 200 481 272 
Q 528 375 528 628 
L 528 3234 
Q 528 3731 506 3842 
Q 484 3953 434 3995 
Q 384 4038 303 4038 
Q 238 4038 106 3984 
L 53 4094 
L 903 4444 
L 1047 4444 
z
" transform="scale(0.015625)"/>
       <path id="TimesNewRomanPSMT-4e" d="M -84 4238 
L 1066 4238 
L 3656 1059 
L 3656 3503 
Q 3656 3894 3569 3991 
Q 3453 4122 3203 4122 
L 3056 4122 
L 3056 4238 
L 4531 4238 
L 4531 4122 
L 4381 4122 
Q 4113 4122 4000 3959 
Q 3931 3859 3931 3503 
L 3931 -69 
L 3819 -69 
L 1025 3344 
L 1025 734 
Q 1025 344 1109 247 
Q 1228 116 1475 116 
L 1625 116 
L 1625 0 
L 150 0 
L 150 116 
L 297 116 
Q 569 116 681 278 
Q 750 378 750 734 
L 750 3681 
Q 566 3897 470 3965 
Q 375 4034 191 4094 
Q 100 4122 -84 4122 
L -84 4238 
z
" transform="scale(0.015625)"/>
      </defs>
      <use xlink:href="#TimesNewRomanPSMT-42"/>
      <use xlink:href="#TimesNewRomanPSMT-61" x="66.699219"/>
      <use xlink:href="#TimesNewRomanPSMT-73" x="111.083984"/>
      <use xlink:href="#TimesNewRomanPSMT-65" x="150"/>
      <use xlink:href="#TimesNewRomanPSMT-20" x="194.384766"/>
      <use xlink:href="#TimesNewRomanPSMT-53" x="219.384766"/>
      <use xlink:href="#TimesNewRomanPSMT-68" x="275"/>
      <use xlink:href="#TimesNewRomanPSMT-65" x="325"/>
      <use xlink:href="#TimesNewRomanPSMT-61" x="369.384766"/>
      <use xlink:href="#TimesNewRomanPSMT-72" x="413.769531"/>
      <use xlink:href="#TimesNewRomanPSMT-20" x="447.070312"/>
      <use xlink:href="#TimesNewRomanPSMT-28" x="472.070312"/>
      <use xlink:href="#TimesNewRomanPSMT-6b" x="505.371094"/>
      <use xlink:href="#TimesNewRomanPSMT-4e" x="555.371094"/>
      <use xlink:href="#TimesNewRomanPSMT-29" x="627.587891"/>
     </g>
    </g>
   </g>
   <g id="line2d_21">
    <path d="M 161.023161 139.903604 
L 163.144009 99.145464 
L 164.193949 82.786385 
L 165.231355 72.477165 
L 166.252124 65.326359 
L 167.252224 59.690259 
L 169.174693 50.782778 
L 170.089464 47.137699 
L 171.808009 43.352258 
L 173.356188 41.587447 
L 174.709543 40.385251 
L 176.328442 39.536293 
L 177.898768 38.947711 
L 177.930795 38.940946 
L 177.626662 41.139329 
L 177.095056 44.037667 
L 176.309565 46.777275 
L 173.325841 55.778736 
L 168.187596 72.972047 
L 167.211017 77.381651 
L 166.209977 83.113749 
L 165.188433 90.034895 
L 164.150423 99.266269 
L 163.100051 112.433426 
L 162.041468 129.016825 
L 159.916427 166.182545 
L 158.858369 183.023594 
L 157.808868 197.444898 
L 156.772074 206.931711 
L 155.752086 212.678352 
L 154.752934 217.333292 
L 152.832844 224.244975 
L 151.919496 227.022544 
L 150.204231 231.215599 
L 148.659872 234.304683 
L 146.716313 237.654329 
L 144.631166 240.568198 
L 144.115643 241.154167 
L 144.664245 236.96845 
L 145.755739 230.561648 
L 147.388989 223.007107 
L 151.149717 206.618147 
L 152.031769 202.350886 
L 152.949365 197.338797 
L 153.898877 191.33561 
L 154.876553 184.204273 
L 155.878527 175.738236 
L 156.900838 165.998511 
L 157.939446 155.016833 
L 160.049078 129.234337 
L 162.174097 102.018836 
L 163.231882 90.102762 
L 164.280935 81.048866 
L 165.31711 74.662403 
L 166.336311 69.646147 
L 167.334508 65.376725 
L 169.252206 58.626064 
L 171.03991 53.239722 
L 172.669381 49.086725 
L 174.761378 44.441113 
L 176.365881 41.352162 
L 177.930446 38.938153 
L 177.370826 42.610791 
L 176.271496 48.726554 
L 174.631087 56.518312 
L 172.507809 66.990853 
L 169.058005 85.420749 
L 168.107244 91.018686 
L 167.128478 97.464844 
L 166.125577 105.060865 
L 165.102505 113.98076 
L 163.012091 135.659772 
L 158.770526 184.418076 
L 157.721927 193.950967 
L 156.686377 200.491123 
L 155.667972 205.583497 
L 153.698613 213.566472 
L 151.844959 219.885053 
L 150.136292 224.777117 
L 147.903454 230.156437 
L 145.661879 234.941455 
L 144.116223 237.899237 
L 145.362569 230.234639 
L 146.835578 222.979942 
L 148.812025 213.851152 
L 151.221778 201.753429 
L 153.027323 191.411129 
L 153.979327 185.163112 
L 154.959177 177.93782 
L 156.986823 160.329994 
L 159.07823 137.70131 
L 161.377563 110.662043 
L 163.501794 88.908708 
L 165.616227 76.552849 
L 167.712503 68.138861 
L 169.782335 61.389069 
L 171.817541 55.612932 
L 173.810076 50.860515 
L 175.752062 46.658101 
L 177.635823 43.01305 
L 179.453912 40.081334 
L 181.199142 37.990237 
L 182.864614 36.388091 
L 184.443744 35.239383 
L 185.930289 34.353502 
L 188.602509 33.117923 
L 190.839061 32.346172 
L 193.301749 31.789654 
L 194.836107 31.577216 
L 194.16142 35.358437 
L 193.05514 40.765955 
L 191.442855 47.676898 
L 188.133471 60.134049 
L 183.862092 75.355885 
L 182.249834 80.523117 
L 180.553664 85.514168 
L 178.780287 90.272932 
L 176.936714 94.789028 
L 171.058911 108.109503 
L 169.009769 113.379206 
L 166.929055 120.662452 
L 164.824995 133.640099 
L 162.705905 150.983764 
L 158.456172 191.114662 
L 156.342329 203.255381 
L 154.24699 211.297477 
L 152.178438 217.895533 
L 150.144851 223.422867 
L 148.154266 227.870177 
L 146.214554 231.840726 
L 144.333383 235.403826 
L 142.518188 238.085731 
L 140.776145 240.229657 
L 139.114142 241.949825 
L 137.538748 243.181288 
L 136.05619 244.082065 
L 134.672331 244.739401 
L 132.222175 245.553223 
L 130.226984 245.973306 
L 127.211375 246.359034 
L 127.902657 242.497051 
L 129.019684 237.11818 
L 130.642267 230.339022 
L 133.965901 217.979222 
L 136.723789 208.347716 
L 138.249647 203.267335 
L 139.865531 198.289535 
L 141.565055 193.56014 
L 145.18784 184.382361 
L 151.072055 169.031923 
L 153.122675 162.79404 
L 155.204527 153.974962 
L 157.30938 139.876032 
L 159.428915 122.856526 
L 161.554751 104.167741 
L 163.678487 89.217132 
L 165.791725 80.517786 
L 167.886113 73.920818 
L 169.95337 68.555954 
L 171.985326 63.965773 
L 173.973946 59.831916 
L 175.91137 56.507215 
L 179.602228 50.815511 
L 182.999594 46.109057 
L 184.571242 44.17721 
L 187.429427 41.234657 
L 189.870476 38.97884 
L 193.912908 35.698846 
L 194.833553 35.021638 
L 194.125683 38.725184 
L 192.243188 47.325994 
L 190.366956 54.764748 
L 186.694749 68.412675 
L 183.7311 78.503945 
L 182.111601 83.53696 
L 180.408736 88.41072 
L 178.629238 93.065024 
L 174.868754 101.928118 
L 172.902635 106.563164 
L 168.837469 117.186724 
L 166.754494 126.678581 
L 164.648863 139.602104 
L 162.528898 155.612598 
L 160.402981 173.445085 
L 158.279516 189.147295 
L 156.166896 198.528157 
L 154.073474 205.364113 
L 152.007525 210.912393 
L 149.977216 215.694557 
L 147.990573 219.875687 
L 146.05545 223.179899 
L 142.370127 228.839445 
L 138.979463 233.522417 
L 137.411572 235.351729 
L 134.561639 238.173273 
L 131.082786 241.214853 
L 127.689623 243.894095 
L 127.214393 244.223726 
L 128.443704 238.026519 
L 129.837281 231.912252 
L 131.723499 224.622412 
L 135.40933 211.334858 
L 138.380951 201.618913 
L 140.004054 196.841227 
L 147.258449 177.670845 
L 149.226682 172.680638 
L 151.241548 167.138984 
L 153.295083 161.140375 
L 155.379167 151.070852 
L 157.485563 137.239759 
L 159.605943 120.809832 
L 162.086308 100.549824 
L 165.271079 83.955785 
L 168.439058 74.375787 
L 171.57772 66.994517 
L 174.67466 60.74987 
L 177.717633 55.736845 
L 180.69461 51.430544 
L 183.593824 47.55914 
L 186.403814 44.12919 
L 189.11347 41.390613 
L 191.712082 39.027789 
L 196.535561 35.304912 
L 198.74136 33.806169 
L 200.798055 32.947414 
L 204.432229 32.517152 
L 211.733526 31.940486 
L 210.621975 37.206492 
L 208.898135 44.399562 
L 206.41802 53.388978 
L 203.220808 63.966075 
L 201.368652 69.710308 
L 199.357005 75.406106 
L 197.193819 81.002597 
L 194.887646 86.090868 
L 192.447603 90.548102 
L 187.204979 98.785981 
L 184.423123 103.023667 
L 181.548763 107.160007 
L 178.593264 111.156181 
L 175.568308 114.480084 
L 172.485852 119.026558 
L 169.358084 126.770569 
L 166.197366 139.769382 
L 163.016194 159.071991 
L 159.827144 181.212285 
L 156.642821 197.647984 
L 153.475814 206.871487 
L 150.338643 214.005664 
L 147.24371 220.054245 
L 144.203248 224.723556 
L 141.229277 228.815483 
L 138.333555 232.463806 
L 135.527527 235.529059 
L 132.822286 238.078572 
L 127.756504 242.176198 
L 125.415987 243.876979 
L 123.21623 245.241299 
L 121.165929 245.593815 
L 114.611865 246.039571 
L 113.417533 239.045391 
L 112.411392 239.574392 
L 110.315929 239.631856 
L 110.874795 237.141481 
L 112.225849 231.622361 
L 114.347748 223.784217 
L 117.206973 213.66247 
L 118.899405 208.034187 
L 122.776481 196.357771 
L 124.945799 190.562594 
L 127.257736 185.116254 
L 129.703151 180.161078 
L 132.272379 176.010271 
L 134.955262 172.235711 
L 137.741195 169.28824 
L 140.619164 165.629015 
L 143.577793 160.632461 
L 146.605385 155.161999 
L 149.689973 149.174223 
L 152.819363 140.288874 
L 155.981183 127.302742 
L 162.35204 94.276036 
L 165.535892 82.753133 
L 168.701905 75.630639 
L 171.837562 69.889418 
L 174.930469 65.062604 
L 177.968399 60.872856 
L 180.939342 57.0795 
L 183.831554 53.891792 
L 189.334407 48.85831 
L 196.724863 42.49207 
L 200.962456 39.076223 
L 204.569133 36.709485 
L 207.487919 34.904335 
L 208.674499 35.143537 
L 211.726911 36.16055 
L 210.565644 41.383259 
L 208.809664 48.500031 
L 206.298807 57.537183 
L 203.072736 68.41595 
L 201.207001 74.258335 
L 199.182413 80.194064 
L 197.006977 86.182175 
L 194.689293 91.933015 
L 192.238522 97.334413 
L 189.664353 102.302581 
L 186.976961 106.746373 
L 184.186971 110.911799 
L 181.305412 113.762031 
L 178.343674 118.539838 
L 175.313466 123.7902 
L 172.226766 130.131243 
L 169.095777 138.802783 
L 165.932877 150.590642 
L 162.750567 164.80401 
L 159.561429 179.611791 
L 156.378069 190.264219 
L 153.213072 197.373556 
L 150.078949 203.026738 
L 146.98809 207.906482 
L 143.952713 212.278959 
L 138.096138 219.353718 
L 132.601737 225.385747 
L 130.017738 227.936534 
L 127.556307 230.173965 
L 125.227174 232.075641 
L 121.002076 235.211997 
L 114.50526 239.569619 
L 110.936186 242.140501 
L 110.323241 241.989108 
L 111.509353 236.511979 
L 113.281385 229.269622 
L 115.807587 220.178294 
L 119.048054 209.40771 
L 122.951597 197.411316 
L 125.133136 191.497652 
L 127.456552 185.773676 
L 129.912662 180.449454 
L 132.491755 175.571008 
L 135.183636 170.894915 
L 137.977665 166.736462 
L 143.827622 156.486261 
L 146.860424 150.89778 
L 149.949214 144.326708 
L 153.081781 135.27164 
L 156.245741 123.546346 
L 159.428586 109.946446 
L 163.14926 94.612281 
L 167.393054 83.329331 
L 171.611667 75.818343 
L 175.788423 69.801885 
L 179.906809 64.549541 
L 183.950546 60.095965 
L 187.903649 55.979638 
L 191.750489 52.219896 
L 195.47586 49.053824 
L 211.785245 36.852559 
L 214.493294 37.366052 
L 219.2654 38.817049 
L 221.310592 51.344592 
L 224.678862 53.082198 
L 225.988625 77.133872 
L 228.623054 73.297834 
L 228.617483 73.328884 
L 227.805793 75.752347 
L 227.002883 77.865196 
L 225.939146 80.253052 
L 223.047029 86.150717 
L 221.230081 90.328818 
L 214.384608 110.687082 
L 211.667978 117.832708 
L 208.751143 124.812143 
L 205.645633 130.677095 
L 198.918392 138.5174 
L 195.323255 143.281666 
L 187.74095 154.019705 
L 183.783757 159.1871 
L 179.736588 163.970072 
L 175.615443 170.308187 
L 171.436612 177.476027 
L 167.216616 183.634442 
L 162.972137 190.095689 
L 158.719952 196.009993 
L 150.259672 206.243957 
L 146.08502 211.04588 
L 141.969421 215.406436 
L 130.13808 227.283336 
L 126.418093 230.725476 
L 122.834905 233.531398 
L 119.402679 235.830721 
L 116.134984 237.800673 
L 113.044739 239.804149 
L 110.144158 241.886944 
L 107.444708 242.0767 
L 104.95706 241.05036 
L 102.691049 144.20241 
L 94.966517 144.95649 
L 93.6687 145.100593 
L 93.418161 145.128051 
L 93.434873 145.074419 
L 93.71877 144.714318 
L 96.1571 143.260711 
L 97.488044 142.585161 
L 99.07015 143.089899 
L 100.897165 143.410543 
L 102.961865 143.338131 
L 107.770767 140.929198 
L 130.61197 136.764748 
L 138.42951 135.032726 
L 146.603959 132.407865 
L 150.784835 131.561581 
L 155.006186 130.145216 
L 167.745798 127.710516 
L 171.961558 126.540532 
L 176.134077 125.638446 
L 180.246861 124.634529 
L 188.22849 123.506357 
L 199.357536 122.254869 
L 217.188169 120.554528 
L 228.632803 119.49935 
L 228.60495 119.619656 
L 227.748931 123.176702 
L 226.924149 126.274095 
L 225.838852 129.910985 
L 224.497331 133.593415 
L 222.904889 136.848077 
L 221.06782 139.435996 
L 218.993387 141.319069 
L 216.68979 142.654538 
L 214.166136 143.615514 
L 211.432401 144.337462 
L 208.499392 142.211119 
L 187.415005 144.455628 
L 175.269184 145.366521 
L 171.086289 146.495828 
L 158.365783 147.845159 
L 141.629632 149.834125 
L 112.795616 151.710791 
L 93.40934 153.153904 
L 93.448335 153.06805 
L 94.32651 151.096776 
L 95.162218 149.432552 
L 96.258283 147.587984 
L 97.610373 145.703568 
L 99.21314 144.002078 
L 101.060251 142.369413 
L 103.144403 140.95168 
L 105.457356 139.978452 
L 110.732228 138.726921 
L 120.104599 136.883376 
L 134.794561 134.293609 
L 151.135298 131.578599 
L 155.35927 130.961909 
L 159.605631 130.843564 
L 164.566206 129.748602 
L 169.867156 128.220594 
L 175.133145 126.920932 
L 180.343356 125.900771 
L 190.514357 124.43124 
L 195.43494 123.805692 
L 225.057736 120.999006 
L 245.54508 119.426247 
L 244.357004 122.710272 
L 241.915183 128.896422 
L 240.211874 132.59621 
L 238.195521 136.355768 
L 235.874097 139.965129 
L 233.256777 143.232524 
L 230.353908 145.986401 
L 227.176966 148.246016 
L 223.73851 150.031892 
L 220.052132 151.224079 
L 216.132405 151.384953 
L 211.994824 151.151215 
L 207.655746 151.031933 
L 203.132323 151.083171 
L 198.442438 151.344753 
L 193.604629 151.786409 
L 162.57361 155.393868 
L 141.487389 157.513122 
L 108.30206 160.497193 
L 76.497179 163.191836 
L 77.72686 160.208013 
L 80.195767 154.663174 
L 81.912263 151.170508 
L 83.941495 147.468473 
L 86.27544 143.791613 
L 88.904872 140.326761 
L 91.819398 137.222618 
L 95.007494 134.541065 
L 98.456559 132.265506 
L 102.152957 130.31818 
L 106.082077 128.677807 
L 110.228385 127.301904 
L 114.575492 126.082102 
L 119.106213 124.959012 
L 123.802637 123.959814 
L 133.617749 122.238013 
L 138.697637 121.513489 
L 149.10175 120.452207 
L 159.694184 119.652486 
L 185.900925 117.853502 
L 190.92913 117.436306 
L 195.839113 116.872098 
L 209.668426 115.923439 
L 245.552624 114.012657 
L 243.195778 120.476948 
L 241.78537 123.974903 
L 240.055699 127.886625 
L 238.013603 131.961727 
L 235.667153 135.977102 
L 233.025626 139.758414 
L 230.099465 143.194889 
L 226.900236 146.205023 
L 223.440586 148.821567 
L 219.734193 151.080798 
L 215.795707 153.033541 
L 211.640699 154.704303 
L 207.285593 156.201198 
L 202.747606 157.530593 
L 198.044677 158.632419 
L 193.195397 159.1719 
L 188.218936 157.09002 
L 183.134967 158.947601 
L 172.725239 159.847488 
L 162.130655 161.109093 
L 146.258425 162.620046 
L 126.00548 164.220938 
L 100.120899 165.984827 
L 76.490796 167.436321 
L 78.90286 162.399035 
L 82.069524 155.962834 
L 84.124471 152.064986 
L 86.483409 148.039806 
L 89.137012 144.103852 
L 92.07479 140.409946 
L 95.28513 137.082991 
L 98.75534 134.141955 
L 102.471703 131.581977 
L 106.419528 129.380318 
L 110.583207 127.521501 
L 114.946282 125.952256 
L 119.491505 124.624741 
L 124.200907 123.451565 
L 129.055873 122.429796 
L 139.125225 120.782826 
L 149.540495 119.37136 
L 154.826578 118.779431 
L 166.336852 117.795479 
L 172.692744 117.0414 
L 185.241189 115.883837 
L 203.286163 114.536156 
L 214.520565 113.939559 
L 262.464785 111.06903 
L 261.78025 112.931201 
L 260.839451 114.876632 
L 257.779375 120.806898 
L 255.672193 124.811834 
L 253.190851 129.124573 
L 250.345159 133.587887 
L 247.146366 137.862677 
L 243.607117 141.720757 
L 239.741403 145.047078 
L 235.564506 147.851277 
L 231.092938 150.211105 
L 226.344375 152.206907 
L 221.337588 153.90678 
L 216.092371 155.370073 
L 210.629459 156.649847 
L 193.154292 160.077587 
L 187.04386 160.338276 
L 180.830565 161.264785 
L 168.193944 162.623969 
L 155.444046 163.721902 
L 136.547095 165.085479 
L 112.814092 166.567893 
L 79.375602 168.417424 
L 59.579447 169.434264 
L 61.254664 165.975925 
L 66.470111 155.805101 
L 68.966839 151.40933 
L 71.827478 146.992143 
L 75.040719 142.753269 
L 78.593859 138.916015 
L 82.472853 135.526685 
L 86.662366 132.572436 
L 91.145837 130.046949 
L 95.905541 127.89205 
L 100.922664 126.086766 
L 106.177372 124.540113 
L 111.648892 123.214612 
L 117.315595 122.007082 
L 123.155079 120.941588 
L 129.144261 119.987594 
L 135.259464 119.144978 
L 147.770835 117.759985 
L 154.117543 117.1464 
L 160.491551 116.676045 
L 166.86766 116.079475 
L 179.525451 115.349321 
L 230.125888 112.196054 
L 262.468267 110.371053 
L 261.717022 111.875085 
L 260.743178 113.682957 
L 257.61828 118.861527 
L 252.967481 127.046225 
L 250.091915 131.647897 
L 246.864248 136.142989 
L 243.297241 140.27117 
L 239.404994 143.872698 
L 235.202894 146.90145 
L 230.707552 149.425185 
L 225.936739 151.535233 
L 220.909314 153.310155 
L 215.645151 154.829414 
L 210.165061 156.14752 
L 204.490707 157.313938 
L 192.649611 159.434909 
L 186.529678 160.132302 
L 180.308915 161.049851 
L 161.288967 163.370277 
L 148.561821 164.441557 
L 129.902261 165.754354 
L 101.566927 167.4506 
L 62.802833 169.48573 
L 59.577358 169.646275 
L 61.352308 166.145549 
L 66.664022 156.117116 
L 69.191473 151.724366 
L 72.081947 147.258069 
L 75.324017 142.997973 
L 78.904866 139.128785 
L 82.810339 135.719513 
L 87.024998 132.751745 
L 91.532181 130.214287 
L 96.31407 128.043712 
L 101.351763 126.219621 
L 106.625344 124.656264 
L 112.113966 123.296692 
L 117.795933 122.098059 
L 129.649378 119.940735 
L 135.773998 119.045568 
L 141.998431 118.359903 
L 154.648015 117.246727 
L 154.648015 117.246727 
" clip-path="url(#p3e8e523b0e)" style="fill: none; stroke: #3152a1; stroke-width: 1.5; stroke-linecap: square"/>
   </g>
   <g id="line2d_22">
    <path d="M 49.432813 139.903604 
L 272.612813 139.903604 
" clip-path="url(#p3e8e523b0e)" style="fill: none; stroke: #000000; stroke-width: 0.4; stroke-linecap: square"/>
   </g>
   <g id="line2d_23">
    <path d="M 161.023161 257.098125 
L 161.023161 20.838125 
" clip-path="url(#p3e8e523b0e)" style="fill: none; stroke: #000000; stroke-width: 0.4; stroke-linecap: square"/>
   </g>
   <g id="patch_3">
    <path d="M 49.432813 257.098125 
L 49.432813 20.838125 
" style="fill: none; stroke: #000000; stroke-width: 0.8; stroke-linejoin: miter; stroke-linecap: square"/>
   </g>
   <g id="patch_4">
    <path d="M 272.612813 257.098125 
L 272.612813 20.838125 
" style="fill: none; stroke: #000000; stroke-width: 0.8; stroke-linejoin: miter; stroke-linecap: square"/>
   </g>
   <g id="patch_5">
    <path d="M 49.432812 257.098125 
L 272.612812 257.098125 
" style="fill: none; stroke: #000000; stroke-width: 0.8; stroke-linejoin: miter; stroke-linecap: square"/>
   </g>
   <g id="patch_6">
    <path d="M 49.432812 20.838125 
L 272.612812 20.838125 
" style="fill: none; stroke: #000000; stroke-width: 0.8; stroke-linejoin: miter; stroke-linecap: square"/>
   </g>
   <g id="text_13">
    <!-- Specimen : Xiangyu_SW -->
    <g transform="translate(105.114453 14.838125) scale(0.11 -0.11)">
     <defs>
      <path id="TimesNewRomanPSMT-3a" d="M 903 2950 
Q 1047 2950 1148 2848 
Q 1250 2747 1250 2603 
Q 1250 2459 1148 2357 
Q 1047 2256 903 2256 
Q 759 2256 657 2357 
Q 556 2459 556 2603 
Q 556 2747 657 2848 
Q 759 2950 903 2950 
z
M 897 609 
Q 1044 609 1145 506 
Q 1247 403 1247 259 
Q 1247 116 1144 14 
Q 1041 -88 897 -88 
Q 753 -88 651 14 
Q 550 116 550 259 
Q 550 403 651 506 
Q 753 609 897 609 
z
" transform="scale(0.015625)"/>
      <path id="TimesNewRomanPSMT-58" d="M 2613 2347 
L 3522 991 
Q 3900 428 4083 279 
Q 4266 131 4547 116 
L 4547 0 
L 2728 0 
L 2728 116 
Q 2909 119 2997 153 
Q 3063 181 3105 239 
Q 3147 297 3147 356 
Q 3147 428 3119 500 
Q 3097 553 2947 775 
L 2228 1863 
L 1341 725 
Q 1200 544 1172 483 
Q 1144 422 1144 356 
Q 1144 256 1228 190 
Q 1313 125 1550 116 
L 1550 0 
L 47 0 
L 47 116 
Q 206 131 322 181 
Q 516 263 691 400 
Q 866 538 1091 822 
L 2091 2084 
L 1256 3306 
Q 916 3803 678 3958 
Q 441 4113 131 4122 
L 131 4238 
L 2091 4238 
L 2091 4122 
Q 1841 4113 1748 4041 
Q 1656 3969 1656 3881 
Q 1656 3766 1806 3544 
L 2456 2572 
L 3209 3525 
Q 3341 3694 3370 3756 
Q 3400 3819 3400 3884 
Q 3400 3950 3363 4000 
Q 3316 4066 3244 4092 
Q 3172 4119 2947 4122 
L 2947 4238 
L 4450 4238 
L 4450 4122 
Q 4272 4113 4159 4066 
Q 3991 3994 3850 3872 
Q 3709 3750 3453 3422 
L 2613 2347 
z
" transform="scale(0.015625)"/>
      <path id="TimesNewRomanPSMT-67" d="M 966 1044 
Q 703 1172 562 1401 
Q 422 1631 422 1909 
Q 422 2334 742 2640 
Q 1063 2947 1563 2947 
Q 1972 2947 2272 2747 
L 2878 2747 
Q 3013 2747 3034 2739 
Q 3056 2731 3066 2713 
Q 3084 2684 3084 2613 
Q 3084 2531 3069 2500 
Q 3059 2484 3036 2475 
Q 3013 2466 2878 2466 
L 2506 2466 
Q 2681 2241 2681 1891 
Q 2681 1491 2375 1206 
Q 2069 922 1553 922 
Q 1341 922 1119 984 
Q 981 866 932 777 
Q 884 688 884 625 
Q 884 572 936 522 
Q 988 472 1138 450 
Q 1225 438 1575 428 
Q 2219 413 2409 384 
Q 2700 344 2873 169 
Q 3047 -6 3047 -263 
Q 3047 -616 2716 -925 
Q 2228 -1381 1444 -1381 
Q 841 -1381 425 -1109 
Q 191 -953 191 -784 
Q 191 -709 225 -634 
Q 278 -519 444 -313 
Q 466 -284 763 25 
Q 600 122 533 198 
Q 466 275 466 372 
Q 466 481 555 628 
Q 644 775 966 1044 
z
M 1509 2797 
Q 1278 2797 1122 2612 
Q 966 2428 966 2047 
Q 966 1553 1178 1281 
Q 1341 1075 1591 1075 
Q 1828 1075 1981 1253 
Q 2134 1431 2134 1813 
Q 2134 2309 1919 2591 
Q 1759 2797 1509 2797 
z
M 934 0 
Q 788 -159 713 -296 
Q 638 -434 638 -550 
Q 638 -700 819 -813 
Q 1131 -1006 1722 -1006 
Q 2284 -1006 2551 -807 
Q 2819 -609 2819 -384 
Q 2819 -222 2659 -153 
Q 2497 -84 2016 -72 
Q 1313 -53 934 0 
z
" transform="scale(0.015625)"/>
      <path id="TimesNewRomanPSMT-79" d="M 38 2863 
L 1372 2863 
L 1372 2747 
L 1306 2747 
Q 1166 2747 1095 2686 
Q 1025 2625 1025 2534 
Q 1025 2413 1128 2197 
L 1825 753 
L 2466 2334 
Q 2519 2463 2519 2588 
Q 2519 2644 2497 2672 
Q 2472 2706 2419 2726 
Q 2366 2747 2231 2747 
L 2231 2863 
L 3163 2863 
L 3163 2747 
Q 3047 2734 2984 2696 
Q 2922 2659 2847 2556 
Q 2819 2513 2741 2316 
L 1575 -541 
Q 1406 -956 1132 -1168 
Q 859 -1381 606 -1381 
Q 422 -1381 303 -1275 
Q 184 -1169 184 -1031 
Q 184 -900 270 -820 
Q 356 -741 506 -741 
Q 609 -741 788 -809 
Q 913 -856 944 -856 
Q 1038 -856 1148 -759 
Q 1259 -663 1372 -384 
L 1575 113 
L 547 2272 
Q 500 2369 397 2513 
Q 319 2622 269 2659 
Q 197 2709 38 2747 
L 38 2863 
z
" transform="scale(0.015625)"/>
      <path id="TimesNewRomanPSMT-75" d="M 2709 2863 
L 2709 1128 
Q 2709 631 2732 520 
Q 2756 409 2807 365 
Q 2859 322 2928 322 
Q 3025 322 3147 375 
L 3191 266 
L 2334 -88 
L 2194 -88 
L 2194 519 
Q 1825 119 1631 15 
Q 1438 -88 1222 -88 
Q 981 -88 804 51 
Q 628 191 559 409 
Q 491 628 491 1028 
L 491 2306 
Q 491 2509 447 2587 
Q 403 2666 317 2708 
Q 231 2750 6 2747 
L 6 2863 
L 1009 2863 
L 1009 947 
Q 1009 547 1148 422 
Q 1288 297 1484 297 
Q 1619 297 1789 381 
Q 1959 466 2194 703 
L 2194 2325 
Q 2194 2569 2105 2655 
Q 2016 2741 1734 2747 
L 1734 2863 
L 2709 2863 
z
" transform="scale(0.015625)"/>
      <path id="TimesNewRomanPSMT-5f" d="M 3256 -1381 
L -53 -1381 
L -53 -1119 
L 3256 -1119 
L 3256 -1381 
z
" transform="scale(0.015625)"/>
      <path id="TimesNewRomanPSMT-57" d="M 5991 4238 
L 5991 4122 
Q 5825 4122 5722 4062 
Q 5619 4003 5525 3841 
Q 5463 3731 5328 3319 
L 4147 -97 
L 4022 -97 
L 3056 2613 
L 2097 -97 
L 1984 -97 
L 725 3422 
Q 584 3816 547 3888 
Q 484 4006 376 4064 
Q 269 4122 84 4122 
L 84 4238 
L 1653 4238 
L 1653 4122 
L 1578 4122 
Q 1413 4122 1325 4047 
Q 1238 3972 1238 3866 
Q 1238 3756 1375 3363 
L 2209 984 
L 2913 3006 
L 2788 3363 
L 2688 3647 
Q 2622 3803 2541 3922 
Q 2500 3981 2441 4022 
Q 2363 4078 2284 4103 
Q 2225 4122 2097 4122 
L 2097 4238 
L 3747 4238 
L 3747 4122 
L 3634 4122 
Q 3459 4122 3378 4047 
Q 3297 3972 3297 3844 
Q 3297 3684 3438 3288 
L 4250 984 
L 5056 3319 
Q 5194 3706 5194 3856 
Q 5194 3928 5148 3990 
Q 5103 4053 5034 4078 
Q 4916 4122 4725 4122 
L 4725 4238 
L 5991 4238 
z
" transform="scale(0.015625)"/>
     </defs>
     <use xlink:href="#TimesNewRomanPSMT-53"/>
     <use xlink:href="#TimesNewRomanPSMT-70" x="55.615234"/>
     <use xlink:href="#TimesNewRomanPSMT-65" x="105.615234"/>
     <use xlink:href="#TimesNewRomanPSMT-63" x="150"/>
     <use xlink:href="#TimesNewRomanPSMT-69" x="194.384766"/>
     <use xlink:href="#TimesNewRomanPSMT-6d" x="222.167969"/>
     <use xlink:href="#TimesNewRomanPSMT-65" x="299.951172"/>
     <use xlink:href="#TimesNewRomanPSMT-6e" x="344.335938"/>
     <use xlink:href="#TimesNewRomanPSMT-20" x="394.335938"/>
     <use xlink:href="#TimesNewRomanPSMT-3a" x="419.335938"/>
     <use xlink:href="#TimesNewRomanPSMT-20" x="447.119141"/>
     <use xlink:href="#TimesNewRomanPSMT-58" x="472.119141"/>
     <use xlink:href="#TimesNewRomanPSMT-69" x="544.335938"/>
     <use xlink:href="#TimesNewRomanPSMT-61" x="572.119141"/>
     <use xlink:href="#TimesNewRomanPSMT-6e" x="616.503906"/>
     <use xlink:href="#TimesNewRomanPSMT-67" x="666.503906"/>
     <use xlink:href="#TimesNewRomanPSMT-79" x="716.503906"/>
     <use xlink:href="#TimesNewRomanPSMT-75" x="766.503906"/>
     <use xlink:href="#TimesNewRomanPSMT-5f" x="816.503906"/>
     <use xlink:href="#TimesNewRomanPSMT-53" x="866.503906"/>
     <use xlink:href="#TimesNewRomanPSMT-57" x="922.119141"/>
    </g>
   </g>
   <g id="legend_1">
    <g id="patch_7">
     <path d="M 55.263813 39.279964 
L 132.770558 39.279964 
Q 134.436558 39.279964 134.436558 37.613964 
L 134.436558 26.669125 
Q 134.436558 25.003125 132.770558 25.003125 
L 55.263813 25.003125 
Q 53.597813 25.003125 53.597813 26.669125 
L 53.597813 37.613964 
Q 53.597813 39.279964 55.263813 39.279964 
z
" style="fill: #ffffff; opacity: 0.8; stroke: #cccccc; stroke-linejoin: miter"/>
    </g>
    <g id="line2d_24">
     <path d="M 56.929813 31.250625 
L 65.259813 31.250625 
L 73.589813 31.250625 
" style="fill: none; stroke: #3152a1; stroke-width: 1.5; stroke-linecap: square"/>
    </g>
    <g id="text_14">
     <!-- Numerical Test -->
     <g transform="translate(80.253813 34.166125) scale(0.0833 -0.0833)">
      <defs>
       <path id="TimesNewRomanPSMT-54" d="M 3703 4238 
L 3750 3244 
L 3631 3244 
Q 3597 3506 3538 3619 
Q 3441 3800 3280 3886 
Q 3119 3972 2856 3972 
L 2259 3972 
L 2259 734 
Q 2259 344 2344 247 
Q 2463 116 2709 116 
L 2856 116 
L 2856 0 
L 1059 0 
L 1059 116 
L 1209 116 
Q 1478 116 1591 278 
Q 1659 378 1659 734 
L 1659 3972 
L 1150 3972 
Q 853 3972 728 3928 
Q 566 3869 450 3700 
Q 334 3531 313 3244 
L 194 3244 
L 244 4238 
L 3703 4238 
z
" transform="scale(0.015625)"/>
      </defs>
      <use xlink:href="#TimesNewRomanPSMT-4e"/>
      <use xlink:href="#TimesNewRomanPSMT-75" x="72.216797"/>
      <use xlink:href="#TimesNewRomanPSMT-6d" x="122.216797"/>
      <use xlink:href="#TimesNewRomanPSMT-65" x="200"/>
      <use xlink:href="#TimesNewRomanPSMT-72" x="244.384766"/>
      <use xlink:href="#TimesNewRomanPSMT-69" x="277.685547"/>
      <use xlink:href="#TimesNewRomanPSMT-63" x="305.46875"/>
      <use xlink:href="#TimesNewRomanPSMT-61" x="349.853516"/>
      <use xlink:href="#TimesNewRomanPSMT-6c" x="394.238281"/>
      <use xlink:href="#TimesNewRomanPSMT-20" x="422.021484"/>
      <use xlink:href="#TimesNewRomanPSMT-54" x="445.271484"/>
      <use xlink:href="#TimesNewRomanPSMT-65" x="499.355469"/>
      <use xlink:href="#TimesNewRomanPSMT-73" x="543.740234"/>
      <use xlink:href="#TimesNewRomanPSMT-74" x="582.65625"/>
     </g>
    </g>
   </g>
  </g>
 </g>
 <defs>
  <clipPath id="p3e8e523b0e">
   <rect x="49.432813" y="20.838125" width="223.18" height="236.26"/>
  </clipPath>
 </defs>
</svg>
