<?xml version="1.0" encoding="utf-8" standalone="no"?>
<!DOCTYPE svg PUBLIC "-//W3C//DTD SVG 1.1//EN"
  "http://www.w3.org/Graphics/SVG/1.1/DTD/svg11.dtd">
<svg xmlns:xlink="http://www.w3.org/1999/xlink" width="279.722812pt" height="293.468437pt" viewBox="0 0 279.722812 293.468437" xmlns="http://www.w3.org/2000/svg" version="1.1">
 <metadata>
  <rdf:RDF xmlns:dc="http://purl.org/dc/elements/1.1/" xmlns:cc="http://creativecommons.org/ns#" xmlns:rdf="http://www.w3.org/1999/02/22-rdf-syntax-ns#">
   <cc:Work>
    <dc:type rdf:resource="http://purl.org/dc/dcmitype/StillImage"/>
    <dc:date>2025-01-06T13:47:35.114864</dc:date>
    <dc:format>image/svg+xml</dc:format>
    <dc:creator>
     <cc:Agent>
      <dc:title>Matplotlib v3.8.0, https://matplotlib.org/</dc:title>
     </cc:Agent>
    </dc:creator>
   </cc:Work>
  </rdf:RDF>
 </metadata>
 <defs>
  <style type="text/css">*{stroke-linejoin: round; stroke-linecap: butt}</style>
 </defs>
 <g id="figure_1">
  <g id="patch_1">
   <path d="M 0 293.468437 
L 279.722812 293.468437 
L 279.722812 0 
L 0 0 
z
" style="fill: #ffffff"/>
  </g>
  <g id="axes_1">
   <g id="patch_2">
    <path d="M 49.432813 257.098125 
L 272.522812 257.098125 
L 272.522812 20.838125 
L 49.432813 20.838125 
z
" style="fill: #ffffff"/>
   </g>
   <g id="matplotlib.axis_1">
    <g id="xtick_1">
     <g id="line2d_1">
      <path d="M 59.57325 257.098125 
L 59.57325 20.838125 
" clip-path="url(#p2fbcb45c30)" style="fill: none; stroke-dasharray: 0.8,1.32; stroke-dashoffset: 0; stroke: #b0b0b0; stroke-width: 0.8"/>
     </g>
     <g id="line2d_2">
      <defs>
       <path id="m8c512b29c7" d="M 0 0 
L 0 3.5 
" style="stroke: #000000; stroke-width: 0.8"/>
      </defs>
      <g>
       <use xlink:href="#m8c512b29c7" x="59.57325" y="257.098125" style="stroke: #000000; stroke-width: 0.8"/>
      </g>
     </g>
     <g id="text_1">
      <!-- −40 -->
      <g transform="translate(51.267 271.085625) scale(0.1 -0.1)">
       <defs>
        <path id="Cambria-2212" d="M 397 1613 
L 397 2047 
L 3147 2047 
L 3147 1613 
L 397 1613 
z
" transform="scale(0.015625)"/>
        <path id="Cambria-34" d="M 1613 153 
Q 1806 203 1872 264 
Q 1938 325 1958 437 
Q 1978 550 1978 781 
L 1978 1294 
L 241 1294 
L 241 1528 
L 2069 4288 
L 2516 4288 
L 2516 1597 
L 2581 1597 
Q 2763 1597 2841 1623 
Q 2919 1650 2970 1717 
Q 3022 1784 3066 1938 
L 3303 1938 
L 3266 1294 
L 2516 1294 
L 2516 781 
Q 2516 572 2530 475 
Q 2544 378 2576 322 
Q 2609 266 2673 228 
Q 2738 191 2881 153 
L 2881 0 
L 1613 0 
L 1613 153 
z
M 756 1597 
L 1978 1597 
L 1978 2375 
Q 1978 2669 1987 3033 
Q 1997 3397 2009 3581 
L 1978 3581 
L 756 1641 
L 756 1597 
z
" transform="scale(0.015625)"/>
        <path id="Cambria-30" d="M 1738 -50 
Q 1063 -50 733 481 
Q 403 1013 403 2094 
Q 403 2669 504 3087 
Q 606 3506 789 3779 
Q 972 4053 1228 4184 
Q 1484 4316 1788 4316 
Q 2472 4316 2806 3787 
Q 3141 3259 3141 2191 
Q 3141 1084 2783 517 
Q 2425 -50 1738 -50 
z
M 1013 2188 
Q 1013 1169 1202 692 
Q 1391 216 1788 216 
Q 2166 216 2348 664 
Q 2531 1113 2531 2053 
Q 2531 2772 2437 3217 
Q 2344 3663 2176 3856 
Q 2009 4050 1772 4050 
Q 1556 4050 1411 3922 
Q 1266 3794 1177 3553 
Q 1088 3313 1050 2967 
Q 1013 2622 1013 2188 
z
" transform="scale(0.015625)"/>
       </defs>
       <use xlink:href="#Cambria-2212"/>
       <use xlink:href="#Cambria-34" x="55.371094"/>
       <use xlink:href="#Cambria-30" x="110.742188"/>
      </g>
     </g>
    </g>
    <g id="xtick_2">
     <g id="line2d_3">
      <path d="M 110.275566 257.098125 
L 110.275566 20.838125 
" clip-path="url(#p2fbcb45c30)" style="fill: none; stroke-dasharray: 0.8,1.32; stroke-dashoffset: 0; stroke: #b0b0b0; stroke-width: 0.8"/>
     </g>
     <g id="line2d_4">
      <g>
       <use xlink:href="#m8c512b29c7" x="110.275566" y="257.098125" style="stroke: #000000; stroke-width: 0.8"/>
      </g>
     </g>
     <g id="text_2">
      <!-- −20 -->
      <g transform="translate(101.969316 271.085625) scale(0.1 -0.1)">
       <defs>
        <path id="Cambria-32" d="M 2194 500 
Q 2347 500 2440 519 
Q 2534 538 2590 581 
Q 2647 625 2680 695 
Q 2713 766 2763 913 
L 3028 913 
L 2975 0 
L 403 0 
L 403 150 
Q 538 478 766 822 
Q 994 1166 1413 1631 
Q 1775 2031 1934 2238 
Q 2109 2463 2195 2627 
Q 2281 2791 2318 2936 
Q 2356 3081 2356 3228 
Q 2356 3463 2281 3642 
Q 2206 3822 2051 3925 
Q 1897 4028 1663 4028 
Q 1078 4028 875 3378 
L 497 3378 
L 497 3978 
Q 875 4156 1204 4236 
Q 1534 4316 1797 4316 
Q 2378 4316 2675 4061 
Q 2972 3806 2972 3322 
Q 2972 3156 2939 3017 
Q 2906 2878 2836 2742 
Q 2766 2606 2647 2450 
Q 2528 2294 2384 2133 
Q 2241 1972 1888 1597 
Q 1294 969 1016 500 
L 2194 500 
z
" transform="scale(0.015625)"/>
       </defs>
       <use xlink:href="#Cambria-2212"/>
       <use xlink:href="#Cambria-32" x="55.371094"/>
       <use xlink:href="#Cambria-30" x="110.742188"/>
      </g>
     </g>
    </g>
    <g id="xtick_3">
     <g id="line2d_5">
      <path d="M 160.977881 257.098125 
L 160.977881 20.838125 
" clip-path="url(#p2fbcb45c30)" style="fill: none; stroke-dasharray: 0.8,1.32; stroke-dashoffset: 0; stroke: #b0b0b0; stroke-width: 0.8"/>
     </g>
     <g id="line2d_6">
      <g>
       <use xlink:href="#m8c512b29c7" x="160.977881" y="257.098125" style="stroke: #000000; stroke-width: 0.8"/>
      </g>
     </g>
     <g id="text_3">
      <!-- 0 -->
      <g transform="translate(158.209131 271.085625) scale(0.1 -0.1)">
       <use xlink:href="#Cambria-30"/>
      </g>
     </g>
    </g>
    <g id="xtick_4">
     <g id="line2d_7">
      <path d="M 211.680197 257.098125 
L 211.680197 20.838125 
" clip-path="url(#p2fbcb45c30)" style="fill: none; stroke-dasharray: 0.8,1.32; stroke-dashoffset: 0; stroke: #b0b0b0; stroke-width: 0.8"/>
     </g>
     <g id="line2d_8">
      <g>
       <use xlink:href="#m8c512b29c7" x="211.680197" y="257.098125" style="stroke: #000000; stroke-width: 0.8"/>
      </g>
     </g>
     <g id="text_4">
      <!-- 20 -->
      <g transform="translate(206.142697 271.085625) scale(0.1 -0.1)">
       <use xlink:href="#Cambria-32"/>
       <use xlink:href="#Cambria-30" x="55.371094"/>
      </g>
     </g>
    </g>
    <g id="xtick_5">
     <g id="line2d_9">
      <path d="M 262.382513 257.098125 
L 262.382513 20.838125 
" clip-path="url(#p2fbcb45c30)" style="fill: none; stroke-dasharray: 0.8,1.32; stroke-dashoffset: 0; stroke: #b0b0b0; stroke-width: 0.8"/>
     </g>
     <g id="line2d_10">
      <g>
       <use xlink:href="#m8c512b29c7" x="262.382513" y="257.098125" style="stroke: #000000; stroke-width: 0.8"/>
      </g>
     </g>
     <g id="text_5">
      <!-- 40 -->
      <g transform="translate(256.845013 271.085625) scale(0.1 -0.1)">
       <use xlink:href="#Cambria-34"/>
       <use xlink:href="#Cambria-30" x="55.371094"/>
      </g>
     </g>
    </g>
    <g id="text_6">
     <!-- Displacement (mm) -->
     <g transform="translate(121.128594 284.129375) scale(0.1 -0.1)">
      <defs>
       <path id="TimesNewRomanPSMT-44" d="M 109 0 
L 109 116 
L 269 116 
Q 538 116 650 288 
Q 719 391 719 750 
L 719 3488 
Q 719 3884 631 3984 
Q 509 4122 269 4122 
L 109 4122 
L 109 4238 
L 1834 4238 
Q 2784 4238 3279 4022 
Q 3775 3806 4076 3303 
Q 4378 2800 4378 2141 
Q 4378 1256 3841 663 
Q 3238 0 2003 0 
L 109 0 
z
M 1319 306 
Q 1716 219 1984 219 
Q 2709 219 3187 728 
Q 3666 1238 3666 2109 
Q 3666 2988 3187 3494 
Q 2709 4000 1959 4000 
Q 1678 4000 1319 3909 
L 1319 306 
z
" transform="scale(0.015625)"/>
       <path id="TimesNewRomanPSMT-69" d="M 928 4444 
Q 1059 4444 1151 4351 
Q 1244 4259 1244 4128 
Q 1244 3997 1151 3903 
Q 1059 3809 928 3809 
Q 797 3809 703 3903 
Q 609 3997 609 4128 
Q 609 4259 701 4351 
Q 794 4444 928 4444 
z
M 1188 2947 
L 1188 647 
Q 1188 378 1227 289 
Q 1266 200 1342 156 
Q 1419 113 1622 113 
L 1622 0 
L 231 0 
L 231 113 
Q 441 113 512 153 
Q 584 194 626 287 
Q 669 381 669 647 
L 669 1750 
Q 669 2216 641 2353 
Q 619 2453 572 2492 
Q 525 2531 444 2531 
Q 356 2531 231 2484 
L 188 2597 
L 1050 2947 
L 1188 2947 
z
" transform="scale(0.015625)"/>
       <path id="TimesNewRomanPSMT-73" d="M 2050 2947 
L 2050 1972 
L 1947 1972 
Q 1828 2431 1642 2597 
Q 1456 2763 1169 2763 
Q 950 2763 815 2647 
Q 681 2531 681 2391 
Q 681 2216 781 2091 
Q 878 1963 1175 1819 
L 1631 1597 
Q 2266 1288 2266 781 
Q 2266 391 1970 151 
Q 1675 -88 1309 -88 
Q 1047 -88 709 6 
Q 606 38 541 38 
Q 469 38 428 -44 
L 325 -44 
L 325 978 
L 428 978 
Q 516 541 762 319 
Q 1009 97 1316 97 
Q 1531 97 1667 223 
Q 1803 350 1803 528 
Q 1803 744 1651 891 
Q 1500 1038 1047 1263 
Q 594 1488 453 1669 
Q 313 1847 313 2119 
Q 313 2472 555 2709 
Q 797 2947 1181 2947 
Q 1350 2947 1591 2875 
Q 1750 2828 1803 2828 
Q 1853 2828 1881 2850 
Q 1909 2872 1947 2947 
L 2050 2947 
z
" transform="scale(0.015625)"/>
       <path id="TimesNewRomanPSMT-70" d="M -6 2578 
L 875 2934 
L 994 2934 
L 994 2266 
Q 1216 2644 1439 2795 
Q 1663 2947 1909 2947 
Q 2341 2947 2628 2609 
Q 2981 2197 2981 1534 
Q 2981 794 2556 309 
Q 2206 -88 1675 -88 
Q 1444 -88 1275 -22 
Q 1150 25 994 166 
L 994 -706 
Q 994 -1000 1030 -1079 
Q 1066 -1159 1155 -1206 
Q 1244 -1253 1478 -1253 
L 1478 -1369 
L -22 -1369 
L -22 -1253 
L 56 -1253 
Q 228 -1256 350 -1188 
Q 409 -1153 442 -1076 
Q 475 -1000 475 -688 
L 475 2019 
Q 475 2297 450 2372 
Q 425 2447 370 2484 
Q 316 2522 222 2522 
Q 147 2522 31 2478 
L -6 2578 
z
M 994 2081 
L 994 1013 
Q 994 666 1022 556 
Q 1066 375 1236 237 
Q 1406 100 1666 100 
Q 1978 100 2172 344 
Q 2425 663 2425 1241 
Q 2425 1897 2138 2250 
Q 1938 2494 1663 2494 
Q 1513 2494 1366 2419 
Q 1253 2363 994 2081 
z
" transform="scale(0.015625)"/>
       <path id="TimesNewRomanPSMT-6c" d="M 1184 4444 
L 1184 647 
Q 1184 378 1223 290 
Q 1263 203 1344 158 
Q 1425 113 1647 113 
L 1647 0 
L 244 0 
L 244 113 
Q 441 113 512 153 
Q 584 194 625 287 
Q 666 381 666 647 
L 666 3247 
Q 666 3731 644 3842 
Q 622 3953 573 3993 
Q 525 4034 450 4034 
Q 369 4034 244 3984 
L 191 4094 
L 1044 4444 
L 1184 4444 
z
" transform="scale(0.015625)"/>
       <path id="TimesNewRomanPSMT-61" d="M 1822 413 
Q 1381 72 1269 19 
Q 1100 -59 909 -59 
Q 613 -59 420 144 
Q 228 347 228 678 
Q 228 888 322 1041 
Q 450 1253 767 1440 
Q 1084 1628 1822 1897 
L 1822 2009 
Q 1822 2438 1686 2597 
Q 1550 2756 1291 2756 
Q 1094 2756 978 2650 
Q 859 2544 859 2406 
L 866 2225 
Q 866 2081 792 2003 
Q 719 1925 600 1925 
Q 484 1925 411 2006 
Q 338 2088 338 2228 
Q 338 2497 613 2722 
Q 888 2947 1384 2947 
Q 1766 2947 2009 2819 
Q 2194 2722 2281 2516 
Q 2338 2381 2338 1966 
L 2338 994 
Q 2338 584 2353 492 
Q 2369 400 2405 369 
Q 2441 338 2488 338 
Q 2538 338 2575 359 
Q 2641 400 2828 588 
L 2828 413 
Q 2478 -56 2159 -56 
Q 2006 -56 1915 50 
Q 1825 156 1822 413 
z
M 1822 616 
L 1822 1706 
Q 1350 1519 1213 1441 
Q 966 1303 859 1153 
Q 753 1003 753 825 
Q 753 600 887 451 
Q 1022 303 1197 303 
Q 1434 303 1822 616 
z
" transform="scale(0.015625)"/>
       <path id="TimesNewRomanPSMT-63" d="M 2631 1088 
Q 2516 522 2178 217 
Q 1841 -88 1431 -88 
Q 944 -88 581 321 
Q 219 731 219 1428 
Q 219 2103 620 2525 
Q 1022 2947 1584 2947 
Q 2006 2947 2278 2723 
Q 2550 2500 2550 2259 
Q 2550 2141 2473 2067 
Q 2397 1994 2259 1994 
Q 2075 1994 1981 2113 
Q 1928 2178 1911 2362 
Q 1894 2547 1784 2644 
Q 1675 2738 1481 2738 
Q 1169 2738 978 2506 
Q 725 2200 725 1697 
Q 725 1184 976 792 
Q 1228 400 1656 400 
Q 1963 400 2206 609 
Q 2378 753 2541 1131 
L 2631 1088 
z
" transform="scale(0.015625)"/>
       <path id="TimesNewRomanPSMT-65" d="M 681 1784 
Q 678 1147 991 784 
Q 1303 422 1725 422 
Q 2006 422 2214 576 
Q 2422 731 2563 1106 
L 2659 1044 
Q 2594 616 2278 264 
Q 1963 -88 1488 -88 
Q 972 -88 605 314 
Q 238 716 238 1394 
Q 238 2128 614 2539 
Q 991 2950 1559 2950 
Q 2041 2950 2350 2633 
Q 2659 2316 2659 1784 
L 681 1784 
z
M 681 1966 
L 2006 1966 
Q 1991 2241 1941 2353 
Q 1863 2528 1708 2628 
Q 1553 2728 1384 2728 
Q 1125 2728 920 2526 
Q 716 2325 681 1966 
z
" transform="scale(0.015625)"/>
       <path id="TimesNewRomanPSMT-6d" d="M 1050 2338 
Q 1363 2650 1419 2697 
Q 1559 2816 1721 2881 
Q 1884 2947 2044 2947 
Q 2313 2947 2506 2790 
Q 2700 2634 2766 2338 
Q 3088 2713 3309 2830 
Q 3531 2947 3766 2947 
Q 3994 2947 4170 2830 
Q 4347 2713 4450 2447 
Q 4519 2266 4519 1878 
L 4519 647 
Q 4519 378 4559 278 
Q 4591 209 4675 161 
Q 4759 113 4950 113 
L 4950 0 
L 3538 0 
L 3538 113 
L 3597 113 
Q 3781 113 3884 184 
Q 3956 234 3988 344 
Q 4000 397 4000 647 
L 4000 1878 
Q 4000 2228 3916 2372 
Q 3794 2572 3525 2572 
Q 3359 2572 3192 2489 
Q 3025 2406 2788 2181 
L 2781 2147 
L 2788 2013 
L 2788 647 
Q 2788 353 2820 281 
Q 2853 209 2943 161 
Q 3034 113 3253 113 
L 3253 0 
L 1806 0 
L 1806 113 
Q 2044 113 2133 169 
Q 2222 225 2256 338 
Q 2272 391 2272 647 
L 2272 1878 
Q 2272 2228 2169 2381 
Q 2031 2581 1784 2581 
Q 1616 2581 1450 2491 
Q 1191 2353 1050 2181 
L 1050 647 
Q 1050 366 1089 281 
Q 1128 197 1204 155 
Q 1281 113 1516 113 
L 1516 0 
L 100 0 
L 100 113 
Q 297 113 375 155 
Q 453 197 493 289 
Q 534 381 534 647 
L 534 1741 
Q 534 2213 506 2350 
Q 484 2453 437 2492 
Q 391 2531 309 2531 
Q 222 2531 100 2484 
L 53 2597 
L 916 2947 
L 1050 2947 
L 1050 2338 
z
" transform="scale(0.015625)"/>
       <path id="TimesNewRomanPSMT-6e" d="M 1034 2341 
Q 1538 2947 1994 2947 
Q 2228 2947 2397 2830 
Q 2566 2713 2666 2444 
Q 2734 2256 2734 1869 
L 2734 647 
Q 2734 375 2778 278 
Q 2813 200 2889 156 
Q 2966 113 3172 113 
L 3172 0 
L 1756 0 
L 1756 113 
L 1816 113 
Q 2016 113 2095 173 
Q 2175 234 2206 353 
Q 2219 400 2219 647 
L 2219 1819 
Q 2219 2209 2117 2386 
Q 2016 2563 1775 2563 
Q 1403 2563 1034 2156 
L 1034 647 
Q 1034 356 1069 288 
Q 1113 197 1189 155 
Q 1266 113 1500 113 
L 1500 0 
L 84 0 
L 84 113 
L 147 113 
Q 366 113 442 223 
Q 519 334 519 647 
L 519 1709 
Q 519 2225 495 2337 
Q 472 2450 423 2490 
Q 375 2531 294 2531 
Q 206 2531 84 2484 
L 38 2597 
L 900 2947 
L 1034 2947 
L 1034 2341 
z
" transform="scale(0.015625)"/>
       <path id="TimesNewRomanPSMT-74" d="M 1031 3803 
L 1031 2863 
L 1700 2863 
L 1700 2644 
L 1031 2644 
L 1031 788 
Q 1031 509 1111 412 
Q 1191 316 1316 316 
Q 1419 316 1516 380 
Q 1613 444 1666 569 
L 1788 569 
Q 1678 263 1478 108 
Q 1278 -47 1066 -47 
Q 922 -47 784 33 
Q 647 113 581 261 
Q 516 409 516 719 
L 516 2644 
L 63 2644 
L 63 2747 
Q 234 2816 414 2980 
Q 594 3144 734 3369 
Q 806 3488 934 3803 
L 1031 3803 
z
" transform="scale(0.015625)"/>
       <path id="TimesNewRomanPSMT-20" transform="scale(0.015625)"/>
       <path id="TimesNewRomanPSMT-28" d="M 1988 -1253 
L 1988 -1369 
Q 1516 -1131 1200 -813 
Q 750 -359 506 256 
Q 263 872 263 1534 
Q 263 2503 741 3301 
Q 1219 4100 1988 4444 
L 1988 4313 
Q 1603 4100 1356 3731 
Q 1109 3363 987 2797 
Q 866 2231 866 1616 
Q 866 947 969 400 
Q 1050 -31 1165 -292 
Q 1281 -553 1476 -793 
Q 1672 -1034 1988 -1253 
z
" transform="scale(0.015625)"/>
       <path id="TimesNewRomanPSMT-29" d="M 144 4313 
L 144 4444 
Q 619 4209 934 3891 
Q 1381 3434 1625 2820 
Q 1869 2206 1869 1541 
Q 1869 572 1392 -226 
Q 916 -1025 144 -1369 
L 144 -1253 
Q 528 -1038 776 -670 
Q 1025 -303 1145 264 
Q 1266 831 1266 1447 
Q 1266 2113 1163 2663 
Q 1084 3094 967 3353 
Q 850 3613 656 3853 
Q 463 4094 144 4313 
z
" transform="scale(0.015625)"/>
      </defs>
      <use xlink:href="#TimesNewRomanPSMT-44"/>
      <use xlink:href="#TimesNewRomanPSMT-69" x="72.216797"/>
      <use xlink:href="#TimesNewRomanPSMT-73" x="100"/>
      <use xlink:href="#TimesNewRomanPSMT-70" x="138.916016"/>
      <use xlink:href="#TimesNewRomanPSMT-6c" x="188.916016"/>
      <use xlink:href="#TimesNewRomanPSMT-61" x="216.699219"/>
      <use xlink:href="#TimesNewRomanPSMT-63" x="261.083984"/>
      <use xlink:href="#TimesNewRomanPSMT-65" x="305.46875"/>
      <use xlink:href="#TimesNewRomanPSMT-6d" x="349.853516"/>
      <use xlink:href="#TimesNewRomanPSMT-65" x="427.636719"/>
      <use xlink:href="#TimesNewRomanPSMT-6e" x="472.021484"/>
      <use xlink:href="#TimesNewRomanPSMT-74" x="522.021484"/>
      <use xlink:href="#TimesNewRomanPSMT-20" x="549.804688"/>
      <use xlink:href="#TimesNewRomanPSMT-28" x="574.804688"/>
      <use xlink:href="#TimesNewRomanPSMT-6d" x="608.105469"/>
      <use xlink:href="#TimesNewRomanPSMT-6d" x="685.888672"/>
      <use xlink:href="#TimesNewRomanPSMT-29" x="763.671875"/>
     </g>
    </g>
   </g>
   <g id="matplotlib.axis_2">
    <g id="ytick_1">
     <g id="line2d_11">
      <path d="M 49.432813 230.720793 
L 272.522812 230.720793 
" clip-path="url(#p2fbcb45c30)" style="fill: none; stroke-dasharray: 0.8,1.32; stroke-dashoffset: 0; stroke: #b0b0b0; stroke-width: 0.8"/>
     </g>
     <g id="line2d_12">
      <defs>
       <path id="m8171694c3d" d="M 0 0 
L -3.5 0 
" style="stroke: #000000; stroke-width: 0.8"/>
      </defs>
      <g>
       <use xlink:href="#m8171694c3d" x="49.432813" y="230.720793" style="stroke: #000000; stroke-width: 0.8"/>
      </g>
     </g>
     <g id="text_7">
      <!-- −750 -->
      <g transform="translate(20.282813 234.214543) scale(0.1 -0.1)">
       <defs>
        <path id="Cambria-37" d="M 3206 4116 
L 1388 -22 
L 934 -22 
L 934 131 
L 2619 3697 
L 2619 3744 
L 1244 3744 
Q 1116 3744 1039 3720 
Q 963 3697 911 3653 
Q 859 3609 825 3537 
Q 791 3466 731 3253 
L 463 3253 
L 525 4266 
L 3206 4266 
L 3206 4116 
z
" transform="scale(0.015625)"/>
        <path id="Cambria-35" d="M 469 172 
L 469 834 
L 847 834 
Q 941 516 1130 366 
Q 1319 216 1619 216 
Q 2034 216 2246 466 
Q 2459 716 2459 1213 
Q 2459 1544 2346 1761 
Q 2234 1978 2043 2075 
Q 1853 2172 1600 2172 
Q 1388 2172 1234 2145 
Q 1081 2119 906 2063 
L 656 2209 
L 656 4266 
L 2378 4266 
Q 2484 4266 2531 4283 
Q 2578 4300 2606 4336 
Q 2634 4372 2672 4472 
L 2916 4472 
L 2869 3747 
L 1072 3747 
L 1072 2375 
Q 1234 2444 1425 2478 
Q 1616 2513 1806 2513 
Q 2178 2513 2465 2361 
Q 2753 2209 2909 1929 
Q 3066 1650 3066 1281 
Q 3066 863 2891 563 
Q 2716 263 2384 106 
Q 2053 -50 1600 -50 
Q 1059 -50 469 172 
z
" transform="scale(0.015625)"/>
       </defs>
       <use xlink:href="#Cambria-2212"/>
       <use xlink:href="#Cambria-37" x="55.371094"/>
       <use xlink:href="#Cambria-35" x="110.742188"/>
       <use xlink:href="#Cambria-30" x="166.113281"/>
      </g>
     </g>
    </g>
    <g id="ytick_2">
     <g id="line2d_13">
      <path d="M 49.432813 200.056436 
L 272.522812 200.056436 
" clip-path="url(#p2fbcb45c30)" style="fill: none; stroke-dasharray: 0.8,1.32; stroke-dashoffset: 0; stroke: #b0b0b0; stroke-width: 0.8"/>
     </g>
     <g id="line2d_14">
      <g>
       <use xlink:href="#m8171694c3d" x="49.432813" y="200.056436" style="stroke: #000000; stroke-width: 0.8"/>
      </g>
     </g>
     <g id="text_8">
      <!-- −500 -->
      <g transform="translate(20.282813 203.550186) scale(0.1 -0.1)">
       <use xlink:href="#Cambria-2212"/>
       <use xlink:href="#Cambria-35" x="55.371094"/>
       <use xlink:href="#Cambria-30" x="110.742188"/>
       <use xlink:href="#Cambria-30" x="166.113281"/>
      </g>
     </g>
    </g>
    <g id="ytick_3">
     <g id="line2d_15">
      <path d="M 49.432813 169.39208 
L 272.522812 169.39208 
" clip-path="url(#p2fbcb45c30)" style="fill: none; stroke-dasharray: 0.8,1.32; stroke-dashoffset: 0; stroke: #b0b0b0; stroke-width: 0.8"/>
     </g>
     <g id="line2d_16">
      <g>
       <use xlink:href="#m8171694c3d" x="49.432813" y="169.39208" style="stroke: #000000; stroke-width: 0.8"/>
      </g>
     </g>
     <g id="text_9">
      <!-- −250 -->
      <g transform="translate(20.282813 172.88583) scale(0.1 -0.1)">
       <use xlink:href="#Cambria-2212"/>
       <use xlink:href="#Cambria-32" x="55.371094"/>
       <use xlink:href="#Cambria-35" x="110.742188"/>
       <use xlink:href="#Cambria-30" x="166.113281"/>
      </g>
     </g>
    </g>
    <g id="ytick_4">
     <g id="line2d_17">
      <path d="M 49.432813 138.727723 
L 272.522812 138.727723 
" clip-path="url(#p2fbcb45c30)" style="fill: none; stroke-dasharray: 0.8,1.32; stroke-dashoffset: 0; stroke: #b0b0b0; stroke-width: 0.8"/>
     </g>
     <g id="line2d_18">
      <g>
       <use xlink:href="#m8171694c3d" x="49.432813" y="138.727723" style="stroke: #000000; stroke-width: 0.8"/>
      </g>
     </g>
     <g id="text_10">
      <!-- 0 -->
      <g transform="translate(36.895313 142.221473) scale(0.1 -0.1)">
       <use xlink:href="#Cambria-30"/>
      </g>
     </g>
    </g>
    <g id="ytick_5">
     <g id="line2d_19">
      <path d="M 49.432813 108.063366 
L 272.522812 108.063366 
" clip-path="url(#p2fbcb45c30)" style="fill: none; stroke-dasharray: 0.8,1.32; stroke-dashoffset: 0; stroke: #b0b0b0; stroke-width: 0.8"/>
     </g>
     <g id="line2d_20">
      <g>
       <use xlink:href="#m8171694c3d" x="49.432813" y="108.063366" style="stroke: #000000; stroke-width: 0.8"/>
      </g>
     </g>
     <g id="text_11">
      <!-- 250 -->
      <g transform="translate(25.820313 111.557116) scale(0.1 -0.1)">
       <use xlink:href="#Cambria-32"/>
       <use xlink:href="#Cambria-35" x="55.371094"/>
       <use xlink:href="#Cambria-30" x="110.742188"/>
      </g>
     </g>
    </g>
    <g id="ytick_6">
     <g id="line2d_21">
      <path d="M 49.432813 77.399009 
L 272.522812 77.399009 
" clip-path="url(#p2fbcb45c30)" style="fill: none; stroke-dasharray: 0.8,1.32; stroke-dashoffset: 0; stroke: #b0b0b0; stroke-width: 0.8"/>
     </g>
     <g id="line2d_22">
      <g>
       <use xlink:href="#m8171694c3d" x="49.432813" y="77.399009" style="stroke: #000000; stroke-width: 0.8"/>
      </g>
     </g>
     <g id="text_12">
      <!-- 500 -->
      <g transform="translate(25.820313 80.892759) scale(0.1 -0.1)">
       <use xlink:href="#Cambria-35"/>
       <use xlink:href="#Cambria-30" x="55.371094"/>
       <use xlink:href="#Cambria-30" x="110.742188"/>
      </g>
     </g>
    </g>
    <g id="ytick_7">
     <g id="line2d_23">
      <path d="M 49.432813 46.734653 
L 272.522812 46.734653 
" clip-path="url(#p2fbcb45c30)" style="fill: none; stroke-dasharray: 0.8,1.32; stroke-dashoffset: 0; stroke: #b0b0b0; stroke-width: 0.8"/>
     </g>
     <g id="line2d_24">
      <g>
       <use xlink:href="#m8171694c3d" x="49.432813" y="46.734653" style="stroke: #000000; stroke-width: 0.8"/>
      </g>
     </g>
     <g id="text_13">
      <!-- 750 -->
      <g transform="translate(25.820313 50.228403) scale(0.1 -0.1)">
       <use xlink:href="#Cambria-37"/>
       <use xlink:href="#Cambria-35" x="55.371094"/>
       <use xlink:href="#Cambria-30" x="110.742188"/>
      </g>
     </g>
    </g>
    <g id="text_14">
     <!-- Base Shear (kN) -->
     <g transform="translate(14.14375 172.013437) rotate(-90) scale(0.1 -0.1)">
      <defs>
       <path id="TimesNewRomanPSMT-42" d="M 2956 2163 
Q 3397 2069 3616 1863 
Q 3919 1575 3919 1159 
Q 3919 844 3719 555 
Q 3519 266 3170 133 
Q 2822 0 2106 0 
L 106 0 
L 106 116 
L 266 116 
Q 531 116 647 284 
Q 719 394 719 750 
L 719 3488 
Q 719 3881 628 3984 
Q 506 4122 266 4122 
L 106 4122 
L 106 4238 
L 1938 4238 
Q 2450 4238 2759 4163 
Q 3228 4050 3475 3764 
Q 3722 3478 3722 3106 
Q 3722 2788 3528 2536 
Q 3334 2284 2956 2163 
z
M 1319 2331 
Q 1434 2309 1582 2298 
Q 1731 2288 1909 2288 
Q 2366 2288 2595 2386 
Q 2825 2484 2947 2687 
Q 3069 2891 3069 3131 
Q 3069 3503 2766 3765 
Q 2463 4028 1881 4028 
Q 1569 4028 1319 3959 
L 1319 2331 
z
M 1319 306 
Q 1681 222 2034 222 
Q 2600 222 2897 476 
Q 3194 731 3194 1106 
Q 3194 1353 3059 1581 
Q 2925 1809 2622 1940 
Q 2319 2072 1872 2072 
Q 1678 2072 1540 2065 
Q 1403 2059 1319 2044 
L 1319 306 
z
" transform="scale(0.015625)"/>
       <path id="TimesNewRomanPSMT-53" d="M 2934 4334 
L 2934 2869 
L 2819 2869 
Q 2763 3291 2617 3541 
Q 2472 3791 2203 3937 
Q 1934 4084 1647 4084 
Q 1322 4084 1109 3886 
Q 897 3688 897 3434 
Q 897 3241 1031 3081 
Q 1225 2847 1953 2456 
Q 2547 2138 2764 1967 
Q 2981 1797 3098 1565 
Q 3216 1334 3216 1081 
Q 3216 600 2842 251 
Q 2469 -97 1881 -97 
Q 1697 -97 1534 -69 
Q 1438 -53 1133 45 
Q 828 144 747 144 
Q 669 144 623 97 
Q 578 50 556 -97 
L 441 -97 
L 441 1356 
L 556 1356 
Q 638 900 775 673 
Q 913 447 1195 297 
Q 1478 147 1816 147 
Q 2206 147 2432 353 
Q 2659 559 2659 841 
Q 2659 997 2573 1156 
Q 2488 1316 2306 1453 
Q 2184 1547 1640 1851 
Q 1097 2156 867 2337 
Q 638 2519 519 2737 
Q 400 2956 400 3219 
Q 400 3675 750 4004 
Q 1100 4334 1641 4334 
Q 1978 4334 2356 4169 
Q 2531 4091 2603 4091 
Q 2684 4091 2736 4139 
Q 2788 4188 2819 4334 
L 2934 4334 
z
" transform="scale(0.015625)"/>
       <path id="TimesNewRomanPSMT-68" d="M 1041 4444 
L 1041 2350 
Q 1388 2731 1591 2839 
Q 1794 2947 1997 2947 
Q 2241 2947 2416 2812 
Q 2591 2678 2675 2391 
Q 2734 2191 2734 1659 
L 2734 647 
Q 2734 375 2778 275 
Q 2809 200 2884 156 
Q 2959 113 3159 113 
L 3159 0 
L 1753 0 
L 1753 113 
L 1819 113 
Q 2019 113 2097 173 
Q 2175 234 2206 353 
Q 2216 403 2216 647 
L 2216 1659 
Q 2216 2128 2167 2275 
Q 2119 2422 2012 2495 
Q 1906 2569 1756 2569 
Q 1603 2569 1437 2487 
Q 1272 2406 1041 2159 
L 1041 647 
Q 1041 353 1073 281 
Q 1106 209 1195 161 
Q 1284 113 1503 113 
L 1503 0 
L 84 0 
L 84 113 
Q 275 113 384 172 
Q 447 203 484 290 
Q 522 378 522 647 
L 522 3238 
Q 522 3728 498 3840 
Q 475 3953 426 3993 
Q 378 4034 297 4034 
Q 231 4034 84 3984 
L 41 4094 
L 897 4444 
L 1041 4444 
z
" transform="scale(0.015625)"/>
       <path id="TimesNewRomanPSMT-72" d="M 1038 2947 
L 1038 2303 
Q 1397 2947 1775 2947 
Q 1947 2947 2059 2842 
Q 2172 2738 2172 2600 
Q 2172 2478 2090 2393 
Q 2009 2309 1897 2309 
Q 1788 2309 1652 2417 
Q 1516 2525 1450 2525 
Q 1394 2525 1328 2463 
Q 1188 2334 1038 2041 
L 1038 669 
Q 1038 431 1097 309 
Q 1138 225 1241 169 
Q 1344 113 1538 113 
L 1538 0 
L 72 0 
L 72 113 
Q 291 113 397 181 
Q 475 231 506 341 
Q 522 394 522 644 
L 522 1753 
Q 522 2253 501 2348 
Q 481 2444 426 2487 
Q 372 2531 291 2531 
Q 194 2531 72 2484 
L 41 2597 
L 906 2947 
L 1038 2947 
z
" transform="scale(0.015625)"/>
       <path id="TimesNewRomanPSMT-6b" d="M 1047 4444 
L 1047 1597 
L 1775 2259 
Q 2006 2472 2044 2528 
Q 2069 2566 2069 2603 
Q 2069 2666 2017 2711 
Q 1966 2756 1847 2763 
L 1847 2863 
L 3091 2863 
L 3091 2763 
Q 2834 2756 2664 2684 
Q 2494 2613 2291 2428 
L 1556 1750 
L 2291 822 
Q 2597 438 2703 334 
Q 2853 188 2966 144 
Q 3044 113 3238 113 
L 3238 0 
L 1847 0 
L 1847 113 
Q 1966 116 2008 148 
Q 2050 181 2050 241 
Q 2050 313 1925 472 
L 1047 1594 
L 1047 644 
Q 1047 366 1086 278 
Q 1125 191 1197 153 
Q 1269 116 1509 113 
L 1509 0 
L 53 0 
L 53 113 
Q 272 113 381 166 
Q 447 200 481 272 
Q 528 375 528 628 
L 528 3234 
Q 528 3731 506 3842 
Q 484 3953 434 3995 
Q 384 4038 303 4038 
Q 238 4038 106 3984 
L 53 4094 
L 903 4444 
L 1047 4444 
z
" transform="scale(0.015625)"/>
       <path id="TimesNewRomanPSMT-4e" d="M -84 4238 
L 1066 4238 
L 3656 1059 
L 3656 3503 
Q 3656 3894 3569 3991 
Q 3453 4122 3203 4122 
L 3056 4122 
L 3056 4238 
L 4531 4238 
L 4531 4122 
L 4381 4122 
Q 4113 4122 4000 3959 
Q 3931 3859 3931 3503 
L 3931 -69 
L 3819 -69 
L 1025 3344 
L 1025 734 
Q 1025 344 1109 247 
Q 1228 116 1475 116 
L 1625 116 
L 1625 0 
L 150 0 
L 150 116 
L 297 116 
Q 569 116 681 278 
Q 750 378 750 734 
L 750 3681 
Q 566 3897 470 3965 
Q 375 4034 191 4094 
Q 100 4122 -84 4122 
L -84 4238 
z
" transform="scale(0.015625)"/>
      </defs>
      <use xlink:href="#TimesNewRomanPSMT-42"/>
      <use xlink:href="#TimesNewRomanPSMT-61" x="66.699219"/>
      <use xlink:href="#TimesNewRomanPSMT-73" x="111.083984"/>
      <use xlink:href="#TimesNewRomanPSMT-65" x="150"/>
      <use xlink:href="#TimesNewRomanPSMT-20" x="194.384766"/>
      <use xlink:href="#TimesNewRomanPSMT-53" x="219.384766"/>
      <use xlink:href="#TimesNewRomanPSMT-68" x="275"/>
      <use xlink:href="#TimesNewRomanPSMT-65" x="325"/>
      <use xlink:href="#TimesNewRomanPSMT-61" x="369.384766"/>
      <use xlink:href="#TimesNewRomanPSMT-72" x="413.769531"/>
      <use xlink:href="#TimesNewRomanPSMT-20" x="447.070312"/>
      <use xlink:href="#TimesNewRomanPSMT-28" x="472.070312"/>
      <use xlink:href="#TimesNewRomanPSMT-6b" x="505.371094"/>
      <use xlink:href="#TimesNewRomanPSMT-4e" x="555.371094"/>
      <use xlink:href="#TimesNewRomanPSMT-29" x="627.587891"/>
     </g>
    </g>
   </g>
   <g id="line2d_25">
    <path d="M 160.977881 138.727723 
L 165.776875 88.766683 
L 167.017132 78.723298 
L 168.162076 71.979064 
L 169.661734 65.103557 
L 171.174741 59.272104 
L 172.245061 55.609099 
L 172.222399 55.788383 
L 171.450845 60.804009 
L 170.486295 65.841794 
L 169.184656 71.32182 
L 167.006056 79.841842 
L 166.396231 82.689038 
L 165.765006 86.518021 
L 165.114874 91.881874 
L 154.927563 191.544122 
L 153.783589 200.040959 
L 152.753156 205.849582 
L 151.455421 211.883907 
L 149.710717 218.635653 
L 150.268658 214.163031 
L 151.114881 208.622045 
L 152.310765 202.479386 
L 153.813912 194.828063 
L 154.374311 191.547431 
L 155.571034 182.420182 
L 164.485814 95.575016 
L 165.800593 84.746558 
L 166.430694 80.694442 
L 167.623885 74.854598 
L 169.678423 66.424976 
L 171.465292 60.435697 
L 172.245015 58.054797 
L 172.151993 58.679486 
L 171.157942 64.436379 
L 168.664371 77.812561 
L 166.98388 90.145567 
L 164.42344 110.725738 
L 160.938537 140.526959 
L 154.905452 192.599872 
L 153.763422 198.972553 
L 151.441426 210.071239 
L 150.053611 215.407243 
L 149.710793 216.623733 
L 149.805459 215.884137 
L 150.803448 209.199262 
L 152.798114 196.998493 
L 154.982983 179.197171 
L 158.225671 150.816524 
L 164.510731 95.07519 
L 165.824286 85.140298 
L 167.061353 78.592145 
L 168.731239 71.648814 
L 170.878682 63.855863 
L 172.244908 59.297952 
L 172.148599 59.907397 
L 171.146673 65.50674 
L 168.645172 78.410325 
L 166.961671 90.590133 
L 164.398458 111.093678 
L 160.912307 140.813357 
L 155.490672 187.807593 
L 154.300147 195.225023 
L 152.252394 205.128827 
L 150.753299 211.425153 
L 149.710931 215.30293 
L 149.737711 215.12007 
L 150.529278 209.77379 
L 153.320205 192.21266 
L 155.617117 173.093325 
L 159.64331 137.335168 
L 162.55038 111.393841 
L 163.959292 99.3581 
L 165.356429 88.482816 
L 166.736274 80.724637 
L 168.093375 74.942899 
L 170.718022 65.365133 
L 173.188948 57.487698 
L 174.354466 54.269093 
L 175.467155 51.53959 
L 177.516688 47.542035 
L 179.305202 44.702086 
L 180.804469 42.937692 
L 182.845553 40.866083 
L 183.511599 40.328499 
L 182.760724 43.97501 
L 181.292818 49.937571 
L 179.909814 54.696195 
L 174.078536 72.559463 
L 171.676332 81.223282 
L 170.409432 86.615085 
L 169.105282 93.009237 
L 167.769033 100.423862 
L 165.021454 117.85008 
L 162.210059 137.84821 
L 157.970473 170.520662 
L 155.194134 191.021683 
L 153.837504 198.740493 
L 151.214094 210.364687 
L 149.957674 214.950207 
L 148.744778 218.74762 
L 147.580197 221.603471 
L 145.414165 226.02833 
L 143.493764 229.221619 
L 141.849302 231.545509 
L 139.955475 233.779955 
L 138.444377 235.312735 
L 139.201771 231.378149 
L 140.674309 225.179218 
L 142.866644 217.619181 
L 145.701052 207.558651 
L 147.898577 198.953239 
L 149.077049 193.585732 
L 150.302523 187.355993 
L 152.87495 172.359651 
L 155.575261 154.484508 
L 158.360836 134.362888 
L 162.602707 103.013361 
L 164.011282 93.472817 
L 165.407877 85.486435 
L 166.786976 79.33602 
L 168.143131 74.445736 
L 169.470988 70.199315 
L 170.765301 66.676421 
L 173.233004 60.872245 
L 175.507293 56.289489 
L 177.552275 52.629324 
L 179.335675 49.849731 
L 182.009719 46.345682 
L 183.511141 44.551815 
L 182.338554 49.536292 
L 180.614463 55.923672 
L 178.194221 63.886917 
L 175.163631 74.313564 
L 172.856432 82.968562 
L 171.630133 88.148099 
L 170.361763 94.090159 
L 169.056331 100.808464 
L 166.355033 116.510651 
L 163.568872 134.758736 
L 156.522171 184.329137 
L 155.143448 192.406805 
L 153.787768 198.631914 
L 152.460485 203.628195 
L 151.166841 207.771096 
L 149.911946 211.317221 
L 147.538052 217.112804 
L 145.37627 221.499843 
L 143.460716 224.887178 
L 141.114016 228.54869 
L 138.444896 232.124722 
L 139.625577 226.74875 
L 141.35418 220.125475 
L 145.739657 204.655207 
L 147.941331 195.955394 
L 149.121628 190.727346 
L 150.348751 184.713109 
L 152.923923 170.249271 
L 155.626204 152.851837 
L 158.412948 133.201104 
L 162.655026 102.805407 
L 164.063256 93.779742 
L 165.459301 86.434462 
L 166.837646 80.645606 
L 168.192848 75.955607 
L 169.519556 71.866527 
L 172.066658 65.45922 
L 174.438755 60.389344 
L 176.598408 56.297735 
L 178.511534 52.956409 
L 180.854119 49.517458 
L 183.510561 46.040924 
L 182.321787 50.904731 
L 180.588675 57.215865 
L 178.160327 65.157004 
L 176.196772 71.684592 
L 173.993028 79.496842 
L 171.583876 89.090418 
L 170.314043 94.942676 
L 169.007337 101.588481 
L 166.304075 117.168508 
L 163.516754 135.274682 
L 156.470759 183.748301 
L 155.092793 191.389267 
L 153.73807 197.341125 
L 152.41194 202.21691 
L 151.119642 206.246284 
L 149.866277 209.750451 
L 147.495981 215.541447 
L 145.33846 219.977701 
L 143.427764 223.40742 
L 141.089298 227.132692 
L 138.585525 230.566518 
L 138.445538 230.746827 
L 139.642402 225.471033 
L 141.380021 218.880595 
L 146.853358 199.504202 
L 149.166271 189.747249 
L 150.395036 183.732963 
L 151.665598 176.892793 
L 154.311895 160.862064 
L 157.063395 142.234039 
L 161.449999 110.878503 
L 163.572062 97.001695 
L 165.683878 86.147236 
L 167.777109 78.238363 
L 169.843486 71.974605 
L 171.874849 66.919018 
L 173.863175 62.516839 
L 175.80061 58.715898 
L 177.679504 55.31616 
L 179.492435 52.307795 
L 182.892059 47.63824 
L 184.465324 45.717158 
L 187.327719 42.70109 
L 188.605543 41.582714 
L 190.829233 39.981006 
L 193.835586 38.10941 
L 194.775847 37.585644 
L 193.590892 42.202553 
L 192.219594 46.949838 
L 190.355231 52.741007 
L 188.027226 59.14348 
L 183.748124 70.446226 
L 180.436312 78.390793 
L 176.817402 86.411301 
L 174.910468 90.912051 
L 172.948508 96.414581 
L 170.939271 103.45481 
L 168.890691 112.20693 
L 166.81086 122.568203 
L 164.707992 134.304207 
L 160.466423 160.461331 
L 158.344474 173.965642 
L 156.232926 186.243883 
L 154.140118 195.979366 
L 152.074315 203.196349 
L 150.043677 208.912103 
L 148.056223 213.729612 
L 146.119802 217.800762 
L 144.242064 221.204388 
L 142.430422 224.142256 
L 140.692033 226.691348 
L 137.46216 230.707954 
L 134.603418 233.669822 
L 132.160926 235.749406 
L 129.360028 237.691939 
L 127.180511 239.031966 
L 127.879157 236.146418 
L 129.751209 229.507852 
L 131.620012 223.728407 
L 136.710813 209.401399 
L 139.852466 201.083453 
L 145.173128 188.025197 
L 147.08115 182.480606 
L 149.044057 175.460201 
L 151.054095 166.754653 
L 153.103328 156.460938 
L 155.183661 144.796453 
L 163.650511 94.143053 
L 165.761788 84.994489 
L 167.854171 78.041117 
L 169.919396 72.475477 
L 171.949307 67.861387 
L 173.935887 63.82808 
L 175.87129 60.329748 
L 177.747871 57.209467 
L 179.55822 54.438936 
L 181.295186 52.154341 
L 184.521849 48.40976 
L 187.376934 45.450162 
L 189.815382 43.301065 
L 193.295613 40.759121 
L 194.774611 39.765962 
L 193.570121 44.228899 
L 191.312754 51.633045 
L 189.203836 57.796066 
L 183.689907 72.448951 
L 180.371916 80.572641 
L 176.747845 88.85317 
L 174.838737 93.674108 
L 172.874887 99.640794 
L 170.86405 107.268876 
L 168.814167 116.401745 
L 166.733336 126.950295 
L 164.629773 138.629474 
L 158.266032 176.206427 
L 156.155029 187.189283 
L 154.063074 195.662081 
L 151.998429 202.299386 
L 149.969248 207.546211 
L 147.983546 211.97201 
L 146.049164 215.774913 
L 144.173742 219.012086 
L 142.364688 221.822543 
L 140.629146 224.313273 
L 137.405699 228.206217 
L 134.554275 231.188549 
L 132.119875 233.453764 
L 130.14092 235.05947 
L 127.181839 237.145576 
L 128.396094 232.570806 
L 129.781417 227.910281 
L 131.659092 222.178951 
L 135.331925 211.971556 
L 138.295011 203.98295 
L 141.616083 195.654694 
L 145.242729 186.795507 
L 147.152919 181.193161 
L 149.117711 174.072106 
L 151.129343 165.280165 
L 153.179873 154.940988 
L 155.2612 143.325133 
L 161.607356 105.515203 
L 163.728947 94.484033 
L 165.839672 85.808386 
L 167.931196 79.112229 
L 169.995258 73.636199 
L 172.023706 69.056871 
L 174.008529 64.980641 
L 175.941888 61.465257 
L 179.623904 55.553145 
L 181.358019 53.15834 
L 184.578246 49.411585 
L 187.426006 46.450807 
L 189.856354 44.169615 
L 192.637278 42.058434 
L 194.773191 40.608681 
L 193.549173 45.010086 
L 191.277959 52.317812 
L 189.160467 58.444759 
L 186.59819 65.164513 
L 182.011026 76.745829 
L 178.527465 85.110166 
L 176.678202 89.45116 
L 174.766931 94.455616 
L 172.801201 100.630605 
L 170.788775 108.313208 
L 168.737601 117.495044 
L 166.655781 128.008826 
L 162.433176 151.775554 
L 158.187604 176.033039 
L 156.077158 186.57795 
L 153.986068 194.74908 
L 151.922592 201.283 
L 149.89488 206.456606 
L 147.910939 210.87503 
L 145.978606 214.687466 
L 144.105512 217.942905 
L 142.299055 220.753542 
L 138.914298 225.411608 
L 135.877754 228.812984 
L 133.237348 231.441736 
L 130.108778 234.216666 
L 127.653331 236.015197 
L 127.18335 236.333108 
L 128.41713 231.835563 
L 130.695262 224.519174 
L 132.817037 218.387722 
L 136.820629 207.690604 
L 139.97555 199.620147 
L 143.461936 191.277445 
L 145.312414 186.408563 
L 147.224763 180.454786 
L 149.191429 173.044248 
L 151.204645 164.050643 
L 153.25646 153.621824 
L 155.338771 142.104158 
L 161.922079 104.010535 
L 164.750529 90.68097 
L 167.564079 81.148968 
L 170.351617 73.819772 
L 173.102134 67.805217 
L 175.804766 62.658832 
L 178.44884 58.315179 
L 181.023913 54.49982 
L 183.519815 51.436094 
L 185.926688 48.845084 
L 188.235027 46.548203 
L 190.435715 44.515607 
L 192.52006 42.891267 
L 196.307285 40.395622 
L 199.536932 38.519348 
L 203.227052 36.646397 
L 206.036157 35.375417 
L 205.055556 38.804306 
L 203.529243 43.697997 
L 201.331373 50.111457 
L 198.496633 57.42911 
L 195.069762 65.373555 
L 193.150836 69.558692 
L 191.104844 73.694586 
L 188.939867 77.727379 
L 186.664454 81.698698 
L 184.287593 85.42957 
L 181.818671 88.951035 
L 179.26744 92.951844 
L 176.643974 97.820796 
L 173.958635 104.424313 
L 171.22203 113.395907 
L 168.444965 124.743212 
L 165.63841 138.034875 
L 157.152961 182.081079 
L 154.339792 193.457211 
L 151.55284 201.916007 
L 148.803112 208.433112 
L 146.101467 213.748185 
L 143.458577 218.150502 
L 140.884878 221.836937 
L 138.390537 225.063571 
L 135.985403 227.681496 
L 133.678976 229.957408 
L 129.398254 233.720069 
L 127.440865 235.180593 
L 123.930656 237.413182 
L 119.776444 239.633808 
L 115.920765 241.417138 
L 116.911177 237.954391 
L 118.443835 233.101134 
L 120.647777 226.785807 
L 123.48822 219.490303 
L 126.920335 211.351044 
L 128.841684 207.08773 
L 130.889955 202.871236 
L 133.057057 198.759799 
L 135.334431 194.834315 
L 140.183619 187.210467 
L 142.73628 182.45037 
L 145.360987 176.202067 
L 148.047372 167.711078 
L 150.784826 156.816148 
L 153.562536 143.823579 
L 162.026972 100.132694 
L 164.855069 88.659196 
L 167.667853 80.197322 
L 170.454215 73.525695 
L 173.203151 68.001065 
L 175.903804 63.272148 
L 178.545507 59.208743 
L 181.117828 55.646199 
L 183.610606 52.650562 
L 186.013997 50.17935 
L 190.51504 46.056352 
L 192.594915 44.409453 
L 196.372332 41.970718 
L 200.974831 39.398544 
L 206.033776 36.897869 
L 204.349702 42.441618 
L 202.471487 48.106067 
L 199.938408 55.044358 
L 196.790444 62.644118 
L 193.077276 70.889888 
L 191.02673 75.076477 
L 188.857507 79.129114 
L 186.578175 83.010395 
L 181.725588 90.51232 
L 179.171499 94.756066 
L 176.545556 100.156881 
L 173.858128 107.469212 
L 171.11983 116.976343 
L 168.341477 128.563708 
L 165.534041 141.756847 
L 159.876346 170.119628 
L 157.048431 183.250461 
L 154.236036 193.546953 
L 151.450267 201.581446 
L 148.702127 207.783046 
L 146.00247 212.840205 
L 143.361957 217.10185 
L 140.791019 220.668522 
L 138.299807 223.796759 
L 135.898162 226.411435 
L 133.595568 228.619297 
L 129.323485 232.253896 
L 127.370867 233.748811 
L 123.871009 235.97389 
L 119.734034 238.230609 
L 115.923268 240.103813 
L 116.933297 236.700944 
L 118.47864 231.923757 
L 120.694717 225.663078 
L 123.546554 218.390961 
L 126.989142 210.403039 
L 128.915331 206.200083 
L 130.96815 202.003872 
L 133.139491 197.93072 
L 135.42078 194.033987 
L 140.276758 186.195604 
L 142.83227 181.367836 
L 145.459448 174.868392 
L 148.147915 166.107121 
L 150.887053 155.054797 
L 153.666045 142.090594 
L 162.131859 99.988928 
L 164.959588 89.122924 
L 167.771591 81.012659 
L 170.556763 74.546185 
L 173.304103 69.137887 
L 176.002761 64.410835 
L 178.642079 60.380564 
L 181.211633 56.83097 
L 183.701274 53.727125 
L 186.10117 51.248286 
L 190.594205 47.142822 
L 192.669598 45.442938 
L 194.619826 44.006671 
L 198.114502 41.864894 
L 202.24285 39.615132 
L 206.031151 37.743577 
L 204.321066 43.25125 
L 202.430422 48.861524 
L 199.885562 55.73005 
L 196.726651 63.304922 
L 193.003543 71.34367 
L 188.774997 79.599139 
L 186.491756 83.552216 
L 181.632392 91.265977 
L 179.07546 95.696628 
L 176.447053 101.294067 
L 173.75755 108.840401 
L 171.017575 118.502636 
L 168.237948 130.068367 
L 165.429648 143.044141 
L 159.771462 170.390741 
L 156.943923 182.964637 
L 154.132316 193.037003 
L 151.347745 200.900908 
L 148.601209 206.967326 
L 145.903553 211.985607 
L 143.265433 216.247973 
L 140.697268 219.796302 
L 138.2092 222.88327 
L 135.811057 225.566891 
L 133.512309 227.768315 
L 129.248887 231.377261 
L 125.48622 234.178013 
L 122.283693 236.104801 
L 117.751589 238.462286 
L 115.926016 239.326634 
L 116.955656 235.929392 
L 119.545958 228.182736 
L 122.096703 221.332803 
L 125.261081 213.674448 
L 128.989152 205.456126 
L 131.046508 201.244702 
L 133.222077 197.169993 
L 137.893052 189.30558 
L 140.37001 185.205111 
L 142.928358 180.200814 
L 145.557992 173.378794 
L 148.248527 164.367452 
L 150.989335 153.165608 
L 153.769593 140.360066 
L 159.404423 112.5249 
L 162.551455 98.384287 
L 166.085636 86.199528 
L 169.599645 77.414892 
L 173.079602 70.405942 
L 176.511764 64.485377 
L 179.882576 59.577346 
L 183.178724 55.343707 
L 186.38719 51.87674 
L 189.495303 49.037006 
L 192.490788 46.53216 
L 195.361814 44.362707 
L 198.097041 42.66568 
L 203.117469 39.944068 
L 207.472838 37.824259 
L 212.611686 35.609069 
L 216.593796 34.20855 
L 217.290881 33.998437 
L 215.991577 38.115323 
L 214.036135 43.842141 
L 211.243313 51.265332 
L 209.54616 55.359575 
L 207.657189 59.615489 
L 205.583859 63.991947 
L 203.334359 68.467252 
L 200.917574 72.944674 
L 198.343048 77.192154 
L 195.620949 81.150149 
L 192.762029 84.892939 
L 189.777579 88.383884 
L 186.679385 91.586271 
L 183.479684 95.113694 
L 180.191113 99.663757 
L 176.826659 106.025244 
L 173.399612 115.203568 
L 169.923505 127.316968 
L 166.412068 141.716246 
L 159.33876 173.721737 
L 155.804826 187.707023 
L 152.291322 198.25381 
L 148.812125 206.138512 
L 145.380977 212.310992 
L 142.011428 217.362199 
L 138.716786 221.484321 
L 135.510064 225.042383 
L 132.403926 227.903608 
L 129.41064 230.351402 
L 126.542028 232.495975 
L 123.809419 234.363894 
L 121.223606 235.855796 
L 116.532597 238.243999 
L 110.831434 240.782804 
L 106.021276 242.631091 
L 104.666789 243.09868 
L 105.978347 238.927865 
L 107.941704 233.209902 
L 110.742094 225.805819 
L 112.442862 221.674362 
L 114.335318 217.37954 
L 116.411987 212.985797 
L 118.664667 208.491511 
L 121.084462 204.015309 
L 123.661815 199.749337 
L 126.386547 195.756525 
L 129.247895 191.998062 
L 132.234561 188.532276 
L 135.334747 185.246748 
L 138.53621 180.990213 
L 141.826305 175.29346 
L 145.192039 167.050214 
L 148.620119 155.725171 
L 152.097005 141.834448 
L 159.142132 110.053687 
L 162.682547 95.652619 
L 166.21623 84.75451 
L 169.729225 76.615662 
L 173.207656 70.040165 
L 176.637786 64.433886 
L 180.006068 59.745329 
L 183.299199 55.749277 
L 186.504172 52.365103 
L 189.60833 49.658679 
L 192.599413 47.28324 
L 195.465608 45.190949 
L 198.195595 43.464297 
L 203.204396 40.870023 
L 209.446184 38.028848 
L 215.06609 35.730227 
L 217.286989 34.938165 
L 215.963181 39.072943 
L 213.991909 44.779402 
L 211.183957 52.184415 
L 209.479575 56.286747 
L 207.583638 60.536109 
L 205.503633 64.888499 
L 203.247775 69.298172 
L 200.824973 73.727803 
L 198.244796 77.968141 
L 195.517435 81.934597 
L 192.653662 85.738363 
L 189.664785 89.29497 
L 186.562611 92.623639 
L 183.359391 96.664036 
L 180.067775 101.585169 
L 176.700765 108.630868 
L 173.271658 118.457235 
L 169.793997 130.833342 
L 166.281517 145.109952 
L 159.207672 175.498821 
L 155.674246 188.312087 
L 152.161766 198.24553 
L 148.684104 205.768003 
L 145.254997 211.780283 
L 141.887987 216.720527 
L 138.596372 220.729734 
L 135.393151 224.200584 
L 132.290977 227.050789 
L 129.302101 229.440603 
L 126.438327 231.540506 
L 123.710966 233.397437 
L 121.13079 234.945207 
L 116.45213 237.246561 
L 110.771806 239.720799 
L 104.889104 242.005097 
L 104.668773 242.083258 
L 104.670834 242.084286 
L 106.006892 237.915674 
L 107.986073 232.219463 
L 110.801586 224.82503 
L 112.509578 220.69584 
L 114.408995 216.401928 
L 116.492333 212.033063 
L 118.751366 207.631105 
L 121.177171 203.222718 
L 123.760168 198.996237 
L 126.490154 194.99761 
L 129.356349 191.261813 
L 135.45159 184.274379 
L 138.656564 180.049601 
L 141.949694 174.17302 
L 145.317976 165.700855 
L 148.748106 154.283159 
L 152.226538 140.537342 
L 159.273215 109.556145 
L 162.813631 95.832292 
L 166.346796 85.419519 
L 169.858757 77.529822 
L 173.335643 71.042023 
L 176.763723 65.506247 
L 180.129457 60.787941 
L 183.419553 56.828973 
L 186.621015 53.37099 
L 189.721202 50.63998 
L 192.707867 48.286251 
L 195.569216 46.194272 
L 198.293947 44.382908 
L 200.8713 42.920628 
L 205.543776 40.648663 
L 212.716032 37.528101 
L 217.288973 35.720888 
L 217.282792 35.724969 
L 215.934487 39.886054 
L 213.947397 45.599836 
L 211.124328 53.021966 
L 209.412727 57.129845 
L 207.509835 61.379004 
L 205.423165 65.729649 
L 203.160961 70.102182 
L 200.732156 74.459135 
L 198.146343 78.670132 
L 195.413734 82.650616 
L 192.545122 86.500322 
L 186.445698 93.564728 
L 183.238976 97.645892 
L 179.944335 102.716692 
L 176.574786 110.013656 
L 173.143637 119.92593 
L 169.664441 132.17454 
L 166.150937 146.105967 
L 159.076594 175.371603 
L 155.543694 187.752682 
L 152.032257 197.381523 
L 148.55615 204.854146 
L 145.129103 210.869337 
L 141.76465 215.788569 
L 138.476078 219.824032 
L 135.276377 223.25054 
L 132.178183 226.19063 
L 129.193733 228.567734 
L 123.612715 232.482223 
L 121.038189 234.101792 
L 118.621404 235.417824 
L 112.409602 238.229498 
L 105.964186 240.834763 
L 104.664881 241.322256 
L 104.675184 241.302439 
L 106.035735 237.117218 
L 108.030729 231.414459 
L 110.86135 223.99119 
L 114.482924 215.527386 
L 116.572921 211.154812 
L 118.838294 206.794838 
L 121.270095 202.445396 
L 123.858722 198.214378 
L 126.593949 194.187471 
L 129.464974 190.454879 
L 132.460459 187.007166 
L 135.568572 183.215652 
L 138.777039 178.919824 
L 142.073187 172.693733 
L 145.443998 163.849665 
L 148.87616 152.323233 
L 152.356117 138.729386 
L 159.404308 108.928117 
L 163.338069 94.669887 
L 167.577223 83.321478 
L 171.790313 74.768337 
L 175.9607 67.750616 
L 180.071913 61.879698 
L 184.107715 57.103344 
L 188.052166 53.022519 
L 191.889688 49.861909 
L 195.605125 47.145402 
L 199.183802 44.759618 
L 202.611587 42.825245 
L 208.960975 39.90683 
L 217.037067 36.579729 
L 221.33189 35.028788 
L 225.971049 33.628136 
L 228.555679 32.954017 
L 228.538371 32.995671 
L 226.891017 37.888203 
L 224.487541 44.505924 
L 221.081737 52.945789 
L 219.019164 57.544742 
L 216.727359 62.250882 
L 214.215373 66.942424 
L 211.493127 71.623311 
L 208.571373 76.116543 
L 205.46165 80.294704 
L 202.176239 84.076482 
L 198.728117 87.527831 
L 195.130902 90.806226 
L 191.398801 93.841462 
L 187.546553 97.175507 
L 183.589373 101.577516 
L 179.54289 107.93957 
L 175.423085 117.498811 
L 171.246229 130.206231 
L 167.028818 145.405816 
L 162.78751 162.011637 
L 158.539054 178.108125 
L 154.300231 191.316607 
L 150.087781 201.287368 
L 145.91834 208.949501 
L 141.808377 214.938936 
L 137.774124 219.777748 
L 133.831512 223.768584 
L 129.996115 227.075665 
L 126.283079 229.761899 
L 122.707069 232.119876 
L 119.282208 234.190643 
L 116.022023 235.836791 
L 110.046482 238.406952 
L 102.61636 241.287633 
L 97.255252 243.110832 
L 93.397977 244.242373 
L 93.42023 244.178207 
L 95.082274 239.240723 
L 97.495231 232.614457 
L 100.910087 224.125761 
L 102.976982 219.47636 
L 105.27295 214.715802 
L 107.788923 209.98183 
L 110.514964 205.329753 
L 113.440306 200.840962 
L 116.553396 196.691573 
L 119.84194 192.92792 
L 123.292948 189.447005 
L 126.892792 186.21565 
L 130.627254 183.180186 
L 134.481584 179.301031 
L 138.440561 173.962793 
L 142.488549 165.889719 
L 146.609559 154.441366 
L 150.787316 139.945772 
L 159.246914 106.844587 
L 163.495344 92.734736 
L 167.733831 82.262966 
L 171.945636 74.241449 
L 176.114123 67.598061 
L 180.222831 62.011553 
L 184.255532 57.475594 
L 188.196298 53.541723 
L 192.029566 50.441654 
L 195.740196 47.830307 
L 199.313534 45.520131 
L 202.735466 43.560438 
L 205.992478 42.0231 
L 211.96099 39.531073 
L 217.124872 37.581999 
L 224.726743 34.988898 
L 228.559801 33.883988 
L 228.238599 34.849351 
L 225.772606 41.879787 
L 222.843653 49.504631 
L 221.009531 53.878934 
L 218.938317 58.464909 
L 216.63819 63.145951 
L 214.118234 67.848564 
L 211.388403 72.521187 
L 208.459476 77.016181 
L 205.343023 81.183705 
L 202.051351 84.957862 
L 198.59746 88.465886 
L 194.994992 91.758658 
L 191.258175 94.801341 
L 187.401767 98.574599 
L 183.440998 103.193733 
L 179.391513 110.219204 
L 175.269303 120.210576 
L 171.090649 133.043753 
L 166.872056 148.022369 
L 162.630184 164.111432 
L 158.381786 179.326141 
L 154.143641 191.785803 
L 149.932488 201.268253 
L 145.764958 208.63574 
L 141.657511 214.444937 
L 137.62637 219.187505 
L 133.687454 223.08225 
L 129.856321 226.383424 
L 126.148102 229.013298 
L 122.577441 231.314094 
L 119.158442 233.36096 
L 115.904608 235.052263 
L 109.943133 237.585092 
L 102.53709 240.342936 
L 95.920149 242.575788 
L 93.394039 243.327803 
L 93.426182 243.234756 
L 95.1176 238.283219 
L 97.549506 231.65707 
L 100.982456 223.167775 
L 103.057987 218.53094 
L 105.36227 213.787547 
L 107.886205 209.080436 
L 110.619824 204.485297 
L 113.552331 200.044311 
L 116.672143 195.90298 
L 119.96694 192.137597 
L 123.423707 188.622115 
L 127.028794 185.41071 
L 130.767962 182.237653 
L 134.626442 178.267419 
L 138.588997 172.735237 
L 142.639976 164.361735 
L 146.76338 152.814926 
L 150.942923 138.433878 
L 159.404245 106.439674 
L 163.652606 92.972507 
L 167.890403 82.86705 
L 172.100899 75.039638 
L 176.267465 68.499528 
L 180.373645 62.963097 
L 184.403222 58.431517 
L 188.340282 54.541596 
L 192.169275 51.360348 
L 195.875079 48.784949 
L 199.443057 46.497293 
L 202.859118 44.505958 
L 206.109771 42.837308 
L 212.064201 40.362775 
L 219.458188 37.609961 
L 227.077938 35.057972 
L 228.563555 34.609853 
L 228.526467 34.697288 
L 226.820366 39.661233 
L 224.37899 46.283109 
L 220.937 54.713087 
L 218.857156 59.300832 
L 216.54872 63.972041 
L 214.020808 68.695733 
L 211.283405 73.333462 
L 208.347322 77.771523 
L 205.224155 81.912338 
L 201.926239 85.67403 
L 198.466599 89.270215 
L 194.858898 92.556812 
L 191.117385 95.809869 
L 187.256838 99.684861 
L 183.292502 104.520814 
L 179.240036 111.78325 
L 175.115443 121.811671 
L 170.935015 134.479018 
L 166.715262 149.074277 
L 162.472849 164.541719 
L 158.224531 179.084861 
L 153.987088 191.165887 
L 149.777255 200.448837 
L 145.611658 207.771823 
L 141.50675 213.563025 
L 137.478742 218.325629 
L 133.543543 222.178552 
L 129.716696 225.500715 
L 126.013313 228.155728 
L 122.448022 230.421561 
L 119.034903 232.437523 
L 115.787437 234.205828 
L 112.718449 235.624787 
L 107.163637 237.83414 
L 98.676211 240.854399 
L 93.390467 242.583703 
L 94.315652 239.856935 
L 96.250886 234.415801 
L 99.207658 226.714906 
L 101.05515 222.262659 
L 103.139305 217.616631 
L 105.451891 212.874545 
L 107.983775 208.17638 
L 110.724958 203.604443 
L 113.664613 199.209846 
L 116.791131 195.090421 
L 120.092162 191.27325 
L 123.55467 187.763958 
L 130.908833 181.12035 
L 134.771443 177.102948 
L 138.737554 171.220112 
L 142.791503 162.496256 
L 146.917278 150.821452 
L 151.098585 136.560271 
L 155.31891 121.096696 
L 159.561584 105.98299 
L 164.281848 91.94083 
L 169.225113 81.138002 
L 174.135805 72.722669 
L 178.99453 65.848022 
L 183.782099 60.153123 
L 188.479604 55.518 
L 193.068491 51.668103 
L 197.530638 48.68954 
L 201.848421 46.05653 
L 206.004787 43.805117 
L 209.983321 41.993939 
L 217.344803 39.171638 
L 226.686517 35.973498 
L 231.637325 34.444495 
L 238.132907 32.72534 
L 239.831788 32.324096 
L 234.881918 45.760037 
L 233.005789 50.296846 
L 230.845188 55.147784 
L 228.408648 60.123771 
L 225.705793 65.110017 
L 222.747297 70.015927 
L 219.544844 74.78576 
L 216.111084 79.247813 
L 212.459576 83.274009 
L 208.604744 86.841155 
L 204.56181 90.040896 
L 200.346743 93.088165 
L 195.976191 95.974178 
L 191.467413 99.284255 
L 186.838218 103.651647 
L 182.106889 110.227485 
L 177.292111 119.986604 
L 172.412901 133.085384 
L 167.488529 148.796787 
L 162.538443 165.710709 
L 157.582193 181.482332 
L 152.639355 194.018583 
L 147.729449 203.610696 
L 142.871868 211.045801 
L 138.085796 216.851621 
L 133.390135 221.427182 
L 128.803432 225.289856 
L 124.3438 228.345332 
L 120.028853 230.924664 
L 115.875633 233.216383 
L 111.900543 235.125524 
L 108.119283 236.675957 
L 101.197161 239.179893 
L 92.613105 242.042445 
L 86.452695 243.82805 
L 82.122158 244.937307 
L 85.516243 235.569825 
L 88.987424 226.885684 
L 91.153216 221.967132 
L 93.594778 216.891799 
L 96.302468 211.827787 
L 99.265591 206.911655 
L 102.472445 202.20353 
L 105.910364 197.806629 
L 109.56577 193.832448 
L 113.424227 190.267165 
L 117.470495 187.000085 
L 121.688594 183.964599 
L 126.061866 181.094976 
L 130.573036 177.345006 
L 135.20429 171.990403 
L 139.937336 163.847783 
L 144.75348 152.091359 
L 149.633703 137.073597 
L 154.558728 120.234857 
L 159.509106 103.909437 
L 164.465285 90.403992 
L 169.407691 80.281188 
L 174.316803 72.320478 
L 179.173234 65.793464 
L 183.957803 60.350848 
L 188.651613 55.924583 
L 193.236126 52.197247 
L 197.693237 49.250749 
L 202.005342 46.725099 
L 206.15541 44.500675 
L 210.127051 42.634282 
L 213.904579 41.188166 
L 220.818445 38.82774 
L 231.718704 35.432087 
L 238.170781 33.663588 
L 239.835314 33.248164 
L 238.704219 36.48056 
L 236.412771 42.71394 
L 232.93079 51.3341 
L 230.75981 56.163123 
L 228.313229 61.143352 
L 225.600709 66.129245 
L 222.632963 70.998203 
L 219.421712 75.716517 
L 215.979639 80.125927 
L 212.320339 84.120353 
L 208.458263 87.682079 
L 204.408666 90.939198 
L 200.187539 94.027065 
L 195.811556 97.001962 
L 191.297998 100.735421 
L 186.664691 105.424135 
L 181.929936 112.551583 
L 177.112431 122.762144 
L 172.231203 135.951709 
L 167.30553 151.349333 
L 162.354867 167.487641 
L 157.398765 182.480865 
L 152.456799 194.37978 
L 147.548487 203.579943 
L 142.693214 210.779636 
L 137.910155 216.41579 
L 133.218201 220.917508 
L 128.635884 224.69189 
L 124.1813 227.74615 
L 119.872043 230.257825 
L 115.725132 232.488791 
L 111.756946 234.435035 
L 107.983155 235.988497 
L 101.077556 238.446031 
L 92.521733 241.164682 
L 82.908024 243.848316 
L 82.118846 244.051838 
L 87.17048 230.431726 
L 89.062618 225.865235 
L 91.238783 220.957237 
L 93.69038 215.890582 
L 96.407727 210.844109 
L 99.380092 205.959358 
L 102.595735 201.298432 
L 106.041957 196.954964 
L 109.705146 192.994884 
L 113.570836 189.437779 
L 117.623758 186.156312 
L 126.226595 180.047733 
L 130.742534 176.224271 
L 135.377887 170.635986 
L 140.114346 162.276015 
L 144.933205 150.434397 
L 149.815432 135.652419 
L 154.741744 119.293524 
L 159.692686 103.682611 
L 164.648704 90.731955 
L 169.590224 80.95884 
L 174.497729 73.179867 
L 179.351839 66.752921 
L 184.133381 61.340614 
L 188.823472 56.959238 
L 193.403587 53.207845 
L 197.855638 50.219725 
L 202.162041 47.738283 
L 206.305789 45.511563 
L 210.270516 43.603431 
L 214.040563 41.998402 
L 220.937887 39.641996 
L 231.7997 36.27649 
L 239.838413 34.001955 
L 238.67285 37.298862 
L 236.358968 43.560564 
L 232.855402 52.216307 
L 230.674054 57.080565 
L 228.217444 62.065862 
L 225.495274 67.048094 
L 222.518294 71.953032 
L 219.298263 76.659524 
L 215.847897 81.012917 
L 212.180823 84.958199 
L 208.311526 88.499258 
L 204.255285 91.853324 
L 200.028122 94.920979 
L 195.646732 97.914666 
L 191.128418 101.887877 
L 186.491025 107.016424 
L 181.752869 114.366768 
L 176.932663 124.599512 
L 172.049444 137.536932 
L 167.122498 152.435542 
L 162.171284 167.783552 
L 157.215357 182.172512 
L 152.27429 193.70845 
L 147.367597 202.781855 
L 142.514658 209.926525 
L 137.734639 215.519965 
L 133.046418 220.025972 
L 128.468511 223.734692 
L 124.019 226.876361 
L 119.715456 229.349168 
L 115.574876 231.541975 
L 111.613615 233.500294 
L 107.847316 235.133041 
L 104.290854 236.492928 
L 97.862743 238.654542 
L 88.080552 241.640616 
L 82.115961 243.291868 
L 87.235403 229.526811 
L 89.138201 224.91775 
L 91.324728 219.971701 
L 93.786347 214.897289 
L 96.513337 209.855387 
L 99.494927 204.972531 
L 102.719343 200.324769 
L 106.173848 196.007644 
L 109.844801 192.080819 
L 113.717702 188.510256 
L 117.777255 185.232287 
L 122.007428 182.239593 
L 126.391513 178.855314 
L 130.912196 174.629074 
L 135.551623 168.598863 
L 140.291469 159.793647 
L 145.113016 147.909552 
L 149.997221 133.487803 
L 154.924793 117.987948 
L 159.876272 103.263926 
L 165.382705 89.789131 
L 171.029114 79.529962 
L 176.635825 71.298582 
L 182.180696 64.651618 
L 187.641828 59.22116 
L 192.997651 54.710138 
L 198.227013 51.083969 
L 203.30926 48.200192 
L 208.224322 45.64559 
L 212.952785 43.444801 
L 217.475975 41.617721 
L 225.835959 38.928643 
L 239.369321 34.885151 
L 246.319797 33.055212 
L 251.107256 31.912611 
L 247.065739 42.817326 
L 245.217728 47.354145 
L 243.037015 52.315067 
L 240.532212 57.563342 
L 237.713212 62.88249 
L 234.591148 68.077657 
L 231.178351 73.067821 
L 227.4883 77.759256 
L 223.535568 82.032446 
L 219.335766 85.824386 
L 214.905482 89.181763 
L 210.262212 92.180287 
L 205.424296 95.115034 
L 200.41084 97.919654 
L 195.241645 101.530757 
L 189.937126 106.32849 
L 184.518234 113.258257 
L 179.006369 123.344153 
L 173.423302 136.70353 
L 167.791082 152.5084 
L 162.131954 168.924795 
L 156.468267 184.127168 
L 150.822391 196.068462 
L 145.216624 205.372097 
L 139.673106 212.468069 
L 134.21373 218.099892 
L 128.860058 222.43013 
L 123.633234 226.129989 
L 118.553902 229.013161 
L 113.642122 231.504328 
L 108.917293 233.727145 
L 104.398076 235.55366 
L 100.102318 237.101731 
L 92.248098 239.57145 
L 79.900632 243.156052 
L 70.847163 245.465335 
L 74.921177 234.488558 
L 76.775419 229.915604 
L 78.962216 224.869349 
L 81.472931 219.535429 
L 84.297648 214.148776 
L 87.425212 208.909591 
L 90.843269 203.924984 
L 94.538321 199.275362 
L 98.495773 195.050501 
L 102.699997 191.283768 
L 107.134387 187.92823 
L 111.78143 184.8621 
L 121.639295 179.07227 
L 126.811184 175.112079 
L 132.118012 169.509893 
L 137.538822 161.047156 
L 143.052204 148.931398 
L 148.636382 133.754942 
L 154.269303 117.040156 
L 159.928719 101.273486 
L 165.592279 88.384526 
L 171.237615 78.689659 
L 176.84243 70.875576 
L 182.384588 64.559892 
L 187.842201 59.337626 
L 193.193715 55.027906 
L 198.417993 51.48463 
L 203.494403 48.615788 
L 208.402895 46.163938 
L 213.124083 43.999803 
L 217.639322 42.227125 
L 221.930779 40.752221 
L 233.29778 37.446939 
L 244.408762 34.46566 
L 251.10982 32.866149 
L 247.003316 43.850396 
L 245.142845 48.397379 
L 242.949967 53.417296 
L 240.433343 58.675269 
L 237.602912 63.995498 
L 234.469853 69.204499 
L 231.04654 74.180385 
L 227.346494 78.841199 
L 223.384326 83.048407 
L 219.175686 86.779086 
L 214.737196 90.087701 
L 210.086386 93.150376 
L 200.222041 99.084743 
L 195.047467 103.121534 
L 189.738335 108.32047 
L 184.315615 115.772804 
L 178.800724 126.272192 
L 173.215441 139.6576 
L 161.922131 170.635262 
L 156.258705 185.127427 
L 150.613918 196.549631 
L 145.010063 205.53903 
L 139.469272 212.452156 
L 134.013429 217.914409 
L 128.664081 222.152041 
L 123.442355 225.77669 
L 118.368875 228.658427 
L 113.463677 231.076746 
L 108.746135 233.246938 
L 104.234881 235.122054 
L 95.901619 237.946813 
L 88.595407 240.071301 
L 77.507344 242.964866 
L 70.844843 244.588664 
L 74.983832 233.475244 
L 76.85053 228.871426 
L 79.049486 223.800563 
L 81.572016 218.461844 
L 84.408156 213.09023 
L 87.546706 207.868028 
L 90.97527 202.911227 
L 94.680307 198.301963 
L 98.647184 194.114301 
L 102.860234 190.381539 
L 107.302818 187.052563 
L 111.95739 183.965214 
L 116.805566 181.157463 
L 121.8282 177.919719 
L 127.005454 173.905167 
L 132.316881 168.009394 
L 137.741504 159.171855 
L 143.257898 147.026673 
L 148.844277 132.082087 
L 154.478576 116.185074 
L 160.138545 101.182908 
L 165.801829 88.812219 
L 171.44606 79.46675 
L 177.048948 71.857665 
L 182.588363 65.660782 
L 188.042429 60.458156 
L 193.389604 56.203896 
L 198.608771 52.611362 
L 203.679315 49.672584 
L 208.581211 47.263752 
L 213.2951 45.082181 
L 217.802363 43.242311 
L 222.0852 41.673175 
L 226.126696 40.378167 
L 236.648657 37.431228 
L 250.301978 33.845546 
L 251.111897 33.651035 
L 246.940427 44.753137 
L 245.067506 49.315563 
L 242.862475 54.34746 
L 240.334043 59.651465 
L 237.492197 65.027688 
L 234.34816 70.198488 
L 230.91435 75.2097 
L 227.204328 79.823381 
L 223.232746 83.975459 
L 219.015291 87.658468 
L 214.56862 90.944309 
L 209.910293 94.080793 
L 205.05871 96.824122 
L 200.03303 100.431387 
L 194.853104 104.573538 
L 189.539388 110.010926 
L 184.11287 117.62188 
L 178.594981 128.066765 
L 173.007514 141.175029 
L 161.712303 170.865163 
L 156.049169 184.625664 
L 150.405501 195.669758 
L 144.803588 204.517631 
L 139.265555 211.392371 
L 133.813274 216.803186 
L 128.468279 221.071788 
L 123.251679 224.649246 
L 118.184078 227.664328 
L 113.28549 230.032661 
L 108.575261 232.170716 
L 104.071994 234.089696 
L 99.793476 235.688367 
L 91.97732 238.214271 
L 82.328831 240.904744 
L 70.843011 243.834356 
L 75.046954 232.583079 
L 76.926097 227.946135 
L 79.137201 222.86054 
L 81.671531 217.48151 
L 84.519079 212.068395 
L 87.668598 206.830775 
L 91.10765 201.887382 
L 94.822652 197.294157 
L 98.798933 193.13673 
L 103.020787 189.441146 
L 107.47154 186.104293 
L 112.133615 183.060176 
L 116.988599 180.138839 
L 122.017317 176.571786 
L 127.199909 172.345704 
L 132.515905 166.020158 
L 137.944312 156.908208 
L 143.463688 144.792493 
L 154.687885 115.293368 
L 160.348375 101.074117 
L 166.640535 88.123106 
L 172.98902 78.341629 
L 179.290066 70.42226 
L 185.518789 64.04936 
L 191.650589 58.826629 
L 197.661248 54.457849 
L 203.527027 50.931704 
L 209.22476 48.013675 
L 214.731943 45.52154 
L 220.026826 43.369287 
L 225.088498 41.559302 
L 229.896966 40.043438 
L 252.446115 33.928201 
L 261.49886 31.775207 
L 262.380435 31.577216 
L 259.353841 39.760332 
L 257.614472 44.133989 
L 255.493439 49.124298 
L 252.99912 54.53704 
L 250.141367 60.140968 
L 246.931465 65.689359 
L 243.382093 71.011529 
L 239.507267 75.971156 
L 235.322293 80.520168 
L 230.843697 84.538332 
L 226.089169 88.057962 
L 221.077486 91.119149 
L 215.828442 93.978406 
L 210.362767 96.704391 
L 204.702048 100.178529 
L 198.868642 104.42131 
L 192.885588 109.902524 
L 186.776515 117.605068 
L 180.565551 128.419367 
L 174.277227 142.129981 
L 161.568045 173.590471 
L 155.197382 187.99017 
L 148.849549 199.260599 
L 142.549616 208.246833 
L 136.322465 214.98683 
L 130.19269 220.289315 
L 124.1845 224.411177 
L 118.321624 227.918659 
L 112.627218 230.682461 
L 107.123771 233.117086 
L 101.833019 235.280196 
L 96.775858 237.027557 
L 91.972261 238.530716 
L 83.200567 240.875717 
L 69.458753 244.308861 
L 62.894898 245.732814 
L 59.574641 246.359034 
L 61.272535 241.658874 
L 64.377124 233.663208 
L 66.50515 228.596765 
L 69.006293 223.096842 
L 71.870675 217.403315 
L 75.086982 211.811951 
L 78.642513 206.505876 
L 82.523225 201.586466 
L 86.713791 197.10625 
L 91.19766 193.106358 
L 95.957125 189.580489 
L 100.973386 186.435622 
L 106.226633 183.566884 
L 111.696119 180.86039 
L 117.360241 177.544327 
L 123.19663 173.379106 
L 129.182234 167.237059 
L 135.293414 158.099015 
L 141.506035 145.439403 
L 147.795558 129.969648 
L 154.137145 113.970941 
L 160.505749 98.775194 
L 166.876218 86.457191 
L 173.223392 77.202517 
L 179.522202 69.712916 
L 185.747772 63.619583 
L 191.875514 58.594828 
L 197.881227 54.410375 
L 203.741192 50.948058 
L 209.432264 48.037943 
L 214.931967 45.647009 
L 220.21858 43.610404 
L 230.069944 40.282542 
L 238.830878 37.954171 
L 252.547779 34.585252 
L 262.381671 32.41298 
L 257.542674 45.019674 
L 255.407657 50.03264 
L 252.899693 55.495075 
L 250.028687 61.168124 
L 246.805978 66.729077 
L 243.244294 72.048347 
L 239.357701 76.992962 
L 235.161549 81.497098 
L 230.672412 85.475868 
L 225.908018 88.949533 
L 220.887185 91.978733 
L 215.629742 94.689674 
L 210.156453 97.749604 
L 204.488935 101.517109 
L 198.649572 105.882231 
L 192.661426 111.607048 
L 186.548146 119.568359 
L 180.333878 130.403669 
L 174.043163 143.842341 
L 161.331981 174.081834 
L 154.961715 187.719341 
L 148.615209 198.802445 
L 142.31753 207.655752 
L 136.093549 214.298065 
L 129.967848 219.562493 
L 123.96462 223.600283 
L 118.107575 227.09034 
L 112.419845 229.913807 
L 106.923893 232.284248 
L 101.641425 234.428657 
L 96.593305 236.284328 
L 91.79947 237.795465 
L 83.049307 240.190366 
L 69.357337 243.431764 
L 59.573679 245.586328 
L 64.449184 232.787125 
L 66.591188 227.699246 
L 69.105969 222.174983 
L 71.983596 216.470684 
L 75.212702 210.888686 
L 78.780535 205.576195 
L 82.673004 200.648257 
L 86.874736 196.193203 
L 91.369135 192.230891 
L 96.138452 188.738954 
L 101.16385 185.62371 
L 111.902566 179.826205 
L 117.573472 176.234552 
L 123.415802 171.837628 
L 129.406482 165.182795 
L 135.521853 155.742308 
L 141.737761 143.169254 
L 154.372693 112.935954 
L 160.741815 98.535583 
L 167.111869 86.777652 
L 173.457697 77.805278 
L 179.754237 70.44981 
L 185.97662 64.457589 
L 192.100272 59.375621 
L 198.101007 55.242787 
L 203.955125 51.708746 
L 209.639506 48.772153 
L 215.131699 46.314884 
L 220.410014 44.298359 
L 230.242548 40.964543 
L 234.757934 39.613269 
L 242.897848 37.51866 
L 259.150155 33.630483 
L 262.382358 32.929785 
L 257.470353 45.667206 
L 255.321364 50.69818 
L 252.799768 56.163083 
L 249.915525 61.830841 
L 246.680026 67.457368 
L 243.106049 72.797213 
L 239.207709 77.729043 
L 235.000404 82.176944 
L 230.500749 86.104311 
L 225.726515 89.529458 
L 220.696559 92.560509 
L 215.430746 95.261778 
L 209.949873 98.829764 
L 204.275587 102.709417 
L 198.430298 107.432063 
L 192.437092 113.749696 
L 186.319639 122.399051 
L 180.102099 133.646418 
L 173.809029 146.971628 
L 161.095915 175.981548 
L 154.72608 188.858087 
L 148.380937 199.45482 
L 142.085546 208.030274 
L 135.864768 214.55409 
L 129.743175 219.658762 
L 123.744942 223.641774 
L 117.893759 227.041692 
L 112.212735 229.830523 
L 106.724308 232.134181 
L 101.450153 234.202815 
L 96.411101 236.002199 
L 91.627054 237.459787 
L 78.988403 240.544872 
L 62.77611 244.187969 
L 59.573267 244.873059 
L 62.746746 236.384478 
L 66.677737 226.82747 
L 69.206143 221.299472 
L 72.096999 215.585677 
L 75.338887 209.975065 
L 78.919003 204.651653 
L 82.823208 199.735643 
L 87.036082 195.289719 
L 91.540987 191.29794 
L 96.32013 187.756892 
L 101.354638 184.594559 
L 117.786938 174.972893 
L 123.635178 170.603795 
L 129.630901 163.950946 
L 135.750429 154.307885 
L 141.969592 141.655421 
L 154.608276 111.863747 
L 154.608276 111.863747 
" clip-path="url(#p2fbcb45c30)" style="fill: none; stroke: #3152a1; stroke-width: 1.5; stroke-linecap: square"/>
   </g>
   <g id="line2d_26">
    <path d="M 49.432813 138.727723 
L 272.522812 138.727723 
" clip-path="url(#p2fbcb45c30)" style="fill: none; stroke: #000000; stroke-width: 0.4; stroke-linecap: square"/>
   </g>
   <g id="line2d_27">
    <path d="M 160.977881 257.098125 
L 160.977881 20.838125 
" clip-path="url(#p2fbcb45c30)" style="fill: none; stroke: #000000; stroke-width: 0.4; stroke-linecap: square"/>
   </g>
   <g id="patch_3">
    <path d="M 49.432813 257.098125 
L 49.432813 20.838125 
" style="fill: none; stroke: #000000; stroke-width: 0.8; stroke-linejoin: miter; stroke-linecap: square"/>
   </g>
   <g id="patch_4">
    <path d="M 272.522812 257.098125 
L 272.522812 20.838125 
" style="fill: none; stroke: #000000; stroke-width: 0.8; stroke-linejoin: miter; stroke-linecap: square"/>
   </g>
   <g id="patch_5">
    <path d="M 49.432812 257.098125 
L 272.522812 257.098125 
" style="fill: none; stroke: #000000; stroke-width: 0.8; stroke-linejoin: miter; stroke-linecap: square"/>
   </g>
   <g id="patch_6">
    <path d="M 49.432812 20.838125 
L 272.522812 20.838125 
" style="fill: none; stroke: #000000; stroke-width: 0.8; stroke-linejoin: miter; stroke-linecap: square"/>
   </g>
   <g id="text_15">
    <!-- Specimen : Yi_USWB -->
    <g transform="translate(111.378984 14.838125) scale(0.11 -0.11)">
     <defs>
      <path id="TimesNewRomanPSMT-3a" d="M 903 2950 
Q 1047 2950 1148 2848 
Q 1250 2747 1250 2603 
Q 1250 2459 1148 2357 
Q 1047 2256 903 2256 
Q 759 2256 657 2357 
Q 556 2459 556 2603 
Q 556 2747 657 2848 
Q 759 2950 903 2950 
z
M 897 609 
Q 1044 609 1145 506 
Q 1247 403 1247 259 
Q 1247 116 1144 14 
Q 1041 -88 897 -88 
Q 753 -88 651 14 
Q 550 116 550 259 
Q 550 403 651 506 
Q 753 609 897 609 
z
" transform="scale(0.015625)"/>
      <path id="TimesNewRomanPSMT-59" d="M 3050 4238 
L 4528 4238 
L 4528 4122 
L 4447 4122 
Q 4366 4122 4209 4050 
Q 4053 3978 3925 3843 
Q 3797 3709 3609 3406 
L 2588 1797 
L 2588 734 
Q 2588 344 2675 247 
Q 2794 116 3050 116 
L 3188 116 
L 3188 0 
L 1388 0 
L 1388 116 
L 1538 116 
Q 1806 116 1919 278 
Q 1988 378 1988 734 
L 1988 1738 
L 825 3513 
Q 619 3825 545 3903 
Q 472 3981 241 4091 
Q 178 4122 59 4122 
L 59 4238 
L 1872 4238 
L 1872 4122 
L 1778 4122 
Q 1631 4122 1507 4053 
Q 1384 3984 1384 3847 
Q 1384 3734 1575 3441 
L 2459 2075 
L 3291 3381 
Q 3478 3675 3478 3819 
Q 3478 3906 3433 3975 
Q 3388 4044 3303 4083 
Q 3219 4122 3050 4122 
L 3050 4238 
z
" transform="scale(0.015625)"/>
      <path id="TimesNewRomanPSMT-5f" d="M 3256 -1381 
L -53 -1381 
L -53 -1119 
L 3256 -1119 
L 3256 -1381 
z
" transform="scale(0.015625)"/>
      <path id="TimesNewRomanPSMT-55" d="M 3053 4122 
L 3053 4238 
L 4553 4238 
L 4553 4122 
L 4394 4122 
Q 4144 4122 4009 3913 
Q 3944 3816 3944 3463 
L 3944 1744 
Q 3944 1106 3817 754 
Q 3691 403 3320 151 
Q 2950 -100 2313 -100 
Q 1619 -100 1259 140 
Q 900 381 750 788 
Q 650 1066 650 1831 
L 650 3488 
Q 650 3878 542 4000 
Q 434 4122 194 4122 
L 34 4122 
L 34 4238 
L 1866 4238 
L 1866 4122 
L 1703 4122 
Q 1441 4122 1328 3956 
Q 1250 3844 1250 3488 
L 1250 1641 
Q 1250 1394 1295 1075 
Q 1341 756 1459 578 
Q 1578 400 1801 284 
Q 2025 169 2350 169 
Q 2766 169 3094 350 
Q 3422 531 3542 814 
Q 3663 1097 3663 1772 
L 3663 3488 
Q 3663 3884 3575 3984 
Q 3453 4122 3213 4122 
L 3053 4122 
z
" transform="scale(0.015625)"/>
      <path id="TimesNewRomanPSMT-57" d="M 5991 4238 
L 5991 4122 
Q 5825 4122 5722 4062 
Q 5619 4003 5525 3841 
Q 5463 3731 5328 3319 
L 4147 -97 
L 4022 -97 
L 3056 2613 
L 2097 -97 
L 1984 -97 
L 725 3422 
Q 584 3816 547 3888 
Q 484 4006 376 4064 
Q 269 4122 84 4122 
L 84 4238 
L 1653 4238 
L 1653 4122 
L 1578 4122 
Q 1413 4122 1325 4047 
Q 1238 3972 1238 3866 
Q 1238 3756 1375 3363 
L 2209 984 
L 2913 3006 
L 2788 3363 
L 2688 3647 
Q 2622 3803 2541 3922 
Q 2500 3981 2441 4022 
Q 2363 4078 2284 4103 
Q 2225 4122 2097 4122 
L 2097 4238 
L 3747 4238 
L 3747 4122 
L 3634 4122 
Q 3459 4122 3378 4047 
Q 3297 3972 3297 3844 
Q 3297 3684 3438 3288 
L 4250 984 
L 5056 3319 
Q 5194 3706 5194 3856 
Q 5194 3928 5148 3990 
Q 5103 4053 5034 4078 
Q 4916 4122 4725 4122 
L 4725 4238 
L 5991 4238 
z
" transform="scale(0.015625)"/>
     </defs>
     <use xlink:href="#TimesNewRomanPSMT-53"/>
     <use xlink:href="#TimesNewRomanPSMT-70" x="55.615234"/>
     <use xlink:href="#TimesNewRomanPSMT-65" x="105.615234"/>
     <use xlink:href="#TimesNewRomanPSMT-63" x="150"/>
     <use xlink:href="#TimesNewRomanPSMT-69" x="194.384766"/>
     <use xlink:href="#TimesNewRomanPSMT-6d" x="222.167969"/>
     <use xlink:href="#TimesNewRomanPSMT-65" x="299.951172"/>
     <use xlink:href="#TimesNewRomanPSMT-6e" x="344.335938"/>
     <use xlink:href="#TimesNewRomanPSMT-20" x="394.335938"/>
     <use xlink:href="#TimesNewRomanPSMT-3a" x="419.335938"/>
     <use xlink:href="#TimesNewRomanPSMT-20" x="447.119141"/>
     <use xlink:href="#TimesNewRomanPSMT-59" x="468.369141"/>
     <use xlink:href="#TimesNewRomanPSMT-69" x="535.085938"/>
     <use xlink:href="#TimesNewRomanPSMT-5f" x="562.869141"/>
     <use xlink:href="#TimesNewRomanPSMT-55" x="612.869141"/>
     <use xlink:href="#TimesNewRomanPSMT-53" x="685.085938"/>
     <use xlink:href="#TimesNewRomanPSMT-57" x="740.701172"/>
     <use xlink:href="#TimesNewRomanPSMT-42" x="835.085938"/>
    </g>
   </g>
   <g id="legend_1">
    <g id="patch_7">
     <path d="M 55.263813 39.279964 
L 132.770558 39.279964 
Q 134.436558 39.279964 134.436558 37.613964 
L 134.436558 26.669125 
Q 134.436558 25.003125 132.770558 25.003125 
L 55.263813 25.003125 
Q 53.597813 25.003125 53.597813 26.669125 
L 53.597813 37.613964 
Q 53.597813 39.279964 55.263813 39.279964 
z
" style="fill: #ffffff; opacity: 0.8; stroke: #cccccc; stroke-linejoin: miter"/>
    </g>
    <g id="line2d_28">
     <path d="M 56.929813 31.250625 
L 65.259813 31.250625 
L 73.589813 31.250625 
" style="fill: none; stroke: #3152a1; stroke-width: 1.5; stroke-linecap: square"/>
    </g>
    <g id="text_16">
     <!-- Numerical Test -->
     <g transform="translate(80.253813 34.166125) scale(0.0833 -0.0833)">
      <defs>
       <path id="TimesNewRomanPSMT-75" d="M 2709 2863 
L 2709 1128 
Q 2709 631 2732 520 
Q 2756 409 2807 365 
Q 2859 322 2928 322 
Q 3025 322 3147 375 
L 3191 266 
L 2334 -88 
L 2194 -88 
L 2194 519 
Q 1825 119 1631 15 
Q 1438 -88 1222 -88 
Q 981 -88 804 51 
Q 628 191 559 409 
Q 491 628 491 1028 
L 491 2306 
Q 491 2509 447 2587 
Q 403 2666 317 2708 
Q 231 2750 6 2747 
L 6 2863 
L 1009 2863 
L 1009 947 
Q 1009 547 1148 422 
Q 1288 297 1484 297 
Q 1619 297 1789 381 
Q 1959 466 2194 703 
L 2194 2325 
Q 2194 2569 2105 2655 
Q 2016 2741 1734 2747 
L 1734 2863 
L 2709 2863 
z
" transform="scale(0.015625)"/>
       <path id="TimesNewRomanPSMT-54" d="M 3703 4238 
L 3750 3244 
L 3631 3244 
Q 3597 3506 3538 3619 
Q 3441 3800 3280 3886 
Q 3119 3972 2856 3972 
L 2259 3972 
L 2259 734 
Q 2259 344 2344 247 
Q 2463 116 2709 116 
L 2856 116 
L 2856 0 
L 1059 0 
L 1059 116 
L 1209 116 
Q 1478 116 1591 278 
Q 1659 378 1659 734 
L 1659 3972 
L 1150 3972 
Q 853 3972 728 3928 
Q 566 3869 450 3700 
Q 334 3531 313 3244 
L 194 3244 
L 244 4238 
L 3703 4238 
z
" transform="scale(0.015625)"/>
      </defs>
      <use xlink:href="#TimesNewRomanPSMT-4e"/>
      <use xlink:href="#TimesNewRomanPSMT-75" x="72.216797"/>
      <use xlink:href="#TimesNewRomanPSMT-6d" x="122.216797"/>
      <use xlink:href="#TimesNewRomanPSMT-65" x="200"/>
      <use xlink:href="#TimesNewRomanPSMT-72" x="244.384766"/>
      <use xlink:href="#TimesNewRomanPSMT-69" x="277.685547"/>
      <use xlink:href="#TimesNewRomanPSMT-63" x="305.46875"/>
      <use xlink:href="#TimesNewRomanPSMT-61" x="349.853516"/>
      <use xlink:href="#TimesNewRomanPSMT-6c" x="394.238281"/>
      <use xlink:href="#TimesNewRomanPSMT-20" x="422.021484"/>
      <use xlink:href="#TimesNewRomanPSMT-54" x="445.271484"/>
      <use xlink:href="#TimesNewRomanPSMT-65" x="499.355469"/>
      <use xlink:href="#TimesNewRomanPSMT-73" x="543.740234"/>
      <use xlink:href="#TimesNewRomanPSMT-74" x="582.65625"/>
     </g>
    </g>
   </g>
  </g>
 </g>
 <defs>
  <clipPath id="p2fbcb45c30">
   <rect x="49.432813" y="20.838125" width="223.09" height="236.26"/>
  </clipPath>
 </defs>
</svg>
